<?xml version="1.0" encoding="iso-8859-1"?>
<!-- Generator: Adobe Illustrator 19.0.0, SVG Export Plug-In . SVG Version: 6.00 Build 0)  -->
<svg version="1.1" id="Layer_1" xmlns="http://www.w3.org/2000/svg" xmlns:xlink="http://www.w3.org/1999/xlink" x="0px" y="0px"
	 viewBox="0 0 488.124 488.124" style="enable-background:new 0 0 488.124 488.124;" xml:space="preserve">
<g>
	<g>
		<path d="M439.248,383.124c-4.1-6.3-8.3-12.4-12.5-18.3c-3.1-4.5-6.1-8.7-9-13c-1.5-2.3-3-4.5-4.5-6.7
			c-7.8-11.7-15.9-23.8-23.3-35.9c-13-21.2-20.5-44.1-23-70.1c-1.8-19.1-4.5-38.1-8.2-56.5c-5.1-25.7-16.6-46-34.2-60.3
			c-20-16.5-45.8-22-72.8-15.6c-15.8,3.8-32-2.3-39.4-14.7c-3.6-6-5.4-12.9-5.2-20c0.5-19.3,16.7-35.4,36-36
			c15.7-0.4,30.1,9.2,35.7,23.9c3.5,9.3,13.9,14,23.2,10.4c9.3-3.5,14-13.9,10.4-23.2c-11-29-39.3-47.9-70.4-47.1
			c-18.5,0.5-36.1,8.2-49.4,21.5c-13.4,13.4-21,30.9-21.5,49.4c-0.4,13.9,3.2,27.6,10.3,39.5c15.7,26.2,47.3,38.7,78.7,31.2
			c11.2-2.7,27.4-3.4,41.6,8.3c0,0,0.1,0,0.1,0.1c11.1,9.1,18.2,22,21.7,39.5c3.4,17.2,6,34.9,7.7,52.8
			c2.9,31.1,12.4,59.9,28.1,85.6c7.8,12.6,16.1,25,24.1,37c1.5,2.2,3,4.5,4.5,6.7c3.1,4.7,6.4,9.3,9.5,13.7c4.1,5.8,8,11.4,11.6,17
			c1.5,2.3,3.9,6.6,3.4,9.5c-0.4,2.2-2.6,5.3-6.4,8.5c-7.7,6.6-17.8,10.5-27.7,13.6c-31.5,10.1-66.5,15.8-110.4,17.9h-47.7
			c-43.8-2-78.9-7.7-110.4-17.9c-9.8-3.2-20-7-27.7-13.6c-3.8-3.3-6-6.3-6.4-8.5c-0.5-2.9,2-7.2,3.4-9.5c3.7-5.7,7.5-11.2,11.6-17
			c3.1-4.4,6.4-9,9.5-13.7c1.5-2.2,3-4.5,4.5-6.7c8-12,16.3-24.4,24.1-37c15.8-25.6,25.2-54.4,28.1-85.6c1.7-17.9,4.2-35.6,7.7-52.8
			c1.4-7.2,3.5-13.7,6.2-19.4c4.2-9,0.4-19.7-8.6-24c-9-4.2-19.7-0.4-24,8.6c-3.9,8.3-7,17.7-9,27.7c-3.7,18.4-6.4,37.4-8.2,56.5
			c-2.4,25.9-9.9,48.9-23,70.1c-7.4,12.1-15.5,24.2-23.3,35.9c-1.5,2.2-3,4.5-4.5,6.7c-2.9,4.3-5.9,8.5-9,13
			c-4.1,5.9-8.4,12-12.5,18.3c-14.8,23.6-11.4,46.6,9.9,64.9c12.5,10.8,26.7,16.3,40.2,20.7c34.7,11.2,72.9,17.4,120.2,19.6
			c0.3,0,0.6,0,0.8,0h48.5c0.3,0,0.6,0,0.8,0c47.3-2.2,85.5-8.4,120.2-19.6c13.5-4.3,27.7-9.8,40.2-20.7
			C450.748,429.424,454.248,406.424,439.248,383.124z"/>
	</g>
</g>
<g>
</g>
<g>
</g>
<g>
</g>
<g>
</g>
<g>
</g>
<g>
</g>
<g>
</g>
<g>
</g>
<g>
</g>
<g>
</g>
<g>
</g>
<g>
</g>
<g>
</g>
<g>
</g>
<g>
</g>
</svg>
