<?xml version="1.0" encoding="utf-8"?>
<!-- Generator: Adobe Illustrator 18.0.0, SVG Export Plug-In . SVG Version: 6.00 Build 0)  -->
<!DOCTYPE svg PUBLIC "-//W3C//DTD SVG 1.1//EN" "http://www.w3.org/Graphics/SVG/1.1/DTD/svg11.dtd">
<svg version="1.1" id="Artwork" xmlns="http://www.w3.org/2000/svg" xmlns:xlink="http://www.w3.org/1999/xlink" x="0px" y="0px"
	 viewBox="0 0 512 512" enable-background="new 0 0 512 512" xml:space="preserve">
<g>
	<path d="M49.2,453.4h413.7c20.3,0,36.9-16.5,36.9-36.9V95.5c0-20.3-16.5-36.9-36.9-36.9H49.2c-20.3,0-36.8,16.5-36.8,36.9v321.1
		C12.3,436.9,28.9,453.4,49.2,453.4z M462.8,428.9H49.2c-6.8,0-12.3-5.5-12.3-12.4V175.7h438.3v240.9
		C475.2,423.3,469.6,428.9,462.8,428.9z M49.2,83.1h413.7c6.8,0,12.4,5.5,12.4,12.4v55.7H36.8V95.5C36.8,88.7,42.4,83.1,49.2,83.1z"
		/>
	<path d="M70.8,129.4c3.2,0,6.4-1.3,8.7-3.6c2.3-2.3,3.6-5.5,3.6-8.7c0-3.2-1.3-6.4-3.6-8.7c-4.6-4.6-12.8-4.6-17.3,0
		c-2.3,2.3-3.6,5.4-3.6,8.7c0,3.2,1.3,6.4,3.6,8.7C64.5,128.1,67.6,129.4,70.8,129.4z"/>
	<path d="M117.2,129.4c3.2,0,6.4-1.3,8.7-3.6c2.3-2.3,3.6-5.5,3.6-8.7c0-3.2-1.3-6.4-3.6-8.7c-4.6-4.6-12.8-4.6-17.3,0
		c-2.3,2.3-3.6,5.4-3.6,8.7c0,3.2,1.3,6.4,3.6,8.7C110.8,128.1,113.9,129.4,117.2,129.4z"/>
	<path d="M163.4,129.4c3.2,0,6.4-1.3,8.7-3.6c2.3-2.3,3.6-5.5,3.6-8.7c0-3.2-1.3-6.4-3.6-8.7c-4.6-4.6-12.7-4.6-17.3,0
		c-2.3,2.3-3.6,5.4-3.6,8.7c0,3.2,1.3,6.4,3.6,8.7C157,128.1,160.2,129.4,163.4,129.4z"/>
	<path d="M429.3,207.6H82.7c-6.8,0-12.3,5.5-12.3,12.3c0,6.8,5.5,12.3,12.3,12.3h346.6c6.8,0,12.3-5.5,12.3-12.3
		C441.6,213,436.1,207.6,429.3,207.6z"/>
	<path d="M82.7,287.6h255.4c6.8,0,12.3-5.5,12.3-12.3s-5.5-12.3-12.3-12.3H82.7c-6.8,0-12.3,5.5-12.3,12.3S75.9,287.6,82.7,287.6z"
		/>
	<path d="M429.3,318.6H82.7c-6.8,0-12.3,5.5-12.3,12.3s5.5,12.3,12.3,12.3h346.6c6.8,0,12.3-5.5,12.3-12.3S436.1,318.6,429.3,318.6z
		"/>
	<path d="M256,374.1H82.7c-6.8,0-12.3,5.5-12.3,12.3c0,6.8,5.5,12.3,12.3,12.3H256c6.8,0,12.3-5.5,12.3-12.3
		C268.3,379.6,262.8,374.1,256,374.1z"/>
</g>
</svg>
