<?xml version="1.0" encoding="utf-8"?>
<!-- Generator: Adobe Illustrator 18.0.0, SVG Export Plug-In . SVG Version: 6.00 Build 0)  -->
<!DOCTYPE svg PUBLIC "-//W3C//DTD SVG 1.1//EN" "http://www.w3.org/Graphics/SVG/1.1/DTD/svg11.dtd">
<svg version="1.1" id="Artwork" xmlns="http://www.w3.org/2000/svg" xmlns:xlink="http://www.w3.org/1999/xlink" x="0px" y="0px"
	 viewBox="0 0 512 512" enable-background="new 0 0 512 512" xml:space="preserve">
<g>
	<path d="M462.8,58.6H49.2c-20.3,0-36.8,16.5-36.8,36.9v321.1c0,20.3,16.5,36.9,36.8,36.9h413.7c20.3,0,36.9-16.5,36.9-36.9V95.5
		C499.7,75.1,483.1,58.6,462.8,58.6z M49.2,83.1h413.7c6.8,0,12.4,5.5,12.4,12.4v55.7H36.8V95.5C36.8,88.7,42.4,83.1,49.2,83.1z
		 M462.8,428.9H49.2c-6.8,0-12.3-5.5-12.3-12.4V175.7h438.3v240.9C475.2,423.3,469.6,428.9,462.8,428.9z"/>
	<path d="M70.9,129.4c3.2,0,6.4-1.3,8.7-3.6c2.3-2.3,3.6-5.4,3.6-8.7c0-3.2-1.3-6.4-3.6-8.7c-4.6-4.6-12.8-4.6-17.3,0
		c-2.3,2.3-3.6,5.4-3.6,8.7c0,3.2,1.3,6.4,3.6,8.7C64.5,128.1,67.6,129.4,70.9,129.4z"/>
	<path d="M117.1,129.4c3.2,0,6.4-1.3,8.7-3.6c2.3-2.3,3.6-5.4,3.6-8.7c0-3.2-1.3-6.4-3.6-8.7c-4.6-4.6-12.8-4.6-17.3,0
		c-2.3,2.3-3.6,5.4-3.6,8.7c0,3.2,1.3,6.4,3.6,8.7C110.8,128.1,113.9,129.4,117.1,129.4z"/>
	<path d="M163.4,129.4c3.2,0,6.4-1.3,8.7-3.6c2.3-2.3,3.6-5.4,3.6-8.7c0-3.2-1.3-6.4-3.6-8.7c-4.6-4.6-12.8-4.6-17.3,0
		c-2.3,2.3-3.6,5.4-3.6,8.7c0,3.2,1.3,6.4,3.6,8.7C157.1,128.1,160.2,129.4,163.4,129.4z"/>
	<path d="M343.1,293.3C343.1,293.3,343.1,293.3,343.1,293.3c-6.8,0-12.3,5.5-12.3,12.2c0,20-7.8,38.8-21.9,52.9
		c-27,26.9-69.5,28.9-98.8,6.1l14.6-0.7c6.8-0.3,12-6.1,11.6-12.9c-0.3-6.8-6-11.9-12.9-11.6l-45.1,2.3c-3.6,0.2-6.9,1.9-9,4.7
		c-2.2,2.8-3,6.4-2.3,9.9l8.9,44.6c1.2,5.8,6.3,9.9,12,9.9c0.8,0,1.6-0.1,2.4-0.2c6.6-1.3,10.9-7.8,9.6-14.4l-2-10.1
		c17.3,12.5,37.7,18.8,58.1,18.8c25.4,0,50.9-9.7,70.2-29c18.7-18.8,29.1-43.7,29.1-70.2C355.3,298.8,349.8,293.3,343.1,293.3z"/>
	<path d="M168.9,317.8c6.8,0,12.2-5.5,12.3-12.2c0-20,7.8-38.8,21.9-52.9c25.6-25.6,65.4-28.7,94.5-9.3l-14.3,0.7
		c-6.8,0.3-12,6.1-11.6,12.9c0.3,6.5,5.7,11.6,12.2,11.6c0.2,0,0.4,0,0.6,0l45.1-2.3c3.6-0.2,6.9-1.9,9-4.7c2.2-2.8,3-6.4,2.3-9.9
		l-8.9-44.6c-1.3-6.6-7.7-10.9-14.4-9.6c-6.6,1.3-10.9,7.8-9.6,14.4l2.1,10.5c-38.5-25-90.6-20.7-124.4,13
		c-18.8,18.7-29.1,43.7-29.1,70.2C156.7,312.3,162.2,317.8,168.9,317.8C168.9,317.8,168.9,317.8,168.9,317.8z"/>
</g>
</svg>
