<?xml version="1.0" encoding="utf-8"?>
<!-- Generator: Adobe Illustrator 18.0.0, SVG Export Plug-In . SVG Version: 6.00 Build 0)  -->
<!DOCTYPE svg PUBLIC "-//W3C//DTD SVG 1.1//EN" "http://www.w3.org/Graphics/SVG/1.1/DTD/svg11.dtd">
<svg version="1.1" id="Artwork" xmlns="http://www.w3.org/2000/svg" xmlns:xlink="http://www.w3.org/1999/xlink" x="0px" y="0px"
	 viewBox="0 0 512 512" enable-background="new 0 0 512 512" xml:space="preserve">
<g>
	<path d="M462.8,13.2H49.2c-20.3,0-36.9,16.5-36.9,36.9v245.3c0,6.8,5.5,12.3,12.2,12.3s12.3-5.5,12.3-12.3V130.3h438.4v240.9
		c0,6.8-5.5,12.4-12.4,12.4c-6.8,0-12.3,5.5-12.3,12.3s5.5,12.3,12.3,12.3c20.3,0,36.9-16.5,36.9-36.9V50
		C499.7,29.7,483.2,13.2,462.8,13.2z M36.8,105.8V50c0-6.8,5.5-12.4,12.4-12.4h413.7c6.8,0,12.4,5.5,12.4,12.4v55.7H36.8z"/>
	<path d="M212.9,203.7c-4.3-2-9.4-1.4-13,1.6L50.2,328.8c-2.8,2.3-4.5,5.8-4.5,9.4s1.6,7.1,4.4,9.4l149.6,123.8
		c3.7,3,8.7,3.7,13,1.6c4.3-2,7-6.3,7-11.1v-61.9c61.6,0.4,153.9,6,203,92.5c2.2,3.9,6.3,6.2,10.7,6.2c1,0,2.1-0.1,3.1-0.4
		c5.4-1.4,9.1-6.3,9.1-11.8c0-33.6-12.8-85.1-48.8-128.8c-28.7-34.9-82.5-76.5-177.1-80.7v-62.2
		C219.9,210.1,217.2,205.8,212.9,203.7z M413.4,439.2c-61.8-63.5-149.7-63.5-205.8-63.6h0c-3.2,0-6.4,1.3-8.7,3.6s-3.6,5.4-3.6,8.7
		V436L77.3,338.2l118.1-97.4V289c0,6.7,5.4,12.2,12.1,12.3C341.2,302.5,395.3,379.9,413.4,439.2z"/>
	<path d="M62.2,63.1c-2.3,2.3-3.6,5.4-3.6,8.7c0,3.2,1.3,6.4,3.6,8.7c2.3,2.3,5.4,3.6,8.6,3.6c3.2,0,6.4-1.3,8.7-3.6
		c2.3-2.3,3.6-5.4,3.6-8.7c0-3.2-1.3-6.4-3.6-8.7C75,58.5,66.7,58.5,62.2,63.1z"/>
	<path d="M108.5,63.1c-2.3,2.3-3.6,5.4-3.6,8.7c0,3.2,1.3,6.4,3.6,8.7c2.3,2.3,5.4,3.6,8.7,3.6s6.4-1.3,8.7-3.6
		c2.3-2.3,3.6-5.4,3.6-8.7c0-3.2-1.3-6.4-3.6-8.7C121.3,58.5,113,58.5,108.5,63.1z"/>
	<path d="M154.8,63.1c-2.3,2.3-3.6,5.5-3.6,8.7c0,3.2,1.3,6.4,3.6,8.7c2.3,2.3,5.4,3.6,8.7,3.6c3.2,0,6.4-1.3,8.6-3.6
		c2.3-2.3,3.6-5.4,3.6-8.7c0-3.2-1.3-6.4-3.6-8.7C167.5,58.5,159.3,58.5,154.8,63.1z"/>
</g>
</svg>
