<?xml version="1.0" encoding="utf-8"?>
<!-- Generator: Adobe Illustrator 18.0.0, SVG Export Plug-In . SVG Version: 6.00 Build 0)  -->
<!DOCTYPE svg PUBLIC "-//W3C//DTD SVG 1.1//EN" "http://www.w3.org/Graphics/SVG/1.1/DTD/svg11.dtd">
<svg version="1.1" id="Artwork" xmlns="http://www.w3.org/2000/svg" xmlns:xlink="http://www.w3.org/1999/xlink" x="0px" y="0px"
	 viewBox="0 0 512 512" enable-background="new 0 0 512 512" xml:space="preserve">
<g>
	<path d="M49.2,453.4h413.7c20.3,0,36.8-16.5,36.8-36.8V95.5c0-20.3-16.5-36.9-36.8-36.9H49.2c-20.3,0-36.9,16.5-36.9,36.9v321.1
		C12.3,436.9,28.9,453.4,49.2,453.4z M462.8,428.9H49.2c-6.8,0-12.4-5.5-12.4-12.3V175.7h438.3v240.9
		C475.2,423.4,469.6,428.9,462.8,428.9z M49.2,83.1h413.7c6.8,0,12.3,5.5,12.3,12.4v55.7H36.8V95.5C36.8,88.7,42.4,83.1,49.2,83.1z"
		/>
	<path d="M70.9,129.4c3.2,0,6.4-1.3,8.7-3.6c2.3-2.3,3.6-5.4,3.6-8.7c0-3.2-1.3-6.4-3.6-8.6c-4.6-4.6-12.8-4.6-17.3,0
		c-2.3,2.3-3.6,5.4-3.6,8.6c0,3.2,1.3,6.4,3.6,8.7C64.5,128.1,67.6,129.4,70.9,129.4z"/>
	<path d="M117.2,129.4c3.2,0,6.3-1.3,8.6-3.6c2.3-2.3,3.6-5.4,3.6-8.7c0-3.2-1.3-6.4-3.6-8.6c-4.6-4.6-12.8-4.6-17.3,0
		c-2.3,2.3-3.6,5.4-3.6,8.6c0,3.2,1.3,6.4,3.6,8.7C110.8,128.1,113.9,129.4,117.2,129.4z"/>
	<path d="M163.4,129.4c3.2,0,6.4-1.3,8.7-3.6c2.3-2.3,3.6-5.4,3.6-8.7c0-3.2-1.3-6.4-3.6-8.6c-4.6-4.6-12.8-4.6-17.3,0
		c-2.3,2.3-3.6,5.4-3.6,8.6c0,3.2,1.3,6.4,3.6,8.7C157.1,128.1,160.2,129.4,163.4,129.4z"/>
	<path d="M366.5,359h-128c-6.8,0-12.3,5.5-12.3,12.3s5.5,12.3,12.3,12.3h128c6.8,0,12.3-5.5,12.3-12.3S373.3,359,366.5,359z"/>
	<path d="M169.2,335.3c-19.9,0-36,16.2-36,36s16.2,36,36,36s36-16.2,36-36S189.1,335.3,169.2,335.3z M169.2,382.8
		c-6.3,0-11.5-5.2-11.5-11.5c0-6.3,5.2-11.5,11.5-11.5c6.3,0,11.5,5.2,11.5,11.5C180.8,377.6,175.6,382.8,169.2,382.8z"/>
	<path d="M145.5,316.6h126.4c6.8,0,12.3-5.5,12.3-12.3c0-6.8-5.5-12.3-12.3-12.3H145.5c-6.8,0-12.3,5.5-12.3,12.3
		C133.2,311.1,138.7,316.6,145.5,316.6z"/>
	<path d="M342.8,268.3c-19.9,0-36,16.2-36,36s16.2,36,36,36s36-16.2,36-36S362.6,268.3,342.8,268.3z M342.8,315.8
		c-6.3,0-11.5-5.2-11.5-11.5c0-6.3,5.2-11.5,11.5-11.5c6.3,0,11.5,5.2,11.5,11.5C354.3,310.7,349.1,315.8,342.8,315.8z"/>
	<path d="M366.5,224.6h-128c-6.8,0-12.3,5.5-12.3,12.3c0,6.8,5.5,12.3,12.3,12.3h128c6.8,0,12.3-5.5,12.3-12.3
		C378.8,230.1,373.3,224.6,366.5,224.6z"/>
	<path d="M169.2,272.8c19.9,0,36-16.2,36-36s-16.2-36-36-36s-36,16.2-36,36S149.4,272.8,169.2,272.8z M169.2,225.3
		c6.3,0,11.5,5.2,11.5,11.5c0,6.3-5.2,11.5-11.5,11.5c-6.3,0-11.5-5.2-11.5-11.5C157.7,230.5,162.9,225.3,169.2,225.3z"/>
</g>
</svg>
