<?xml version="1.0" encoding="iso-8859-1"?>
<!-- Generator: Adobe Illustrator 19.0.0, SVG Export Plug-In . SVG Version: 6.00 Build 0)  -->
<svg version="1.1" id="Layer_1" xmlns="http://www.w3.org/2000/svg" xmlns:xlink="http://www.w3.org/1999/xlink" x="0px" y="0px"
	 viewBox="0 0 489.6 489.6" style="enable-background:new 0 0 489.6 489.6;" xml:space="preserve">
<g>
	<g>
		<path d="M434.65,52.2h-96.6V18c0-9.9-8.1-18-18-18h-150.4c-9.9,0-18,8.1-18,18v94.7c0,9.9,8.1,18,18,18h111.2c9.9,0,18-8.1,18-18
			c0-9.9-8.1-18-18-18h-93.2V36h114.5v34.2c0,9.9,8.1,18,18,18h96.6v365.4H72.95V88.2h27.5c9.9,0,18-8.1,18-18c0-9.9-8.1-18-18-18
			h-45.5c-9.9,0-18,8.1-18,18v401.4c0,9.9,8.1,18,18,18h379.7c9.9,0,18-8.1,18-18V70.2C452.65,60.3,444.55,52.2,434.65,52.2z"/>
	</g>
</g>
<g>
	<g>
		<path d="M327.75,217c-7-7.1-18.4-7.1-25.5-0.1l-83.9,83.2l-30.7-30.9c-7-7.1-18.4-7.1-25.5-0.1c-7.1,7-7.1,18.4-0.1,25.5
			l43.4,43.7c3.5,3.5,8.1,5.3,12.8,5.3c4.6,0,9.2-1.7,12.7-5.2l96.7-95.9C334.75,235.5,334.75,224.1,327.75,217z"/>
	</g>
</g>
<g>
</g>
<g>
</g>
<g>
</g>
<g>
</g>
<g>
</g>
<g>
</g>
<g>
</g>
<g>
</g>
<g>
</g>
<g>
</g>
<g>
</g>
<g>
</g>
<g>
</g>
<g>
</g>
<g>
</g>
</svg>
