<?xml version="1.0" encoding="iso-8859-1"?>
<!-- Generator: Adobe Illustrator 19.0.0, SVG Export Plug-In . SVG Version: 6.00 Build 0)  -->
<svg version="1.1" id="Capa_1" xmlns="http://www.w3.org/2000/svg" xmlns:xlink="http://www.w3.org/1999/xlink" x="0px" y="0px"
	 viewBox="0 0 489.8 489.8" style="enable-background:new 0 0 489.8 489.8;" xml:space="preserve">
<g>
	<g>
		<path d="M438.2,0H51.6C23.1,0,0,23.2,0,51.6v386.6c0,28.5,23.2,51.6,51.6,51.6h386.6c28.5,0,51.6-23.2,51.6-51.6V51.6
			C489.8,23.2,466.6,0,438.2,0z M465.3,438.2c0,14.9-12.2,27.1-27.1,27.1H51.6c-14.9,0-27.1-12.2-27.1-27.1V51.6
			c0-14.9,12.2-27.1,27.1-27.1h386.6c14.9,0,27.1,12.2,27.1,27.1V438.2z"/>
		<path d="M319,170.8c-4.8-4.8-12.5-4.8-17.3,0l-56.8,56.8l-56.8-56.8c-4.8-4.8-12.5-4.8-17.3,0s-4.8,12.5,0,17.3l56.8,56.8
			l-56.8,56.8c-4.8,4.8-4.8,12.5,0,17.3c2.4,2.4,5.5,3.6,8.7,3.6s6.3-1.2,8.7-3.6l56.8-56.8l56.8,56.8c2.4,2.4,5.5,3.6,8.7,3.6
			s6.3-1.2,8.7-3.6c4.8-4.8,4.8-12.5,0-17.3l-57-56.8l56.8-56.8C323.8,183.3,323.8,175.6,319,170.8z"/>
	</g>
</g>
<g>
</g>
<g>
</g>
<g>
</g>
<g>
</g>
<g>
</g>
<g>
</g>
<g>
</g>
<g>
</g>
<g>
</g>
<g>
</g>
<g>
</g>
<g>
</g>
<g>
</g>
<g>
</g>
<g>
</g>
</svg>
