<?xml version="1.0" encoding="iso-8859-1"?>
<!-- Generator: Adobe Illustrator 19.0.0, SVG Export Plug-In . SVG Version: 6.00 Build 0)  -->
<svg version="1.1" id="Layer_1" xmlns="http://www.w3.org/2000/svg" xmlns:xlink="http://www.w3.org/1999/xlink" x="0px" y="0px"
	 viewBox="0 0 478.7 478.7" style="enable-background:new 0 0 478.7 478.7;" xml:space="preserve">
<g>
	<g>
		<path d="M130.85,66.3c-9.9,0-18,8.1-18,18v25.6c0,0.5-0.4,0.9-0.9,0.9h-73c-0.5,0-0.9-0.4-0.9-0.9v-73c0-0.5,0.4-0.9,0.9-0.9h73
			c9.9,0,18-8.1,18-18c0-9.9-8.1-18-18-18h-73c-20.3-0.1-36.9,16.5-36.9,36.8v73c0,20.4,16.6,36.9,36.9,36.9h73
			c20.4,0,36.9-16.6,36.9-36.9V84.3C148.85,74.4,140.75,66.3,130.85,66.3z"/>
	</g>
</g>
<g>
	<g>
		<path d="M130.85,232.2c-9.9,0-18,8.1-18,18v25.6c0,0.5-0.4,0.9-0.9,0.9h-73c-0.5,0-0.9-0.4-0.9-0.9v-73c0-0.5,0.4-0.9,0.9-0.9h73
			c9.9,0,18-8.1,18-18c0-9.9-8.1-18-18-18h-73c-20.4,0-36.9,16.6-36.9,36.9v73c0,20.4,16.6,36.9,36.9,36.9h73
			c20.4,0,36.9-16.6,36.9-36.9v-25.6C148.85,240.3,140.75,232.2,130.85,232.2z"/>
	</g>
</g>
<g>
	<g>
		<path d="M130.85,398.2c-9.9,0-18,8.1-18,18v25.6c0,0.5-0.4,0.9-0.9,0.9h-73c-0.5,0-0.9-0.4-0.9-0.9v-73c0-0.5,0.4-0.9,0.9-0.9h73
			c9.9,0,18-8.1,18-18c0-9.9-8.1-18-18-18h-73c-20.4,0-36.9,16.6-36.9,36.9v73c0,20.4,16.6,36.9,36.9,36.9h73
			c20.4,0,36.9-16.6,36.9-36.9v-25.6C148.85,406.3,140.75,398.2,130.85,398.2z"/>
	</g>
</g>
<g>
	<g>
		<path d="M458.65,55.3h-265c-9.9,0-18,8.1-18,18s8.1,18,18,18h265c9.9,0,18-8.1,18-18S468.55,55.3,458.65,55.3z"/>
	</g>
</g>
<g>
	<g>
		<path d="M458.65,221.3h-265c-9.9,0-18,8.1-18,18c0,9.9,8.1,18,18,18h265c9.9,0,18-8.1,18-18
			C476.65,229.4,468.55,221.3,458.65,221.3z"/>
	</g>
</g>
<g>
	<g>
		<path d="M458.65,387.3h-265c-9.9,0-18,8.1-18,18c0,9.9,8.1,18,18,18h265c9.9,0,18-8.1,18-18
			C476.65,395.4,468.55,387.3,458.65,387.3z"/>
	</g>
</g>
<g>
</g>
<g>
</g>
<g>
</g>
<g>
</g>
<g>
</g>
<g>
</g>
<g>
</g>
<g>
</g>
<g>
</g>
<g>
</g>
<g>
</g>
<g>
</g>
<g>
</g>
<g>
</g>
<g>
</g>
</svg>
