<?xml version="1.0" encoding="iso-8859-1"?>
<!-- Generator: Adobe Illustrator 19.0.0, SVG Export Plug-In . SVG Version: 6.00 Build 0)  -->
<svg version="1.1" id="Layer_1" xmlns="http://www.w3.org/2000/svg" xmlns:xlink="http://www.w3.org/1999/xlink" x="0px" y="0px"
	 viewBox="0 0 489.6 489.6" style="enable-background:new 0 0 489.6 489.6;" xml:space="preserve">
<g>
	<g>
		<path d="M456.5,75.6h-103V51.5C353.5,23.1,330.4,0,302,0H187.6c-28.4,0-51.5,23.1-51.5,51.5v24.1h-103c-9.9,0-18,8.1-18,18
			c0,9.9,8.1,18,18,18h27.4v315.2c0,34.6,28.1,62.8,62.8,62.8h243.1c34.6,0,62.8-28.1,62.8-62.8V169.2c0-9.9-8.1-18-18-18
			c-9.9,0-18,8.1-18,18v257.6c0,14.8-12,26.8-26.8,26.8H123.2c-14.8,0-26.8-12-26.8-26.8V111.6h360c10,0,18.1-8.1,18.1-18
			C474.5,83.7,466.4,75.6,456.5,75.6z M317.6,75.6H172.1V51.5c0-8.5,6.9-15.5,15.5-15.5h114.5c8.5,0,15.5,6.9,15.5,15.5V75.6z"/>
	</g>
</g>
<g>
	<g>
		<path d="M244.8,151.2c-9.9,0-18,8.1-18,18V396c0,9.9,8.1,18,18,18c9.9,0,18-8.1,18-18V169.2C262.8,159.3,254.7,151.2,244.8,151.2z
			"/>
	</g>
</g>
<g>
	<g>
		<path d="M169.2,151.2c-9.9,0-18,8.1-18,18V396c0,9.9,8.1,18,18,18c9.9,0,18-8.1,18-18V169.2C187.2,159.3,179.1,151.2,169.2,151.2z
			"/>
	</g>
</g>
<g>
	<g>
		<path d="M320.4,151.2c-9.9,0-18,8.1-18,18V396c0,9.9,8.1,18,18,18c9.9,0,18-8.1,18-18V169.2C338.4,159.3,330.3,151.2,320.4,151.2z
			"/>
	</g>
</g>
<g>
</g>
<g>
</g>
<g>
</g>
<g>
</g>
<g>
</g>
<g>
</g>
<g>
</g>
<g>
</g>
<g>
</g>
<g>
</g>
<g>
</g>
<g>
</g>
<g>
</g>
<g>
</g>
<g>
</g>
</svg>
