<?xml version="1.0" encoding="iso-8859-1"?>
<!-- Generator: Adobe Illustrator 19.0.0, SVG Export Plug-In . SVG Version: 6.00 Build 0)  -->
<svg version="1.1" id="Layer_1" xmlns="http://www.w3.org/2000/svg" xmlns:xlink="http://www.w3.org/1999/xlink" x="0px" y="0px"
	 viewBox="0 0 489.6 489.6" style="enable-background:new 0 0 489.6 489.6;" xml:space="preserve">
<g>
	<g>
		<path d="M296.4,41.3H193.2c-9.9,0-18,8.1-18,18v291.5c0,9.9,8.1,18,18,18c9.9,0,18-8.1,18-18V77.3h67.2v31.2c0,9.9,8,18,18,18
			c9.9,0,18-8.1,18-18V59.3C314.4,49.4,306.3,41.3,296.4,41.3z"/>
	</g>
</g>
<g>
	<g>
		<path d="M471.6,168.7H296.9c-0.2,0-0.3,0-0.5,0c-9.9,0-18,8.1-18,18v225.6H36V284.2h67.2v66.5c0,9.9,8.1,18,18,18
			c9.9,0,18-8.1,18-18v-84.5c0-9.9-8.1-18-18-18H18c-9.9,0-18,8.1-18,18v164.1c0,9.9,8.1,18,18,18h278.4c9.9,0,18-8.1,18-18V204.7
			h139.2v207.6h-67.2V271.2c0-9.9-8.1-18-18-18c-9.9,0-18,8.1-18,18v159.1c0,9.9,8.1,18,18,18h103.2c9.9,0,18-8.1,18-18V186.7
			C489.6,176.8,481.5,168.7,471.6,168.7z"/>
	</g>
</g>
<g>
</g>
<g>
</g>
<g>
</g>
<g>
</g>
<g>
</g>
<g>
</g>
<g>
</g>
<g>
</g>
<g>
</g>
<g>
</g>
<g>
</g>
<g>
</g>
<g>
</g>
<g>
</g>
<g>
</g>
</svg>
