<?xml version="1.0" encoding="iso-8859-1"?>
<!-- Generator: Adobe Illustrator 19.0.0, SVG Export Plug-In . SVG Version: 6.00 Build 0)  -->
<svg version="1.1" id="Layer_1" xmlns="http://www.w3.org/2000/svg" xmlns:xlink="http://www.w3.org/1999/xlink" x="0px" y="0px"
	 viewBox="0 0 490.003 490.003" style="enable-background:new 0 0 490.003 490.003;" xml:space="preserve">
<g>
	<g>
		<path d="M435.11,90.403c-3.2-3.9-7.9-6.4-12.9-6.7c-5.1-0.3-10.2,1.6-13.8,5.2c-47.1,47.1-95.8,73.3-145.4,78.5v-130.6
			c8.4,0.7,16.7,1.9,25.1,3.7c9.7,2,19.3-4.2,21.3-13.9c2-9.7-4.2-19.3-13.9-21.3c-81.4-17.1-165,7.7-223.7,66.5
			c-46.3,46.2-71.8,107.8-71.8,173.2c0,56.4,19,109.9,53.8,153.2c0.7,1,1.5,2,2.4,2.9l0.1,0.1c4.9,5.9,10,11.5,15.5,17
			c46.2,46.3,107.8,71.8,173.2,71.8s127-25.5,173.2-71.8c5.4-5.4,10.6-11.1,15.5-17c1-1,1.9-2.1,2.6-3.2
			c32.2-40.1,50.9-89.4,53.4-141.3C492.61,196.203,473.21,137.203,435.11,90.403z M227.01,453.103c-47.4-4.1-93.6-24.2-129.8-60.3
			c-1.1-1.1-2.2-2.2-3.3-3.4c43.2-39.7,87.8-62,133.1-66.7V453.103z M227.01,286.503c-53.7,4.5-105.9,29.6-155.7,74.8
			c-46.8-69.8-46.9-161.9-0.5-231.9c25.8,24.3,81.9,67.9,156.2,74.2V286.503z M227.01,167.403c-63.7-6.6-112.8-46.6-133.6-66.3
			c1.3-1.3,2.5-2.6,3.8-3.9c35.4-35.4,81.4-56.3,129.8-60.5V167.403z M392.81,392.803c-36.2,36.2-82.4,56.3-129.8,60.3v-130.4
			c63.6,6.6,112.7,46.5,133.5,66.3C395.31,390.303,394.01,391.603,392.81,392.803z M419.11,360.703c-25.8-24.3-81.9-67.8-156.1-74.2
			v-82.9c53.7-4.5,106-29.6,155.8-74.9C466.41,199.503,465.71,291.003,419.11,360.703z"/>
	</g>
</g>
<g>
</g>
<g>
</g>
<g>
</g>
<g>
</g>
<g>
</g>
<g>
</g>
<g>
</g>
<g>
</g>
<g>
</g>
<g>
</g>
<g>
</g>
<g>
</g>
<g>
</g>
<g>
</g>
<g>
</g>
</svg>
