<?xml version="1.0" encoding="iso-8859-1"?>
<!-- Generator: Adobe Illustrator 19.0.0, SVG Export Plug-In . SVG Version: 6.00 Build 0)  -->
<svg version="1.1" id="Layer_1" xmlns="http://www.w3.org/2000/svg" xmlns:xlink="http://www.w3.org/1999/xlink" x="0px" y="0px"
	 viewBox="0 0 489 489" style="enable-background:new 0 0 489 489;" xml:space="preserve">
<g>
	<g>
		<path d="M244.5,221.85c-9.9,0-18,8.1-18,18v128.7c0,9.9,8.1,18,18,18c9.9,0,18-8.1,18-18v-128.7
			C262.5,229.95,254.4,221.85,244.5,221.85z"/>
	</g>
</g>
<g>
	<g>
		<path d="M471,268.45h-88.4v-23.1h22.7c28.4,0,51.6-23.1,51.6-51.6v-48.4c0-9.9-8.1-18-18-18c-9.9,0-18,8.1-18,18v48.4
			c0,8.6-7,15.6-15.6,15.6h-22.7v-23.4c0-13.8-11.2-25.1-25.1-25.1h-23.7v-33.7c0-49.3-40.1-89.4-89.4-89.4s-89.4,40.1-89.4,89.4
			c0,9.9,8.1,18,18,18c9.9,0,18-8.1,18-18c0-29.4,24-53.4,53.4-53.4c29.4,0,53.4,24,53.4,53.4v33.7H131.4
			c-13.8,0-25.1,11.2-25.1,25.1v23.4H83.6c-8.6,0-15.6-7-15.6-15.6v-48.4c0-9.9-8.1-18-18-18s-18,8.1-18,18v48.4
			c0,28.4,23.1,51.6,51.6,51.6h22.7v23.1H18c-9.9,0-18,8.1-18,18c0,9.9,8.1,18,18,18h88.4v8.6c0,4.8,0.2,9.6,0.7,14.3H83.6
			c-28.4,0-51.6,23.1-51.6,51.6v48.4c0,9.9,8.1,18,18,18s18-8.1,18-18v-48.4c0-8.6,7-15.6,15.6-15.6h32.2
			c20.1,51.4,70.2,87.9,128.7,87.9s108.6-36.5,128.7-87.9h32.2c8.6,0,15.6,7,15.6,15.6v48.4c0,9.9,8.1,18,18,18c9.9,0,18-8.1,18-18
			v-48.4c0-28.4-23.1-51.6-51.6-51.6h-23.5c0.5-4.7,0.7-9.4,0.7-14.3v-8.6H471c9.9,0,18-8.1,18-18C489,276.55,481,268.45,471,268.45
			z M346.6,312.95c0.1,56.3-45.8,102.2-102.1,102.2s-102.2-45.8-102.2-102.2v-116.1h204.3V312.95z"/>
	</g>
</g>
<g>
</g>
<g>
</g>
<g>
</g>
<g>
</g>
<g>
</g>
<g>
</g>
<g>
</g>
<g>
</g>
<g>
</g>
<g>
</g>
<g>
</g>
<g>
</g>
<g>
</g>
<g>
</g>
<g>
</g>
</svg>
