<?xml version="1.0" encoding="iso-8859-1"?>
<!-- Generator: Adobe Illustrator 19.0.0, SVG Export Plug-In . SVG Version: 6.00 Build 0)  -->
<svg version="1.1" id="Layer_1" xmlns="http://www.w3.org/2000/svg" xmlns:xlink="http://www.w3.org/1999/xlink" x="0px" y="0px"
	 viewBox="0 0 492 492" style="enable-background:new 0 0 492 492;" xml:space="preserve">
<g>
	<g>
		<path d="M419.9,72.1C373.4,25.7,311.7,0,246,0S118.5,25.6,72.1,72.1C25.6,118.5,0,180.3,0,246s25.6,127.5,72.1,173.9
			C118.5,466.4,180.3,492,246,492s127.5-25.6,173.9-72.1C466.3,373.4,492,311.7,492,246S466.4,118.5,419.9,72.1z M246,456
			c-115.8,0-210-94.2-210-210S130.2,36,246,36s210,94.2,210,210S361.8,456,246,456z"/>
	</g>
</g>
<g>
	<g>
		<path d="M373.6,183.4l-43.5-43.8c-7-7-18.4-7.1-25.5-0.1L243,200.8c-7,7-7.1,18.4-0.1,25.5c7,7,18.4,7.1,25.5,0.1l48.8-48.6
			l18.2,18.3L216.7,314.2l-60.3-60.6l18.3-18.2l29.3,29.5c7,7,18.4,7.1,25.5,0.1c7-7,7.1-18.4,0.1-25.5l-42-42.3
			c-3.4-3.4-7.9-5.3-12.7-5.3c0,0,0,0-0.1,0c-4.8,0-9.3,1.9-12.7,5.2l-43.9,43.6c-3.4,3.4-5.3,7.9-5.3,12.7c0,4.8,1.9,9.4,5.2,12.7
			l85.6,86.1c3.4,3.4,7.9,5.3,12.7,5.3c0,0,0,0,0.1,0c4.8,0,9.3-1.9,12.7-5.2l144.3-143.5c3.4-3.4,5.3-7.9,5.3-12.7
			C378.8,191.3,376.9,186.7,373.6,183.4z"/>
	</g>
</g>
<g>
</g>
<g>
</g>
<g>
</g>
<g>
</g>
<g>
</g>
<g>
</g>
<g>
</g>
<g>
</g>
<g>
</g>
<g>
</g>
<g>
</g>
<g>
</g>
<g>
</g>
<g>
</g>
<g>
</g>
</svg>
