<?xml version="1.0" encoding="iso-8859-1"?>
<!-- Generator: Adobe Illustrator 19.0.0, SVG Export Plug-In . SVG Version: 6.00 Build 0)  -->
<svg version="1.1" id="Layer_1" xmlns="http://www.w3.org/2000/svg" xmlns:xlink="http://www.w3.org/1999/xlink" x="0px" y="0px"
	 viewBox="0 0 491.6 491.6" style="enable-background:new 0 0 491.6 491.6;" xml:space="preserve">
<g>
	<g>
		<path d="M436.5,52.4h-97.1V18c0-9.9-8.1-18-18-18H170.2c-9.9,0-18,8.1-18,18v95.1c0,9.9,8.1,18,18,18h111.7c9.9,0,18-8.1,18-18
			c0-9.9-8.1-18-18-18h-93.7V36h115.1v34.5c0,9.9,8.1,18,18,18h97.1v367.2H73.1V88.4h27.7c9.9,0,18-8.1,18-18c0-9.9-8.1-18-18-18
			H55.1c-9.9,0-18,8.1-18,18v403.2c0,9.9,8.1,18,18,18h381.4c9.9,0,18-8.1,18-18V70.4C454.5,60.5,446.4,52.4,436.5,52.4z"/>
	</g>
</g>
<g>
	<g>
		<path d="M347.1,240.2H205.6c-9.9,0-18,8.1-18,18c0,9.9,8.1,18,18,18h141.5c9.9,0,18-8.1,18-18C365.1,248.3,357,240.2,347.1,240.2z
			"/>
	</g>
</g>
<g>
	<g>
		<path d="M347.1,172.1H205.6c-9.9,0-18,8.1-18,18c0,9.9,8.1,18,18,18h141.5c9.9,0,18-8.1,18-18C365.1,180.2,357,172.1,347.1,172.1z
			"/>
	</g>
</g>
<g>
	<g>
		<path d="M347.1,308.4H205.6c-9.9,0-18,8.1-18,18c0,9.9,8.1,18,18,18h141.5c9.9,0,18-8.1,18-18C365.1,316.5,357,308.4,347.1,308.4z
			"/>
	</g>
</g>
<g>
	<g>
		<circle cx="146.4" cy="190.1" r="20.6"/>
	</g>
</g>
<g>
	<g>
		<circle cx="146.4" cy="258.2" r="20.6"/>
	</g>
</g>
<g>
	<g>
		<circle cx="146.4" cy="326.4" r="20.6"/>
	</g>
</g>
<g>
	<g>
		<path d="M347.1,376.5H205.6c-9.9,0-18,8.1-18,18c0,9.9,8.1,18,18,18h141.5c9.9,0,18-8.1,18-18C365.1,384.6,357,376.5,347.1,376.5z
			"/>
	</g>
</g>
<g>
	<g>
		<circle cx="146.4" cy="394.5" r="20.6"/>
	</g>
</g>
<g>
</g>
<g>
</g>
<g>
</g>
<g>
</g>
<g>
</g>
<g>
</g>
<g>
</g>
<g>
</g>
<g>
</g>
<g>
</g>
<g>
</g>
<g>
</g>
<g>
</g>
<g>
</g>
<g>
</g>
</svg>
