<?xml version="1.0" encoding="iso-8859-1"?>
<!-- Generator: Adobe Illustrator 19.0.0, SVG Export Plug-In . SVG Version: 6.00 Build 0)  -->
<svg version="1.1" id="Layer_1" xmlns="http://www.w3.org/2000/svg" xmlns:xlink="http://www.w3.org/1999/xlink" x="0px" y="0px"
	 viewBox="0 0 482.6 482.6" style="enable-background:new 0 0 482.6 482.6;" xml:space="preserve">
<g>
	<g>
		<path d="M411.9,70.697c-7-7-18.4-7-25.5,0l-54.9,54.9c-7,7-7,18.4,0,25.5c7,7,18.4,7,25.5,0l41.7-41.7
			c67.6,80.5,63.6,201.2-12.2,277c-80,80-210.2,80-290.2,0s-80-210.2,0-290.2c49.2-49.2,119.3-70,187.4-55.7c9.5,2,19.1-4.2,21.1-14
			c2-9.7-4.2-19.3-13.9-21.3c-80.1-16.8-162.5,7.7-220.3,65.5c-45.5,45.6-70.6,106.2-70.6,170.6s25.1,125,70.7,170.6
			c45.6,45.6,106.1,70.7,170.6,70.7s125-25.1,170.6-70.7c45.6-45.6,70.7-106.1,70.7-170.6S457.5,116.297,411.9,70.697z"/>
	</g>
</g>
<g>
	<g>
		<path d="M241.2,73.397c-9.9,0-18,8.1-18,18v142.4l-71.8,71.8c-7,7-7,18.4,0,25.5c3.5,3.5,8.1,5.3,12.7,5.3c4.6,0,9.2-1.8,12.7-5.3
			l77.1-77.1c0.4-0.4,0.8-0.9,1.2-1.3c0.2-0.2,0.3-0.4,0.4-0.6c0.2-0.3,0.4-0.5,0.6-0.8c0.2-0.2,0.3-0.5,0.5-0.8
			c0.1-0.2,0.3-0.5,0.4-0.8c0.1-0.3,0.3-0.5,0.4-0.8c0.1-0.3,0.3-0.5,0.4-0.8c0.1-0.3,0.2-0.5,0.3-0.8c0.1-0.3,0.2-0.6,0.3-0.9
			c0.1-0.3,0.1-0.5,0.2-0.8c0.1-0.3,0.2-0.6,0.2-0.9c0.1-0.3,0.1-0.6,0.1-1c0-0.3,0.1-0.5,0.1-0.8c0.1-0.6,0.1-1.2,0.1-1.8v-149.7
			C259.2,81.497,251.1,73.397,241.2,73.397z"/>
	</g>
</g>
<g>
</g>
<g>
</g>
<g>
</g>
<g>
</g>
<g>
</g>
<g>
</g>
<g>
</g>
<g>
</g>
<g>
</g>
<g>
</g>
<g>
</g>
<g>
</g>
<g>
</g>
<g>
</g>
<g>
</g>
</svg>
