<?xml version="1.0" encoding="iso-8859-1"?>
<!-- Generator: Adobe Illustrator 19.0.0, SVG Export Plug-In . SVG Version: 6.00 Build 0)  -->
<svg version="1.1" id="Layer_1" xmlns="http://www.w3.org/2000/svg" xmlns:xlink="http://www.w3.org/1999/xlink" x="0px" y="0px"
	 viewBox="0 0 490.8 490.8" style="enable-background:new 0 0 490.8 490.8;" xml:space="preserve">
<g>
	<g>
		<path d="M459.2,217.5c-6.5-7.6-17.9-8.4-25.4-1.9s-8.4,17.9-1.9,25.4c14.7,17,22.8,38.6,22.8,60.8c0,46.8-36.7,87.5-82,91H106
			c-38.1-2.4-70.1-38.8-70.1-79.7c0-26.4,14.2-51,37-64.3c7.6-4.4,10.8-13.6,7.8-21.8c-1.8-4.8-2.7-10-2.7-15.4
			c0-24.8,20.2-45,45-45c5.3,0,10.5,0.9,15.3,2.7c8.8,3.2,18.6-0.8,22.5-9.2c17.7-37.7,56.1-62,97.9-62c56.1,0,102.3,42,107.6,97.6
			c0.9,9.9,9.7,17.2,19.6,16.2c9.9-0.9,17.2-9.7,16.2-19.6c-3.4-35.5-19.8-68.3-46.2-92.5C329.3,75.4,294.8,62,258.7,62
			c-27.9,0-54.9,8-78.2,23c-18.5,11.9-33.8,27.8-45.1,46.5c-4-0.6-8.2-0.9-12.3-0.9c-44.7,0-81,36.3-81,81c0,4.7,0.4,9.3,1.2,13.9
			C16.3,246.2,0,278.7,0,313.1c0,28.5,10.7,56.3,30,78.3c19.9,22.6,46.4,35.8,74.6,37.4c0.3,0,0.7,0,1,0h267.9c0.4,0,0.8,0,1.3,0
			c31.4-2.2,60.7-16.7,82.5-40.7c21.6-23.8,33.5-54.5,33.5-86.3C490.8,271,479.6,241,459.2,217.5z"/>
	</g>
</g>
<g>
</g>
<g>
</g>
<g>
</g>
<g>
</g>
<g>
</g>
<g>
</g>
<g>
</g>
<g>
</g>
<g>
</g>
<g>
</g>
<g>
</g>
<g>
</g>
<g>
</g>
<g>
</g>
<g>
</g>
</svg>
