<?xml version="1.0" encoding="iso-8859-1"?>
<!-- Generator: Adobe Illustrator 19.0.0, SVG Export Plug-In . SVG Version: 6.00 Build 0)  -->
<svg version="1.1" id="Layer_1" xmlns="http://www.w3.org/2000/svg" xmlns:xlink="http://www.w3.org/1999/xlink" x="0px" y="0px"
	 viewBox="0 0 490 490" style="enable-background:new 0 0 490 490;" xml:space="preserve">
<g>
	<g>
		<path d="M390.8,109.7c-5.5-28.4-20-54.4-41.7-74.2C324.1,12.6,291.5,0,257.5,0c-26.3,0-51.8,7.5-73.7,21.7
			c-17.2,11.1-31.5,25.8-42.1,43.1c-3.6-0.5-7.2-0.8-10.9-0.8c-42.4,0-76.9,34.5-76.9,76.9c0,4.2,0.3,8.4,1,12.5
			c-25.2,19.6-40.3,50.1-40.3,82.4c0,26.9,10.1,53.2,28.3,73.9c18.8,21.3,43.8,33.9,70.5,35.3c9.9,0.6,18.4-7,19-17
			c0.6-9.9-7-18.4-17-19c-35.1-2-64.8-35.5-64.8-73.3c0-24.2,13-46.8,34-59.1c7.6-4.4,10.8-13.6,7.8-21.8c-1.6-4.4-2.4-9.1-2.4-14
			c0-22.5,18.3-40.9,40.9-40.9c4.8,0,9.5,0.8,13.9,2.4c8.8,3.3,18.6-0.8,22.5-9.2C183.5,58.5,219,36,257.5,36
			c51.8,0,94.5,38.7,99.4,90.1c0.8,8.1,6.9,14.7,14.9,16c38.6,6.6,67.7,42.3,67.7,83c0,43.3-34.1,80.9-76.1,83.9
			c-9.9,0.7-17.4,9.3-16.7,19.2c0.7,9.5,8.6,16.7,17.9,16.7c0.4,0,0.9,0,1.3,0c29.7-2.1,57.3-15.7,77.9-38.4
			c20.4-22.5,31.6-51.4,31.6-81.4C475.4,171.8,439.9,124.4,390.8,109.7z"/>
	</g>
</g>
<g>
	<g>
		<path d="M338.2,213l-43.7-43.7c-7-7-18.4-7-25.5,0L225.3,213c-7,7-7,18.4,0,25.5c7,7,18.4,7,25.5,0l13-13v89.6h-75.1
			c-9.9,0-18,8.1-18,18v95.4l-13-13c-7-7-18.4-7-25.5,0c-7,7-7,18.4,0,25.5l43.7,43.7c3.4,3.4,8,5.3,12.7,5.3s9.4-1.9,12.7-5.3
			L245,441c7-7,7-18.4,0-25.5c-7-7-18.4-7-25.5,0l-13,13v-77.4h75.1c9.9,0,18-8.1,18-18V225.5l13,13c3.5,3.5,8.1,5.3,12.7,5.3
			c4.6,0,9.2-1.8,12.7-5.3C345.2,231.5,345.2,220.1,338.2,213z"/>
	</g>
</g>
<g>
</g>
<g>
</g>
<g>
</g>
<g>
</g>
<g>
</g>
<g>
</g>
<g>
</g>
<g>
</g>
<g>
</g>
<g>
</g>
<g>
</g>
<g>
</g>
<g>
</g>
<g>
</g>
<g>
</g>
</svg>
