<?xml version="1.0" encoding="iso-8859-1"?>
<!-- Generator: Adobe Illustrator 19.0.0, SVG Export Plug-In . SVG Version: 6.00 Build 0)  -->
<svg version="1.1" id="Layer_1" xmlns="http://www.w3.org/2000/svg" xmlns:xlink="http://www.w3.org/1999/xlink" x="0px" y="0px"
	 viewBox="0 0 490.5 490.5" style="enable-background:new 0 0 490.5 490.5;" xml:space="preserve">
<g>
	<g>
		<path d="M381.15,101.6c-5.3-26.2-18.8-50.2-38.8-68.4C318.95,11.8,288.55,0,256.75,0c-24.5,0-48.3,7-68.8,20.3
			c-15.8,10.2-29,23.7-38.8,39.5c-3.1-0.4-6.2-0.6-9.4-0.6c-39.9,0-72.4,32.5-72.4,72.4c0,3.7,0.3,7.3,0.8,10.9
			c-23.2,18.4-37.1,46.7-37.1,76.7c0,25.2,9.4,49.8,26.5,69.2c17.6,20,41.1,31.7,66,33.1c0.3,0,0.7,0,1,0h45.5c9.9,0,18-8.1,18-18
			c0-9.9-8.1-18-18-18h-45c-31.5-2-58.1-32.3-58.1-66.3c0-21.9,11.8-42.3,30.7-53.4c7.6-4.4,10.8-13.6,7.8-21.8
			c-1.4-3.9-2.2-8-2.2-12.4c0-20,16.3-36.4,36.4-36.4c4.3,0,8.5,0.7,12.3,2.2c8.8,3.3,18.6-0.7,22.5-9.2
			c14.9-31.6,47.2-52.1,82.2-52.1c47.1,0,85.9,35.2,90.4,82c0.8,8.1,6.9,14.7,14.9,16c35,6,61.3,38.3,61.3,75.3
			c0,39.1-30.6,73.1-68.4,76.1h-109.7c-9.9,0-18,8.1-18,18v79.2c-16.1,5.5-28.9,18.3-34.4,34.4H86.05c-9.9,0-18,8.1-18,18
			c0,9.9,8.1,18,18,18h106.7c7.5,21.8,28.1,37.4,52.4,37.4s44.9-15.7,52.4-37.4h106.7c9.9,0,18-8.1,18-18c0-9.9-8.1-18-18-18h-121.7
			c-9.9,0-18,8.1-18,18c0,10.7-8.7,19.4-19.4,19.4s-19.4-8.7-19.4-19.4c0-10.9,8.7-19.6,19.4-19.6c9.9,0,18-8.1,18-18v-76.2h92.5
			c0.4,0,0.8,0,1.3,0c27.7-2,53.6-14.7,72.9-35.9c19.1-21,29.6-48,29.6-76.1C459.45,159.7,426.55,115.6,381.15,101.6z"/>
	</g>
</g>
<g>
</g>
<g>
</g>
<g>
</g>
<g>
</g>
<g>
</g>
<g>
</g>
<g>
</g>
<g>
</g>
<g>
</g>
<g>
</g>
<g>
</g>
<g>
</g>
<g>
</g>
<g>
</g>
<g>
</g>
</svg>
