<?xml version="1.0" encoding="iso-8859-1"?>
<!-- Generator: Adobe Illustrator 19.0.0, SVG Export Plug-In . SVG Version: 6.00 Build 0)  -->
<svg version="1.1" id="Layer_1" xmlns="http://www.w3.org/2000/svg" xmlns:xlink="http://www.w3.org/1999/xlink" x="0px" y="0px"
	 viewBox="0 0 484 484" style="enable-background:new 0 0 484 484;" xml:space="preserve">
<g>
	<g>
		<path d="M398.3,111.25H327c-9.9,0-18,8.1-18,18c0,9.9,8.1,18,18,18h28l-119.8,119.7c-7,7-7,18.4,0,25.5c3.5,3.4,8.1,5.2,12.7,5.2
			c4.6,0,9.2-1.8,12.7-5.3l119.7-119.7v28c0,9.9,8.1,18,18,18c9.9,0,18-8.1,18-18v-71.4C416.3,119.35,408.2,111.25,398.3,111.25z"/>
	</g>
</g>
<g>
	<g>
		<path d="M238.8,136.75c-7-7-18.4-7-25.5,0l-109.7,109.8v-28c0-9.9-8.1-18-18-18c-9.9,0-18,8.1-18,18v71.4c0,9.9,8.1,18,18,18H157
			c9.9,0,18-8.1,18-18c0-9.9-8.1-18-18-18h-28l109.8-109.8C245.9,155.15,245.9,143.75,238.8,136.75z"/>
	</g>
</g>
<g>
	<g>
		<path d="M444.5,14.85h-405C17.7,14.85,0,32.65,0,54.45v300.4c0,21.8,17.7,39.6,39.6,39.6H224v38.7h-56.7c-9.9,0-18,8.1-18,18
			c0,9.9,8.1,18,18,18h149.4c9.9,0,18-8.1,18-18c0-9.9-8.1-18-18-18H260v-56.7c0-9.9-8.1-18-18-18H39.5c-2,0-3.6-1.6-3.6-3.6V54.45
			c0-2,1.6-3.6,3.6-3.6h404.9c2,0,3.6,1.6,3.6,3.6v300.4c0,2-1.6,3.6-3.6,3.6H332.8c-9.9,0-18,8.1-18,18c0,9.9,8.1,18,18,18h111.6
			c21.8,0,39.6-17.7,39.6-39.6V54.45C484,32.65,466.3,14.85,444.5,14.85z"/>
	</g>
</g>
<g>
</g>
<g>
</g>
<g>
</g>
<g>
</g>
<g>
</g>
<g>
</g>
<g>
</g>
<g>
</g>
<g>
</g>
<g>
</g>
<g>
</g>
<g>
</g>
<g>
</g>
<g>
</g>
<g>
</g>
</svg>
