<?xml version="1.0" encoding="iso-8859-1"?>
<!-- Generator: Adobe Illustrator 19.0.0, SVG Export Plug-In . SVG Version: 6.00 Build 0)  -->
<svg version="1.1" id="Layer_1" xmlns="http://www.w3.org/2000/svg" xmlns:xlink="http://www.w3.org/1999/xlink" x="0px" y="0px"
	 viewBox="0 0 488.8 488.8" style="enable-background:new 0 0 488.8 488.8;" xml:space="preserve">
<g>
	<g>
		<path d="M373.4,133.65H46.1c-25.4,0-46.1,20.7-46.1,46.1v199.4c0,25.4,20.7,46.1,46.1,46.1h327.3c25.4,0,46.1-20.7,46.1-46.1
			v-199.4C419.5,154.35,398.8,133.65,373.4,133.65z M383.5,379.25c0,5.5-4.5,10.1-10.1,10.1H46.1c-5.6,0-10.1-4.5-10.1-10.1v-145.7
			h347.5V379.25z M383.5,197.55H36v-17.8c0-5.6,4.5-10.1,10.1-10.1h327.3c5.6,0,10.1,4.5,10.1,10.1V197.55z"/>
	</g>
</g>
<g>
	<g>
		<path d="M442.7,63.55H115.4c-9.9,0-18,8.1-18,18c0,9.9,8.1,18,18,18h327.3c5.6,0,10.1,4.5,10.1,10.1v56.2c0,9.9,8.1,18,18,18
			c9.9,0,18-8.1,18-18v-56.2C488.8,84.25,468.1,63.55,442.7,63.55z"/>
	</g>
</g>
<g>
	<g>
		<path d="M231.3,265.95h-24.6c-9.9,0-18,8.1-18,18c0,9.9,8.1,18,18,18h24.6c9.9,0,18-8.1,18-18
			C249.3,274.05,241.3,265.95,231.3,265.95z"/>
	</g>
</g>
<g>
	<g>
		<path d="M148.9,265.95h-67c-9.9,0-18,8.1-18,18c0,9.9,8.1,18,18,18h67c9.9,0,18-8.1,18-18C166.9,274.05,158.8,265.95,148.9,265.95
			z"/>
	</g>
</g>
<g>
	<g>
		<path d="M121.1,325.45H82.5c-9.9,0-18,8.1-18,18c0,9.9,8.1,18,18,18h38.6c9.9,0,18-8.1,18-18
			C139.1,333.55,131,325.45,121.1,325.45z"/>
	</g>
</g>
<g>
</g>
<g>
</g>
<g>
</g>
<g>
</g>
<g>
</g>
<g>
</g>
<g>
</g>
<g>
</g>
<g>
</g>
<g>
</g>
<g>
</g>
<g>
</g>
<g>
</g>
<g>
</g>
<g>
</g>
</svg>
