<?xml version="1.0" encoding="iso-8859-1"?>
<!-- Generator: Adobe Illustrator 19.0.0, SVG Export Plug-In . SVG Version: 6.00 Build 0)  -->
<svg version="1.1" id="Layer_1" xmlns="http://www.w3.org/2000/svg" xmlns:xlink="http://www.w3.org/1999/xlink" x="0px" y="0px"
	 viewBox="0 0 488.5 488.5" style="enable-background:new 0 0 488.5 488.5;" xml:space="preserve">
<g>
	<g>
		<path d="M445,180.95h-22.4v-75.9c0-28.3-23-51.3-51.3-51.3h-320c-28.3,0-51.3,23-51.3,51.3v207.2c0,28.3,23,51.3,51.3,51.3h142
			v35.2h-43.5c-9.9,0-18,8.1-18,18c0,9.9,8.1,18,18,18h123.1c9.9,0,18-8.1,18-18c0-9.9-8.1-18-18-18h-43.5v-35.2h40.2
			c9.9,0,18-8.1,18-18c0-9.9-8.1-18-18-18H51.3c-8.4,0-15.3-6.8-15.3-15.3v-207.2c0-8.4,6.8-15.3,15.3-15.3h320
			c8.4,0,15.3,6.8,15.3,15.3v75.9h-22.4c-24,0-43.5,19.5-43.5,43.5v166.8c0,24,19.5,43.5,43.5,43.5h80.9c9.9,0,18-8.1,18-18
			c0-9.9-8.1-18-18-18h-80.9c-4.1,0-7.5-3.3-7.5-7.5v-166.8c0-4.1,3.3-7.5,7.5-7.5h80.9c4.1,0,7.5,3.3,7.5,7.5v125.9
			c0,9.9,8.1,18,18,18c9.9,0,17.9-8.1,17.9-18v-125.9C488.5,200.45,469,180.95,445,180.95z"/>
	</g>
</g>
<g>
</g>
<g>
</g>
<g>
</g>
<g>
</g>
<g>
</g>
<g>
</g>
<g>
</g>
<g>
</g>
<g>
</g>
<g>
</g>
<g>
</g>
<g>
</g>
<g>
</g>
<g>
</g>
<g>
</g>
</svg>
