<?xml version="1.0" encoding="iso-8859-1"?>
<!-- Generator: Adobe Illustrator 19.0.0, SVG Export Plug-In . SVG Version: 6.00 Build 0)  -->
<svg version="1.1" id="Layer_1" xmlns="http://www.w3.org/2000/svg" xmlns:xlink="http://www.w3.org/1999/xlink" x="0px" y="0px"
	 viewBox="0 0 489.2 489.2" style="enable-background:new 0 0 489.2 489.2;" xml:space="preserve">
<g>
	<g>
		<path d="M128.8,71.55c-9.9,0-18,8.1-18,18v25.6c0,0.5-0.4,0.9-0.9,0.9h-73c-0.5,0-0.9-0.4-0.9-0.9v-73c0-0.5,0.4-0.9,0.9-0.9h73
			c9.9,0,18-8.1,18-18c0-9.9-8.1-18-18-18h-73C16.5,5.25,0,21.85,0,42.15v73c0,20.4,16.6,36.9,36.9,36.9h73
			c20.4,0,36.9-16.6,36.9-36.9v-25.6C146.8,79.65,138.7,71.55,128.8,71.55z"/>
	</g>
</g>
<g>
	<g>
		<path d="M128.8,237.45c-9.9,0-18,8.1-18,18v25.6c0,0.5-0.4,0.9-0.9,0.9h-73c-0.5,0-0.9-0.4-0.9-0.9v-73c0-0.5,0.4-0.9,0.9-0.9h73
			c9.9,0,18-8.1,18-18c0-9.9-8.1-18-18-18h-73c-20.4,0-36.9,16.6-36.9,36.9v73c0,20.4,16.6,36.9,36.9,36.9h73
			c20.4,0,36.9-16.6,36.9-36.9v-25.6C146.8,245.55,138.7,237.45,128.8,237.45z"/>
	</g>
</g>
<g>
	<g>
		<path d="M128.8,403.45c-9.9,0-18,8.1-18,18v25.6c0,0.5-0.4,0.9-0.9,0.9h-73c-0.5,0-0.9-0.4-0.9-0.9v-73c0-0.5,0.4-0.9,0.9-0.9h73
			c9.9,0,18-8.1,18-18c0-9.9-8.1-18-18-18h-73c-20.4,0-36.9,16.6-36.9,36.9v73c0,20.3,16.5,36.9,36.9,36.9h73
			c20.4,0,36.9-16.6,36.9-36.9v-25.6C146.8,411.55,138.7,403.45,128.8,403.45z"/>
	</g>
</g>
<g>
	<g>
		<path d="M300,71.55c-9.9,0-18,8.1-18,18v25.6c0,0.5-0.4,0.9-0.9,0.9h-73c-0.5,0-0.9-0.4-0.9-0.9v-73c0-0.5,0.4-0.9,0.9-0.9h73
			c9.9,0,18-8.1,18-18c0-9.9-8.1-18-18-18h-73c-20.4,0-36.9,16.6-36.9,36.9v73c0,20.4,16.6,36.9,36.9,36.9h73
			c20.4,0,36.9-16.6,36.9-36.9v-25.6C318,79.65,309.9,71.55,300,71.55z"/>
	</g>
</g>
<g>
	<g>
		<path d="M300,237.45c-9.9,0-18,8.1-18,18v25.6c0,0.5-0.4,0.9-0.9,0.9h-73c-0.5,0-0.9-0.4-0.9-0.9v-73c0-0.5,0.4-0.9,0.9-0.9h73
			c9.9,0,18-8.1,18-18c0-9.9-8.1-18-18-18h-73c-20.4,0-36.9,16.6-36.9,36.9v73c0,20.4,16.6,36.9,36.9,36.9h73
			c20.4,0,36.9-16.6,36.9-36.9v-25.6C318,245.55,309.9,237.45,300,237.45z"/>
	</g>
</g>
<g>
	<g>
		<path d="M300,403.35c-9.9,0-18,8.1-18,18v25.6c0,0.5-0.4,0.9-0.9,0.9h-73c-0.5,0-0.9-0.4-0.9-0.9v-73c0-0.5,0.4-0.9,0.9-0.9h73
			c9.9,0,18-8.1,18-18c0-9.9-8.1-18-18-18h-73c-20.4,0-36.9,16.6-36.9,36.9v73c0,20.4,16.6,36.9,36.9,36.9h73
			c20.4,0,36.9-16.6,36.9-36.9v-25.6C318,411.45,309.9,403.35,300,403.35z"/>
	</g>
</g>
<g>
	<g>
		<path d="M471.2,71.55c-9.9,0-18,8.1-18,18v25.6c0,0.5-0.4,0.9-0.9,0.9h-73c-0.5,0-0.9-0.4-0.9-0.9v-73c0-0.5,0.4-0.9,0.9-0.9h73
			c9.9,0,18-8.1,18-18c0-9.9-8.1-18-18-18h-73c-20.4,0-36.9,16.6-36.9,36.9v73c0,20.4,16.6,36.9,36.9,36.9h73
			c20.4,0,36.9-16.6,36.9-36.9v-25.6C489.2,79.65,481.1,71.55,471.2,71.55z"/>
	</g>
</g>
<g>
	<g>
		<path d="M471.2,237.45c-9.9,0-18,8.1-18,18v25.6c0,0.5-0.4,0.9-0.9,0.9h-73c-0.5,0-0.9-0.4-0.9-0.9v-73c0-0.5,0.4-0.9,0.9-0.9h73
			c9.9,0,18-8.1,18-18c0-9.9-8.1-18-18-18h-73c-20.4,0-36.9,16.6-36.9,36.9v73c0,20.4,16.6,36.9,36.9,36.9h73
			c20.4,0,36.9-16.6,36.9-36.9v-25.6C489.2,245.55,481.1,237.45,471.2,237.45z"/>
	</g>
</g>
<g>
	<g>
		<path d="M471.2,403.45c-9.9,0-18,8.1-18,18v25.6c0,0.5-0.4,0.9-0.9,0.9h-73c-0.5,0-0.9-0.4-0.9-0.9v-73c0-0.5,0.4-0.9,0.9-0.9h73
			c9.9,0,18-8.1,18-18c0-9.9-8.1-18-18-18h-73c-20.4,0-36.9,16.6-36.9,36.9v73c0,20.4,16.6,36.9,36.9,36.9h73
			c20.4,0,36.9-16.6,36.9-36.9v-25.6C489.2,411.55,481.1,403.45,471.2,403.45z"/>
	</g>
</g>
<g>
</g>
<g>
</g>
<g>
</g>
<g>
</g>
<g>
</g>
<g>
</g>
<g>
</g>
<g>
</g>
<g>
</g>
<g>
</g>
<g>
</g>
<g>
</g>
<g>
</g>
<g>
</g>
<g>
</g>
</svg>
