<?xml version="1.0" encoding="iso-8859-1"?>
<!-- Generator: Adobe Illustrator 19.0.0, SVG Export Plug-In . SVG Version: 6.00 Build 0)  -->
<svg version="1.1" id="Layer_1" xmlns="http://www.w3.org/2000/svg" xmlns:xlink="http://www.w3.org/1999/xlink" x="0px" y="0px"
	 viewBox="0 0 489 489" style="enable-background:new 0 0 489 489;" xml:space="preserve">
<g>
	<g>
		<path d="M303.276,309.9l-12.9-107.1c-0.6-25.4-21.5-45.8-47-45.8c-25.2,0-45.6,19.4-46.9,44.5c-0.1,0.6-0.1,1.1-0.1,1.7v58.7
			l-0.8,130.1l-5.1-4c-3-2.5-15.4-12.4-32.7-17.7c-27-8.2-52.7-0.8-72.3,20.7c-5.7,6.3-6.3,15.6-1.4,22.5c1,1.4,24.7,34.7,62.5,70.5
			c3.5,3.3,7.9,4.9,12.4,4.9c4.8,0,9.5-1.9,13.1-5.6c6.8-7.2,6.5-18.6-0.7-25.4c-21.1-20-37.7-39.4-47.6-51.8
			c6.9-3.4,14.3-3.9,22.8-1.5c11.4,3.2,20.1,10.4,20.7,10.9c0.3,0.3,0.5,0.4,0.9,0.7l34.3,26.4c5.4,4.2,12.7,4.9,18.9,1.9
			c6.1-3,10.1-9.2,10.1-16.1l1-166.4v-0.1V204c0-0.1,0-0.2,0-0.4c0.2-6,5-10.7,11-10.7c6.1,0,11,4.9,11,11c0,0.7,0,1.4,0.1,2.1
			l13,108.2c1.2,9.9,10.1,16.9,20,15.7C297.476,328.7,304.476,319.7,303.276,309.9z"/>
	</g>
</g>
<g>
	<g>
		<path d="M450.076,364.6c-1-4.7-3.7-8.8-7.6-11.4c-26.3-18.1-60-33.4-100.1-45.5c-9.5-2.9-19.6,2.5-22.4,12
			c-2.9,9.5,2.5,19.6,12,22.4c32.8,9.9,61.6,22.5,83.9,36.6c2.2,15.4,5.9,53.1-2.9,87.9c-2.4,9.6,3.4,19.4,13.1,21.9
			c1.5,0.4,3,0.5,4.4,0.5c8.1,0,15.4-5.4,17.4-13.6C461.176,422.6,450.476,366.9,450.076,364.6z"/>
	</g>
</g>
<g>
	<g>
		<circle cx="145.076" cy="20.9" r="20.9"/>
	</g>
</g>
<g>
	<g>
		<circle cx="236.176" cy="20.9" r="20.9"/>
	</g>
</g>
<g>
	<g>
		<circle cx="55.376" cy="20.9" r="20.9"/>
	</g>
</g>
<g>
	<g>
		<circle cx="145.076" cy="104.9" r="20.9"/>
	</g>
</g>
<g>
	<g>
		<circle cx="236.176" cy="104.9" r="20.9"/>
	</g>
</g>
<g>
	<g>
		<circle cx="55.376" cy="104.9" r="20.9"/>
	</g>
</g>
<g>
	<g>
		<circle cx="145.076" cy="189" r="20.9"/>
	</g>
</g>
<g>
	<g>
		<circle cx="55.376" cy="189" r="20.9"/>
	</g>
</g>
<g>
	<g>
		<circle cx="145.076" cy="273" r="20.9"/>
	</g>
</g>
<g>
</g>
<g>
</g>
<g>
</g>
<g>
</g>
<g>
</g>
<g>
</g>
<g>
</g>
<g>
</g>
<g>
</g>
<g>
</g>
<g>
</g>
<g>
</g>
<g>
</g>
<g>
</g>
<g>
</g>
</svg>
