<?xml version="1.0" encoding="iso-8859-1"?>
<!-- Generator: Adobe Illustrator 19.0.0, SVG Export Plug-In . SVG Version: 6.00 Build 0)  -->
<svg version="1.1" id="Layer_1" xmlns="http://www.w3.org/2000/svg" xmlns:xlink="http://www.w3.org/1999/xlink" x="0px" y="0px"
	 viewBox="0 0 490 490" style="enable-background:new 0 0 490 490;" xml:space="preserve">
<g>
	<g>
		<path d="M364.1,251.3c-7-7-18.4-7-25.5,0L263,327.1V130.9c0-9.9-8.1-18-18-18c-9.9,0-18,8.1-18,18v196.2l-75.8-75.8
			c-7-7-18.4-7-25.5,0c-7,7-7,18.4,0,25.5l106.5,106.5c3.5,3.5,8.1,5.3,12.7,5.3c4.6,0,9.2-1.8,12.7-5.3l106.5-106.5
			C371.1,269.8,371.1,258.4,364.1,251.3z"/>
	</g>
</g>
<g>
	<g>
		<path d="M245,0c-9.9,0-18,8.1-18,18v41.2c0,9.9,8.1,18,18,18c9.9,0,18-8.1,18-18V18C263,8.1,254.9,0,245,0z"/>
	</g>
</g>
<g>
	<g>
		<path d="M438.2,334.9c-9.9,0-18,8.1-18,18V454H69.8V352.9c0-9.9-8.1-18-18-18c-9.9,0-18,8.1-18,18V472c0,9.9,8.1,18,18,18h386.3
			c10,0,18.1-8.1,18.1-18V352.9C456.2,343,448.1,334.9,438.2,334.9z"/>
	</g>
</g>
<g>
</g>
<g>
</g>
<g>
</g>
<g>
</g>
<g>
</g>
<g>
</g>
<g>
</g>
<g>
</g>
<g>
</g>
<g>
</g>
<g>
</g>
<g>
</g>
<g>
</g>
<g>
</g>
<g>
</g>
</svg>
