<?xml version="1.0" encoding="iso-8859-1"?>
<!-- Generator: Adobe Illustrator 19.0.0, SVG Export Plug-In . SVG Version: 6.00 Build 0)  -->
<svg version="1.1" id="Layer_1" xmlns="http://www.w3.org/2000/svg" xmlns:xlink="http://www.w3.org/1999/xlink" x="0px" y="0px"
	 viewBox="0 0 490.1 490.1" style="enable-background:new 0 0 490.1 490.1;" xml:space="preserve">
<g>
	<g>
		<path d="M407.3,0.05H245c-9.9,0-18,8.1-18,18v277.1l-39.8-39.8c-7-7-18.4-7-25.5,0c-7,7-7,18.4,0,25.5l70.6,70.6
			c3.5,3.5,8.1,5.3,12.7,5.3s9.2-1.8,12.7-5.3l70.6-70.6c7-7,7-18.4,0-25.5c-7-7-18.4-7-25.5,0l-39.8,39.8V36.05h144.3
			c25.7,0,46.7,20.8,46.7,46.5v325c0,25.6-20.9,46.5-46.7,46.5H82.7c-25.8,0-46.7-20.8-46.7-46.5v-325c0-25.7,20.9-46.5,46.7-46.5
			h42.1c9.9,0,18-8.1,18-18s-8.1-18-18-18H82.7c-45.6,0-82.7,37-82.7,82.5v325c0,45.5,37.1,82.5,82.7,82.5h324.7
			c45.6,0,82.7-37,82.7-82.5v-325C490,37.05,452.9,0.05,407.3,0.05z"/>
	</g>
</g>
<g>
</g>
<g>
</g>
<g>
</g>
<g>
</g>
<g>
</g>
<g>
</g>
<g>
</g>
<g>
</g>
<g>
</g>
<g>
</g>
<g>
</g>
<g>
</g>
<g>
</g>
<g>
</g>
<g>
</g>
</svg>
