<?xml version="1.0" encoding="iso-8859-1"?>
<!-- Generator: Adobe Illustrator 19.0.0, SVG Export Plug-In . SVG Version: 6.00 Build 0)  -->
<svg version="1.1" id="Layer_1" xmlns="http://www.w3.org/2000/svg" xmlns:xlink="http://www.w3.org/1999/xlink" x="0px" y="0px"
	 viewBox="0 0 485.688 485.688" style="enable-background:new 0 0 485.688 485.688;" xml:space="preserve">
<g>
	<g>
		<path d="M369.069,449.688h-32.7c-9.9,0-18,8.1-18,18c0,9.9,8.1,18,18,18h32.7c9.9,0,18-8.1,18-18
			C387.069,457.788,379.069,449.688,369.069,449.688z"/>
	</g>
</g>
<g>
	<g>
		<path d="M386.669,54.488c-62.2-62.3-163.5-62.3-225.8,0c-62.2,62.2-62.2,163.5,0,225.8c7,7,18.4,7,25.5,0c7.1-7,7-18.4,0-25.5
			c-48.2-48.2-48.2-126.6,0-174.9c48.2-48.2,126.6-48.2,174.9,0c48.2,48.2,48.2,126.6,0,174.9c-21.6,21.5-50.2,34.3-80.6,36
			c-9.9,0.5-17.5,9-17,19c0.5,9.6,8.5,17,18,17c0.3,0,0.7,0,1,0c39.3-2.2,76.2-18.7,104-46.5
			C448.869,218.088,448.869,116.788,386.669,54.488z"/>
	</g>
</g>
<g>
	<g>
		<path d="M435.769,303.788c-7-7.1-18.4-6.9-25.4,0.1c-75.3,75.3-197.8,75.3-273.1,0s-75.3-197.8,0-273.1c7-7,7-18.4,0-25.5
			c-7-7.1-18.4-7-25.5,0c-43.3,43.3-67.1,100.8-67.1,162c0,61.2,23.8,118.7,67.1,162c39,39,89.6,62.2,144,66.4v54h-77.3
			c-9.9,0-18,8.1-18,18c0,9.9,8.1,18,18,18h95.3c9.9,0,18-8.1,18-18v-72c54.4-4.2,105-27.4,144-66.4
			C442.769,322.288,442.769,310.888,435.769,303.788z"/>
	</g>
</g>
<g>
</g>
<g>
</g>
<g>
</g>
<g>
</g>
<g>
</g>
<g>
</g>
<g>
</g>
<g>
</g>
<g>
</g>
<g>
</g>
<g>
</g>
<g>
</g>
<g>
</g>
<g>
</g>
<g>
</g>
</svg>
