<?xml version="1.0" encoding="iso-8859-1"?>
<!-- Generator: Adobe Illustrator 19.0.0, SVG Export Plug-In . SVG Version: 6.00 Build 0)  -->
<svg version="1.1" id="Layer_1" xmlns="http://www.w3.org/2000/svg" xmlns:xlink="http://www.w3.org/1999/xlink" x="0px" y="0px"
	 viewBox="0 0 488.877 488.877" style="enable-background:new 0 0 488.877 488.877;" xml:space="preserve">
<g>
	<g>
		<path d="M488.3,100.567c-0.7-1.6-1.1-3.6-1.5-5.6c-1.1-5.3-2.3-11.2-5-17.2c-15-34.2-39.8-58.5-73.7-72.2c-7.3-3-14.6-3.9-21-4.6
			l-1.6-0.2c-7.4-0.9-18.4,0.1-28.7,10.6c-43.7,43.9-88.2,88.4-131.3,131.5l-31.6,31.5c-7.1,7.1-10,10-11.5,11.5s-1.5,1.5-2.7,2.7
			c-1.3,1.3-4,4.1-11.8,12c-7,7.1-6.9,18.5,0.2,25.5c7.1,7,18.5,6.9,25.5-0.2c7.9-8,10.6-10.8,11.9-12.1c1.1-1.1,1.1-1.1,2.4-2.4
			c1.5-1.5,4.4-4.4,11.5-11.5l31.6-31.6c43.1-43.1,87.6-87.6,131.4-131.6l0.1-0.1h0.3c4.6,0.6,9,1.1,11.9,2.3
			c25.3,10.2,43,27.7,54.3,53.3c1.1,2.6,1.9,6.2,2.7,10.1c0.2,1,0.4,1.9,0.6,2.9c-0.1,0.1-0.2,0.2-0.4,0.4
			c-72,71.8-146.9,146.7-229.2,229.1c-0.4,0.4-0.4,0.4-1.1,0.6c-27.6,5.8-55.6,11.7-82.6,17.4l-4.3,0.9l0.8-3.7
			c5.8-27.5,11.8-55.9,17.9-83.8c2.1-9.7-4-19.3-13.7-21.4c-9.7-2.1-19.3,4-21.4,13.7c-6.1,28-12.1,56.5-17.9,84.1l-3.3,15.6
			c-2,9.6,0.7,19.3,7.3,25.9c5.2,5.2,12.2,8,19.7,8c2.1,0,4.2-0.2,6.3-0.7l16.3-3.4c27.1-5.7,55-11.6,82.5-17.4
			c7.6-1.6,13.9-5,19.2-10.4c82.2-82.4,157.2-157.3,229.1-229.1c6.7-6.7,10.4-14.7,11.3-24.3
			C489,104.667,488.8,102.567,488.3,100.567z"/>
	</g>
</g>
<g>
	<g>
		<path d="M387.7,263.767c-9.9,0-18,8.1-18,18v162.7c0,4.4-3.5,7.9-7.9,7.9H43.9c-4.4,0-7.9-3.5-7.9-7.9v-317.9
			c0-4.4,3.5-7.9,7.9-7.9h169.6c9.9,0,18-8.1,18-18c0-9.9-8.1-18-18-18H43.9c-24.2,0-43.9,19.7-43.9,43.9v317.9
			c0,24.2,19.7,43.9,43.9,43.9h317.9c24.2,0,43.9-19.7,43.9-43.9v-162.7C405.7,271.867,397.6,263.767,387.7,263.767z"/>
	</g>
</g>
<g>
</g>
<g>
</g>
<g>
</g>
<g>
</g>
<g>
</g>
<g>
</g>
<g>
</g>
<g>
</g>
<g>
</g>
<g>
</g>
<g>
</g>
<g>
</g>
<g>
</g>
<g>
</g>
<g>
</g>
</svg>
