<?xml version="1.0" encoding="iso-8859-1"?>
<!-- Generator: Adobe Illustrator 19.0.0, SVG Export Plug-In . SVG Version: 6.00 Build 0)  -->
<svg version="1.1" id="Layer_1" xmlns="http://www.w3.org/2000/svg" xmlns:xlink="http://www.w3.org/1999/xlink" x="0px" y="0px"
	 viewBox="0 0 486.8 486.8" style="enable-background:new 0 0 486.8 486.8;" xml:space="preserve">
<g>
	<g>
		<path d="M486.8,83.813c0-21.6-8.4-41.9-23.7-57.2l-2.4-2.4c-31.5-31.5-82.8-31.5-114.4,0l-228.8,229c-2.9,2.9-4.7,6.7-5.2,10.8
			l-11.2,102.4c-0.6,5.4,1.3,10.8,5.2,14.7c3.9,3.9,9.3,5.8,14.7,5.2l102.4-11.2c4.1-0.4,7.9-2.3,10.8-5.2l88.2-88.2
			c7-7,7-18.4,0-25.5c-7-7.1-18.4-7-25.5,0l-83.7,83.7l-73.9,8l8-73.9l224.5-224.3c17.5-17.5,46-17.5,63.5,0l2.4,2.4
			c17.5,17.5,17.5,46,0,63.5l-55.7,55.7c-3.4,3.4-5.3,8-5.3,12.7l0.1,257.9c0,4.6-3.8,8.4-8.4,8.4h-324c-4.6,0-8.4-3.8-8.4-8.4v-324
			c0-4.6,3.8-8.4,8.4-8.4h172.9c9.9,0,18-8.1,18-18c0-9.9-8.1-18-18-18H44.4c-24.5-0.1-44.4,19.9-44.4,44.3v324
			c0,24.5,19.9,44.4,44.4,44.4h324c24.5,0,44.4-19.9,44.4-44.4l-0.1-250.4l50.4-50.4C478.4,125.713,486.8,105.413,486.8,83.813z"/>
	</g>
</g>
<g>
</g>
<g>
</g>
<g>
</g>
<g>
</g>
<g>
</g>
<g>
</g>
<g>
</g>
<g>
</g>
<g>
</g>
<g>
</g>
<g>
</g>
<g>
</g>
<g>
</g>
<g>
</g>
<g>
</g>
</svg>
