<?xml version="1.0" encoding="iso-8859-1"?>
<!-- Generator: Adobe Illustrator 19.0.0, SVG Export Plug-In . SVG Version: 6.00 Build 0)  -->
<svg version="1.1" id="Layer_1" xmlns="http://www.w3.org/2000/svg" xmlns:xlink="http://www.w3.org/1999/xlink" x="0px" y="0px"
	 viewBox="0 0 488.901 488.901" style="enable-background:new 0 0 488.901 488.901;" xml:space="preserve">
<g>
	<g>
		<path d="M462.4,60.05H26.6C11.9,60.05,0,71.95,0,86.65v315.6c0,14.7,11.9,26.6,26.6,26.6h435.7c14.7,0,26.6-11.9,26.6-26.6V86.65
			C489,72.05,477,60.05,462.4,60.05z M452.9,392.85H36V96.05h394.6l-183.6,157l-133.5-114.2c-7.6-6.5-18.9-5.6-25.4,2
			c-6.5,7.6-5.6,18.9,2,25.4l145.2,124.2c0.2,0.2,0.4,0.3,0.5,0.4c0.2,0.2,0.4,0.3,0.6,0.5c0.3,0.2,0.7,0.5,1.1,0.7
			c0.1,0.1,0.3,0.2,0.4,0.3c0.5,0.3,1,0.6,1.6,0.8c0.1,0.1,0.3,0.1,0.4,0.2c0.4,0.2,0.8,0.3,1.3,0.5c0.2,0.1,0.3,0.1,0.5,0.2
			c0.4,0.1,0.8,0.2,1.2,0.3c0.2,0,0.4,0.1,0.5,0.1c0.4,0.1,0.9,0.2,1.3,0.2c0.2,0,0.3,0,0.5,0.1c0.6,0.1,1.2,0.1,1.8,0.1
			c0.6,0,1.2,0,1.8-0.1c0.2,0,0.3,0,0.5-0.1c0.4-0.1,0.9-0.1,1.3-0.2c0.2,0,0.4-0.1,0.5-0.1c0.4-0.1,0.8-0.2,1.2-0.3
			c0.2-0.1,0.3-0.1,0.5-0.2c0.4-0.1,0.9-0.3,1.3-0.5c0.1-0.1,0.3-0.1,0.4-0.2c0.5-0.2,1.1-0.5,1.6-0.8c0.1-0.1,0.3-0.2,0.4-0.3
			c0.4-0.2,0.7-0.5,1.1-0.7c0.2-0.1,0.4-0.3,0.6-0.5c0.2-0.1,0.4-0.3,0.5-0.4l194.2-166.1V392.85z"/>
	</g>
</g>
<g>
</g>
<g>
</g>
<g>
</g>
<g>
</g>
<g>
</g>
<g>
</g>
<g>
</g>
<g>
</g>
<g>
</g>
<g>
</g>
<g>
</g>
<g>
</g>
<g>
</g>
<g>
</g>
<g>
</g>
</svg>
