<?xml version="1.0" encoding="iso-8859-1"?>
<!-- Generator: Adobe Illustrator 19.0.0, SVG Export Plug-In . SVG Version: 6.00 Build 0)  -->
<svg version="1.1" id="Layer_1" xmlns="http://www.w3.org/2000/svg" xmlns:xlink="http://www.w3.org/1999/xlink" x="0px" y="0px"
	 viewBox="0 0 490.7 490.7" style="enable-background:new 0 0 490.7 490.7;" xml:space="preserve">
<g>
	<g>
		<path d="M486.3,196.038c-2.2-4.1-5.1-7.7-8.7-10.7l-190.1-159.6c-24.5-20.5-60-20.5-84.5,0l-142.4,119.6
			c-7.6,6.4-8.6,17.7-2.2,25.4c6.4,7.6,17.7,8.6,25.4,2.2l142.4-119.6c11.1-9.3,27.1-9.3,38.2,0l179.5,150.7l-76.2,52
			c-8.2,5.6-10.3,16.8-4.7,25c3.5,5.1,9.1,7.8,14.9,7.8c3.5,0,7-1,10.1-3.1l66.7-45.5v178.7l-152.5-152.5
			c-15.2-15.2-35.4-23.6-57-23.6c-21.6,0-41.7,8.4-57,23.6l-19.9,19.9l-139.2-94.1c-4.6-3.1-10.4-3.9-15.7-2.2
			c-5.3,1.8-9.5,5.9-11.3,11.1c-1.4,3.9-2.1,8-2.1,12.1v230.5c0,9.8,3.8,18.9,10.7,25.8c3.5,3.5,8.1,5.3,12.7,5.3
			c4.6,0,9.2-1.8,12.7-5.3c0.1-0.1,0.2-0.3,0.3-0.4l177.3-177.3c8.4-8.4,19.6-13,31.5-13c11.9,0,23.1,4.6,31.5,13l152.5,152.5h-321
			c-9.9,0-18,8.1-18,18c0,9.9,8.1,18,18,18h345.9c9.8,0,18.8-3.9,25.4-10.3c0.2-0.1,0.3-0.3,0.5-0.4c0.1-0.1,0.3-0.3,0.4-0.4
			c6.4-6.6,10.3-15.6,10.3-25.4v-230.5C490.7,207.237,489.2,201.337,486.3,196.038z M35.9,418.837v-178.5l106.5,72L35.9,418.837z"/>
	</g>
</g>
<g>
</g>
<g>
</g>
<g>
</g>
<g>
</g>
<g>
</g>
<g>
</g>
<g>
</g>
<g>
</g>
<g>
</g>
<g>
</g>
<g>
</g>
<g>
</g>
<g>
</g>
<g>
</g>
<g>
</g>
</svg>
