<?xml version="1.0" encoding="iso-8859-1"?>
<!-- Generator: Adobe Illustrator 19.0.0, SVG Export Plug-In . SVG Version: 6.00 Build 0)  -->
<svg version="1.1" id="Layer_1" xmlns="http://www.w3.org/2000/svg" xmlns:xlink="http://www.w3.org/1999/xlink" x="0px" y="0px"
	 viewBox="0 0 488 488" style="enable-background:new 0 0 488 488;" xml:space="preserve">
<g>
	<g>
		<path d="M452.9,171.75v-35.1c0-22.9-18.7-41.6-41.7-41.6H201.9v-14.7c0-20.4-16.6-37-37.1-37H18c-9.9,0-18,8.1-18,18v365.3
			c0,9.9,8.1,18,18,18s18-8.1,18-18V79.35h128.8c0.6,0,1.1,0.5,1.1,1v32.7c0,9.9,8.1,18,18,18h227.3c3.1,0,5.6,2.5,5.6,5.6v52.6
			c0,9.9,8.1,18,18,18h11.4c3.2,0,5.7,2.6,5.7,5.7v195.6h-339v-195.6c0-3.2,2.6-5.7,5.7-5.7h237.2c9.9,0,18-8.1,18-18
			c0-9.9-8.1-18-18-18H118.6c-23,0-41.7,18.7-41.7,41.7v213.6c0,9.9,8.1,18,18,18H470c9.9,0,18-8.1,18-18v-213.6
			C488,192.15,472.8,174.95,452.9,171.75z"/>
	</g>
</g>
<g>
</g>
<g>
</g>
<g>
</g>
<g>
</g>
<g>
</g>
<g>
</g>
<g>
</g>
<g>
</g>
<g>
</g>
<g>
</g>
<g>
</g>
<g>
</g>
<g>
</g>
<g>
</g>
<g>
</g>
</svg>
