<?xml version="1.0" encoding="iso-8859-1"?>
<!-- Generator: Adobe Illustrator 19.0.0, SVG Export Plug-In . SVG Version: 6.00 Build 0)  -->
<svg version="1.1" id="Layer_1" xmlns="http://www.w3.org/2000/svg" xmlns:xlink="http://www.w3.org/1999/xlink" x="0px" y="0px"
	 viewBox="0 0 490 490" style="enable-background:new 0 0 490 490;" xml:space="preserve">
<g>
	<g>
		<path d="M483.3,298.913c-0.1-1.2-0.4-2.4-0.7-3.7l-63.7-202.2c-9.8-31.9-43.6-50-75.6-40.2c-9.5,2.9-14.9,12.9-12,22.5
			c2.9,9.5,12.9,14.9,22.5,12c13-3.9,26.7,3.4,30.7,16.4c0,0.1,0,0.1,0.1,0.2l42.8,136.1c-12.8-5.6-26.9-8.7-41.8-8.7
			c-51.4,0-94.2,37.3-102.7,86.3H207c-8.6-49-51.4-86.3-102.7-86.3c-14.6,0-28.6,3-41.2,8.5l42.8-136c0-0.1,0-0.1,0.1-0.2
			c3.9-13,17.7-20.3,30.7-16.4c9.5,2.9,19.6-2.5,22.5-12c2.9-9.5-2.5-19.6-12-22.5c-31.9-9.7-65.8,8.3-75.6,40.3l-63.7,202.2
			c-0.2,0.6-0.3,1.2-0.5,1.8c-4.8,11.9-7.4,25-7.4,38.6c0,57.5,46.8,104.3,104.3,104.3c19.6,0,38.7-5.5,55.2-15.8
			c8.4-5.3,11-16.4,5.7-24.8c-5.3-8.4-16.4-11-24.8-5.7c-10.8,6.8-23.3,10.3-36.1,10.3c-37.7,0-68.3-30.6-68.3-68.3
			s30.6-68.3,68.3-68.3s68.3,30.6,68.3,68.3c0,9.9,8.1,18,18,18H283c8.6,49,51.4,86.3,102.7,86.3c19.6,0,38.7-5.5,55.2-15.8
			c8.4-5.3,11-16.4,5.7-24.8c-5.3-8.4-16.4-11-24.8-5.7c-10.8,6.8-23.3,10.3-36.1,10.3c-37.7,0-68.3-30.6-68.3-68.3
			c0-37.7,30.6-68.3,68.3-68.3c37.7,0,68.3,30.6,68.3,68.3c0,9.9,8.1,18,18,18c9.9,0,18-8.1,18-18
			C490,322.713,487.6,310.313,483.3,298.913z"/>
	</g>
</g>
<g>
</g>
<g>
</g>
<g>
</g>
<g>
</g>
<g>
</g>
<g>
</g>
<g>
</g>
<g>
</g>
<g>
</g>
<g>
</g>
<g>
</g>
<g>
</g>
<g>
</g>
<g>
</g>
<g>
</g>
</svg>
