<?xml version="1.0" encoding="iso-8859-1"?>
<!-- Generator: Adobe Illustrator 19.0.0, SVG Export Plug-In . SVG Version: 6.00 Build 0)  -->
<svg version="1.1" id="Layer_1" xmlns="http://www.w3.org/2000/svg" xmlns:xlink="http://www.w3.org/1999/xlink" x="0px" y="0px"
	 viewBox="0 0 485.9 485.9" style="enable-background:new 0 0 485.9 485.9;" xml:space="preserve">
<g>
	<g>
		<path d="M369.621,309.7c-7.3,6.7-7.8,18.1-1.1,25.4c6.7,7.4,18.1,7.9,25.4,1.2c39.9-36.6,62.8-88.6,62.8-142.7
			C456.621,86.9,369.821,0,263.121,0c-28.9,0-56.7,6.2-82.7,18.5c-32.9,15.3-60.8,39.5-80.7,70c-20.4,31.3-31.2,67.8-31.2,105.3
			v24.7l-33.7,64.4c-7.3,13.9-7.5,28.4-0.7,39.8c6.7,11.1,19.2,17.6,34.4,17.9v46.9c0,30.3,24.6,54.9,54.9,54.9
			c0.9,0,1.8-0.1,2.6-0.2l30-4.5v30.2c0,9.9,8.1,18,18,18h202.2c12.9,0,23.4-10.5,23.4-23.4v-64.7c0-9.9-8.1-18-18-18
			c-9.9,0-18,8.1-18,18V450h-171.5v-33.1c0-0.1,0-0.2,0-0.4c0-0.3,0-0.6,0-0.9s-0.1-0.6-0.1-1c0-0.1,0-0.2,0-0.4
			c0-0.1-0.1-0.3-0.1-0.4c-0.1-0.4-0.1-0.7-0.2-1.1c-0.1-0.2-0.1-0.5-0.2-0.7c-0.1-0.3-0.2-0.7-0.3-1c-0.1-0.3-0.2-0.5-0.3-0.7
			c-0.1-0.3-0.2-0.6-0.4-0.9c-0.1-0.3-0.2-0.5-0.4-0.8c-0.1-0.3-0.3-0.5-0.4-0.8c-0.2-0.3-0.3-0.5-0.5-0.8c-0.1-0.2-0.3-0.5-0.5-0.7
			c-0.2-0.3-0.4-0.5-0.6-0.7s-0.3-0.4-0.5-0.6s-0.4-0.5-0.6-0.7c-0.2-0.2-0.4-0.4-0.6-0.6s-0.4-0.4-0.6-0.6
			c-0.2-0.2-0.5-0.4-0.7-0.6c-0.2-0.2-0.4-0.3-0.6-0.5c-0.3-0.2-0.5-0.4-0.8-0.5c-0.2-0.1-0.4-0.3-0.7-0.4c-0.3-0.2-0.6-0.3-0.8-0.5
			c-0.2-0.1-0.5-0.2-0.7-0.3c-0.3-0.1-0.6-0.2-0.9-0.4c-0.3-0.1-0.5-0.2-0.8-0.3c-0.3-0.1-0.6-0.2-0.8-0.3c-0.3-0.1-0.6-0.2-0.9-0.2
			c-0.3-0.1-0.5-0.1-0.8-0.2c-0.3-0.1-0.7-0.1-1-0.2c-0.2,0-0.5-0.1-0.7-0.1c-0.4,0-0.7,0-1.1-0.1c-0.1,0-0.3,0-0.4,0
			c-0.1,0-0.2,0-0.4,0c-0.3,0-0.6,0-1,0c-0.3,0-0.6,0.1-1,0.1c-0.1,0-0.2,0-0.4,0l-49.1,7.3c-9.9-0.6-17.8-8.8-17.8-18.9v-64.9
			c0-9.9-8.1-18-18-18h-16.7c-2.4,0-3.8-0.4-4.5-0.7c0.1-0.8,0.4-2.2,1.5-4.3l35.8-68.3c1.4-2.6,2.1-5.4,2.1-8.4v-29.2
			c0-61,35.8-117,91.1-142.7c0,0,0.1,0,0.1-0.1c21.1-9.3,43.7-14.4,67.3-14.4c86.9,0,157.6,70.7,157.6,157.6
			C420.721,237.6,402.121,279.9,369.621,309.7z"/>
	</g>
</g>
<g>
	<g>
		<path d="M333.321,123.7c-19.6-19.6-45.7-30.4-73.4-30.4c-27.7,0-53.8,10.8-73.4,30.4s-30.4,45.7-30.4,73.4
			c0,27.7,10.8,53.8,30.4,73.4c7,7,18.4,7,25.5,0c7.1-7,7-18.4,0-25.5c-12.8-12.8-19.9-29.9-19.9-48c0-18.1,7.1-35.2,19.9-48
			s29.9-19.9,48-19.9c18.1,0,35.2,7.1,48,19.9s19.9,29.9,19.9,48c0,18.1-7.1,35.2-19.9,48c-7.1,7.1-7.1,18.4-0.1,25.5
			c3.5,3.5,8.1,5.3,12.7,5.3c4.6,0,9.2-1.8,12.7-5.3c19.6-19.6,30.4-45.7,30.4-73.4C363.721,169.4,352.921,143.3,333.321,123.7z"/>
	</g>
</g>
<g>
</g>
<g>
</g>
<g>
</g>
<g>
</g>
<g>
</g>
<g>
</g>
<g>
</g>
<g>
</g>
<g>
</g>
<g>
</g>
<g>
</g>
<g>
</g>
<g>
</g>
<g>
</g>
<g>
</g>
</svg>
