<?xml version="1.0" encoding="iso-8859-1"?>
<!-- Generator: Adobe Illustrator 19.0.0, SVG Export Plug-In . SVG Version: 6.00 Build 0)  -->
<svg version="1.1" id="Layer_1" xmlns="http://www.w3.org/2000/svg" xmlns:xlink="http://www.w3.org/1999/xlink" x="0px" y="0px"
	 viewBox="0 0 488.4 488.4" style="enable-background:new 0 0 488.4 488.4;" xml:space="preserve">
<g>
	<g>
		<path d="M488.4,249.1c0-65.2-25.4-126.6-71.5-172.7C370.8,30.3,309.4,4.9,244.2,4.9S117.6,30.3,71.5,76.5
			C25.4,122.6,0,183.9,0,249.2v69.3v44.4v44.3c0,42.1,34.2,76.3,76.2,76.3h44.4c9.9,0,18-8.1,18-18c0-9.9-8.1-18-18-18H76.2
			C54,447.5,36,429.4,36,407.3v-44.4v-44.4c0-22.2,18.1-40.2,40.2-40.2h26.4v113.1c0,9.9,8.1,18,18,18c9.9,0,18-8.1,18-18V260.2
			c0-9.9-8.1-18-18-18H76.2c-14.8,0-28.5,4.2-40.2,11.5v-4.6c0-114.8,93.4-208.2,208.2-208.2s208.2,93.4,208.2,208.2
			c0,0.9,0.1,1.9,0.2,2.8c-0.1,0.6-0.2,1.2-0.2,1.9c-11.7-7.3-25.5-11.6-40.3-11.6h-44.4c-9.9,0-18,8.1-18,18v205.2
			c0,9.9,8.1,18,18,18h54c9.9,0,18-8.1,18-18c0-9.9-8.1-18-18-18h-36V278.2h26.5c22.2,0,40.2,18.1,40.2,40.2v49.9v38.9
			c0,9.9,8.1,18,18,18c9.9,0,18-8.1,18-18v-38.8v-49.9v-63.8c0-0.9-0.1-1.9-0.2-2.8C488.3,251,488.4,250.1,488.4,249.1z"/>
	</g>
</g>
<g>
</g>
<g>
</g>
<g>
</g>
<g>
</g>
<g>
</g>
<g>
</g>
<g>
</g>
<g>
</g>
<g>
</g>
<g>
</g>
<g>
</g>
<g>
</g>
<g>
</g>
<g>
</g>
<g>
</g>
</svg>
