<?xml version="1.0" encoding="iso-8859-1"?>
<!-- Generator: Adobe Illustrator 19.0.0, SVG Export Plug-In . SVG Version: 6.00 Build 0)  -->
<svg version="1.1" id="Layer_1" xmlns="http://www.w3.org/2000/svg" xmlns:xlink="http://www.w3.org/1999/xlink" x="0px" y="0px"
	 viewBox="0 0 490.2 490.2" style="enable-background:new 0 0 490.2 490.2;" xml:space="preserve">
<g>
	<g>
		<path d="M372.891,312.4c-7.3,6.7-7.8,18.1-1.1,25.4c6.7,7.3,18.1,7.8,25.4,1.1c40.2-36.9,63.3-89.3,63.3-143.8
			c0-107.5-87.5-195.1-195.1-195.1c-29.1,0-57.2,6.3-83.3,18.7c-33.2,15.4-61.3,39.8-81.3,70.6c-20.6,31.6-31.4,68.3-31.4,106.2v25
			l-34,65c-7.3,14-7.6,28.6-0.7,40c6.8,11.2,19.4,17.7,34.7,18V391c0,30.5,24.8,55.2,55.2,55.2c0.9,0,1.8-0.1,2.6-0.2l30.5-4.5v30.7
			c0,9.9,8.1,18,18,18h203.9c12.9,0,23.5-10.5,23.5-23.5v-65.3c0-9.9-8.1-18-18-18c-9.9,0-18,8.1-18,18V454h-173.5v-33.5
			c0-0.1,0-0.2,0-0.4c0-0.3,0-0.6,0-1c0-0.3-0.1-0.6-0.1-1c0-0.1,0-0.2,0-0.4c0-0.1-0.1-0.3-0.1-0.4c-0.1-0.3-0.1-0.7-0.2-1
			c-0.1-0.2-0.1-0.5-0.2-0.7c-0.1-0.3-0.2-0.6-0.3-1c-0.1-0.3-0.2-0.5-0.3-0.8c-0.1-0.3-0.2-0.6-0.4-0.9c-0.1-0.3-0.2-0.5-0.4-0.8
			c-0.1-0.3-0.3-0.5-0.4-0.7c-0.2-0.3-0.3-0.5-0.5-0.8c-0.1-0.2-0.3-0.4-0.5-0.7s-0.4-0.5-0.6-0.7s-0.3-0.4-0.5-0.6
			c-0.2-0.2-0.4-0.5-0.6-0.7s-0.4-0.4-0.6-0.6s-0.4-0.4-0.6-0.6s-0.5-0.4-0.7-0.6c-0.2-0.2-0.4-0.3-0.6-0.5
			c-0.3-0.2-0.5-0.4-0.8-0.5c-0.2-0.1-0.4-0.3-0.6-0.4c-0.3-0.2-0.6-0.3-0.9-0.5c-0.2-0.1-0.4-0.2-0.7-0.3s-0.6-0.3-0.9-0.4
			c-0.2-0.1-0.5-0.2-0.7-0.3c-0.3-0.1-0.6-0.2-0.9-0.3c-0.3-0.1-0.6-0.2-0.8-0.2c-0.3-0.1-0.6-0.1-0.8-0.2c-0.3-0.1-0.6-0.1-1-0.1
			c-0.3,0-0.5-0.1-0.8-0.1c-0.3,0-0.7,0-1-0.1c-0.1,0-0.3,0-0.4,0c-0.1,0-0.2,0-0.4,0c-0.3,0-0.6,0-0.9,0s-0.6,0.1-1,0.1
			c-0.1,0-0.2,0-0.4,0l-49.6,7.4c-10.1-0.6-18.1-9-18.1-19.2V325c0-9.9-8.1-18-18-18h-17c-2.6,0-4.1-0.4-4.8-0.7
			c0.1-0.7,0.4-2.2,1.6-4.6l36.1-68.9c1.4-2.6,2.1-5.4,2.1-8.4V195c0-61.6,36.1-118.1,92-144.1c0,0,0.1,0,0.1-0.1
			c21.3-10.1,44.2-15.2,68-15.2c87.7,0,159.1,71.4,159.1,159.1C424.491,239.6,405.691,282.4,372.891,312.4z"/>
	</g>
</g>
<g>
</g>
<g>
</g>
<g>
</g>
<g>
</g>
<g>
</g>
<g>
</g>
<g>
</g>
<g>
</g>
<g>
</g>
<g>
</g>
<g>
</g>
<g>
</g>
<g>
</g>
<g>
</g>
<g>
</g>
</svg>
