<?xml version="1.0" encoding="iso-8859-1"?>
<!-- Generator: Adobe Illustrator 19.0.0, SVG Export Plug-In . SVG Version: 6.00 Build 0)  -->
<svg version="1.1" id="Layer_1" xmlns="http://www.w3.org/2000/svg" xmlns:xlink="http://www.w3.org/1999/xlink" x="0px" y="0px"
	 viewBox="0 0 481.567 481.567" style="enable-background:new 0 0 481.567 481.567;" xml:space="preserve">
<g>
	<g>
		<path d="M424.7,55.841c-19.8-15.2-43.3-25-68.1-28.2c-42.6-5.6-84.3,7.4-115.8,35.6c-31.5-28.5-73.4-41.5-116.2-35.8
			c-24.8,3.3-48.4,13.2-68.3,28.6c-35.8,27.9-56.4,69.6-56.3,114.6c0,38.5,15.1,74.8,42.4,102.1l172.9,172.9
			c6.6,6.6,15.2,9.8,23.8,9.8c8.6,0,17.2-3.3,23.8-9.8l26.8-26.8c7-7,7-18.4,0-25.5c-7-7-18.4-7-25.5,0l-25.1,25.1l-171.2-171.3
			c-20.5-20.5-31.8-47.7-31.9-76.7c0-33.7,15.4-65.1,42.4-86.1c14.8-11.5,32.4-18.9,50.9-21.3c34.2-4.5,67.6,6.7,91.7,30.9
			l19.8,19.8l19.6-19.6c24-24.1,57.4-35.3,91.5-30.8c18.5,2.4,36,9.7,50.8,21c28.2,21.7,43.8,54.4,42.8,89.6
			c-0.8,27.7-12.9,54.6-33.9,75.7l-91.2,91.1c-7,7-7,18.4,0,25.5c7,7,18.4,7,25.5,0l91.2-91.2c27.6-27.6,43.4-63.1,44.4-100.1
			C482.9,128.041,462.2,84.641,424.7,55.841z"/>
	</g>
</g>
<g>
</g>
<g>
</g>
<g>
</g>
<g>
</g>
<g>
</g>
<g>
</g>
<g>
</g>
<g>
</g>
<g>
</g>
<g>
</g>
<g>
</g>
<g>
</g>
<g>
</g>
<g>
</g>
<g>
</g>
</svg>
