<?xml version="1.0" encoding="iso-8859-1"?>
<!-- Generator: Adobe Illustrator 19.0.0, SVG Export Plug-In . SVG Version: 6.00 Build 0)  -->
<svg version="1.1" id="Layer_1" xmlns="http://www.w3.org/2000/svg" xmlns:xlink="http://www.w3.org/1999/xlink" x="0px" y="0px"
	 viewBox="0 0 486.8 486.8" style="enable-background:new 0 0 486.8 486.8;" xml:space="preserve">
<g>
	<g>
		<path d="M356.1,0C284,0,225.4,58.6,225.4,130.7V167c0,9.9,8.1,18,18,18c9.9,0,18-8.1,18-18v-36.3c0-52.2,42.5-94.7,94.7-94.7
			s94.7,42.5,94.7,94.7s-42.5,94.7-94.7,94.7H130.7C58.6,225.4,0,284,0,356.1s58.6,130.7,130.7,130.7s130.7-58.6,130.7-130.7v-35.9
			c0-9.9-8.1-18-18-18c-9.9,0-18,8.1-18,18v35.9c0,52.2-42.5,94.7-94.7,94.7c-52.2,0-94.7-42.5-94.7-94.7s42.5-94.7,94.7-94.7h225.4
			c72.1,0,130.7-58.6,130.7-130.7S428.2,0,356.1,0z"/>
	</g>
</g>
<g>
</g>
<g>
</g>
<g>
</g>
<g>
</g>
<g>
</g>
<g>
</g>
<g>
</g>
<g>
</g>
<g>
</g>
<g>
</g>
<g>
</g>
<g>
</g>
<g>
</g>
<g>
</g>
<g>
</g>
</svg>
