<?xml version="1.0" encoding="iso-8859-1"?>
<!-- Generator: Adobe Illustrator 19.0.0, SVG Export Plug-In . SVG Version: 6.00 Build 0)  -->
<svg version="1.1" id="Layer_1" xmlns="http://www.w3.org/2000/svg" xmlns:xlink="http://www.w3.org/1999/xlink" x="0px" y="0px"
	 viewBox="0 0 490.3 490.3" style="enable-background:new 0 0 490.3 490.3;" xml:space="preserve">
<g>
	<g>
		<path d="M472.2,318H287.7c-9.9,0-18,8.1-18,18v4.7h-49.2V336c0-9.9-8.1-18-18-18h-124V119.2c0-12.2,9.9-22.1,22.1-22.1h288.9
			c12.2,0,22.1,9.9,22.1,22.1v156.5c0,9.9,8.1,18,18,18c9.9,0,18-8.1,18-18V119.2c0-32-26.1-58.1-58.1-58.1H100.6
			c-32,0-58.1,26.1-58.1,58.1v198.9H18c-9.9,0-18,8.1-18,18v40.7c0,28.9,23.5,52.4,52.4,52.4h385.5c28.9,0,52.4-23.5,52.4-52.4
			v-40.7C490.2,326.1,482.2,318,472.2,318z M437.8,393.2H52.3c-9,0-16.4-7.3-16.4-16.4v-22.7h149.2c2.9,13,14.5,22.7,28.3,22.7h63.2
			c13.8,0,25.4-9.7,28.3-22.7h149.2v22.7h0.1C454.2,385.8,446.9,393.2,437.8,393.2z"/>
	</g>
</g>
<g>
</g>
<g>
</g>
<g>
</g>
<g>
</g>
<g>
</g>
<g>
</g>
<g>
</g>
<g>
</g>
<g>
</g>
<g>
</g>
<g>
</g>
<g>
</g>
<g>
</g>
<g>
</g>
<g>
</g>
</svg>
