<?xml version="1.0" encoding="iso-8859-1"?>
<!-- Generator: Adobe Illustrator 19.0.0, SVG Export Plug-In . SVG Version: 6.00 Build 0)  -->
<svg version="1.1" id="Layer_1" xmlns="http://www.w3.org/2000/svg" xmlns:xlink="http://www.w3.org/1999/xlink" x="0px" y="0px"
	 viewBox="0 0 489.4 489.4" style="enable-background:new 0 0 489.4 489.4;" xml:space="preserve">
<g>
	<g>
		<path d="M77.2,15.1C34.6,15.1,0,49.7,0,92.3c0,36.4,25.3,66.9,59.2,75.1v289c0,9.9,8.1,18,18,18s18-8.1,18-18V151.5
			c0-9.9-8.1-18-18-18C54.5,133.5,36,115,36,92.3c0-22.7,18.5-41.2,41.2-41.2s41.2,18.5,41.2,41.2c0,9.9,8.1,18,18,18
			c9.9,0,18-8.1,18-18C154.4,49.7,119.8,15.1,77.2,15.1z"/>
	</g>
</g>
<g>
	<g>
		<path d="M262.1,322V33c0-9.9-8.1-18-18-18c-9.9,0-18,8.1-18,18v289c-33.9,8.1-59.2,38.7-59.2,75.1c0,42.6,34.6,77.2,77.2,77.2
			c9.9,0,18-8.1,18-18c0-9.9-8.1-18-18-18c-22.7,0-41.2-18.5-41.2-41.2s18.5-41.2,41.2-41.2s41.2,18.5,41.2,41.2c0,9.9,8.1,18,18,18
			c9.9,0,18-8.1,18-18C321.3,360.7,296,330.2,262.1,322z"/>
	</g>
</g>
<g>
	<g>
		<path d="M412.2,15.1c-42.6,0-77.2,34.6-77.2,77.2c0,36.4,25.3,66.9,59.2,75.1v289c0,9.9,8.1,18,18,18c9.9,0,18-8.1,18-18V151.5
			c0-9.9-8.1-18-18-18c-22.7,0-41.2-18.5-41.2-41.2c0-22.7,18.5-41.2,41.2-41.2s41.2,18.5,41.2,41.2c0,9.9,8.1,18,18,18
			c9.9,0,18-8.1,18-18C489.4,49.7,454.8,15.1,412.2,15.1z"/>
	</g>
</g>
<g>
</g>
<g>
</g>
<g>
</g>
<g>
</g>
<g>
</g>
<g>
</g>
<g>
</g>
<g>
</g>
<g>
</g>
<g>
</g>
<g>
</g>
<g>
</g>
<g>
</g>
<g>
</g>
<g>
</g>
</svg>
