<?xml version="1.0" encoding="iso-8859-1"?>
<!-- Generator: Adobe Illustrator 19.0.0, SVG Export Plug-In . SVG Version: 6.00 Build 0)  -->
<svg version="1.1" id="Layer_1" xmlns="http://www.w3.org/2000/svg" xmlns:xlink="http://www.w3.org/1999/xlink" x="0px" y="0px"
	 viewBox="0 0 488.8 488.8" style="enable-background:new 0 0 488.8 488.8;" xml:space="preserve">
<g>
	<g>
		<path d="M396.6,0c-36.3,0-66.9,25.3-75,59.1H33c-9.9,0-18,8.1-18,18c0,9.9,8.1,18,18,18h288.6c8.1,33.9,38.7,59.1,75,59.1
			c9.9,0,18-8.1,18-18c0-9.9-8.1-18-18-18c-22.7,0-41.1-18.5-41.1-41.1c0-22.7,18.5-41.1,41.1-41.1c22.6,0,41.1,18.5,41.1,41.1
			c0,9.9,8.1,18,18,18c9.9,0,18-8.1,18-18C473.7,34.6,439.1,0,396.6,0z"/>
	</g>
</g>
<g>
	<g>
		<path d="M455.8,225.8H167.2c-8.1-33.9-38.7-59.1-75-59.1c-42.5,0-77.1,34.6-77.1,77.1c-0.1,42.5,34.5,77.1,77.1,77.1
			c9.9,0,18-8.1,18-18c0-9.9-8.1-18-18-18c-22.7,0-41.1-18.5-41.1-41.1c0-22.7,18.5-41.1,41.1-41.1c22.7,0,41.1,18.5,41.1,41.1
			c0,9.9,8.1,18,18,18h304.5c9.9,0,18-8.1,18-18C473.8,233.9,465.7,225.8,455.8,225.8z"/>
	</g>
</g>
<g>
	<g>
		<path d="M396.6,334.6c-36.3,0-66.9,25.3-75,59.1H33c-9.9,0-18,8.1-18,18c0,9.9,8.1,18,18,18h288.6c8.1,33.9,38.7,59.1,75,59.1
			c9.9,0,18-8.1,18-18c0-9.9-8.1-18-18-18c-22.7,0-41.1-18.5-41.1-41.1c0-22.7,18.5-41.1,41.1-41.1c22.6,0,41.1,18.5,41.1,41.1
			c0,9.9,8.1,18,18,18c9.9,0,18-8.1,18-18C473.7,369.2,439.1,334.6,396.6,334.6z"/>
	</g>
</g>
<g>
</g>
<g>
</g>
<g>
</g>
<g>
</g>
<g>
</g>
<g>
</g>
<g>
</g>
<g>
</g>
<g>
</g>
<g>
</g>
<g>
</g>
<g>
</g>
<g>
</g>
<g>
</g>
<g>
</g>
</svg>
