<?xml version="1.0" encoding="iso-8859-1"?>
<!-- Generator: Adobe Illustrator 19.0.0, SVG Export Plug-In . SVG Version: 6.00 Build 0)  -->
<svg version="1.1" id="Layer_1" xmlns="http://www.w3.org/2000/svg" xmlns:xlink="http://www.w3.org/1999/xlink" x="0px" y="0px"
	 viewBox="0 0 488.6 488.6" style="enable-background:new 0 0 488.6 488.6;" xml:space="preserve">
<g>
	<g>
		<path d="M363.9,54.1C333.6,19.7,290,0,244.3,0S155,19.7,124.7,54.2C99.2,83,85.2,120.5,85.3,159.5s14.2,76.4,39.8,105.2
			c4.2,4.7,8.7,9.2,13.4,13.4c16.7,14.9,23.8,29.2,23.8,48l-0.2,18.7c-0.1,9.9,7.9,18.1,17.8,18.2c0.1,0,0.1,0,0.2,0
			c9.9,0,17.9-7.9,18-17.8l0.2-18.7v-0.1c0.1-29.4-11.3-53.2-35.8-75.1c-3.6-3.2-7.1-6.8-10.4-10.4c-41.2-46.4-41.3-116.4-0.3-162.9
			c23.5-26.7,57.3-42,92.6-42c35.4,0,69.1,15.3,92.6,42c40.9,46.4,40.8,116.3-0.1,162.6c-3.3,3.8-6.9,7.3-10.6,10.7
			c-24.1,21.5-35.4,45.1-35.5,74.1l-0.2,19.6c-0.1,9.9,7.9,18.1,17.8,18.2c0.1,0,0.1,0,0.2,0c9.9,0,17.9-7.9,18-17.8l0.2-19.6
			c-0.1-0.3-0.1-0.3,0-0.4c0.1-18.8,6.9-32.6,23.5-47.4c4.8-4.3,9.3-8.9,13.6-13.7c25.4-28.8,39.4-66.1,39.4-105.1
			C403.3,120.3,389.3,82.9,363.9,54.1z"/>
	</g>
</g>
<g>
	<g>
		<path d="M308.5,393.1H180.1c-9.9,0-18,8.1-18,18c0,9.9,8.1,18,18,18h128.5c9.9,0,17.9-8,17.9-18
			C326.5,401.2,318.4,393.1,308.5,393.1z"/>
	</g>
</g>
<g>
	<g>
		<path d="M278.9,452.6h-69.3c-9.9,0-18,8.1-18,18c0,9.9,8.1,18,18,18h69.3c9.9,0,18-8.1,18-18C296.9,460.7,288.8,452.6,278.9,452.6
			z"/>
	</g>
</g>
<g>
	<g>
		<path d="M257,211.1l-49.7-49.7c-7-7-18.4-7-25.5,0c-7,7-7,18.4,0,25.5l44.5,44.4c0,26.4,0,113.7,0,113.7c0,9.9,8.1,18,18,18
			c9.9,0,18-8.1,18-18V225.2C262.3,218.6,260,214.1,257,211.1z"/>
	</g>
</g>
<g>
	<g>
		<path d="M306.8,161.3c-7-7-18.4-7-25.5,0l-9.5,9.5c-7,7-7,18.4,0,25.5c3.5,3.5,8.1,5.3,12.7,5.3s9.2-1.7,12.8-5.3l9.5-9.5
			C313.8,179.8,313.8,168.4,306.8,161.3z"/>
	</g>
</g>
<g>
</g>
<g>
</g>
<g>
</g>
<g>
</g>
<g>
</g>
<g>
</g>
<g>
</g>
<g>
</g>
<g>
</g>
<g>
</g>
<g>
</g>
<g>
</g>
<g>
</g>
<g>
</g>
<g>
</g>
</svg>
