<?xml version="1.0" encoding="iso-8859-1"?>
<!-- Generator: Adobe Illustrator 19.0.0, SVG Export Plug-In . SVG Version: 6.00 Build 0)  -->
<svg version="1.1" id="Layer_1" xmlns="http://www.w3.org/2000/svg" xmlns:xlink="http://www.w3.org/1999/xlink" x="0px" y="0px"
	 viewBox="0 0 485.1 485.1" style="enable-background:new 0 0 485.1 485.1;" xml:space="preserve">
<g>
	<g>
		<path d="M411.3,160.447h-93.6v-67.1c0-33.1-9.9-57.1-29.5-71.5c-30.8-22.6-72.6-9.9-74.4-9.3l-12.6,4v95.5
			c0,23.1-12.6,43.6-37.5,61.1c-8.1,5.7-10.1,16.9-4.4,25.1c5.7,8.1,16.9,10.1,25.1,4.4c34.6-24.3,52.9-55.6,52.9-90.6v-67.5
			c9-0.8,20.9-0.2,29.7,6.2c9.8,7.2,14.8,21.5,14.8,42.4v103.1h129.6c20.5,0,37.2,16.3,37.8,36.7l-26.9,168.9l-0.1,0.6
			c-1.2,9.4-4.7,38.1-48.5,38.1H172c-19.8,0-35.9-16.1-35.9-35.9v-167c0-30.5-24.8-55.4-55.4-55.4H55.4c-30.5,0-55.4,24.8-55.4,55.4
			v171.3c0,30.5,24.8,55.4,55.4,55.4c9.9,0,18-8.1,18-18c0-9.9-8.1-18-18-18c-10.7,0-19.4-8.7-19.4-19.4v-171.3
			c0-10.7,8.7-19.4,19.4-19.4h25.3c10.7,0,19.4,8.7,19.4,19.4v171.3c0,1.4,0.2,2.9,0.5,4.2c4.2,35.7,34.6,63.5,71.4,63.5h201.5
			c20.4,0,38.6-4.9,52.4-14.2c17.8-11.9,28.8-31,31.8-55.2l27.1-169.9c0.2-1,0.3-2.1,0.3-3.1
			C485.1,193.547,452,160.447,411.3,160.447z"/>
	</g>
</g>
<g>
</g>
<g>
</g>
<g>
</g>
<g>
</g>
<g>
</g>
<g>
</g>
<g>
</g>
<g>
</g>
<g>
</g>
<g>
</g>
<g>
</g>
<g>
</g>
<g>
</g>
<g>
</g>
<g>
</g>
</svg>
