<?xml version="1.0" encoding="iso-8859-1"?>
<!-- Generator: Adobe Illustrator 19.0.0, SVG Export Plug-In . SVG Version: 6.00 Build 0)  -->
<svg version="1.1" id="Layer_1" xmlns="http://www.w3.org/2000/svg" xmlns:xlink="http://www.w3.org/1999/xlink" x="0px" y="0px"
	 viewBox="0 0 490 490" style="enable-background:new 0 0 490 490;" xml:space="preserve">
<g>
	<g>
		<path d="M383.2,232.35l-106.5-106.6c-7-7-18.4-7-25.5,0c-7,7-7,18.4,0,25.5l75.8,75.8H130.9c-9.9,0-18,8.1-18,18c0,9.9,8,18,18,18
			h196.2l-75.8,75.8c-7,7-7,18.4,0,25.5c3.5,3.5,8.1,5.3,12.7,5.3c4.6,0,9.2-1.8,12.7-5.3l106.5-106.5
			C390.2,250.85,390.2,239.45,383.2,232.35z"/>
	</g>
</g>
<g>
	<g>
		<path d="M59.2,227.05H18c-9.9,0-18,8.1-18,18c0,9.9,8.1,18,18,18h41.2c9.9,0,18-8.1,18-18C77.2,235.15,69.1,227.05,59.2,227.05z"
			/>
	</g>
</g>
<g>
	<g>
		<path d="M472,33.85H352.9c-9.9,0-18,8.1-18,18c0,9.9,8.1,18,18,18H454v350.3H352.9c-9.9,0-18,8.1-18,18c0,9.9,8.1,18,18,18H472
			c9.9,0,18-8.1,18-18V51.85C490,41.95,481.9,33.85,472,33.85z"/>
	</g>
</g>
<g>
</g>
<g>
</g>
<g>
</g>
<g>
</g>
<g>
</g>
<g>
</g>
<g>
</g>
<g>
</g>
<g>
</g>
<g>
</g>
<g>
</g>
<g>
</g>
<g>
</g>
<g>
</g>
<g>
</g>
</svg>
