<?xml version="1.0" encoding="iso-8859-1"?>
<!-- Generator: Adobe Illustrator 19.0.0, SVG Export Plug-In . SVG Version: 6.00 Build 0)  -->
<svg version="1.1" id="Layer_1" xmlns="http://www.w3.org/2000/svg" xmlns:xlink="http://www.w3.org/1999/xlink" x="0px" y="0px"
	 viewBox="0 0 489.95 489.95" style="enable-background:new 0 0 489.95 489.95;" xml:space="preserve">
<g>
	<g>
		<path d="M257.65,227.025H61.45l75.8-75.8c7-7,7-18.4,0-25.5c-7-7-18.4-7-25.5,0l-106.5,106.6c-7,7-7,18.4,0,25.5l106.5,106.5
			c3.5,3.5,8.1,5.3,12.7,5.3s9.2-1.8,12.7-5.3c7-7,7-18.4,0-25.5l-75.7-75.8h196.2c9.9,0,18-8.1,18-18
			C275.65,235.125,267.55,227.025,257.65,227.025z"/>
	</g>
</g>
<g>
	<g>
		<path d="M370.45,227.025h-41.2c-9.9,0-18,8.1-18,18c0,9.9,8.1,18,18,18h41.2c10,0,18-8.1,18-18
			C388.45,235.125,380.35,227.025,370.45,227.025z"/>
	</g>
</g>
<g>
	<g>
		<path d="M471.95,33.825h-119.1c-9.9,0-18,8.1-18,18c0,9.9,8.1,18,18,18h101.1v350.3h-101.1c-9.9,0-18,8.1-18,18
			c0,9.9,8.1,18,18,18h119.1c9.9,0,18-8.1,18-18v-386.3C489.95,41.925,481.85,33.825,471.95,33.825z"/>
	</g>
</g>
<g>
</g>
<g>
</g>
<g>
</g>
<g>
</g>
<g>
</g>
<g>
</g>
<g>
</g>
<g>
</g>
<g>
</g>
<g>
</g>
<g>
</g>
<g>
</g>
<g>
</g>
<g>
</g>
<g>
</g>
</svg>
