<?xml version="1.0" encoding="iso-8859-1"?>
<!-- Generator: Adobe Illustrator 19.0.0, SVG Export Plug-In . SVG Version: 6.00 Build 0)  -->
<svg version="1.1" id="Layer_1" xmlns="http://www.w3.org/2000/svg" xmlns:xlink="http://www.w3.org/1999/xlink" x="0px" y="0px"
	 viewBox="0 0 488 488" style="enable-background:new 0 0 488 488;" xml:space="preserve">
<g>
	<g>
		<path d="M59,226.05H18c-9.9,0-18,8.1-18,18c0,9.9,8.1,18,18,18h41c9.9,0,18-8.1,18-18C77,234.15,69,226.05,59,226.05z"/>
	</g>
</g>
<g>
	<g>
		<path d="M381.7,231.35l-106-106c-7-7-18.4-7-25.5,0c-7.1,7-7,18.4,0,25.5l75.3,75.3H130.4c-9.9,0-18,8.1-18,18c0,9.9,8.1,18,18,18
			h195.1l-75.3,75.3c-7,7-7,18.4,0,25.5c3.5,3.5,8.1,5.3,12.7,5.3c4.6,0,9.2-1.8,12.7-5.3l106-106
			C388.7,249.75,388.7,238.35,381.7,231.35z"/>
	</g>
</g>
<g>
	<g>
		<path d="M470,33.75H351.4c-9.9,0-18,8.1-18,18c0,9.9,8.1,18,18,18H452v348.5H351.4c-9.9,0-18,8.1-18,18c0,9.9,8.1,18,18,18H470
			c9.9,0,18-8.1,18-18V51.75C488,41.85,479.9,33.75,470,33.75z"/>
	</g>
</g>
<g>
</g>
<g>
</g>
<g>
</g>
<g>
</g>
<g>
</g>
<g>
</g>
<g>
</g>
<g>
</g>
<g>
</g>
<g>
</g>
<g>
</g>
<g>
</g>
<g>
</g>
<g>
</g>
<g>
</g>
</svg>
