<?xml version="1.0" encoding="iso-8859-1"?>
<!-- Generator: Adobe Illustrator 19.0.0, SVG Export Plug-In . SVG Version: 6.00 Build 0)  -->
<svg version="1.1" id="Layer_1" xmlns="http://www.w3.org/2000/svg" xmlns:xlink="http://www.w3.org/1999/xlink" x="0px" y="0px"
	 viewBox="0 0 490.3 490.3" style="enable-background:new 0 0 490.3 490.3;" xml:space="preserve">
<g>
	<g>
		<path d="M368.8,55.2h-318C22.8,55.2,0,78,0,106v220.1c0,30.2,24.5,54.7,54.6,54.7h211.2c9.9,0,18-8.1,18-18c0-9.9-8.1-18-18-18
			H54.6c-10.3,0-18.6-8.4-18.6-18.6V106c0-8.2,6.6-14.8,14.8-14.8h299.8L208.8,214.3l-106.2-92.2c-7.5-6.5-18.9-5.7-25.4,1.8
			s-5.7,18.9,1.8,25.4l118,102.5c3.4,2.9,7.6,4.4,11.8,4.4s8.4-1.5,11.8-4.4l163-141.5v65.1c0,9.9,8.1,18,18,18c9.9,0,18-8.1,18-18
			V106C419.6,78,396.8,55.2,368.8,55.2z"/>
	</g>
</g>
<g>
	<g>
		<path d="M472.3,399.1H349v-55.5h105.2v14.1c0,9.9,8.1,18,18,18c9.9,0,18-8.1,18-18v-19.4c0-14.4-9.8-26.5-23.1-29.9v-19.7
			c0-36.1-29.4-65.5-65.5-65.5c-26.4,0-50.1,15.7-60.3,40c-3.9,9.2,0.4,19.7,9.6,23.6c9.2,3.9,19.7-0.4,23.6-9.6
			c4.6-10.9,15.3-18,27.2-18c16.3,0,29.5,13.2,29.5,29.5v18.8h-87.4c-16.9,0-30.7,13.8-30.7,30.7v66.2c0,16.9,13.8,30.7,30.7,30.7
			h128.5c9.9,0,18-8.1,18-18C490.3,407.2,482.2,399.1,472.3,399.1z"/>
	</g>
</g>
<g>
</g>
<g>
</g>
<g>
</g>
<g>
</g>
<g>
</g>
<g>
</g>
<g>
</g>
<g>
</g>
<g>
</g>
<g>
</g>
<g>
</g>
<g>
</g>
<g>
</g>
<g>
</g>
<g>
</g>
</svg>
