<?xml version="1.0" encoding="iso-8859-1"?>
<!-- Generator: Adobe Illustrator 19.0.0, SVG Export Plug-In . SVG Version: 6.00 Build 0)  -->
<svg version="1.1" id="Layer_1" xmlns="http://www.w3.org/2000/svg" xmlns:xlink="http://www.w3.org/1999/xlink" x="0px" y="0px"
	 viewBox="0 0 490 490" style="enable-background:new 0 0 490 490;" xml:space="preserve">
<g>
	<g>
		<path d="M184.4,311.2C142,288.7,115.7,245,115.7,197c0-1,0-2,0-3c0.3-9.9-7.6-18.1-17.6-18.3c-9.9-0.2-18.2,7.7-18.4,17.6
			c0,1.2,0,2.5,0,3.7c0,61.3,33.6,117.2,87.8,146c2.7,1.4,5.6,2.1,8.4,2.1c6.4,0,12.7-3.5,15.9-9.6
			C196.5,326.7,193.1,315.8,184.4,311.2z"/>
	</g>
</g>
<g>
	<g>
		<path d="M392,176.8c-9.9,0.1-17.9,8.3-17.7,18.3c0,0.7,0,1.4,0,2.1c0,71.1-58,129.1-129.3,129.1c-7.1,0-13.2,4.1-16.1,10
			c-1.4,2.6-2.2,5.6-2.2,8.8l0.6,108.9H171c-9.9,0-18,8.1-18,18c0,9.9,8.1,18,18,18h148c9.9,0,18-8.1,18-18c0-9.9-8.1-18-18-18
			h-55.7l-0.5-92.6c82.8-8.9,147.5-79.2,147.5-164.3c0-0.9,0-1.7,0-2.6C410.2,184.6,402,176.6,392,176.8z"/>
	</g>
</g>
<g>
	<g>
		<path d="M246.1,0h-1.3C197,0,158,39,158,86.9v100.3c0,47.9,39,86.9,86.9,86.9h1.3c47.9,0,86.9-39,86.9-86.9V86.9
			C333,39,294,0,246.1,0z M297,187.1c0,28.1-22.8,50.9-50.9,50.9h-1.3c-28.1,0-50.9-22.8-50.9-50.9V86.9c0-28.1,22.8-50.9,50.9-50.9
			h1.3c28.1,0,50.9,22.8,50.9,50.9V187.1z"/>
	</g>
</g>
<g>
</g>
<g>
</g>
<g>
</g>
<g>
</g>
<g>
</g>
<g>
</g>
<g>
</g>
<g>
</g>
<g>
</g>
<g>
</g>
<g>
</g>
<g>
</g>
<g>
</g>
<g>
</g>
<g>
</g>
</svg>
