<?xml version="1.0" encoding="iso-8859-1"?>
<!-- Generator: Adobe Illustrator 19.0.0, SVG Export Plug-In . SVG Version: 6.00 Build 0)  -->
<svg version="1.1" id="Layer_1" xmlns="http://www.w3.org/2000/svg" xmlns:xlink="http://www.w3.org/1999/xlink" x="0px" y="0px"
	 viewBox="0 0 492 492" style="enable-background:new 0 0 492 492;" xml:space="preserve">
<g>
	<g>
		<path d="M207.7,277.875c-7-7.1-18.4-7-25.4,0l-23.6,23.6c-7,7-7,18.4,0,25.5c3.5,3.5,8.1,5.3,12.7,5.3c4.6,0,9.2-1.8,12.7-5.3
			l23.6-23.6C214.7,296.375,214.7,284.975,207.7,277.875z"/>
	</g>
</g>
<g>
	<g>
		<path d="M475.2,198.675L288,11.575c-7-7-18.4-7-25.5,0c-7,7-7,18.4,0,25.5l187.2,187.2c8.4,8.4,8.4,22,0,30.4
			c-8.4,8.4-22,8.4-30.4,0l-66.2-66.2c-10.9-10.9-25.3-16.8-40.7-16.8c-15.4,0-29.8,6-40.7,16.8l-25.7,25.7
			c-44.1-31.9-106.2-28-145.9,11.7l-67.1,67.1c-44,44-44,115.6,0,159.7c22,22,50.9,33,79.8,33c28.9,0,57.8-11,79.8-33l67.1-67.1
			c7-7,7-18.4,0-25.5c-7-7-18.4-7-25.5,0l-67.1,67.1c-30,30-78.8,30-108.7,0c-30-30-30-78.8,0-108.7l67.1-67.1
			c30-30,78.8-30,108.7,0c7,7,18.4,7,25.5,0l37.5-37.5c8.4-8.4,22-8.4,30.4,0l66.2,66.2c10.9,10.9,25.3,16.8,40.7,16.8
			s29.8-6,40.7-16.8c10.9-10.9,16.8-25.3,16.8-40.7C492,223.975,486,209.575,475.2,198.675z"/>
	</g>
</g>
<g>
</g>
<g>
</g>
<g>
</g>
<g>
</g>
<g>
</g>
<g>
</g>
<g>
</g>
<g>
</g>
<g>
</g>
<g>
</g>
<g>
</g>
<g>
</g>
<g>
</g>
<g>
</g>
<g>
</g>
</svg>
