<?xml version="1.0" encoding="iso-8859-1"?>
<!-- Generator: Adobe Illustrator 19.0.0, SVG Export Plug-In . SVG Version: 6.00 Build 0)  -->
<svg version="1.1" id="Layer_1" xmlns="http://www.w3.org/2000/svg" xmlns:xlink="http://www.w3.org/1999/xlink" x="0px" y="0px"
	 viewBox="0 0 489.928 489.928" style="enable-background:new 0 0 489.928 489.928;" xml:space="preserve">
<g>
	<g>
		<path d="M424.528,78.072c-41.9-45.2-98.7-72.7-160-77.6c-9.6-0.8-19.1,2.6-26.2,9.1c-7.2,6.7-11.3,16.1-11.3,25.9v62.8
			c-48.1,8.5-84.7,50.6-84.7,101.1v90.5c0,56.6,46.1,102.7,102.7,102.7c56.6,0,102.7-46.1,102.7-102.7v-90.5c0-9.9-8.1-18-18-18
			c-9.9,0-18,8.1-18,18v90.5c0,36.8-29.9,66.7-66.7,66.7c-36.8,0-66.7-29.9-66.7-66.7v-90.5c0-36.8,29.9-66.7,66.7-66.7
			c9.9,0,18-8.1,18-18c0-0.6,0-1.3-0.1-1.9c0.1-0.6,0.1-1.2,0.1-1.9v-74.3c107.2,9.1,190.9,100.3,190.9,208.1
			c0,70.3-35.1,135.5-93.8,174.4c-34.6,22.9-74.1,34.5-114.9,34.5c-30.2,0-61.2-6.4-91.4-19.2c-43.4-18.5-77.7-51.9-96.6-94.1
			c-40.4-90.3-21.3-189,48.6-251.4c7.4-6.6,8.1-18,1.4-25.4c-6.6-7.4-18-8.1-25.4-1.4c-38.5,34.4-64.8,79-76,129.1
			c-11.9,53.4-5.5,110.1,18.5,163.8c22.6,50.5,63.5,90.5,115.3,112.5c34.8,14.8,70.5,22.1,105.6,22.1c47.7,0,94-13.6,134.7-40.5
			c68.9-45.5,110-122,110-204.4C489.928,182.672,466.728,123.472,424.528,78.072z"/>
	</g>
</g>
<g>
	<g>
		<path d="M244.928,172.572c-9.9,0-18,8.1-18,18v32.5c0,9.9,8.1,18,18,18c9.9,0,18-8.1,18-18v-32.5
			C262.928,180.672,254.828,172.572,244.928,172.572z"/>
	</g>
</g>
<g>
</g>
<g>
</g>
<g>
</g>
<g>
</g>
<g>
</g>
<g>
</g>
<g>
</g>
<g>
</g>
<g>
</g>
<g>
</g>
<g>
</g>
<g>
</g>
<g>
</g>
<g>
</g>
<g>
</g>
</svg>
