<?xml version="1.0" encoding="iso-8859-1"?>
<!-- Generator: Adobe Illustrator 19.0.0, SVG Export Plug-In . SVG Version: 6.00 Build 0)  -->
<svg version="1.1" id="Layer_1" xmlns="http://www.w3.org/2000/svg" xmlns:xlink="http://www.w3.org/1999/xlink" x="0px" y="0px"
	 viewBox="0 0 488 488" style="enable-background:new 0 0 488 488;" xml:space="preserve">
<g>
	<g>
		<path d="M386.9,228.4l-122.8-70.9c-8.6-5-19.6-2-24.6,6.6c-5,8.6-2,19.6,6.6,24.6l95.8,55.3l-146.3,84.5V128.4c0-9.9-8.1-18-18-18
			c-9.9,0-18,8.1-18,18v231.3c0,6.4,3.4,12.4,9,15.6c2.8,1.6,5.9,2.4,9,2.4c3.1,0,6.2-0.8,9-2.4l200.3-115.6c5.6-3.2,9-9.2,9-15.6
			C395.9,237.7,392.5,231.6,386.9,228.4z"/>
	</g>
</g>
<g>
	<g>
		<path d="M416.5,71.5C370.4,25.4,309.2,0,244,0S117.6,25.4,71.5,71.5C25.4,117.6,0,178.8,0,244s25.4,126.4,71.5,172.5
			C117.6,462.6,178.8,488,244,488s126.4-25.4,172.5-71.5C462.6,370.4,488,309.2,488,244S462.6,117.6,416.5,71.5z M244,452
			c-114.7,0-208-93.3-208-208S129.3,36,244,36s208,93.3,208,208S358.7,452,244,452z"/>
	</g>
</g>
<g>
</g>
<g>
</g>
<g>
</g>
<g>
</g>
<g>
</g>
<g>
</g>
<g>
</g>
<g>
</g>
<g>
</g>
<g>
</g>
<g>
</g>
<g>
</g>
<g>
</g>
<g>
</g>
<g>
</g>
</svg>
