<?xml version="1.0" encoding="iso-8859-1"?>
<!-- Generator: Adobe Illustrator 19.0.0, SVG Export Plug-In . SVG Version: 6.00 Build 0)  -->
<svg version="1.1" id="Layer_1" xmlns="http://www.w3.org/2000/svg" xmlns:xlink="http://www.w3.org/1999/xlink" x="0px" y="0px"
	 viewBox="0 0 490.301 490.301" style="enable-background:new 0 0 490.301 490.301;" xml:space="preserve">
<g>
	<g>
		<path d="M392.4,158.79L222.7,37.39c-5.5-3.9-12.7-4.5-18.7-1.4c-6,3.1-9.8,9.3-9.8,16v51.9c-77.4,7.5-132.5,38.5-164,92.3
			c-27,46.4-30.2,99.8-30.2,136c0,8.1,5.5,15.3,13.4,17.4c1.5,0.4,3.1,0.6,4.6,0.6c6.4,0,12.4-3.4,15.7-9.1
			c39.1-68.9,76.4-85,107.8-91.6c9.7-2.1,15.9-11.6,13.9-21.3c-2.1-9.7-11.6-15.9-21.3-13.9c-36,7.6-65.8,24.7-92.3,53.5
			c13-63,53.5-123.1,171.4-129c9.6-0.5,17.1-8.4,17.1-18v-33.8l120.8,86.4l-120.9,86.8v-33.7c0-9.9-8.1-18-18-18
			c-9.9,0-18,8.1-18,18v68.8c0,6.8,3.8,12.9,9.8,16c6,3.1,13.2,2.5,18.7-1.4l169.7-121.9c4.7-3.4,7.5-8.8,7.5-14.6
			S397.1,162.19,392.4,158.79z"/>
	</g>
</g>
<g>
	<g>
		<path d="M472.4,157.89h-25.2c-9.9,0-18,8.1-18,18c0,9.9,8.1,18,18,18h7.2v226.5H165v-121c0-9.9-8.1-18-18-18c-9.9,0-18,8.1-18,18
			v138.9c0,9.9,8.1,18,18,18h325.3c9.9,0,18-8.1,18-18v-262.4C490.4,165.89,482.3,157.89,472.4,157.89z"/>
	</g>
</g>
<g>
</g>
<g>
</g>
<g>
</g>
<g>
</g>
<g>
</g>
<g>
</g>
<g>
</g>
<g>
</g>
<g>
</g>
<g>
</g>
<g>
</g>
<g>
</g>
<g>
</g>
<g>
</g>
<g>
</g>
</svg>
