<?xml version="1.0" encoding="iso-8859-1"?>
<!-- Generator: Adobe Illustrator 19.0.0, SVG Export Plug-In . SVG Version: 6.00 Build 0)  -->
<svg version="1.1" id="Layer_1" xmlns="http://www.w3.org/2000/svg" xmlns:xlink="http://www.w3.org/1999/xlink" x="0px" y="0px"
	 viewBox="0 0 487.8 487.8" style="enable-background:new 0 0 487.8 487.8;" xml:space="preserve">
<g>
	<g>
		<path d="M481.5,245.674l-180-154c-5.3-4.6-12.8-5.6-19.2-2.7c-6.4,2.9-10.5,9.3-10.5,16.3v92.2c0,9.9,8.1,18,18,18
			c9.9,0,18-8.1,18-18v-53.2l134.3,114.9l-134.3,114.7v-53.2c0-9.9-8-17.9-17.8-18c-88.4-0.9-156.6-30.6-202.5-88.4
			c-17.6-22.1-29.9-46.3-38.1-69.3c15.4,14.5,32.6,26.7,51.6,36.5c32.4,16.8,70.2,27.1,115.4,31.4c9.9,0.9,18.7-6.3,19.6-16.2
			c0.9-9.9-6.3-18.7-16.2-19.6c-90.2-8.6-149.3-43.8-186-110.8c-4-7.2-12.3-10.8-20.3-8.8S0,66.674,0,74.874
			c0,42.2,15.6,106.9,59.3,161.8c24.2,30.4,54.3,54.5,89.6,71.6c36,17.4,77.3,27.4,122.9,29.8v74.8c0,7,4.1,13.4,10.5,16.3
			c2.4,1.1,5,1.7,7.5,1.7c4.2,0,8.4-1.5,11.7-4.3l180-153.5c4-3.4,6.3-8.4,6.3-13.7C487.8,254.174,485.5,249.174,481.5,245.674z"/>
	</g>
</g>
<g>
</g>
<g>
</g>
<g>
</g>
<g>
</g>
<g>
</g>
<g>
</g>
<g>
</g>
<g>
</g>
<g>
</g>
<g>
</g>
<g>
</g>
<g>
</g>
<g>
</g>
<g>
</g>
<g>
</g>
</svg>
