<?xml version="1.0" encoding="iso-8859-1"?>
<!-- Generator: Adobe Illustrator 19.0.0, SVG Export Plug-In . SVG Version: 6.00 Build 0)  -->
<svg version="1.1" id="Layer_1" xmlns="http://www.w3.org/2000/svg" xmlns:xlink="http://www.w3.org/1999/xlink" x="0px" y="0px"
	 viewBox="0 0 488 488" style="enable-background:new 0 0 488 488;" xml:space="preserve">
<g>
	<g>
		<path d="M398.85,216.6h-14.7v-76.5c0-77.2-62.8-140.1-140.1-140.1s-140.1,62.9-140.1,140.1v27.6c0,9.9,8.1,18,18,18
			c9.9,0,18-8.1,18-18v-27.6c0-57.4,46.7-104.1,104.1-104.1c57.4,0,104.1,46.7,104.1,104.1v76.5h-259c-24.6,0-44.7,20-44.7,44.7v182
			c0,24.6,20,44.7,44.7,44.7h270.5c9.9,0,18-8.1,18-18c0-9.9-8.1-18-18-18H89.15c-4.8,0-8.7-3.9-8.7-8.7v-182c0-4.8,3.9-8.7,8.7-8.7
			h309.7c4.8,0,8.7,3.9,8.7,8.7v182c0,9.9,8.1,18,18,18c9.9,0,18-8.1,18-18v-182C443.55,236.7,423.55,216.6,398.85,216.6z"/>
	</g>
</g>
<g>
	<g>
		<path d="M287.15,334.3c-9.9,0-18,8.1-18,18c0,13.8-11.3,25.1-25.1,25.1c-13.8,0-25.1-11.3-25.1-25.1c0-13.8,11.3-25.1,25.1-25.1
			c9.9,0,18-8.1,18-18c0-9.9-8.1-18-18-18c-33.7,0-61.1,27.4-61.1,61.1s27.4,61.1,61.1,61.1s61.1-27.4,61.1-61.1
			C305.15,342.4,297.05,334.3,287.15,334.3z"/>
	</g>
</g>
<g>
</g>
<g>
</g>
<g>
</g>
<g>
</g>
<g>
</g>
<g>
</g>
<g>
</g>
<g>
</g>
<g>
</g>
<g>
</g>
<g>
</g>
<g>
</g>
<g>
</g>
<g>
</g>
<g>
</g>
</svg>
