<?xml version="1.0" encoding="iso-8859-1"?>
<!-- Generator: Adobe Illustrator 19.0.0, SVG Export Plug-In . SVG Version: 6.00 Build 0)  -->
<svg version="1.1" id="Layer_1" xmlns="http://www.w3.org/2000/svg" xmlns:xlink="http://www.w3.org/1999/xlink" x="0px" y="0px"
	 viewBox="0 0 488.9 488.9" style="enable-background:new 0 0 488.9 488.9;" xml:space="preserve">
<g>
	<g>
		<path d="M399.65,217.2h-14.8v-76.7c0-77.5-63-140.5-140.4-140.5s-140.4,63-140.4,140.4v76.7h-14.8c-24.7,0-44.7,20.1-44.7,44.7
			v182.4c0,24.7,20.1,44.7,44.7,44.7h271c9.9,0,18-8.1,18-18c0-9.9-8.1-18-18-18h-271c-4.8,0-8.7-3.9-8.7-8.7V261.9
			c0-4.8,3.9-8.7,8.7-8.7h310.4c4.8,0,8.7,3.9,8.7,8.7v182.4c0,9.9,8.1,18,18,18c9.9,0,18-8.1,18-18V261.9
			C444.35,237.2,424.25,217.2,399.65,217.2z M348.85,217.1h-208.8v-76.7c0-57.6,46.8-104.4,104.4-104.4s104.4,46.8,104.4,104.4
			V217.1z"/>
	</g>
</g>
<g>
	<g>
		<path d="M287.65,335.1c-9.9,0-18,8.1-18,18c0,13.9-11.3,25.2-25.2,25.2s-25.2-11.3-25.2-25.2s11.3-25.2,25.2-25.2
			c9.9,0,18-8.1,18-18c0-9.9-8.1-18-18-18c-33.7,0-61.2,27.5-61.2,61.2s27.5,61.2,61.2,61.2s61.2-27.5,61.2-61.2
			C305.65,343.2,297.55,335.1,287.65,335.1z"/>
	</g>
</g>
<g>
</g>
<g>
</g>
<g>
</g>
<g>
</g>
<g>
</g>
<g>
</g>
<g>
</g>
<g>
</g>
<g>
</g>
<g>
</g>
<g>
</g>
<g>
</g>
<g>
</g>
<g>
</g>
<g>
</g>
</svg>
