<?xml version="1.0" encoding="iso-8859-1"?>
<!-- Generator: Adobe Illustrator 19.0.0, SVG Export Plug-In . SVG Version: 6.00 Build 0)  -->
<svg version="1.1" id="Layer_1" xmlns="http://www.w3.org/2000/svg" xmlns:xlink="http://www.w3.org/1999/xlink" x="0px" y="0px"
	 viewBox="0 0 487.943 487.943" style="enable-background:new 0 0 487.943 487.943;" xml:space="preserve">
<g>
	<g>
		<path d="M481.349,36.286c-5.2-4.3-12.4-5.2-18.6-2.5l-445.3,194.2c-11.3,4.9-18.1,16.1-17.4,28.4c0.7,12.3,8.8,22.6,20.6,26.1
			l109.8,33.2c9.5,2.9,19.6-2.5,22.4-12s-2.5-19.6-12-22.4l-91.9-27.8l347.9-151.7l-205.2,204.8c-0.1,0.1-0.2,0.3-0.4,0.4
			c-0.3,0.3-0.5,0.5-0.8,0.8c-0.2,0.2-0.4,0.5-0.5,0.7c-0.1,0.2-0.3,0.4-0.4,0.6c-0.1,0.1-0.1,0.2-0.1,0.2c-0.2,0.2-0.3,0.5-0.5,0.7
			c-0.2,0.3-0.3,0.6-0.5,0.9c-0.1,0.2-0.2,0.5-0.3,0.7c-0.2,0.3-0.3,0.7-0.5,1c-0.1,0.2-0.2,0.4-0.2,0.6c-0.1,0.4-0.3,0.7-0.4,1.1
			c-0.1,0.2-0.1,0.4-0.2,0.6c-0.1,0.4-0.2,0.8-0.3,1.2c0,0.2-0.1,0.4-0.1,0.6c-0.1,0.4-0.1,0.8-0.1,1.2c0,0.2,0,0.5,0,0.7
			c0,0.4,0,0.8,0,1.1c0,0.2,0,0.3,0,0.5l5.4,102.5c0.6,11.2,7.8,20.9,18.4,24.7c3.1,1.1,6.2,1.6,9.3,1.6c7.7,0,15.2-3.2,20.6-9.2
			l41.1-45.4l81,56.1c5,3.4,10.7,5.2,16.6,5.2c3.6,0,7.3-0.7,10.8-2.1c9.1-3.6,15.7-11.5,17.7-21l80.3-378.6
			C488.949,47.386,486.549,40.586,481.349,36.286z M226.749,401.086l-2.4-46.1l27.1,18.8L226.749,401.086z M374.249,414.986
			l-141.9-98.3l206.3-205.9L374.249,414.986z"/>
	</g>
</g>
<g>
</g>
<g>
</g>
<g>
</g>
<g>
</g>
<g>
</g>
<g>
</g>
<g>
</g>
<g>
</g>
<g>
</g>
<g>
</g>
<g>
</g>
<g>
</g>
<g>
</g>
<g>
</g>
<g>
</g>
</svg>
