<?xml version="1.0" encoding="iso-8859-1"?>
<!-- Generator: Adobe Illustrator 19.0.0, SVG Export Plug-In . SVG Version: 6.00 Build 0)  -->
<svg version="1.1" id="Layer_1" xmlns="http://www.w3.org/2000/svg" xmlns:xlink="http://www.w3.org/1999/xlink" x="0px" y="0px"
	 viewBox="0 0 485.808 485.808" style="enable-background:new 0 0 485.808 485.808;" xml:space="preserve">
<g>
	<g>
		<path d="M472.223,13.597c-13.4-13.4-32.5-17.2-50-10l-393.7,162c-17.9,7.4-29.1,24.6-28.5,43.9c0.4,19.3,12.6,35.8,30.9,42.1
			l134.6,46c6,2.1,12.6,0.8,17.5-3.3l170.1-144.3c7.6-6.4,8.5-17.8,2.1-25.4c-6.4-7.6-17.8-8.5-25.4-2.1l-162.3,137.7l-124.9-42.7
			c-5.9-2-6.7-7.1-6.8-9.1c-0.1-2.1,0.4-7.2,6.2-9.5l393.7-162.1c5.6-2.3,9.5,0.8,10.9,2.2c1.4,1.4,4.5,5.3,2.2,10.9l-162,393.7
			c-2.4,5.8-7.5,6.2-9.5,6.2c-2.1-0.1-7.1-0.8-9.1-6.8l-36.7-107.5c-3.2-9.4-13.4-14.4-22.9-11.2c-9.4,3.2-14.4,13.4-11.2,22.9
			l36.7,107.5c6.3,18.3,22.8,30.5,42.1,31.1c0.5,0,1,0,1.5,0c18.7,0,35.3-11.1,42.5-28.5l162-393.7
			C489.423,46.097,485.623,26.997,472.223,13.597z"/>
	</g>
</g>
<g>
</g>
<g>
</g>
<g>
</g>
<g>
</g>
<g>
</g>
<g>
</g>
<g>
</g>
<g>
</g>
<g>
</g>
<g>
</g>
<g>
</g>
<g>
</g>
<g>
</g>
<g>
</g>
<g>
</g>
</svg>
