<?xml version="1.0" encoding="iso-8859-1"?>
<!-- Generator: Adobe Illustrator 19.0.0, SVG Export Plug-In . SVG Version: 6.00 Build 0)  -->
<svg version="1.1" id="Layer_1" xmlns="http://www.w3.org/2000/svg" xmlns:xlink="http://www.w3.org/1999/xlink" x="0px" y="0px"
	 viewBox="0 0 487.6 487.6" style="enable-background:new 0 0 487.6 487.6;" xml:space="preserve">
<g>
	<g>
		<path d="M306.2,107.1c9.9,0,18-8.1,18-18V78.8c0-43.5-35.4-78.8-78.8-78.8h-3.2c-43.5,0-78.8,35.4-78.8,78.8v69c0,0.1,0,0.1,0,0.2
			c0,0.1,0,0.1,0,0.2v243.7h0c0,4.1,1.4,8.1,4,11.3l62.4,77.7c3.4,4.3,8.6,6.7,14,6.7c5.4,0,10.6-2.5,14-6.7l62.4-77.7
			c2.6-3.2,4-7.2,4-11.3V148.3c0-9.9-8.1-18-18-18h-62.4c-9.9,0-18,8.1-18,18c0,9.9,8.1,18,18,18h44.4v219.3l-44.4,55.3l-44.4-55.3
			V148.3c0-0.1,0-0.1,0-0.2s0-0.1,0-0.2V78.8c0-23.6,19.2-42.8,42.8-42.8h3.2c23.6,0,42.8,19.2,42.8,42.8v10.3
			C288.2,99,296.3,107.1,306.2,107.1z"/>
	</g>
</g>
<g>
</g>
<g>
</g>
<g>
</g>
<g>
</g>
<g>
</g>
<g>
</g>
<g>
</g>
<g>
</g>
<g>
</g>
<g>
</g>
<g>
</g>
<g>
</g>
<g>
</g>
<g>
</g>
<g>
</g>
</svg>
