<?xml version="1.0" encoding="iso-8859-1"?>
<!-- Generator: Adobe Illustrator 19.0.0, SVG Export Plug-In . SVG Version: 6.00 Build 0)  -->
<svg version="1.1" id="Layer_1" xmlns="http://www.w3.org/2000/svg" xmlns:xlink="http://www.w3.org/1999/xlink" x="0px" y="0px"
	 viewBox="0 0 486.209 486.209" style="enable-background:new 0 0 486.209 486.209;" xml:space="preserve">
<g>
	<g>
		<path d="M398.909,87.204c-7-7-18.4-7-25.4,0l-275.4,275.4c-7,7-7,18.4,0,25.5c3.5,3.5,8.1,5.3,12.7,5.3c4.6,0,9.2-1.8,12.7-5.3
			l275.4-275.4C405.909,105.704,405.909,94.304,398.909,87.204z"/>
	</g>
</g>
<g>
	<g>
		<path d="M457.209,32.204l-3.1-3.2c-18.7-18.7-43.5-29-69.9-29c-26.4,0-51.3,10.3-69.9,29l-294.7,294.6c-2.9,2.9-4.7,6.7-5.2,10.8
			l-14.3,131.8c-0.6,5.4,1.3,10.8,5.2,14.7c3.4,3.4,8,5.3,12.7,5.3c0.6,0,1.3,0,1.9-0.1l131.8-14.3c4.1-0.4,7.9-2.3,10.8-5.2
			l229.6-229.6c7-7,7-18.4,0-25.5c-7-7-18.4-7-25.5,0l-225,225.1l-103.3,11.3l11.2-103.3l290.2-290.1c11.9-11.9,27.7-18.4,44.5-18.4
			s32.6,6.5,44.5,18.4l3,3c11.9,11.9,18.4,27.7,18.4,44.5c0,16.8-6.5,32.6-18.4,44.5l-9.7,9.7c-7,7-7,18.4,0,25.5c7,7,18.4,7,25.5,0
			l9.7-9.7c18.7-18.7,29-43.5,29-69.9S475.909,50.804,457.209,32.204z"/>
	</g>
</g>
<g>
</g>
<g>
</g>
<g>
</g>
<g>
</g>
<g>
</g>
<g>
</g>
<g>
</g>
<g>
</g>
<g>
</g>
<g>
</g>
<g>
</g>
<g>
</g>
<g>
</g>
<g>
</g>
<g>
</g>
</svg>
