<?xml version="1.0" encoding="iso-8859-1"?>
<!-- Generator: Adobe Illustrator 19.0.0, SVG Export Plug-In . SVG Version: 6.00 Build 0)  -->
<svg version="1.1" id="Layer_1" xmlns="http://www.w3.org/2000/svg" xmlns:xlink="http://www.w3.org/1999/xlink" x="0px" y="0px"
	 viewBox="0 0 486.944 486.944" style="enable-background:new 0 0 486.944 486.944;" xml:space="preserve">
<g>
	<g>
		<path d="M396.378,365.656c-5.5-5.9-11.2-11.5-16.8-16.9c-2.8-2.7-5.6-5.5-8.4-8.3l-24.4-24.4c-10.4-10.4-22.6-15.9-35.1-15.9
			c-12.6,0-24.7,5.5-35.1,15.9c-2.5,2.5-5.1,5-7.6,7.5c-5.8,5.7-11.8,11.6-17.6,17.8c-10.3-5-20.8-11.9-33-21.5
			c-15.9-13-29.5-26-41.6-39.8c-6.5-7.5-17.9-8.3-25.4-1.7c-7.5,6.5-8.3,17.9-1.7,25.4c13.4,15.4,28.5,29.9,46.1,44.2
			c0.1,0,0.1,0.1,0.2,0.1c17.7,14,32.6,23.2,48.5,29.7c0.4,0.2,0.8,0.3,1.2,0.4c3.8,1.3,15.2,5.1,26.4-6c0.2-0.2,0.5-0.5,0.7-0.7
			c6.8-7.7,14-14.7,21.6-22.2c2.6-2.5,5.2-5.1,7.8-7.7c2.4-2.4,6.1-5.4,9.7-5.4c3.6,0,7.2,2.9,9.7,5.4l24.4,24.4
			c2.9,2.9,5.9,5.8,8.7,8.6c5.6,5.4,10.8,10.6,15.8,15.9c0.1,0.2,0.3,0.3,0.4,0.4c3.8,3.8,7.9,9.8-0.2,18.4l-30.5,30.5
			c-6.5,6.5-13.7,9.9-22.8,10.7c-15.5,1.3-32-1.7-53.5-9.7c-35.8-13.2-69.2-33.3-105.3-63.3c-43.6-36.5-77.9-80.3-102.1-130.2
			c-8.6-18.1-18.7-42.1-20.4-67.6c-0.9-14.2,2.9-24.4,12.1-33c6.7-5.6,12.6-11.7,18.2-17.5c3.6-3.8,7-7.3,10.6-10.6l0.1-0.1
			c7.1-6.8,13-6.9,19.6-0.3l49.3,49.3c0.1,0.1,0.2,0.2,0.3,0.3c2.1,2,4.6,5.1,4.7,8.5c0,3.6-2.7,7.1-4.9,9.4l-30.6,30.6
			c-7,7-7,18.4,0,25.5c7,7,18.4,7,25.5,0l30.6-30.6c10.3-10.3,15.6-22.4,15.5-35.2c-0.1-12.5-5.5-24.3-15.6-34l-49.2-49.2
			c-20.6-20.6-48.6-20.7-69.9-0.3c-4.2,3.9-8,7.9-11.8,11.8c-5.3,5.5-10.3,10.7-15.7,15.2c-0.2,0.2-0.4,0.4-0.7,0.6
			c-17.5,15.9-25.5,36.7-24,61.9c2.1,31.6,13.8,59.8,23.8,80.8v0.1c26.5,54.6,63.9,102.4,111.4,142.2
			c39.3,32.6,76.1,54.7,115.8,69.4c14.6,5.4,35.9,12.2,59.5,12.2c3.1,0,6.3-0.1,9.5-0.4h0.1c17.5-1.5,32.7-8.6,45.2-21.1l30.6-30.6
			c0.1-0.1,0.2-0.2,0.3-0.3C416.078,413.756,415.978,385.556,396.378,365.656z"/>
	</g>
</g>
<g>
	<g>
		<path d="M389.278,243.356c-6.2-36.4-23.4-69.6-49.7-96c-26.1-26.2-59.3-43.4-95.8-49.6c-9.8-1.7-19.1,4.9-20.8,14.7
			s4.9,19.1,14.7,20.8c29,4.9,55.5,18.7,76.5,39.7s34.8,47.5,39.7,76.5c1.5,8.8,9.1,15,17.7,15c1,0,2-0.1,3-0.3
			C384.378,262.456,390.978,253.156,389.278,243.356z"/>
	</g>
</g>
<g>
	<g>
		<path d="M486.678,238.956c-10.1-59.6-38.3-113.9-81.4-157c-43.1-43.1-97.4-71.3-157-81.4c-9.8-1.7-19.1,4.9-20.8,14.7
			c-1.7,9.8,4.9,19.1,14.7,20.8c52.2,8.9,99.8,33.5,137.6,71.3c37.8,37.8,62.5,85.4,71.3,137.6c1.5,8.8,9.1,15,17.7,15
			c1,0,2-0.1,3-0.3C481.778,258.056,488.378,248.756,486.678,238.956z"/>
	</g>
</g>
<g>
</g>
<g>
</g>
<g>
</g>
<g>
</g>
<g>
</g>
<g>
</g>
<g>
</g>
<g>
</g>
<g>
</g>
<g>
</g>
<g>
</g>
<g>
</g>
<g>
</g>
<g>
</g>
<g>
</g>
</svg>
