<?xml version="1.0" encoding="iso-8859-1"?>
<!-- Generator: Adobe Illustrator 19.0.0, SVG Export Plug-In . SVG Version: 6.00 Build 0)  -->
<svg version="1.1" id="Layer_1" xmlns="http://www.w3.org/2000/svg" xmlns:xlink="http://www.w3.org/1999/xlink" x="0px" y="0px"
	 viewBox="0 0 489.5 489.5" style="enable-background:new 0 0 489.5 489.5;" xml:space="preserve">
<g>
	<g>
		<path d="M471.5,222.15c9.9,0,18-8.1,18-18V82.45c0-45.4-37-82.4-82.6-82.4H82.6c-45.5,0-82.6,37-82.6,82.4v324.6
			c0,45.4,37.1,82.4,82.6,82.4h324.2c45.5,0,82.6-37,82.6-82.4v-82.6c0-0.3,0-0.6,0-1c0.1-4.7-1.7-9.4-5.3-13l-117.2-117.1
			c-3.4-3.4-8-5.3-12.7-5.3c-4.8,0-9.4,1.9-12.7,5.3l-134,134l-72.2-72.2c-7-7-18.4-7-25.5,0l-73.7,73.7V82.45
			c0-25.6,20.9-46.4,46.6-46.4h324.2c25.7,0,46.6,20.8,46.6,46.4v121.7C453.5,214.05,461.6,222.15,471.5,222.15z M122.5,293.25
			l72.2,72.2c3.5,3.5,8.1,5.3,12.7,5.3s9.2-1.8,12.7-5.3l134-134l99.2,99.2v76.3c0,25.6-20.9,46.4-46.6,46.4H82.6
			c-25.7,0-46.6-20.8-46.6-46.4v-27.2L122.5,293.25z"/>
	</g>
</g>
<g>
	<g>
		<path d="M204.1,124.95c-9.9,0-18,8.1-18,18c0,16.7-13.6,30.4-30.4,30.4s-30.4-13.6-30.4-30.4s13.7-30.4,30.4-30.4
			c9.9,0,18-8.1,18-18c0-9.9-8.1-18-18-18c-36.6,0-66.4,29.8-66.4,66.4c0,36.6,29.8,66.4,66.4,66.4c36.6,0,66.4-29.8,66.4-66.4
			C222.1,133.05,214,124.95,204.1,124.95z"/>
	</g>
</g>
<g>
</g>
<g>
</g>
<g>
</g>
<g>
</g>
<g>
</g>
<g>
</g>
<g>
</g>
<g>
</g>
<g>
</g>
<g>
</g>
<g>
</g>
<g>
</g>
<g>
</g>
<g>
</g>
<g>
</g>
</svg>
