<?xml version="1.0" encoding="iso-8859-1"?>
<!-- Generator: Adobe Illustrator 19.0.0, SVG Export Plug-In . SVG Version: 6.00 Build 0)  -->
<svg version="1.1" id="Layer_1" xmlns="http://www.w3.org/2000/svg" xmlns:xlink="http://www.w3.org/1999/xlink" x="0px" y="0px"
	 viewBox="0 0 483.8 483.8" style="enable-background:new 0 0 483.8 483.8;" xml:space="preserve">
<g>
	<g>
		<path d="M452.9,90c-19.7-30.6-47.4-55.1-80.1-70.8c-9-4.3-19.7-0.5-24,8.4c-4.3,9-0.5,19.7,8.4,24c49.6,23.8,83.4,72,89.6,125.9
			H306.3V18c0-9.9-8.1-18-18-18c-9.9,0-18,8.1-18,18v177.5c0,9.9,8.1,18,18,18h177.5c9.9,0,18-8.1,18-18
			C483.8,158,473.1,121.5,452.9,90z"/>
	</g>
</g>
<g>
	<g>
		<path d="M423,245.3H238.5V60.8c0-9.9-8.1-18-18-18c-58.9,0-114.3,22.9-155.9,64.6C23,149,0,204.4,0,263.3
			c0,58.9,22.9,114.3,64.6,155.9c41.6,41.6,97,64.6,155.9,64.6c58.9,0,114.3-22.9,155.9-64.6c41.6-41.6,64.6-97,64.6-155.9
			C441,253.4,432.9,245.3,423,245.3z M220.5,447.8C118.8,447.8,36,365,36,263.3c0-95.7,73.2-174.5,166.5-183.6v183.6
			c0,9.9,8.1,18,18,18h183.6C395,374.6,316.1,447.8,220.5,447.8z"/>
	</g>
</g>
<g>
</g>
<g>
</g>
<g>
</g>
<g>
</g>
<g>
</g>
<g>
</g>
<g>
</g>
<g>
</g>
<g>
</g>
<g>
</g>
<g>
</g>
<g>
</g>
<g>
</g>
<g>
</g>
<g>
</g>
</svg>
