<?xml version="1.0" encoding="iso-8859-1"?>
<!-- Generator: Adobe Illustrator 19.0.0, SVG Export Plug-In . SVG Version: 6.00 Build 0)  -->
<svg version="1.1" id="Layer_1" xmlns="http://www.w3.org/2000/svg" xmlns:xlink="http://www.w3.org/1999/xlink" x="0px" y="0px"
	 viewBox="0 0 492.6 492.6" style="enable-background:new 0 0 492.6 492.6;" xml:space="preserve">
<g>
	<g>
		<path d="M256.9,59.576c-64.1,0.4-116.4,19.3-155.6,56.1c-32.8,30.8-47.7,66.9-53.6,85.6c-0.2,0.7-0.5,1.5-0.7,2.2H18
			c-9.9,0-18,8.1-18,18c0,9.9,8.1,18,18,18h43c8.8,0,16.3-6.3,17.7-15c0,0,0.9-4.8,3.3-12.3c11.1-34.8,50.3-115.8,175.1-116.6
			c9.9-0.1,17.9-8.2,17.9-18.1C275,67.576,266.8,59.576,256.9,59.576z"/>
	</g>
</g>
<g>
	<g>
		<path d="M454.3,181.376h-2.4c-10.9-26.2-28.3-50-51.1-69.7c-2.2-10,0.3-20.9,7.5-32.4c6.3-10,6.2-22.3-0.1-32.3
			c-6.3-9.9-17.5-15.2-29.2-13.7c-41.4,5.2-63.7,26.3-75,43.2c-5.6,8.2-3.4,19.4,4.9,25c8.2,5.6,19.4,3.4,25-4.9
			c8.5-12.7,21.3-21.2,37.9-25.4c-8,17.2-9.9,34.8-5.3,51.5c0.4,5,2.8,9.6,6.6,12.7c23.5,19,40.5,43,49.2,69.5
			c2.4,7.5,9.5,12.5,17.4,12.4h14.6c1.3,0,2.4,1.1,2.4,2.4v50.2c0,1.3-1.1,2.4-2.4,2.4h-14.1c-7.9,0-14.9,5.2-17.2,12.7
			c-7.7,25-22.8,48-43.8,66.7c-0.1,0.1-0.1,0.1-0.2,0.2c0,0-0.1,0-0.1,0.1c-0.8,0.7-1.6,1.4-2.4,2.1c-0.1,0.1-0.3,0.2-0.4,0.3
			c-25.8,23.4-28.4,51.2-28.6,59.1c0,0.1,0,0.3,0,0.4v9.6h-53.2v-19.1c0-5.1-2.2-10-6-13.4c-3.8-3.4-8.9-5.1-13.9-4.5
			c-7.2,0.8-14.4,1.1-21.5,1.1c-9.2,0-18.4-0.6-27.4-1.8c-5.2-0.7-10.3,0.9-14.3,4.3c-3.9,3.4-6.2,8.4-6.2,13.6v19.9h-53.3
			c-0.8-13.6-5.4-45.3-30.3-70.9c-10.9-11.3-20.7-26.1-29.1-44.3c-0.1-0.2-0.2-0.5-0.3-0.7c-4.9-9.6-8.7-19.6-11.2-29.9
			c0-0.2-0.1-0.3-0.1-0.5v-0.1c-1.1-4.4-3.9-8.4-8-11c-6.2-3.8-14.2-3.5-20.1,0.9c-5.9,4.3-8.6,11.9-6.8,19c0,0,0,0.2,0.1,0.5
			c3.2,12.8,7.9,25.4,14,37.3c10.1,21.7,22.1,39.8,35.8,53.9c16.8,17.3,19.7,39.2,20.2,48.2v4.6c0,0.4,0,0.8,0,1.1
			c0,0.6,0.1,1.3,0.1,1.9c1.5,14.7,14,26,28.8,26H212c16,0,29-13,29-29v-7.2c5.7,0.3,11.5,0.4,17.3,0.2v6.9c0,16,13,29,29,29h67.2
			c16,0,29-13,29-29v-16.4c0.1-3.5,1.5-19.1,16.6-33c0.9-0.7,1.7-1.5,2.6-2.2c0.3-0.3,0.6-0.5,0.9-0.8
			c22.1-19.8,38.9-43.7,49.3-69.8h1.3c21.1,0,38.4-17.2,38.4-38.4v-50.2C492.6,198.676,475.4,181.376,454.3,181.376z"/>
	</g>
</g>
<g>
	<g>
		<circle cx="364.5" cy="192.976" r="18.9"/>
	</g>
</g>
<g>
</g>
<g>
</g>
<g>
</g>
<g>
</g>
<g>
</g>
<g>
</g>
<g>
</g>
<g>
</g>
<g>
</g>
<g>
</g>
<g>
</g>
<g>
</g>
<g>
</g>
<g>
</g>
<g>
</g>
</svg>
