<?xml version="1.0" encoding="iso-8859-1"?>
<!-- Generator: Adobe Illustrator 19.0.0, SVG Export Plug-In . SVG Version: 6.00 Build 0)  -->
<svg version="1.1" id="Layer_1" xmlns="http://www.w3.org/2000/svg" xmlns:xlink="http://www.w3.org/1999/xlink" x="0px" y="0px"
	 viewBox="0 0 491.713 491.713" style="enable-background:new 0 0 491.713 491.713;" xml:space="preserve">
<g>
	<g>
		<path d="M384.67,56.113c-39.3-38-91.1-57.8-145.9-56c-99.8,3.5-182.2,81-191.8,180.2c-1.8,19.1-1,38.2,2.6,57
			c0.1,0.8,0.5,3.1,1.4,6.7c3.1,13.5,7.5,26.7,13.3,39.3c20.3,47.8,64.5,121.4,160,200.6c6.3,5.2,13.9,7.8,21.6,7.8
			s15.3-2.6,21.6-7.8c95.5-79.3,139.7-152.8,160-200.6c5.8-12.6,10.3-25.8,13.3-39.3c0.9-3.6,1.3-5.9,1.4-6.7
			c2.3-12.3,3.5-25,3.5-37.5C445.67,145.113,423.97,94.113,384.67,56.113z M406.67,230.913c0,0.3-0.1,0.5-0.1,0.8
			c-0.1,0.5-0.4,1.9-0.9,4.1c0,0.1,0,0.1,0,0.2c-2.5,11.1-6.2,22.1-11,32.5c-0.1,0.2-0.2,0.4-0.2,0.5
			c-18.6,43.9-59.4,111.7-148.5,186.1c-89.1-74.3-129.9-142.2-148.5-186.1c-0.1-0.2-0.2-0.4-0.2-0.5c-4.8-10.4-8.5-21.3-11-32.5
			c0-0.1,0-0.1,0-0.2c-0.5-2.2-0.8-3.6-0.9-4.1c0-0.3-0.1-0.5-0.1-0.8c-3.2-15.5-4-31.4-2.5-47.2c7.8-81.4,75.4-144.9,157.2-147.7
			c44.9-1.6,87.4,14.7,119.7,45.9c32.3,31.2,50,73,50,117.9C409.67,210.213,408.67,220.713,406.67,230.913z"/>
	</g>
</g>
<g>
	<g>
		<path d="M245.87,95.413c-58.6,0-106.4,47.7-106.4,106.4s47.8,106.4,106.4,106.4c9.9,0,18-8.1,18-18c0-9.9-8.1-18-18-18
			c-38.8,0-70.4-31.6-70.4-70.4s31.6-70.4,70.4-70.4s70.4,31.6,70.4,70.4c0,16.8-6,33-16.9,45.7c-6.5,7.6-5.6,18.9,2,25.4
			c7.6,6.5,18.9,5.6,25.4-2c16.5-19.2,25.5-43.8,25.5-69.1C352.27,143.213,304.57,95.413,245.87,95.413z"/>
	</g>
</g>
<g>
</g>
<g>
</g>
<g>
</g>
<g>
</g>
<g>
</g>
<g>
</g>
<g>
</g>
<g>
</g>
<g>
</g>
<g>
</g>
<g>
</g>
<g>
</g>
<g>
</g>
<g>
</g>
<g>
</g>
</svg>
