<?xml version="1.0" encoding="iso-8859-1"?>
<!-- Generator: Adobe Illustrator 19.0.0, SVG Export Plug-In . SVG Version: 6.00 Build 0)  -->
<svg version="1.1" id="Layer_1" xmlns="http://www.w3.org/2000/svg" xmlns:xlink="http://www.w3.org/1999/xlink" x="0px" y="0px"
	 viewBox="0 0 490.25 490.25" style="enable-background:new 0 0 490.25 490.25;" xml:space="preserve">
<g>
	<g>
		<path d="M463.644,381.35l-61-61.2l35.3-35.3c7-7,7-18.4,0-25.5c-7-7-18.4-7-25.5,0l-5.5,5.5l-49.6-49.6c-20-20-46.6-32-74.9-33.6
			c-9.9-0.6-18.4,7-19,16.9c-0.6,9.9,7,18.4,16.9,19c19.4,1.1,37.7,9.3,51.5,23.1l49.6,49.6l-112.2,112.3l-49.6-49.6
			c-31-31-31-81.3,0-112.3c7-7,7-18.4,0-25.5l-54.8-54.8c-8.5-8.5-8.5-22.4,0-30.9l30.7-30.7c22.6-22.6,22.6-59.3,0-81.8
			c-22.6-22.6-59.3-22.6-81.8,0l-30.7,30.7c-8.5,8.5-22.4,8.5-30.9,0c-7-7-18.4-7-25.5,0c-7.1,7-7,18.4,0,25.5
			c22.5,22.5,59.2,22.5,81.8,0l30.7-30.7c8.5-8.5,22.4-8.5,30.9,0c4.1,4.1,6.4,9.6,6.4,15.4s-2.3,11.3-6.4,15.4l-30.7,30.8
			c-22.6,22.6-22.6,59.3,0,81.8l43.1,43.1c-32.8,45.1-28.9,108.8,11.8,149.5l49.6,49.6l-5.5,5.5c-7,7-7,18.4,0,25.5
			c3.5,3.5,8.1,5.3,12.7,5.3c4.6,0,9.2-1.8,12.7-5.3l35.3-35.3l61.2,61.2c3.5,3.5,8.1,5.3,12.7,5.3c4.6,0,9.2-1.8,12.7-5.3
			c7-7,7-18.4,0-25.5l-61.2-61.2l52.6-52.6l61.2,61.2c3.5,3.5,8.1,5.3,12.7,5.3c4.6,0,9.2-1.8,12.7-5.3
			C470.644,399.85,470.644,388.45,463.644,381.35z"/>
	</g>
</g>
<g>
</g>
<g>
</g>
<g>
</g>
<g>
</g>
<g>
</g>
<g>
</g>
<g>
</g>
<g>
</g>
<g>
</g>
<g>
</g>
<g>
</g>
<g>
</g>
<g>
</g>
<g>
</g>
<g>
</g>
</svg>
