<?xml version="1.0" encoding="iso-8859-1"?>
<!-- Generator: Adobe Illustrator 19.0.0, SVG Export Plug-In . SVG Version: 6.00 Build 0)  -->
<svg version="1.1" id="Layer_1" xmlns="http://www.w3.org/2000/svg" xmlns:xlink="http://www.w3.org/1999/xlink" x="0px" y="0px"
	 viewBox="0 0 488.1 488.1" style="enable-background:new 0 0 488.1 488.1;" xml:space="preserve">
<g>
	<g>
		<path d="M480.3,164.3c0-12.8-5-24.9-14.1-34c-9.1-9.1-21.1-14.1-34-14.1L131,116.4V36l225.9-0.1l-0.2,34.6c0,9.9,8,18,17.9,18.1
			h0.1c9.9,0,18-8,18-17.9l0.2-36.8c0-18.7-15.2-33.9-34-33.9l-230,0.1c-9.1,0-17.6,3.5-24,10S95,25,95,34.1v82.4H55.8
			c-12.8,0-24.9,5-34,14.1c-9.1,9.1-14.1,21.2-14.1,34l0.1,173.8c-0.1,12.8,4.9,24.9,14,34c9.1,9.1,21.1,14.1,34,14.1
			c9.9,0,18-8.1,18-18c0-9.9-8.1-18-18-18c-3.2,0-6.2-1.3-8.5-3.5c-2.3-2.3-3.5-5.3-3.5-8.5l-0.1-173.8c0-6.7,5.4-12.1,12.1-12.1
			H113l319.2-0.2c3.2,0,6.2,1.3,8.5,3.5c2.3,2.3,3.5,5.3,3.5,8.5l0.1,173.8c0,3.2-1.3,6.3-3.5,8.5c-2.3,2.3-5.3,3.5-8.5,3.5
			c-9.9,0-18,8.1-18,18c0,9.9,8.1,18,18,18c12.8,0,24.9-5,34-14.1c9.1-9.1,14.1-21.2,14.1-34L480.3,164.3z"/>
	</g>
</g>
<g>
	<g>
		<path d="M387.6,238.6c-3.4-3.4-8-5.3-12.7-5.3l-262,0.1c-9.9,0-18,8.1-18,18L95,454.2c0,18.7,15.2,33.9,34,33.9l230-0.1
			c9.1,0,17.6-3.5,24-10c6.4-6.4,9.9-14.9,9.9-24V251.3C392.9,246.5,391,241.9,387.6,238.6z M131.1,452.2L131,269.4l225.9-0.1
			l0.1,182.8L131.1,452.2z"/>
	</g>
</g>
<g>
</g>
<g>
</g>
<g>
</g>
<g>
</g>
<g>
</g>
<g>
</g>
<g>
</g>
<g>
</g>
<g>
</g>
<g>
</g>
<g>
</g>
<g>
</g>
<g>
</g>
<g>
</g>
<g>
</g>
</svg>
