<?xml version="1.0" encoding="iso-8859-1"?>
<!-- Generator: Adobe Illustrator 19.0.0, SVG Export Plug-In . SVG Version: 6.00 Build 0)  -->
<svg version="1.1" id="Layer_1" xmlns="http://www.w3.org/2000/svg" xmlns:xlink="http://www.w3.org/1999/xlink" x="0px" y="0px"
	 viewBox="0 0 489.393 489.393" style="enable-background:new 0 0 489.393 489.393;" xml:space="preserve">
<g>
	<g>
		<path d="M486.596,244.193c-0.2-9.8-8.2-17.7-18-17.7l-165.8,0.2c-1.2-0.2-2.4-0.4-3.6-0.4c-9.9,0-18,8.1-18,18
			c0,21.1-17.1,38.2-38.2,38.2s-38.2-17.1-38.2-38.2s17.1-38.2,38.2-38.2c9.9,0,18-8.1,18-18c0-9.9-8.1-18-18-18
			c-34.9,0-64.2,24.2-72.1,56.7l-131.6,0.1c4.7-68.3,43.3-130.1,103.5-164.1c86.1-48.7,192.8-28,255.3,43.9l-51.3-9.5
			c-9.8-1.8-19.2,4.6-21,14.4c-1.8,9.8,4.6,19.2,14.4,21l93.7,17.4c1.1,0.2,2.2,0.3,3.3,0.3c8.3,0,15.7-5.7,17.5-14.1l0.2-0.9
			c0-0.2,0.1-0.4,0.1-0.7v-0.1l17.2-92.7c1.8-9.8-4.6-19.2-14.4-21s-19.2,4.6-21,14.4l-9.3,50.4c-31-36.8-72.2-63.5-119.6-76.7
			c-61.9-17.2-126.9-9.3-182.8,22.4c-76.9,43.7-123.8,125.7-122.3,214.1c0.2,9.8,8.2,17.7,18,17.7l150.3-0.2
			c8.2,32,37.3,55.7,71.8,55.7c34.6,0,63.7-23.8,71.9-55.8l135.3-0.2c-4.7,68.3-43.3,130.1-103.5,164.1
			c-47.6,26.9-102.8,33.7-155.5,19c-40.4-11.2-75.5-34-101.9-65.4l53.7,7.1c9.9,1.3,18.9-5.6,20.2-15.5c1.3-9.9-5.6-18.9-15.5-20.2
			l-94.5-12.5c-9.9-1.3-18.9,5.6-20.2,15.5l-12.5,94.5c-1.3,9.9,5.6,18.9,15.5,20.2c0.8,0.1,1.6,0.2,2.4,0.2
			c8.9,0,16.6-6.6,17.8-15.6l6.5-49.3c30.9,36.4,71.9,62.7,118.8,75.8c21.4,5.9,43.2,8.9,64.8,8.9c41,0,81.4-10.6,118.1-31.3
			C441.196,414.593,488.096,332.593,486.596,244.193z"/>
	</g>
</g>
<g>
</g>
<g>
</g>
<g>
</g>
<g>
</g>
<g>
</g>
<g>
</g>
<g>
</g>
<g>
</g>
<g>
</g>
<g>
</g>
<g>
</g>
<g>
</g>
<g>
</g>
<g>
</g>
<g>
</g>
</svg>
