<?xml version="1.0" encoding="iso-8859-1"?>
<!-- Generator: Adobe Illustrator 19.0.0, SVG Export Plug-In . SVG Version: 6.00 Build 0)  -->
<svg version="1.1" id="Layer_1" xmlns="http://www.w3.org/2000/svg" xmlns:xlink="http://www.w3.org/1999/xlink" x="0px" y="0px"
	 viewBox="0 0 493.267 493.267" style="enable-background:new 0 0 493.267 493.267;" xml:space="preserve">
<g>
	<g>
		<path d="M459.458,89.567l-84.3-84.3c-5.1-5.1-12.9-6.7-19.6-3.9s-11.1,9.3-11.1,16.6v66.3h-192.8c-67.9,0-123.1,55.2-123.1,123.1
			c0,9.9,8.1,18,18,18c9.9,0,18-8.1,18-18c0-48,39.1-87.1,87.1-87.1h210.7c9.9,0,18-8.1,18-18v-40.9l40.9,40.9l-71.6,71.6
			c-7,7.1-7,18.5,0,25.5s18.4,7,25.5,0l84.3-84.3C466.458,108.067,466.458,96.667,459.458,89.567z"/>
	</g>
</g>
<g>
	<g>
		<path d="M446.758,267.867c-9.9,0-18,8.1-18,18c0,48-39.1,87.1-87.1,87.1h-210.8c-9.9,0-18,8.1-18,18v40.9l-40.9-40.9l71.6-71.6
			c7-7,7-18.4,0-25.5c-7-7-18.4-7-25.5,0l-84.3,84.3c-7,7-7,18.4,0,25.5l84.4,84.3c3.4,3.4,8,5.3,12.7,5.3c2.3,0,4.7-0.4,6.9-1.4
			c6.7-2.8,11.1-9.3,11.1-16.6v-66.3h192.8c67.9,0,123.1-55.2,123.1-123.1C464.758,275.967,456.658,267.867,446.758,267.867z"/>
	</g>
</g>
<g>
</g>
<g>
</g>
<g>
</g>
<g>
</g>
<g>
</g>
<g>
</g>
<g>
</g>
<g>
</g>
<g>
</g>
<g>
</g>
<g>
</g>
<g>
</g>
<g>
</g>
<g>
</g>
<g>
</g>
</svg>
