<?xml version="1.0" encoding="iso-8859-1"?>
<!-- Generator: Adobe Illustrator 19.0.0, SVG Export Plug-In . SVG Version: 6.00 Build 0)  -->
<svg version="1.1" id="Layer_1" xmlns="http://www.w3.org/2000/svg" xmlns:xlink="http://www.w3.org/1999/xlink" x="0px" y="0px"
	 viewBox="0 0 491.167 491.167" style="enable-background:new 0 0 491.167 491.167;" xml:space="preserve">
<g>
	<g>
		<path d="M457.565,89.267l-84-84c-5.1-5.1-12.9-6.7-19.6-3.9s-11.1,9.3-11.1,16.6v66h-191.9c-67.6,0-122.6,55-122.6,122.6
			c0,9.9,8.1,18,18,18c9.9,0,18-8.1,18-18c0-47.8,38.9-86.6,86.6-86.6h209.8c9.9,0,18-8.1,18-18v-40.5l40.5,40.5l-71.3,71.3
			c-7,7-7,18.4,0,25.5c7,7.1,18.4,7,25.5,0l84-84C464.565,107.667,464.565,96.267,457.565,89.267z"/>
	</g>
</g>
<g>
	<g>
		<path d="M444.765,266.667c-9.9,0-18,8.1-18,18c0,47.8-38.9,86.6-86.6,86.6h-209.8c-9.9,0-18,8.1-18,18v40.5l-40.5-40.5l71.3-71.3
			c7-7,7-18.4,0-25.5c-7-7-18.4-7-25.5,0l-84,84c-3.4,3.4-5.3,8-5.3,12.7s1.9,9.4,5.3,12.7l84,84c3.4,3.4,8,5.3,12.7,5.3
			c2.3,0,4.7-0.4,6.9-1.4c6.7-2.8,11.1-9.3,11.1-16.6v-66h191.8c67.6,0,122.6-55,122.6-122.6
			C462.765,274.767,454.765,266.667,444.765,266.667z"/>
	</g>
</g>
<g>
	<g>
		<circle cx="245.565" cy="245.667" r="20.2"/>
	</g>
</g>
<g>
	<g>
		<circle cx="308.465" cy="245.667" r="20.2"/>
	</g>
</g>
<g>
	<g>
		<circle cx="182.665" cy="245.667" r="20.2"/>
	</g>
</g>
<g>
</g>
<g>
</g>
<g>
</g>
<g>
</g>
<g>
</g>
<g>
</g>
<g>
</g>
<g>
</g>
<g>
</g>
<g>
</g>
<g>
</g>
<g>
</g>
<g>
</g>
<g>
</g>
<g>
</g>
</svg>
