<?xml version="1.0" encoding="iso-8859-1"?>
<!-- Generator: Adobe Illustrator 19.0.0, SVG Export Plug-In . SVG Version: 6.00 Build 0)  -->
<svg version="1.1" id="Layer_1" xmlns="http://www.w3.org/2000/svg" xmlns:xlink="http://www.w3.org/1999/xlink" x="0px" y="0px"
	 viewBox="0 0 487.267 487.267" style="enable-background:new 0 0 487.267 487.267;" xml:space="preserve">
<g>
	<g>
		<path d="M337.333,83.167h-190v-65.2c0-7.3-4.4-13.8-11.1-16.6s-14.5-1.2-19.6,3.9l-83.2,83.2c-3.4,3.4-5.3,8-5.3,12.7
			s1.9,9.4,5.3,12.7l83.2,83.2c7,7,18.4,7,25.5,0c7.1-7,7-18.4,0-25.5l-70.5-70.4l39.8-39.8v39.8c0,9.9,8.1,18,18,18h208
			c47.3,0,85.7,38.5,85.7,85.7c0,9.9,8.1,18,18,18c9.9,0,18-8.1,18-18C459.133,137.767,404.533,83.167,337.333,83.167z"/>
	</g>
</g>
<g>
	<g>
		<path d="M453.733,373.367l-83.1-83.4c-7-7-18.4-7-25.5,0c-7.1,7-7,18.4,0,25.5l70.5,70.5l-39.8,39.8v-39.8c0-9.9-8.1-18-18-18
			h-208c-47.3,0-85.7-38.5-85.7-85.7c0-9.9-8.1-18-18-18c-9.9,0-18,8.1-18,18c0,67.1,54.6,121.7,121.7,121.7h190v65.2
			c0,7.3,4.4,13.9,11.1,16.7c2.2,0.9,4.6,1.4,6.9,1.4c4.7,0,9.3-1.8,12.7-5.3l83.2-83.2c3.4-3.4,5.3-8,5.3-12.7
			S457.133,376.667,453.733,373.367z"/>
	</g>
</g>
<g>
	<g>
		<circle cx="243.633" cy="243.567" r="20"/>
	</g>
</g>
<g>
	<g>
		<circle cx="181.333" cy="243.567" r="20"/>
	</g>
</g>
<g>
	<g>
		<circle cx="305.933" cy="243.567" r="20"/>
	</g>
</g>
<g>
</g>
<g>
</g>
<g>
</g>
<g>
</g>
<g>
</g>
<g>
</g>
<g>
</g>
<g>
</g>
<g>
</g>
<g>
</g>
<g>
</g>
<g>
</g>
<g>
</g>
<g>
</g>
<g>
</g>
</svg>
