<?xml version="1.0" encoding="iso-8859-1"?>
<!-- Generator: Adobe Illustrator 19.0.0, SVG Export Plug-In . SVG Version: 6.00 Build 0)  -->
<svg version="1.1" id="Layer_1" xmlns="http://www.w3.org/2000/svg" xmlns:xlink="http://www.w3.org/1999/xlink" x="0px" y="0px"
	 viewBox="0 0 488.5 488.5" style="enable-background:new 0 0 488.5 488.5;" xml:space="preserve">
<g>
	<g>
		<path d="M458.4,195.355c-31.3-53.6-86.2-84.5-163.3-92v-51.4c-0.1-6.8-3.9-12.9-9.9-16c-6-3.1-13.2-2.6-18.7,1.4l-169,120.8
			c-4.7,3.4-7.5,8.8-7.5,14.6s2.8,11.3,7.5,14.6l169,121.3c5.5,3.9,12.7,4.5,18.7,1.4c6-3.1,9.8-9.3,9.8-16v-68.4
			c0-9.9-8.1-18-18-18c-9.9,0-18,8.1-18,18v33.4l-120.1-86.2l120.1-85.9v33.3c0,9.6,7.5,17.5,17.1,18
			c117.1,5.9,157.5,65.5,170.5,128.1c-26.3-28.6-56-45.5-91.7-53.1c-9.7-2.1-19.3,4.2-21.3,13.9c-2.1,9.7,4.2,19.3,13.9,21.3
			c31.2,6.6,68.4,22.6,107.3,91.1c3.3,5.7,9.3,9.1,15.7,9.1c1.5,0,3.1-0.2,4.6-0.6c7.9-2.1,13.4-9.2,13.4-17.4
			C488.5,294.655,485.4,241.455,458.4,195.355z"/>
	</g>
</g>
<g>
	<g>
		<path d="M341.9,280.255c-9.9,0-18,8.1-18,18v120.3H36v-225.3h7.2c9.9,0,18-8.1,18-18c0-9.9-8.1-18-18-18H18c-9.9,0-18,8.1-18,18
			v261.3c0,9.9,8.1,18,18,18h323.9c9.9,0,18-8.1,18-18v-138.3C359.9,288.355,351.8,280.255,341.9,280.255z"/>
	</g>
</g>
<g>
</g>
<g>
</g>
<g>
</g>
<g>
</g>
<g>
</g>
<g>
</g>
<g>
</g>
<g>
</g>
<g>
</g>
<g>
</g>
<g>
</g>
<g>
</g>
<g>
</g>
<g>
</g>
<g>
</g>
</svg>
