<?xml version="1.0" encoding="iso-8859-1"?>
<!-- Generator: Adobe Illustrator 19.0.0, SVG Export Plug-In . SVG Version: 6.00 Build 0)  -->
<svg version="1.1" id="Layer_1" xmlns="http://www.w3.org/2000/svg" xmlns:xlink="http://www.w3.org/1999/xlink" x="0px" y="0px"
	 viewBox="0 0 490 490" style="enable-background:new 0 0 490 490;" xml:space="preserve">
<g>
	<g>
		<path d="M342.1,127.75c-14.2-14.2-33.2-22.1-53.3-22.1c-15.9,0-31.1,4.9-43.8,14c-12.7-9.1-27.9-14.1-43.9-14.1
			c-20.1,0-39,7.8-53.3,22.1c-14.3,14.3-22.1,33.2-22.1,53.4c0,20.1,7.9,39,22.1,53.3l78.2,78.2c5.1,5,11.8,7.8,18.9,7.8
			c7.1,0,13.9-2.8,18.9-7.8l78.1-78.1c14.4-14.2,22.2-33.2,22.3-53.3C364.2,160.95,356.4,142.05,342.1,127.75z M316.6,208.95
			l-71.5,71.5l-71.7-71.7c-7.5-7.5-11.6-17.4-11.6-27.9s4.1-20.4,11.5-27.9c7.4-7.4,17.3-11.5,27.8-11.5s20.5,4.1,27.9,11.6l3.2,3.2
			c3.4,3.4,8,5.3,12.7,5.3c4.7,0,9.4-1.9,12.7-5.3l3.1-3.1c7.5-7.5,17.4-11.6,27.9-11.6s20.4,4.1,27.8,11.5
			c7.4,7.4,11.5,17.3,11.5,27.9C328.2,191.65,324,201.55,316.6,208.95z"/>
	</g>
</g>
<g>
	<g>
		<path d="M450.2,15.05H39.8C17.9,15.05,0,32.95,0,54.95v304.4c0,22,17.9,39.9,39.9,39.9H227v39.7h-57.7c-9.9,0-18,8.1-18,18
			c0,9.9,8.1,18,18,18h151.4c9.9,0,18-8.1,18-18c0-9.9-8.1-18-18-18H263v-57.7c0-9.9-8.1-18-18-18H39.8c-2.1,0-3.9-1.7-3.9-3.9
			V54.95c0-2.1,1.7-3.9,3.9-3.9h410.3c2.1,0,3.9,1.7,3.9,3.9v304.4c0,2.1-1.7,3.9-3.9,3.9H337c-9.9,0-18,8.1-18,18
			c0,9.9,8.1,18,18,18h113.1c22,0,39.9-17.9,39.9-39.9V54.95C490,32.95,472.1,15.05,450.2,15.05z"/>
	</g>
</g>
<g>
</g>
<g>
</g>
<g>
</g>
<g>
</g>
<g>
</g>
<g>
</g>
<g>
</g>
<g>
</g>
<g>
</g>
<g>
</g>
<g>
</g>
<g>
</g>
<g>
</g>
<g>
</g>
<g>
</g>
</svg>
