<?xml version="1.0" encoding="iso-8859-1"?>
<!-- Generator: Adobe Illustrator 19.0.0, SVG Export Plug-In . SVG Version: 6.00 Build 0)  -->
<svg version="1.1" id="Layer_1" xmlns="http://www.w3.org/2000/svg" xmlns:xlink="http://www.w3.org/1999/xlink" x="0px" y="0px"
	 viewBox="0 0 484 484" style="enable-background:new 0 0 484 484;" xml:space="preserve">
<g>
	<g>
		<path d="M444.4,14.9H39.5C17.7,14.9,0,32.7,0,54.5v300.3c0,21.8,17.7,39.6,39.6,39.6H224v38.7h-56.7c-9.9,0-18,8.1-18,18
			c0,9.9,8.1,18,18,18h149.4c9.9,0,18-8.1,18-18c0-9.9-8.1-18-18-18H260v-56.7c0-9.9-8.1-18-18-18H39.5c-2,0-3.6-1.6-3.6-3.6V54.5
			c0-2,1.6-3.6,3.6-3.6h404.9c2,0,3.6,1.6,3.6,3.6v300.4c0,2-1.6,3.6-3.6,3.6H332.8c-9.9,0-18,8.1-18,18c0,9.9,8.1,18,18,18h111.6
			c21.8,0,39.6-17.7,39.6-39.6V54.5C484,32.7,466.3,14.9,444.4,14.9z"/>
	</g>
</g>
<g>
</g>
<g>
</g>
<g>
</g>
<g>
</g>
<g>
</g>
<g>
</g>
<g>
</g>
<g>
</g>
<g>
</g>
<g>
</g>
<g>
</g>
<g>
</g>
<g>
</g>
<g>
</g>
<g>
</g>
</svg>
