<?xml version="1.0" encoding="iso-8859-1"?>
<!-- Generator: Adobe Illustrator 19.0.0, SVG Export Plug-In . SVG Version: 6.00 Build 0)  -->
<svg version="1.1" id="Layer_1" xmlns="http://www.w3.org/2000/svg" xmlns:xlink="http://www.w3.org/1999/xlink" x="0px" y="0px"
	 viewBox="0 0 489.4 489.4" style="enable-background:new 0 0 489.4 489.4;" xml:space="preserve">
<g>
	<g>
		<path d="M452.1,191.3h-15.5c-4.3-15.5-10.5-30.4-18.4-44.5l11-11c14.5-14.5,14.5-38.2,0-52.7l-22.9-22.9c-7-7-16.4-10.9-26.3-10.9
			c-9.9,0-19.3,3.9-26.3,10.9l-11,11c-14-8-28.9-14.1-44.5-18.4V37.3c0-20.5-16.7-37.3-37.3-37.3h-32.4c-20.5,0-37.3,16.7-37.3,37.3
			v15.5c-15.5,4.3-30.4,10.5-44.5,18.4l-11-11c-7-7-16.4-10.9-26.3-10.9c-10,0-19.3,3.9-26.3,10.9L60.2,83.1
			c-14.5,14.6-14.5,38.2,0,52.7l11,11c-8,14-14.1,28.9-18.4,44.5H37.3C16.8,191.3,0,208,0,228.6V261c0,20.5,16.7,37.3,37.3,37.3
			h15.5c4.3,15.5,10.5,30.4,18.4,44.5l-11,11c-14.5,14.3-14.5,37.9,0,52.5l22.9,22.9c7,7,16.4,10.9,26.3,10.9
			c10,0,19.3-3.9,26.3-10.9l11-11c14,8,28.9,14.1,44.5,18.4v15.5c0,20.5,16.7,37.3,37.3,37.3h32.4c20.5,0,37.3-16.7,37.3-37.3v-15.5
			c15.5-4.3,30.4-10.5,44.5-18.4l11,11c7,7,16.4,10.9,26.3,10.9c9.9,0,19.3-3.9,26.3-10.9l22.9-22.9c14.5-14.5,14.5-38.2,0-52.7
			l-11-11c8-14,14.1-28.9,18.4-44.5h15.5c20.5,0,37.3-16.7,37.3-37.3v-32.4C489.4,208,472.7,191.3,452.1,191.3z M452.1,262.2h-44.5
			l-2.9,14.5c-4.2,21-12.3,40.8-24.3,58.6l-8.2,12.3l31.5,31.5c0.5,0.5,0.5,1.3,0,1.8l-22.9,22.8c-0.1,0.1-0.4,0.4-0.9,0.4
			s-0.8-0.3-0.9-0.4l-31.5-31.5l-12.3,8.2c-17.9,12-37.6,20.1-58.6,24.3l-14.5,2.9v44.5c0,0.7-0.6,1.3-1.3,1.3h-32.4
			c-0.7,0-1.3-0.6-1.3-1.3v-44.5l-14.5-2.9c-21-4.2-40.8-12.3-58.6-24.3l-12.3-8.2l-31.3,31.5c-0.1,0.1-0.4,0.4-0.9,0.4
			s-0.8-0.3-0.9-0.4l-22.9-22.9c-0.5-0.5-0.5-1.3,0-1.8l31.5-31.5l-8.2-12.3c-12-17.9-20.1-37.6-24.3-58.6l-2.9-14.5H37.3
			c-0.7,0-1.3-0.6-1.3-1.3v-32.4c0-0.7,0.6-1.3,1.3-1.3h44.5l2.9-14.5c4.2-21,12.3-40.8,24.3-58.6l8.2-12.3l-31.5-31.3
			c-0.5-0.5-0.5-1.3,0-1.8l22.9-22.9c0.1-0.1,0.4-0.4,0.9-0.4s0.8,0.3,0.9,0.4l31.5,31.5l12.3-8.2c17.9-12,37.6-20.1,58.6-24.3
			l14.5-2.9V37.3c0-0.7,0.6-1.3,1.3-1.3H261c0.7,0,1.3,0.6,1.3,1.3v44.5l14.5,2.9c21,4.2,40.8,12.3,58.6,24.3l12.3,8.2L379,85.7
			c0.1-0.1,0.4-0.4,0.9-0.4s0.8,0.3,0.9,0.4l22.9,22.9c0.5,0.5,0.5,1.3,0,1.8l-31.5,31.5l8.2,12.3c12,17.9,20.1,37.6,24.3,58.6
			l2.9,14.5h44.5c0.7,0,1.3,0.6,1.3,1.3v32.3h0C453.4,261.6,452.8,262.2,452.1,262.2z"/>
	</g>
</g>
<g>
	<g>
		<path d="M326.8,226.7c-9.9,0-18,8.1-18,18c0,35.3-28.8,64.1-64.1,64.1c-35.3,0-64.1-28.8-64.1-64.1c0-35.3,28.8-64.1,64.1-64.1
			c9.9,0,18-8.1,18-18c0-9.9-8.1-18-18-18c-55.2,0-100.1,44.9-100.1,100.1s44.9,100.1,100.1,100.1s100.1-44.9,100.1-100.1
			C344.8,234.8,336.7,226.7,326.8,226.7z"/>
	</g>
</g>
<g>
</g>
<g>
</g>
<g>
</g>
<g>
</g>
<g>
</g>
<g>
</g>
<g>
</g>
<g>
</g>
<g>
</g>
<g>
</g>
<g>
</g>
<g>
</g>
<g>
</g>
<g>
</g>
<g>
</g>
</svg>
