<?xml version="1.0" encoding="iso-8859-1"?>
<!-- Generator: Adobe Illustrator 19.0.0, SVG Export Plug-In . SVG Version: 6.00 Build 0)  -->
<svg version="1.1" id="Layer_1" xmlns="http://www.w3.org/2000/svg" xmlns:xlink="http://www.w3.org/1999/xlink" x="0px" y="0px"
	 viewBox="0 0 486.002 486.002" style="enable-background:new 0 0 486.002 486.002;" xml:space="preserve">
<g>
	<g>
		<path d="M485.7,221.201c-0.1-16.7-12.2-30.7-28.7-33.4l-30.2-4.9c-3.1-9.6-7-19-11.6-28l18.1-25.9c9.5-13.7,7.8-32.1-4-43.7
			l-29.7-29.3c-11.8-11.6-30.2-13.1-43.8-3.3c-0.1,0.1-0.2,0.1-0.3,0.2l-113.8,85.1h-0.4c-0.2,0-0.5,0-0.7,0
			c-28.1,0.6-54.3,12.2-73.7,32.5c-19.4,20.3-29.7,47-29.1,75.1c1.3,57.2,48.2,102.8,105.2,102.8c0.8,0,1.6,0,2.4,0
			c58-1.3,104.1-49.6,102.8-107.6c-0.3-11.6-2.4-23-6.4-33.8c-3.4-9.3-13.8-14.1-23.1-10.7c-9.3,3.4-14.1,13.8-10.7,23.1
			c2.6,7.1,4,14.6,4.2,22.2c0.9,38.2-29.5,69.9-67.6,70.8c-0.5,0-1.1,0-1.6,0c-37.4,0-68.3-30-69.2-67.6c-0.4-18.5,6.4-36,19.1-49.4
			c12.7-13.3,29.8-20.9,48.1-21.4l6.2,0.1c4,0.1,7.9-1.2,11.1-3.6l117.1-87.6l27.3,26.9l-17.4,24.8c-7.5,10.7-8.4,24.7-2.4,36.5
			c3.8,7.5,7.1,15.2,9.6,23.1c4.1,12.8,14.8,22,28,24.1l29.1,4.7l0.3,38.8l-30,5.3c-12.9,2.3-23.4,11.6-27.4,24.2
			c-2.5,7.8-5.7,15.5-9.5,23.1c-6.1,12-5,26.1,2.8,36.8l17.3,23.9l-26.9,27.3l-24.8-17.4c-10.8-7.5-24.8-8.4-36.6-2.4
			c-7.1,3.7-14.5,6.8-22.1,9.3c-12.7,4.2-21.8,14.9-23.9,28l-4.7,29.6l-38.8,0.3l-5.2-29.5c-2.3-13-11.6-23.6-24.3-27.6
			c-8.1-2.5-15.9-5.7-23.4-9.4c-11.9-6-25.9-4.9-36.6,2.8l-24.3,17.6l-27.3-26.9l17.2-24.6c7.6-10.8,8.4-24.9,2.3-36.6
			c-3.8-7.4-7.1-15.2-9.8-23.2c-4.2-12.6-14.9-21.8-27.9-23.9l-29.6-4.7l-0.4-38.5l29.7-5.2c13-2.3,23.6-11.6,27.6-24.3
			c2.5-8.1,5.7-15.9,9.4-23.4c6-11.9,4.9-25.9-2.8-36.6l-17.6-24.3l26.9-27.3l24.5,17.1c10.9,7.6,25,8.4,36.8,2.2
			c7.6-4,15.6-7.3,23.8-9.9c12.9-4.1,22.3-14.8,24.4-28.1l4.7-29l40.4-0.3c9.9-0.1,17.9-8.2,17.9-18.1c-0.1-9.9-8.1-17.9-18-17.9
			h-0.1l-42,0.3c-16.7,0.1-30.7,12.2-33.4,28.7l-4.9,30.1c-10,3.2-19.9,7.3-29.2,12.2l-25.6-17.9c-13.7-9.5-32.1-7.8-43.7,4
			l-29.3,29.7c-11.6,11.8-13.1,30.2-3.3,43.8l18.2,25.3c-4.5,9-8.3,18.5-11.4,28.2l-30.6,5.5h-0.1c-15.7,2.9-27.6,16.6-28.3,32.6
			c0,0.3,0,0.6,0,0.9l0.3,42c0.1,16.7,12.2,30.7,28.7,33.4l30.7,4.9c3.2,9.7,7.2,19.1,11.8,28l-17.9,25.6c-9.5,13.7-7.8,32.1,4,43.7
			l29.7,29.3c11.8,11.6,30.2,13,43.8,3.3l25.3-18.2c9,4.5,18.5,8.3,28.2,11.4l5.4,30.7c2.9,16.3,17,28.1,33.6,28.1
			c0.1,0,0.2,0,0.3,0l42-0.3c16.7-0.1,30.7-12.2,33.4-28.7l4.9-30.7c9.1-3.1,18.1-6.9,26.8-11.3l25.9,18.1c13.7,9.5,32.1,7.8,43.7-4
			l29.3-29.7c11.7-11.8,13.1-30.2,3.3-43.8l-18-24.9c4.6-9.2,8.5-18.6,11.6-28l31.1-5.5c16.4-2.9,28.3-17.2,28.1-33.8L485.7,221.201
			z"/>
	</g>
</g>
<g>
</g>
<g>
</g>
<g>
</g>
<g>
</g>
<g>
</g>
<g>
</g>
<g>
</g>
<g>
</g>
<g>
</g>
<g>
</g>
<g>
</g>
<g>
</g>
<g>
</g>
<g>
</g>
<g>
</g>
</svg>
