<?xml version="1.0" encoding="iso-8859-1"?>
<!-- Generator: Adobe Illustrator 19.0.0, SVG Export Plug-In . SVG Version: 6.00 Build 0)  -->
<svg version="1.1" id="Layer_1" xmlns="http://www.w3.org/2000/svg" xmlns:xlink="http://www.w3.org/1999/xlink" x="0px" y="0px"
	 viewBox="0 0 490.4 490.4" style="enable-background:new 0 0 490.4 490.4;" xml:space="preserve">
<g>
	<g>
		<path d="M445.6,346.9c-8.9,4.5-12.5,15.3-8,24.2c4,8,6.1,16.7,6.1,25.7c0,31.8-25.8,57.6-57.6,57.6c-31.8,0-57.6-25.8-57.6-57.6
			c0-31.8,25.9-57.6,57.7-57.6c9.9,0,18-8.1,18-18c0-9.9-8.1-18-18-18c-29.5,0-55.9,13.8-73.1,35.2l-118.9-67.7
			c2.4-8.2,3.6-16.9,3.6-25.8c0-8.9-1.2-17.5-3.6-25.8l118.4-67.5c17.2,21.6,43.8,35.6,73.6,35.6c51.6,0,93.6-42,93.6-93.6
			c0-14.7-3.3-28.8-9.9-41.9c-4.5-8.9-15.3-12.5-24.2-8c-8.9,4.5-12.5,15.3-8,24.2c4,8,6.1,16.7,6.1,25.7
			c0,31.8-25.8,57.6-57.6,57.6c-31.8,0-57.6-25.8-57.6-57.6c0-31.8,25.8-57.6,57.6-57.6c9.9,0,18-8.1,18-18c0-9.9-8.1-18-18-18
			c-51.6,0-93.6,42-93.6,93.6c0,9,1.3,17.6,3.6,25.8L163,195.3c-7.4,4.2-10.8,13-8.2,21.1c0.4,1.1,0.8,2.2,1.3,3.2
			c3.8,7.9,5.8,16.3,5.8,25.2c0,31.8-25.8,57.6-57.6,57.6s-57.6-25.8-57.6-57.6c0-31.8,25.8-57.6,57.5-57.6c9.9,0,18-8.1,18-18
			c0-9.9-8.1-18-18-18c-51.6,0-93.6,42-93.6,93.6c0,51.6,42,93.6,93.6,93.6c29.8,0,56.4-14,73.5-35.7l118.6,67.6
			c-2.5,8.4-3.8,17.3-3.8,26.5c0,51.6,42,93.6,93.6,93.6c51.6,0,93.6-42,93.6-93.6c0-14.7-3.3-28.8-9.9-41.9
			C465.3,346,454.5,342.4,445.6,346.9z"/>
	</g>
</g>
<g>
</g>
<g>
</g>
<g>
</g>
<g>
</g>
<g>
</g>
<g>
</g>
<g>
</g>
<g>
</g>
<g>
</g>
<g>
</g>
<g>
</g>
<g>
</g>
<g>
</g>
<g>
</g>
<g>
</g>
</svg>
