<?xml version="1.0" encoding="iso-8859-1"?>
<!-- Generator: Adobe Illustrator 19.0.0, SVG Export Plug-In . SVG Version: 6.00 Build 0)  -->
<svg version="1.1" id="Layer_1" xmlns="http://www.w3.org/2000/svg" xmlns:xlink="http://www.w3.org/1999/xlink" x="0px" y="0px"
	 viewBox="0 0 491 491" style="enable-background:new 0 0 491 491;" xml:space="preserve">
<g>
	<g>
		<path d="M413.45,117.7c-9.9,0-18,8.1-18,18v287.8c0,17.4-14.1,31.5-31.5,31.5h-236.9c-17.4,0-31.5-14.1-31.5-31.5V153.7h51.1v30
			h-2.9c-9.9,0-18,8.1-18,18c0,9.9,8.1,18,18,18h41.8c9.9,0,18-8.1,18-18c0-9.9-8.1-18-18-18h-2.9V81.6c0-25.1,20.4-45.6,45.6-45.6
			h34.5c25.1,0,45.6,20.4,45.6,45.6v36.1h-58.4c-9.9,0-18,8.1-18,18c0,9.9,8.1,18,18,18h58.4v30h-2.9c-9.9,0-18,8.1-18,18
			c0,9.9,8.1,18,18,18h41.8c9.9,0,18-8.1,18-18c0-9.9-8.1-18-18-18h-2.9V81.6c-0.1-45-36.7-81.6-81.7-81.6h-34.5
			c-45,0-81.6,36.6-81.6,81.6v36.1h-69c-9.9,0-18,8.1-18,18v287.8c0,37.2,30.3,67.5,67.5,67.5h236.9c37.2,0,67.5-30.3,67.5-67.5
			V135.7C431.45,125.8,423.35,117.7,413.45,117.7z"/>
	</g>
</g>
<g>
</g>
<g>
</g>
<g>
</g>
<g>
</g>
<g>
</g>
<g>
</g>
<g>
</g>
<g>
</g>
<g>
</g>
<g>
</g>
<g>
</g>
<g>
</g>
<g>
</g>
<g>
</g>
<g>
</g>
</svg>
