<?xml version="1.0" encoding="iso-8859-1"?>
<!-- Generator: Adobe Illustrator 19.0.0, SVG Export Plug-In . SVG Version: 6.00 Build 0)  -->
<svg version="1.1" id="Layer_1" xmlns="http://www.w3.org/2000/svg" xmlns:xlink="http://www.w3.org/1999/xlink" x="0px" y="0px"
	 viewBox="0 0 490.75 490.75" style="enable-background:new 0 0 490.75 490.75;" xml:space="preserve">
<g>
	<g>
		<path d="M472,73.05l-67.6-67.8c-7-7-18.4-7-25.5,0c-7,7-7,18.4,0,25.5l37,37h-72.3c-85.3,0-154.7,69.4-154.7,154.7v45.8
			c0,65.5-53.3,118.7-118.7,118.7H31.4c-9.9,0-18,8.1-18,18c0,9.9,8,18,18,18h38.8c85.3,0,154.7-69.4,154.7-154.7v-45.8
			c0-65.5,53.3-118.7,118.7-118.7h72.3l-37,37c-7,7-7,18.4,0,25.5c3.5,3.5,8.1,5.3,12.7,5.3c4.6,0,9.2-1.8,12.7-5.3l67.7-67.7
			C479,91.55,479,80.15,472,73.05z"/>
	</g>
</g>
<g>
	<g>
		<path d="M181.1,114.65c-29.3-30.3-68.7-46.9-110.9-46.9H31.4c-9.9,0-18,8.1-18,18c0,9.9,8,18,18,18h38.8c32.3,0,62.6,12.8,85.1,36
			c3.5,3.6,8.2,5.5,12.9,5.5c4.5,0,9-1.7,12.5-5.1C187.8,133.25,188,121.85,181.1,114.65z"/>
	</g>
</g>
<g>
	<g>
		<path d="M472.1,392.25l-67.7-67.7c-7-7-18.4-7-25.5,0c-7,7-7,18.4,0,25.5l37,37h-72.3c-32.4,0-62.6-12.8-85.1-36
			c-6.9-7.1-18.3-7.3-25.5-0.4c-7.1,6.9-7.3,18.3-0.4,25.5c29.4,30.2,68.8,46.9,111,46.9h72.3l-37,37c-7,7-7,18.3,0.1,25.4
			c3.5,3.5,8.1,5.3,12.7,5.3c4.6,0,9.2-1.8,12.7-5.3l67.7-67.7C479.1,410.75,479.1,399.35,472.1,392.25z"/>
	</g>
</g>
<g>
</g>
<g>
</g>
<g>
</g>
<g>
</g>
<g>
</g>
<g>
</g>
<g>
</g>
<g>
</g>
<g>
</g>
<g>
</g>
<g>
</g>
<g>
</g>
<g>
</g>
<g>
</g>
<g>
</g>
</svg>
