<?xml version="1.0" encoding="iso-8859-1"?>
<!-- Generator: Adobe Illustrator 19.0.0, SVG Export Plug-In . SVG Version: 6.00 Build 0)  -->
<svg version="1.1" id="Layer_1" xmlns="http://www.w3.org/2000/svg" xmlns:xlink="http://www.w3.org/1999/xlink" x="0px" y="0px"
	 viewBox="0 0 490 490" style="enable-background:new 0 0 490 490;" xml:space="preserve">
<g>
	<g>
		<path d="M484.6,81.27l-68.4-67c-7.1-7-18.5-6.8-25.5,0.3c-7,7.1-6.8,18.5,0.3,25.5l36.9,36.2h-66.1h-3.5c-33,0-63.9,14.6-85,40
			c-0.2,0.3-0.5,0.6-0.7,0.9l-38,52.2c-5.8,7.9-4,19.2,4,25c3.2,2.3,6.9,3.5,10.6,3.5c5.6,0,11-2.6,14.6-7.4l37.7-51.8
			c14.2-16.9,34.9-26.6,56.8-26.6H428l-37,36.2c-7.1,7-7.2,18.4-0.3,25.5c3.5,3.6,8.2,5.4,12.9,5.4c4.5,0,9.1-1.7,12.6-5.1l68.4-67
			c3.5-3.4,5.4-8,5.4-12.9C490,89.27,488.1,84.67,484.6,81.27z"/>
	</g>
</g>
<g>
	<g>
		<path d="M484.6,382.97l-68.4-67c-7.1-7-18.5-6.8-25.5,0.3s-6.8,18.5,0.3,25.5l36.9,36.2h-66.2h-3.4c-22,0-42.7-9.7-56.9-26.5
			l-35-48.3c0,0,0-0.1-0.1-0.1l-21.6-29.4c-20.6-29.1-54.2-46.5-89.9-46.5h-15.6H18c-9.9,0-18,8.1-18,18c0,9.7,8.1,17.8,18,17.8
			h121.2h15.6c24.1,0,46.7,11.7,60.6,31.4c0.1,0.1,0.1,0.2,0.2,0.3l21.7,29.5l35.3,48.7c0.2,0.3,0.5,0.6,0.7,0.9
			c21,25.4,52,40,85,40h69.6l-36.9,36.2c-7.1,7-7.2,18.4-0.3,25.5c3.5,3.6,8.2,5.4,12.9,5.4c4.5,0,9.1-1.7,12.6-5.1l68.4-67
			c3.5-3.4,5.4-8,5.4-12.9C490,390.97,488.1,386.37,484.6,382.97z"/>
	</g>
</g>
<g>
</g>
<g>
</g>
<g>
</g>
<g>
</g>
<g>
</g>
<g>
</g>
<g>
</g>
<g>
</g>
<g>
</g>
<g>
</g>
<g>
</g>
<g>
</g>
<g>
</g>
<g>
</g>
<g>
</g>
</svg>
