<?xml version="1.0" encoding="iso-8859-1"?>
<!-- Generator: Adobe Illustrator 19.0.0, SVG Export Plug-In . SVG Version: 6.00 Build 0)  -->
<svg version="1.1" id="Layer_1" xmlns="http://www.w3.org/2000/svg" xmlns:xlink="http://www.w3.org/1999/xlink" x="0px" y="0px"
	 viewBox="0 0 490.75 490.75" style="enable-background:new 0 0 490.75 490.75;" xml:space="preserve">
<g>
	<g>
		<path d="M404.95,13.4c-9.9,0-18,8.1-18,18v38.8c0,65.4-53.2,118.7-118.7,118.7h-45.8c-85.3,0-154.7,69.4-154.7,154.7v72.3l-37-37
			c-7.1-7-18.5-7-25.5,0c-7,7.1-7,18.5,0,25.5l67.8,67.6c7.1,7,18.5,7,25.5,0l67.7-67.7c3.5-3.5,5.3-8.1,5.3-12.7
			c0-4.6-1.8-9.2-5.3-12.7c-7.1-7-18.5-7-25.5,0l-37,37v-72.3c0-65.4,53.2-118.7,118.7-118.7h45.8c85.3,0,154.7-69.4,154.7-154.7
			V31.4C422.95,21.4,414.85,13.4,404.95,13.4z"/>
	</g>
</g>
<g>
	<g>
		<path d="M139.75,155.3c-23.2-22.5-36-52.8-36-85.1V31.4c0-10-8.1-18-18-18c-9.9,0-18,8.1-18,18v38.8c0,42.2,16.6,81.6,46.9,110.9
			c7.2,6.9,18.6,6.7,25.5-0.4c3.4-3.5,5.1-8,5.1-12.5C145.25,163.5,143.35,158.8,139.75,155.3z"/>
	</g>
</g>
<g>
	<g>
		<path d="M485.45,379c-7.1-7.1-18.4-7.1-25.4-0.1l-37,37v-72.3c0-42.2-16.7-81.6-46.9-111c-7.2-6.9-18.6-6.7-25.5,0.4
			c-6.9,7.2-6.7,18.6,0.4,25.5c23.2,22.5,36,52.7,36,85.1v72.3l-37-37c-7.1-7-18.5-7-25.5,0c-7,7.1-7,18.5,0,25.5l67.7,67.7
			c7.1,7,18.5,7,25.5,0l67.7-67.7c3.5-3.5,5.3-8.1,5.3-12.7C490.75,387.1,488.95,382.5,485.45,379z"/>
	</g>
</g>
<g>
</g>
<g>
</g>
<g>
</g>
<g>
</g>
<g>
</g>
<g>
</g>
<g>
</g>
<g>
</g>
<g>
</g>
<g>
</g>
<g>
</g>
<g>
</g>
<g>
</g>
<g>
</g>
<g>
</g>
</svg>
