<?xml version="1.0" encoding="iso-8859-1"?>
<!-- Generator: Adobe Illustrator 19.0.0, SVG Export Plug-In . SVG Version: 6.00 Build 0)  -->
<svg version="1.1" id="Layer_1" xmlns="http://www.w3.org/2000/svg" xmlns:xlink="http://www.w3.org/1999/xlink" x="0px" y="0px"
	 viewBox="0 0 489.997 489.997" style="enable-background:new 0 0 489.997 489.997;" xml:space="preserve">
<g>
	<g>
		<path d="M471.997,357.718c-9.9,0-18,8.1-18,18c0,28.4-23.1,51.5-51.5,51.5h-86.5v-33.5h76.2c9.9,0,18-8.1,18-18
			c0-9.9-8.1-18-18-18h-272.6c-10.3,0-18.7-8.4-18.7-18.7v-21.2c5.8,2.1,12.1,3.3,18.7,3.3h236c30.2,0,54.7-24.5,54.7-54.7v-138
			c0-9.9-8.1-18-18-18h-244.4c-9.9,0-18,8.1-18,18c0,9.9,8.1,18,18,18h226.4v120c0,10.3-8.4,18.7-18.7,18.7h-236
			c-10.3,0-18.7-8.4-18.7-18.7v-58.5v-65.5v-8.5v-61.7c0-0.6,0-1.3-0.1-1.9c0-0.2,0-0.3-0.1-0.5c-0.1-0.4-0.1-0.8-0.2-1.2
			c-0.1-0.4-0.2-0.7-0.3-1.1c-0.1-0.2-0.1-0.4-0.2-0.6c-0.1-0.4-0.3-0.8-0.4-1.1c-0.1-0.2-0.1-0.3-0.2-0.5c-0.1-0.4-0.3-0.7-0.5-1
			c-0.1-0.2-0.2-0.4-0.3-0.6c-0.2-0.3-0.3-0.6-0.5-0.8c-0.1-0.2-0.3-0.5-0.4-0.7c-0.1-0.2-0.3-0.4-0.5-0.6c-0.2-0.3-0.4-0.5-0.6-0.8
			c-0.1-0.2-0.3-0.3-0.4-0.5c-0.3-0.3-0.5-0.6-0.8-0.9c-0.1-0.1-0.3-0.2-0.4-0.4c-0.3-0.3-0.6-0.6-0.9-0.8c-0.2-0.1-0.3-0.3-0.5-0.4
			c-0.3-0.2-0.6-0.5-0.9-0.7c-0.3-0.2-0.7-0.4-1-0.6c-0.1-0.1-0.3-0.2-0.4-0.3c-0.6-0.3-1.1-0.6-1.7-0.8l-64.6-27.2
			c-9.2-3.9-19.7,0.4-23.6,9.6c-3.8,9.1,0.4,19.7,9.6,23.6l53.8,22.7v49.8v8.5v65.5v58.5v72.6c0,30.2,24.5,54.7,54.7,54.7h66.6v33.5
			h-103.3c-9.9,0-18,8.1-18,18c0,9.9,8.1,18,18,18h319.7c48.2,0,87.5-39.2,87.5-87.5
			C489.997,365.818,481.897,357.718,471.997,357.718z M280.097,427.218h-57.9v-33.5h57.9V427.218z"/>
	</g>
</g>
<g>
</g>
<g>
</g>
<g>
</g>
<g>
</g>
<g>
</g>
<g>
</g>
<g>
</g>
<g>
</g>
<g>
</g>
<g>
</g>
<g>
</g>
<g>
</g>
<g>
</g>
<g>
</g>
<g>
</g>
</svg>
