<?xml version="1.0" encoding="iso-8859-1"?>
<!-- Generator: Adobe Illustrator 19.0.0, SVG Export Plug-In . SVG Version: 6.00 Build 0)  -->
<svg version="1.1" id="Layer_1" xmlns="http://www.w3.org/2000/svg" xmlns:xlink="http://www.w3.org/1999/xlink" x="0px" y="0px"
	 viewBox="0 0 488.75 488.75" style="enable-background:new 0 0 488.75 488.75;" xml:space="preserve">
<g>
	<g>
		<path d="M281.4,74.713c-10.4-6.1-23-6.1-33.5,0c-0.4,0.2-0.8,0.5-1.2,0.8l-99.3,68.6c-8.2,5.6-10.2,16.9-4.6,25
			c5.6,8.2,16.9,10.2,25,4.6l94.3-65.1v271.4l-89.7-64.9c-3.1-2.2-6.8-3.4-10.5-3.4H76.7c-22.4,0-40.7-18.2-40.7-40.7v-53.4
			c0-22.4,18.2-40.7,40.7-40.7c9.9,0,18-8.1,18-18c0-9.9-8.1-18-18-18c-42.3,0-76.7,34.4-76.7,76.7v53.4c0,42.3,34.4,76.7,76.7,76.7
			H156l90.5,65.4c0.5,0.4,1,0.7,1.5,1c5.2,3,11,4.5,16.7,4.5c5.8,0,11.5-1.5,16.7-4.5c10.5-6.1,16.7-16.9,16.7-29v-281.4
			C298.1,91.613,291.8,80.813,281.4,74.713z"/>
	</g>
</g>
<g>
	<g>
		<path d="M436.7,244.413l46.8-46.8c7-7,7-18.4,0-25.4s-18.4-7-25.5,0l-119,119c-7,7-7,18.4,0,25.5c3.5,3.5,8.1,5.3,12.7,5.3
			c4.6,0,9.2-1.8,12.7-5.3l46.8-46.8l46.8,46.8c3.5,3.5,8.1,5.3,12.7,5.3c4.6,0,9.2-1.8,12.7-5.3c7-7,7-18.4,0-25.5L436.7,244.413z"
			/>
	</g>
</g>
<g>
	<g>
		<path d="M384.3,192.012l-19.9-19.9c-7-7-18.4-7-25.5,0c-7,7-7,18.4,0,25.5l20,19.9c3.5,3.5,8.1,5.3,12.7,5.3
			c4.6,0,9.2-1.8,12.7-5.3C391.3,210.512,391.3,199.113,384.3,192.012z"/>
	</g>
</g>
<g>
</g>
<g>
</g>
<g>
</g>
<g>
</g>
<g>
</g>
<g>
</g>
<g>
</g>
<g>
</g>
<g>
</g>
<g>
</g>
<g>
</g>
<g>
</g>
<g>
</g>
<g>
</g>
<g>
</g>
</svg>
