<?xml version="1.0" encoding="iso-8859-1"?>
<!-- Generator: Adobe Illustrator 19.0.0, SVG Export Plug-In . SVG Version: 6.00 Build 0)  -->
<svg version="1.1" id="Layer_1" xmlns="http://www.w3.org/2000/svg" xmlns:xlink="http://www.w3.org/1999/xlink" x="0px" y="0px"
	 viewBox="0 0 488 488" style="enable-background:new 0 0 488 488;" xml:space="preserve">
<g>
	<g>
		<path d="M378.6,153.087c-5.8-8.1-17-10-25.1-4.3c-8.1,5.8-10,17-4.3,25.1c14.5,20.5,22.2,44.7,22.2,70.1
			c0,25.4-7.7,49.6-22.2,70.1c-5.7,8.1-3.8,19.3,4.3,25.1c3.2,2.2,6.8,3.3,10.4,3.3c5.6,0,11.2-2.6,14.7-7.6
			c18.9-26.6,28.9-58,28.9-90.9C407.5,211.087,397.5,179.688,378.6,153.087z"/>
	</g>
</g>
<g>
	<g>
		<path d="M441.1,96.087c-5.8-8.1-17-10-25.1-4.3c-8.1,5.8-10,17-4.3,25.1c26.4,37.2,40.3,81.1,40.3,127.1s-13.9,89.9-40.3,127
			c-5.7,8.1-3.8,19.4,4.3,25.1c3.2,2.2,6.8,3.3,10.4,3.3c5.6,0,11.2-2.6,14.7-7.6c30.7-43.2,46.9-94.3,46.9-147.8
			S471.8,139.387,441.1,96.087z"/>
	</g>
</g>
<g>
	<g>
		<path d="M284.1,72.688c-10.5-6.1-23.1-6.1-33.7,0c-0.4,0.2-0.8,0.5-1.2,0.8l-100.2,69.2c-8.2,5.6-10.2,16.9-4.6,25
			c5.6,8.2,16.9,10.2,25,4.6l95.6-66v275.2l-91.2-65.9c-3.1-2.2-6.8-3.4-10.5-3.4h-86c-22.8,0-41.3-18.5-41.3-41.3v-54
			c0-22.8,18.5-41.3,41.3-41.3c9.9,0,18-8.1,18-18c0-9.9-8.1-18-18-18c-42.6,0-77.3,34.7-77.3,77.3v54c0,42.6,34.7,77.3,77.3,77.3
			h80.2l91.5,66.1c0.5,0.4,1,0.7,1.5,1c5.3,3,11,4.6,16.8,4.6s11.6-1.5,16.8-4.6c10.5-6.1,16.8-17,16.8-29.1v-284.4
			C300.9,89.587,294.6,78.688,284.1,72.688z"/>
	</g>
</g>
<g>
</g>
<g>
</g>
<g>
</g>
<g>
</g>
<g>
</g>
<g>
</g>
<g>
</g>
<g>
</g>
<g>
</g>
<g>
</g>
<g>
</g>
<g>
</g>
<g>
</g>
<g>
</g>
<g>
</g>
</svg>
