<?xml version="1.0" encoding="iso-8859-1"?>
<!-- Generator: Adobe Illustrator 19.0.0, SVG Export Plug-In . SVG Version: 6.00 Build 0)  -->
<svg version="1.1" id="Layer_1" xmlns="http://www.w3.org/2000/svg" xmlns:xlink="http://www.w3.org/1999/xlink" x="0px" y="0px"
	 viewBox="0 0 488 488" style="enable-background:new 0 0 488 488;" xml:space="preserve">
<g>
	<g>
		<path d="M415.7,90.35c-46-40.3-106.9-62.5-171.7-62.5s-125.7,22.2-171.7,62.5C25.7,131.25,0,185.75,0,243.95
			c0,45.9,16.7,90.9,47.2,127.8c-6,11.7-14.2,21-24.6,27.8c-8.6,5.6-12.7,15.7-10.4,25.7c2.2,9.9,10.2,17.1,20.2,18.5
			c20.6,2.9,60.8,4.3,98.1-18c8.5-5.1,11.3-16.2,6.2-24.7c-5.1-8.5-16.2-11.3-24.7-6.2c-15.6,9.3-32.1,13.1-46.4,14.2
			c8.2-9.8,14.7-21.3,19.5-34.3c2.4-6.4,0.9-13.5-3.6-18.5c-29.8-32.2-45.5-71.1-45.5-112.3c0-99.3,93.3-180.1,208-180.1
			s208,80.8,208,180.1s-93.3,180.1-208,180.1c-16.7,0-33.2-1.7-49.2-5.1c-9.7-2-19.3,4.2-21.3,13.9c-2.1,9.8,4.1,19.3,13.8,21.4
			c18.5,3.9,37.5,5.9,56.7,5.9c64.7,0,125.7-22.2,171.7-62.5c46.6-41,72.3-95.5,72.3-153.7S462.3,131.25,415.7,90.35z"/>
	</g>
</g>
<g>
	<g>
		<path d="M344.7,157.65h-53c-9.9,0-18,8.1-18,18c0,9.9,8.1,18,18,18h53c9.9,0,18-8.1,18-18C362.7,165.75,354.6,157.65,344.7,157.65
			z"/>
	</g>
</g>
<g>
	<g>
		<path d="M228,157.65h-84.6c-9.9,0-18,8.1-18,18c0,9.9,8.1,18,18,18H228c9.9,0,18-8.1,18-18C246,165.75,237.9,157.65,228,157.65z"
			/>
	</g>
</g>
<g>
	<g>
		<path d="M344.6,225.95h-91.7c-9.9,0-18,8.1-18,18c0,9.9,8.1,18,18,18h91.7c9.9,0,18-8.1,18-18
			C362.6,234.05,354.5,225.95,344.6,225.95z"/>
	</g>
</g>
<g>
	<g>
		<path d="M189.1,225.95h-45.8c-9.9,0-18,8.1-18,18c0,9.9,8.1,18,18,18h45.8c9.9,0,18-8.1,18-18
			C207.1,234.05,199,225.95,189.1,225.95z"/>
	</g>
</g>
<g>
	<g>
		<path d="M344.7,294.25h-30.2c-9.9,0-18,8.1-18,18c0,9.9,8.1,18,18,18h30.2c9.9,0,18-8.1,18-18
			C362.7,302.35,354.6,294.25,344.7,294.25z"/>
	</g>
</g>
<g>
	<g>
		<path d="M250.7,294.25H143.3c-9.9,0-18,8.1-18,18c0,9.9,8.1,18,18,18h107.4c9.9,0,18-8.1,18-18
			C268.7,302.35,260.6,294.25,250.7,294.25z"/>
	</g>
</g>
<g>
</g>
<g>
</g>
<g>
</g>
<g>
</g>
<g>
</g>
<g>
</g>
<g>
</g>
<g>
</g>
<g>
</g>
<g>
</g>
<g>
</g>
<g>
</g>
<g>
</g>
<g>
</g>
<g>
</g>
</svg>
