<?xml version="1.0" encoding="iso-8859-1"?>
<!-- Generator: Adobe Illustrator 19.0.0, SVG Export Plug-In . SVG Version: 6.00 Build 0)  -->
<svg version="1.1" id="Layer_1" xmlns="http://www.w3.org/2000/svg" xmlns:xlink="http://www.w3.org/1999/xlink" x="0px" y="0px"
	 viewBox="0 0 486.1 486.1" style="enable-background:new 0 0 486.1 486.1;" xml:space="preserve">
<g>
	<g>
		<path d="M414,90c-45.8-40.1-106.5-62.2-171-62.2S117.8,49.8,72,90C25.6,130.7,0,185,0,243c0,45.7,16.6,90.5,47,127.2
			c-5.9,11.6-14.1,20.8-24.4,27.6c-8.6,5.6-12.7,15.7-10.4,25.6c2.2,9.9,10.1,17.1,20.2,18.5c20.5,2.9,60.6,4.3,97.7-18
			c8.5-5.1,11.3-16.2,6.2-24.7c-5.1-8.5-16.2-11.3-24.7-6.2c-15.4,9.2-31.8,13-46,14.1c8.1-9.7,14.6-21.1,19.3-34
			c2.4-6.4,0.9-13.5-3.7-18.5C51.6,322.7,36,284,36,243c0-98.8,92.9-179.3,207-179.3S450,144.2,450,243s-92.9,179.3-207,179.3
			c-16.6,0-33.1-1.7-49-5.1c-9.7-2.1-19.3,4.2-21.3,13.9c-2.1,9.7,4.2,19.3,13.9,21.3c18.4,3.9,37.4,5.9,56.5,5.9
			c64.5,0,125.2-22.1,171-62.2c46.5-40.7,72-95.1,72-153C486.1,185.2,460.4,130.7,414,90z"/>
	</g>
</g>
<g>
	<g>
		<path d="M342.6,167.3c-14.6-14.6-33.9-22.6-54.5-22.6c-16.4,0-32,5.1-45.1,14.5c-13.1-9.5-28.8-14.6-45.2-14.6
			c-20.6,0-39.9,8-54.5,22.6c-14.6,14.6-22.6,34-22.6,54.6c0,20.6,8.1,40,22.6,54.5l80.6,80.6c5.2,5,12,7.8,19.2,7.8
			s14-2.8,19.1-7.9l80.4-80.4c14.6-14.6,22.6-33.9,22.6-54.5C365.2,201.3,357.2,181.9,342.6,167.3z M317,251l-73.9,74l-74.2-74.2
			c-7.8-7.8-12.1-18.1-12.2-29.1c0-11,4.3-21.3,12-29.1c7.8-7.8,18.1-12,29.1-12s21.4,4.3,29.2,12.1l3.3,3.3c3.4,3.4,8,5.3,12.7,5.3
			c4.8,0,9.4-1.9,12.7-5.3l3.2-3.2c7.8-7.8,18.1-12.1,29.1-12.1s21.3,4.3,29.1,12.1s12.1,18.1,12,29.1
			C329.1,232.9,324.8,243.2,317,251z"/>
	</g>
</g>
<g>
</g>
<g>
</g>
<g>
</g>
<g>
</g>
<g>
</g>
<g>
</g>
<g>
</g>
<g>
</g>
<g>
</g>
<g>
</g>
<g>
</g>
<g>
</g>
<g>
</g>
<g>
</g>
<g>
</g>
</svg>
