<?xml version="1.0" encoding="iso-8859-1"?>
<!-- Generator: Adobe Illustrator 19.0.0, SVG Export Plug-In . SVG Version: 6.00 Build 0)  -->
<svg version="1.1" id="Layer_1" xmlns="http://www.w3.org/2000/svg" xmlns:xlink="http://www.w3.org/1999/xlink" x="0px" y="0px"
	 viewBox="0 0 488 488" style="enable-background:new 0 0 488 488;" xml:space="preserve">
<g>
	<g>
		<path d="M415.7,90.4c-46-40.3-106.9-62.5-171.7-62.5S118.3,50.1,72.3,90.4C25.7,131.3,0,185.8,0,244c0,45.9,16.7,90.9,47.2,127.8
			c-6,11.7-14.2,21-24.6,27.8c-8.6,5.6-12.7,15.7-10.4,25.7c2.2,9.9,10.2,17.1,20.2,18.5c20.6,2.9,60.8,4.3,98.1-18
			c8.5-5.1,11.3-16.2,6.2-24.7c-5.1-8.5-16.2-11.3-24.7-6.2c-15.6,9.3-32.1,13.1-46.4,14.2c8.2-9.8,14.7-21.3,19.5-34.3
			c2.4-6.4,0.9-13.5-3.6-18.5C51.7,324.1,36,285.2,36,244c0-99.3,93.3-180.1,208-180.1S452,144.7,452,244s-93.3,180.1-208,180.1
			c-16.6,0-33.2-1.7-49.2-5.1c-9.7-2.1-19.3,4.2-21.3,13.9c-2.1,9.7,4.2,19.3,13.9,21.3c18.5,3.9,37.5,5.9,56.7,5.9
			c64.7,0,125.7-22.2,171.7-62.5C462.3,356.7,488,302.2,488,244S462.3,131.3,415.7,90.4z"/>
	</g>
</g>
<g>
	<g>
		<circle cx="243.9" cy="244" r="23.6"/>
	</g>
</g>
<g>
	<g>
		<circle cx="317.5" cy="244" r="23.6"/>
	</g>
</g>
<g>
	<g>
		<circle cx="170.3" cy="244" r="23.6"/>
	</g>
</g>
<g>
</g>
<g>
</g>
<g>
</g>
<g>
</g>
<g>
</g>
<g>
</g>
<g>
</g>
<g>
</g>
<g>
</g>
<g>
</g>
<g>
</g>
<g>
</g>
<g>
</g>
<g>
</g>
<g>
</g>
</svg>
