<?xml version="1.0" encoding="iso-8859-1"?>
<!-- Generator: Adobe Illustrator 19.0.0, SVG Export Plug-In . SVG Version: 6.00 Build 0)  -->
<svg version="1.1" id="Layer_1" xmlns="http://www.w3.org/2000/svg" xmlns:xlink="http://www.w3.org/1999/xlink" x="0px" y="0px"
	 viewBox="0 0 486 486" style="enable-background:new 0 0 486 486;" xml:space="preserve">
<g>
	<g>
		<path d="M414,90c-45.8-40.1-106.5-62.2-171-62.2S117.8,49.7,72,89.9c-46.4,40.7-72,95-72,153c0,45.7,16.6,90.5,47,127.2
			c-5.9,11.6-14.1,20.8-24.4,27.6c-8.6,5.6-12.7,15.7-10.4,25.6c2.2,9.9,10.1,17.1,20.2,18.5c20.5,2.9,60.6,4.3,97.7-18
			c8.5-5.1,11.3-16.2,6.2-24.7c-5.1-8.5-16.2-11.3-24.7-6.2c-15.4,9.2-31.8,13-46,14.1c8.1-9.7,14.6-21.1,19.3-34
			c2.4-6.4,0.9-13.5-3.6-18.5C51.6,322.6,36,283.9,36,242.9c0-98.8,92.9-179.3,207-179.3s207,80.5,207,179.3s-92.9,179.3-207,179.3
			c-16.6,0-33.1-1.7-49-5.1c-9.7-2.1-19.3,4.2-21.3,13.9c-2.1,9.7,4.1,19.2,13.8,21.3c18.4,3.9,37.4,5.9,56.5,5.9
			c64.5,0,125.2-22.1,171-62.2c46.5-40.7,72-95.1,72-153C486,185.1,460.4,130.7,414,90z"/>
	</g>
</g>
<g>
	<g>
		<path d="M343.2,224.9H142.8c-9.9,0-18,8.1-18,18c0,9.9,8,18,18,18h200.4c9.9,0,18-8.1,18-18C361.2,233,353.1,224.9,343.2,224.9z"
			/>
	</g>
</g>
<g>
	<g>
		<path d="M343.2,156.9H142.8c-9.9,0-18,8.1-18,18c0,9.9,8,18,18,18h200.4c9.9,0,18-8.1,18-18C361.2,165,353.1,156.9,343.2,156.9z"
			/>
	</g>
</g>
<g>
	<g>
		<path d="M343.2,292.9H142.8c-9.9,0-18,8.1-18,18c0,9.9,8,18,18,18h200.4c9.9,0,18-8.1,18-18C361.2,301,353.1,292.9,343.2,292.9z"
			/>
	</g>
</g>
<g>
</g>
<g>
</g>
<g>
</g>
<g>
</g>
<g>
</g>
<g>
</g>
<g>
</g>
<g>
</g>
<g>
</g>
<g>
</g>
<g>
</g>
<g>
</g>
<g>
</g>
<g>
</g>
<g>
</g>
</svg>
