<?xml version="1.0" encoding="iso-8859-1"?>
<!-- Generator: Adobe Illustrator 19.0.0, SVG Export Plug-In . SVG Version: 6.00 Build 0)  -->
<svg version="1.1" id="Layer_1" xmlns="http://www.w3.org/2000/svg" xmlns:xlink="http://www.w3.org/1999/xlink" x="0px" y="0px"
	 viewBox="0 0 482.625 482.625" style="enable-background:new 0 0 482.625 482.625;" xml:space="preserve">
<g>
	<g>
		<path d="M437.1,186.187c-9.9,0-18,8.1-18,18v128.2c0,14-11.4,25.4-25.4,25.4H230.4c-9.9,0-18,8.1-18,18c0,9.9,8.1,18.1,18,18.1
			h163.3c33.9,0,61.4-27.6,61.4-61.4v-128.3C455.1,194.288,447,186.187,437.1,186.187z"/>
	</g>
</g>
<g>
	<g>
		<path d="M287.1,33.588H61.4c-33.9,0-61.4,27.6-61.4,61.4v237.4c0,31,23.1,56.8,53.1,60.9v52.5c0,9.9,5.9,18.7,15,22.5
			c3,1.3,6.2,1.9,9.3,1.9c6.3,0,12.5-2.5,17.2-7.1l74.4-74.4c7-7,7-18.4,0-25.5c-7-7-18.4-7-25.5,0l-54.5,54.5v-41.8
			c0-9.9-8.1-18-18-18h-9.6c-14,0-25.4-11.4-25.4-25.4v-237.5c0-14,11.4-25.4,25.4-25.4h225.7c9.9,0,18-8.1,18-18
			C305.1,41.688,297,33.588,287.1,33.588z"/>
	</g>
</g>
<g>
	<g>
		<path d="M433.9,86.387l43.4-43.2c7.1-7,7.1-18.4,0-25.5c-7-7-18.4-7-25.5,0l-43.2,43.2l-43.2-43.2c-7-7-18.4-7-25.5,0
			c-7,7-7,18.4,0,25.5l43.2,43.2l-43.2,43.2c-7,7-7,18.4,0,25.5c3.5,3.5,8.1,5.3,12.7,5.3c4.6,0,9.2-1.8,12.7-5.3l43.2-43.2
			l43.2,43.2c3.5,3.5,8.1,5.3,12.7,5.3c4.6,0,9.2-1.8,12.7-5.3c7-7,7-18.4,0-25.5L433.9,86.387z"/>
	</g>
</g>
<g>
</g>
<g>
</g>
<g>
</g>
<g>
</g>
<g>
</g>
<g>
</g>
<g>
</g>
<g>
</g>
<g>
</g>
<g>
</g>
<g>
</g>
<g>
</g>
<g>
</g>
<g>
</g>
<g>
</g>
</svg>
