<?xml version="1.0" encoding="iso-8859-1"?>
<!-- Generator: Adobe Illustrator 19.0.0, SVG Export Plug-In . SVG Version: 6.00 Build 0)  -->
<svg version="1.1" id="Layer_1" xmlns="http://www.w3.org/2000/svg" xmlns:xlink="http://www.w3.org/1999/xlink" x="0px" y="0px"
	 viewBox="0 0 490 490" style="enable-background:new 0 0 490 490;" xml:space="preserve">
<g>
	<g>
		<path d="M404.6,227c-9.9,0-18,8.1-18,18c0,24-19.5,43.5-43.5,43.5S299.5,269,299.5,245s19.5-43.5,43.5-43.5c9.9,0,18-8.1,18-18
			c0-9.9-8.1-18-18-18c-43.9,0-79.5,35.7-79.5,79.5s35.7,79.5,79.5,79.5s79.5-35.7,79.5-79.5C422.6,235.1,414.6,227,404.6,227z"/>
	</g>
</g>
<g>
	<g>
		<path d="M343.6,98.6H146.4C65.7,98.6,0,164.3,0,245s65.7,146.4,146.4,146.4h197.2c80.7,0,146.4-65.7,146.4-146.4
			S424.3,98.6,343.6,98.6z M343.6,355.4H146.4C85.5,355.4,36,305.9,36,245c0-60.9,49.5-110.4,110.4-110.4h197.2
			c60.9,0,110.4,49.5,110.4,110.4C454,305.9,404.5,355.4,343.6,355.4z"/>
	</g>
</g>
<g>
</g>
<g>
</g>
<g>
</g>
<g>
</g>
<g>
</g>
<g>
</g>
<g>
</g>
<g>
</g>
<g>
</g>
<g>
</g>
<g>
</g>
<g>
</g>
<g>
</g>
<g>
</g>
<g>
</g>
</svg>
