<?xml version="1.0" encoding="iso-8859-1"?>
<!-- Generator: Adobe Illustrator 19.0.0, SVG Export Plug-In . SVG Version: 6.00 Build 0)  -->
<svg version="1.1" id="Layer_1" xmlns="http://www.w3.org/2000/svg" xmlns:xlink="http://www.w3.org/1999/xlink" x="0px" y="0px"
	 viewBox="0 0 482.4 482.4" style="enable-background:new 0 0 482.4 482.4;" xml:space="preserve">
<g>
	<g>
		<path d="M458.6,23.786c-14.5-14.5-34.5-22.9-56.3-23.7c-20.7-0.8-41.9,5-61.1,16.8c-8.5,5.2-11.2,16.3-6,24.7
			c5.2,8.5,16.3,11.2,24.7,6c26.1-16,56.2-15.3,73.2,1.7c10,10,14.6,24.5,12.9,40.8c-1.8,17.7-10.5,35.1-24.5,49.1
			s-31.5,22.7-49.1,24.5c-16.3,1.6-30.8-3-40.8-12.9c-6.5-6.5-15.1-10-24.2-10c-9.2,0-17.8,3.6-24.3,10c-6.5,6.5-10,15.1-10,24.3
			s3.6,17.8,10.1,24.3s15.1,10,24.2,10c9.2,0,17.8-3.6,24.3-10c1.4-1.4,2.7-2.9,3.8-4.5c9.5,3.4,19.7,5.2,30.5,5.2
			c3.3,0,6.7-0.2,10.1-0.5c0.3,0,0.6-0.1,0.9-0.1l3.1,44.9c0.7,10.2-3.1,20.2-10.3,27.5l-167.7,167.5c-9.4,9.4-24.8,9.4-34.2,0
			L43,314.486c-4.6-4.6-7.1-10.7-7.1-17.1c0-6.5,2.5-12.5,7.1-17.1l167.6-167.6c7.2-7.2,17.2-11,27.4-10.3l148.9,9.9
			c9.9,0.7,18.5-6.8,19.2-16.8c0.7-9.9-6.8-18.5-16.8-19.2l-148.9-9.9c-20.5-1.4-40.7,6.2-55.2,20.8l-167.6,167.6
			c-11.4,11.4-17.6,26.5-17.6,42.6c0,16.1,6.3,31.2,17.6,42.6l124.8,124.8c11.7,11.7,27.2,17.6,42.6,17.6c15.4,0,30.8-5.9,42.6-17.6
			l167.6-167.6c14.6-14.6,22.2-34.8,20.8-55.4l-3.6-52.6c12.6-6,24.3-14.3,34.7-24.6c19.8-19.8,32.2-45,34.8-70.9
			C484.6,66.386,476.3,41.586,458.6,23.786z"/>
	</g>
</g>
<g>
</g>
<g>
</g>
<g>
</g>
<g>
</g>
<g>
</g>
<g>
</g>
<g>
</g>
<g>
</g>
<g>
</g>
<g>
</g>
<g>
</g>
<g>
</g>
<g>
</g>
<g>
</g>
<g>
</g>
</svg>
