<?xml version="1.0" encoding="iso-8859-1"?>
<!-- Generator: Adobe Illustrator 19.0.0, SVG Export Plug-In . SVG Version: 6.00 Build 0)  -->
<svg version="1.1" id="Layer_1" xmlns="http://www.w3.org/2000/svg" xmlns:xlink="http://www.w3.org/1999/xlink" x="0px" y="0px"
	 viewBox="0 0 490 490" style="enable-background:new 0 0 490 490;" xml:space="preserve">
<g>
	<g>
		<path d="M262.7,76.6V18c0.1-9.9-7.9-18-17.9-18c-9.9,0-18,8.1-18,18v43.4c-48.4,4.7-93,28.3-124.3,66.2c-6.3,7.7-5.2,19,2.4,25.3
			c3.4,2.8,7.4,4.1,11.4,4.1c5.2,0,10.3-2.2,13.9-6.5c24.5-29.7,58.9-48.4,96.5-53v41.4c0,9.9,8.1,18,18,18s18-8.1,18-18V80.2
			c0.1-0.6,0.1-1.2,0.1-1.8C262.8,77.8,262.8,77.2,262.7,76.6z"/>
	</g>
</g>
<g>
	<g>
		<path d="M384.9,337.1c-7.7-6.3-19-5.2-25.3,2.4c-24.5,29.7-59,48.4-96.6,53v-41.7c0-9.9-8.1-18-18-18c-9.9,0-18,8.1-18,18V472
			c-0.1,9.9,8,18,17.9,18c9.9,0,18-8.1,18-18v-43.3c48.4-4.7,93-28.3,124.4-66.3C393.6,354.7,392.5,343.4,384.9,337.1z"/>
	</g>
</g>
<g>
	<g>
		<path d="M150.5,359.7c-29.7-24.5-48.5-59.1-53-96.8h41.4c9.9,0,18-8.1,18-18c0-9.9-8.1-18-18-18H18.1c-9.9,0-18,8.1-18,18
			c0,9.9,8,18,18,18h43.2c4.7,48.5,28.3,93.2,66.3,124.6c3.4,2.8,7.4,4.1,11.4,4.1c5.2,0,10.3-2.2,13.9-6.6
			C159.2,377.3,158.1,366,150.5,359.7z"/>
	</g>
</g>
<g>
	<g>
		<path d="M471.9,226.9h-43.4c-4.7-48.5-28.4-93.2-66.5-124.5c-7.7-6.3-19-5.2-25.3,2.5c-6.3,7.7-5.2,19,2.5,25.3
			c29.8,24.5,48.6,59,53.2,96.7h-41.5c-9.9,0-18,8.1-18,18c0,9.9,8.1,18,18,18h58.7c0.6,0.1,1.2,0.1,1.8,0.1c0.6,0,1.3,0,1.9-0.1
			h58.6c9.9,0,18-8.1,18-18C489.9,235,481.8,226.9,471.9,226.9z"/>
	</g>
</g>
<g>
	<g>
		<circle cx="245" cy="245" r="19.9"/>
	</g>
</g>
<g>
</g>
<g>
</g>
<g>
</g>
<g>
</g>
<g>
</g>
<g>
</g>
<g>
</g>
<g>
</g>
<g>
</g>
<g>
</g>
<g>
</g>
<g>
</g>
<g>
</g>
<g>
</g>
<g>
</g>
</svg>
