<?xml version="1.0" encoding="iso-8859-1"?>
<!-- Generator: Adobe Illustrator 19.0.0, SVG Export Plug-In . SVG Version: 6.00 Build 0)  -->
<svg version="1.1" id="Layer_1" xmlns="http://www.w3.org/2000/svg" xmlns:xlink="http://www.w3.org/1999/xlink" x="0px" y="0px"
	 viewBox="0 0 489.779 489.779" style="enable-background:new 0 0 489.779 489.779;" xml:space="preserve">
<g>
	<g>
		<path d="M472.774,80.97c-17.9-21.1-41.5-33.4-57.7-40.8c-38.8-17.9-80.8-28.4-132.3-33.2c-62.2-5.5-123.1,1.9-180.8,22h-0.1
			c-22.1,7.9-50.6,19.6-74.7,40.8c-19,16.8-28.1,37.4-27.1,61.2c0,0.3,0,0.6,0.1,0.9c0.8,8.5,0.6,17.3,0.5,26.5
			c-0.1,3.9-0.1,7.9-0.1,12c0,0.1,0,0.2,0,0.3c0.6,29.7,20.7,49.6,50,49.6h70.3c14.1,0.3,26.3-4.3,35.3-13.1
			c9.2-9,14.1-21.5,14.1-36.1v-37.1c0-9.9-8.1-18-18-18c-9.9,0-18,8.1-18,18v37.1c0,3.3-0.6,7.7-3.2,10.4c-2.5,2.4-6.6,2.9-9.6,2.8
			c-0.1,0-0.3,0-0.4,0h-70.6c-9.6,0-13.7-4.2-14-14.2c0-3.6,0.1-7.3,0.1-11.1c0.2-9.7,0.3-19.7-0.6-29.9c-0.4-12.8,4.2-22.8,15-32.3
			c19.4-17.1,43.8-27,62.9-33.8c52.9-18.4,108.7-25.2,165.7-20.1c47.2,4.4,85.5,13.9,120.5,30c21,9.6,35,19.3,45.2,31.3
			c5.9,7.1,8.7,14.7,8.7,24v43.5c-0.3,12-7.7,13.4-13.2,13.4c-0.2,0-0.4,0-0.6,0c-7.4,0.3-14.8,0.2-22.7,0.1c-4,0-8.1-0.1-12.3-0.1
			h-34.8c-10.3,0-14-3.7-14-14c0-4,0-7.4-0.1-10.6c-0.1-8.4-0.1-15,0.4-25.1c0-0.3,0-0.7,0-1c0-15.8-10.8-21.2-14.4-23
			c-0.4-0.2-0.8-0.4-1.2-0.5c-16-6.6-33.2-10.8-55.8-13.4c-0.1,0-0.2,0-0.2,0c-28.2-2.9-54-2.9-79.1-0.1c-9.9,1.1-17,10.1-15.8,19.9
			c1.1,9.9,10.1,17,19.9,15.8c22.3-2.6,45.6-2.5,71.1,0.1c15.7,1.8,28.1,4.4,39.1,8.2c-0.2,7.1-0.2,12.9-0.1,19.3
			c0,3.1,0.1,6.5,0.1,10.3c0,30.4,19.6,50,50,50h34.8c4,0,8,0,11.9,0.1c3.9,0,7.9,0.1,11.9,0.1s8.1,0,12.1-0.2
			c28.2-0.2,48.2-20.2,48.8-48.8c0-0.1,0-0.3,0-0.4v-43.7C489.974,110.37,484.174,94.47,472.774,80.97z"/>
	</g>
</g>
<g>
	<g>
		<path d="M259.874,260.37h-29.7c-9.9,0-18,8.1-18,18c0,9.9,8,18,18,18h29.7c9.9,0,18-8.1,18-18
			C277.874,268.47,269.774,260.37,259.874,260.37z"/>
	</g>
</g>
<g>
	<g>
		<path d="M364.374,260.37h-29.7c-9.9,0-18,8.1-18,18c0,9.9,8.1,18,18,18h29.7c9.9,0,18-8.1,18-18
			C382.374,268.47,374.274,260.37,364.374,260.37z"/>
	</g>
</g>
<g>
	<g>
		<path d="M155.274,260.37h-29.7c-9.9,0-18,8.1-18,18c0,9.9,8,18,18,18h29.7c9.9,0,18-8.1,18-18
			C173.274,268.47,165.174,260.37,155.274,260.37z"/>
	</g>
</g>
<g>
	<g>
		<path d="M259.874,323.17h-29.7c-9.9,0-18,8.1-18,18c0,9.9,8,18,18,18h29.7c9.9,0,18-8.1,18-18
			C277.874,331.27,269.774,323.17,259.874,323.17z"/>
	</g>
</g>
<g>
	<g>
		<path d="M364.374,323.17h-29.7c-9.9,0-18,8.1-18,18c0,9.9,8.1,18,18,18h29.7c9.9,0,18-8.1,18-18
			C382.374,331.27,374.274,323.17,364.374,323.17z"/>
	</g>
</g>
<g>
	<g>
		<path d="M155.274,323.17h-29.7c-9.9,0-18,8.1-18,18c0,9.9,8,18,18,18h29.7c9.9,0,18-8.1,18-18
			C173.274,331.27,165.174,323.17,155.274,323.17z"/>
	</g>
</g>
<g>
	<g>
		<path d="M259.874,385.87h-29.7c-9.9,0-18,8.1-18,18c0,9.9,8,18,18,18h29.7c9.9,0,18-8.1,18-18
			C277.874,393.97,269.774,385.87,259.874,385.87z"/>
	</g>
</g>
<g>
	<g>
		<path d="M364.374,385.87h-29.7c-9.9,0-18,8.1-18,18c0,9.9,8.1,18,18,18h29.7c9.9,0,18-8.1,18-18
			C382.374,393.97,374.274,385.87,364.374,385.87z"/>
	</g>
</g>
<g>
	<g>
		<path d="M155.274,385.87h-29.7c-9.9,0-18,8.1-18,18c0,9.9,8,18,18,18h29.7c9.9,0,18-8.1,18-18
			C173.274,393.97,165.174,385.87,155.274,385.87z"/>
	</g>
</g>
<g>
	<g>
		<path d="M259.874,448.57h-29.7c-9.9,0-18,8.1-18,18c0,9.9,8,18,18,18h29.7c9.9,0,18-8.1,18-18
			C277.874,456.67,269.774,448.57,259.874,448.57z"/>
	</g>
</g>
<g>
</g>
<g>
</g>
<g>
</g>
<g>
</g>
<g>
</g>
<g>
</g>
<g>
</g>
<g>
</g>
<g>
</g>
<g>
</g>
<g>
</g>
<g>
</g>
<g>
</g>
<g>
</g>
<g>
</g>
</svg>
