<?xml version="1.0" encoding="iso-8859-1"?>
<!-- Generator: Adobe Illustrator 19.0.0, SVG Export Plug-In . SVG Version: 6.00 Build 0)  -->
<svg version="1.1" id="Layer_1" xmlns="http://www.w3.org/2000/svg" xmlns:xlink="http://www.w3.org/1999/xlink" x="0px" y="0px"
	 viewBox="0 0 489.35 489.35" style="enable-background:new 0 0 489.35 489.35;" xml:space="preserve">
<g>
	<g>
		<path d="M483.95,140.175c-6.9-7-18.3-7-25.3,0l-5.4,5.4v-45.7c0-54.9-44.7-99.6-99.6-99.6h-42.7c-9.9,0-18,8.1-18,18
			c0,9.9,8.1,18,18,18h42.7c35.1,0,63.6,28.5,63.6,63.6v45.7l-5.4-5.4c-7-7-18.4-7-25.5,0c-7,7-7,18.4,0,25.5l36.1,36.1
			c3.5,3.5,8.1,5.3,12.7,5.3c4.6,0,9.2-1.8,12.7-5.3l36.1-36.1C490.95,158.675,490.95,147.275,483.95,140.175z"/>
	</g>
</g>
<g>
	<g>
		<path d="M178.35,453.075h-42.7c-35.1,0-63.6-28.5-63.6-63.6v-45.7l5.4,5.4c3.5,3.5,8.1,5.3,12.7,5.3s9.2-1.8,12.7-5.3
			c7-7,7-18.4,0-25.5l-36.1-36.1c-7-7-18.4-7-25.5,0l-36,36.1c-7,7-7,18.4,0,25.5c7,7,18.4,7,25.4,0l5.4-5.4v45.7
			c0,54.9,44.7,99.6,99.6,99.6h42.7c9.9,0,18-8.1,18-18C196.35,461.175,188.25,453.075,178.35,453.075z"/>
	</g>
</g>
<g>
	<g>
		<path d="M471.35,347.975c-9.9,0-18,8.1-18,18v86.1h-149v-149h167c9.9,0,18-8.1,18-18c0-9.9-8.1-18-18-18h-185c-9.9,0-18,8.1-18,18
			v185c0,9.9,8.1,18,18,18h185c9.9,0,18-8.1,18-18v-104.1C489.35,356.075,481.25,347.975,471.35,347.975z"/>
	</g>
</g>
<g>
	<g>
		<path d="M206.65,83.275c-9.9,0-18,8.1-18,18v86.1h-149v-149h167c9.9,0,18-8.1,18-18c0-9.9-8.1-18-18-18h-185c-9.9,0-18,8.1-18,18
			v185c0,9.9,8.1,18,18,18h185c9.9,0,18-8.1,18-18v-104.1C224.65,91.375,216.55,83.275,206.65,83.275z"/>
	</g>
</g>
<g>
</g>
<g>
</g>
<g>
</g>
<g>
</g>
<g>
</g>
<g>
</g>
<g>
</g>
<g>
</g>
<g>
</g>
<g>
</g>
<g>
</g>
<g>
</g>
<g>
</g>
<g>
</g>
<g>
</g>
</svg>
