<?xml version="1.0" encoding="iso-8859-1"?>
<!-- Generator: Adobe Illustrator 19.0.0, SVG Export Plug-In . SVG Version: 6.00 Build 0)  -->
<svg version="1.1" id="Layer_1" xmlns="http://www.w3.org/2000/svg" xmlns:xlink="http://www.w3.org/1999/xlink" x="0px" y="0px"
	 viewBox="0 0 487.4 487.4" style="enable-background:new 0 0 487.4 487.4;" xml:space="preserve">
<g>
	<g>
		<path d="M387.85,36h-45.3l5.2-5.2c7-7,7-18.4,0-25.5c-7-7-18.4-7-25.5,0l-36,36c-7,7-7,18.4,0,25.5l36.1,35.9
			c3.5,3.5,8.1,5.3,12.7,5.3c4.6,0,9.2-1.8,12.7-5.3c7-7,7-18.4,0-25.5l-5.2-5.2h45.3c34.9,0,63.2,28.4,63.2,63.2v42.5
			c0,9.9,8.1,18,18,18c9.9,0,18-8.1,18-18v-42.5C487.05,80.5,442.55,36,387.85,36z"/>
	</g>
</g>
<g>
	<g>
		<path d="M201.15,420.6l-36-36c-7-7-18.4-7-25.5,0c-7.1,7-7,18.4,0,25.5l5.2,5.2h-45.3c-34.9,0-63.2-28.4-63.2-63.2v-42.4
			c0-9.9-8.1-18-18-18c-9.9,0-18,8.1-18,18v42.5c0.1,54.7,44.6,99.2,99.3,99.2h45.3l-5.2,5.2c-7,7-7,18.4,0,25.5
			c3.5,3.5,8.1,5.3,12.7,5.3s9.2-1.8,12.7-5.3l36-36C208.15,439.1,208.15,427.7,201.15,420.6z"/>
	</g>
</g>
<g>
	<g>
		<path d="M203.55,80.5c-9.9,0-18,8.1-18,18v85.7H37.35V36h166.2c9.9,0,18-8.1,18-18c0-9.9-8.1-18-18-18H19.35c-9.9,0-18,8.1-18,18
			v184.2c0,10,8.1,18,18,18h184.2c9.9,0,18-8.1,18-18V98.5C221.55,88.6,213.45,80.5,203.55,80.5z"/>
	</g>
</g>
<g>
	<g>
		<path d="M467.05,344c-9.9,0-18,8.1-18,18v85.7h-148.2V299.5h166.2c9.9,0,18-8.1,18-18c0-9.9-8.1-18-18-18h-184.2
			c-9.9,0-18,8.1-18,18v184.2c0,9.9,8,18,18,18h184.2c9.9,0,18-8.1,18-18V362C485.05,352.1,476.95,344,467.05,344z"/>
	</g>
</g>
<g>
</g>
<g>
</g>
<g>
</g>
<g>
</g>
<g>
</g>
<g>
</g>
<g>
</g>
<g>
</g>
<g>
</g>
<g>
</g>
<g>
</g>
<g>
</g>
<g>
</g>
<g>
</g>
<g>
</g>
</svg>
