<?xml version="1.0" encoding="iso-8859-1"?>
<!-- Generator: Adobe Illustrator 19.0.0, SVG Export Plug-In . SVG Version: 6.00 Build 0)  -->
<svg version="1.1" id="Layer_1" xmlns="http://www.w3.org/2000/svg" xmlns:xlink="http://www.w3.org/1999/xlink" x="0px" y="0px"
	 viewBox="0 0 487.6 487.6" style="enable-background:new 0 0 487.6 487.6;" xml:space="preserve">
<g>
	<g>
		<path d="M454.5,75.3H352.1v-24c0-28.3-23-51.3-51.3-51.3h-114c-28.3,0-51.3,23-51.3,51.3v23.9H33.1c-9.9,0-18,8.1-18,18
			c0,9.9,8.1,18,18,18h27.2V425c0,34.5,28.1,62.6,62.6,62.6h241.9c34.5,0,62.6-28.1,62.6-62.6V168.5c0-9.9-8.1-18-18-18
			c-9.9,0-18,8.1-18,18V425c0,14.6-11.9,26.6-26.6,26.6h-242c-14.6,0-26.6-11.9-26.6-26.6V111.3h358.3c10,0,18-8.1,18-18
			S464.4,75.3,454.5,75.3z M316.1,75.2H171.5V51.3c0-8.4,6.9-15.3,15.3-15.3h114c8.5,0,15.3,6.9,15.3,15.3V75.2z"/>
	</g>
</g>
<g>
	<g>
		<path d="M167.2,150.5c-9.9,0-18,8.1-18,18v41.4c0,9.9,8.1,18,18,18c9.9,0,18-8.1,18-18v-41.4C185.2,158.6,177.1,150.5,167.2,150.5
			z"/>
	</g>
</g>
<g>
	<g>
		<path d="M167.2,263.4c-9.9,0-18,8.1-18,18v112.9c0,9.9,8.1,18,18,18c9.9,0,18-8.1,18-18V281.4
			C185.2,271.5,177.1,263.4,167.2,263.4z"/>
	</g>
</g>
<g>
	<g>
		<path d="M243.8,150.5c-9.9,0-18,8.1-18,18v122.2c0,9.9,8.1,18,18,18c9.9,0,18-8.1,18-18V168.5
			C261.8,158.6,253.7,150.5,243.8,150.5z"/>
	</g>
</g>
<g>
	<g>
		<path d="M243.8,344.2c-9.9,0-18,8.1-18,18v32.1c0,9.9,8.1,18,18,18c9.9,0,18-8.1,18-18v-32.1C261.8,352.3,253.7,344.2,243.8,344.2
			z"/>
	</g>
</g>
<g>
	<g>
		<path d="M320.4,150.5c-9.9,0-18,8.1-18,18v63c0,9.9,8.1,18,18,18c9.9,0,18-8.1,18-18v-63C338.4,158.6,330.3,150.5,320.4,150.5z"/>
	</g>
</g>
<g>
	<g>
		<path d="M320.4,285c-9.9,0-18,8.1-18,18v91.3c0,9.9,8.1,18,18,18c9.9,0,18-8.1,18-18V303C338.4,293.1,330.4,285,320.4,285z"/>
	</g>
</g>
<g>
</g>
<g>
</g>
<g>
</g>
<g>
</g>
<g>
</g>
<g>
</g>
<g>
</g>
<g>
</g>
<g>
</g>
<g>
</g>
<g>
</g>
<g>
</g>
<g>
</g>
<g>
</g>
<g>
</g>
</svg>
