<?xml version="1.0" encoding="iso-8859-1"?>
<!-- Generator: Adobe Illustrator 19.0.0, SVG Export Plug-In . SVG Version: 6.00 Build 0)  -->
<svg version="1.1" id="Layer_1" xmlns="http://www.w3.org/2000/svg" xmlns:xlink="http://www.w3.org/1999/xlink" x="0px" y="0px"
	 viewBox="0 0 478.838 478.838" style="enable-background:new 0 0 478.838 478.838;" xml:space="preserve">
<g>
	<g>
		<path d="M426.038,96.877c-39.3-33.2-80.4-55.4-122-66.1c-34.9-9-70.3-9.9-105.3-2.8c-48.9,10-86.5,33.5-107.8,49.8l-34.2-34.2
			c-7-7-18.4-7-25.5,0c-7,7-7,18.4,0,25.5l45.7,45.7c6.7,6.7,17.5,7.1,24.6,0.8c30.9-27.3,136.8-103.6,269.9-14.8
			c-2.2,0.9-4.4,1.9-6.7,3c-22.5,11.1-52.2,35.5-69.6,88.6c-17.1,4.9-50.8,17.4-79.5,46.1c-28.8,28.8-41.6,62.8-46.5,80
			c-53.2,17.3-77.5,47.1-88.7,69.6c-1.1,2.3-2.1,4.5-3,6.7c-64-95.8-43-178.2-11.7-232.6c5-8.6,2-19.6-6.6-24.6
			c-8.6-5-19.6-2-24.6,6.6c-33.1,57.4-72,173.4,39,305.1c3.5,4.1,8.6,6.3,13.8,6.3c2.4,0,4.7-0.5,7-1.4c7.3-3.1,11.7-10.5,10.9-18.3
			c-0.1-0.6-5-61.2,83.7-85.8c6.7-1.8,11.7-7.3,12.9-14.1c0.1-0.4,8-40.8,39.3-72.1c31.3-31.3,71-38.7,71.4-38.7
			c6.9-1.2,12.4-6.2,14.3-12.9c24-86.4,82.1-84,85.9-83.7c7.9,0.9,15.2-3.5,18.4-10.7
			C434.337,110.577,432.137,102.077,426.038,96.877z"/>
	</g>
</g>
<g>
	<g>
		<path d="M459.738,323.577l-20.7-20.7c-7-7-18.4-7-25.5,0c-7,7-7,18.4,0,25.5l20.7,20.7c5.5,5.5,8.5,12.8,8.5,20.6
			c0,7.8-3,15.1-8.5,20.6c-5.5,5.5-12.8,8.5-20.6,8.5s-15.1-3-20.6-8.5l-106.1-106.1c-7-7-18.4-7-25.5,0c-7,7-7,18.4,0,25.5
			l106.1,106.1c12.3,12.3,28.7,19.1,46.1,19.1c17.4,0,33.8-6.8,46.1-19.1c12.3-12.3,19.1-28.7,19.1-46.1
			C478.838,352.277,472.038,335.877,459.738,323.577z"/>
	</g>
</g>
<g>
</g>
<g>
</g>
<g>
</g>
<g>
</g>
<g>
</g>
<g>
</g>
<g>
</g>
<g>
</g>
<g>
</g>
<g>
</g>
<g>
</g>
<g>
</g>
<g>
</g>
<g>
</g>
<g>
</g>
</svg>
