<?xml version="1.0" encoding="iso-8859-1"?>
<!-- Generator: Adobe Illustrator 19.0.0, SVG Export Plug-In . SVG Version: 6.00 Build 0)  -->
<svg version="1.1" id="Layer_1" xmlns="http://www.w3.org/2000/svg" xmlns:xlink="http://www.w3.org/1999/xlink" x="0px" y="0px"
	 viewBox="0 0 500 500" style="enable-background:new 0 0 500 500;" xml:space="preserve">
<g>
	<g>
		<path d="M441.9,295.675H336.1c-9.9,0-18,8.1-18,18c0,9.9,8.1,18,18,18h105.8c12.2,0,22.1,9.9,22.1,22.1v84.1
			c0,12.2-9.9,22.1-22.1,22.1H58.1c-12.2,0-22.1-9.9-22.1-22.1v-84.1c0-12.2,9.9-22.1,22.1-22.1h97.8c3.9,20.3,14.2,38.9,29.7,52.9
			c17.7,16,40.5,24.9,64.4,24.9c9.9,0,18-8.1,18-18c0-9.9-8.1-18-18-18c-30.8,0-56.3-23-59.5-53.6c-1.4-13.8-12.8-24.2-26.6-24.2
			H58.1c-32.1,0-58.1,26-58.1,58.1v84.1c0,32,26,58.1,58.1,58.1h383.8c32.1,0,58.1-26.1,58.1-58.1v-84.1
			C500,321.675,474,295.675,441.9,295.675z"/>
	</g>
</g>
<g>
	<g>
		<path d="M342.8,89.375l-80.1-80.1c-7-7-18.4-7-25.5,0l-80.1,80.1c-7,7-7,18.4,0.1,25.4c7,7,18.4,7,25.5,0l49.3-49.3v248.2
			c0,9.9,8.1,18,18,18c9.9,0,18-8.1,18-18v-248.2l49.4,49.4c3.5,3.5,8.1,5.3,12.7,5.3c4.6,0,9.2-1.8,12.7-5.3
			C349.8,107.875,349.8,96.475,342.8,89.375z"/>
	</g>
</g>
<g>
</g>
<g>
</g>
<g>
</g>
<g>
</g>
<g>
</g>
<g>
</g>
<g>
</g>
<g>
</g>
<g>
</g>
<g>
</g>
<g>
</g>
<g>
</g>
<g>
</g>
<g>
</g>
<g>
</g>
</svg>
