<?xml version="1.0" encoding="iso-8859-1"?>
<!-- Generator: Adobe Illustrator 19.0.0, SVG Export Plug-In . SVG Version: 6.00 Build 0)  -->
<svg version="1.1" id="Layer_1" xmlns="http://www.w3.org/2000/svg" xmlns:xlink="http://www.w3.org/1999/xlink" x="0px" y="0px"
	 viewBox="0 0 492 492" style="enable-background:new 0 0 492 492;" xml:space="preserve">
<g>
	<g>
		<path d="M365.7,112.3l-107-107c-3.4-3.4-8-5.3-12.7-5.3c-4.8,0-9.4,1.9-12.7,5.3l-107,107c-7,7-7,18.4,0,25.5c7,7,18.4,7,25.5,0
			L228,61.5v310.6c0,9.9,8.1,18,18,18c9.9,0,18-8.1,18-18V61.5l76.3,76.3c3.5,3.5,8.1,5.3,12.7,5.3c4.6,0,9.2-1.8,12.7-5.3
			C372.7,130.8,372.7,119.4,365.7,112.3z"/>
	</g>
</g>
<g>
	<g>
		<path d="M440,336.4c-9.9,0-18,8.1-18,18V456H70V354.4c0-9.9-8.1-18-18-18s-18,8.1-18,18V474c0,9.9,8.1,18,18,18h388
			c10,0,18-8.1,18-18V354.4C458,344.5,449.9,336.4,440,336.4z"/>
	</g>
</g>
<g>
</g>
<g>
</g>
<g>
</g>
<g>
</g>
<g>
</g>
<g>
</g>
<g>
</g>
<g>
</g>
<g>
</g>
<g>
</g>
<g>
</g>
<g>
</g>
<g>
</g>
<g>
</g>
<g>
</g>
</svg>
