<?xml version="1.0" encoding="iso-8859-1"?>
<!-- Generator: Adobe Illustrator 19.0.0, SVG Export Plug-In . SVG Version: 6.00 Build 0)  -->
<svg version="1.1" id="Layer_1" xmlns="http://www.w3.org/2000/svg" xmlns:xlink="http://www.w3.org/1999/xlink" x="0px" y="0px"
	 viewBox="0 0 491.95 491.95" style="enable-background:new 0 0 491.95 491.95;" xml:space="preserve">
<g>
	<g>
		<path d="M365.675,112.25l-107-107c-7-7-18.4-7-25.5,0l-107,107c-7,7-7,18.4,0,25.5c7.1,7,18.5,7,25.5-0.1l76.3-76.2v310.6
			c0,9.9,8.1,18,18,18c9.9,0,18-8.1,18-18V61.45l76.3,76.3c3.5,3.5,8.1,5.3,12.7,5.3c4.6,0,9.2-1.8,12.7-5.3
			C372.675,130.75,372.675,119.35,365.675,112.25z"/>
	</g>
</g>
<g>
	<g>
		<path d="M439.975,336.35c-9.9,0-18,8.1-18,18v101.6h-352v-101.6c0-9.9-8.1-18-18-18s-18,8.1-18,18v119.6c0,9.9,8,18,18,18h388
			c9.9,0,18-8.1,18-18v-119.6C457.975,344.45,449.875,336.35,439.975,336.35z"/>
	</g>
</g>
<g>
</g>
<g>
</g>
<g>
</g>
<g>
</g>
<g>
</g>
<g>
</g>
<g>
</g>
<g>
</g>
<g>
</g>
<g>
</g>
<g>
</g>
<g>
</g>
<g>
</g>
<g>
</g>
<g>
</g>
</svg>
