<?xml version="1.0" encoding="iso-8859-1"?>
<!-- Generator: Adobe Illustrator 19.0.0, SVG Export Plug-In . SVG Version: 6.00 Build 0)  -->
<svg version="1.1" id="Layer_1" xmlns="http://www.w3.org/2000/svg" xmlns:xlink="http://www.w3.org/1999/xlink" x="0px" y="0px"
	 viewBox="0 0 489.95 489.95" style="enable-background:new 0 0 489.95 489.95;" xml:space="preserve">
<g>
	<g>
		<path d="M364.225,111.75l-106.5-106.5c-7-7-18.4-7-25.5,0l-106.5,106.5c-7,7-7,18.4,0,25.5c7,7,18.4,7,25.5,0l75.8-75.8v196.2
			c0,9.9,8.1,18,18,18c9.9,0,18-8.1,18-18V61.45l75.8,75.8c3.5,3.5,8.1,5.3,12.7,5.3c4.6,0,9.2-1.8,12.7-5.3
			C371.225,130.25,371.225,118.85,364.225,111.75z"/>
	</g>
</g>
<g>
	<g>
		<path d="M245.025,311.25c-9.9,0-18,8.1-18,18v41.2c0,9.9,8.1,18,18,18c9.9,0,18-8.1,18-18v-41.2
			C263.025,319.35,254.925,311.25,245.025,311.25z"/>
	</g>
</g>
<g>
	<g>
		<path d="M438.125,334.85c-9.9,0-18,8.1-18,18v101.1h-350.3v-101.1c0-10-8-18-18-18c-9.9,0-18,8.1-18,18v119.1c0,9.9,8.1,18,18,18
			h386.3c9.9,0,18-8.1,18-18v-119.1C456.125,342.95,448.025,334.85,438.125,334.85z"/>
	</g>
</g>
<g>
</g>
<g>
</g>
<g>
</g>
<g>
</g>
<g>
</g>
<g>
</g>
<g>
</g>
<g>
</g>
<g>
</g>
<g>
</g>
<g>
</g>
<g>
</g>
<g>
</g>
<g>
</g>
<g>
</g>
</svg>
