<?xml version="1.0" encoding="iso-8859-1"?>
<!-- Generator: Adobe Illustrator 19.0.0, SVG Export Plug-In . SVG Version: 6.00 Build 0)  -->
<svg version="1.1" id="Layer_1" xmlns="http://www.w3.org/2000/svg" xmlns:xlink="http://www.w3.org/1999/xlink" x="0px" y="0px"
	 viewBox="0 0 490 490" style="enable-background:new 0 0 490 490;" xml:space="preserve">
<g>
	<g>
		<path d="M364.2,213.2L257.7,106.8c-7-7-18.4-7-25.5,0L125.7,213.3c-7,7-7,18.4,0,25.5c7,7,18.4,7,25.5,0L227,163v196.2
			c0,9.9,8.1,18,18,18c9.9,0,18-8.1,18-18V162.9l75.8,75.8c3.5,3.5,8.1,5.3,12.7,5.3c4.6,0,9.2-1.8,12.7-5.3
			C371.2,231.7,371.2,220.3,364.2,213.2z"/>
	</g>
</g>
<g>
	<g>
		<path d="M245,412.8c-9.9,0-18,8.1-18,18V472c0,9.9,8.1,18,18,18c9.9,0,18-8.1,18-18v-41.2C263,420.9,254.9,412.8,245,412.8z"/>
	</g>
</g>
<g>
	<g>
		<path d="M438.2,0H51.8c-9.9,0-18,8.1-18,18v119.1c0,9.9,8.1,18,18,18c9.9,0,18-8.1,18-18V36h350.3v101.1c0.1,10,8.1,18,18.1,18
			c9.9,0,18-8.1,18-18V18C456.2,8.1,448.1,0,438.2,0z"/>
	</g>
</g>
<g>
</g>
<g>
</g>
<g>
</g>
<g>
</g>
<g>
</g>
<g>
</g>
<g>
</g>
<g>
</g>
<g>
</g>
<g>
</g>
<g>
</g>
<g>
</g>
<g>
</g>
<g>
</g>
<g>
</g>
</svg>
