<?xml version="1.0" encoding="iso-8859-1"?>
<!-- Generator: Adobe Illustrator 19.0.0, SVG Export Plug-In . SVG Version: 6.00 Build 0)  -->
<svg version="1.1" id="Layer_1" xmlns="http://www.w3.org/2000/svg" xmlns:xlink="http://www.w3.org/1999/xlink" x="0px" y="0px"
	 viewBox="0 0 490.2 490.2" style="enable-background:new 0 0 490.2 490.2;" xml:space="preserve">
<g>
	<g>
		<path d="M244.9,222.9c-30.4,0-55.1-24.7-55.1-55.1s24.7-55.2,55.1-55.2c30.4,0,55.1,24.7,55.1,55.1c0,9.9,8.1,18,18,18
			c9.9,0,18-8.1,18-18c0-50.3-40.9-91.1-91.1-91.1s-91.1,40.9-91.1,91.1c0,27.8,12.5,52.7,32.2,69.5
			c-41.4,21.4-69.7,64.6-69.7,114.3v43.7c0,9.9,8.1,18,18,18c9.9,0,18-8.1,18-18v-43.7c0-51.1,41.6-92.6,92.6-92.6
			s92.6,41.6,92.6,92.6v43.7c0,9.9,8.1,18,18,18c9.9,0,18-8.1,18-18v-43.7C373.5,280.6,315.8,222.9,244.9,222.9z"/>
	</g>
</g>
<g>
	<g>
		<path d="M172.1,0h-154c-9.9,0-18,8.1-18,18v154c0,9.9,8.1,18,18,18s18-8.1,18-18V36h136c9.9,0,18-8.1,18-18
			C190.1,8.1,182,0,172.1,0z"/>
	</g>
</g>
<g>
	<g>
		<path d="M472.1,0h-154c-9.9,0-18,8.1-18,18c0,9.9,8.1,18,18,18h136v136c0,9.9,8.1,18,18,18c9.9,0,18-8.1,18-18V18
			C490.1,8.1,482,0,472.1,0z"/>
	</g>
</g>
<g>
	<g>
		<path d="M472.1,300.2c-9.9,0-18,8.1-18,18v136h-136c-9.9,0-18,8.1-18,18c0,9.9,8.1,18,18,18h154c9.9,0,18-8.1,18-18v-154
			C490.1,308.2,482,300.2,472.1,300.2z"/>
	</g>
</g>
<g>
	<g>
		<path d="M172.1,454.2h-136v-136c0-9.9-8.1-18-18-18s-18,8.1-18,18v154c0,9.9,8.1,18,18,18h154c9.9,0,18-8.1,18-18
			C190.1,462.3,182,454.2,172.1,454.2z"/>
	</g>
</g>
<g>
</g>
<g>
</g>
<g>
</g>
<g>
</g>
<g>
</g>
<g>
</g>
<g>
</g>
<g>
</g>
<g>
</g>
<g>
</g>
<g>
</g>
<g>
</g>
<g>
</g>
<g>
</g>
<g>
</g>
</svg>
