<?xml version="1.0" encoding="iso-8859-1"?>
<!-- Generator: Adobe Illustrator 19.0.0, SVG Export Plug-In . SVG Version: 6.00 Build 0)  -->
<svg version="1.1" id="Layer_1" xmlns="http://www.w3.org/2000/svg" xmlns:xlink="http://www.w3.org/1999/xlink" x="0px" y="0px"
	 viewBox="0 0 490 490" style="enable-background:new 0 0 490 490;" xml:space="preserve">
<g>
	<g>
		<path d="M414.3,297.6c-37.1-30.5-76.8-52.6-94.8-62v-50c9-9.2,14.1-21.5,14.1-34.6V81c0-44.7-36.4-81-81-81h-15.1
			c-44.7,0-81.1,36.4-81.1,81.1v70c0,13.1,5.1,25.4,14.1,34.6v59.2c0,9.9,8.1,18,18,18c9.9,0,18-8.1,18-18v-67.5c0-6-3-11.6-8-15
			c-3.8-2.5-6.1-6.8-6.1-11.3v-70c0-24.8,20.2-45.1,45.1-45.1h15.1c24.8,0,45,20.2,45,45v70c0,4.5-2.3,8.8-6.1,11.3c-5,3.3-8,9-8,15
			v67.5c0,8,4.6,15.5,11.8,19c8.7,4.3,54.2,27.2,96.1,61.7c3.7,3,5.8,7.5,5.8,12.3V454H92.8V337.7c0-4.8,2.1-9.3,5.8-12.3
			c10.4-8.6,21.9-17.1,34.2-25.4c8.2-5.6,10.4-16.8,4.8-25c-5.6-8.2-16.8-10.4-25-4.8c-13.2,8.9-25.6,18.2-36.9,27.4
			c-12,9.9-18.9,24.5-18.9,40.1V472c0,9.9,8.1,18,18,18h340.4c9.9,0,18-8.1,18-18V337.7C433.2,322.1,426.3,307.5,414.3,297.6z"/>
	</g>
</g>
<g>
</g>
<g>
</g>
<g>
</g>
<g>
</g>
<g>
</g>
<g>
</g>
<g>
</g>
<g>
</g>
<g>
</g>
<g>
</g>
<g>
</g>
<g>
</g>
<g>
</g>
<g>
</g>
<g>
</g>
</svg>
