<?xml version="1.0" encoding="iso-8859-1"?>
<!-- Generator: Adobe Illustrator 19.0.0, SVG Export Plug-In . SVG Version: 6.00 Build 0)  -->
<svg version="1.1" id="Layer_1" xmlns="http://www.w3.org/2000/svg" xmlns:xlink="http://www.w3.org/1999/xlink" x="0px" y="0px"
	 viewBox="0 0 487.4 487.4" style="enable-background:new 0 0 487.4 487.4;" xml:space="preserve">
<g>
	<g>
		<path d="M469.9,288.8c-32.4-26.6-66.9-46-83.4-54.7v-42.4c8-8.4,12.5-19.7,12.5-31.5V98.1c0-40.8-33.2-74-74-74h-13.3
			c-40.8,0-74,33.2-74,74v62.1c0,11.9,4.5,23.1,12.5,31.5v42.4c-16.5,8.7-51.1,28.1-83.4,54.7c-11.1,9.2-17.5,22.7-17.5,37.2v101.2
			H36v-93.3c0-2,0.9-3.8,2.3-5c29.9-24.6,62.3-40.9,68.5-43.9c6.9-3.4,11.4-10.5,11.4-18.2V218c0-6-3-11.6-8-15
			c-0.7-0.4-2.2-1.7-2.2-4v-50.6c0-15.2,12.4-27.6,27.6-27.6h10.9c15.2,0,27.6,12.4,27.6,27.6V199c0,2.3-1.5,3.6-2.2,4
			c-8.3,5.5-10.5,16.7-5,25c5.5,8.3,16.7,10.5,25,5c11.4-7.6,18.2-20.3,18.2-34v-50.6c0-35.1-28.5-63.6-63.6-63.6h-10.9
			c-35.1,0-63.6,28.5-63.6,63.6V199c0,10.1,3.7,19.6,10.2,27v31.2c-14.2,7.4-41.3,22.9-66.7,43.9C5.7,309.2,0,321.2,0,334v111.3
			c0,9.9,8.1,18,18,18h149.3c9.9,0,18-8.1,18-18V326c0-3.7,1.6-7.1,4.4-9.4c37-30.4,77.2-50.7,84.9-54.5
			c7.1-3.5,11.6-10.8,11.6-18.7v-59.9c0-6-3-11.6-8-15c-2.8-1.9-4.5-5-4.5-8.3V98.1c0-20.9,17-38,38-38h13.4c20.9,0,38,17,38,38
			v62.1c0,3.3-1.7,6.5-4.5,8.3c-5,3.3-8,9-8,15v59.9c0,7.9,4.6,15.2,11.6,18.7c7.7,3.8,47.9,24,84.9,54.5c2.8,2.3,4.4,5.7,4.4,9.4
			v101.2H243.7c-9.9,0-18,8.1-18,18c0,9.9,8.1,18,18,18h225.7c9.9,0,18-8.1,18-18V326C487.4,311.5,481,298,469.9,288.8z"/>
	</g>
</g>
<g>
</g>
<g>
</g>
<g>
</g>
<g>
</g>
<g>
</g>
<g>
</g>
<g>
</g>
<g>
</g>
<g>
</g>
<g>
</g>
<g>
</g>
<g>
</g>
<g>
</g>
<g>
</g>
<g>
</g>
</svg>
