<?xml version="1.0" encoding="iso-8859-1"?>
<!-- Generator: Adobe Illustrator 19.0.0, SVG Export Plug-In . SVG Version: 6.00 Build 0)  -->
<svg version="1.1" id="Layer_1" xmlns="http://www.w3.org/2000/svg" xmlns:xlink="http://www.w3.org/1999/xlink" x="0px" y="0px"
	 viewBox="0 0 488 488" style="enable-background:new 0 0 488 488;" xml:space="preserve">
<g>
	<g>
		<path d="M366.25,255.6c-6.7-7.3-18.1-7.8-25.4-1.1c-7.3,6.7-7.8,18.1-1.1,25.4c22.1,24.1,34.3,55.4,34.3,88.1v77.3
			c0,3.6-3,6.6-6.6,6.6h-247.1c-3.6,0-6.6-3-6.6-6.6V368c0-71.8,58.4-130.1,130.1-130.1c65.6,0,119-53.4,119-119S309.55,0,243.95,0
			s-119,53.4-119,119c0,19.6,4.9,39.1,14.1,56.3c4.7,8.8,15.6,12,24.4,7.3c8.8-4.7,12-15.6,7.3-24.4c-6.4-12-9.8-25.5-9.8-39.2
			c0-45.8,37.2-83,83-83s83,37.2,83,83s-37.2,83-83,83c-91.6,0-166.1,74.5-166.1,166.1v77.3c0,23.5,19.1,42.6,42.6,42.6h247.1
			c23.5,0,42.6-19.1,42.6-42.6v-77.3C410.15,326.3,394.55,286.4,366.25,255.6z"/>
	</g>
</g>
<g>
</g>
<g>
</g>
<g>
</g>
<g>
</g>
<g>
</g>
<g>
</g>
<g>
</g>
<g>
</g>
<g>
</g>
<g>
</g>
<g>
</g>
<g>
</g>
<g>
</g>
<g>
</g>
<g>
</g>
</svg>
