<?xml version="1.0" encoding="iso-8859-1"?>
<!-- Generator: Adobe Illustrator 19.0.0, SVG Export Plug-In . SVG Version: 6.00 Build 0)  -->
<svg version="1.1" id="Layer_1" xmlns="http://www.w3.org/2000/svg" xmlns:xlink="http://www.w3.org/1999/xlink" x="0px" y="0px"
	 viewBox="0 0 488 488" style="enable-background:new 0 0 488 488;" xml:space="preserve">
<g>
	<g>
		<path d="M273.2,79.4c-10.3-6-22.7-6-33,0c-0.4,0.2-0.8,0.5-1.2,0.8l-96,66.3c-8.2,5.6-10.2,16.9-4.6,25c5.7,8.2,16.9,10.2,25,4.6
			l90.2-62.3V374l-86-62.1c-3.1-2.2-6.8-3.4-10.5-3.4H74.8c-21.4,0-38.8-17.4-38.8-38.8V218c0-21.3,17.4-38.7,38.8-38.7
			c9.9,0,18-8.1,18-18c0-9.9-8.1-18-18-18C33.5,143.3,0,176.8,0,218v51.7c0,41.2,33.5,74.8,74.8,74.8h76.5l87.4,63.1
			c0.5,0.4,1,0.7,1.5,1c5.2,3,10.8,4.5,16.5,4.5s11.3-1.5,16.5-4.5c10.3-6,16.5-16.6,16.5-28.6V108
			C289.7,96.1,283.5,85.4,273.2,79.4z"/>
	</g>
</g>
<g>
	<g>
		<path d="M470,226H326.7c-9.9,0-18,8.1-18,18c0,9.9,8.1,18,18,18h53.6v53.6c0,9.9,8.1,18,18,18c9.9,0,18-8.1,18-18V262H470
			c9.9,0,18-8.1,18-18C488,234.1,479.9,226,470,226z"/>
	</g>
</g>
<g>
	<g>
		<path d="M398.4,154.4c-9.9,0-18,8.1-18,18V192c0,9.9,8.1,18,18,18c9.9,0,18-8.1,18-18v-19.6C416.4,162.5,408.3,154.4,398.4,154.4z
			"/>
	</g>
</g>
<g>
</g>
<g>
</g>
<g>
</g>
<g>
</g>
<g>
</g>
<g>
</g>
<g>
</g>
<g>
</g>
<g>
</g>
<g>
</g>
<g>
</g>
<g>
</g>
<g>
</g>
<g>
</g>
<g>
</g>
</svg>
