<?xml version="1.0" encoding="utf-8"?>
<!-- Generator: Adobe Illustrator 18.0.0, SVG Export Plug-In . SVG Version: 6.00 Build 0)  -->
<!DOCTYPE svg PUBLIC "-//W3C//DTD SVG 1.1//EN" "http://www.w3.org/Graphics/SVG/1.1/DTD/svg11.dtd">
<svg version="1.1" id="Artwork" xmlns="http://www.w3.org/2000/svg" xmlns:xlink="http://www.w3.org/1999/xlink" x="0px" y="0px"
	 viewBox="0 0 512 512" enable-background="new 0 0 512 512" xml:space="preserve">
<g>
	<path d="M49.2,58.6c-20.3,0-36.8,16.5-36.8,36.9v321.1c0,20.3,16.5,36.9,36.8,36.9h413.7c20.3,0,36.8-16.5,36.8-36.9V95.5
		c0-20.3-16.5-36.9-36.8-36.9H49.2z M462.8,428.9H49.2c-6.8,0-12.3-5.5-12.3-12.4V175.7h438.3v240.9
		C475.2,423.3,469.6,428.9,462.8,428.9z M475.2,95.5v55.7H36.8V95.5c0-6.8,5.5-12.4,12.3-12.4h413.7
		C469.6,83.1,475.2,88.7,475.2,95.5z"/>
	<path d="M62.2,108.5c-2.3,2.3-3.6,5.4-3.6,8.7c0,3.2,1.3,6.4,3.6,8.7c2.3,2.3,5.4,3.6,8.6,3.6c3.2,0,6.4-1.3,8.7-3.6
		c2.3-2.3,3.6-5.5,3.6-8.7c0-3.2-1.3-6.4-3.6-8.7C75,103.9,66.8,103.9,62.2,108.5z"/>
	<path d="M108.5,108.5c-2.3,2.3-3.6,5.4-3.6,8.7c0,3.2,1.3,6.4,3.6,8.7c2.3,2.3,5.4,3.6,8.7,3.6s6.4-1.3,8.7-3.6
		c2.3-2.3,3.6-5.4,3.6-8.7c0-3.2-1.3-6.4-3.6-8.7C121.3,103.9,113,103.9,108.5,108.5z"/>
	<path d="M154.8,108.5c-2.3,2.3-3.6,5.4-3.6,8.7c0,3.2,1.3,6.4,3.6,8.7c2.3,2.3,5.4,3.6,8.7,3.6c3.2,0,6.4-1.3,8.6-3.6
		c2.3-2.3,3.6-5.4,3.6-8.7c0-3.2-1.3-6.4-3.6-8.7C167.6,103.9,159.3,103.9,154.8,108.5z"/>
	<path d="M256.3,327.4c-35.2,0-66.8,17.4-82.7,45.4c-3.3,5.9-1.3,13.4,4.6,16.7c1.9,1.1,4,1.6,6,1.6c4.3,0,8.4-2.2,10.7-6.2
		c11.3-20,35.4-33,61.4-33c26.1,0,49.5,12.5,61.1,32.5c3.4,5.9,10.9,7.9,16.7,4.5c5.9-3.4,7.9-10.9,4.5-16.7
		C322.7,344.6,291.1,327.4,256.3,327.4z"/>
	<path d="M234.8,249.8c-0.3-4.6-3.1-8.6-7.2-10.4l-59.5-26.6c-6.2-2.8-13.4,0-16.2,6.2c-2.8,6.2,0,13.4,6.2,16.2l38.1,17L158,275.3
		c-5.8,3.5-7.7,11-4.2,16.8c2.3,3.8,6.3,5.9,10.5,5.9c2.2,0,4.3-0.6,6.3-1.8l58.3-35.2C232.9,258.7,235.1,254.4,234.8,249.8z"/>
	<path d="M360.1,219c-2.8-6.2-10-8.9-16.2-6.2l-59.5,26.6c-4.2,1.9-7,5.9-7.2,10.4c-0.3,4.6,2,8.9,5.9,11.2l58.3,35.2
		c2,1.2,4.2,1.8,6.3,1.8c4.2,0,8.2-2.1,10.5-5.9c3.5-5.8,1.6-13.3-4.2-16.8l-38.2-23.1l38.1-17C360.1,232.4,362.8,225.2,360.1,219z"
		/>
</g>
</svg>
