<?xml version="1.0" encoding="utf-8"?>
<!-- Generator: Adobe Illustrator 18.0.0, SVG Export Plug-In . SVG Version: 6.00 Build 0)  -->
<!DOCTYPE svg PUBLIC "-//W3C//DTD SVG 1.1//EN" "http://www.w3.org/Graphics/SVG/1.1/DTD/svg11.dtd">
<svg version="1.1" id="Artwork" xmlns="http://www.w3.org/2000/svg" xmlns:xlink="http://www.w3.org/1999/xlink" x="0px" y="0px"
	 viewBox="0 0 512 512" enable-background="new 0 0 512 512" xml:space="preserve">
<g>
	<path d="M49.2,58.6c-20.3,0-36.9,16.5-36.9,36.8v321.1c0,20.3,16.5,36.8,36.9,36.8h413.7c20.3,0,36.8-16.5,36.8-36.8V95.5
		c0-20.3-16.5-36.8-36.8-36.8H49.2z M462.8,428.9H49.2c-6.8,0-12.4-5.5-12.4-12.3V175.7h438.3v240.9
		C475.2,423.4,469.6,428.9,462.8,428.9z M475.2,95.5v55.7H36.8V95.5c0-6.8,5.5-12.3,12.4-12.3h413.7
		C469.6,83.1,475.2,88.6,475.2,95.5z"/>
	<path d="M62.2,108.5c-2.3,2.3-3.6,5.4-3.6,8.7c0,3.2,1.3,6.4,3.6,8.6c2.3,2.3,5.4,3.6,8.7,3.6c3.2,0,6.4-1.3,8.6-3.6
		c2.3-2.3,3.6-5.4,3.6-8.7c0-3.2-1.3-6.4-3.6-8.7C75,103.9,66.8,103.9,62.2,108.5z"/>
	<path d="M108.5,108.5c-2.3,2.3-3.6,5.4-3.6,8.7c0,3.2,1.3,6.4,3.6,8.6c2.3,2.3,5.4,3.6,8.7,3.6c3.2,0,6.4-1.3,8.7-3.6
		c2.3-2.3,3.6-5.4,3.6-8.7c0-3.2-1.3-6.4-3.6-8.7C121.3,103.9,113.1,103.9,108.5,108.5z"/>
	<path d="M154.8,108.5c-2.3,2.3-3.6,5.4-3.6,8.7c0,3.2,1.3,6.4,3.6,8.6c2.3,2.3,5.4,3.6,8.7,3.6c3.2,0,6.4-1.3,8.7-3.6
		c2.3-2.3,3.6-5.4,3.6-8.6c0-3.2-1.3-6.4-3.6-8.7C167.5,103.9,159.3,103.9,154.8,108.5z"/>
	<path d="M313.8,284.6h-45.5v-45.5c0-6.8-5.5-12.3-12.3-12.3s-12.3,5.5-12.3,12.3v45.5h-45.5c-6.8,0-12.3,5.5-12.3,12.3
		s5.5,12.3,12.3,12.3h45.5v45.5c0,6.8,5.5,12.3,12.3,12.3s12.3-5.5,12.3-12.3v-45.5h45.5c6.8,0,12.3-5.5,12.3-12.3
		S320.5,284.6,313.8,284.6z"/>
</g>
</svg>
