<?xml version="1.0" encoding="utf-8"?>
<!-- Generator: Adobe Illustrator 18.0.0, SVG Export Plug-In . SVG Version: 6.00 Build 0)  -->
<!DOCTYPE svg PUBLIC "-//W3C//DTD SVG 1.1//EN" "http://www.w3.org/Graphics/SVG/1.1/DTD/svg11.dtd">
<svg version="1.1" id="Artwork" xmlns="http://www.w3.org/2000/svg" xmlns:xlink="http://www.w3.org/1999/xlink" x="0px" y="0px"
	 viewBox="0 0 512 512" enable-background="new 0 0 512 512" xml:space="preserve">
<g>
	<path d="M12.8,48.2v320.4c0,6.8,5.5,12.3,12.3,12.3s12.3-5.5,12.3-12.3V128.3h437.3v240.3c0,6.8,5.5,12.3,12.3,12.3
		s12.3-5.5,12.3-12.3V48.2c0-20.3-16.5-36.8-36.8-36.8H49.6C29.3,11.4,12.8,27.9,12.8,48.2z M474.7,48.2v55.6H37.3V48.2
		c0-6.8,5.5-12.3,12.3-12.3h412.7C469.1,35.9,474.7,41.4,474.7,48.2z"/>
	<path d="M71.3,82.1c3.2,0,6.4-1.3,8.7-3.6c2.3-2.3,3.6-5.4,3.6-8.7s-1.3-6.4-3.6-8.7c-4.6-4.6-12.8-4.6-17.3,0
		c-2.3,2.3-3.6,5.4-3.6,8.7s1.3,6.4,3.6,8.7C64.9,80.8,68,82.1,71.3,82.1z"/>
	<path d="M117.4,82.1c3.2,0,6.4-1.3,8.7-3.6c2.3-2.3,3.6-5.4,3.6-8.7s-1.3-6.4-3.6-8.7c-4.6-4.6-12.8-4.6-17.3,0
		c-2.3,2.3-3.5,5.4-3.5,8.7s1.3,6.4,3.5,8.7C111.1,80.8,114.2,82.1,117.4,82.1z"/>
	<path d="M163.6,82.1c3.2,0,6.4-1.3,8.7-3.6c2.3-2.3,3.6-5.4,3.6-8.7s-1.3-6.4-3.6-8.7c-4.6-4.6-12.8-4.6-17.3,0
		c-2.3,2.3-3.6,5.4-3.6,8.7s1.3,6.4,3.6,8.7C157.2,80.8,160.4,82.1,163.6,82.1z"/>
	<path d="M405.5,500.2c1,0.3,2,0.4,3,0.4c5.5,0,10.5-3.7,11.9-9.3c13.8-54.7,2.7-112.4,2.2-114.9c-0.6-3.1-2.4-5.9-5.1-7.7
		c-54.4-37.4-126.7-54.5-152-59.6l-12.7-105.5c-0.4-23.4-19.6-42.3-43.1-42.3c-23.2,0-41.9,17.9-43,40.9c0,0.4-0.1,0.8-0.1,1.3v62.4
		l-1,152.4l-16.6-12.8c-19.5-17-65.4-38-102.3,2.5c-3.9,4.3-4.3,10.6-0.9,15.3c1,1.5,25.9,36.3,65.6,73.9c4.9,4.6,12.7,4.4,17.3-0.5
		c4.7-4.9,4.4-12.7-0.5-17.3c-26.5-25.1-46.4-49.4-56-61.8c27.6-21,57.4,3.4,60.9,6.5c0.2,0.2,0.4,0.3,0.6,0.5l36.4,28.1
		c3.7,2.8,8.7,3.4,12.8,1.3c4.2-2,6.8-6.3,6.9-10.9l1.2-177.2v-61.7c0-0.1,0-0.3,0-0.4c0.3-10.1,8.4-18,18.6-18
		c10.2,0,18.6,8.3,18.6,18.6c0,0.5,0,1,0.1,1.5L242.3,321c0.6,5.4,4.8,9.7,10.2,10.6c0.9,0.1,86,14.6,147,54.5
		c2.2,14.5,7.5,58.6-2.8,99.3C395,491.9,399,498.6,405.5,500.2z"/>
</g>
</svg>
