<?xml version="1.0" encoding="utf-8"?>
<!-- Generator: Adobe Illustrator 18.0.0, SVG Export Plug-In . SVG Version: 6.00 Build 0)  -->
<!DOCTYPE svg PUBLIC "-//W3C//DTD SVG 1.1//EN" "http://www.w3.org/Graphics/SVG/1.1/DTD/svg11.dtd">
<svg version="1.1" id="Artwork" xmlns="http://www.w3.org/2000/svg" xmlns:xlink="http://www.w3.org/1999/xlink" x="0px" y="0px"
	 viewBox="0 0 512 512" enable-background="new 0 0 512 512" xml:space="preserve">
<g>
	<path d="M11,94.5v322.9c0,20.4,16.6,37,37,37h416c20.4,0,37-16.6,37-37V94.5c0-20.4-16.6-37-37-37H314.8c-6.8,0-12.3,5.5-12.3,12.3
		c0,6.8,5.5,12.3,12.3,12.3H464c6.9,0,12.5,5.6,12.5,12.5v322.9c0,6.9-5.6,12.5-12.5,12.5H48c-6.9,0-12.5-5.6-12.5-12.5V175.1h168
		c6.8,0,12.3-5.5,12.3-12.3c0-6.8-5.5-12.3-12.3-12.3h-168V94.5c0-6.9,5.6-12.5,12.5-12.5h195v294.3c0,8.8,5,16.5,13,20
		c8,3.6,17.1,2.1,23.6-3.8l53.5-48.2l53.5,48.2c6.5,5.9,15.6,7.3,23.6,3.8c8-3.6,13-11.3,13-20V128.5c0-6.8-5.5-12.3-12.3-12.3
		s-12.3,5.5-12.3,12.3v242.2l-50.9-45.9c-8.4-7.5-21-7.6-29.4,0l-50.9,45.9V69.8c0-6.8-5.5-12.3-12.3-12.3H48
		C27.6,57.5,11,74.1,11,94.5z"/>
	<path d="M61.1,107.7c-2.3,2.3-3.6,5.4-3.6,8.7s1.3,6.4,3.6,8.7c2.3,2.3,5.4,3.6,8.7,3.6c3.2,0,6.4-1.3,8.7-3.6
		c2.3-2.3,3.6-5.4,3.6-8.7s-1.3-6.4-3.6-8.7C73.9,103.1,65.7,103.1,61.1,107.7z"/>
	<path d="M107.7,107.7c-2.3,2.3-3.6,5.4-3.6,8.7s1.3,6.4,3.6,8.7c2.3,2.3,5.4,3.6,8.7,3.6c3.2,0,6.4-1.3,8.7-3.6
		c2.3-2.3,3.6-5.4,3.6-8.7s-1.3-6.4-3.6-8.7C120.4,103.1,112.2,103.2,107.7,107.7z"/>
	<path d="M154.2,107.7c-2.3,2.3-3.6,5.4-3.6,8.7s1.3,6.4,3.6,8.7c2.3,2.3,5.4,3.6,8.7,3.6c3.2,0,6.4-1.3,8.6-3.6
		c2.3-2.3,3.6-5.4,3.6-8.7s-1.3-6.4-3.6-8.7C167,103.1,158.7,103.2,154.2,107.7z"/>
</g>
</svg>
