<?xml version="1.0" encoding="utf-8"?>
<!-- Generator: Adobe Illustrator 18.0.0, SVG Export Plug-In . SVG Version: 6.00 Build 0)  -->
<!DOCTYPE svg PUBLIC "-//W3C//DTD SVG 1.1//EN" "http://www.w3.org/Graphics/SVG/1.1/DTD/svg11.dtd">
<svg version="1.1" id="Artwork" xmlns="http://www.w3.org/2000/svg" xmlns:xlink="http://www.w3.org/1999/xlink" x="0px" y="0px"
	 viewBox="0 0 512 512" enable-background="new 0 0 512 512" xml:space="preserve">
<g>
	<path d="M11,85.4V367c0,18.6,15.2,33.8,33.8,33.8h362.7c18.7,0,33.8-15.2,33.8-33.8V85.4c0-18.6-15.2-33.8-33.8-33.8H44.8
		C26.2,51.6,11,66.8,11,85.4z M407.6,376.3H44.8c-5.1,0-9.3-4.2-9.3-9.3V157.3h381.4V367C416.9,372.1,412.7,376.3,407.6,376.3z
		 M416.9,85.4v47.4H35.5V85.4c0-5.1,4.2-9.3,9.3-9.3h362.7C412.7,76.1,416.9,80.3,416.9,85.4z"/>
	<path d="M63.8,116.7c3.2,0,6.4-1.3,8.7-3.6c2.3-2.3,3.6-5.4,3.6-8.7c0-3.2-1.3-6.4-3.6-8.7c-4.6-4.6-12.8-4.6-17.3,0
		c-2.3,2.3-3.6,5.5-3.6,8.7c0,3.2,1.3,6.4,3.6,8.7C57.5,115.4,60.6,116.7,63.8,116.7z"/>
	<path d="M104.5,116.7c3.2,0,6.4-1.3,8.6-3.6c2.3-2.3,3.6-5.4,3.6-8.7c0-3.2-1.3-6.4-3.6-8.7c-4.6-4.6-12.7-4.6-17.3,0
		c-2.3,2.3-3.5,5.4-3.5,8.6c0,3.2,1.3,6.4,3.6,8.7C98,115.4,101.2,116.7,104.5,116.7z"/>
	<path d="M145,116.7c3.2,0,6.4-1.3,8.6-3.6c2.3-2.3,3.6-5.4,3.6-8.7c0-3.2-1.3-6.4-3.6-8.7c-4.6-4.6-12.8-4.6-17.3,0
		c-2.3,2.3-3.6,5.4-3.6,8.7c0,3.2,1.3,6.4,3.6,8.7C138.7,115.4,141.8,116.7,145,116.7z"/>
	<path d="M501,426.6V145c0-6.8-5.5-12.3-12.3-12.3s-12.3,5.5-12.3,12.3v281.6c0,5.1-4.2,9.3-9.3,9.3H104.4
		c-6.8,0-12.3,5.5-12.3,12.3s5.5,12.3,12.3,12.3h362.7C485.8,460.4,501,445.2,501,426.6z"/>
</g>
</svg>
