<?xml version="1.0" encoding="utf-8"?>
<!-- Generator: Adobe Illustrator 18.0.0, SVG Export Plug-In . SVG Version: 6.00 Build 0)  -->
<!DOCTYPE svg PUBLIC "-//W3C//DTD SVG 1.1//EN" "http://www.w3.org/Graphics/SVG/1.1/DTD/svg11.dtd">
<svg version="1.1" id="Artwork" xmlns="http://www.w3.org/2000/svg" xmlns:xlink="http://www.w3.org/1999/xlink" x="0px" y="0px"
	 viewBox="0 0 512 512" enable-background="new 0 0 512 512" xml:space="preserve">
<g>
	<path d="M49.2,453.4h413.7c20.3,0,36.9-16.5,36.9-36.9V95.5c0-20.3-16.5-36.9-36.9-36.9H49.2c-20.3,0-36.8,16.5-36.8,36.9v321.1
		C12.3,436.9,28.9,453.4,49.2,453.4z M462.8,428.9H49.2c-6.8,0-12.3-5.5-12.3-12.4V175.7h438.3v240.9
		C475.2,423.3,469.6,428.9,462.8,428.9z M49.2,83.1h413.7c6.8,0,12.4,5.5,12.4,12.4v55.7H36.8V95.5C36.8,88.7,42.4,83.1,49.2,83.1z"
		/>
	<path d="M70.8,129.4c3.2,0,6.4-1.3,8.7-3.6c2.3-2.3,3.6-5.4,3.6-8.7c0-3.2-1.3-6.4-3.6-8.7c-4.6-4.5-12.7-4.6-17.3,0
		c-2.3,2.3-3.6,5.5-3.6,8.7c0,3.2,1.3,6.4,3.6,8.7C64.5,128.1,67.6,129.4,70.8,129.4z"/>
	<path d="M117.2,129.4c3.2,0,6.4-1.3,8.6-3.6c2.3-2.3,3.6-5.4,3.6-8.7c0-3.2-1.3-6.4-3.6-8.7c-4.6-4.6-12.7-4.5-17.3,0
		c-2.3,2.3-3.6,5.5-3.6,8.7c0,3.2,1.3,6.4,3.6,8.7C110.7,128.1,113.9,129.4,117.2,129.4z"/>
	<path d="M163.4,129.4c3.2,0,6.4-1.3,8.7-3.6c2.3-2.3,3.6-5.4,3.6-8.7c0-3.2-1.3-6.4-3.6-8.7c-4.6-4.5-12.7-4.6-17.3,0
		c-2.3,2.3-3.6,5.5-3.6,8.7c0,3.2,1.3,6.4,3.6,8.7C157,128.1,160.2,129.4,163.4,129.4z"/>
	<path d="M314.7,288.8v-24.1c0-32.4-26.3-58.7-58.7-58.7c-27.5,0-51,18.7-57.2,45.4c-1.5,6.6,2.6,13.2,9.2,14.7
		c6.6,1.6,13.2-2.6,14.7-9.2c3.6-15.6,17.3-26.4,33.3-26.4c18.9,0,34.2,15.3,34.2,34.2v23.7h-88.6c-14.8,0-26.8,12-26.8,26.8v60.3
		c0,14.8,12,26.8,26.8,26.8h108.9c14.8,0,26.8-12,26.8-26.8v-60.3C337.3,302,327.5,290.9,314.7,288.8z M312.8,375.6
		c0,1.3-1.1,2.3-2.3,2.3H201.6c-1.3,0-2.3-1.1-2.3-2.3v-60.3c0-1.3,1.1-2.3,2.3-2.3h108.9c1.3,0,2.3,1.1,2.3,2.3V375.6z"/>
</g>
</svg>
