<?xml version="1.0" encoding="utf-8"?>
<!-- Generator: Adobe Illustrator 18.0.0, SVG Export Plug-In . SVG Version: 6.00 Build 0)  -->
<!DOCTYPE svg PUBLIC "-//W3C//DTD SVG 1.1//EN" "http://www.w3.org/Graphics/SVG/1.1/DTD/svg11.dtd">
<svg version="1.1" id="Artwork" xmlns="http://www.w3.org/2000/svg" xmlns:xlink="http://www.w3.org/1999/xlink" x="0px" y="0px"
	 viewBox="0 0 512 512" enable-background="new 0 0 512 512" xml:space="preserve">
<g>
	<path d="M12.3,99v275.5c0,18.4,15,33.4,33.4,33.4h267.5c6.8,0,12.3-5.5,12.3-12.3c0-6.8-5.5-12.3-12.3-12.3H45.6
		c-4.9,0-8.9-4-8.9-8.9V169.6h372.6v59.3c0,6.8,5.5,12.3,12.3,12.3c6.8,0,12.3-5.5,12.3-12.3V99c0-18.4-15-33.4-33.4-33.4H45.6
		C27.2,65.7,12.3,80.6,12.3,99z M409.4,99v46.1H36.8V99c0-4.9,4-8.9,8.9-8.9h354.9C405.4,90.2,409.4,94.2,409.4,99z"/>
	<path d="M64.2,129.9c3.2,0,6.4-1.3,8.7-3.6c2.3-2.3,3.6-5.4,3.6-8.6c0-3.2-1.3-6.4-3.6-8.7c-4.6-4.6-12.7-4.6-17.3,0
		c-2.3,2.3-3.6,5.4-3.6,8.7c0,3.2,1.3,6.4,3.6,8.6C57.9,128.6,61,129.9,64.2,129.9z"/>
	<path d="M104,129.9c3.2,0,6.4-1.3,8.6-3.6c2.3-2.3,3.6-5.4,3.6-8.6c0-3.2-1.3-6.4-3.6-8.7c-4.6-4.6-12.7-4.6-17.3,0
		c-2.3,2.3-3.6,5.4-3.6,8.7c0,3.2,1.3,6.4,3.6,8.6C97.5,128.6,100.7,129.9,104,129.9z"/>
	<path d="M143.7,129.9c3.2,0,6.4-1.3,8.7-3.6c2.3-2.3,3.6-5.4,3.6-8.6c0-3.2-1.3-6.4-3.6-8.7c-4.6-4.6-12.8-4.6-17.3,0
		c-2.3,2.3-3.6,5.4-3.6,8.7c0,3.2,1.3,6.4,3.6,8.6C137.3,128.6,140.4,129.9,143.7,129.9z"/>
	<path d="M367.6,336.5c-13.3,0-24.1,10.8-24.1,24.1v61.7c0,13.3,10.8,24.1,24.1,24.1h108.1c13.3,0,24.1-10.8,24.1-24.1v-61.7
		c0-12.4-9.5-22.5-21.5-23.8v-22.3c0-31.2-25.4-56.5-56.5-56.5c-23.5,0-44.1,14.1-52.7,36c-2.5,6.3,0.6,13.4,6.9,15.9
		c6.3,2.5,13.4-0.6,15.9-6.9c4.8-12.4,16.6-20.4,29.9-20.4c17.7,0,32,14.4,32,32v22H367.6z M475.2,421.8H368V361h107.2V421.8z"/>
</g>
</svg>
