<?xml version="1.0" encoding="utf-8"?>
<!-- Generator: Adobe Illustrator 18.0.0, SVG Export Plug-In . SVG Version: 6.00 Build 0)  -->
<!DOCTYPE svg PUBLIC "-//W3C//DTD SVG 1.1//EN" "http://www.w3.org/Graphics/SVG/1.1/DTD/svg11.dtd">
<svg version="1.1" id="Artwork" xmlns="http://www.w3.org/2000/svg" xmlns:xlink="http://www.w3.org/1999/xlink" x="0px" y="0px"
	 viewBox="0 0 512 512" enable-background="new 0 0 512 512" xml:space="preserve">
<g>
	<path d="M45.9,404.8h211.4c6.8,0,12.3-5.5,12.3-12.3s-5.5-12.3-12.3-12.3H45.9c-5.2,0-9.5-4.3-9.5-9.5V159.2h384.9v58.9
		c0,6.8,5.5,12.3,12.3,12.3s12.3-5.5,12.3-12.3V86.8c0-18.8-15.3-34-34-34H45.9c-18.8,0-34,15.3-34,34v284
		C11.9,389.6,27.1,404.8,45.9,404.8z M45.9,77.3h365.9c5.2,0,9.5,4.3,9.5,9.5v47.9H36.4V86.8C36.4,81.6,40.6,77.3,45.9,77.3z"/>
	<path d="M65.1,118.3c3.2,0,6.4-1.3,8.7-3.6c2.3-2.3,3.6-5.4,3.6-8.6c0-3.2-1.3-6.4-3.6-8.7c-4.6-4.6-12.8-4.6-17.3,0
		c-2.3,2.3-3.6,5.4-3.6,8.7c0,3.2,1.3,6.4,3.6,8.6C58.7,116.9,61.8,118.3,65.1,118.3z"/>
	<path d="M106,118.3c3.2,0,6.4-1.3,8.7-3.6c2.3-2.3,3.6-5.4,3.6-8.6c0-3.2-1.3-6.4-3.6-8.7c-4.6-4.6-12.8-4.6-17.3,0
		c-2.3,2.3-3.6,5.4-3.6,8.7c0,3.2,1.3,6.4,3.6,8.6C99.6,116.9,102.8,118.3,106,118.3z"/>
	<path d="M146.9,118.3c3.2,0,6.4-1.3,8.7-3.6c2.3-2.3,3.6-5.4,3.6-8.6c0-3.2-1.3-6.4-3.6-8.7c-4.6-4.6-12.8-4.6-17.3,0
		c-2.3,2.3-3.6,5.4-3.6,8.7c0,3.2,1.3,6.4,3.6,8.6C140.6,116.9,143.7,118.3,146.9,118.3z"/>
	<path d="M500.1,351.8c0-59.2-48.2-107.4-107.4-107.4s-107.4,48.2-107.4,107.4s48.2,107.4,107.4,107.4S500.1,411,500.1,351.8z
		 M392.7,434.7c-45.7,0-82.9-37.2-82.9-82.9s37.2-82.9,82.9-82.9c45.7,0,82.9,37.2,82.9,82.9S438.4,434.7,392.7,434.7z"/>
	<path d="M440.3,339.5H405v-35.3c0-6.8-5.5-12.3-12.3-12.3s-12.3,5.5-12.3,12.3v47.6c0,6.8,5.5,12.3,12.3,12.3h47.6
		c6.8,0,12.3-5.5,12.3-12.3C452.6,345,447.1,339.5,440.3,339.5z"/>
</g>
</svg>
