<?xml version="1.0" encoding="utf-8"?>
<!-- Generator: Adobe Illustrator 18.0.0, SVG Export Plug-In . SVG Version: 6.00 Build 0)  -->
<!DOCTYPE svg PUBLIC "-//W3C//DTD SVG 1.1//EN" "http://www.w3.org/Graphics/SVG/1.1/DTD/svg11.dtd">
<svg version="1.1" id="Artwork" xmlns="http://www.w3.org/2000/svg" xmlns:xlink="http://www.w3.org/1999/xlink" x="0px" y="0px"
	 viewBox="0 0 512 512" enable-background="new 0 0 512 512" xml:space="preserve">
<g>
	<path d="M49.2,453.4h413.7c20.3,0,36.8-16.5,36.8-36.9V95.5c0-20.3-16.5-36.9-36.8-36.9H49.2c-20.3,0-36.9,16.5-36.9,36.9v321.1
		C12.3,436.9,28.9,453.4,49.2,453.4z M462.8,428.9H49.2c-6.8,0-12.4-5.5-12.4-12.4V175.7h438.3v240.9
		C475.2,423.3,469.6,428.9,462.8,428.9z M49.2,83.1h413.7c6.8,0,12.3,5.5,12.3,12.4v55.7H36.8V95.5C36.8,88.7,42.4,83.1,49.2,83.1z"
		/>
	<path d="M70.8,129.4c3.2,0,6.4-1.3,8.7-3.6c2.3-2.3,3.6-5.4,3.6-8.7c0-3.2-1.3-6.4-3.6-8.7c-4.6-4.6-12.8-4.6-17.3,0
		c-2.3,2.3-3.6,5.4-3.6,8.7c0,3.2,1.3,6.4,3.6,8.7C64.5,128.1,67.6,129.4,70.8,129.4z"/>
	<path d="M117.1,129.4c3.2,0,6.4-1.3,8.7-3.6c2.3-2.3,3.6-5.4,3.6-8.7c0-3.2-1.3-6.4-3.6-8.7c-4.6-4.6-12.7-4.6-17.3,0
		c-2.3,2.3-3.6,5.4-3.6,8.7c0,3.2,1.3,6.4,3.6,8.7C110.8,128.1,113.9,129.4,117.1,129.4z"/>
	<path d="M163.4,129.4c3.2,0,6.4-1.3,8.7-3.6c2.3-2.3,3.6-5.4,3.6-8.7c0-3.2-1.3-6.4-3.6-8.7c-4.6-4.6-12.8-4.6-17.3,0
		c-2.3,2.3-3.6,5.4-3.6,8.7c0,3.2,1.3,6.4,3.6,8.7C157,128.1,160.2,129.4,163.4,129.4z"/>
	<path d="M201.9,222.3l2.1-10.5c1.3-6.6-3-13.1-9.6-14.4c-6.6-1.3-13.1,3-14.4,9.6l-8.9,44.6c-0.7,3.5,0.2,7.1,2.3,9.9
		c2.2,2.8,5.5,4.5,9,4.7l45.1,2.3c0.2,0,0.4,0,0.6,0c6.5,0,11.9-5.1,12.2-11.6c0.3-6.8-4.9-12.5-11.6-12.9l-14.3-0.7
		c29.1-19.4,68.8-16.4,94.5,9.3c14.1,14.1,21.9,32.9,21.9,52.9c0,6.8,5.5,12.2,12.3,12.2c0,0,0,0,0,0c6.8,0,12.2-5.5,12.2-12.3
		c0-26.5-10.3-51.5-29.1-70.2C292.5,201.6,240.3,197.3,201.9,222.3z"/>
	<path d="M333.6,341.6l-45.1-2.3c-6.8-0.3-12.5,4.9-12.9,11.6c-0.3,6.8,4.9,12.5,11.6,12.9l14.6,0.7c-29.3,22.8-71.9,20.8-98.8-6.1
		c-14.1-14.1-21.9-32.9-21.9-52.9c0-6.8-5.5-12.2-12.3-12.2c0,0,0,0,0,0c-6.8,0-12.2,5.5-12.2,12.3c0,26.5,10.3,51.5,29.1,70.2
		c19.4,19.4,44.8,29,70.2,29c20.4,0,40.8-6.4,58.1-18.8l-2,10.1c-1.3,6.6,3,13.1,9.6,14.4c0.8,0.2,1.6,0.2,2.4,0.2
		c5.7,0,10.8-4,12-9.9l8.9-44.6c0.7-3.5-0.2-7.1-2.3-9.9C340.4,343.5,337.1,341.8,333.6,341.6z"/>
</g>
</svg>
