<?xml version="1.0" encoding="utf-8"?>
<!-- Generator: Adobe Illustrator 18.0.0, SVG Export Plug-In . SVG Version: 6.00 Build 0)  -->
<!DOCTYPE svg PUBLIC "-//W3C//DTD SVG 1.1//EN" "http://www.w3.org/Graphics/SVG/1.1/DTD/svg11.dtd">
<svg version="1.1" id="Artwork" xmlns="http://www.w3.org/2000/svg" xmlns:xlink="http://www.w3.org/1999/xlink" x="0px" y="0px"
	 viewBox="0 0 512 512" enable-background="new 0 0 512 512" xml:space="preserve">
<g>
	<path d="M11.7,118v276c0,18.4,15,33.4,33.4,33.4h154.2c6.8,0,12.3-5.5,12.3-12.3c0-6.8-5.5-12.3-12.3-12.3H45.1
		c-4.9,0-8.9-4-8.9-8.9V188.7h342.1c6.8,0,12.3-5.5,12.3-12.3c0-6.8-5.5-12.3-12.3-12.3H36.2V118c0-4.9,4-8.9,8.9-8.9h355.6
		c4.9,0,8.9,4,8.9,8.9v18.6c0,6.8,5.5,12.3,12.3,12.3s12.3-5.5,12.3-12.3V118c0-18.4-15-33.4-33.4-33.4H45.1
		C26.7,84.6,11.7,99.6,11.7,118z"/>
	<path d="M55,127.9c-2.3,2.3-3.6,5.5-3.6,8.7c0,3.2,1.3,6.4,3.6,8.7c2.3,2.3,5.4,3.6,8.7,3.6c3.2,0,6.4-1.3,8.7-3.6
		c2.3-2.3,3.6-5.4,3.6-8.7c0-3.2-1.3-6.4-3.6-8.7C67.8,123.4,59.6,123.4,55,127.9z"/>
	<path d="M94.8,127.9c-2.3,2.3-3.6,5.5-3.6,8.7c0,3.2,1.3,6.4,3.6,8.7c2.3,2.3,5.4,3.6,8.7,3.6c3.2,0,6.4-1.3,8.7-3.6
		c2.3-2.3,3.6-5.4,3.6-8.7c0-3.2-1.3-6.4-3.6-8.7C107.6,123.4,99.4,123.4,94.8,127.9z"/>
	<path d="M134.6,127.9c-2.3,2.3-3.6,5.5-3.6,8.7c0,3.2,1.3,6.4,3.6,8.7c2.3,2.3,5.4,3.6,8.6,3.6c3.2,0,6.4-1.3,8.7-3.6
		c2.3-2.3,3.6-5.4,3.6-8.7c0-3.2-1.3-6.4-3.6-8.7C147.4,123.4,139.2,123.4,134.6,127.9z"/>
	<path d="M500.3,215.6c0.1-1.4,0-2.8-0.3-4.1c-0.2-0.9-0.4-1.8-0.6-2.7c-0.5-2.6-1.2-5.9-2.7-9.2c-7.8-17.8-20.7-30.5-38.4-37.6
		c-4-1.6-8-2.1-11.3-2.5l-0.8-0.1c-0.9-0.1-1.7-0.2-2.5-0.2c-3.7,0-9.3,1.1-14.5,6.4c-20.7,20.8-80.9,81-120,120.1L274,320.8
		c-8.6,8.6-17.1,17.1-25.6,25.7c-2.8,2.9-4.9,6.7-5.7,10.5c-3.1,14-6,28-9,42.1l-1.6,7.5c-1.1,5.3,0.1,10.6,3.4,14.6
		c3.2,4,8,6.2,13.2,6.2c1.3,0,2.6-0.1,3.8-0.4l8.2-1.7c13.6-2.9,27.3-5.8,40.9-8.6c4.3-0.9,8.1-2.9,11.2-6.1
		c37.9-38,142.9-142.9,180.9-180.8C497.6,225.9,499.8,221.2,500.3,215.6z M296,392.8c-12.6,2.6-25.1,5.3-37.7,7.9
		c2.6-12.5,5.3-25.1,8-37.6c8.3-8.4,16.6-16.7,25-25.1l35.2-35.2c26.2-26.2,62-62,89-89l29.7,29.7
		C397.8,290.9,326.3,362.4,296,392.8z M462.5,226.3l-29.7-29.7c4.9-4.9,9.3-9.3,12.7-12.7c1.5,0.2,2.8,0.4,3.6,0.7
		c11.7,4.7,20,12.8,25.2,24.8c0.4,0.9,0.7,2.4,1.1,4.1C471.6,217.2,467.3,221.5,462.5,226.3z"/>
</g>
</svg>
