<?xml version="1.0" encoding="utf-8"?>
<!-- Generator: Adobe Illustrator 18.0.0, SVG Export Plug-In . SVG Version: 6.00 Build 0)  -->
<!DOCTYPE svg PUBLIC "-//W3C//DTD SVG 1.1//EN" "http://www.w3.org/Graphics/SVG/1.1/DTD/svg11.dtd">
<svg version="1.1" id="Artwork" xmlns="http://www.w3.org/2000/svg" xmlns:xlink="http://www.w3.org/1999/xlink" x="0px" y="0px"
	 viewBox="0 0 512 512" enable-background="new 0 0 512 512" xml:space="preserve">
<g>
	<path d="M64.7,118.1c3.2,0,6.4-1.3,8.7-3.6c2.3-2.3,3.6-5.4,3.6-8.7s-1.3-6.4-3.6-8.7c-4.6-4.6-12.7-4.6-17.3,0
		c-2.3,2.3-3.6,5.4-3.6,8.7s1.3,6.4,3.6,8.7C58.3,116.8,61.5,118.1,64.7,118.1z"/>
	<path d="M105.6,118.1c3.2,0,6.4-1.3,8.7-3.6c2.3-2.3,3.6-5.4,3.6-8.7s-1.3-6.4-3.6-8.7c-4.6-4.6-12.8-4.6-17.3,0
		c-2.3,2.3-3.6,5.4-3.6,8.7s1.3,6.4,3.6,8.7C99.3,116.8,102.4,118.1,105.6,118.1z"/>
	<path d="M146.6,118.1c3.2,0,6.4-1.3,8.6-3.6c2.3-2.3,3.6-5.4,3.6-8.7s-1.3-6.4-3.6-8.7c-4.6-4.6-12.8-4.6-17.3,0
		c-2.3,2.3-3.6,5.4-3.6,8.7s1.3,6.4,3.6,8.7C140.2,116.8,143.4,118.1,146.6,118.1z"/>
	<path d="M420.9,159.1v60.7c0,6.8,5.5,12.3,12.3,12.3c6.8,0,12.3-5.5,12.3-12.3V86.7c0-18.8-15.3-34-34-34H45.5
		c-18.8,0-34,15.3-34,34v284c0,18.8,15.3,34,34,34h211.4c6.8,0,12.3-5.5,12.3-12.3s-5.5-12.3-12.3-12.3H45.5c-5.2,0-9.5-4.3-9.5-9.5
		V159.1H420.9z M45.5,77.2h365.9c5.2,0,9.5,4.3,9.5,9.5v47.9H36V86.7C36,81.4,40.3,77.2,45.5,77.2z"/>
	<path d="M392.4,459.3c28.9,0,56.1-11.2,76.5-31.7c42.2-42.2,42.2-110.8,0-153c-20.4-20.4-47.6-31.7-76.5-31.7
		c-28.9,0-56.1,11.2-76.5,31.7c-42.2,42.2-42.2,110.8,0,153C336.3,448.1,363.5,459.3,392.4,459.3z M333.2,292
		c15.8-15.8,36.8-24.5,59.2-24.5c22.4,0,43.4,8.7,59.2,24.5c32.6,32.6,32.6,85.7,0,118.3c-15.8,15.8-36.8,24.5-59.2,24.5
		c-22.4,0-43.4-8.7-59.2-24.5C300.6,377.7,300.6,324.6,333.2,292z"/>
	<path d="M361.5,363.4h61.7c6.8,0,12.3-5.5,12.3-12.3c0-6.8-5.5-12.3-12.3-12.3h-61.7c-6.8,0-12.3,5.5-12.3,12.3
		C349.3,357.9,354.7,363.4,361.5,363.4z"/>
</g>
</svg>
