<?xml version="1.0" encoding="utf-8"?>
<!-- Generator: Adobe Illustrator 18.0.0, SVG Export Plug-In . SVG Version: 6.00 Build 0)  -->
<!DOCTYPE svg PUBLIC "-//W3C//DTD SVG 1.1//EN" "http://www.w3.org/Graphics/SVG/1.1/DTD/svg11.dtd">
<svg version="1.1" id="Artwork" xmlns="http://www.w3.org/2000/svg" xmlns:xlink="http://www.w3.org/1999/xlink" x="0px" y="0px"
	 viewBox="0 0 512 512" enable-background="new 0 0 512 512" xml:space="preserve">
<g>
	<path d="M469.1,47.5H147.1c-17.3,0-31.4,14.1-31.4,31.4v250c0,17.3,14.1,31.4,31.4,31.4h322.1c17.3,0,31.4-14.1,31.4-31.4v-250
		C500.5,61.6,486.4,47.5,469.1,47.5z M147.1,72h322.1c3.8,0,6.9,3.1,6.9,6.9v40.7H140.2V78.9C140.2,75.1,143.3,72,147.1,72z
		 M469.1,335.8H147.1c-3.8,0-6.9-3.1-6.9-6.9V144.1H476v184.8C476,332.7,472.9,335.8,469.1,335.8z"/>
	<path d="M416.2,388.7H94.1c-3.8,0-6.9-3.1-6.9-6.9v-250c0-6.8-5.5-12.3-12.3-12.3s-12.2,5.5-12.2,12.3v250
		c0,17.3,14.1,31.4,31.4,31.4h322.1c6.8,0,12.3-5.5,12.3-12.3S423,388.7,416.2,388.7z"/>
	<path d="M364.9,440H42.9c-3.8,0-6.9-3.1-6.9-6.9v-250c0-6.8-5.5-12.3-12.3-12.3s-12.3,5.5-12.3,12.3v250
		c0,17.3,14.1,31.4,31.4,31.4h322.1c6.8,0,12.3-5.5,12.3-12.3S371.7,440,364.9,440z"/>
	<path d="M245.6,108c3.2,0,6.4-1.3,8.7-3.6c2.3-2.3,3.6-5.4,3.6-8.7c0-3.2-1.3-6.4-3.6-8.7c-4.6-4.6-12.7-4.6-17.3,0
		c-2.3,2.3-3.6,5.4-3.6,8.7c0,3.2,1.3,6.4,3.6,8.7C239.2,106.7,242.4,108,245.6,108z"/>
	<path d="M209.6,108c3.2,0,6.4-1.3,8.6-3.6c2.3-2.3,3.6-5.4,3.6-8.7c0-3.2-1.3-6.4-3.6-8.7c-4.6-4.6-12.7-4.6-17.3,0
		c-2.3,2.3-3.6,5.4-3.6,8.7c0,3.2,1.3,6.4,3.6,8.7C203.2,106.7,206.3,108,209.6,108z"/>
	<path d="M173.5,108c3.2,0,6.4-1.3,8.7-3.6c2.3-2.3,3.6-5.4,3.6-8.7c0-3.2-1.3-6.4-3.6-8.7c-4.6-4.6-12.8-4.6-17.3,0
		c-2.3,2.3-3.6,5.4-3.6,8.7c0,3.2,1.3,6.4,3.6,8.7C167.1,106.7,170.3,108,173.5,108z"/>
</g>
</svg>
