<?xml version="1.0" encoding="utf-8"?>
<!-- Generator: Adobe Illustrator 18.0.0, SVG Export Plug-In . SVG Version: 6.00 Build 0)  -->
<!DOCTYPE svg PUBLIC "-//W3C//DTD SVG 1.1//EN" "http://www.w3.org/Graphics/SVG/1.1/DTD/svg11.dtd">
<svg version="1.1" id="Artwork" xmlns="http://www.w3.org/2000/svg" xmlns:xlink="http://www.w3.org/1999/xlink" x="0px" y="0px"
	 viewBox="0 0 512 512" enable-background="new 0 0 512 512" xml:space="preserve">
<g>
	<path d="M49.2,453.4h413.7c20.3,0,36.8-16.5,36.8-36.8V95.5c0-20.3-16.5-36.8-36.8-36.8H49.2c-20.3,0-36.8,16.5-36.8,36.8v321.1
		C12.3,436.9,28.9,453.4,49.2,453.4z M462.8,428.9H49.2c-6.8,0-12.3-5.5-12.3-12.3V175.7h438.3v240.9
		C475.2,423.4,469.6,428.9,462.8,428.9z M49.2,83.1h413.7c6.8,0,12.3,5.5,12.3,12.3v55.7H36.8V95.5C36.8,88.6,42.4,83.1,49.2,83.1z"
		/>
	<path d="M70.9,129.4c3.2,0,6.4-1.3,8.7-3.6c2.3-2.3,3.6-5.4,3.6-8.7s-1.3-6.4-3.6-8.7c-4.6-4.6-12.8-4.6-17.3,0
		c-2.3,2.3-3.6,5.4-3.6,8.7c0,3.2,1.3,6.4,3.6,8.7C64.5,128.1,67.6,129.4,70.9,129.4z"/>
	<path d="M117.2,129.4c3.2,0,6.4-1.3,8.6-3.6c2.3-2.3,3.6-5.5,3.6-8.7c0-3.2-1.3-6.4-3.6-8.7c-4.5-4.6-12.7-4.6-17.3,0
		c-2.3,2.3-3.6,5.4-3.6,8.7s1.3,6.4,3.6,8.7C110.8,128.1,113.9,129.4,117.2,129.4z"/>
	<path d="M163.4,129.4c3.2,0,6.4-1.3,8.7-3.6c2.3-2.3,3.6-5.5,3.6-8.7c0-3.2-1.3-6.4-3.6-8.7c-4.6-4.6-12.8-4.6-17.3,0
		c-2.3,2.3-3.6,5.4-3.6,8.7c0,3.2,1.3,6.4,3.6,8.7C157,128.1,160.2,129.4,163.4,129.4z"/>
	<path d="M295.4,214.9c-14.4,0-28.2,4.8-39.4,13.6c-11.2-8.8-25-13.6-39.5-13.6c-17,0-33.1,6.6-45.1,18.7
		c-12.1,12.1-18.7,28.1-18.7,45.2c0,17.1,6.7,33.1,18.8,45.2l70.3,70.3c3.8,3.8,8.9,5.9,14.2,5.9c5.4,0,10.4-2.1,14.2-5.9l70.2-70.2
		c12.1-12.1,18.7-28.1,18.8-45.2c0-17.1-6.6-33.1-18.7-45.2C328.5,221.6,312.5,214.9,295.4,214.9z M323.2,306.7l-67.1,67.1
		l-67.3-67.3c-7.5-7.5-11.6-17.4-11.6-27.9c0-10.5,4.1-20.4,11.5-27.9c7.4-7.4,17.3-11.5,27.8-11.5c10.5,0,20.4,4.1,27.9,11.6
		l2.9,2.9c2.3,2.3,5.4,3.6,8.7,3.6c0,0,0,0,0,0c3.2,0,6.4-1.3,8.7-3.6l2.8-2.8c7.5-7.5,17.4-11.6,27.9-11.6
		c10.5,0,20.4,4.1,27.8,11.5c7.4,7.5,11.5,17.4,11.5,27.9C334.8,289.4,330.7,299.3,323.2,306.7z"/>
</g>
</svg>
