<?xml version="1.0" encoding="utf-8"?>
<!-- Generator: Adobe Illustrator 18.0.0, SVG Export Plug-In . SVG Version: 6.00 Build 0)  -->
<!DOCTYPE svg PUBLIC "-//W3C//DTD SVG 1.1//EN" "http://www.w3.org/Graphics/SVG/1.1/DTD/svg11.dtd">
<svg version="1.1" id="Artwork" xmlns="http://www.w3.org/2000/svg" xmlns:xlink="http://www.w3.org/1999/xlink" x="0px" y="0px"
	 viewBox="0 0 512 512" enable-background="new 0 0 512 512" xml:space="preserve">
<g>
	<path d="M64.7,118.1c3.2,0,6.4-1.3,8.7-3.6c2.3-2.3,3.6-5.4,3.6-8.7s-1.3-6.4-3.6-8.7c-4.6-4.6-12.8-4.6-17.3,0
		c-2.3,2.3-3.6,5.4-3.6,8.7s1.3,6.4,3.6,8.7C58.3,116.8,61.4,118.1,64.7,118.1z"/>
	<path d="M105.6,118.1c3.2,0,6.4-1.3,8.7-3.6c2.3-2.3,3.6-5.4,3.6-8.7s-1.3-6.4-3.6-8.7c-4.6-4.6-12.7-4.6-17.3,0
		c-2.3,2.3-3.6,5.4-3.6,8.7s1.3,6.4,3.6,8.7C99.3,116.8,102.4,118.1,105.6,118.1z"/>
	<path d="M146.5,118.1c3.2,0,6.4-1.3,8.7-3.6c2.3-2.3,3.6-5.4,3.6-8.7s-1.3-6.4-3.6-8.7c-4.6-4.6-12.7-4.6-17.3,0
		c-2.3,2.3-3.6,5.4-3.6,8.7s1.3,6.4,3.6,8.7C140.2,116.8,143.3,118.1,146.5,118.1z"/>
	<path d="M420.9,159.1v60.7c0,6.8,5.5,12.3,12.3,12.3s12.3-5.5,12.3-12.3V86.7c0-18.8-15.3-34-34-34H45.5c-18.8,0-34,15.3-34,34v284
		c0,18.8,15.3,34,34,34h211.4c6.8,0,12.3-5.5,12.3-12.3s-5.5-12.3-12.3-12.3H45.5c-5.2,0-9.5-4.3-9.5-9.5V159.1H420.9z M45.5,77.2
		h365.9c5.2,0,9.5,4.3,9.5,9.5v47.9H36V86.7C36,81.4,40.3,77.2,45.5,77.2z"/>
	<path d="M392.3,459.3c59.6,0,108.2-48.5,108.2-108.2S452,243,392.3,243c-59.6,0-108.2,48.5-108.2,108.2S332.7,459.3,392.3,459.3z
		 M392.3,267.5c46.1,0,83.7,37.5,83.7,83.7s-37.5,83.7-83.7,83.7s-83.7-37.5-83.7-83.7S346.2,267.5,392.3,267.5z"/>
	<path d="M370.5,382.3c2.4,2.4,5.5,3.6,8.7,3.6c3.1,0,6.2-1.2,8.6-3.6l45.3-45c4.8-4.8,4.8-12.5,0.1-17.3c-4.8-4.8-12.5-4.8-17.3,0
		l-36.6,36.4L368.9,346c-4.8-4.8-12.5-4.8-17.3,0c-4.8,4.8-4.8,12.5-0.1,17.3L370.5,382.3z"/>
</g>
</svg>
