<?xml version="1.0" encoding="utf-8"?>
<!-- Generator: Adobe Illustrator 18.0.0, SVG Export Plug-In . SVG Version: 6.00 Build 0)  -->
<!DOCTYPE svg PUBLIC "-//W3C//DTD SVG 1.1//EN" "http://www.w3.org/Graphics/SVG/1.1/DTD/svg11.dtd">
<svg version="1.1" id="Artwork" xmlns="http://www.w3.org/2000/svg" xmlns:xlink="http://www.w3.org/1999/xlink" x="0px" y="0px"
	 viewBox="0 0 512 512" enable-background="new 0 0 512 512" xml:space="preserve">
<g>
	<path d="M433.1,229.9c6.8,0,12.3-5.5,12.3-12.3V86.4c0-18.8-15.3-34-34-34H45.5c-18.8,0-34,15.3-34,34v284c0,18.8,15.3,34,34,34
		h211.4c6.8,0,12.3-5.5,12.3-12.3s-5.5-12.3-12.3-12.3H45.5c-5.2,0-9.5-4.3-9.5-9.5V158.8h384.9v58.9
		C420.9,224.5,426.4,229.9,433.1,229.9z M36,134.3V86.4c0-5.2,4.3-9.5,9.5-9.5h365.9c5.2,0,9.5,4.3,9.5,9.5v47.9H36z"/>
	<path d="M56,97c-2.3,2.3-3.6,5.4-3.6,8.7c0,3.2,1.3,6.4,3.6,8.7c2.3,2.3,5.4,3.6,8.7,3.6c3.2,0,6.4-1.3,8.7-3.6
		c2.3-2.3,3.6-5.4,3.6-8.7s-1.3-6.4-3.6-8.7C68.8,92.4,60.5,92.4,56,97z"/>
	<path d="M97,97c-2.3,2.3-3.6,5.4-3.6,8.7s1.3,6.4,3.6,8.7c2.3,2.3,5.4,3.6,8.7,3.6c3.2,0,6.4-1.3,8.7-3.6c2.3-2.3,3.6-5.4,3.6-8.7
		s-1.3-6.4-3.6-8.7C109.7,92.4,101.5,92.4,97,97z"/>
	<path d="M137.9,97c-2.3,2.3-3.6,5.4-3.6,8.7s1.3,6.4,3.6,8.7c2.3,2.3,5.4,3.6,8.7,3.6c3.2,0,6.4-1.3,8.7-3.6
		c2.3-2.3,3.6-5.4,3.6-8.6c0-3.2-1.3-6.4-3.6-8.7C150.7,92.4,142.4,92.4,137.9,97z"/>
	<path d="M392.3,243.2c-59.6,0-108.2,48.5-108.2,108.2s48.5,108.2,108.2,108.2c59.6,0,108.2-48.5,108.2-108.2S452,243.2,392.3,243.2
		z M392.3,435.1c-46.1,0-83.7-37.5-83.7-83.7s37.5-83.7,83.7-83.7c46.1,0,83.7,37.5,83.7,83.7S438.5,435.1,392.3,435.1z"/>
	<path d="M433.1,339.2h-55.6l8.6-9.4c4.6-5,4.2-12.7-0.8-17.3c-5-4.5-12.7-4.2-17.3,0.8l-27.3,29.9c-4.3,4.7-4.3,11.8,0,16.5
		l27.3,29.9c2.4,2.7,5.7,4,9.1,4c2.9,0,5.9-1.1,8.3-3.2c5-4.6,5.4-12.3,0.8-17.3l-8.6-9.4h55.6c6.8,0,12.3-5.5,12.3-12.3
		C445.4,344.6,439.9,339.2,433.1,339.2z"/>
</g>
</svg>
