<?xml version="1.0" encoding="utf-8"?>
<!-- Generator: Adobe Illustrator 18.0.0, SVG Export Plug-In . SVG Version: 6.00 Build 0)  -->
<!DOCTYPE svg PUBLIC "-//W3C//DTD SVG 1.1//EN" "http://www.w3.org/Graphics/SVG/1.1/DTD/svg11.dtd">
<svg version="1.1" id="Artwork" xmlns="http://www.w3.org/2000/svg" xmlns:xlink="http://www.w3.org/1999/xlink" x="0px" y="0px"
	 viewBox="0 0 512 512" enable-background="new 0 0 512 512" xml:space="preserve">
<g>
	<path d="M49.2,453.4h413.7c20.3,0,36.8-16.5,36.8-36.8V95.5c0-20.3-16.5-36.8-36.8-36.8H49.2c-20.3,0-36.8,16.5-36.8,36.8v321.1
		C12.3,436.9,28.9,453.4,49.2,453.4z M462.8,428.9H49.2c-6.8,0-12.3-5.5-12.3-12.3V175.7h438.3v240.9
		C475.2,423.4,469.6,428.9,462.8,428.9z M49.2,83.1h413.7c6.8,0,12.3,5.5,12.3,12.3v55.7H36.8V95.5C36.8,88.6,42.4,83.1,49.2,83.1z"
		/>
	<path d="M70.8,129.4c3.2,0,6.4-1.3,8.7-3.6c2.3-2.3,3.6-5.4,3.6-8.7c0-3.2-1.3-6.4-3.6-8.7c-4.6-4.6-12.7-4.6-17.3,0
		c-2.3,2.3-3.6,5.4-3.6,8.7c0,3.2,1.3,6.4,3.6,8.6C64.5,128.1,67.6,129.4,70.8,129.4z"/>
	<path d="M117.2,129.4c3.2,0,6.4-1.3,8.7-3.6c2.3-2.3,3.6-5.4,3.6-8.6c0-3.2-1.3-6.4-3.6-8.7c-4.6-4.6-12.7-4.6-17.3,0
		c-2.3,2.3-3.6,5.4-3.6,8.7c0,3.2,1.3,6.4,3.6,8.6C110.7,128.1,113.9,129.4,117.2,129.4z"/>
	<path d="M163.4,129.4c3.2,0,6.4-1.3,8.7-3.6c2.3-2.3,3.6-5.4,3.6-8.6c0-3.2-1.3-6.4-3.6-8.7c-4.6-4.6-12.7-4.6-17.3,0
		c-2.3,2.3-3.6,5.4-3.6,8.7c0,3.2,1.3,6.4,3.6,8.6C157,128.1,160.2,129.4,163.4,129.4z"/>
	<path d="M170.6,356.8h-17c-4,0-7.2-3.2-7.2-7.2v-93.1c0-4,3.2-7.2,7.2-7.2h101.8l-5.7,5.7c-4.8,4.8-4.8,12.5,0,17.3
		c2.4,2.4,5.5,3.6,8.7,3.6c3.1,0,6.3-1.2,8.7-3.6l26.6-26.6c4.8-4.8,4.8-12.5,0-17.3l-26.6-26.6c-4.8-4.8-12.5-4.8-17.3,0
		c-4.8,4.8-4.8,12.5,0,17.3l5.7,5.7H153.5c-17.5,0-31.7,14.2-31.7,31.7v93.1c0,17.5,14.2,31.7,31.7,31.7h17
		c6.8,0,12.3-5.5,12.3-12.3S177.3,356.8,170.6,356.8z"/>
	<path d="M352.2,224.9h-17c-6.8,0-12.3,5.5-12.3,12.3c0,6.8,5.5,12.3,12.3,12.3h17c4,0,7.2,3.2,7.2,7.2v93.1c0,4-3.2,7.2-7.2,7.2
		H250.5l5.7-5.7c4.8-4.8,4.8-12.5,0-17.3c-4.8-4.8-12.5-4.8-17.3,0l-26.6,26.6c-2.3,2.3-3.6,5.4-3.6,8.7s1.3,6.4,3.6,8.7l26.6,26.6
		c2.4,2.4,5.5,3.6,8.7,3.6s6.3-1.2,8.7-3.6c4.8-4.8,4.8-12.5,0-17.3l-5.7-5.7h101.8c17.5,0,31.7-14.2,31.7-31.7v-93.1
		C383.9,239.1,369.7,224.9,352.2,224.9z"/>
</g>
</svg>
