<?xml version="1.0" encoding="utf-8"?>
<!-- Generator: Adobe Illustrator 18.0.0, SVG Export Plug-In . SVG Version: 6.00 Build 0)  -->
<!DOCTYPE svg PUBLIC "-//W3C//DTD SVG 1.1//EN" "http://www.w3.org/Graphics/SVG/1.1/DTD/svg11.dtd">
<svg version="1.1" id="Artwork" xmlns="http://www.w3.org/2000/svg" xmlns:xlink="http://www.w3.org/1999/xlink" x="0px" y="0px"
	 viewBox="0 0 512 512" enable-background="new 0 0 512 512" xml:space="preserve">
<g>
	<path d="M462.8,26.4H49.2c-20.3,0-36.9,16.5-36.9,36.9v321.1c0,20.3,16.5,36.9,36.9,36.9c6.8,0,12.3-5.5,12.3-12.3
		c0-6.8-5.5-12.3-12.3-12.3c-6.8,0-12.4-5.5-12.4-12.4V143.5h438.4v165.1c0,6.8,5.5,12.3,12.3,12.3c6.8,0,12.3-5.5,12.3-12.3V63.2
		C499.7,42.9,483.2,26.4,462.8,26.4z M36.8,119V63.2c0-6.8,5.5-12.4,12.4-12.4h413.7c6.8,0,12.4,5.5,12.4,12.4V119H36.8z"/>
	<path d="M62.2,76.2c-2.3,2.3-3.6,5.5-3.6,8.7c0,3.2,1.3,6.4,3.6,8.7c2.3,2.3,5.4,3.6,8.7,3.6c3.2,0,6.4-1.3,8.7-3.6
		c2.3-2.3,3.6-5.4,3.6-8.7c0-3.2-1.3-6.4-3.6-8.7C75,71.7,66.7,71.7,62.2,76.2z"/>
	<path d="M108.5,76.2c-2.3,2.3-3.6,5.4-3.6,8.7c0,3.2,1.3,6.4,3.6,8.7c2.3,2.3,5.4,3.6,8.7,3.6c3.2,0,6.4-1.3,8.7-3.6
		c2.3-2.3,3.6-5.4,3.6-8.7c0-3.2-1.3-6.4-3.6-8.7C121.3,71.7,113,71.7,108.5,76.2z"/>
	<path d="M154.8,76.2c-2.3,2.3-3.6,5.4-3.6,8.7c0,3.2,1.3,6.4,3.6,8.7c2.3,2.3,5.4,3.6,8.6,3.6c3.2,0,6.4-1.3,8.7-3.6
		c2.3-2.3,3.6-5.4,3.6-8.7c0-3.2-1.3-6.4-3.6-8.7C167.6,71.7,159.3,71.7,154.8,76.2z"/>
	<path d="M299.1,486.3c4.3,2,9.4,1.4,13-1.6l149.6-123.8c2.8-2.3,4.4-5.8,4.4-9.4c0-3.7-1.6-7.1-4.5-9.4L312.1,218.6
		c-3.7-3-8.7-3.7-13-1.6c-4.3,2-7,6.3-7,11.1v62.2c-94.6,4.2-148.4,45.7-177.1,80.7c-36,43.8-48.8,95.2-48.8,128.8
		c0,5.6,3.7,10.4,9.1,11.8c1,0.3,2.1,0.4,3.1,0.4c4.3,0,8.4-2.3,10.7-6.2c49-86.5,141.4-92.1,203-92.5v61.9
		C292.1,480,294.8,484.3,299.1,486.3z M98.6,452.4c18.2-59.3,72.3-136.7,205.9-137.9c6.7-0.1,12.1-5.5,12.1-12.3V254l118.1,97.4
		l-118.1,97.7v-48.1c0-3.2-1.3-6.4-3.6-8.7s-5.4-3.6-8.7-3.6h0C248.3,388.8,160.3,388.8,98.6,452.4z"/>
</g>
</svg>
