<?xml version="1.0" encoding="utf-8"?>
<!-- Generator: Adobe Illustrator 18.0.0, SVG Export Plug-In . SVG Version: 6.00 Build 0)  -->
<!DOCTYPE svg PUBLIC "-//W3C//DTD SVG 1.1//EN" "http://www.w3.org/Graphics/SVG/1.1/DTD/svg11.dtd">
<svg version="1.1" id="Artwork" xmlns="http://www.w3.org/2000/svg" xmlns:xlink="http://www.w3.org/1999/xlink" x="0px" y="0px"
	 viewBox="0 0 512 512" enable-background="new 0 0 512 512" xml:space="preserve">
<g>
	<path d="M49.2,453.4h413.7c20.3,0,36.8-16.5,36.8-36.9V95.5c0-20.3-16.5-36.9-36.8-36.9H49.2c-20.3,0-36.8,16.5-36.8,36.9v321.1
		C12.3,436.9,28.9,453.4,49.2,453.4z M462.8,428.9H49.2c-6.8,0-12.3-5.5-12.3-12.4V175.7h438.3v240.9
		C475.2,423.3,469.6,428.9,462.8,428.9z M49.2,83.1h413.7c6.8,0,12.3,5.5,12.3,12.4v55.7H36.8V95.5C36.8,88.7,42.4,83.1,49.2,83.1z"
		/>
	<path d="M70.9,129.4c3.2,0,6.4-1.3,8.7-3.6c2.3-2.3,3.6-5.4,3.6-8.6c0-3.2-1.3-6.4-3.6-8.7c-4.6-4.6-12.7-4.6-17.3,0
		c-2.3,2.3-3.6,5.4-3.6,8.7c0,3.2,1.3,6.4,3.6,8.6C64.5,128.1,67.7,129.4,70.9,129.4z"/>
	<path d="M117.2,129.4c3.2,0,6.4-1.3,8.6-3.6c2.3-2.3,3.6-5.4,3.6-8.6c0-3.2-1.3-6.4-3.6-8.7c-4.5-4.6-12.7-4.6-17.3,0
		c-2.3,2.3-3.6,5.4-3.6,8.7c0,3.2,1.3,6.4,3.6,8.6C110.8,128.1,113.9,129.4,117.2,129.4z"/>
	<path d="M163.4,129.4c3.2,0,6.4-1.3,8.7-3.6c2.3-2.3,3.6-5.4,3.6-8.6c0-3.2-1.3-6.4-3.6-8.7c-4.6-4.6-12.8-4.6-17.3,0
		c-2.3,2.3-3.6,5.4-3.6,8.7c0,3.2,1.3,6.4,3.6,8.6C157,128.1,160.2,129.4,163.4,129.4z"/>
	<path d="M333.1,260.3l-40.9-3l-15.5-38c-3.5-8.5-11.6-14-20.8-14c-9.2,0-17.3,5.5-20.8,14l-15.5,38l-40.9,3
		c-9.1,0.7-16.9,6.7-19.7,15.5c-2.8,8.7-0.1,18.2,6.9,24.1l31.3,26.4l-9.8,39.8c-1.7,6.8-0.2,13.7,4.1,19.2
		c4.3,5.4,10.9,8.7,17.7,8.7c4.1,0,8.2-1.2,11.8-3.4l34.8-21.6l34.8,21.6c3.6,2.2,7.7,3.4,11.8,3.4c0,0,0,0,0,0
		c6.8,0,13.5-3.2,17.7-8.7c4.3-5.4,5.7-12.4,4.1-19.2l-9.8-39.8l31.3-26.4c7-5.9,9.7-15.4,6.9-24.1C350,267,342.3,260.9,333.1,260.3
		z M293.1,312.4c-3.6,3-5.1,7.8-4,12.3l10.4,42.3l-37-23c-4-2.5-9-2.5-12.9,0l-37,23l10.4-42.3c1.1-4.5-0.4-9.3-4-12.3l-33.3-28.1
		l43.5-3.2c4.6-0.3,8.7-3.3,10.5-7.6l16.4-40.4l16.4,40.4c1.8,4.3,5.8,7.3,10.5,7.6l43.5,3.2L293.1,312.4z"/>
</g>
</svg>
