<?xml version="1.0" encoding="utf-8"?>
<!-- Generator: Adobe Illustrator 18.0.0, SVG Export Plug-In . SVG Version: 6.00 Build 0)  -->
<!DOCTYPE svg PUBLIC "-//W3C//DTD SVG 1.1//EN" "http://www.w3.org/Graphics/SVG/1.1/DTD/svg11.dtd">
<svg version="1.1" id="Artwork" xmlns="http://www.w3.org/2000/svg" xmlns:xlink="http://www.w3.org/1999/xlink" x="0px" y="0px"
	 viewBox="0 0 512 512" enable-background="new 0 0 512 512" xml:space="preserve">
<g>
	<path d="M11.3,91.9v310.7c0,19.9,16.2,36.1,36.1,36.1h234.1c6.8,0,12.3-5.5,12.3-12.3c0-6.8-5.5-12.3-12.3-12.3H47.4
		c-6.4,0-11.6-5.2-11.6-11.6V169.9h423.4v67.3c0,6.8,5.5,12.3,12.3,12.3s12.3-5.5,12.3-12.3V91.9c0-19.9-16.2-36.1-36.1-36.1H47.4
		C27.5,55.8,11.3,72,11.3,91.9z M459.2,91.9v53.5H35.8V91.9c0-6.4,5.2-11.6,11.6-11.6h400.3C454,80.3,459.2,85.5,459.2,91.9z"/>
	<path d="M68.4,125.1c3.2,0,6.4-1.3,8.7-3.6c2.3-2.3,3.6-5.4,3.6-8.7c0-3.2-1.3-6.3-3.6-8.6c-4.6-4.6-12.8-4.6-17.3,0
		c-2.3,2.3-3.6,5.4-3.6,8.6c0,3.2,1.3,6.4,3.6,8.7C62,123.8,65.2,125.1,68.4,125.1z"/>
	<path d="M113.2,125.1c3.2,0,6.4-1.3,8.7-3.6c2.3-2.3,3.6-5.4,3.6-8.7c0-3.2-1.3-6.4-3.6-8.6c-4.6-4.6-12.8-4.6-17.3,0
		c-2.3,2.3-3.6,5.4-3.6,8.6c0,3.2,1.3,6.4,3.6,8.7C106.8,123.8,109.9,125.1,113.2,125.1z"/>
	<path d="M157.9,125.1c3.2,0,6.4-1.3,8.7-3.6c2.3-2.3,3.6-5.4,3.6-8.7c0-3.2-1.3-6.4-3.6-8.6c-4.6-4.6-12.8-4.6-17.3,0
		c-2.3,2.3-3.6,5.4-3.6,8.6c0,3.2,1.3,6.4,3.6,8.7C151.6,123.8,154.8,125.1,157.9,125.1z"/>
	<path d="M419.8,392.6l60,60c2.4,2.4,5.5,3.6,8.7,3.6s6.3-1.2,8.7-3.6c4.8-4.8,4.8-12.5,0-17.3l-60-60
		c14.5-18.2,23.2-41.3,23.2-66.3c0-58.9-47.9-106.8-106.8-106.8S246.6,250,246.6,309s47.9,106.8,106.8,106.8
		C378.5,415.8,401.5,407.1,419.8,392.6z M271.1,309c0-45.4,36.9-82.3,82.3-82.3s82.3,36.9,82.3,82.3s-36.9,82.3-82.3,82.3
		S271.1,354.4,271.1,309z"/>
</g>
</svg>
