<?xml version="1.0" encoding="utf-8"?>
<!-- Generator: Adobe Illustrator 18.0.0, SVG Export Plug-In . SVG Version: 6.00 Build 0)  -->
<!DOCTYPE svg PUBLIC "-//W3C//DTD SVG 1.1//EN" "http://www.w3.org/Graphics/SVG/1.1/DTD/svg11.dtd">
<svg version="1.1" id="Artwork" xmlns="http://www.w3.org/2000/svg" xmlns:xlink="http://www.w3.org/1999/xlink" x="0px" y="0px"
	 viewBox="0 0 512 512" enable-background="new 0 0 512 512" xml:space="preserve">
<g>
	<path d="M11.5,370.4c0,18.8,15.3,34,34,34h211.4c6.8,0,12.3-5.5,12.3-12.3s-5.5-12.3-12.3-12.3H45.5c-5.2,0-9.5-4.3-9.5-9.5V158.8
		h384.9v58.9c0,6.8,5.5,12.3,12.3,12.3s12.3-5.5,12.3-12.3V86.4c0-18.8-15.3-34-34-34H45.5c-18.8,0-34,15.3-34,34V370.4z M45.5,76.9
		h365.9c5.2,0,9.5,4.3,9.5,9.5v47.9H36V86.4C36,81.2,40.3,76.9,45.5,76.9z"/>
	<path d="M64.7,117.9c3.2,0,6.4-1.3,8.7-3.6c2.3-2.3,3.6-5.4,3.6-8.6c0-3.2-1.3-6.4-3.6-8.7c-4.5-4.6-12.7-4.6-17.3,0
		c-2.3,2.3-3.6,5.4-3.6,8.7s1.3,6.4,3.6,8.7C58.3,116.6,61.4,117.9,64.7,117.9z"/>
	<path d="M105.6,117.9c3.2,0,6.4-1.3,8.7-3.6c2.3-2.3,3.6-5.5,3.6-8.7c0-3.2-1.3-6.4-3.6-8.7c-4.6-4.6-12.8-4.6-17.3,0
		c-2.3,2.3-3.6,5.4-3.6,8.7s1.3,6.4,3.6,8.7C99.2,116.6,102.4,117.9,105.6,117.9z"/>
	<path d="M146.5,117.9c3.2,0,6.4-1.3,8.7-3.6c2.3-2.3,3.6-5.4,3.6-8.7s-1.3-6.4-3.6-8.7c-4.6-4.6-12.8-4.6-17.3,0
		c-2.3,2.3-3.6,5.4-3.6,8.7c0,3.2,1.3,6.4,3.6,8.7C140.2,116.6,143.3,117.9,146.5,117.9z"/>
	<path d="M392.3,243.2c-59.6,0-108.2,48.5-108.2,108.2s48.5,108.2,108.2,108.2c59.6,0,108.2-48.5,108.2-108.2S452,243.2,392.3,243.2
		z M392.3,435.1c-46.1,0-83.7-37.5-83.7-83.7s37.5-83.7,83.7-83.7c46.1,0,83.7,37.5,83.7,83.7S438.5,435.1,392.3,435.1z"/>
	<path d="M416.6,313.3c-4.6-5-12.3-5.3-17.3-0.8c-5,4.6-5.4,12.3-0.8,17.3l8.6,9.4h-55.6c-6.8,0-12.3,5.5-12.3,12.3
		c0,6.8,5.5,12.3,12.3,12.3h55.6l-8.6,9.4c-4.6,5-4.2,12.7,0.8,17.3c2.3,2.1,5.3,3.2,8.3,3.2c3.3,0,6.6-1.3,9.1-4l27.3-29.9
		c4.3-4.7,4.3-11.8,0-16.5L416.6,313.3z"/>
</g>
</svg>
