<?xml version="1.0" encoding="utf-8"?>
<!-- Generator: Adobe Illustrator 18.0.0, SVG Export Plug-In . SVG Version: 6.00 Build 0)  -->
<!DOCTYPE svg PUBLIC "-//W3C//DTD SVG 1.1//EN" "http://www.w3.org/Graphics/SVG/1.1/DTD/svg11.dtd">
<svg version="1.1" id="Artwork" xmlns="http://www.w3.org/2000/svg" xmlns:xlink="http://www.w3.org/1999/xlink" x="0px" y="0px"
	 viewBox="0 0 512 512" enable-background="new 0 0 512 512" xml:space="preserve">
<g>
	<path d="M453,11.2H59c-19.7,0-35.7,16-35.7,35.7v305.9c0,19.7,16,35.7,35.7,35.7h132.8c6.8,0,12.3-5.5,12.3-12.3
		s-5.5-12.3-12.3-12.3H59c-6.2,0-11.2-5-11.2-11.2V123.9h416.4v228.9c0,6.2-5,11.2-11.2,11.2H321.8c-6.8,0-12.3,5.5-12.3,12.3
		s5.5,12.3,12.3,12.3H453c19.7,0,35.7-16,35.7-35.7V46.9C488.7,27.3,472.7,11.2,453,11.2z M47.8,99.4V46.9c0-6.2,5-11.2,11.2-11.2
		H453c6.2,0,11.2,5,11.2,11.2v52.5H47.8z"/>
	<path d="M70.9,58.9c-2.3,2.3-3.6,5.4-3.6,8.7c0,3.2,1.3,6.4,3.6,8.7c2.3,2.3,5.4,3.6,8.7,3.6s6.4-1.3,8.7-3.6
		c2.3-2.3,3.6-5.4,3.6-8.7c0-3.2-1.3-6.4-3.6-8.7C83.7,54.4,75.5,54.4,70.9,58.9z"/>
	<path d="M115,58.9c-2.3,2.3-3.6,5.4-3.6,8.7c0,3.2,1.3,6.4,3.6,8.7c2.3,2.3,5.4,3.6,8.7,3.6s6.4-1.3,8.7-3.6
		c2.3-2.3,3.6-5.4,3.6-8.7c0-3.2-1.3-6.4-3.6-8.7C127.8,54.4,119.6,54.4,115,58.9z"/>
	<path d="M159.1,58.9c-2.3,2.3-3.6,5.4-3.6,8.7c0,3.2,1.3,6.4,3.6,8.7c2.3,2.3,5.4,3.6,8.7,3.6c3.2,0,6.4-1.3,8.7-3.6
		c2.3-2.3,3.6-5.4,3.6-8.7c0-3.2-1.3-6.4-3.6-8.7C171.9,54.4,163.7,54.4,159.1,58.9z"/>
	<path d="M196.1,445.9l51.3,51.3c2.3,2.3,5.4,3.6,8.7,3.6s6.4-1.3,8.7-3.6l51.3-51.3c4.8-4.8,4.8-12.5,0-17.3
		c-4.8-4.8-12.5-4.8-17.3,0l-30.4,30.4V251.2c0-6.8-5.5-12.3-12.3-12.3s-12.3,5.5-12.3,12.3v207.7l-30.4-30.4
		c-4.8-4.8-12.5-4.8-17.3,0C191.3,433.3,191.3,441.1,196.1,445.9z"/>
	<path d="M378.8,199.9c0-6.8-5.5-12.3-12.3-12.3H145.4c-6.8,0-12.3,5.5-12.3,12.3c0,6.8,5.5,12.3,12.3,12.3h221.1
		C373.3,212.1,378.8,206.6,378.8,199.9z"/>
</g>
</svg>
