<?xml version="1.0" encoding="utf-8"?>
<!-- Generator: Adobe Illustrator 18.0.0, SVG Export Plug-In . SVG Version: 6.00 Build 0)  -->
<!DOCTYPE svg PUBLIC "-//W3C//DTD SVG 1.1//EN" "http://www.w3.org/Graphics/SVG/1.1/DTD/svg11.dtd">
<svg version="1.1" id="Artwork" xmlns="http://www.w3.org/2000/svg" xmlns:xlink="http://www.w3.org/1999/xlink" x="0px" y="0px"
	 viewBox="0 0 512 512" enable-background="new 0 0 512 512" xml:space="preserve">
<g>
	<path d="M49.2,453.4h413.7c20.3,0,36.8-16.5,36.8-36.9V95.5c0-20.3-16.5-36.9-36.8-36.9H49.2c-20.3,0-36.8,16.5-36.8,36.9v321.1
		C12.3,436.9,28.9,453.4,49.2,453.4z M462.8,428.9H49.2c-6.8,0-12.3-5.5-12.3-12.4V175.7h438.3v240.9
		C475.2,423.3,469.6,428.9,462.8,428.9z M49.2,83.1h413.7c6.8,0,12.3,5.5,12.3,12.4v55.7H36.8V95.5C36.8,88.7,42.4,83.1,49.2,83.1z"
		/>
	<path d="M70.9,129.4c3.2,0,6.4-1.3,8.7-3.6c2.3-2.3,3.6-5.4,3.6-8.7c0-3.2-1.3-6.4-3.6-8.7c-4.6-4.6-12.8-4.6-17.3,0
		c-2.3,2.3-3.6,5.4-3.6,8.7c0,3.2,1.3,6.4,3.6,8.7C64.5,128.1,67.6,129.4,70.9,129.4z"/>
	<path d="M117.1,129.4c3.2,0,6.4-1.3,8.7-3.6c2.3-2.3,3.6-5.4,3.6-8.7c0-3.2-1.3-6.4-3.6-8.7c-4.6-4.6-12.7-4.6-17.3,0
		c-2.3,2.3-3.6,5.4-3.6,8.7c0,3.2,1.3,6.4,3.6,8.7C110.8,128.1,113.9,129.4,117.1,129.4z"/>
	<path d="M163.4,129.4c3.2,0,6.4-1.3,8.7-3.6c2.3-2.3,3.6-5.4,3.6-8.7c0-3.2-1.3-6.4-3.6-8.7c-4.6-4.6-12.8-4.6-17.3,0
		c-2.3,2.3-3.6,5.4-3.6,8.7c0,3.2,1.3,6.4,3.6,8.7C157.1,128.1,160.2,129.4,163.4,129.4z"/>
	<path d="M359.7,251.6c-5.2-4.3-12.9-3.6-17.3,1.6c-4.3,5.2-3.6,12.9,1.6,17.3c13.8,11.5,24.2,23.2,30,30.3
		c-15.1,18.4-60.2,66.7-117.4,66.7c-5.3,0-10.7-0.4-16.1-1.3c-6.7-1.1-13,3.5-14,10.2c-1,6.7,3.5,12.9,10.2,14
		c6.6,1,13.3,1.6,19.9,1.6c83,0,140.5-80.7,142.9-84.1c3-4.2,3-9.9,0-14.1C398.9,292.8,384.4,272.2,359.7,251.6z"/>
	<path d="M289.7,282.8c0.1-0.1,0.1-0.1,0.2-0.2l72.4-72.4c4.8-4.8,4.8-12.5,0-17.3c-4.8-4.8-12.5-4.8-17.3,0l-30.1,30.1
		c-19.3-8.8-38.9-13.3-58.3-13.3c-82.9,0-140.5,80.7-142.9,84.1c-3,4.2-3,9.9,0,14.1c1,1.4,23.3,32.7,59.6,56.8l-22.4,22.4
		c-4.8,4.8-4.8,12.5,0,17.3c2.4,2.4,5.5,3.6,8.7,3.6s6.3-1.2,8.7-3.6l121.3-121.3C289.6,282.9,289.6,282.8,289.7,282.8z
		 M139.2,300.7c15.2-18.4,60.4-66.7,117.4-66.7c13,0,26.3,2.6,39.6,7.6l-16.3,16.3c-7-4-14.9-6.2-23.2-6.2
		c-25.8,0-46.8,21-46.8,46.8c0,8.2,2.2,16.2,6.2,23.2l-25,25C166.3,331.4,147.8,311.2,139.2,300.7z M234.8,303
		c-0.3-1.5-0.5-2.9-0.5-4.5c0-12.3,10-22.3,22.3-22.3c1.5,0,3,0.2,4.5,0.5L234.8,303z"/>
</g>
</svg>
