<?xml version="1.0" encoding="utf-8"?>
<!-- Generator: Adobe Illustrator 18.0.0, SVG Export Plug-In . SVG Version: 6.00 Build 0)  -->
<!DOCTYPE svg PUBLIC "-//W3C//DTD SVG 1.1//EN" "http://www.w3.org/Graphics/SVG/1.1/DTD/svg11.dtd">
<svg version="1.1" id="Artwork" xmlns="http://www.w3.org/2000/svg" xmlns:xlink="http://www.w3.org/1999/xlink" x="0px" y="0px"
	 viewBox="0 0 512 512" enable-background="new 0 0 512 512" xml:space="preserve">
<g>
	<path d="M11.7,394c0,18.4,15,33.4,33.4,33.4h154.2c6.8,0,12.3-5.5,12.3-12.3s-5.5-12.3-12.3-12.3H45.1c-4.9,0-8.9-4-8.9-8.9V188.7
		h342.1c6.8,0,12.3-5.5,12.3-12.3c0-6.8-5.5-12.3-12.3-12.3H36.2V118c0-4.9,4-8.9,8.9-8.9h355.6c4.9,0,8.9,4,8.9,8.9v18.6
		c0,6.8,5.5,12.3,12.3,12.3s12.3-5.5,12.3-12.3V118c0-18.4-15-33.4-33.4-33.4H45.1c-18.4,0-33.4,15-33.4,33.4V394z"/>
	<path d="M55.1,128c-2.3,2.3-3.6,5.4-3.6,8.7c0,3.2,1.3,6.4,3.6,8.7c2.3,2.3,5.4,3.6,8.6,3.6c3.2,0,6.4-1.3,8.7-3.6
		c2.3-2.3,3.6-5.4,3.6-8.7c0-3.2-1.3-6.4-3.6-8.7C67.8,123.4,59.6,123.4,55.1,128z"/>
	<path d="M94.8,128c-2.3,2.3-3.6,5.4-3.6,8.7c0,3.2,1.3,6.4,3.6,8.7c2.3,2.3,5.4,3.6,8.6,3.6c3.2,0,6.4-1.3,8.7-3.6
		c2.3-2.3,3.6-5.4,3.6-8.7c0-3.2-1.3-6.4-3.6-8.7C107.7,123.4,99.4,123.4,94.8,128z"/>
	<path d="M134.7,128c-2.3,2.3-3.6,5.4-3.6,8.7c0,3.2,1.3,6.4,3.6,8.7c2.3,2.3,5.4,3.6,8.6,3.6c3.2,0,6.4-1.3,8.7-3.6
		c2.3-2.3,3.6-5.5,3.6-8.7c0-3.2-1.3-6.4-3.6-8.7C147.4,123.4,139.2,123.4,134.7,128z"/>
	<path d="M303.7,291l-30.2,30.2c-8.4,8.4-16.8,16.8-25.2,25.3c-2.8,2.9-4.9,6.7-5.7,10.5c-3,14-6,27.9-8.9,41.9l-1.6,7.7
		c-1.1,5.3,0.1,10.6,3.4,14.6c3.2,4,8,6.2,13.2,6.2c1.3,0,2.6-0.1,3.8-0.4l10.5-2.2c12.9-2.7,25.8-5.5,38.7-8.1
		c4.3-0.9,8.1-2.9,11.2-6.1c37.9-38,142.9-142.9,180.9-180.8c3.9-3.8,6.1-8.6,6.6-14.1c0.1-1.4,0-2.8-0.3-4.1
		c-0.2-0.9-0.4-1.8-0.6-2.7c-0.5-2.6-1.2-5.9-2.7-9.2c-7.8-17.8-20.7-30.5-38.4-37.6c-4-1.6-8-2.1-11.3-2.5l-0.8-0.1
		c-0.9-0.1-1.7-0.2-2.5-0.2c-3.7,0-9.3,1.1-14.5,6.4C407.5,187.3,342.4,252.4,303.7,291z M296,392.8c-12.6,2.6-25.1,5.3-37.7,7.9
		c2.6-12.5,5.3-25.1,8-37.6c8.1-8.2,16.3-16.4,24.5-24.6l30.2-30.2c26.6-26.6,65.5-65.5,94.4-94.4l29.7,29.7
		C397.8,290.9,326.3,362.4,296,392.8z M445.4,183.9c1.5,0.2,2.8,0.4,3.6,0.7c11.7,4.7,20,12.8,25.2,24.8c0.4,0.9,0.7,2.4,1.1,4.1
		c-3.7,3.7-8,8-12.8,12.8l-29.7-29.7C437.7,191.6,442,187.3,445.4,183.9z"/>
	<path d="M325.3,212H73.9c-6.8,0-12.3,5.5-12.3,12.3s5.5,12.3,12.3,12.3h251.4c6.8,0,12.3-5.5,12.3-12.3S332.1,212,325.3,212z"/>
	<path d="M73.9,284.2h191.7c6.8,0,12.3-5.5,12.3-12.3c0-6.8-5.5-12.3-12.3-12.3H73.9c-6.8,0-12.3,5.5-12.3,12.3
		C61.6,278.8,67.1,284.2,73.9,284.2z"/>
	<path d="M73.9,332h150.4c6.8,0,12.3-5.5,12.3-12.3s-5.5-12.3-12.3-12.3H73.9c-6.8,0-12.3,5.5-12.3,12.3S67.1,332,73.9,332z"/>
	<path d="M73.9,379.7h127.5c6.8,0,12.3-5.5,12.3-12.3c0-6.8-5.5-12.3-12.3-12.3H73.9c-6.8,0-12.3,5.5-12.3,12.3
		C61.6,374.2,67.1,379.7,73.9,379.7z"/>
</g>
</svg>
