<?xml version="1.0" encoding="utf-8"?>
<!-- Generator: Adobe Illustrator 18.0.0, SVG Export Plug-In . SVG Version: 6.00 Build 0)  -->
<!DOCTYPE svg PUBLIC "-//W3C//DTD SVG 1.1//EN" "http://www.w3.org/Graphics/SVG/1.1/DTD/svg11.dtd">
<svg version="1.1" id="Artwork" xmlns="http://www.w3.org/2000/svg" xmlns:xlink="http://www.w3.org/1999/xlink" x="0px" y="0px"
	 viewBox="0 0 512 512" enable-background="new 0 0 512 512" xml:space="preserve">
<g>
	<path d="M433.1,229.9c6.8,0,12.3-5.5,12.3-12.3V86.4c0-18.8-15.3-34-34-34H45.5c-18.8,0-34,15.3-34,34v284c0,18.8,15.3,34,34,34
		h211.4c6.8,0,12.3-5.5,12.3-12.3s-5.5-12.3-12.3-12.3H45.5c-5.2,0-9.5-4.3-9.5-9.5V158.8h384.9v58.9
		C420.9,224.5,426.4,229.9,433.1,229.9z M36,134.3V86.4c0-5.2,4.3-9.5,9.5-9.5h365.9c5.2,0,9.5,4.3,9.5,9.5v47.9H36z"/>
	<path d="M56,96.9c-2.3,2.3-3.6,5.4-3.6,8.7s1.3,6.4,3.6,8.7c2.3,2.3,5.5,3.6,8.7,3.6c3.2,0,6.4-1.3,8.7-3.6
		c2.3-2.3,3.6-5.4,3.6-8.7s-1.3-6.4-3.6-8.7C68.7,92.4,60.5,92.4,56,96.9z"/>
	<path d="M97,96.9c-2.3,2.3-3.6,5.4-3.6,8.7s1.3,6.4,3.6,8.7c2.3,2.3,5.4,3.6,8.7,3.6c3.2,0,6.4-1.3,8.6-3.6
		c2.3-2.3,3.6-5.4,3.6-8.7s-1.3-6.4-3.6-8.7C109.7,92.4,101.5,92.4,97,96.9z"/>
	<path d="M137.9,96.9c-2.3,2.3-3.6,5.4-3.6,8.7s1.3,6.4,3.6,8.7c2.3,2.3,5.5,3.6,8.7,3.6c3.2,0,6.4-1.3,8.7-3.6
		c2.3-2.3,3.6-5.4,3.6-8.7s-1.3-6.4-3.6-8.7C150.7,92.4,142.5,92.4,137.9,96.9z"/>
	<path d="M392.3,243.2c-59.6,0-108.2,48.5-108.2,108.2c0,59.6,48.5,108.2,108.2,108.2c59.6,0,108.2-48.5,108.2-108.2
		C500.5,291.8,452,243.2,392.3,243.2z M392.3,435.1c-46.1,0-83.7-37.5-83.7-83.7c0-46.1,37.5-83.7,83.7-83.7s83.7,37.5,83.7,83.7
		C476,397.5,438.5,435.1,392.3,435.1z"/>
	<path d="M414,357.6l-9.4,8.6v-55.6c0-6.8-5.5-12.3-12.3-12.3c-6.8,0-12.3,5.5-12.3,12.3v55.6l-9.4-8.6c-5-4.6-12.7-4.2-17.3,0.8
		c-4.6,5-4.2,12.7,0.8,17.3l29.9,27.3c2.3,2.1,5.3,3.2,8.3,3.2c3,0,5.9-1.1,8.3-3.2l29.9-27.3c5-4.6,5.4-12.3,0.8-17.3
		S419,353,414,357.6z"/>
</g>
</svg>
