<?xml version="1.0" encoding="utf-8"?>
<!-- Generator: Adobe Illustrator 18.0.0, SVG Export Plug-In . SVG Version: 6.00 Build 0)  -->
<!DOCTYPE svg PUBLIC "-//W3C//DTD SVG 1.1//EN" "http://www.w3.org/Graphics/SVG/1.1/DTD/svg11.dtd">
<svg version="1.1" id="Artwork" xmlns="http://www.w3.org/2000/svg" xmlns:xlink="http://www.w3.org/1999/xlink" x="0px" y="0px"
	 viewBox="0 0 512 512" enable-background="new 0 0 512 512" xml:space="preserve">
<g>
	<path d="M364.9,47.5H42.9c-17.3,0-31.4,14.1-31.4,31.4v250c0,17.3,14.1,31.4,31.4,31.4h322.1c17.3,0,31.4-14.1,31.4-31.4v-250
		C396.3,61.6,382.3,47.5,364.9,47.5z M42.9,72h322.1c3.8,0,6.9,3.1,6.9,6.9v40.7H36V78.9C36,75.1,39.1,72,42.9,72z M364.9,335.8
		H42.9c-3.8,0-6.9-3.1-6.9-6.9V144.1h335.9v184.8C371.8,332.7,368.7,335.8,364.9,335.8z"/>
	<path d="M449.3,381.8v-250c0-6.8-5.5-12.3-12.3-12.3s-12.3,5.5-12.3,12.3v250c0,3.8-3.1,6.9-6.9,6.9H95.8
		c-6.8,0-12.3,5.5-12.3,12.3c0,6.8,5.5,12.3,12.3,12.3h322.1C435.2,413.2,449.3,399.1,449.3,381.8z"/>
	<path d="M500.5,433.1v-250c0-6.8-5.5-12.3-12.3-12.3s-12.3,5.5-12.3,12.3v250c0,3.8-3.1,6.9-6.9,6.9H147.1
		c-6.8,0-12.3,5.5-12.3,12.3s5.5,12.3,12.3,12.3h322.1C486.4,464.5,500.5,450.4,500.5,433.1z"/>
	<path d="M141.4,108.1c3.2,0,6.4-1.3,8.6-3.6c2.3-2.3,3.6-5.4,3.6-8.6c0-3.2-1.3-6.4-3.6-8.7c-4.6-4.6-12.7-4.6-17.3,0
		c-2.3,2.3-3.6,5.4-3.6,8.7c0,3.2,1.3,6.4,3.6,8.6C135,106.8,138.2,108.1,141.4,108.1z"/>
	<path d="M105.4,108.1c3.2,0,6.4-1.3,8.7-3.6c2.3-2.3,3.6-5.4,3.6-8.6c0-3.2-1.3-6.4-3.6-8.7c-4.6-4.6-12.8-4.6-17.3,0
		c-2.3,2.3-3.6,5.4-3.6,8.7c0,3.2,1.3,6.4,3.6,8.6C99,106.8,102.1,108.1,105.4,108.1z"/>
	<path d="M69.4,108.1c3.2,0,6.4-1.3,8.6-3.6c2.3-2.3,3.6-5.4,3.6-8.6c0-3.2-1.3-6.4-3.6-8.7c-4.5-4.6-12.7-4.6-17.3,0
		c-2.3,2.3-3.6,5.4-3.6,8.7c0,3.2,1.3,6.4,3.6,8.6C63,106.8,66.1,108.1,69.4,108.1z"/>
</g>
</svg>
