<?xml version="1.0" encoding="utf-8"?>
<!-- Generator: Adobe Illustrator 18.0.0, SVG Export Plug-In . SVG Version: 6.00 Build 0)  -->
<!DOCTYPE svg PUBLIC "-//W3C//DTD SVG 1.1//EN" "http://www.w3.org/Graphics/SVG/1.1/DTD/svg11.dtd">
<svg version="1.1" id="Artwork" xmlns="http://www.w3.org/2000/svg" xmlns:xlink="http://www.w3.org/1999/xlink" x="0px" y="0px"
	 viewBox="0 0 512 512" enable-background="new 0 0 512 512" xml:space="preserve">
<g>
	<path d="M49.2,453.4h413.7c20.3,0,36.8-16.5,36.8-36.9V95.5c0-20.3-16.5-36.9-36.8-36.9H49.2c-20.3,0-36.9,16.5-36.9,36.9v321.1
		C12.3,436.9,28.9,453.4,49.2,453.4z M462.8,428.9H49.2c-6.8,0-12.4-5.5-12.4-12.4V175.7h438.3v240.9
		C475.2,423.3,469.6,428.9,462.8,428.9z M49.2,83.1h413.7c6.8,0,12.3,5.5,12.3,12.4v55.7H36.8V95.5C36.8,88.7,42.4,83.1,49.2,83.1z"
		/>
	<path d="M70.9,129.4c3.2,0,6.4-1.3,8.6-3.6c2.3-2.3,3.6-5.4,3.6-8.7c0-3.2-1.3-6.4-3.6-8.7c-4.6-4.6-12.7-4.5-17.3,0
		c-2.3,2.3-3.6,5.4-3.6,8.7c0,3.2,1.3,6.4,3.6,8.7C64.5,128.1,67.6,129.4,70.9,129.4z"/>
	<path d="M117.1,129.4c3.2,0,6.4-1.3,8.7-3.6c2.3-2.3,3.6-5.4,3.6-8.7c0-3.2-1.3-6.4-3.6-8.7c-4.6-4.6-12.8-4.5-17.3,0
		c-2.3,2.3-3.6,5.5-3.6,8.7c0,3.2,1.3,6.4,3.6,8.7C110.8,128.1,113.9,129.4,117.1,129.4z"/>
	<path d="M163.4,129.4c3.2,0,6.4-1.3,8.7-3.6c2.3-2.3,3.6-5.4,3.6-8.7c0-3.2-1.3-6.4-3.6-8.7c-4.6-4.5-12.7-4.6-17.3,0
		c-2.3,2.3-3.6,5.5-3.6,8.7c0,3.2,1.3,6.4,3.6,8.7C157.1,128.1,160.2,129.4,163.4,129.4z"/>
	<path d="M330.9,236.8h-90.1v-15.9h44.4c6.8,0,12.3-5.5,12.3-12.3c0-6.8-5.5-12.3-12.3-12.3h-56.6c-6.8,0-12.3,5.5-12.3,12.3v28.2
		h-35.1c-6.8,0-12.3,5.5-12.3,12.3c0,6.8,5.5,12.3,12.3,12.3h149.7c6.8,0,12.3-5.5,12.3-12.3C343.1,242.3,337.6,236.8,330.9,236.8z"
		/>
	<path d="M313.2,277.1c-6.7-0.3-12.6,4.7-13,11.5l-5.8,95.1c-0.1,0.8-0.5,2.8-1.8,2.8h-73.1c-1.6,0-1.8-2.5-1.8-2.6l-5.8-94.5
		c-0.4-6.7-6.2-11.9-13-11.5c-6.8,0.4-11.9,6.2-11.5,13l5.8,94.5c0.9,14.5,12.2,25.5,26.3,25.5h73.1c13.8,0,25.1-10.9,26.3-25.6
		l5.8-95.4C325.1,283.3,319.9,277.5,313.2,277.1z"/>
</g>
</svg>
