<?xml version="1.0" encoding="utf-8"?>
<!-- Generator: Adobe Illustrator 18.0.0, SVG Export Plug-In . SVG Version: 6.00 Build 0)  -->
<!DOCTYPE svg PUBLIC "-//W3C//DTD SVG 1.1//EN" "http://www.w3.org/Graphics/SVG/1.1/DTD/svg11.dtd">
<svg version="1.1" id="Artwork" xmlns="http://www.w3.org/2000/svg" xmlns:xlink="http://www.w3.org/1999/xlink" x="0px" y="0px"
	 viewBox="0 0 512 512" enable-background="new 0 0 512 512" xml:space="preserve">
<g>
	<path d="M117,170.6c3.2,0,6.4-1.3,8.7-3.6c2.3-2.3,3.6-5.4,3.6-8.7c0-3.2-1.3-6.4-3.6-8.7c-4.6-4.6-12.8-4.6-17.3,0
		c-2.3,2.3-3.6,5.4-3.6,8.7c0,3.2,1.3,6.4,3.6,8.7C110.6,169.2,113.8,170.6,117,170.6z"/>
	<path d="M158.3,170.6c3.2,0,6.4-1.3,8.6-3.6c2.3-2.3,3.6-5.4,3.6-8.7c0-3.2-1.3-6.4-3.6-8.7c-4.6-4.6-12.8-4.6-17.3,0
		c-2.3,2.3-3.6,5.4-3.6,8.7c0,3.2,1.3,6.4,3.6,8.7C151.9,169.2,155.1,170.6,158.3,170.6z"/>
	<path d="M199.7,170.6c3.2,0,6.4-1.3,8.7-3.6c2.3-2.3,3.6-5.5,3.6-8.7c0-3.2-1.3-6.4-3.6-8.7c-4.6-4.6-12.8-4.6-17.3,0
		c-2.3,2.3-3.6,5.4-3.6,8.7c0,3.2,1.3,6.4,3.6,8.7C193.3,169.2,196.4,170.6,199.7,170.6z"/>
	<path d="M501.2,425.7V139c0-18.9-15.3-34.2-34.2-34.2H97.6c-18.9,0-34.2,15.4-34.2,34.2v286.7c0,18.9,15.3,34.2,34.2,34.2H467
		C485.9,459.9,501.2,444.5,501.2,425.7z M97.6,129.2H467c5.4,0,9.7,4.4,9.7,9.7v48.4H87.9V139C87.9,133.6,92.3,129.2,97.6,129.2z
		 M87.9,425.7V211.9h388.8v213.8c0,5.4-4.4,9.7-9.7,9.7H97.6C92.3,435.4,87.9,431,87.9,425.7z"/>
	<path d="M10.8,86.3V373c0,6.8,5.5,12.3,12.3,12.3s12.3-5.5,12.3-12.3V86.3c0-5.4,4.4-9.7,9.7-9.7h369.4c6.8,0,12.3-5.5,12.3-12.3
		s-5.5-12.2-12.3-12.2H45C26.1,52.1,10.8,67.5,10.8,86.3z"/>
</g>
</svg>
