<?xml version="1.0" encoding="utf-8"?>
<!-- Generator: Adobe Illustrator 18.0.0, SVG Export Plug-In . SVG Version: 6.00 Build 0)  -->
<!DOCTYPE svg PUBLIC "-//W3C//DTD SVG 1.1//EN" "http://www.w3.org/Graphics/SVG/1.1/DTD/svg11.dtd">
<svg version="1.1" id="Artwork" xmlns="http://www.w3.org/2000/svg" xmlns:xlink="http://www.w3.org/1999/xlink" x="0px" y="0px"
	 viewBox="0 0 512 512" enable-background="new 0 0 512 512" xml:space="preserve">
<g>
	<path d="M411.4,52.7H45.5c-18.8,0-34,15.3-34,34v284c0,18.8,15.3,34,34,34h211.4c6.8,0,12.3-5.5,12.3-12.3s-5.5-12.3-12.3-12.3
		H45.5c-5.2,0-9.5-4.3-9.5-9.5V159.1h384.9v60.7c0,6.8,5.5,12.3,12.3,12.3s12.3-5.5,12.3-12.3V86.7
		C445.4,67.9,430.1,52.7,411.4,52.7z M36,134.6V86.7c0-5.2,4.3-9.5,9.5-9.5h365.9c5.2,0,9.5,4.3,9.5,9.5v47.9H36z"/>
	<path d="M56,97.2c-2.3,2.3-3.6,5.4-3.6,8.6c0,3.2,1.3,6.4,3.6,8.7c2.3,2.3,5.4,3.6,8.7,3.6s6.4-1.3,8.7-3.6
		c2.3-2.3,3.6-5.4,3.6-8.7c0-3.2-1.3-6.4-3.6-8.7C68.8,92.7,60.6,92.6,56,97.2z"/>
	<path d="M97,97.2c-2.3,2.3-3.6,5.4-3.6,8.7s1.3,6.4,3.6,8.7c2.3,2.3,5.4,3.6,8.7,3.6c3.2,0,6.4-1.3,8.7-3.6
		c2.3-2.3,3.6-5.4,3.6-8.7c0-3.2-1.3-6.4-3.6-8.7C109.7,92.6,101.5,92.7,97,97.2z"/>
	<path d="M137.9,97.2c-2.3,2.3-3.6,5.4-3.6,8.7c0,3.3,1.3,6.4,3.6,8.7c2.3,2.3,5.4,3.6,8.7,3.6c3.2,0,6.4-1.3,8.7-3.6
		c2.3-2.3,3.6-5.4,3.6-8.7c0-3.2-1.3-6.4-3.6-8.7C150.6,92.7,142.5,92.6,137.9,97.2z"/>
	<path d="M315.8,427.6c42.2,42.2,110.8,42.2,153,0s42.2-110.8,0-153s-110.8-42.2-153,0S273.7,385.5,315.8,427.6z M451.5,292
		c32.6,32.6,32.6,85.7,0,118.3s-85.7,32.6-118.3,0s-32.6-85.7,0-118.3S418.9,259.4,451.5,292z"/>
	<path d="M358.4,334.5l16.6,16.6l-16.6,16.6c-4.8,4.8-4.8,12.5,0,17.3c4.8,4.8,12.5,4.8,17.3,0l16.6-16.6l16.6,16.6
		c4.8,4.8,12.5,4.8,17.3,0c4.8-4.8,4.8-12.5,0-17.3l-16.6-16.6l16.6-16.6c4.8-4.8,4.8-12.5,0-17.3c-4.8-4.8-12.5-4.8-17.3,0
		l-16.6,16.6l-16.6-16.6c-4.8-4.8-12.5-4.8-17.3,0C353.6,322,353.6,329.8,358.4,334.5z"/>
</g>
</svg>
