<?xml version="1.0" encoding="utf-8"?>
<!-- Generator: Adobe Illustrator 18.0.0, SVG Export Plug-In . SVG Version: 6.00 Build 0)  -->
<!DOCTYPE svg PUBLIC "-//W3C//DTD SVG 1.1//EN" "http://www.w3.org/Graphics/SVG/1.1/DTD/svg11.dtd">
<svg version="1.1" id="Artwork" xmlns="http://www.w3.org/2000/svg" xmlns:xlink="http://www.w3.org/1999/xlink" x="0px" y="0px"
	 viewBox="0 0 512 512" enable-background="new 0 0 512 512" xml:space="preserve">
<g>
	<path d="M12.3,95.5v321.1c0,20.3,16.5,36.9,36.9,36.9h413.7c20.3,0,36.8-16.5,36.8-36.9V95.5c0-20.3-16.5-36.9-36.8-36.9H49.2
		C28.9,58.6,12.3,75.1,12.3,95.5z M462.8,428.9H49.2c-6.8,0-12.4-5.5-12.4-12.4V175.7h438.3v240.9
		C475.2,423.3,469.6,428.9,462.8,428.9z M475.2,95.5v55.7H36.8V95.5c0-6.8,5.5-12.4,12.4-12.4h413.7
		C469.6,83.1,475.2,88.7,475.2,95.5z"/>
	<path d="M70.9,129.4c3.2,0,6.4-1.3,8.7-3.6c2.3-2.3,3.6-5.4,3.6-8.7c0-3.2-1.3-6.4-3.6-8.7c-4.6-4.6-12.8-4.6-17.3,0
		c-2.3,2.3-3.6,5.4-3.6,8.7c0,3.2,1.3,6.4,3.6,8.7C64.5,128.1,67.6,129.4,70.9,129.4z"/>
	<path d="M117.2,129.4c3.2,0,6.4-1.3,8.6-3.6c2.3-2.3,3.6-5.4,3.6-8.7c0-3.2-1.3-6.4-3.6-8.7c-4.6-4.6-12.7-4.6-17.3,0
		c-2.3,2.3-3.6,5.4-3.6,8.7c0,3.2,1.3,6.4,3.6,8.7C110.7,128.1,113.9,129.4,117.2,129.4z"/>
	<path d="M163.4,129.4c3.2,0,6.4-1.3,8.7-3.6c2.3-2.3,3.6-5.4,3.6-8.7c0-3.2-1.3-6.4-3.6-8.7c-4.6-4.6-12.8-4.6-17.3,0
		c-2.3,2.3-3.6,5.4-3.6,8.7c0,3.2,1.3,6.4,3.6,8.7C157,128.1,160.2,129.4,163.4,129.4z"/>
	<path d="M337.6,232.3c-5.2-4.4-12.9-3.7-17.3,1.4c-4.4,5.2-3.7,12.9,1.4,17.3l61.8,52.3l-61.8,52.5c-5.2,4.4-5.8,12.1-1.4,17.3
		c2.4,2.9,5.9,4.3,9.3,4.3c2.8,0,5.6-1,7.9-2.9l72.9-61.8c2.7-2.3,4.3-5.7,4.3-9.4c0-3.6-1.6-7-4.3-9.3L337.6,232.3z"/>
	<path d="M128.4,303.3l61.7-52.3c5.2-4.4,5.8-12.1,1.4-17.3c-4.4-5.2-12.1-5.8-17.3-1.4l-72.8,61.6c-2.7,2.3-4.3,5.7-4.3,9.3
		c0,3.6,1.6,7,4.3,9.3l72.8,61.8c2.3,2,5.1,2.9,7.9,2.9c3.5,0,6.9-1.5,9.3-4.3c4.4-5.2,3.8-12.9-1.4-17.3L128.4,303.3z"/>
	<path d="M291.1,214.9c-6.3-2.5-13.4,0.5-15.9,6.8L213.5,376c-2.5,6.3,0.5,13.4,6.8,15.9c1.5,0.6,3,0.9,4.5,0.9
		c4.9,0,9.5-2.9,11.4-7.7l61.7-154.3C300.5,224.5,297.4,217.4,291.1,214.9z"/>
</g>
</svg>
