<?xml version="1.0" encoding="utf-8"?>
<!-- Generator: Adobe Illustrator 18.0.0, SVG Export Plug-In . SVG Version: 6.00 Build 0)  -->
<!DOCTYPE svg PUBLIC "-//W3C//DTD SVG 1.1//EN" "http://www.w3.org/Graphics/SVG/1.1/DTD/svg11.dtd">
<svg version="1.1" id="Artwork" xmlns="http://www.w3.org/2000/svg" xmlns:xlink="http://www.w3.org/1999/xlink" x="0px" y="0px"
	 viewBox="0 0 512 512" enable-background="new 0 0 512 512" xml:space="preserve">
<g>
	<path d="M379.1,306.9h109.8c6.8,0,12.3-5.5,12.3-12.3s-5.5-12.3-12.3-12.3H379.1v-30h25.3c23.8,0,43.2-19.4,43.2-43.2v-44.7
		c0-6.8-5.5-12.3-12.3-12.3s-12.3,5.5-12.3,12.3v44.7c0,10.3-8.4,18.7-18.7,18.7h-25.4c-1.3-24.8-21.9-44.7-47-44.7H180.1
		c-25.2,0-45.7,19.8-47,44.7h-25.4c-10.3,0-18.7-8.4-18.7-18.7v-44.7c0-6.8-5.5-12.3-12.3-12.3s-12.3,5.5-12.3,12.3v44.7
		c0,23.8,19.4,43.2,43.2,43.2h25.3v30H23.1c-6.8,0-12.3,5.5-12.3,12.3s5.5,12.3,12.3,12.3h109.8v20.6c0,3.1,0.2,6.1,0.4,9.1h-25.7
		c-23.8,0-43.2,19.4-43.2,43.2v44.7c0,6.8,5.5,12.3,12.3,12.3s12.3-5.5,12.3-12.3v-44.7c0-10.3,8.4-18.7,18.7-18.7H138
		c14.4,46.9,58.1,81.1,109.6,81.1h16.8c51.5,0,95.2-34.2,109.6-81.1h30.3c10.3,0,18.7,8.4,18.7,18.7v44.7c0,6.8,5.5,12.3,12.3,12.3
		s12.3-5.5,12.3-12.3v-44.7c0-23.8-19.4-43.2-43.2-43.2h-25.7c0.2-3,0.4-6,0.4-9.1V306.9z M157.4,327.6v-97.1
		c0-12.5,10.2-22.7,22.7-22.7h63.6v209.8C195.8,415.5,157.4,376,157.4,327.6z M268.3,417.5V207.8h63.6c12.5,0,22.7,10.2,22.7,22.7
		v97.1C354.6,376,316.2,415.5,268.3,417.5z"/>
	<path d="M177.9,147.9c0,6.8,5.5,12.3,12.3,12.3c6.8,0,12.3-5.5,12.3-12.3c0-29.6,24-53.6,53.6-53.6c29.6,0,53.6,24,53.6,53.6
		c0,6.8,5.5,12.3,12.3,12.3s12.3-5.5,12.3-12.3c0-43.1-35-78.1-78.1-78.1S177.9,104.8,177.9,147.9z"/>
</g>
</svg>
