<?xml version="1.0" encoding="utf-8"?>
<!-- Generator: Adobe Illustrator 18.0.0, SVG Export Plug-In . SVG Version: 6.00 Build 0)  -->
<!DOCTYPE svg PUBLIC "-//W3C//DTD SVG 1.1//EN" "http://www.w3.org/Graphics/SVG/1.1/DTD/svg11.dtd">
<svg version="1.1" id="Artwork" xmlns="http://www.w3.org/2000/svg" xmlns:xlink="http://www.w3.org/1999/xlink" x="0px" y="0px"
	 viewBox="0 0 512 512" enable-background="new 0 0 512 512" xml:space="preserve">
<g>
	<path d="M381,326.8h48.8c6.8,0,12.3-5.5,12.3-12.3s-5.5-12.3-12.3-12.3H381v-32.8h86.7c18.7,0,33.8-15.2,33.8-33.8v-35.7
		c0-6.8-5.5-12.3-12.3-12.3c-6.8,0-12.3,5.5-12.3,12.3v35.7c0,5.1-4.2,9.3-9.3,9.3H381v-32.8h48.8c6.8,0,12.3-5.5,12.3-12.3
		c0-6.8-5.5-12.3-12.3-12.3H381v-45.1c0-6.8-5.5-12.3-12.3-12.3h-45.1V82.8c0-6.8-5.5-12.3-12.3-12.3s-12.3,5.5-12.3,12.3v47.6
		h-32.8V44.9c0-18.7-15.2-33.8-33.8-33.8h-35.7c-6.8,0-12.3,5.5-12.3,12.3s5.5,12.2,12.3,12.2h35.7c5.1,0,9.3,4.2,9.3,9.3v85.4
		h-32.8V82.8c0-6.8-5.5-12.3-12.3-12.3c-6.8,0-12.3,5.5-12.3,12.3v47.6h-45.1c-6.8,0-12.3,5.5-12.3,12.3v45.1H82.2
		c-6.8,0-12.3,5.5-12.3,12.3c0,6.8,5.5,12.3,12.3,12.3h45.1V245H44.3c-18.7,0-33.8,15.2-33.8,33.8v35.7c0,6.8,5.5,12.3,12.2,12.3
		S35,321.3,35,314.6v-35.7c0-5.1,4.2-9.3,9.3-9.3h82.9v32.8H82.2c-6.8,0-12.3,5.5-12.3,12.3s5.5,12.3,12.3,12.3h45.1v45.1
		c0,6.8,5.5,12.3,12.3,12.3h45.1v45.1c0,6.8,5.5,12.3,12.3,12.3c6.8,0,12.3-5.5,12.3-12.3v-45.1h32.8v82.9
		c0,18.7,15.2,33.8,33.8,33.8h35.7c6.8,0,12.3-5.5,12.3-12.3s-5.5-12.3-12.3-12.3h-35.7c-5.1,0-9.3-4.2-9.3-9.3v-82.9h32.8v45.1
		c0,6.8,5.5,12.3,12.3,12.3s12.3-5.5,12.3-12.3v-45.1h45.1c6.8,0,12.3-5.5,12.3-12.3V326.8z M356.5,359.6H151.7V154.9h204.8V359.6z"
		/>
	<path d="M193.2,330.4h121.9c6.8,0,12.3-5.5,12.3-12.3V196.3c0-6.8-5.5-12.3-12.3-12.3H193.2c-6.8,0-12.3,5.5-12.3,12.3v121.9
		C180.9,325,186.4,330.4,193.2,330.4z M205.4,208.6h97.4v97.4h-97.4V208.6z"/>
</g>
</svg>
