<?xml version="1.0" encoding="utf-8"?>
<!-- Generator: Adobe Illustrator 18.0.0, SVG Export Plug-In . SVG Version: 6.00 Build 0)  -->
<!DOCTYPE svg PUBLIC "-//W3C//DTD SVG 1.1//EN" "http://www.w3.org/Graphics/SVG/1.1/DTD/svg11.dtd">
<svg version="1.1" id="Artwork" xmlns="http://www.w3.org/2000/svg" xmlns:xlink="http://www.w3.org/1999/xlink" x="0px" y="0px"
	 viewBox="0 0 512 512" enable-background="new 0 0 512 512" xml:space="preserve">
<g>
	<path d="M63.2,407.9h385.5c28.8,0,52.2-23.4,52.2-52.2V78.7c0-28.8-23.4-52.2-52.2-52.2H63.2C34.4,26.5,11,49.9,11,78.7v276.9
		C11,384.5,34.4,407.9,63.2,407.9z M35.5,78.7C35.5,63.5,47.9,51,63.2,51h385.5c15.3,0,27.7,12.4,27.7,27.7v276.9
		c0,15.3-12.4,27.7-27.7,27.7H63.2c-15.3,0-27.7-12.4-27.7-27.7V78.7z"/>
	<path d="M256,426.8c-6.8,0-12.3,5.5-12.3,12.3v22h-65.3c-6.8,0-12.3,5.5-12.3,12.3c0,6.8,5.5,12.3,12.3,12.3h155.2
		c6.8,0,12.3-5.5,12.3-12.3c0-6.8-5.5-12.3-12.3-12.3h-65.3v-22C268.2,432.2,262.8,426.8,256,426.8z"/>
	<path d="M143.4,337.5c0.3,0,0.6,0,0.9,0c6.7-0.5,11.8-6.3,11.4-13.1c-0.7-9.4,0-25.7,11.9-28.8c47.5-11.9,66.1-27.6,73.3-39.5
		c4.1,0.8,8.4,1.3,12.9,1.4c0.3,0,0.6,0,0.9,0h0.7c0.3,0,0.6,0,0.9,0c5.4-0.1,10.5-0.8,15.3-2c7.4,12,26.1,28.3,73,40.1
		c11.9,3,12.6,19.3,11.9,28.8c-0.5,6.8,4.6,12.6,11.4,13.1c0.3,0,0.6,0,0.9,0c6.4,0,11.8-4.9,12.2-11.4c2-28.6-9.3-48.9-30.4-54.2
		c-36.2-9.1-51.5-20.4-56.8-27.2c2.3-1.9,4.6-4,6.7-6.3c23.5-26.4,19.9-71,19.4-76.1C317.4,114,284.1,97,256.3,97
		c-0.5,0-0.9,0-1.3,0c-0.3,0-0.8,0-1.3,0c-27.8,0-61.1,17.1-63.5,65.2c-0.5,5.1-4,49.6,19.4,76.1c2.5,2.9,5.3,5.4,8.2,7.6
		c-5.7,6.5-21.1,17.1-56.4,26c-21,5.3-32.4,25.6-30.3,54.2C131.6,332.5,137,337.5,143.4,337.5z M214.6,164.4c0-0.3,0-0.5,0.1-0.8
		c1.7-38.1,27.9-42.2,39-42.2l0.8,0c0.3,0,0.6,0,1,0l0.8,0c11.2,0,37.3,4.1,39,42.2c0,0.3,0,0.5,0.1,0.8c1.1,10.5,1,41.4-13.4,57.6
		c-6.5,7.3-15.2,10.9-26.8,11c-0.2,0-0.3,0-0.5,0c-11.5-0.1-20.3-3.7-26.8-11C213.7,206,213.5,175,214.6,164.4z"/>
</g>
</svg>
