<?xml version="1.0" encoding="utf-8"?>
<!-- Generator: Adobe Illustrator 18.0.0, SVG Export Plug-In . SVG Version: 6.00 Build 0)  -->
<!DOCTYPE svg PUBLIC "-//W3C//DTD SVG 1.1//EN" "http://www.w3.org/Graphics/SVG/1.1/DTD/svg11.dtd">
<svg version="1.1" id="Artwork" xmlns="http://www.w3.org/2000/svg" xmlns:xlink="http://www.w3.org/1999/xlink" x="0px" y="0px"
	 viewBox="0 0 512 512" enable-background="new 0 0 512 512" xml:space="preserve">
<g>
	<path d="M11.4,48.5v322.3c0,20.4,16.6,36.9,36.9,36.9h192.3v68.2h-65.3c-6.8,0-12.3,5.5-12.3,12.3s5.5,12.3,12.3,12.3h154.9
		c6.8,0,12.3-5.5,12.3-12.3s-5.5-12.3-12.3-12.3h-65.1v-68.2h198.4c20.4,0,36.9-16.6,36.9-36.9V48.5c0-20.4-16.6-36.9-36.9-36.9
		H48.4C28,11.6,11.4,28.1,11.4,48.5z M463.6,383.2H48.4c-6.9,0-12.4-5.6-12.4-12.4V129h440.1v241.8
		C476.1,377.7,470.5,383.2,463.6,383.2z M476.1,48.5v56H35.9v-56c0-6.9,5.6-12.4,12.4-12.4h415.2C470.5,36.1,476.1,41.6,476.1,48.5z
		"/>
	<path d="M70.2,82.5c3.2,0,6.4-1.3,8.7-3.6c2.3-2.3,3.6-5.4,3.6-8.6c0-3.2-1.3-6.4-3.6-8.7c-4.6-4.6-12.8-4.6-17.3,0
		c-2.3,2.3-3.6,5.4-3.6,8.7c0,3.2,1.3,6.3,3.6,8.6C63.8,81.2,66.9,82.5,70.2,82.5z"/>
	<path d="M116.6,82.5c3.2,0,6.4-1.3,8.7-3.6c2.3-2.3,3.6-5.4,3.6-8.6c0-3.2-1.3-6.4-3.6-8.7c-4.6-4.6-12.8-4.6-17.3,0
		c-2.3,2.3-3.6,5.4-3.6,8.7c0,3.2,1.3,6.4,3.6,8.6C110.2,81.2,113.4,82.5,116.6,82.5z"/>
	<path d="M163.1,82.5c3.2,0,6.4-1.3,8.7-3.6c2.3-2.3,3.6-5.4,3.6-8.6c0-3.2-1.3-6.4-3.6-8.7c-4.6-4.6-12.8-4.6-17.3,0
		c-2.3,2.3-3.6,5.4-3.6,8.7c0,3.2,1.3,6.4,3.6,8.6C156.7,81.2,159.8,82.5,163.1,82.5z"/>
</g>
</svg>
