<?xml version="1.0" encoding="utf-8"?>
<!-- Generator: Adobe Illustrator 18.0.0, SVG Export Plug-In . SVG Version: 6.00 Build 0)  -->
<!DOCTYPE svg PUBLIC "-//W3C//DTD SVG 1.1//EN" "http://www.w3.org/Graphics/SVG/1.1/DTD/svg11.dtd">
<svg version="1.1" id="Artwork" xmlns="http://www.w3.org/2000/svg" xmlns:xlink="http://www.w3.org/1999/xlink" x="0px" y="0px"
	 viewBox="0 0 512 512" enable-background="new 0 0 512 512" xml:space="preserve">
<g>
	<path d="M240.7,407.7v68.2h-65.3c-6.8,0-12.3,5.5-12.3,12.3s5.5,12.3,12.3,12.3h154.9c6.8,0,12.3-5.5,12.3-12.3
		s-5.5-12.3-12.3-12.3h-65.1v-68.2h198.4c20.4,0,36.9-16.6,36.9-36.9V48.5c0-20.4-16.6-36.9-36.9-36.9H48.4
		c-20.4,0-36.9,16.6-36.9,36.9v322.3c0,20.4,16.6,36.9,36.9,36.9H240.7z M48.4,36.1h415.2c6.9,0,12.4,5.6,12.4,12.4v56H35.9v-56
		C35.9,41.6,41.5,36.1,48.4,36.1z M35.9,370.8V129h440.1v241.8c0,6.9-5.6,12.4-12.4,12.4H48.4C41.5,383.2,35.9,377.7,35.9,370.8z"/>
	<path d="M70.2,82.5c3.2,0,6.4-1.3,8.7-3.6c2.3-2.3,3.6-5.4,3.6-8.6c0-3.2-1.3-6.4-3.6-8.7c-4.6-4.6-12.8-4.6-17.3,0
		c-2.3,2.3-3.6,5.4-3.6,8.7c0,3.2,1.3,6.4,3.6,8.6C63.8,81.2,66.9,82.5,70.2,82.5z"/>
	<path d="M116.6,82.5c3.2,0,6.4-1.3,8.7-3.6c2.3-2.3,3.6-5.4,3.6-8.6c0-3.2-1.3-6.4-3.6-8.7c-4.6-4.6-12.8-4.6-17.3,0
		c-2.3,2.3-3.6,5.4-3.6,8.7c0,3.2,1.3,6.4,3.6,8.6C110.2,81.2,113.4,82.5,116.6,82.5z"/>
	<path d="M163.1,82.5c3.2,0,6.4-1.3,8.6-3.6c2.3-2.3,3.6-5.4,3.6-8.6c0-3.2-1.3-6.4-3.6-8.7c-4.6-4.6-12.7-4.6-17.3,0
		c-2.3,2.3-3.6,5.4-3.6,8.7c0,3.2,1.3,6.4,3.6,8.6C156.7,81.2,159.9,82.5,163.1,82.5z"/>
	<path d="M221.5,300.3c2.4,2.4,5.5,3.6,8.7,3.6c3.1,0,6.2-1.2,8.6-3.6l78-77.6c4.8-4.8,4.8-12.5,0.1-17.3c-4.8-4.8-12.5-4.8-17.3,0
		l-69.4,69l-24-24.1c-4.8-4.8-12.5-4.8-17.3,0c-4.8,4.8-4.8,12.5,0,17.3L221.5,300.3z"/>
</g>
</svg>
