<?xml version="1.0" encoding="utf-8"?>
<!-- Generator: Adobe Illustrator 18.0.0, SVG Export Plug-In . SVG Version: 6.00 Build 0)  -->
<!DOCTYPE svg PUBLIC "-//W3C//DTD SVG 1.1//EN" "http://www.w3.org/Graphics/SVG/1.1/DTD/svg11.dtd">
<svg version="1.1" id="Artwork" xmlns="http://www.w3.org/2000/svg" xmlns:xlink="http://www.w3.org/1999/xlink" x="0px" y="0px"
	 viewBox="0 0 512 512" enable-background="new 0 0 512 512" xml:space="preserve">
<g>
	<path d="M466.1,407.7c19.1,0,34.6-15.5,34.6-34.6V61.4c0-19.1-15.5-34.6-34.6-34.6H45.9c-19.1,0-34.6,15.5-34.6,34.6v311.7
		c0,19.1,15.5,34.6,34.6,34.6h197.9v53h-65.2c-6.8,0-12.3,5.5-12.3,12.3s5.5,12.3,12.3,12.3h155c6.8,0,12.3-5.5,12.3-12.3
		s-5.5-12.3-12.3-12.3h-65.2v-53H466.1z M35.8,373.1V61.4c0-5.6,4.5-10.1,10.1-10.1h420.2c5.6,0,10.1,4.5,10.1,10.1v311.7
		c0,5.6-4.5,10.1-10.1,10.1H45.9C40.3,383.2,35.8,378.7,35.8,373.1z"/>
	<path d="M436.7,333.4V102.3c0-6.8-5.5-12.3-12.3-12.3h-337c-6.8,0-12.3,5.5-12.3,12.3v231.1c0,6.8,5.5,12.3,12.3,12.3h337
		C431.2,345.6,436.7,340.2,436.7,333.4z M412.2,321.1H99.8V114.5h312.5V321.1z"/>
</g>
</svg>
