<?xml version="1.0" encoding="utf-8"?>
<!-- Generator: Adobe Illustrator 18.0.0, SVG Export Plug-In . SVG Version: 6.00 Build 0)  -->
<!DOCTYPE svg PUBLIC "-//W3C//DTD SVG 1.1//EN" "http://www.w3.org/Graphics/SVG/1.1/DTD/svg11.dtd">
<svg version="1.1" id="Artwork" xmlns="http://www.w3.org/2000/svg" xmlns:xlink="http://www.w3.org/1999/xlink" x="0px" y="0px"
	 viewBox="0 0 512 512" enable-background="new 0 0 512 512" xml:space="preserve">
<g>
	<path d="M500.7,61.4c0-19.1-15.5-34.6-34.6-34.6H45.9c-19.1,0-34.6,15.5-34.6,34.6v311.7c0,19.1,15.5,34.6,34.6,34.6h197.9v53
		h-65.2c-6.8,0-12.3,5.5-12.3,12.3s5.5,12.3,12.3,12.3h155c6.8,0,12.3-5.5,12.3-12.3s-5.5-12.3-12.3-12.3h-65.2v-53h197.9
		c19.1,0,34.6-15.5,34.6-34.6V61.4z M476.2,373.1c0,5.6-4.5,10.1-10.1,10.1H45.9c-5.6,0-10.1-4.5-10.1-10.1V61.4
		c0-5.6,4.5-10.1,10.1-10.1h420.2c5.6,0,10.1,4.5,10.1,10.1V373.1z"/>
</g>
</svg>
