<?xml version="1.0" encoding="utf-8"?>
<!-- Generator: Adobe Illustrator 18.0.0, SVG Export Plug-In . SVG Version: 6.00 Build 0)  -->
<!DOCTYPE svg PUBLIC "-//W3C//DTD SVG 1.1//EN" "http://www.w3.org/Graphics/SVG/1.1/DTD/svg11.dtd">
<svg version="1.1" id="Artwork" xmlns="http://www.w3.org/2000/svg" xmlns:xlink="http://www.w3.org/1999/xlink" x="0px" y="0px"
	 viewBox="0 0 512 512" enable-background="new 0 0 512 512" xml:space="preserve">
<g>
	<path d="M397.4,259.4c-56.8,0-103.1,46.2-103.1,103.1s46.2,103.1,103.1,103.1c56.8,0,103.1-46.2,103.1-103.1
		S454.2,259.4,397.4,259.4z M397.4,441c-43.3,0-78.6-35.3-78.6-78.6s35.3-78.6,78.6-78.6c43.3,0,78.6,35.3,78.6,78.6
		S440.7,441,397.4,441z"/>
	<path d="M436,350.2h-51.1l7.1-7.8c4.6-5,4.2-12.7-0.8-17.3c-5-4.6-12.7-4.2-17.3,0.8l-25.8,28.3c-4.3,4.7-4.3,11.8,0,16.5
		l25.8,28.3c2.4,2.7,5.7,4,9.1,4c2.9,0,5.9-1.1,8.3-3.2c5-4.6,5.4-12.3,0.8-17.3l-7.1-7.8H436c6.8,0,12.3-5.5,12.3-12.3
		S442.8,350.2,436,350.2z"/>
	<path d="M350,46.5h-270c-37.7,0-68.4,30.7-68.4,68.4v1c0,23.3,11.7,43.9,29.6,56.2c-17.8,12.5-29.6,33.2-29.6,56.8
		c0,23.4,11.8,44,29.6,56.4c-17.9,12.5-29.6,33.2-29.6,56.9c0,37.9,30.8,68.7,68.7,68.7h184.6c6.8,0,12.3-5.5,12.3-12.3
		c0-6.8-5.5-12.3-12.3-12.3H80.2c-24.4,0-44.2-19.8-44.2-44.6c0-24.4,19.8-44.2,44.2-44.2h205.3c6.8,0,12.3-5.5,12.3-12.3
		s-5.5-12.3-12.3-12.3H80.2c-24.4,0-44.2-19.8-44.2-44.6c0-24.4,19.8-44.2,44.2-44.2h269.5c24.4,0,44.2,19.8,44.2,44.6
		c0,6.8,5.5,12,12.3,12s12.3-5.7,12.3-12.5c0-23.3-11.7-43.9-29.5-56.3c17.8-12.4,29.5-32.9,29.5-56.2v-1
		C418.4,77.2,387.7,46.5,350,46.5z M393.9,115.9c0,24.2-19.7,43.9-43.9,43.9h-0.3H80.2h-0.3c-24.2,0-43.9-19.7-43.9-43.9v-1
		C36,90.7,55.7,71,79.9,71h270c24.2,0,43.9,19.7,43.9,43.9V115.9z"/>
	<path d="M325.3,103.1H211c-6.8,0-12.3,5.5-12.3,12.3s5.5,12.3,12.3,12.3h114.4c6.8,0,12.3-5.5,12.3-12.3S332.1,103.1,325.3,103.1z"
		/>
	<circle cx="117.5" cy="115.4" r="13"/>
	<path d="M337.6,228.7c0-6.8-5.5-12.3-12.3-12.3H211c-6.8,0-12.3,5.5-12.3,12.3c0,6.8,5.5,12.3,12.3,12.3h114.4
		C332.1,240.9,337.6,235.4,337.6,228.7z"/>
	<circle cx="117.5" cy="228.7" r="13"/>
	<path d="M211,329.7c-6.8,0-12.3,5.5-12.3,12.3s5.5,12.3,12.3,12.3h51.8c6.8,0,12.3-5.5,12.3-12.3s-5.5-12.3-12.3-12.3H211z"/>
	<circle cx="117.5" cy="342" r="13"/>
</g>
</svg>
