<?xml version="1.0" encoding="utf-8"?>
<!-- Generator: Adobe Illustrator 18.0.0, SVG Export Plug-In . SVG Version: 6.00 Build 0)  -->
<!DOCTYPE svg PUBLIC "-//W3C//DTD SVG 1.1//EN" "http://www.w3.org/Graphics/SVG/1.1/DTD/svg11.dtd">
<svg version="1.1" id="Artwork" xmlns="http://www.w3.org/2000/svg" xmlns:xlink="http://www.w3.org/1999/xlink" x="0px" y="0px"
	 viewBox="0 0 512 512" enable-background="new 0 0 512 512" xml:space="preserve">
<g>
	<path d="M325.4,103.1H211c-6.8,0-12.3,5.5-12.3,12.3s5.5,12.3,12.3,12.3h114.4c6.8,0,12.3-5.5,12.3-12.3S332.1,103.1,325.4,103.1z"
		/>
	<circle cx="117.6" cy="115.4" r="13"/>
	<path d="M337.6,228.7c0-6.8-5.5-12.3-12.3-12.3H211c-6.8,0-12.3,5.5-12.3,12.3s5.5,12.3,12.3,12.3h114.4
		C332.1,240.9,337.6,235.4,337.6,228.7z"/>
	<circle cx="117.6" cy="228.7" r="13"/>
	<path d="M277.1,398.6c0-6.8-5.5-12.3-12.3-12.3H80.2c-24.4,0-44.2-19.8-44.2-44.6c0-24.4,19.8-44.2,44.2-44.2h205.3
		c6.8,0,12.3-5.5,12.3-12.3c0-6.8-5.5-12.3-12.3-12.3H80.2c-24.4,0-44.2-19.8-44.2-44.6c0-24.4,19.8-44.2,44.2-44.2h269.5
		c24.4,0,44.2,19.8,44.2,44.6c0,6.8,5.5,12,12.3,12s12.3-5.7,12.3-12.5c0-23.3-11.7-43.9-29.5-56.3c17.8-12.4,29.5-32.9,29.5-56.2
		v-1c0-37.7-30.7-68.4-68.4-68.4H80c-37.7,0-68.4,30.7-68.4,68.4v1c0,23.3,11.7,43.9,29.6,56.2c-17.8,12.5-29.6,33.2-29.6,56.8
		c0,23.4,11.8,44,29.6,56.4c-17.9,12.4-29.6,33.2-29.6,56.9c0,37.9,30.8,68.7,68.7,68.7h184.6C271.6,410.9,277.1,405.4,277.1,398.6z
		 M80,159.8c-24.2,0-43.9-19.7-43.9-43.9v-1C36.1,90.7,55.8,71,80,71h270c24.2,0,43.9,19.7,43.9,43.9v1c0,24.2-19.7,43.9-43.9,43.9
		h-0.3H80.2H80z"/>
	<path d="M211,329.7c-6.8,0-12.3,5.5-12.3,12.3c0,6.8,5.5,12.3,12.3,12.3h51.8c6.8,0,12.3-5.5,12.3-12.3c0-6.8-5.5-12.3-12.3-12.3
		H211z"/>
	<circle cx="117.6" cy="342" r="13"/>
	<path d="M324.5,435.3c19.5,19.5,45.4,30.2,72.9,30.2c27.5,0,53.4-10.7,72.9-30.2c40.2-40.2,40.2-105.6,0-145.8
		c-19.5-19.5-45.4-30.2-72.9-30.2c-27.5,0-53.4,10.7-72.9,30.2C284.3,329.8,284.3,395.1,324.5,435.3z M341.8,306.9
		c14.8-14.8,34.6-23,55.6-23c21,0,40.7,8.2,55.6,23c30.6,30.6,30.6,80.5,0,111.1c-14.8,14.8-34.6,23-55.6,23c-21,0-40.7-8.2-55.6-23
		C311.2,387.4,311.2,337.5,341.8,306.9z"/>
	<path d="M368.2,374.7h58.4c6.8,0,12.3-5.5,12.3-12.3c0-6.8-5.5-12.3-12.3-12.3h-58.4c-6.8,0-12.3,5.5-12.3,12.3
		C355.9,369.2,361.4,374.7,368.2,374.7z"/>
</g>
</svg>
