<?xml version="1.0" encoding="utf-8"?>
<!-- Generator: Adobe Illustrator 18.0.0, SVG Export Plug-In . SVG Version: 6.00 Build 0)  -->
<!DOCTYPE svg PUBLIC "-//W3C//DTD SVG 1.1//EN" "http://www.w3.org/Graphics/SVG/1.1/DTD/svg11.dtd">
<svg version="1.1" id="Artwork" xmlns="http://www.w3.org/2000/svg" xmlns:xlink="http://www.w3.org/1999/xlink" x="0px" y="0px"
	 viewBox="0 0 512 512" enable-background="new 0 0 512 512" xml:space="preserve">
<g>
	<path d="M23.3,375.2c0,46.8,77.5,82.1,180.3,82.1c9.8,0,19.6-0.3,29.1-1c6.7-0.5,11.8-6.3,11.4-13.1c-0.5-6.7-6.3-11.8-13.1-11.4
		c-9,0.6-18.2,1-27.4,1c-91.8,0-155.8-30.4-155.8-57.6v-51c30.7,24.1,87.7,39.6,155.8,39.6c6.2,0,12.4-0.1,18.6-0.4
		c6.8-0.3,12-6,11.7-12.8c-0.3-6.8-6-12-12.8-11.7c-5.8,0.3-11.7,0.4-17.5,0.4c-91.8,0-155.8-30.4-155.8-57.6v-50.9
		c30.7,24.1,87.7,39.6,155.8,39.6c102.8,0,180.3-35.3,180.3-82.1V94.7c0-46.8-77.5-82.1-180.3-82.1c-102.8,0-180.3,35.3-180.3,82.1
		V375.2z M203.6,245.8c-91.8,0-155.8-30.4-155.8-57.6v-51c30.7,24.1,87.7,39.6,155.8,39.6c68.1,0,125.1-15.5,155.8-39.6v51
		C359.5,215.5,295.5,245.8,203.6,245.8z M203.6,37c91.8,0,155.8,30.4,155.8,57.6s-64,57.6-155.8,57.6S47.8,121.9,47.8,94.7
		S111.8,37,203.6,37z"/>
	<path d="M289,299.7c-45.6,45.6-45.6,119.8,0,165.5c22.1,22.1,51.5,34.3,82.7,34.3s60.6-12.2,82.7-34.3
		c22.1-22.1,34.3-51.5,34.3-82.7c0-31.3-12.2-60.6-34.3-82.7c-22.1-22.1-51.5-34.3-82.7-34.3C340.5,265.5,311.1,277.6,289,299.7z
		 M464.2,382.5c0,24.7-9.6,47.9-27.1,65.4c-17.5,17.5-40.7,27.1-65.4,27.1c-24.7,0-47.9-9.6-65.4-27.1c-36.1-36.1-36.1-94.8,0-130.8
		c17.5-17.5,40.7-27.1,65.4-27.1c24.7,0,47.9,9.6,65.4,27.1C454.6,334.5,464.2,357.7,464.2,382.5z"/>
	<path d="M325.8,382.5c0,6.8,5.5,12.3,12.3,12.3h67.4c6.8,0,12.3-5.5,12.3-12.3s-5.5-12.3-12.3-12.3H338
		C331.2,370.2,325.8,375.7,325.8,382.5z"/>
</g>
</svg>
