<?xml version="1.0" encoding="utf-8"?>
<!-- Generator: Adobe Illustrator 18.0.0, SVG Export Plug-In . SVG Version: 6.00 Build 0)  -->
<!DOCTYPE svg PUBLIC "-//W3C//DTD SVG 1.1//EN" "http://www.w3.org/Graphics/SVG/1.1/DTD/svg11.dtd">
<svg version="1.1" id="Artwork" xmlns="http://www.w3.org/2000/svg" xmlns:xlink="http://www.w3.org/1999/xlink" x="0px" y="0px"
	 viewBox="0 0 512 512" enable-background="new 0 0 512 512" xml:space="preserve">
<g>
	<path d="M331.9,103.3H214.9c-6.8,0-12.3,5.5-12.3,12.3s5.5,12.3,12.3,12.3h116.9c6.8,0,12.3-5.5,12.3-12.3S338.6,103.3,331.9,103.3
		z"/>
	<circle cx="119.4" cy="115.6" r="13.3"/>
	<path d="M344.1,231.4c0-6.8-5.5-12.3-12.3-12.3H214.9c-6.8,0-12.3,5.5-12.3,12.3c0,6.8,5.5,12.3,12.3,12.3h116.9
		C338.6,243.7,344.1,238.2,344.1,231.4z"/>
	<circle cx="119.4" cy="231.4" r="13.3"/>
	<path d="M11.3,347.5c0,38.6,31.4,69.9,69.9,69.9h188.7c6.8,0,12.3-5.5,12.3-12.3c0-6.8-5.5-12.3-12.3-12.3H81.2
		c-25,0-45.4-20.4-45.4-45.9c0-25,20.4-45.4,45.4-45.4h209.9c6.8,0,12.3-5.5,12.3-12.3c0-6.8-5.5-12.3-12.3-12.3H81.2
		c-25,0-45.4-20.4-45.4-45.9c0-25,20.4-45.4,45.4-45.4h275.5c25,0,45.4,20.4,45.4,45.9c0,6.8,5.5,12,12.3,12s12.3-5.7,12.3-12.5
		c0-23.7-11.9-44.6-30-57.3c18.1-12.3,30-33.1,30-56.5v-3.5c0-37.7-30.7-68.4-68.4-68.4H79.7c-37.7,0-68.4,30.7-68.4,68.4v3.5
		c0,23.5,11.9,44.2,30,56.5c-18.1,12.7-30,33.8-30,57.8c0,23.9,12.1,45.1,30.5,57.7C23.4,302,11.3,323.2,11.3,347.5z M79.7,161.2
		c-24.2,0-43.9-19.7-43.9-43.9v-3.5c0-24.2,19.7-43.9,43.9-43.9h278.6c24.2,0,43.9,19.7,43.9,43.9v3.5c0,24.2-19.7,43.9-43.9,43.9
		h-1.5H81.2H79.7z"/>
	<path d="M214.9,335c-6.8,0-12.3,5.5-12.3,12.3s5.5,12.3,12.3,12.3h52.9c6.8,0,12.3-5.5,12.3-12.3s-5.5-12.3-12.3-12.3H214.9z"/>
	<circle cx="119.4" cy="347.2" r="13.3"/>
	<path d="M407.7,461.1c19,0,37.1-5.7,52.5-16.3l-1.4,7.1c-1.3,6.6,3,13.1,9.6,14.4c0.8,0.2,1.6,0.2,2.4,0.2c5.7,0,10.8-4,12-9.9
		l8.2-41.4c0.7-3.5-0.2-7.1-2.3-9.9c-2.2-2.8-5.5-4.5-9-4.7l-41.8-2.1c-6.8-0.4-12.5,4.9-12.9,11.6s4.9,12.5,11.6,12.9l11.1,0.6
		c-11.6,8.4-25.4,13-40,13c-18.3,0-35.5-7.1-48.4-20c-12.9-12.9-20-30.1-20-48.4c0-6.8-5.5-12.2-12.3-12.2c0,0,0,0,0,0
		c-6.8,0-12.2,5.5-12.2,12.3c0,24.8,9.7,48.2,27.2,65.7C359.6,451.5,382.9,461.1,407.7,461.1z"/>
	<path d="M407.7,275.3c-17.6,0-34.3,4.9-48.9,14l1.5-7.7c1.3-6.6-3-13.1-9.6-14.4c-6.6-1.3-13.1,3-14.4,9.6l-8.2,41.4
		c-0.7,3.5,0.2,7.1,2.3,9.9c2.2,2.8,5.5,4.5,9,4.7l41.8,2.1c0.2,0,0.4,0,0.6,0c6.5,0,11.9-5.1,12.2-11.6c0.3-6.8-4.9-12.5-11.6-12.9
		l-10.4-0.5c10.6-6.5,22.8-10,35.6-10c18.3,0,35.5,7.1,48.4,20c12.9,12.9,20,30.1,20,48.4c0,6.8,5.5,12.2,12.3,12.2c0,0,0,0,0,0
		c6.8,0,12.2-5.5,12.2-12.3c0-24.8-9.7-48.1-27.2-65.7C455.9,284.9,432.6,275.3,407.7,275.3C407.7,275.3,407.7,275.3,407.7,275.3z"
		/>
</g>
</svg>
