<?xml version="1.0" encoding="utf-8"?>
<!-- Generator: Adobe Illustrator 18.0.0, SVG Export Plug-In . SVG Version: 6.00 Build 0)  -->
<!DOCTYPE svg PUBLIC "-//W3C//DTD SVG 1.1//EN" "http://www.w3.org/Graphics/SVG/1.1/DTD/svg11.dtd">
<svg version="1.1" id="Artwork" xmlns="http://www.w3.org/2000/svg" xmlns:xlink="http://www.w3.org/1999/xlink" x="0px" y="0px"
	 viewBox="0 0 512 512" enable-background="new 0 0 512 512" xml:space="preserve">
<g>
	<path d="M203.6,12.5c-102.8,0-180.3,35.3-180.3,82.1v280.5c0,46.8,77.5,82.1,180.3,82.1c9.7,0,19.5-0.3,29.1-1
		c6.7-0.5,11.8-6.3,11.4-13.1c-0.5-6.7-6.3-11.9-13.1-11.4c-9,0.6-18.2,1-27.4,1c-91.8,0-155.8-30.4-155.8-57.6v-51
		c30.7,24.1,87.7,39.6,155.8,39.6c6.3,0,12.5-0.1,18.6-0.4c6.8-0.3,12-6,11.7-12.8c-0.3-6.8-6.1-12-12.8-11.7
		c-5.7,0.3-11.6,0.4-17.5,0.4c-91.8,0-155.8-30.4-155.8-57.6v-50.9c30.7,24.1,87.7,39.6,155.8,39.6c102.8,0,180.3-35.3,180.3-82.1
		V94.7C384,47.9,306.4,12.5,203.6,12.5z M203.6,37c91.8,0,155.8,30.4,155.8,57.6s-64,57.6-155.8,57.6S47.8,121.9,47.8,94.7
		S111.8,37,203.6,37z M203.6,245.8c-91.8,0-155.8-30.4-155.8-57.6v-51c30.7,24.1,87.7,39.6,155.8,39.6c68.1,0,125.1-15.5,155.8-39.6
		v51C359.5,215.5,295.5,245.8,203.6,245.8z"/>
	<path d="M371.7,265.5c-64.5,0-117,52.5-117,117s52.5,117,117,117c64.5,0,117-52.5,117-117S436.2,265.5,371.7,265.5z M371.7,475
		c-51,0-92.5-41.5-92.5-92.5s41.5-92.5,92.5-92.5s92.5,41.5,92.5,92.5S422.7,475,371.7,475z"/>
	<path d="M397.4,341.6c-4.6-5-12.3-5.4-17.3-0.8c-5,4.6-5.4,12.3-0.8,17.3l11.1,12.1h-63.2c-6.8,0-12.3,5.5-12.3,12.3
		c0,6.8,5.5,12.3,12.3,12.3h63.2l-11.1,12.1c-4.6,5-4.2,12.7,0.8,17.3c2.3,2.1,5.3,3.2,8.3,3.2c3.3,0,6.6-1.3,9.1-4l29.8-32.6
		c4.3-4.7,4.3-11.8,0-16.5L397.4,341.6z"/>
</g>
</svg>
