<?xml version="1.0" encoding="utf-8"?>
<!-- Generator: Adobe Illustrator 18.0.0, SVG Export Plug-In . SVG Version: 6.00 Build 0)  -->
<!DOCTYPE svg PUBLIC "-//W3C//DTD SVG 1.1//EN" "http://www.w3.org/Graphics/SVG/1.1/DTD/svg11.dtd">
<svg version="1.1" id="Artwork" xmlns="http://www.w3.org/2000/svg" xmlns:xlink="http://www.w3.org/1999/xlink" x="0px" y="0px"
	 viewBox="0 0 512 512" enable-background="new 0 0 512 512" xml:space="preserve">
<g>
	<path d="M23.7,375.6c0,46.8,77.5,82.1,180.3,82.1c9.8,0,19.6-0.3,29.1-1c6.7-0.5,11.8-6.3,11.4-13.1c-0.5-6.8-6.3-11.8-13.1-11.4
		c-9,0.6-18.2,1-27.4,1c-91.8,0-155.8-30.4-155.8-57.6v-51c30.7,24.1,87.7,39.6,155.8,39.6c6.2,0,12.4-0.1,18.6-0.4
		c6.8-0.3,12-6,11.7-12.8c-0.3-6.8-6-12.1-12.8-11.7c-5.8,0.3-11.7,0.4-17.5,0.4c-91.8,0-155.8-30.4-155.8-57.6v-50.9
		c30.7,24.1,87.7,39.6,155.8,39.6c102.8,0,180.3-35.3,180.3-82.1V95.1C384.4,48.3,306.9,13,204,13C101.2,13,23.7,48.3,23.7,95.1
		V375.6z M204,246.3c-91.8,0-155.8-30.4-155.8-57.6v-51c30.7,24.1,87.7,39.6,155.8,39.6c68.1,0,125.1-15.5,155.8-39.6v51
		C359.9,215.9,295.9,246.3,204,246.3z M204,37.5c91.8,0,155.8,30.4,155.8,57.6s-64,57.6-155.8,57.6S48.2,122.4,48.2,95.1
		S112.2,37.5,204,37.5z"/>
	<path d="M256,382.9c0,64,52.1,116.2,116.2,116.2c64,0,116.2-52.1,116.2-116.2c0-64-52.1-116.2-116.2-116.2
		C308.1,266.7,256,318.8,256,382.9z M463.8,382.9c0,50.5-41.1,91.7-91.7,91.7s-91.7-41.1-91.7-91.7c0-50.5,41.1-91.7,91.7-91.7
		S463.8,332.3,463.8,382.9z"/>
	<path d="M359.9,330.9v52c0,6.8,5.5,12.3,12.3,12.3h52c6.8,0,12.3-5.5,12.3-12.3c0-6.8-5.5-12.3-12.3-12.3h-39.7v-39.7
		c0-6.8-5.5-12.3-12.3-12.3S359.9,324.2,359.9,330.9z"/>
</g>
</svg>
