<?xml version="1.0" encoding="utf-8"?>
<!-- Generator: Adobe Illustrator 18.0.0, SVG Export Plug-In . SVG Version: 6.00 Build 0)  -->
<!DOCTYPE svg PUBLIC "-//W3C//DTD SVG 1.1//EN" "http://www.w3.org/Graphics/SVG/1.1/DTD/svg11.dtd">
<svg version="1.1" id="Artwork" xmlns="http://www.w3.org/2000/svg" xmlns:xlink="http://www.w3.org/1999/xlink" x="0px" y="0px"
	 viewBox="0 0 512 512" enable-background="new 0 0 512 512" xml:space="preserve">
<g>
	<path d="M11.6,101.6v8.6c0,23.9,12.3,44.9,30.9,57.1c-18.6,13.1-30.9,34.8-30.9,59.3v0.5c0,25.1,12.8,47.2,32.2,60.2
		c-19.4,13-32.2,35.1-32.2,60.2v0.5c0,40,32.5,72.5,72.5,72.5h197.1c6.8,0,12.3-5.5,12.3-12.3s-5.5-12.3-12.3-12.3H84
		c-26.5,0-48-21.5-48-48v-0.5c0-26.5,21.5-48,48-48h219.2c6.8,0,12.3-5.5,12.3-12.3c0-6.8-5.5-12.3-12.3-12.3H84
		c-26.5,0-48-21.5-48-48v-0.5c0-26.5,21.5-48,48-48h287.7c26.5,0,48,21.5,48,48v0.5c0,6.8,5.5,12.3,12.3,12.3s12.3-5.5,12.3-12.3
		v-0.5c0-24.5-12.2-46.1-30.9-59.3c18.6-12.2,30.9-33.3,30.9-57.1v-8.6c0-37.7-30.7-68.4-68.4-68.4H80
		C42.3,33.1,11.6,63.8,11.6,101.6z M419.8,101.6v8.6c0,24.2-19.7,43.9-43.9,43.9h-4.1H84H80c-24.2,0-43.9-19.7-43.9-43.9v-8.6
		c0-24.2,19.7-43.9,43.9-43.9h295.9C400.1,57.6,419.8,77.3,419.8,101.6z"/>
	<path d="M223.6,118.1h122.1c6.8,0,12.3-5.5,12.3-12.3c0-6.8-5.5-12.3-12.3-12.3H223.6c-6.8,0-12.3,5.5-12.3,12.3
		C211.4,112.6,216.9,118.1,223.6,118.1z"/>
	<circle cx="123.9" cy="105.9" r="13.8"/>
	<path d="M358,226.8c0-6.8-5.5-12.3-12.3-12.3H223.6c-6.8,0-12.3,5.5-12.3,12.3c0,6.8,5.5,12.3,12.3,12.3h122.1
		C352.5,239.1,358,233.6,358,226.8z"/>
	<circle cx="123.9" cy="226.8" r="13.8"/>
	<path d="M223.6,335.5c-6.8,0-12.3,5.5-12.3,12.3s5.5,12.3,12.3,12.3h55.3c6.8,0,12.3-5.5,12.3-12.3s-5.5-12.3-12.3-12.3H223.6z"/>
	<circle cx="123.9" cy="347.8" r="13.8"/>
	<path d="M500.4,454.8v-78.4c0-13.3-10.8-24.1-24.1-24.1h-1.7v-28.7c0-35.9-29.2-65.2-65.2-65.2c-35.9,0-65.2,29.2-65.2,65.2v28.7
		h-1.7c-13.3,0-24.1,10.8-24.1,24.1v78.4c0,13.3,10.8,24.1,24.1,24.1h133.8C489.6,478.9,500.4,468.1,500.4,454.8z M368.8,323.6
		c0-22.4,18.3-40.7,40.7-40.7c22.4,0,40.7,18.3,40.7,40.7v28.7h-81.4V323.6z M475.9,454.4H343.1v-77.5h132.9V454.4z"/>
</g>
</svg>
