<?xml version="1.0" encoding="utf-8"?>
<!-- Generator: Adobe Illustrator 18.0.0, SVG Export Plug-In . SVG Version: 6.00 Build 0)  -->
<!DOCTYPE svg PUBLIC "-//W3C//DTD SVG 1.1//EN" "http://www.w3.org/Graphics/SVG/1.1/DTD/svg11.dtd">
<svg version="1.1" id="Artwork" xmlns="http://www.w3.org/2000/svg" xmlns:xlink="http://www.w3.org/1999/xlink" x="0px" y="0px"
	 viewBox="0 0 512 512" enable-background="new 0 0 512 512" xml:space="preserve">
<g>
	<path d="M325.3,103.1H211c-6.8,0-12.3,5.5-12.3,12.3s5.5,12.3,12.3,12.3h114.4c6.8,0,12.3-5.5,12.3-12.3S332.1,103.1,325.3,103.1z"
		/>
	<circle cx="117.5" cy="115.4" r="13"/>
	<path d="M337.6,228.7c0-6.8-5.5-12.3-12.3-12.3H211c-6.8,0-12.3,5.5-12.3,12.3s5.5,12.3,12.3,12.3h114.4
		C332.1,240.9,337.6,235.4,337.6,228.7z"/>
	<circle cx="117.5" cy="228.7" r="13"/>
	<path d="M277,398.6c0-6.8-5.5-12.3-12.3-12.3H80.2c-24.4,0-44.2-19.8-44.2-44.6c0-24.4,19.8-44.2,44.2-44.2h205.3
		c6.8,0,12.3-5.5,12.3-12.3c0-6.8-5.5-12.3-12.3-12.3H80.2c-24.4,0-44.2-19.8-44.2-44.6c0-24.4,19.8-44.2,44.2-44.2h269.5
		c24.4,0,44.2,19.8,44.2,44.6c0,6.8,5.5,12,12.3,12s12.3-5.7,12.3-12.5c0-23.3-11.7-43.9-29.5-56.3c17.8-12.4,29.5-32.9,29.5-56.2
		v-1c0-37.7-30.7-68.4-68.4-68.4h-270c-37.7,0-68.4,30.7-68.4,68.4v1c0,23.3,11.7,43.9,29.6,56.2c-17.8,12.5-29.6,33.2-29.6,56.8
		c0,23.4,11.8,44,29.6,56.4c-17.9,12.4-29.6,33.2-29.6,56.9c0,37.9,30.8,68.7,68.7,68.7h184.6C271.5,410.9,277,405.4,277,398.6z
		 M79.9,159.8c-24.2,0-43.9-19.7-43.9-43.9v-1C36,90.7,55.7,71,79.9,71h270c24.2,0,43.9,19.7,43.9,43.9v1
		c0,24.2-19.7,43.9-43.9,43.9h-0.3H80.2H79.9z"/>
	<path d="M211,329.7c-6.8,0-12.3,5.5-12.3,12.3c0,6.8,5.5,12.3,12.3,12.3h51.8c6.8,0,12.3-5.5,12.3-12.3c0-6.8-5.5-12.3-12.3-12.3
		H211z"/>
	<circle cx="117.5" cy="342" r="13"/>
	<path d="M397.4,465.5c56.8,0,103.1-46.2,103.1-103.1s-46.2-103.1-103.1-103.1s-103.1,46.2-103.1,103.1S340.5,465.5,397.4,465.5z
		 M397.4,441c-17.3,0-33.2-5.7-46.1-15.1l109.6-109.6c9.5,13,15.1,28.9,15.1,46.1C476,405.8,440.7,441,397.4,441z M397.4,283.9
		c17.3,0,33.2,5.7,46.1,15.1L333.9,408.6c-9.5-13-15.1-28.9-15.1-46.1C318.8,319.1,354.1,283.9,397.4,283.9z"/>
</g>
</svg>
