<?xml version="1.0" encoding="utf-8"?>
<!-- Generator: Adobe Illustrator 18.0.0, SVG Export Plug-In . SVG Version: 6.00 Build 0)  -->
<!DOCTYPE svg PUBLIC "-//W3C//DTD SVG 1.1//EN" "http://www.w3.org/Graphics/SVG/1.1/DTD/svg11.dtd">
<svg version="1.1" id="Artwork" xmlns="http://www.w3.org/2000/svg" xmlns:xlink="http://www.w3.org/1999/xlink" x="0px" y="0px"
	 viewBox="0 0 512 512" enable-background="new 0 0 512 512" xml:space="preserve">
<g>
	<path d="M418.4,115.9v-1c0-37.7-30.7-68.4-68.4-68.4H80c-37.7,0-68.4,30.7-68.4,68.4v1c0,23.3,11.7,43.9,29.6,56.2
		c-17.8,12.5-29.6,33.2-29.6,56.8c0,23.4,11.8,44,29.6,56.4c-17.9,12.5-29.6,33.2-29.6,56.9c0,37.9,30.8,68.7,68.7,68.7h184.6
		c6.8,0,12.3-5.5,12.3-12.3c0-6.8-5.5-12.3-12.3-12.3H80.2c-24.4,0-44.2-19.8-44.2-44.6c0-24.4,19.8-44.2,44.2-44.2h205.3
		c6.8,0,12.3-5.5,12.3-12.3s-5.5-12.3-12.3-12.3H80.2c-24.4,0-44.2-19.8-44.2-44.6c0-24.4,19.8-44.2,44.2-44.2h269.5
		c24.4,0,44.2,19.8,44.2,44.6c0,6.8,5.5,12,12.3,12s12.3-5.7,12.3-12.5c0-23.3-11.7-43.9-29.5-56.3
		C406.7,159.7,418.4,139.1,418.4,115.9z M393.9,115.9c0,24.2-19.7,43.9-43.9,43.9h-0.3H80.2H80c-24.2,0-43.9-19.7-43.9-43.9v-1
		C36.1,90.7,55.8,71,80,71h270c24.2,0,43.9,19.7,43.9,43.9V115.9z"/>
	<path d="M325.4,103.1H211c-6.8,0-12.3,5.5-12.3,12.3s5.5,12.3,12.3,12.3h114.4c6.8,0,12.3-5.5,12.3-12.3S332.1,103.1,325.4,103.1z"
		/>
	<circle cx="117.6" cy="115.4" r="13"/>
	<path d="M211,216.4c-6.8,0-12.3,5.5-12.3,12.3c0,6.8,5.5,12.3,12.3,12.3h114.4c6.8,0,12.3-5.5,12.3-12.3c0-6.8-5.5-12.3-12.3-12.3
		H211z"/>
	<circle cx="117.6" cy="228.7" r="13"/>
	<path d="M211,329.7c-6.8,0-12.3,5.5-12.3,12.3s5.5,12.3,12.3,12.3h51.8c6.8,0,12.3-5.5,12.3-12.3s-5.5-12.3-12.3-12.3H211z"/>
	<circle cx="117.6" cy="342" r="13"/>
	<path d="M470.3,289.6c-19.5-19.5-45.4-30.2-72.9-30.2c-27.5,0-53.4,10.7-72.9,30.2c-40.2,40.2-40.2,105.6,0,145.8
		c19.5,19.5,45.4,30.2,72.9,30.2c27.5,0,53.4-10.7,72.9-30.2C510.5,395.1,510.5,329.7,470.3,289.6z M453,418
		c-14.8,14.8-34.6,23-55.6,23c-21,0-40.7-8.2-55.6-23c-30.6-30.6-30.6-80.5,0-111.1c14.8-14.8,34.6-23,55.6-23
		c21,0,40.7,8.2,55.6,23C483.6,337.5,483.6,387.4,453,418z"/>
	<path d="M430,329.9c-4.8-4.8-12.5-4.8-17.3,0l-15.3,15.3l-15.3-15.3c-4.8-4.8-12.5-4.8-17.3,0c-4.8,4.8-4.8,12.5,0,17.3l15.3,15.3
		l-15.3,15.3c-4.8,4.8-4.8,12.5,0,17.3c2.4,2.4,5.5,3.6,8.7,3.6s6.3-1.2,8.7-3.6l15.3-15.3l15.3,15.3c2.4,2.4,5.5,3.6,8.7,3.6
		c3.1,0,6.3-1.2,8.7-3.6c4.8-4.8,4.8-12.5,0-17.3l-15.3-15.3l15.3-15.3C434.8,342.4,434.8,334.6,430,329.9z"/>
</g>
</svg>
