<?xml version="1.0" encoding="utf-8"?>
<!-- Generator: Adobe Illustrator 18.0.0, SVG Export Plug-In . SVG Version: 6.00 Build 0)  -->
<!DOCTYPE svg PUBLIC "-//W3C//DTD SVG 1.1//EN" "http://www.w3.org/Graphics/SVG/1.1/DTD/svg11.dtd">
<svg version="1.1" id="Artwork" xmlns="http://www.w3.org/2000/svg" xmlns:xlink="http://www.w3.org/1999/xlink" x="0px" y="0px"
	 viewBox="0 0 512 512" enable-background="new 0 0 512 512" xml:space="preserve">
<path d="M256,11C142.9,11,57.6,49.5,57.6,100.6v310.8c0,51.1,85.3,89.7,198.4,89.7c113.1,0,198.4-38.5,198.4-89.7V100.6
	C454.4,49.5,369.1,11,256,11z M429.9,307.8c0,30.8-71.4,65.2-173.9,65.2c-102.5,0-173.9-34.3-173.9-65.2v-59.1
	c33.2,27.4,97.1,45.2,173.9,45.2c76.8,0,140.8-17.8,173.9-45.2V307.8z M429.9,204.2c0,30.8-71.4,65.2-173.9,65.2
	c-102.5,0-173.9-34.3-173.9-65.2v-59.1c33.2,27.4,97.1,45.2,173.9,45.2c76.8,0,140.8-17.8,173.9-45.2V204.2z M256,35.5
	c102.5,0,173.9,34.3,173.9,65.2s-71.4,65.2-173.9,65.2c-102.5,0-173.9-34.3-173.9-65.2S153.5,35.5,256,35.5z M256,476.5
	c-102.5,0-173.9-34.3-173.9-65.2v-59.1c33.2,27.4,97.1,45.2,173.9,45.2c76.8,0,140.8-17.8,173.9-45.2v59.1
	C429.9,442.2,358.5,476.5,256,476.5z"/>
</svg>
