<?xml version="1.0" encoding="utf-8"?>
<!-- Generator: Adobe Illustrator 18.0.0, SVG Export Plug-In . SVG Version: 6.00 Build 0)  -->
<!DOCTYPE svg PUBLIC "-//W3C//DTD SVG 1.1//EN" "http://www.w3.org/Graphics/SVG/1.1/DTD/svg11.dtd">
<svg version="1.1" id="Artwork" xmlns="http://www.w3.org/2000/svg" xmlns:xlink="http://www.w3.org/1999/xlink" x="0px" y="0px"
	 viewBox="0 0 512 512" enable-background="new 0 0 512 512" xml:space="preserve">
<g>
	<path d="M396,289.8V76.5c0-42.5-72.1-65.4-140-65.4c-67.9,0-140,22.9-140,65.4v213.3c0,42.5,72.1,65.4,140,65.4
		C323.9,355.2,396,332.3,396,289.8z M371.5,147.6c0,16.7-45,40.9-115.5,40.9s-115.5-24.2-115.5-40.9v-33
		c26.9,17.9,72.1,27.3,115.5,27.3c43.5,0,88.6-9.4,115.5-27.3V147.6z M140.5,185.7C167.4,203.6,212.5,213,256,213
		c43.5,0,88.6-9.4,115.5-27.3v33c0,16.7-45,40.9-115.5,40.9s-115.5-24.2-115.5-40.9V185.7z M256,35.7c70.5,0,115.5,24.2,115.5,40.9
		s-45,40.9-115.5,40.9S140.5,93.2,140.5,76.5S185.5,35.7,256,35.7z M140.5,289.8v-33c26.9,17.9,72.1,27.3,115.5,27.3
		c43.5,0,88.6-9.4,115.5-27.3v33c0,16.7-45,40.9-115.5,40.9S140.5,306.5,140.5,289.8z"/>
	<path d="M86.4,472.7h131.1c5.2,16.3,20.5,28.2,38.5,28.2s33.3-11.9,38.5-28.2h131.1c6.8,0,12.3-5.5,12.3-12.3
		c0-6.8-5.5-12.3-12.3-12.3H294.5c-4-12.4-13.8-22.3-26.2-26.3v-27.8c0-6.8-5.5-12.3-12.3-12.3c-6.8,0-12.3,5.5-12.3,12.3v27.8
		c-12.4,4-22.3,13.8-26.3,26.3H86.4c-6.8,0-12.3,5.5-12.3,12.3C74.1,467.2,79.6,472.7,86.4,472.7z M256,444.5
		c8.8,0,15.9,7.1,15.9,15.9c0,8.8-7.1,15.9-15.9,15.9c-8.8,0-15.9-7.1-15.9-15.9C240.1,451.7,247.2,444.5,256,444.5z"/>
</g>
</svg>
