<?xml version="1.0" encoding="utf-8"?>
<!-- Generator: Adobe Illustrator 18.0.0, SVG Export Plug-In . SVG Version: 6.00 Build 0)  -->
<!DOCTYPE svg PUBLIC "-//W3C//DTD SVG 1.1//EN" "http://www.w3.org/Graphics/SVG/1.1/DTD/svg11.dtd">
<svg version="1.1" id="Artwork" xmlns="http://www.w3.org/2000/svg" xmlns:xlink="http://www.w3.org/1999/xlink" x="0px" y="0px"
	 viewBox="0 0 512 512" enable-background="new 0 0 512 512" xml:space="preserve">
<g>
	<path d="M325.7,103.5H211.3c-6.8,0-12.3,5.5-12.3,12.3s5.5,12.3,12.3,12.3h114.4c6.8,0,12.3-5.5,12.3-12.3S332.5,103.5,325.7,103.5
		z"/>
	<circle cx="117.9" cy="115.7" r="13"/>
	<path d="M211.3,216.8c-6.8,0-12.3,5.5-12.3,12.3c0,6.8,5.5,12.3,12.3,12.3h114.4c6.8,0,12.3-5.5,12.3-12.3
		c0-6.8-5.5-12.3-12.3-12.3H211.3z"/>
	<circle cx="117.9" cy="229" r="13"/>
	<path d="M298.2,285.7c0-6.8-5.5-12.3-12.3-12.3H80.6c-24.4,0-44.2-19.8-44.2-44.6c0-24.4,19.8-44.2,44.2-44.2h269.5
		c24.4,0,44.2,19.8,44.2,44.6c0,6.8,5.5,12,12.3,12s12.3-5.7,12.3-12.5c0-23.3-11.7-43.9-29.5-56.3c17.8-12.4,29.5-32.9,29.5-56.2
		v-1c0-37.7-30.7-68.4-68.4-68.4h-270c-37.7,0-68.4,30.7-68.4,68.4v1c0,23.3,11.7,43.9,29.6,56.2c-17.8,12.5-29.6,33.2-29.6,56.8
		c0,23.4,11.8,44,29.6,56.4c-17.9,12.4-29.6,33.2-29.6,56.9c0,37.9,30.8,68.7,68.7,68.7h184.6c6.8,0,12.3-5.5,12.3-12.3
		s-5.5-12.3-12.3-12.3H80.6c-24.4,0-44.2-19.8-44.2-44.6c0-24.4,19.8-44.2,44.2-44.2h205.3C292.7,297.9,298.2,292.4,298.2,285.7z
		 M80.3,160.1c-24.2,0-43.9-19.7-43.9-43.9v-1c0-24.2,19.7-43.9,43.9-43.9h270c24.2,0,43.9,19.7,43.9,43.9v1
		c0,24.2-19.7,43.9-43.9,43.9h-0.3H80.6H80.3z"/>
	<path d="M211.3,330.1c-6.8,0-12.3,5.5-12.3,12.3c0,6.8,5.5,12.3,12.3,12.3h51.8c6.8,0,12.3-5.5,12.3-12.3c0-6.8-5.5-12.3-12.3-12.3
		H211.3z"/>
	<circle cx="117.9" cy="342.3" r="13"/>
	<path d="M397.7,465.2c56.4,0,102.3-45.9,102.3-102.3c0-56.4-45.9-102.3-102.3-102.3s-102.3,45.9-102.3,102.3
		C295.4,419.2,341.3,465.2,397.7,465.2z M397.7,285c42.9,0,77.8,34.9,77.8,77.8c0,42.9-34.9,77.8-77.8,77.8s-77.8-34.9-77.8-77.8
		C319.9,319.9,354.8,285,397.7,285z"/>
	<path d="M397.7,375.1h45c6.8,0,12.3-5.5,12.3-12.3s-5.5-12.3-12.3-12.3H410v-32.8c0-6.8-5.5-12.3-12.3-12.3s-12.3,5.5-12.3,12.3v45
		C385.5,369.6,391,375.1,397.7,375.1z"/>
</g>
</svg>
