<?xml version="1.0" encoding="utf-8"?>
<!-- Generator: Adobe Illustrator 18.0.0, SVG Export Plug-In . SVG Version: 6.00 Build 0)  -->
<!DOCTYPE svg PUBLIC "-//W3C//DTD SVG 1.1//EN" "http://www.w3.org/Graphics/SVG/1.1/DTD/svg11.dtd">
<svg version="1.1" id="Artwork" xmlns="http://www.w3.org/2000/svg" xmlns:xlink="http://www.w3.org/1999/xlink" x="0px" y="0px"
	 viewBox="0 0 512 512" enable-background="new 0 0 512 512" xml:space="preserve">
<g>
	<path d="M436.7,445.7V66.3c0-30.4-24.7-55.1-55.1-55.1H130.4c-30.4,0-55.1,24.7-55.1,55.1v379.4c0,30.4,24.7,55.1,55.1,55.1h251.2
		C412,500.8,436.7,476.1,436.7,445.7z M99.8,445.7V66.3c0-16.9,13.7-30.6,30.6-30.6h251.2c16.9,0,30.6,13.7,30.6,30.6v379.4
		c0,16.9-13.7,30.6-30.6,30.6H130.4C113.5,476.3,99.8,462.6,99.8,445.7z"/>
	<path d="M381.8,93.3c0-6.8-5.5-12.3-12.3-12.3h-227c-6.8,0-12.3,5.5-12.3,12.3v325.4c0,6.8,5.5,12.3,12.3,12.3h227
		c6.8,0,12.3-5.5,12.3-12.3V93.3z M357.3,406.5H154.7V105.5h202.5V406.5z"/>
	<path d="M196.9,204.5h118.2c6.8,0,12.3-5.5,12.3-12.3c0-6.8-5.5-12.3-12.3-12.3H196.9c-6.8,0-12.3,5.5-12.3,12.3
		C184.6,199,190.1,204.5,196.9,204.5z"/>
	<path d="M196.9,268.3h118.2c6.8,0,12.3-5.5,12.3-12.3s-5.5-12.3-12.3-12.3H196.9c-6.8,0-12.3,5.5-12.3,12.3
		S190.1,268.3,196.9,268.3z"/>
	<path d="M196.9,332h82.8c6.8,0,12.3-5.5,12.3-12.3s-5.5-12.3-12.3-12.3h-82.8c-6.8,0-12.3,5.5-12.3,12.3S190.1,332,196.9,332z"/>
</g>
</svg>
