<?xml version="1.0" encoding="utf-8"?>
<!-- Generator: Adobe Illustrator 18.0.0, SVG Export Plug-In . SVG Version: 6.00 Build 0)  -->
<!DOCTYPE svg PUBLIC "-//W3C//DTD SVG 1.1//EN" "http://www.w3.org/Graphics/SVG/1.1/DTD/svg11.dtd">
<svg version="1.1" id="Artwork" xmlns="http://www.w3.org/2000/svg" xmlns:xlink="http://www.w3.org/1999/xlink" x="0px" y="0px"
	 viewBox="0 0 512 512" enable-background="new 0 0 512 512" xml:space="preserve">
<g>
	<path d="M324.6,30.8c0-6.8-5.5-12.3-12.3-12.3H199.8c-6.8,0-12.3,5.5-12.3,12.3v44H23.2c-6.8,0-12.2,5.5-12.2,12.3v339.8
		c0,6.8,5.5,12.3,12.2,12.3h83.1l-31.1,31.1c-4.8,4.8-4.8,12.5,0,17.3c2.4,2.4,5.5,3.6,8.7,3.6s6.3-1.2,8.7-3.6l52-52
		c2.3-2.3,3.6-5.4,3.6-8.7s-1.3-6.4-3.6-8.7l-52-52c-4.8-4.8-12.5-4.8-17.3,0c-4.8,4.8-4.8,12.5,0,17.3l31.1,31.1H35.5V99.4h152v44
		c0,6.8,5.5,12.3,12.3,12.3h112.6c6.8,0,12.3-5.5,12.3-12.3V30.8z M300.1,131.2H212V43.1h88.1V131.2z"/>
	<path d="M312.4,187.5H199.8c-6.8,0-12.3,5.5-12.3,12.3v112.6c0,6.8,5.5,12.3,12.3,12.3h112.6c6.8,0,12.3-5.5,12.3-12.3V199.7
		C324.6,192.9,319.1,187.5,312.4,187.5z M300.1,300H212V212h88.1V300z"/>
	<path d="M501,424.9V85.1c0-6.8-5.5-12.3-12.3-12.3h-83l31.1-31.1c4.8-4.8,4.8-12.5,0-17.3c-4.8-4.8-12.5-4.8-17.3,0l-52,52
		c-4.8,4.8-4.8,12.5,0,17.3l52,52c2.4,2.4,5.5,3.6,8.7,3.6s6.3-1.2,8.7-3.6c4.8-4.8,4.8-12.5,0-17.3l-31.1-31.1h70.7v315.3H324.6
		v-44c0-6.8-5.5-12.3-12.3-12.3H199.8c-6.8,0-12.3,5.5-12.3,12.3v112.6c0,6.8,5.5,12.3,12.3,12.3h112.6c6.8,0,12.3-5.5,12.3-12.3
		v-44h164.1C495.5,437.1,501,431.6,501,424.9z M300.1,468.9H212v-88.1h88.1V468.9z"/>
</g>
</svg>
