<?xml version="1.0" encoding="utf-8"?>
<!-- Generator: Adobe Illustrator 18.0.0, SVG Export Plug-In . SVG Version: 6.00 Build 0)  -->
<!DOCTYPE svg PUBLIC "-//W3C//DTD SVG 1.1//EN" "http://www.w3.org/Graphics/SVG/1.1/DTD/svg11.dtd">
<svg version="1.1" id="Artwork" xmlns="http://www.w3.org/2000/svg" xmlns:xlink="http://www.w3.org/1999/xlink" x="0px" y="0px"
	 viewBox="0 0 512 512" enable-background="new 0 0 512 512" xml:space="preserve">
<g>
	<path d="M186.8,69.8H36.6c-6.8,0-12.3,5.5-12.3,12.3v350c0,6.8,5.5,12.3,12.3,12.3h86.5l-32.6,32.6c-4.8,4.8-4.8,12.5,0,17.3
		c2.4,2.4,5.5,3.6,8.7,3.6c3.1,0,6.3-1.2,8.7-3.6l53.6-53.6c2.3-2.3,3.6-5.4,3.6-8.7s-1.3-6.4-3.6-8.7l-53.6-53.6
		c-4.8-4.8-12.5-4.8-17.3,0c-4.8,4.8-4.8,12.5,0,17.3l32.6,32.6H48.8V94.3h138c5.8,32.9,34.5,58,69.1,58c38.7,0,70.2-31.5,70.2-70.2
		s-31.5-70.2-70.2-70.2C221.4,11.8,192.7,36.9,186.8,69.8z M301.7,82.1c0,25.2-20.5,45.7-45.7,45.7s-45.7-20.5-45.7-45.7
		s20.5-45.7,45.7-45.7S301.7,56.9,301.7,82.1z"/>
	<path d="M255.9,185.8c-38.7,0-70.2,31.5-70.2,70.2s31.5,70.2,70.2,70.2s70.2-31.5,70.2-70.2S294.6,185.8,255.9,185.8z M255.9,301.7
		c-25.2,0-45.7-20.5-45.7-45.7s20.5-45.7,45.7-45.7s45.7,20.5,45.7,45.7S281.1,301.7,255.9,301.7z"/>
	<path d="M325,442.2h150.4c6.8,0,12.3-5.5,12.3-12.3V80c0-6.8-5.5-12.3-12.3-12.3h-86.3l32.6-32.6c4.8-4.8,4.8-12.5,0-17.3
		c-4.8-4.8-12.5-4.8-17.3,0l-53.6,53.6c-4.8,4.8-4.8,12.5,0,17.3l53.6,53.6c2.4,2.4,5.5,3.6,8.7,3.6s6.3-1.2,8.7-3.6
		c4.8-4.8,4.8-12.5,0-17.3l-32.6-32.6h74.1v325.5H325c-5.8-32.9-34.5-58-69.1-58c-38.7,0-70.2,31.5-70.2,70.2s31.5,70.2,70.2,70.2
		C290.5,500.2,319.2,475.1,325,442.2z M255.9,475.7c-25.2,0-45.7-20.5-45.7-45.7c0-25.2,20.5-45.7,45.7-45.7s45.7,20.5,45.7,45.7
		C301.7,455.1,281.1,475.7,255.9,475.7z"/>
</g>
</svg>
