<?xml version="1.0" encoding="utf-8"?>
<!-- Generator: Adobe Illustrator 18.0.0, SVG Export Plug-In . SVG Version: 6.00 Build 0)  -->
<!DOCTYPE svg PUBLIC "-//W3C//DTD SVG 1.1//EN" "http://www.w3.org/Graphics/SVG/1.1/DTD/svg11.dtd">
<svg version="1.1" id="Artwork" xmlns="http://www.w3.org/2000/svg" xmlns:xlink="http://www.w3.org/1999/xlink" x="0px" y="0px"
	 viewBox="0 0 512 512" enable-background="new 0 0 512 512" xml:space="preserve">
<g>
	<path d="M256.1,11.8c-38.7,0-70.2,31.5-70.2,70.2s31.5,70.2,70.2,70.2c34.5,0,63.3-25.1,69.1-58h138v325.5h-74.2l32.6-32.6
		c4.8-4.8,4.8-12.5,0-17.3c-4.8-4.8-12.5-4.8-17.3,0l-53.6,53.6c-2.3,2.3-3.6,5.4-3.6,8.7s1.3,6.4,3.6,8.7l53.6,53.6
		c2.4,2.4,5.5,3.6,8.7,3.6c3.1,0,6.3-1.2,8.7-3.6c4.8-4.8,4.8-12.5,0-17.3l-32.6-32.6h86.5c6.8,0,12.3-5.5,12.3-12.3v-350
		c0-6.8-5.5-12.3-12.3-12.3H325.2C319.3,36.9,290.6,11.8,256.1,11.8z M256.1,36.3c25.2,0,45.7,20.5,45.7,45.7s-20.5,45.7-45.7,45.7
		c-25.2,0-45.7-20.5-45.7-45.7S230.9,36.3,256.1,36.3z"/>
	<path d="M185.8,256c0,38.7,31.5,70.2,70.2,70.2s70.2-31.5,70.2-70.2s-31.5-70.2-70.2-70.2S185.8,217.3,185.8,256z M210.3,256
		c0-25.2,20.5-45.7,45.7-45.7c25.2,0,45.7,20.5,45.7,45.7s-20.5,45.7-45.7,45.7C230.9,301.7,210.3,281.2,210.3,256z"/>
	<path d="M256.1,500.2c38.7,0,70.2-31.5,70.2-70.2s-31.5-70.2-70.2-70.2c-34.5,0-63.3,25.1-69.1,58H48.8V92.2h74.1l-32.6,32.6
		c-4.8,4.8-4.8,12.5,0,17.3c2.4,2.4,5.5,3.6,8.7,3.6s6.3-1.2,8.7-3.6l53.6-53.6c4.8-4.8,4.8-12.5,0-17.3l-53.6-53.6
		c-4.8-4.8-12.5-4.8-17.3,0c-4.8,4.8-4.8,12.5,0,17.3l32.6,32.6H36.6c-6.8,0-12.3,5.5-12.3,12.3v350c0,6.8,5.5,12.3,12.3,12.3H187
		C192.8,475.1,221.5,500.2,256.1,500.2z M210.3,429.9c0-25.2,20.5-45.7,45.7-45.7c25.2,0,45.7,20.5,45.7,45.7
		c0,25.2-20.5,45.7-45.7,45.7C230.9,475.7,210.3,455.1,210.3,429.9z"/>
</g>
</svg>
