<?xml version="1.0" encoding="utf-8"?>
<!-- Generator: Adobe Illustrator 18.0.0, SVG Export Plug-In . SVG Version: 6.00 Build 0)  -->
<!DOCTYPE svg PUBLIC "-//W3C//DTD SVG 1.1//EN" "http://www.w3.org/Graphics/SVG/1.1/DTD/svg11.dtd">
<svg version="1.1" id="Artwork" xmlns="http://www.w3.org/2000/svg" xmlns:xlink="http://www.w3.org/1999/xlink" x="0px" y="0px"
	 viewBox="0 0 512 512" enable-background="new 0 0 512 512" xml:space="preserve">
<g>
	<path d="M31.6,324.3h43.8v163.7c0,6.8,5.5,12.3,12.3,12.3h338.6c6.8,0,12.3-5.5,12.3-12.3v-82.7l30.9,30.9c2.4,2.4,5.5,3.6,8.7,3.6
		s6.3-1.2,8.7-3.6c4.8-4.8,4.8-12.5,0-17.3L435,367c-4.8-4.8-12.5-4.8-17.3,0l-51.8,51.8c-4.8,4.8-4.8,12.5,0,17.3
		c4.8,4.8,12.5,4.8,17.3,0l30.9-30.9v70.5H100V324.3h43.8c6.8,0,12.3-5.5,12.3-12.3V199.8c0-6.8-5.5-12.3-12.3-12.3H31.6
		c-6.8,0-12.3,5.5-12.3,12.3V312C19.4,318.8,24.9,324.3,31.6,324.3z M43.9,212.1h87.7v87.7H43.9V212.1z"/>
	<path d="M199.9,187.6c-6.8,0-12.3,5.5-12.3,12.3V312c0,6.8,5.5,12.3,12.3,12.3h112.2c6.8,0,12.3-5.5,12.3-12.3V199.8
		c0-6.8-5.5-12.3-12.3-12.3H199.9z M299.8,299.8h-87.7v-87.7h87.7V299.8z"/>
	<path d="M77,144.9c2.4,2.4,5.5,3.6,8.7,3.6s6.3-1.2,8.7-3.6l51.8-51.8c4.8-4.8,4.8-12.5,0-17.3c-4.8-4.8-12.5-4.8-17.3,0
		l-30.9,30.9V36.3H412v151.3h-43.8c-6.8,0-12.3,5.5-12.3,12.3V312c0,6.8,5.5,12.3,12.3,12.3h112.2c6.8,0,12.3-5.5,12.3-12.3V199.8
		c0-6.8-5.5-12.3-12.3-12.3h-43.8V24.1c0-6.8-5.5-12.2-12.3-12.2H85.7c-6.8,0-12.3,5.5-12.3,12.2v82.6L42.5,75.7
		c-4.8-4.8-12.5-4.8-17.3,0c-4.8,4.8-4.8,12.5,0,17.3L77,144.9z M468.1,299.8h-87.7v-87.7h87.7V299.8z"/>
</g>
</svg>
