<?xml version="1.0" encoding="utf-8"?>
<!-- Generator: Adobe Illustrator 18.0.0, SVG Export Plug-In . SVG Version: 6.00 Build 0)  -->
<!DOCTYPE svg PUBLIC "-//W3C//DTD SVG 1.1//EN" "http://www.w3.org/Graphics/SVG/1.1/DTD/svg11.dtd">
<svg version="1.1" id="Artwork" xmlns="http://www.w3.org/2000/svg" xmlns:xlink="http://www.w3.org/1999/xlink" x="0px" y="0px"
	 viewBox="0 0 512 512" enable-background="new 0 0 512 512" xml:space="preserve">
<g>
	<path d="M326.2,256.1c0-38.7-31.5-70.2-70.2-70.2s-70.2,31.5-70.2,70.2s31.5,70.2,70.2,70.2S326.2,294.8,326.2,256.1z M210.3,256.1
		c0-25.2,20.5-45.7,45.7-45.7s45.7,20.5,45.7,45.7s-20.5,45.7-45.7,45.7S210.3,281.3,210.3,256.1z"/>
	<path d="M442.2,187V36.6c0-6.8-5.5-12.3-12.3-12.3H80c-6.8,0-12.3,5.5-12.3,12.3v86.3L35.1,90.3c-4.8-4.8-12.5-4.8-17.3,0
		c-4.8,4.8-4.8,12.5,0,17.3l53.6,53.6c2.3,2.3,5.4,3.6,8.7,3.6s6.4-1.3,8.7-3.6l53.6-53.6c4.8-4.8,4.8-12.5,0-17.3
		c-4.8-4.8-12.5-4.8-17.3,0l-32.6,32.6V48.8h325.5V187c-32.9,5.8-58,34.5-58,69.1c0,38.7,31.5,70.2,70.2,70.2s70.2-31.5,70.2-70.2
		C500.2,221.5,475.1,192.8,442.2,187z M429.9,301.8c-25.2,0-45.7-20.5-45.7-45.7s20.5-45.7,45.7-45.7c25.2,0,45.7,20.5,45.7,45.7
		S455.1,301.8,429.9,301.8z"/>
	<path d="M82.1,487.7h350c6.8,0,12.3-5.5,12.3-12.3v-86.5l32.6,32.6c2.4,2.4,5.5,3.6,8.7,3.6s6.3-1.2,8.7-3.6
		c4.8-4.8,4.8-12.5,0-17.3l-53.6-53.6c-4.6-4.6-12.7-4.6-17.3,0l-53.6,53.6c-4.8,4.8-4.8,12.5,0,17.3c4.8,4.8,12.5,4.8,17.3,0
		l32.6-32.6v74.2H94.3v-138c32.9-5.8,58-34.5,58-69.1c0-38.7-31.5-70.2-70.2-70.2s-70.2,31.5-70.2,70.2c0,34.5,25.1,63.3,58,69.1
		v150.3C69.8,482.2,75.3,487.7,82.1,487.7z M36.3,256.1c0-25.2,20.5-45.7,45.7-45.7s45.7,20.5,45.7,45.7s-20.5,45.7-45.7,45.7
		S36.3,281.3,36.3,256.1z"/>
</g>
</svg>
