<?xml version="1.0" encoding="utf-8"?>
<!-- Generator: Adobe Illustrator 18.0.0, SVG Export Plug-In . SVG Version: 6.00 Build 0)  -->
<!DOCTYPE svg PUBLIC "-//W3C//DTD SVG 1.1//EN" "http://www.w3.org/Graphics/SVG/1.1/DTD/svg11.dtd">
<svg version="1.1" id="Artwork" xmlns="http://www.w3.org/2000/svg" xmlns:xlink="http://www.w3.org/1999/xlink" x="0px" y="0px"
	 viewBox="0 0 512 512" enable-background="new 0 0 512 512" xml:space="preserve">
<g>
	<path d="M187.4,143.4c0,6.8,5.5,12.3,12.3,12.3h112.6c6.8,0,12.3-5.5,12.3-12.3v-44h152v315.3h-70.9l31.1-31.1
		c4.8-4.8,4.8-12.5,0-17.3c-4.8-4.8-12.5-4.8-17.3,0l-52,52c-2.3,2.3-3.6,5.4-3.6,8.7s1.3,6.4,3.6,8.7l52,52
		c2.4,2.4,5.5,3.6,8.7,3.6s6.3-1.2,8.7-3.6c4.8-4.8,4.8-12.5,0-17.3l-31.1-31.1h83.1c6.8,0,12.3-5.5,12.3-12.3V87.1
		c0-6.8-5.5-12.3-12.3-12.3H324.5v-44c0-6.8-5.5-12.3-12.3-12.3H199.6c-6.8,0-12.3,5.5-12.3,12.3V143.4z M211.9,43.1H300v88.1h-88.1
		V43.1z"/>
	<path d="M187.4,199.7v112.6c0,6.8,5.5,12.3,12.3,12.3h112.6c6.8,0,12.3-5.5,12.3-12.3V199.7c0-6.8-5.5-12.3-12.3-12.3H199.6
		C192.9,187.5,187.4,192.9,187.4,199.7z M211.9,212H300V300h-88.1V212z"/>
	<path d="M23.3,437.1h164.1v44c0,6.8,5.5,12.3,12.3,12.3h112.6c6.8,0,12.3-5.5,12.3-12.3V368.6c0-6.8-5.5-12.3-12.3-12.3H199.6
		c-6.8,0-12.3,5.5-12.3,12.3v44H35.5V97.3h70.7l-31.1,31.1c-4.8,4.8-4.8,12.5,0,17.3c2.4,2.4,5.5,3.6,8.7,3.6s6.3-1.2,8.7-3.6l52-52
		c4.8-4.8,4.8-12.5,0-17.3l-52-52c-4.8-4.8-12.5-4.8-17.3,0c-4.8,4.8-4.8,12.5,0,17.3l31.1,31.1h-83c-6.8,0-12.2,5.5-12.2,12.3
		v339.8C11,431.6,16.5,437.1,23.3,437.1z M211.9,380.8H300v88.1h-88.1V380.8z"/>
</g>
</svg>
