<?xml version="1.0" encoding="utf-8"?>
<!-- Generator: Adobe Illustrator 18.0.0, SVG Export Plug-In . SVG Version: 6.00 Build 0)  -->
<!DOCTYPE svg PUBLIC "-//W3C//DTD SVG 1.1//EN" "http://www.w3.org/Graphics/SVG/1.1/DTD/svg11.dtd">
<svg version="1.1" id="Artwork" xmlns="http://www.w3.org/2000/svg" xmlns:xlink="http://www.w3.org/1999/xlink" x="0px" y="0px"
	 viewBox="0 0 512 512" enable-background="new 0 0 512 512" xml:space="preserve">
<g>
	<path d="M312.3,324.5c6.8,0,12.3-5.5,12.3-12.3V199.6c0-6.8-5.5-12.3-12.3-12.3H199.7c-6.8,0-12.3,5.5-12.3,12.3v112.6
		c0,6.8,5.5,12.3,12.3,12.3H312.3z M212,211.9H300V300H212V211.9z"/>
	<path d="M493.4,199.6c0-6.8-5.5-12.3-12.3-12.3h-44V23.3c0-6.8-5.5-12.3-12.3-12.3H85.1c-6.8,0-12.3,5.5-12.3,12.3v83L41.7,75.1
		c-4.8-4.8-12.5-4.8-17.3,0c-4.8,4.8-4.8,12.5,0,17.3l52,52c2.4,2.4,5.5,3.6,8.7,3.6s6.3-1.2,8.7-3.6l52-52c4.8-4.8,4.8-12.5,0-17.3
		c-4.8-4.8-12.5-4.8-17.3,0l-31.1,31.1V35.5h315.3v151.9h-44c-6.8,0-12.3,5.5-12.3,12.3v112.6c0,6.8,5.5,12.3,12.3,12.3h112.6
		c6.8,0,12.3-5.5,12.3-12.3V199.6z M468.9,300h-88.1v-88.1h88.1V300z"/>
	<path d="M478.9,440.3c3.1,0,6.3-1.2,8.7-3.6c4.8-4.8,4.8-12.5,0-17.3l-52-52c-4.8-4.8-12.5-4.8-17.3,0l-52,52
		c-4.8,4.8-4.8,12.5,0,17.3c4.8,4.8,12.5,4.8,17.3,0l31.1-31.1v70.9H99.4v-152h44c6.8,0,12.3-5.5,12.3-12.3V199.6
		c0-6.8-5.5-12.3-12.3-12.3H30.8c-6.8,0-12.3,5.5-12.3,12.3v112.6c0,6.8,5.5,12.3,12.3,12.3h44v164.3c0,6.8,5.5,12.3,12.3,12.3
		h339.8c6.8,0,12.3-5.5,12.3-12.3v-83.1l31.1,31.1C472.7,439.1,475.8,440.3,478.9,440.3z M43.1,211.9h88.1V300H43.1V211.9z"/>
</g>
</svg>
