<?xml version="1.0" encoding="utf-8"?>
<!-- Generator: Adobe Illustrator 18.0.0, SVG Export Plug-In . SVG Version: 6.00 Build 0)  -->
<!DOCTYPE svg PUBLIC "-//W3C//DTD SVG 1.1//EN" "http://www.w3.org/Graphics/SVG/1.1/DTD/svg11.dtd">
<svg version="1.1" id="Artwork" xmlns="http://www.w3.org/2000/svg" xmlns:xlink="http://www.w3.org/1999/xlink" x="0px" y="0px"
	 viewBox="0 0 512 512" enable-background="new 0 0 512 512" xml:space="preserve">
<path d="M489,94.2c6.8,0,12.3-5.5,12.3-12.3s-5.5-12.3-12.3-12.3H23c-6.8,0-12.3,5.5-12.3,12.3S16.2,94.2,23,94.2h139v89.3H23
	c-6.8,0-12.3,5.5-12.3,12.3c0,6.8,5.5,12.3,12.3,12.3h57.2v96H23c-6.8,0-12.3,5.5-12.3,12.3s5.5,12.3,12.3,12.3h139v89.3H23
	c-6.8,0-12.3,5.5-12.3,12.3s5.5,12.3,12.3,12.3h466c6.8,0,12.3-5.5,12.3-12.3s-5.5-12.3-12.3-12.3H350v-89.3h139
	c6.8,0,12.3-5.5,12.3-12.3S495.8,304,489,304h-57.2v-96H489c6.8,0,12.3-5.5,12.3-12.3c0-6.8-5.5-12.3-12.3-12.3H350V94.2H489z
	 M104.7,208h139.1v96H104.7V208z M325.5,417.8H186.5v-89.3h139.1V417.8z M407.3,304H268.3v-96h139.1V304z M325.5,183.5H186.5V94.2
	h139.1V183.5z"/>
</svg>
