<?xml version="1.0" encoding="utf-8"?>
<!-- Generator: Adobe Illustrator 18.0.0, SVG Export Plug-In . SVG Version: 6.00 Build 0)  -->
<!DOCTYPE svg PUBLIC "-//W3C//DTD SVG 1.1//EN" "http://www.w3.org/Graphics/SVG/1.1/DTD/svg11.dtd">
<svg version="1.1" id="Artwork" xmlns="http://www.w3.org/2000/svg" xmlns:xlink="http://www.w3.org/1999/xlink" x="0px" y="0px"
	 viewBox="0 0 512 512" enable-background="new 0 0 512 512" xml:space="preserve">
<g>
	<path d="M364.4,499.4c18.5,0,35.9-7.2,49-20.3l65.8-65.8c27-27,27-71,0-98L256.7,92.9c-4.8-4.8-12.5-4.8-17.3,0L226.3,106
		l-89.8-89.8c-4.8-4.8-12.5-4.8-17.3,0l-103,103c-2.3,2.3-3.6,5.4-3.6,8.7s1.3,6.4,3.6,8.7l89.8,89.8l-13.1,13.1
		c-2.3,2.3-3.6,5.4-3.6,8.7c0,3.2,1.3,6.4,3.6,8.7l222.4,222.4C328.4,492.2,345.8,499.4,364.4,499.4z M42.1,127.8l85.7-85.7
		l81.2,81.2L123.3,209L42.1,127.8z M248.1,118.9l213.8,213.8c17.5,17.5,17.5,45.9,0,63.4l-65.8,65.8c-8.5,8.5-19.7,13.1-31.7,13.1
		c-12,0-23.2-4.7-31.7-13.1L118.9,248L248.1,118.9z"/>
	<path d="M106.3,122.9c-4.8-4.8-12.5-4.8-17.3,0c-4.8,4.8-4.8,12.5,0,17.3l21.9,21.9c2.4,2.4,5.5,3.6,8.7,3.6s6.3-1.2,8.7-3.6
		c4.8-4.8,4.8-12.5,0-17.3L106.3,122.9z"/>
	<path d="M162.1,110.9L140.2,89c-4.8-4.8-12.5-4.8-17.3,0c-4.8,4.8-4.8,12.5,0,17.3l21.9,21.9c2.4,2.4,5.5,3.6,8.7,3.6
		s6.3-1.2,8.7-3.6C166.9,123.4,166.9,115.7,162.1,110.9z"/>
</g>
</svg>
