<?xml version="1.0" encoding="utf-8"?>
<!-- Generator: Adobe Illustrator 18.0.0, SVG Export Plug-In . SVG Version: 6.00 Build 0)  -->
<!DOCTYPE svg PUBLIC "-//W3C//DTD SVG 1.1//EN" "http://www.w3.org/Graphics/SVG/1.1/DTD/svg11.dtd">
<svg version="1.1" id="Artwork" xmlns="http://www.w3.org/2000/svg" xmlns:xlink="http://www.w3.org/1999/xlink" x="0px" y="0px"
	 viewBox="0 0 512 512" enable-background="new 0 0 512 512" xml:space="preserve">
<g>
	<path d="M383,137.9h-48.4V23.4c0-6.8-5.5-12.3-12.3-12.3H189.7c-6.8,0-12.3,5.5-12.3,12.3v114.6H129c-6.8,0-12.3,5.5-12.3,12.3
		v281.4c0,38.2,31.1,69.3,69.3,69.3h139.9c38.2,0,69.3-31.1,69.3-69.3V150.2C395.3,143.4,389.8,137.9,383,137.9z M201.9,35.6h108.2
		v102.3H201.9V35.6z M370.8,431.6c0,24.7-20.1,44.8-44.8,44.8H186.1c-24.7,0-44.8-20.1-44.8-44.8V162.4h229.5V431.6z"/>
	<path d="M234.2,60.4c-6.8,0-12.3,5.5-12.3,12.3v28.2c0,6.8,5.5,12.3,12.3,12.3c6.8,0,12.3-5.5,12.3-12.3V72.7
		C246.4,65.9,240.9,60.4,234.2,60.4z"/>
	<path d="M277.8,60.4c-6.8,0-12.3,5.5-12.3,12.3v28.2c0,6.8,5.5,12.3,12.3,12.3s12.3-5.5,12.3-12.3V72.7
		C290.1,65.9,284.6,60.4,277.8,60.4z"/>
</g>
</svg>
