<?xml version="1.0" encoding="utf-8"?>
<!-- Generator: Adobe Illustrator 18.0.0, SVG Export Plug-In . SVG Version: 6.00 Build 0)  -->
<!DOCTYPE svg PUBLIC "-//W3C//DTD SVG 1.1//EN" "http://www.w3.org/Graphics/SVG/1.1/DTD/svg11.dtd">
<svg version="1.1" id="Artwork" xmlns="http://www.w3.org/2000/svg" xmlns:xlink="http://www.w3.org/1999/xlink" x="0px" y="0px"
	 viewBox="0 0 512 512" enable-background="new 0 0 512 512" xml:space="preserve">
<g>
	<path d="M142.9,501h226.1c30.4,0,55.1-24.7,55.1-55.1V112.5c0-30.4-24.7-55.1-55.1-55.1H142.9c-30.4,0-55.1,24.7-55.1,55.1v333.4
		C87.8,476.3,112.5,501,142.9,501z M112.3,112.5c0-16.9,13.7-30.6,30.6-30.6h226.1c16.9,0,30.6,13.7,30.6,30.6v333.4
		c0,16.9-13.7,30.6-30.6,30.6H142.9c-16.9,0-30.6-13.7-30.6-30.6V112.5z"/>
	<path d="M148.3,322.3h215.3c6.8,0,12.3-5.5,12.3-12.3v-182c0-6.8-5.5-12.3-12.3-12.3H148.3c-6.8,0-12.3,5.5-12.3,12.3v182
		C136.1,316.8,141.6,322.3,148.3,322.3z M160.6,140.4h190.8v157.5H160.6V140.4z"/>
	<circle cx="283.9" cy="402.1" r="14.9"/>
	<circle cx="344.9" cy="402.1" r="14.9"/>
	<path d="M223,389.9h-18.6v-18.6c0-6.8-5.5-12.3-12.3-12.3c-6.8,0-12.3,5.5-12.3,12.3v18.6h-18.6c-6.8,0-12.3,5.5-12.3,12.3
		c0,6.8,5.5,12.3,12.3,12.3h18.6V433c0,6.8,5.5,12.3,12.3,12.3c6.8,0,12.3-5.5,12.3-12.3v-18.6H223c6.8,0,12.3-5.5,12.3-12.3
		C235.3,395.4,229.8,389.9,223,389.9z"/>
	<circle cx="314.4" cy="432.6" r="14.9"/>
	<circle cx="314.4" cy="371.6" r="14.9"/>
	<path d="M161.3,11c-6.8,0-12.3,5.5-12.3,12.2s5.5,12.3,12.3,12.3h189.5c6.8,0,12.3-5.5,12.3-12.3S357.5,11,350.7,11H161.3z"/>
</g>
</svg>
