<?xml version="1.0" encoding="utf-8"?>
<!-- Generator: Adobe Illustrator 18.0.0, SVG Export Plug-In . SVG Version: 6.00 Build 0)  -->
<!DOCTYPE svg PUBLIC "-//W3C//DTD SVG 1.1//EN" "http://www.w3.org/Graphics/SVG/1.1/DTD/svg11.dtd">
<svg version="1.1" id="Artwork" xmlns="http://www.w3.org/2000/svg" xmlns:xlink="http://www.w3.org/1999/xlink" x="0px" y="0px"
	 viewBox="0 0 512 512" enable-background="new 0 0 512 512" xml:space="preserve">
<g>
	<path d="M373.1,256.2H267.4v-21.4c0-17,13.9-30.9,30.9-30.9h102.3c30.6,0,55.4-24.9,55.4-55.4s-24.9-55.4-55.4-55.4H111.4
		c-17,0-30.9-13.9-30.9-30.9V23.8c0-6.8-5.5-12.3-12.3-12.3S56,17.1,56,23.8v38.3c0,30.6,24.9,55.4,55.4,55.4h289.2
		c17,0,30.9,13.9,30.9,30.9s-13.9,30.9-30.9,30.9H298.3c-30.6,0-55.4,24.9-55.4,55.4v21.4h-104c-67.3,0-122.1,54.8-122.1,122.1
		c0,67.3,54.8,122.1,122.1,122.1c36.4,0,66.3-16.3,86.8-47.1h60.7c20.6,30.9,50.4,47.1,86.8,47.1c67.3,0,122.1-54.8,122.1-122.1
		C495.3,311,440.5,256.2,373.1,256.2z M373.1,475.9c-30.4,0-53.1-13.5-69.5-41.1c-2.2-3.7-6.2-6-10.5-6h-74.2c-4.3,0-8.3,2.3-10.5,6
		c-16.4,27.7-39.1,41.1-69.5,41.1c-53.8,0-97.6-43.8-97.6-97.6c0-53.8,43.8-97.6,97.6-97.6h234.3c53.8,0,97.6,43.8,97.6,97.6
		C470.8,432.1,427,475.9,373.1,475.9z"/>
	<circle cx="334.8" cy="373.8" r="16.3"/>
	<circle cx="413.7" cy="373.8" r="16.3"/>
	<circle cx="374.2" cy="413.3" r="16.3"/>
	<circle cx="374.2" cy="334.3" r="16.3"/>
	<path d="M171.7,361.6h-25v-25c0-6.8-5.5-12.3-12.3-12.3c-6.8,0-12.3,5.5-12.3,12.3v25h-25c-6.8,0-12.3,5.5-12.3,12.3
		c0,6.8,5.5,12.3,12.3,12.3h25v25c0,6.8,5.5,12.3,12.3,12.3c6.8,0,12.3-5.5,12.3-12.3v-25h25c6.8,0,12.3-5.5,12.3-12.3
		C184,367,178.5,361.6,171.7,361.6z"/>
</g>
</svg>
