<?xml version="1.0" encoding="utf-8"?>
<!-- Generator: Adobe Illustrator 18.0.0, SVG Export Plug-In . SVG Version: 6.00 Build 0)  -->
<!DOCTYPE svg PUBLIC "-//W3C//DTD SVG 1.1//EN" "http://www.w3.org/Graphics/SVG/1.1/DTD/svg11.dtd">
<svg version="1.1" id="Artwork" xmlns="http://www.w3.org/2000/svg" xmlns:xlink="http://www.w3.org/1999/xlink" x="0px" y="0px"
	 viewBox="0 0 512 512" enable-background="new 0 0 512 512" xml:space="preserve">
<g>
	<path d="M445.1,11.1H66.9c-30.4,0-55.1,24.7-55.1,55.1v146.9c0,17.3,8,32.8,20.6,42.9c-12.5,10.1-20.6,25.6-20.6,42.9v146.9
		c0,30.4,24.7,55.1,55.1,55.1h378.2c30.4,0,55.1-24.7,55.1-55.1V298.9c0-17.3-8-32.8-20.6-42.9c12.5-10.1,20.6-25.6,20.6-42.9V66.2
		C500.2,35.8,475.5,11.1,445.1,11.1z M475.7,298.9v146.9c0,16.9-13.7,30.6-30.6,30.6H66.9c-16.9,0-30.6-13.7-30.6-30.6V298.9
		c0-16.9,13.7-30.6,30.6-30.6h378.2C462,268.3,475.7,282,475.7,298.9z M66.9,243.8c-16.9,0-30.6-13.7-30.6-30.6V66.2
		c0-16.9,13.7-30.6,30.6-30.6h378.2c16.9,0,30.6,13.7,30.6,30.6v146.9c0,16.9-13.7,30.6-30.6,30.6H66.9z"/>
	<circle cx="425.4" cy="349.3" r="16.2"/>
	<path d="M60,360.1c-6.8,0-12.3,5.5-12.3,12.3s5.5,12.3,12.3,12.3h9.7v9.7c0,6.8,5.5,12.3,12.3,12.3s12.3-5.5,12.3-12.3v-9.7h9.7
		c6.8,0,12.3-5.5,12.3-12.3s-5.5-12.3-12.3-12.3h-9.7v-9.7c0-6.8-5.5-12.3-12.3-12.3s-12.3,5.5-12.3,12.3v9.7H60z"/>
	<circle cx="425.4" cy="395.4" r="16.2"/>
	<path d="M369.8,58.3H142.2c-6.8,0-12.3,5.5-12.3,12.3v138.2c0,6.8,5.5,12.3,12.3,12.3h227.7c6.8,0,12.3-5.5,12.3-12.3V70.6
		C382.1,63.8,376.6,58.3,369.8,58.3z M357.6,196.5H154.4V82.8h203.2V196.5z"/>
	<path d="M142.2,453.7h227.7c6.8,0,12.3-5.5,12.3-12.3V303.2c0-6.8-5.5-12.3-12.3-12.3H142.2c-6.8,0-12.3,5.5-12.3,12.3v138.2
		C129.9,448.2,135.4,453.7,142.2,453.7z M154.4,315.5h203.2v113.7H154.4V315.5z"/>
</g>
</svg>
