<?xml version="1.0" encoding="utf-8"?>
<!-- Generator: Adobe Illustrator 18.0.0, SVG Export Plug-In . SVG Version: 6.00 Build 0)  -->
<!DOCTYPE svg PUBLIC "-//W3C//DTD SVG 1.1//EN" "http://www.w3.org/Graphics/SVG/1.1/DTD/svg11.dtd">
<svg version="1.1" id="Artwork" xmlns="http://www.w3.org/2000/svg" xmlns:xlink="http://www.w3.org/1999/xlink" x="0px" y="0px"
	 viewBox="0 0 512 512" enable-background="new 0 0 512 512" xml:space="preserve">
<g>
	<path d="M185.6,329.6c-28,0-50.7,22.7-50.7,50.7s22.7,50.7,50.7,50.7s50.7-22.7,50.7-50.7S213.5,329.6,185.6,329.6z M185.6,406.4
		c-14.4,0-26.2-11.7-26.2-26.2c0-14.4,11.7-26.2,26.2-26.2c14.4,0,26.2,11.7,26.2,26.2C211.8,394.7,200,406.4,185.6,406.4z"/>
	<path d="M377.1,380.2c0-28-22.7-50.7-50.7-50.7c-28,0-50.7,22.7-50.7,50.7s22.7,50.7,50.7,50.7
		C354.4,430.9,377.1,408.2,377.1,380.2z M326.4,406.4c-14.4,0-26.2-11.7-26.2-26.2c0-14.4,11.7-26.2,26.2-26.2
		c14.4,0,26.2,11.7,26.2,26.2C352.6,394.7,340.9,406.4,326.4,406.4z"/>
	<path d="M459,255.5c-8.1-48.1-47.7-83.6-96.6-86.6l-2-0.3c-0.7-0.1-1.4-0.2-2.1-0.2h-90.9v-18.3c0-16.5,13.4-29.8,29.8-29.8h99.8
		c30,0,54.3-24.4,54.3-54.3S427,11.6,397.1,11.6H114.9c-6.8,0-12.3,5.5-12.3,12.3s5.5,12.2,12.3,12.2h282.1
		c16.5,0,29.8,13.4,29.8,29.8s-13.4,29.8-29.8,29.8h-99.8c-30,0-54.3,24.4-54.3,54.3v18.3h-86.9c-51.3,0-94.6,36.6-103,86.9
		L22.2,420.7c-0.9,4.5-1.4,9.1-1.4,13.6c0,36.4,29.6,66.1,66.1,66.1c22,0,42.5-10.9,54.6-28.8l14.9-20.7c4-5.5,2.7-13.1-2.8-17.1
		c-5.5-4-13.1-2.7-17.1,2.8l-15.2,21c-7.8,11.5-20.6,18.4-34.5,18.4c-22.9,0-41.6-18.6-41.6-41.6c0-2.9,0.3-5.8,0.9-8.9l30.9-165.9
		c6.5-38.6,39.7-66.7,78.9-66.7h201.2l1.6,0.3c0.5,0.1,0.9,0.1,1.4,0.2c37.1,2,68.4,29.9,74.6,66.4l30.9,166
		c0.6,2.8,0.9,5.7,0.9,8.6c0,22.9-18.6,41.6-41.6,41.6c-13.8,0-26.7-6.9-34.7-18.7l-16-22.2c-4-5.5-11.6-6.7-17.1-2.8
		c-5.5,4-6.7,11.6-2.8,17.1l15.8,21.9c12.3,18.3,32.8,29.2,54.8,29.2c36.4,0,66.1-29.6,66.1-66.1c0-4.6-0.5-9.1-1.4-13.4L459,255.5z
		"/>
	<circle cx="316.7" cy="263.5" r="15.9"/>
	<circle cx="381.6" cy="263.5" r="15.9"/>
	<path d="M163.9,215.9c-6.8,0-12.3,5.5-12.3,12.3v20.6h-20.6c-6.8,0-12.3,5.5-12.3,12.2c0,6.8,5.5,12.3,12.3,12.3h20.6v20.6
		c0,6.8,5.5,12.3,12.3,12.3s12.3-5.5,12.3-12.3v-20.6h20.6c6.8,0,12.3-5.5,12.3-12.3c0-6.8-5.5-12.2-12.3-12.2h-20.6v-20.6
		C176.2,221.4,170.7,215.9,163.9,215.9z"/>
	<circle cx="349.2" cy="295.9" r="15.9"/>
	<circle cx="349.2" cy="231" r="15.9"/>
</g>
</svg>
