<?xml version="1.0" encoding="utf-8"?>
<!-- Generator: Adobe Illustrator 18.0.0, SVG Export Plug-In . SVG Version: 6.00 Build 0)  -->
<!DOCTYPE svg PUBLIC "-//W3C//DTD SVG 1.1//EN" "http://www.w3.org/Graphics/SVG/1.1/DTD/svg11.dtd">
<svg version="1.1" id="Artwork" xmlns="http://www.w3.org/2000/svg" xmlns:xlink="http://www.w3.org/1999/xlink" x="0px" y="0px"
	 viewBox="0 0 512 512" enable-background="new 0 0 512 512" xml:space="preserve">
<g>
	<path d="M378.4,246.9H133.6c-70,0-127,57-127,127c0,70,57,127,127,127c37.9,0,69-17,90.4-49.2h64c21.4,32.2,52.5,49.2,90.4,49.2
		c70,0,127-57,127-127C505.4,303.9,448.4,246.9,378.4,246.9z M378.4,476.4c-31.9,0-55.8-14.1-73.1-43.2c-2.2-3.7-6.2-6-10.5-6h-77.5
		c-4.3,0-8.3,2.3-10.5,6c-17.2,29.1-41.1,43.2-73.1,43.2c-56.5,0-102.5-46-102.5-102.5s46-102.5,102.5-102.5h244.7
		c56.5,0,102.5,46,102.5,102.5S434.9,476.4,378.4,476.4z"/>
	<path d="M334.3,138.8c3.8,0,7.6-1.8,10-5.2c3.9-5.5,2.6-13.2-2.9-17.1c-25-17.7-54.5-27.1-85.4-27.1s-60.4,9.4-85.4,27.1
		c-5.5,3.9-6.8,11.6-2.9,17.1c3.9,5.5,11.6,6.8,17.1,2.9c20.8-14.8,45.5-22.6,71.3-22.6c25.8,0,50.4,7.8,71.3,22.6
		C329.4,138.1,331.9,138.8,334.3,138.8z"/>
	<path d="M256,167.3c-13.7,0-26.7,4.1-37.8,12c-5.5,3.9-6.8,11.6-2.9,17.1c3.9,5.5,11.6,6.8,17.1,2.9c13.8-9.8,33.5-9.8,47.2,0
		c2.2,1.5,4.6,2.3,7.1,2.3c3.8,0,7.6-1.8,10-5.2c3.9-5.5,2.6-13.2-2.9-17.1C282.7,171.5,269.7,167.3,256,167.3z"/>
	<path d="M389.8,78c3.8,0,7.6-1.8,10-5.2c3.9-5.5,2.6-13.2-2.9-17.1C355.7,26.5,307,11.1,256,11.1c-51,0-99.7,15.5-140.9,44.7
		c-5.5,3.9-6.8,11.6-2.9,17.1c3.9,5.5,11.6,6.8,17.1,2.9c37-26.3,80.8-40.2,126.7-40.2c45.8,0,89.7,13.9,126.7,40.2
		C384.8,77.3,387.3,78,389.8,78z"/>
	<circle cx="338.3" cy="369.2" r="17"/>
	<circle cx="420.8" cy="369.2" r="17"/>
	<circle cx="379.5" cy="410.5" r="17"/>
	<circle cx="379.5" cy="328" r="17"/>
	<path d="M168,357h-26.7v-26.7c0-6.8-5.5-12.3-12.3-12.3c-6.8,0-12.2,5.5-12.2,12.3V357H90.1c-6.8,0-12.3,5.5-12.3,12.3
		s5.5,12.3,12.3,12.3h26.7v26.7c0,6.8,5.5,12.3,12.2,12.3c6.8,0,12.3-5.5,12.3-12.3v-26.7H168c6.8,0,12.3-5.5,12.3-12.3
		S174.7,357,168,357z"/>
</g>
</svg>
