<?xml version="1.0" encoding="utf-8"?>
<!-- Generator: Adobe Illustrator 18.0.0, SVG Export Plug-In . SVG Version: 6.00 Build 0)  -->
<!DOCTYPE svg PUBLIC "-//W3C//DTD SVG 1.1//EN" "http://www.w3.org/Graphics/SVG/1.1/DTD/svg11.dtd">
<svg version="1.1" id="Artwork" xmlns="http://www.w3.org/2000/svg" xmlns:xlink="http://www.w3.org/1999/xlink" x="0px" y="0px"
	 viewBox="0 0 512 512" enable-background="new 0 0 512 512" xml:space="preserve">
<g>
	<path d="M381.7,11H130.3c-30.4,0-55.1,24.7-55.1,55.1v379.8c0,30.4,24.7,55.1,55.1,55.1h251.5c30.4,0,55.1-24.7,55.1-55.1V66.1
		C436.9,35.7,412.1,11,381.7,11z M412.4,445.9c0,16.9-13.7,30.6-30.6,30.6H130.3c-16.9,0-30.6-13.7-30.6-30.6V66.1
		c0-16.9,13.7-30.6,30.6-30.6h251.5c16.9,0,30.6,13.7,30.6,30.6V445.9z"/>
	<path d="M372.4,83.7H139.6c-6.8,0-12.3,5.5-12.3,12.3v196.7c0,6.8,5.5,12.3,12.3,12.3h232.8c6.8,0,12.3-5.5,12.3-12.3V96
		C384.7,89.2,379.2,83.7,372.4,83.7z M360.2,280.4H151.8V108.2h208.3V280.4z"/>
	<circle cx="286.2" cy="392.2" r="16.1"/>
	<circle cx="352.1" cy="392.2" r="16.1"/>
	<path d="M220.4,380h-21.1v-21.1c0-6.8-5.5-12.3-12.3-12.3c-6.8,0-12.3,5.5-12.3,12.3V380h-21.1c-6.8,0-12.3,5.5-12.3,12.3
		c0,6.8,5.5,12.3,12.3,12.3h21.1v21.1c0,6.8,5.5,12.3,12.3,12.3c6.8,0,12.3-5.5,12.3-12.3v-21.1h21.1c6.8,0,12.3-5.5,12.3-12.3
		C232.6,385.5,227.1,380,220.4,380z"/>
	<circle cx="319.2" cy="425.2" r="16.1"/>
	<circle cx="319.2" cy="359.3" r="16.1"/>
</g>
</svg>
