<?xml version="1.0" encoding="utf-8"?>
<!-- Generator: Adobe Illustrator 18.0.0, SVG Export Plug-In . SVG Version: 6.00 Build 0)  -->
<!DOCTYPE svg PUBLIC "-//W3C//DTD SVG 1.1//EN" "http://www.w3.org/Graphics/SVG/1.1/DTD/svg11.dtd">
<svg version="1.1" id="Artwork" xmlns="http://www.w3.org/2000/svg" xmlns:xlink="http://www.w3.org/1999/xlink" x="0px" y="0px"
	 viewBox="0 0 512 512" enable-background="new 0 0 512 512" xml:space="preserve">
<g>
	<path d="M193,345.5c-25.7,0-46.7,20.9-46.7,46.7c0,25.7,20.9,46.7,46.7,46.7s46.7-20.9,46.7-46.7
		C239.6,366.5,218.7,345.5,193,345.5z M193,414.3c-12.2,0-22.2-9.9-22.2-22.2c0-12.2,9.9-22.2,22.2-22.2c12.2,0,22.2,9.9,22.2,22.2
		C215.1,404.4,205.2,414.3,193,414.3z"/>
	<path d="M365.7,392.2c0-25.7-20.9-46.7-46.7-46.7c-25.7,0-46.7,20.9-46.7,46.7c0,25.7,20.9,46.7,46.7,46.7
		C344.8,438.8,365.7,417.9,365.7,392.2z M319,414.3c-12.2,0-22.2-9.9-22.2-22.2c0-12.2,9.9-22.2,22.2-22.2
		c12.2,0,22.2,9.9,22.2,22.2C341.2,404.4,331.2,414.3,319,414.3z"/>
	<path d="M439,280.3c-7.3-43.6-43.3-75.8-87.6-78.6l-1.7-0.3c-0.7-0.1-1.4-0.2-2.1-0.2H166.5c-46.5,0-85.8,33.2-93.5,78.8
		L45.5,428.2c-0.9,4.1-1.3,8.3-1.3,12.5c0,33.3,27.1,60.4,60.4,60.4c20.1,0,38.8-10,49.9-26.3l13.4-18.5c4-5.5,2.7-13.1-2.8-17.1
		c-5.5-4-13.1-2.7-17.1,2.8l-13.6,18.8c-6.7,9.9-17.8,15.9-29.8,15.9c-19.8,0-35.9-16.1-35.9-35.9c0-2.5,0.3-5,0.8-7.7l27.7-148.6
		c5.7-33.9,34.9-58.6,69.4-58.6h180l1.3,0.2c0.5,0.1,0.9,0.1,1.4,0.2c32.6,1.8,60.2,26.3,65.5,58.4l27.7,148.6
		c0.5,2.5,0.8,5,0.8,7.4c0,19.8-16.1,35.9-35.9,35.9c-12,0-23.1-5.9-30-16.2L363,440.5c-4-5.5-11.6-6.7-17.1-2.8
		c-5.5,4-6.7,11.6-2.8,17.1l14.1,19.5c11.3,16.7,30,26.7,50.1,26.7c33.3,0,60.4-27.1,60.4-60.4c0-4.2-0.4-8.3-1.2-12.2L439,280.3z"
		/>
	<circle cx="310.4" cy="287.6" r="14.2"/>
	<circle cx="368.4" cy="287.6" r="14.2"/>
	<path d="M173.6,243.8c-6.8,0-12.3,5.5-12.3,12.3v17.2h-17.2c-6.8,0-12.3,5.5-12.3,12.3s5.5,12.3,12.3,12.3h17.2v17.2
		c0,6.8,5.5,12.3,12.3,12.3c6.8,0,12.3-5.5,12.3-12.3v-17.2H203c6.8,0,12.3-5.5,12.3-12.3s-5.5-12.3-12.3-12.3h-17.2v-17.2
		C185.8,249.3,180.4,243.8,173.6,243.8z"/>
	<circle cx="339.4" cy="316.7" r="14.2"/>
	<circle cx="339.4" cy="258.6" r="14.2"/>
	<path d="M321.5,121.8c3.8,0,7.6-1.8,10-5.2c3.9-5.5,2.6-13.2-2.9-17.1c-21.2-15.1-46.3-23-72.6-23c-26.3,0-51.3,8-72.6,23
		c-5.5,3.9-6.8,11.6-2.9,17.1c3.9,5.5,11.6,6.8,17.1,2.9c17.1-12.1,37.3-18.5,58.4-18.5c21.1,0,41.3,6.4,58.4,18.5
		C316.5,121,319,121.8,321.5,121.8z"/>
	<path d="M256,141.6c-11.8,0-23.2,3.6-32.8,10.4c-5.5,3.9-6.8,11.6-2.9,17.1c2.4,3.4,6.2,5.2,10,5.2c2.5,0,4.9-0.7,7.1-2.3
		c10.8-7.7,26.3-7.7,37.2,0c5.5,3.9,13.2,2.6,17.1-2.9c3.9-5.5,2.6-13.2-2.9-17.1C279.2,145.2,267.8,141.6,256,141.6z"/>
	<path d="M377.8,65.8c3.9-5.5,2.6-13.2-2.9-17.1C340.1,24,299,11,256,11c-43,0-84.1,13-118.9,37.7c-5.5,3.9-6.8,11.6-2.9,17.1
		c2.4,3.4,6.2,5.2,10,5.2c2.5,0,4.9-0.7,7.1-2.3c30.6-21.7,66.8-33.2,104.7-33.2c37.9,0,74.1,11.5,104.7,33.2
		C366.2,72.6,373.9,71.3,377.8,65.8z"/>
</g>
</svg>
