<?xml version="1.0" encoding="utf-8"?>
<!-- Generator: Adobe Illustrator 18.0.0, SVG Export Plug-In . SVG Version: 6.00 Build 0)  -->
<!DOCTYPE svg PUBLIC "-//W3C//DTD SVG 1.1//EN" "http://www.w3.org/Graphics/SVG/1.1/DTD/svg11.dtd">
<svg version="1.1" id="Artwork" xmlns="http://www.w3.org/2000/svg" xmlns:xlink="http://www.w3.org/1999/xlink" x="0px" y="0px"
	 viewBox="0 0 512 512" enable-background="new 0 0 512 512" xml:space="preserve">
<g>
	<path d="M255.9,23.1c-20,0-39.6,3.9-58.3,11.6c-37.6,15.6-67,44.9-82.5,82.5c-15.6,37.6-15.6,79.1,0,116.7
		c23.7,57.2,79,94.2,141,94.2c20,0,39.6-3.9,58.3-11.6c37.6-15.6,67-44.9,82.5-82.5c15.6-37.6,15.6-79.1,0-116.7
		C373.2,60,317.9,23.1,255.9,23.1z M343.2,216.9c3.2-14.4,5-28.6,5-41.4c0-13.8-1.4-27.7-4-41.3h32.9c9.2,26.9,9.2,55.8,0,82.7
		H343.2z M134.9,216.9c-9.2-26.9-9.2-55.8,0-82.7h32.9c-2.6,13.6-4,27.5-4,41.3c0,12.8,1.7,27,5,41.4H134.9z M188.3,175.6
		c0-14.1,1.6-28.1,4.5-41.3h50.9v82.7h-50C190.3,203,188.3,188.8,188.3,175.6z M268.2,54c17.5,7,33.4,28.1,43.7,55.8h-43.7V54z
		 M243.7,54v55.8H200C210.3,82.1,226.3,61,243.7,54z M243.7,241.4v55.4c-16.6-7.5-31.8-29.3-42.1-55.4H243.7z M268.2,296.9v-55.4
		h42.1C300.1,267.5,284.8,289.3,268.2,296.9z M268.2,216.9v-82.7h50.9c2.9,13.2,4.5,27.2,4.5,41.3c0,13.3-2,27.5-5.5,41.4H268.2z
		 M365.8,109.8H338c-5.7-18-13.6-34.5-23.4-48C335.5,72.6,353.4,89,365.8,109.8z M197.3,61.9c-9.8,13.4-17.7,29.9-23.3,47.8h-27.6
		C158.6,89.4,176,72.9,197.3,61.9z M146.2,241.4h29.6c6.4,18.4,15.1,35.9,25.8,50.1C178.8,280.8,159.4,263.5,146.2,241.4z
		 M310.7,291.2c10.6-14.1,19.2-31.5,25.5-49.7h29.4C352.7,263.1,333.7,280.3,310.7,291.2z"/>
	<path d="M500.6,443.6c0-25-20.3-45.3-45.3-45.3c-20.7,0-38.2,14-43.6,33.1h-112c-4.3-15.1-16.2-27.1-31.3-31.3v-34.2
		c0-6.8-5.5-12.3-12.3-12.3c-6.8,0-12.3,5.5-12.3,12.3V400c-15.2,4.3-27.1,16.2-31.4,31.3H100.3c-4.5-16.3-18-29.1-34.8-32.2
		c-16.4-3.1-33.2,2.9-43.7,15.6c-8.6,10.4-12.1,24.2-9.6,37.7c3.4,18,17.8,32.3,35.7,35.7c2.9,0.6,5.8,0.8,8.8,0.8
		c13.5,0,26.3-6,34.9-16.4c4.1-4.9,7-10.6,8.7-16.7h112c5.4,19.1,22.9,33.1,43.6,33.1c20.7,0,38.2-14,43.6-33.1h112
		c5.4,19.1,22.9,33.1,43.6,33.1C480.2,488.9,500.6,468.6,500.6,443.6z M72.8,456.9c-4.9,5.9-12.5,8.6-20.2,7.2
		c-8-1.5-14.7-8.2-16.2-16.2c-1.2-6.4,0.3-12.6,4.4-17.5c4-4.8,9.8-7.6,16.1-7.6c1.4,0,2.8,0.1,4.2,0.4c8,1.5,14.7,8.2,16.2,16.2
		C78.4,445.8,76.8,452,72.8,456.9z M256,464.4c-11.5,0-20.8-9.3-20.8-20.8s9.3-20.8,20.8-20.8c11.5,0,20.8,9.3,20.8,20.8
		S267.5,464.4,256,464.4z M434.5,445c0.1-0.5,0.1-0.9,0.1-1.4s-0.1-0.9-0.1-1.4c0.7-10.8,9.7-19.4,20.7-19.4
		c11.5,0,20.8,9.3,20.8,20.8s-9.3,20.8-20.8,20.8C444.2,464.4,435.3,455.8,434.5,445z"/>
</g>
</svg>
