<?xml version="1.0" encoding="utf-8"?>
<!-- Generator: Adobe Illustrator 18.0.0, SVG Export Plug-In . SVG Version: 6.00 Build 0)  -->
<!DOCTYPE svg PUBLIC "-//W3C//DTD SVG 1.1//EN" "http://www.w3.org/Graphics/SVG/1.1/DTD/svg11.dtd">
<svg version="1.1" id="Artwork" xmlns="http://www.w3.org/2000/svg" xmlns:xlink="http://www.w3.org/1999/xlink" x="0px" y="0px"
	 viewBox="0 0 512 512" enable-background="new 0 0 512 512" xml:space="preserve">
<g>
	<path d="M478.3,453.8c0-6.8-5.5-12.3-12.3-12.3H301.5c-4.4-16.1-17.1-28.8-33.2-33.2v-36.6c0-6.8-5.5-12.3-12.3-12.3
		s-12.3,5.5-12.3,12.3v36.6c-16.1,4.4-28.8,17.1-33.2,33.2H46c-6.8,0-12.3,5.5-12.3,12.3S39.2,466,46,466h164.6
		c5.4,20.1,23.7,34.9,45.5,34.9s40-14.8,45.5-34.9H466C472.8,466,478.3,460.5,478.3,453.8z M256,476.4c-12.5,0-22.6-10.1-22.6-22.6
		c0-12.5,10.1-22.6,22.6-22.6c12.5,0,22.6,10.1,22.6,22.6C278.6,466.3,268.5,476.4,256,476.4z"/>
	<path d="M194.8,23.3c-39.5,16.4-70.3,47.1-86.7,86.6s-16.4,83,0,122.5c24.9,60.1,83,98.9,148,98.9c21,0,41.6-4.1,61.2-12.2
		c39.5-16.4,70.3-47.1,86.7-86.6c16.4-39.5,16.4-83,0-122.5c-24.9-60.1-83-98.9-148-98.9C234.9,11.1,214.3,15.2,194.8,23.3z
		 M384.2,127c10,28.8,10,59.7,0,88.5h-37.1c3.5-15.4,5.4-30.6,5.4-44.3c0-14.8-1.5-29.7-4.3-44.2H384.2z M328,171.2
		c0,14.2-2.1,29.4-5.9,44.3h-53.8V127h54.8C326.2,141.1,328,156.1,328,171.2z M127.8,215.5c-10-28.8-10-59.7,0-88.5h36
		c-2.8,14.5-4.3,29.5-4.3,44.2c0,13.7,1.9,28.9,5.4,44.3H127.8z M184,171.2c0-15.2,1.8-30.1,4.9-44.2h54.8v88.5h-53.8
		C186.1,200.6,184,185.4,184,171.2z M243.8,42.1v60.4h-47.7C207.1,72.3,224.6,49.2,243.8,42.1z M243.8,240V300
		c-18.2-7.7-34.9-31.5-46-60.1H243.8z M268.3,300V240h46C303.1,268.5,286.4,292.3,268.3,300z M268.3,102.5V42.1
		c19.1,7.1,36.6,30.2,47.7,60.4H268.3z M196.3,49.5c-11.1,14.6-20,32.9-26.3,53h-30.9C152.5,79.6,172.2,61.3,196.3,49.5z M139.2,240
		h32.7c7,20.3,16.7,39.7,28.7,55C175.2,283.7,153.6,264.6,139.2,240z M311.4,295c12-15.3,21.7-34.7,28.7-55h32.8
		C358.7,264.2,337.4,283.3,311.4,295z M372.8,102.5H342c-6.3-20.1-15.2-38.5-26.4-53.1C339.2,60.9,359.2,79.2,372.8,102.5z"/>
</g>
</svg>
