<?xml version="1.0" encoding="utf-8"?>
<!-- Generator: Adobe Illustrator 18.0.0, SVG Export Plug-In . SVG Version: 6.00 Build 0)  -->
<!DOCTYPE svg PUBLIC "-//W3C//DTD SVG 1.1//EN" "http://www.w3.org/Graphics/SVG/1.1/DTD/svg11.dtd">
<svg version="1.1" id="Artwork" xmlns="http://www.w3.org/2000/svg" xmlns:xlink="http://www.w3.org/1999/xlink" x="0px" y="0px"
	 viewBox="0 0 512 512" enable-background="new 0 0 512 512" xml:space="preserve">
<g>
	<circle cx="99.3" cy="273.5" r="15.3"/>
	<path d="M162,288.8L162,288.8c8.5,0,15.3-6.9,15.3-15.3c0-8.5-6.9-15.3-15.3-15.3l0,0c-8.5,0-15.3,6.9-15.3,15.3
		C146.7,282,153.5,288.8,162,288.8z"/>
	<circle cx="224.6" cy="273.5" r="15.3"/>
	<circle cx="287.3" cy="273.5" r="15.3"/>
	<circle cx="350" cy="273.5" r="15.3"/>
	<circle cx="412.7" cy="273.5" r="15.3"/>
	<circle cx="130.7" cy="338.5" r="15.3"/>
	<circle cx="193.3" cy="338.5" r="15.3"/>
	<circle cx="256" cy="338.5" r="15.3"/>
	<circle cx="318.6" cy="338.5" r="15.3"/>
	<circle cx="381.3" cy="338.5" r="15.3"/>
	<path d="M134.5,403.4c0,6.8,5.5,12.3,12.3,12.3h218.6c6.8,0,12.3-5.5,12.3-12.3s-5.5-12.3-12.3-12.3H146.7
		C139.9,391.2,134.5,396.6,134.5,403.4z"/>
	<path d="M296.4,122.9h70.9c27.3,0,49.6-22.2,49.6-49.6s-22.2-49.6-49.6-49.6l-240.5,0.1c-6.8,0-12.2,5.5-12.2,12.3
		c0,6.8,5.5,12.2,12.3,12.2h0l240.5-0.1c13.8,0,25.1,11.2,25.1,25.1s-11.2,25.1-25.1,25.1h-70.9c-29.6,0-53.7,24.1-53.7,53.7v36.7
		H39.3c-15.6,0-28.3,12-28.3,26.7v246c0,14.7,12.7,26.7,28.3,26.7h433.4c15.6,0,28.3-12,28.3-26.7v-246c0-14.7-12.7-26.7-28.3-26.7
		H267.3v-36.7C267.3,136,280.3,122.9,296.4,122.9z M476.5,215.5v246c0,0.9-1.5,2.2-3.8,2.2H39.3c-2.3,0-3.8-1.3-3.8-2.2v-246
		c0-0.9,1.5-2.2,3.8-2.2h433.4C475.1,213.2,476.5,214.7,476.5,215.5z"/>
</g>
</svg>
