<?xml version="1.0" encoding="utf-8"?>
<!-- Generator: Adobe Illustrator 18.0.0, SVG Export Plug-In . SVG Version: 6.00 Build 0)  -->
<!DOCTYPE svg PUBLIC "-//W3C//DTD SVG 1.1//EN" "http://www.w3.org/Graphics/SVG/1.1/DTD/svg11.dtd">
<svg version="1.1" id="Artwork" xmlns="http://www.w3.org/2000/svg" xmlns:xlink="http://www.w3.org/1999/xlink" x="0px" y="0px"
	 viewBox="0 0 512 512" enable-background="new 0 0 512 512" xml:space="preserve">
<g>
	<path d="M323.2,124.9c3.8,0,7.6-1.8,10-5.2c3.9-5.5,2.6-13.2-2.9-17.1c-21.7-15.4-47.4-23.6-74.3-23.6c-26.9,0-52.5,8.1-74.3,23.6
		c-5.5,3.9-6.8,11.6-2.9,17.1c3.9,5.5,11.6,6.8,17.1,2.9c17.5-12.5,38.3-19,60.1-19s42.5,6.6,60.1,19
		C318.2,124.2,320.7,124.9,323.2,124.9z"/>
	<path d="M256,145.9c-12.1,0-23.6,3.7-33.4,10.6c-5.5,3.9-6.8,11.6-2.9,17.1c3.9,5.5,11.6,6.8,17.1,2.9c11.2-8,27.2-8,38.5,0
		c2.2,1.5,4.6,2.3,7.1,2.3c3.8,0,7.6-1.8,10-5.2c3.9-5.5,2.6-13.2-2.9-17.1C279.6,149.6,268.1,145.9,256,145.9z"/>
	<path d="M380.7,67.6c3.9-5.5,2.6-13.2-2.9-17.1C342.2,25.3,300.1,11.9,256,11.9c-44.1,0-86.2,13.4-121.8,38.6
		c-5.5,3.9-6.8,11.6-2.9,17.1c2.4,3.4,6.2,5.2,10,5.2c2.5,0,4.9-0.7,7.1-2.3c31.4-22.3,68.6-34.1,107.6-34.1
		c38.9,0,76.1,11.8,107.6,34.1C369.1,74.4,376.7,73.2,380.7,67.6z"/>
	<path d="M19.3,236.6v237.3c0,14.5,12.4,26.2,27.7,26.2h418c15.3,0,27.7-11.8,27.7-26.2V236.6c0-14.5-12.4-26.2-27.7-26.2H47
		C31.7,210.4,19.3,222.1,19.3,236.6z M468.2,236.6v237.3c0,0.5-1.2,1.7-3.2,1.7H47c-2.1,0-3.2-1.2-3.2-1.7V236.6
		c0-0.5,1.1-1.7,3.2-1.7h418C467,234.9,468.2,236.1,468.2,236.6z"/>
	<circle cx="104.9" cy="292.6" r="14.8"/>
	<path d="M165.3,307.4L165.3,307.4c8.2,0,14.8-6.6,14.8-14.8s-6.6-14.8-14.8-14.8l0,0c-8.2,0-14.8,6.6-14.8,14.8
		S157.2,307.4,165.3,307.4z"/>
	<circle cx="225.8" cy="292.6" r="14.8"/>
	<circle cx="286.2" cy="292.6" r="14.8"/>
	<circle cx="346.7" cy="292.6" r="14.8"/>
	<circle cx="407.1" cy="292.6" r="14.8"/>
	<circle cx="135.1" cy="355.2" r="14.8"/>
	<circle cx="195.6" cy="355.2" r="14.8"/>
	<circle cx="256" cy="355.2" r="14.8"/>
	<path d="M316.4,370L316.4,370c8.2,0,14.8-6.6,14.8-14.8c0-8.2-6.6-14.8-14.8-14.8l0,0c-8.2,0-14.8,6.6-14.8,14.8
		C301.6,363.4,308.3,370,316.4,370z"/>
	<circle cx="376.9" cy="355.2" r="14.8"/>
	<path d="M138.3,417.9c0,6.8,5.5,12.3,12.3,12.3h210.8c6.8,0,12.3-5.5,12.3-12.3s-5.5-12.3-12.3-12.3H150.6
		C143.8,405.6,138.3,411.1,138.3,417.9z"/>
</g>
</svg>
