<?xml version="1.0" encoding="utf-8"?>
<!-- Generator: Adobe Illustrator 18.0.0, SVG Export Plug-In . SVG Version: 6.00 Build 0)  -->
<!DOCTYPE svg PUBLIC "-//W3C//DTD SVG 1.1//EN" "http://www.w3.org/Graphics/SVG/1.1/DTD/svg11.dtd">
<svg version="1.1" id="Artwork" xmlns="http://www.w3.org/2000/svg" xmlns:xlink="http://www.w3.org/1999/xlink" x="0px" y="0px"
	 viewBox="0 0 512 512" enable-background="new 0 0 512 512" xml:space="preserve">
<g>
	<path d="M243.2,234.4c3.5,3.5,8.1,5.4,13,5.4c4.9,0,9.5-1.9,13-5.4l54.5-54.5c9.9-9.9,15.3-23,15.4-37c0-14-5.4-27.2-15.3-37.1
		c-9.9-9.9-23-15.3-37-15.3c-11.1,0-21.7,3.4-30.6,9.8c-8.9-6.4-19.5-9.9-30.7-9.9c-14,0-27.1,5.4-37,15.3
		c-9.9,9.9-15.3,23.1-15.3,37.1c0,14,5.5,27.1,15.4,37L243.2,234.4z M205.8,123c5.3-5.3,12.2-8.1,19.7-8.1c7.5,0,14.5,2.9,19.8,8.2
		l2.2,2.2c2.3,2.3,5.4,3.6,8.7,3.6c0,0,0,0,0,0c3.2,0,6.4-1.3,8.7-3.6l2.2-2.2c5.3-5.3,12.3-8.2,19.7-8.2c7.4,0,14.4,2.9,19.7,8.2
		c5.3,5.3,8.2,12.3,8.2,19.7c0,7.4-2.9,14.5-8.2,19.7l-50.2,50.2l-50.3-50.3c-5.3-5.3-8.2-12.3-8.2-19.7
		C197.7,135.3,200.6,128.3,205.8,123z"/>
	<path d="M87.6,410.4c0,6.8,5.5,12.3,12.3,12.3h102.8c3.9,8.5,12.4,14.4,22.3,14.4h62c9.9,0,18.5-5.9,22.3-14.4h102.9
		c6.8,0,12.3-5.5,12.3-12.3s-5.5-12.3-12.3-12.3h-113c-6.8,0-12.3,5.5-12.3,12.3l0,2.2h-62v-2.2c0-6.8-5.5-12.3-12.3-12.3H99.8
		C93.1,398.2,87.6,403.6,87.6,410.4z"/>
	<path d="M486.6,398.2h-22.9V177.1c0-6.8-5.5-12.3-12.3-12.3c-6.8,0-12.3,5.5-12.3,12.3v233.4c0,6.8,5.6,12.3,12.3,12.3h22.8v10.8
		c0,12.4-10,22.4-22.4,22.4H60c-12.4,0-22.4-10-22.4-22.4v-10.8h22.8c6.8,0,12.3-5.5,12.3-12.3V177.1c0-6.8-5.5-12.3-12.3-12.3
		s-12.3,5.5-12.3,12.3v221.1H25.4c-6.8,0-12.3,5.5-12.3,12.3v23c0,25.9,21,46.9,46.9,46.9h392c25.9,0,46.9-21,46.9-46.9v-23
		C498.9,403.6,493.4,398.2,486.6,398.2z"/>
	<path d="M160.8,351.2C160.8,351.2,160.8,351.2,160.8,351.2c4.9,0,9.5-2.1,12.7-5.8l44.2-51.1H376c21,0,38.2-17.1,38.2-38.2V69.9
		c0-21-17.1-38.2-38.2-38.2H136.3c-21,0-38.2,17.1-38.2,38.2v186.2c0,21,17.1,38.2,38.2,38.2h7.5v40.1
		C143.9,343.6,151.4,351.2,160.8,351.2z M136.3,269.7c-7.5,0-13.7-6.1-13.7-13.7V69.9c0-7.5,6.1-13.7,13.7-13.7H376
		c7.5,0,13.7,6.1,13.7,13.7v186.2c0,7.5-6.1,13.7-13.7,13.7H212.1c-3.6,0-6.9,1.5-9.3,4.2l-34.4,39.8V282c0-6.8-5.5-12.3-12.3-12.3
		H136.3z"/>
</g>
</svg>
