<?xml version="1.0" encoding="utf-8"?>
<!-- Generator: Adobe Illustrator 18.0.0, SVG Export Plug-In . SVG Version: 6.00 Build 0)  -->
<!DOCTYPE svg PUBLIC "-//W3C//DTD SVG 1.1//EN" "http://www.w3.org/Graphics/SVG/1.1/DTD/svg11.dtd">
<svg version="1.1" id="Artwork" xmlns="http://www.w3.org/2000/svg" xmlns:xlink="http://www.w3.org/1999/xlink" x="0px" y="0px"
	 viewBox="0 0 512 512" enable-background="new 0 0 512 512" xml:space="preserve">
<g>
	<path d="M98.8,366.6h103.5c3.9,8.5,12.5,14.5,22.4,14.5h62.4c10,0,18.6-6,22.4-14.5h103.6c6.8,0,12.3-5.5,12.3-12.3
		c0-6.8-5.5-12.3-12.3-12.3H299.5c-6.8,0-12.3,5.5-12.3,12.3l-0.1,2.3l-62.5-0.1v-2.2c0-6.8-5.5-12.3-12.3-12.3H98.8
		c-6.8,0-12.3,5.5-12.3,12.3C86.5,361.2,92,366.6,98.8,366.6z"/>
	<path d="M58.7,424.7h394.6c26,0,47.1-21.1,47.1-47.1v-23.2c0-6.8-5.5-12.3-12.3-12.3h-23.2V119.4c0-0.4,0-0.8-0.1-1.2
		c-1.7-17.6-16-30.9-33.1-30.9H79c-17.7,0-32.1,14.4-32.1,32.1v222.7H23.8c-6.8,0-12.3,5.5-12.3,12.3v23.2
		C11.5,403.5,32.7,424.7,58.7,424.7z M36,366.6h23.1c6.8,0,12.3-5.5,12.3-12.3v-235c0-4.2,3.4-7.6,7.6-7.6h352.8
		c4.3,0,8,3.6,8.7,8.3v234.2c0,6.8,5.6,12.3,12.3,12.3H476v10.9c0,12.5-10.2,22.6-22.6,22.6H58.7C46.2,400.2,36,390,36,377.6V366.6z
		"/>
	<path d="M217.1,183.5h155.8c6.8,0,12.3-5.5,12.3-12.3c0-6.8-5.5-12.3-12.3-12.3H217.1c-6.8,0-12.3,5.5-12.3,12.3
		C204.8,178,210.3,183.5,217.1,183.5z"/>
	<path d="M139.2,183.5h25.9c6.8,0,12.3-5.5,12.3-12.3c0-6.8-5.5-12.3-12.3-12.3h-25.9c-6.8,0-12.3,5.5-12.3,12.3
		C126.9,178,132.4,183.5,139.2,183.5z"/>
	<path d="M217.1,241.3h155.8c6.8,0,12.3-5.5,12.3-12.3c0-6.8-5.5-12.3-12.3-12.3H217.1c-6.8,0-12.3,5.5-12.3,12.3
		C204.8,235.8,210.3,241.3,217.1,241.3z"/>
	<path d="M139.2,241.3h25.9c6.8,0,12.3-5.5,12.3-12.3c0-6.8-5.5-12.3-12.3-12.3h-25.9c-6.8,0-12.3,5.5-12.3,12.3
		C126.9,235.8,132.4,241.3,139.2,241.3z"/>
	<path d="M217.1,299.1h155.8c6.8,0,12.3-5.5,12.3-12.3s-5.5-12.3-12.3-12.3H217.1c-6.8,0-12.3,5.5-12.3,12.3
		S210.3,299.1,217.1,299.1z"/>
	<path d="M139.2,299.1h25.9c6.8,0,12.3-5.5,12.3-12.3s-5.5-12.3-12.3-12.3h-25.9c-6.8,0-12.3,5.5-12.3,12.3S132.4,299.1,139.2,299.1
		z"/>
</g>
</svg>
