<?xml version="1.0" encoding="utf-8"?>
<!-- Generator: Adobe Illustrator 18.0.0, SVG Export Plug-In . SVG Version: 6.00 Build 0)  -->
<!DOCTYPE svg PUBLIC "-//W3C//DTD SVG 1.1//EN" "http://www.w3.org/Graphics/SVG/1.1/DTD/svg11.dtd">
<svg version="1.1" id="Artwork" xmlns="http://www.w3.org/2000/svg" xmlns:xlink="http://www.w3.org/1999/xlink" x="0px" y="0px"
	 viewBox="0 0 512 512" enable-background="new 0 0 512 512" xml:space="preserve">
<g>
	<path d="M212.4,342.2H98.7c-6.8,0-12.3,5.5-12.3,12.3s5.5,12.3,12.3,12.3h103.6c3.9,8.6,12.5,14.5,22.4,14.5h62.4
		c10,0,18.6-6,22.4-14.5h103.7c6.8,0,12.3-5.5,12.3-12.3s-5.5-12.3-12.3-12.3H299.5c-6.8,0-12.3,5.5-12.3,12.3l-0.1,2.3l-62.5-0.1
		v-2.2C224.6,347.7,219.2,342.2,212.4,342.2z"/>
	<path d="M158.8,87.2H78.9c-17.7,0-32.1,14.4-32.1,32.1v222.9H23.6c-6.8,0-12.2,5.5-12.2,12.3v23.2c0,26,21.2,47.2,47.2,47.2h394.9
		c26,0,47.2-21.2,47.2-47.2v-23.2c0-6.8-5.5-12.3-12.3-12.3h-23.2V119.4c0-0.4,0-0.8-0.1-1.2c-1.7-17.6-16-31-33.2-31h-76.1
		c-6.8,0-12.3,5.5-12.3,12.3s5.5,12.3,12.3,12.3H432c4.3,0,8,3.6,8.7,8.4v234.4c0,6.8,5.6,12.3,12.3,12.3h23.1v10.9
		c0,12.5-10.2,22.7-22.7,22.7H58.5c-12.5,0-22.7-10.2-22.7-22.7v-10.9H59c6.8,0,12.3-5.5,12.3-12.3V119.4c0-4.2,3.4-7.6,7.6-7.6
		h79.9c6.8,0,12.3-5.5,12.3-12.3S165.6,87.2,158.8,87.2z"/>
	<path d="M165.6,254.1c-20.3,5.2-31.3,24.7-29.4,52.4c0.5,6.5,5.8,11.4,12.2,11.4c0.3,0,0.6,0,0.9,0c6.7-0.5,11.8-6.3,11.4-13.1
		c-0.6-8.8,0-24.1,10.9-26.9c45-11.3,63-26.2,70.1-37.6c3.9,0.8,7.9,1.2,12.1,1.3c0.3,0,0.5,0,0.8,0h0.7c0.3,0,0.5,0,0.8,0
		c5.1-0.1,9.9-0.7,14.4-1.8c7.3,11.6,25.3,27,69.8,38.1c11,2.8,11.6,18,11,26.9c-0.5,6.8,4.6,12.6,11.4,13.1c0.3,0,0.6,0,0.9,0
		c6.4,0,11.8-4.9,12.2-11.4c1.9-27.6-9-47.2-29.4-52.4c-33.7-8.5-48.3-18.9-53.6-25.4c2.1-1.8,4.1-3.6,6-5.7
		c22.5-25.4,19.2-68,18.7-73c-2.3-46.3-34.4-62.8-61.2-62.8c-0.5,0-0.9,0-1.2,0c-0.3,0-0.7,0-1.2,0c-26.8,0-58.9,16.4-61.2,62.8
		c-0.5,5-3.9,47.6,18.7,73c2.3,2.6,4.8,4.9,7.5,6.9C213.2,236.1,198.4,245.9,165.6,254.1z M217,152.2c0-0.3,0-0.5,0.1-0.8
		c1.6-35.9,26.2-39.7,36.7-39.7l0.7,0c0.3,0,0.6,0,1,0l0.7,0c10.5,0,35.1,3.9,36.7,39.7c0,0.3,0,0.5,0.1,0.8
		c1.1,10,0.9,39.3-12.6,54.5c-6.1,6.8-14.3,10.2-25.2,10.3c-0.1,0-0.3,0-0.4,0c-10.8-0.1-19.1-3.5-25.1-10.3
		C216.2,191.6,216,162.2,217,152.2z"/>
</g>
</svg>
