<?xml version="1.0" encoding="utf-8"?>
<!-- Generator: Adobe Illustrator 18.0.0, SVG Export Plug-In . SVG Version: 6.00 Build 0)  -->
<!DOCTYPE svg PUBLIC "-//W3C//DTD SVG 1.1//EN" "http://www.w3.org/Graphics/SVG/1.1/DTD/svg11.dtd">
<svg version="1.1" id="Artwork" xmlns="http://www.w3.org/2000/svg" xmlns:xlink="http://www.w3.org/1999/xlink" x="0px" y="0px"
	 viewBox="0 0 512 512" enable-background="new 0 0 512 512" xml:space="preserve">
<g>
	<path d="M86.3,423.6c0,6.8,5.5,12.3,12.3,12.3h103.7c3.9,8.6,12.5,14.5,22.5,14.5h62.5c10,0,18.6-6,22.4-14.5h103.8
		c6.8,0,12.3-5.5,12.3-12.3c0-6.8-5.5-12.3-12.3-12.3H299.6c-6.8,0-12.3,5.5-12.3,12.3l-0.1,2.3l-62.6-0.1v-2.2
		c0-6.8-5.5-12.3-12.3-12.3H98.6C91.8,411.3,86.3,416.8,86.3,423.6z"/>
	<path d="M78.8,156.2c-17.7,0-32.2,14.4-32.2,32.2v223H23.5c-6.8,0-12.3,5.5-12.3,12.3v23.2c0,26,21.2,47.2,47.2,47.2h395.2
		c26,0,47.2-21.2,47.2-47.2v-23.2c0-6.8-5.5-12.3-12.3-12.3h-23.2v-223c0-0.4,0-0.8-0.1-1.2c-1.7-17.7-16-31-33.2-31
		c-6.8,0-12.3,5.5-12.3,12.3c0,6.8,5.5,12.3,12.3,12.3c4.3,0,8.1,3.6,8.7,8.4v234.5c0,6.8,5.6,12.3,12.3,12.3h23.1v10.9
		c0,12.5-10.2,22.7-22.7,22.7H58.4c-12.5,0-22.7-10.2-22.7-22.7v-10.9h23.1c6.8,0,12.2-5.5,12.2-12.3V188.3c0-4.2,3.4-7.7,7.7-7.7
		c6.8,0,12.3-5.5,12.3-12.3C91,161.7,85.5,156.2,78.8,156.2z"/>
	<path d="M127,134.6c-11.8,0-21.4,9.6-21.4,21.4v24.8c0,11.8,9.6,21.4,21.4,21.4h11c2.6,9,6.1,17.6,10.7,25.8l-7.8,7.8
		c-8.3,8.3-8.3,21.9,0,30.2l17.6,17.6c4,4,9.4,6.2,15.1,6.2s11.1-2.2,15.1-6.3l7.8-7.8c8.2,4.6,16.8,8.1,25.8,10.7v11
		c0,11.8,9.6,21.4,21.4,21.4h24.8c11.8,0,21.4-9.6,21.4-21.4v-11c9-2.6,17.6-6.1,25.8-10.7l7.8,7.8c4,4,9.4,6.2,15.1,6.2
		s11.1-2.2,15.1-6.3l17.6-17.6c8.3-8.3,8.3-21.9,0-30.2l-7.8-7.8c4.6-8.2,8.1-16.8,10.7-25.8h11c11.8,0,21.4-9.6,21.4-21.4V156
		c0-11.8-9.6-21.4-21.4-21.4h-11c-2.6-9-6.1-17.6-10.7-25.8l7.8-7.8c8.3-8.3,8.3-21.9,0-30.2l-17.6-17.6c-4-4-9.4-6.3-15.1-6.3
		c-5.7,0-11.1,2.2-15.1,6.3l-7.8,7.8c-8.2-4.6-16.8-8.1-25.8-10.7v-11c0-11.8-9.6-21.4-21.4-21.4h-24.8c-11.8,0-21.4,9.6-21.4,21.4
		v11c-9,2.6-17.6,6.1-25.8,10.7l-7.8-7.8c-4-4-9.4-6.2-15.1-6.2c-5.7,0-11.1,2.2-15.1,6.3l-17.5,17.6c-4,4-6.3,9.4-6.3,15.1
		c0,5.7,2.2,11.1,6.3,15.1l7.8,7.8c-4.6,8.2-8.1,16.8-10.7,25.8H127z M159.6,149.3c2.5-12.7,7.5-24.6,14.7-35.4
		c3.3-4.9,2.6-11.3-1.5-15.5L160.4,86l13.1-13.1l12.4,12.4c4.1,4.1,10.6,4.8,15.5,1.5c10.8-7.2,22.7-12.2,35.4-14.7
		c5.7-1.1,9.9-6.2,9.9-12V42.5h18.6V60c0,5.8,4.1,10.9,9.9,12c12.7,2.5,24.7,7.5,35.4,14.7c4.9,3.3,11.3,2.6,15.5-1.5l12.4-12.4
		L351.6,86l-12.4,12.4c-4.1,4.1-4.8,10.6-1.5,15.5c7.2,10.8,12.2,22.7,14.7,35.4c1.1,5.7,6.2,9.9,12,9.9h17.5v18.6h-17.5
		c-5.8,0-10.9,4.1-12,9.9c-2.5,12.7-7.5,24.6-14.7,35.4c-3.3,4.9-2.6,11.3,1.5,15.5l12.4,12.4L338.5,264l-12.4-12.4
		c-4.1-4.1-10.6-4.8-15.5-1.5c-10.8,7.2-22.7,12.2-35.4,14.7c-5.7,1.1-9.9,6.2-9.9,12v17.5h-18.6v-17.5c0-5.9-4.1-10.9-9.9-12
		c-12.7-2.5-24.6-7.5-35.4-14.7c-4.9-3.3-11.3-2.6-15.5,1.5L173.5,264l-13.1-13.1l12.4-12.4c4.1-4.1,4.8-10.6,1.5-15.5
		c-7.2-10.8-12.2-22.7-14.7-35.4c-1.1-5.7-6.2-9.9-12-9.9h-17.5v-18.6h17.5C153.5,159.1,158.5,155,159.6,149.3z"/>
	<path d="M256,233.6c35.9,0,65.2-29.2,65.2-65.2s-29.2-65.2-65.2-65.2s-65.2,29.2-65.2,65.2S220.1,233.6,256,233.6z M256,127.7
		c22.4,0,40.7,18.3,40.7,40.7c0,22.4-18.2,40.7-40.7,40.7s-40.7-18.3-40.7-40.7C215.3,146,233.6,127.7,256,127.7z"/>
</g>
</svg>
