<?xml version="1.0" encoding="utf-8"?>
<!-- Generator: Adobe Illustrator 18.0.0, SVG Export Plug-In . SVG Version: 6.00 Build 0)  -->
<!DOCTYPE svg PUBLIC "-//W3C//DTD SVG 1.1//EN" "http://www.w3.org/Graphics/SVG/1.1/DTD/svg11.dtd">
<svg version="1.1" id="Artwork" xmlns="http://www.w3.org/2000/svg" xmlns:xlink="http://www.w3.org/1999/xlink" x="0px" y="0px"
	 viewBox="0 0 512 512" enable-background="new 0 0 512 512" xml:space="preserve">
<g>
	<path d="M212.3,365.5H98.4c-6.8,0-12.3,5.5-12.3,12.3S91.6,390,98.4,390h103.8c3.9,8.6,12.5,14.5,22.5,14.5h62.6
		c10,0,18.6-6,22.5-14.5h103.9c6.8,0,12.3-5.5,12.3-12.3s-5.5-12.3-12.3-12.3h-114c-6.8,0-12.3,5.5-12.3,12.3l-0.1,2.3l-62.7-0.1
		v-2.2C224.6,371,219.1,365.5,212.3,365.5z"/>
	<path d="M78.6,110c-17.7,0-32.2,14.4-32.2,32.2v223.3H23.2c-6.8,0-12.3,5.5-12.3,12.3V401c0,26,21.2,47.2,47.2,47.2h395.6
		c26,0,47.2-21.2,47.2-47.2v-23.2c0-6.8-5.5-12.3-12.3-12.3h-23.2V142.2c0-0.4,0-0.8-0.1-1.2c-1.7-17.7-16-31-33.2-31
		c-6.8,0-12.3,5.5-12.3,12.3s5.5,12.2,12.3,12.2c4.3,0,8.1,3.6,8.8,8.4v234.8c0,6.8,5.6,12.3,12.3,12.3h23.2v11
		c0,12.5-10.2,22.7-22.7,22.7H58.2c-12.5,0-22.7-10.2-22.7-22.7v-11h23.2c6.8,0,12.3-5.5,12.3-12.3V142.2c0-4.2,3.4-7.7,7.7-7.7
		c6.8,0,12.3-5.5,12.3-12.2S85.3,110,78.6,110z"/>
	<path d="M308.8,137.7H203.2c-16.6,0-30.2,12.8-31.5,29.1h-12.3c-4.4,0-7.9-3.6-7.9-7.9v-29.1c0-6.8-5.5-12.3-12.3-12.3
		c-6.8,0-12.3,5.5-12.3,12.3v29.1c0,17.9,14.5,32.4,32.4,32.4h12.2v11h-67.2c-6.8,0-12.3,5.5-12.3,12.3s5.5,12.3,12.3,12.3h67.2
		v10.8h-12.2c-17.9,0-32.4,14.5-32.4,32.4v29.1c0,6.8,5.5,12.3,12.3,12.3c6.8,0,12.3-5.5,12.3-12.3V270c0-4.4,3.5-7.9,7.9-7.9h14.3
		c7.4,30.2,34.6,52.8,67.1,52.8h30.5c32.5,0,59.8-22.5,67.1-52.8h14.3c4.4,0,7.9,3.5,7.9,7.9v29.1c0,6.8,5.5,12.3,12.3,12.3
		c6.8,0,12.3-5.5,12.3-12.3V270c0-17.9-14.5-32.4-32.4-32.4h-12.2v-10.8h67.2c6.8,0,12.3-5.5,12.3-12.3s-5.5-12.3-12.3-12.3h-67.2
		v-11h12.2c17.9,0,32.4-14.5,32.4-32.4v-29.1c0-6.8-5.5-12.3-12.3-12.3c-6.8,0-12.3,5.5-12.3,12.3v29.1c0,4.4-3.5,7.9-7.9,7.9h-12.3
		C339,150.6,325.4,137.7,308.8,137.7z M196.1,245.8v-76.4c0-3.9,3.2-7.2,7.2-7.2h40.5v128.2h-3C216.1,290.4,196.1,270.4,196.1,245.8
		z M271.2,290.4h-3V162.2h40.5c3.9,0,7.2,3.2,7.2,7.2v76.4C315.9,270.4,295.9,290.4,271.2,290.4z"/>
	<path d="M200.9,118.9c0,6.8,5.5,12.3,12.3,12.3c6.8,0,12.3-5.5,12.3-12.3c0-16.9,13.7-30.6,30.6-30.6s30.6,13.7,30.6,30.6
		c0,6.8,5.5,12.3,12.3,12.3c6.8,0,12.3-5.5,12.3-12.3c0-30.4-24.7-55.1-55.1-55.1C225.6,63.8,200.9,88.5,200.9,118.9z"/>
</g>
</svg>
