<?xml version="1.0" encoding="utf-8"?>
<!-- Generator: Adobe Illustrator 18.0.0, SVG Export Plug-In . SVG Version: 6.00 Build 0)  -->
<!DOCTYPE svg PUBLIC "-//W3C//DTD SVG 1.1//EN" "http://www.w3.org/Graphics/SVG/1.1/DTD/svg11.dtd">
<svg version="1.1" id="Artwork" xmlns="http://www.w3.org/2000/svg" xmlns:xlink="http://www.w3.org/1999/xlink" x="0px" y="0px"
	 viewBox="0 0 512 512" enable-background="new 0 0 512 512" xml:space="preserve">
<g>
	<path d="M242.2,318.7c3.7,3.7,8.6,5.7,13.9,5.7c5.2,0,10.2-2,13.9-5.7l65.8-65.8c11.4-11.5,17.8-26.7,17.8-42.9
		c0-16.2-6.3-31.4-17.7-42.9c-11.5-11.5-26.7-17.8-42.8-17.8c-13.5,0-26.3,4.4-36.9,12.5c-10.6-8.1-23.4-12.6-37-12.6
		c-16.2,0-31.4,6.3-42.8,17.7c-11.5,11.5-17.8,26.7-17.7,42.9c0,16.2,6.3,31.4,17.8,42.8L242.2,318.7z M193.6,184.5
		c6.8-6.8,15.9-10.6,25.5-10.6c9.7,0,18.7,3.8,25.6,10.6l2.7,2.7c2.3,2.3,5.4,3.6,8.7,3.6h0c3.2,0,6.4-1.3,8.7-3.6l2.6-2.6
		c6.8-6.8,15.9-10.6,25.6-10.6c9.6,0,18.7,3.8,25.5,10.6c6.8,6.8,10.6,15.9,10.6,25.5c0,9.7-3.8,18.7-10.6,25.6L256.1,298
		l-62.4-62.4c-6.8-6.8-10.6-15.9-10.6-25.5C183,200.4,186.8,191.3,193.6,184.5z"/>
	<path d="M413.2,342.1H299.5c-6.8,0-12.3,5.5-12.3,12.3l-0.1,2.3l-62.5-0.1v-2.2c0-6.8-5.5-12.3-12.3-12.3H98.8
		c-6.8,0-12.3,5.5-12.3,12.3c0,6.8,5.5,12.3,12.3,12.3h103.5c3.9,8.5,12.5,14.5,22.4,14.5h62.4c10,0,18.6-6,22.4-14.5h103.6
		c6.8,0,12.3-5.5,12.3-12.3C425.5,347.6,420,342.1,413.2,342.1z"/>
	<path d="M488.2,342.1h-23.2V119.4c0-0.4,0-0.8-0.1-1.2c-1.7-17.6-16-30.9-33.1-30.9H79c-17.7,0-32.1,14.4-32.1,32.1v222.7H23.8
		c-6.8,0-12.3,5.5-12.3,12.3v23.2c0,26,21.1,47.1,47.1,47.1h394.6c26,0,47.1-21.1,47.1-47.1v-23.2
		C500.5,347.6,495,342.1,488.2,342.1z M476,377.6c0,12.5-10.2,22.6-22.6,22.6H58.7C46.2,400.2,36,390,36,377.6v-10.9h23.1
		c6.8,0,12.3-5.5,12.3-12.3V119.4c0-4.2,3.4-7.6,7.6-7.6h352.8c4.3,0,8,3.6,8.7,8.3v234.2c0,6.8,5.6,12.3,12.3,12.3H476V377.6z"/>
</g>
</svg>
