<?xml version="1.0" encoding="utf-8"?>
<!-- Generator: Adobe Illustrator 18.0.0, SVG Export Plug-In . SVG Version: 6.00 Build 0)  -->
<!DOCTYPE svg PUBLIC "-//W3C//DTD SVG 1.1//EN" "http://www.w3.org/Graphics/SVG/1.1/DTD/svg11.dtd">
<svg version="1.1" id="Artwork" xmlns="http://www.w3.org/2000/svg" xmlns:xlink="http://www.w3.org/1999/xlink" x="0px" y="0px"
	 viewBox="0 0 512 512" enable-background="new 0 0 512 512" xml:space="preserve">
<g>
	<path d="M98.5,397c-6.8,0-12.3,5.5-12.3,12.3s5.5,12.3,12.3,12.3h103.8c3.9,8.6,12.5,14.5,22.5,14.5h62.5c10,0,18.6-6,22.5-14.5
		h103.9c6.8,0,12.3-5.5,12.3-12.3s-5.5-12.3-12.3-12.3h-114c-6.8,0-12.3,5.5-12.3,12.3l-0.1,2.3l-62.6-0.1v-2.2
		c0-6.8-5.5-12.3-12.3-12.3H98.5z"/>
	<path d="M500.9,432.4v-23.2c0-6.8-5.5-12.3-12.3-12.3h-23.2V285.8c0-6.8-5.5-12.3-12.3-12.3S441,279,441,285.8v123.4
		c0,6.8,5.6,12.3,12.3,12.3h23.2v11c0,12.5-10.2,22.7-22.7,22.7H58.3c-12.5,0-22.7-10.2-22.7-22.7v-11h23.2
		c6.8,0,12.3-5.5,12.3-12.3V173.8c0-4.2,3.4-7.7,7.7-7.7h101.3c6.8,0,12.3-5.5,12.3-12.3c0-6.8-5.5-12.3-12.3-12.3H78.7
		c-17.7,0-32.2,14.4-32.2,32.2V397H23.3c-6.8,0-12.3,5.5-12.3,12.3v23.2c0,26,21.2,47.2,47.2,47.2h395.4
		C479.8,479.6,500.9,458.5,500.9,432.4z"/>
	<path d="M436.3,225.9h-93.7l4.1-4.1c4.8-4.8,4.8-12.5,0-17.3c-4.8-4.8-12.5-4.8-17.3,0l-25,25c-4.8,4.8-4.8,12.5,0,17.3l25,25
		c2.4,2.4,5.5,3.6,8.7,3.6s6.3-1.2,8.7-3.6c4.8-4.8,4.8-12.5,0-17.3l-4.1-4.1h93.7c16.8,0,30.5-13.7,30.5-30.5V87.8
		c0-16.8-13.7-30.5-30.5-30.5h-16c-6.8,0-12.3,5.5-12.3,12.3s5.5,12.3,12.3,12.3h16c3.3,0,6,2.7,6,6v132.1
		C442.2,223.2,439.6,225.9,436.3,225.9z"/>
	<path d="M219.4,87.8v132.1c0,16.8,13.7,30.5,30.5,30.5h16c6.8,0,12.3-5.5,12.3-12.3c0-6.8-5.5-12.3-12.3-12.3h-16c-3.3,0-6-2.7-6-6
		V87.8c0-3.3,2.7-6,6-6h93.7l-4.1,4.1c-4.8,4.8-4.8,12.5,0,17.3c2.4,2.4,5.5,3.6,8.7,3.6s6.3-1.2,8.7-3.6l25-25
		c4.8-4.8,4.8-12.5,0-17.3l-25-25c-4.8-4.8-12.5-4.8-17.3,0c-4.8,4.8-4.8,12.5,0,17.3l4.1,4.1h-93.7C233,57.4,219.4,71,219.4,87.8z"
		/>
</g>
</svg>
