<?xml version="1.0" encoding="utf-8"?>
<!-- Generator: Adobe Illustrator 18.0.0, SVG Export Plug-In . SVG Version: 6.00 Build 0)  -->
<!DOCTYPE svg PUBLIC "-//W3C//DTD SVG 1.1//EN" "http://www.w3.org/Graphics/SVG/1.1/DTD/svg11.dtd">
<svg version="1.1" id="Artwork" xmlns="http://www.w3.org/2000/svg" xmlns:xlink="http://www.w3.org/1999/xlink" x="0px" y="0px"
	 viewBox="0 0 512 512" enable-background="new 0 0 512 512" xml:space="preserve">
<g>
	<path d="M469.6,14.2H297.2c-16.6,0-30.1,13.5-30.1,30.1v123.8c0,16.6,13.5,30.1,30.1,30.1h73.9v20.2h-22.4
		c-6.8,0-12.3,5.5-12.3,12.3s5.5,12.3,12.3,12.3h69.4c6.8,0,12.3-5.5,12.3-12.3s-5.5-12.3-12.3-12.3h-22.4v-20.2h73.9
		c16.6,0,30.1-13.5,30.1-30.1V44.4C499.7,27.8,486.2,14.2,469.6,14.2z M475.2,168.2c0,3.1-2.5,5.6-5.6,5.6H297.2
		c-3.1,0-5.6-2.5-5.6-5.6V44.4c0-3.1,2.5-5.6,5.6-5.6h172.4c3.1,0,5.6,2.5,5.6,5.6V168.2z"/>
	<path d="M12.3,299.1V423c0,16.6,13.5,30.1,30.1,30.1h73.9v20.2H93.9c-6.8,0-12.3,5.5-12.3,12.3c0,6.8,5.5,12.3,12.3,12.3h69.4
		c6.8,0,12.3-5.5,12.3-12.3c0-6.8-5.5-12.3-12.3-12.3h-22.4v-20.2h73.9c16.6,0,30.1-13.5,30.1-30.1V299.1
		c0-16.6-13.5-30.1-30.1-30.1H42.4C25.8,269,12.3,282.5,12.3,299.1z M220.4,299.1V423c0,3.1-2.5,5.6-5.6,5.6H42.4
		c-3.1,0-5.6-2.5-5.6-5.6V299.1c0-3.1,2.5-5.6,5.6-5.6h172.4C217.9,293.5,220.4,296,220.4,299.1z"/>
	<path d="M223,118.5c6.8,0,12.3-5.5,12.3-12.3c0-6.8-5.5-12.3-12.3-12.3h-94.4c-6.8,0-12.2,5.5-12.2,12.3v96.9l-10.1-10.1
		c-4.8-4.8-12.5-4.8-17.3,0c-4.8,4.8-4.8,12.5,0,17.3l31,31c2.4,2.4,5.5,3.6,8.7,3.6c3.1,0,6.3-1.2,8.7-3.6l31-31
		c4.8-4.8,4.8-12.5,0-17.3c-4.8-4.8-12.5-4.8-17.3,0l-10.1,10.1v-84.7H223z"/>
	<path d="M289,398.6c-6.8,0-12.3,5.5-12.3,12.3c0,6.8,5.5,12.3,12.3,12.3h94.4c6.8,0,12.3-5.5,12.3-12.3v-96.9l10.1,10.1
		c2.4,2.4,5.5,3.6,8.7,3.6s6.3-1.2,8.7-3.6c4.8-4.8,4.8-12.5,0-17.3l-31-31c-4.8-4.8-12.5-4.8-17.3,0l-31,31
		c-4.8,4.8-4.8,12.5,0,17.3c4.8,4.8,12.5,4.8,17.3,0l10.1-10.1v84.7H289z"/>
</g>
</svg>
