<?xml version="1.0" encoding="utf-8"?>
<!-- Generator: Adobe Illustrator 18.0.0, SVG Export Plug-In . SVG Version: 6.00 Build 0)  -->
<!DOCTYPE svg PUBLIC "-//W3C//DTD SVG 1.1//EN" "http://www.w3.org/Graphics/SVG/1.1/DTD/svg11.dtd">
<svg version="1.1" id="Artwork" xmlns="http://www.w3.org/2000/svg" xmlns:xlink="http://www.w3.org/1999/xlink" x="0px" y="0px"
	 viewBox="0 0 512 512" enable-background="new 0 0 512 512" xml:space="preserve">
<g>
	<path d="M98.8,366.6h103.5c3.9,8.5,12.5,14.5,22.4,14.5h62.4c10,0,18.6-6,22.4-14.5h103.6c6.8,0,12.3-5.5,12.3-12.3
		c0-6.8-5.5-12.3-12.3-12.3H299.5c-6.8,0-12.3,5.5-12.3,12.3l-0.1,2.3l-62.5-0.1v-2.2c0-6.8-5.5-12.3-12.3-12.3H98.8
		c-6.8,0-12.3,5.5-12.3,12.3C86.5,361.2,92,366.6,98.8,366.6z"/>
	<path d="M58.7,424.7h394.6c26,0,47.1-21.1,47.1-47.1v-23.2c0-6.8-5.5-12.3-12.3-12.3h-23.2V119.4c0-0.4,0-0.8-0.1-1.2
		c-1.7-17.6-16-30.9-33.1-30.9H79c-17.7,0-32.1,14.4-32.1,32.1v222.7H23.8c-6.8,0-12.3,5.5-12.3,12.3v23.2
		C11.5,403.5,32.7,424.7,58.7,424.7z M36,366.6h23.1c6.8,0,12.3-5.5,12.3-12.3v-235c0-4.2,3.4-7.6,7.6-7.6h352.8
		c4.3,0,8,3.6,8.7,8.3v234.2c0,6.8,5.6,12.3,12.3,12.3H476v10.9c0,12.5-10.2,22.6-22.6,22.6H58.7C46.2,400.2,36,390,36,377.6V366.6z
		"/>
	<path d="M198.9,262.7c-3.4-5.9-10.9-7.8-16.7-4.5c-5.9,3.4-7.9,10.9-4.5,16.7c15.1,26.1,44.9,42.3,77.8,42.3
		c33.2,0,63.1-16.4,78.1-42.9c3.3-5.9,1.3-13.4-4.6-16.7c-5.9-3.3-13.4-1.3-16.7,4.6c-10.5,18.5-32.8,30.5-56.8,30.5
		C231.3,292.8,209.7,281.3,198.9,262.7z"/>
	<path d="M163.5,171.2l34.3,15.3l-34.5,20.8c-5.8,3.5-7.7,11-4.2,16.8c2.3,3.8,6.3,5.9,10.5,5.9c2.2,0,4.3-0.6,6.3-1.8l54.6-33
		c3.9-2.4,6.2-6.7,5.9-11.2c-0.3-4.6-3.1-8.6-7.2-10.4l-55.7-24.9c-6.2-2.8-13.4,0-16.2,6.2C154.6,161.2,157.3,168.4,163.5,171.2z"
		/>
	<path d="M280.4,195.4l54.6,33c2,1.2,4.2,1.8,6.3,1.8c4.2,0,8.2-2.1,10.5-5.9c3.5-5.8,1.6-13.3-4.2-16.8l-34.5-20.8l34.3-15.3
		c6.2-2.8,8.9-10,6.2-16.2c-2.8-6.2-10-8.9-16.2-6.2l-55.7,24.9c-4.2,1.9-7,5.9-7.2,10.4C274.2,188.7,276.5,193,280.4,195.4z"/>
</g>
</svg>
