<?xml version="1.0" encoding="utf-8"?>
<!-- Generator: Adobe Illustrator 18.0.0, SVG Export Plug-In . SVG Version: 6.00 Build 0)  -->
<!DOCTYPE svg PUBLIC "-//W3C//DTD SVG 1.1//EN" "http://www.w3.org/Graphics/SVG/1.1/DTD/svg11.dtd">
<svg version="1.1" id="Artwork" xmlns="http://www.w3.org/2000/svg" xmlns:xlink="http://www.w3.org/1999/xlink" x="0px" y="0px"
	 viewBox="0 0 512 512" enable-background="new 0 0 512 512" xml:space="preserve">
<g>
	<path d="M214.8,14.2H42.4c-16.6,0-30.1,13.5-30.1,30.1v123.8c0,16.6,13.5,30.1,30.1,30.1h73.9v20.2H93.9c-6.8,0-12.3,5.5-12.3,12.3
		S87.2,243,93.9,243h69.4c6.8,0,12.3-5.5,12.3-12.3s-5.5-12.3-12.3-12.3h-22.4v-20.2h73.9c16.6,0,30.1-13.5,30.1-30.1V44.4
		C244.9,27.8,231.4,14.2,214.8,14.2z M220.4,168.2c0,3.1-2.5,5.6-5.6,5.6H42.4c-3.1,0-5.6-2.5-5.6-5.6V44.4c0-3.1,2.5-5.6,5.6-5.6
		h172.4c3.1,0,5.6,2.5,5.6,5.6V168.2z"/>
	<path d="M469.6,269H297.2c-16.6,0-30.1,13.5-30.1,30.1V423c0,16.6,13.5,30.1,30.1,30.1h73.9v20.2h-22.4c-6.8,0-12.3,5.5-12.3,12.3
		c0,6.8,5.5,12.3,12.3,12.3h69.4c6.8,0,12.3-5.5,12.3-12.3c0-6.8-5.5-12.3-12.3-12.3h-22.4v-20.2h73.9c16.6,0,30.1-13.5,30.1-30.1
		V299.1C499.7,282.5,486.2,269,469.6,269z M475.2,423c0,3.1-2.5,5.6-5.6,5.6H297.2c-3.1,0-5.6-2.5-5.6-5.6V299.1
		c0-3.1,2.5-5.6,5.6-5.6h172.4c3.1,0,5.6,2.5,5.6,5.6V423z"/>
	<path d="M383.4,94H289c-6.8,0-12.3,5.5-12.3,12.3c0,6.8,5.5,12.3,12.3,12.3h82.1v84.7L361,193.1c-4.8-4.8-12.5-4.8-17.3,0
		c-4.8,4.8-4.8,12.5,0,17.3l31,31c2.4,2.4,5.5,3.6,8.7,3.6s6.3-1.2,8.7-3.6l31-31c4.8-4.8,4.8-12.5,0-17.3c-4.8-4.8-12.5-4.8-17.3,0
		l-10.1,10.1v-96.9C395.6,99.5,390.2,94,383.4,94z"/>
	<path d="M151,324.1c2.4,2.4,5.5,3.6,8.7,3.6s6.3-1.2,8.7-3.6c4.8-4.8,4.8-12.5,0-17.3l-31-31c-4.8-4.8-12.5-4.8-17.3,0l-31,31
		c-4.8,4.8-4.8,12.5,0,17.3c4.8,4.8,12.5,4.8,17.3,0l10.1-10.1v96.9c0,6.8,5.5,12.3,12.3,12.3H223c6.8,0,12.3-5.5,12.3-12.3
		c0-6.8-5.5-12.3-12.3-12.3h-82.1v-84.7L151,324.1z"/>
</g>
</svg>
