<?xml version="1.0" encoding="utf-8"?>
<!-- Generator: Adobe Illustrator 18.0.0, SVG Export Plug-In . SVG Version: 6.00 Build 0)  -->
<!DOCTYPE svg PUBLIC "-//W3C//DTD SVG 1.1//EN" "http://www.w3.org/Graphics/SVG/1.1/DTD/svg11.dtd">
<svg version="1.1" id="Artwork" xmlns="http://www.w3.org/2000/svg" xmlns:xlink="http://www.w3.org/1999/xlink" x="0px" y="0px"
	 viewBox="0 0 512 512" enable-background="new 0 0 512 512" xml:space="preserve">
<g>
	<path d="M413.5,376.9H299.6c-6.8,0-12.3,5.5-12.3,12.3l-0.1,2.3l-62.6-0.1v-2.2c0-6.8-5.5-12.3-12.3-12.3H98.5
		c-6.8,0-12.3,5.5-12.3,12.3s5.5,12.3,12.3,12.3h103.7c3.9,8.6,12.5,14.5,22.5,14.5h62.5c10,0,18.6-6,22.4-14.5h103.8
		c6.8,0,12.3-5.5,12.3-12.3S420.2,376.9,413.5,376.9z"/>
	<path d="M453.7,435.1H58.3c-12.5,0-22.7-10.2-22.7-22.7v-11h23.1c6.8,0,12.3-5.5,12.3-12.3V153.9c0-6.8-5.5-12.3-12.3-12.3
		s-12.3,5.5-12.3,12.3v223.1H23.4c-6.8,0-12.3,5.5-12.3,12.3v23.2c0,26,21.2,47.2,47.2,47.2h395.3c26,0,47.2-21.2,47.2-47.2v-23.2
		c0-6.8-5.5-12.3-12.3-12.3h-23.2V153.9c0-6.8-5.5-12.3-12.3-12.3s-12.3,5.5-12.3,12.3v235.3c0,6.8,5.6,12.3,12.3,12.3h23.1v11
		C476.3,424.9,466.2,435.1,453.7,435.1z"/>
	<path d="M377.1,52.4H135.5c-21.2,0-38.4,17.2-38.4,38.4v142.7c0,21.2,17.2,38.4,38.4,38.4h7.7v40.5c0,9.3,7.6,16.9,16.9,16.9
		c4.9,0,9.5-2.1,12.8-5.9l44.6-51.6h159.7c21.2,0,38.4-17.2,38.4-38.4V90.8C415.5,69.6,398.3,52.4,377.1,52.4z M391,233.5
		c0,7.7-6.2,13.9-13.9,13.9H211.8c-3.6,0-6.9,1.5-9.3,4.2l-34.9,40.4v-32.4c0-6.8-5.5-12.3-12.3-12.3h-19.9
		c-7.7,0-13.9-6.2-13.9-13.9V90.8c0-7.7,6.2-13.9,13.9-13.9h241.7c7.7,0,13.9,6.2,13.9,13.9V233.5z"/>
	<path d="M352.8,100h-193c-6.8,0-12.3,5.5-12.3,12.3s5.5,12.3,12.3,12.3h193c6.8,0,12.3-5.5,12.3-12.3S359.6,100,352.8,100z"/>
	<path d="M159.8,174.4H302c6.8,0,12.3-5.5,12.3-12.3c0-6.8-5.5-12.3-12.3-12.3H159.8c-6.8,0-12.3,5.5-12.3,12.3
		C147.5,168.9,153,174.4,159.8,174.4z"/>
	<path d="M352.8,199.9h-193c-6.8,0-12.3,5.5-12.3,12.3c0,6.8,5.5,12.3,12.3,12.3h193c6.8,0,12.3-5.5,12.3-12.3
		C365.1,205.4,359.6,199.9,352.8,199.9z"/>
</g>
</svg>
