<?xml version="1.0" encoding="utf-8"?>
<!-- Generator: Adobe Illustrator 18.0.0, SVG Export Plug-In . SVG Version: 6.00 Build 0)  -->
<!DOCTYPE svg PUBLIC "-//W3C//DTD SVG 1.1//EN" "http://www.w3.org/Graphics/SVG/1.1/DTD/svg11.dtd">
<svg version="1.1" id="Artwork" xmlns="http://www.w3.org/2000/svg" xmlns:xlink="http://www.w3.org/1999/xlink" x="0px" y="0px"
	 viewBox="0 0 512 512" enable-background="new 0 0 512 512" xml:space="preserve">
<g>
	<path d="M210.3,371.8H97.4c-6.8,0-12.3,5.5-12.3,12.3s5.5,12.3,12.3,12.3h102.8c3.9,8.5,12.4,14.4,22.3,14.4h62
		c9.9,0,18.5-5.9,22.3-14.4h102.9c6.8,0,12.3-5.5,12.3-12.3s-5.5-12.3-12.3-12.3h-113c-6.8,0-12.3,5.5-12.3,12.3l0,2.2l-62,0v-2.2
		C222.5,377.3,217,371.8,210.3,371.8z"/>
	<path d="M179.8,117.4H78.3c-17.8,0-32.2,14.4-32.2,32.2v223.6H22.9c-6.8,0-12.3,5.5-12.3,12.3v23.3c0,26.1,21.2,47.3,47.3,47.3
		h396.1c26.1,0,47.3-21.2,47.3-47.3v-23.3c0-6.8-5.5-12.3-12.3-12.3h-23.3v-74.6c0-6.8-5.5-12.3-12.3-12.3s-12.3,5.5-12.3,12.3v86.8
		c0,6.8,5.6,12.3,12.3,12.3h23.2v11c0,12.6-10.2,22.8-22.8,22.8H57.9c-12.6,0-22.8-10.2-22.8-22.8v-11h23.2
		c6.8,0,12.3-5.5,12.3-12.3V149.6c0-4.2,3.5-7.7,7.7-7.7h101.5c6.8,0,12.3-5.5,12.3-12.3C192.1,122.9,186.6,117.4,179.8,117.4z"/>
	<path d="M402.5,56H288.8c-27.9,0-46.5,15.4-49.6,40.8L223.9,193c-0.1,0.6-0.2,1.3-0.2,1.9v1.1c0,23.5,19.2,42.7,42.7,42.7h25.9
		c6.8,0,12.3-5.5,12.3-12.3s-5.5-12.3-12.3-12.3h-25.9c-10,0-18.2-8.2-18.2-18.2l15.2-95.8c0.7-5.4,2.4-19.7,25.3-19.7h113.7
		c10,0,18.2,8.2,18.2,18.2v97.8c-8,2.5-57,19.7-57,67.5v36c-4.5,0.2-9.7-0.5-13.4-3.2c-5-3.6-7.5-11.1-7.5-22.3v-48
		c0-6.8-5.5-12.3-12.3-12.3s-12.3,5.5-12.3,12.3v48c0,19.4,5.9,33.5,17.5,42c8.6,6.3,18.4,8,26.6,8c8.9,0,15.9-2,17.2-2.5
		c5.1-1.6,8.6-6.3,8.6-11.7V264c0-28.2,29.4-40.5,37.9-43.4c4.5,5.8,11.5,9.5,19.4,9.5h31.1c13.6,0,24.7-11.1,24.7-24.7v-113
		c0-13.6-11.1-24.7-24.7-24.7c-6.8,0-12.1,5.6-12.1,12.4c0,6.8,5.6,12.4,12.4,12.4l-0.2,113.2l-31.4-0.2V98.7
		C445.2,75.2,426.1,56,402.5,56z"/>
</g>
</svg>
