<?xml version="1.0" encoding="utf-8"?>
<!-- Generator: Adobe Illustrator 18.0.0, SVG Export Plug-In . SVG Version: 6.00 Build 0)  -->
<!DOCTYPE svg PUBLIC "-//W3C//DTD SVG 1.1//EN" "http://www.w3.org/Graphics/SVG/1.1/DTD/svg11.dtd">
<svg version="1.1" id="Artwork" xmlns="http://www.w3.org/2000/svg" xmlns:xlink="http://www.w3.org/1999/xlink" x="0px" y="0px"
	 viewBox="0 0 512 512" enable-background="new 0 0 512 512" xml:space="preserve">
<g>
	<path d="M98.8,366.6h103.5c3.9,8.5,12.5,14.5,22.4,14.5h62.4c10,0,18.6-6,22.4-14.5h103.6c6.8,0,12.3-5.5,12.3-12.3
		s-5.5-12.2-12.3-12.2H299.5c-6.8,0-12.3,5.5-12.3,12.2l-0.1,2.3l-62.5-0.1v-2.2c0-6.8-5.5-12.2-12.3-12.2H98.8
		c-6.8,0-12.3,5.5-12.3,12.2S92,366.6,98.8,366.6z"/>
	<path d="M58.7,424.7h394.6c26,0,47.1-21.1,47.1-47.1v-23.2c0-6.8-5.5-12.2-12.3-12.2h-23.2V119.4c0-0.4,0-0.8-0.1-1.2
		c-1.7-17.6-16-30.9-33.1-30.9H79c-17.7,0-32.1,14.4-32.1,32.1v222.7H23.8c-6.8,0-12.3,5.5-12.3,12.2v23.2
		C11.5,403.5,32.7,424.7,58.7,424.7z M36,366.6h23.1c6.8,0,12.3-5.5,12.3-12.3V119.4c0-4.2,3.4-7.6,7.6-7.6h352.8
		c4.3,0,8,3.6,8.7,8.3v234.2c0,6.8,5.6,12.3,12.3,12.3H476v10.9c0,12.5-10.2,22.6-22.6,22.6H58.7C46.2,400.2,36,390,36,377.6V366.6z
		"/>
	<path d="M226.1,277.4c2.3,2.3,5.4,3.6,8.7,3.6c0,0,0,0,0,0c3.2,0,6.3-1.3,8.6-3.6l72.8-72.4c4.8-4.8,4.8-12.5,0.1-17.3
		c-4.8-4.8-12.5-4.8-17.3,0l-64.1,63.8l-21.8-21.9c-4.8-4.8-12.5-4.8-17.3,0c-4.8,4.8-4.8,12.5-0.1,17.3L226.1,277.4z"/>
</g>
</svg>
