<?xml version="1.0" encoding="utf-8"?>
<!-- Generator: Adobe Illustrator 18.0.0, SVG Export Plug-In . SVG Version: 6.00 Build 0)  -->
<!DOCTYPE svg PUBLIC "-//W3C//DTD SVG 1.1//EN" "http://www.w3.org/Graphics/SVG/1.1/DTD/svg11.dtd">
<svg version="1.1" id="Artwork" xmlns="http://www.w3.org/2000/svg" xmlns:xlink="http://www.w3.org/1999/xlink" x="0px" y="0px"
	 viewBox="0 0 512 512" enable-background="new 0 0 512 512" xml:space="preserve">
<g>
	<path d="M212.3,373.1h-114c-6.8,0-12.3,5.5-12.3,12.3s5.5,12.3,12.3,12.3h103.9c3.9,8.6,12.5,14.6,22.5,14.6h62.6
		c10,0,18.6-6,22.5-14.6h104c6.8,0,12.3-5.5,12.3-12.3s-5.5-12.3-12.3-12.3H299.6c-6.8,0-12.3,5.5-12.3,12.3l-0.1,2.3l-62.7-0.1
		v-2.2C224.5,378.6,219.1,373.1,212.3,373.1z"/>
	<path d="M58.1,455.8h395.9c26.1,0,47.2-21.2,47.2-47.2v-23.2c0-6.8-5.5-12.3-12.3-12.3h-23.3v-74.5c0-6.8-5.5-12.3-12.3-12.3
		s-12.3,5.5-12.3,12.3v86.7c0,6.8,5.6,12.3,12.3,12.3h23.2v11c0,12.5-10.2,22.7-22.7,22.7H58.1c-12.5,0-22.7-10.2-22.7-22.7v-11
		h23.2c6.8,0,12.2-5.5,12.2-12.3V149.7c0-4.2,3.5-7.7,7.7-7.7h101.4c6.8,0,12.3-5.5,12.3-12.3c0-6.8-5.5-12.3-12.3-12.3H78.5
		c-17.8,0-32.2,14.4-32.2,32.2v223.4H23.1c-6.8,0-12.3,5.5-12.3,12.3v23.2C10.8,434.6,32,455.8,58.1,455.8z"/>
	<path d="M458.5,238.7c23.5,0,42.7-19.1,42.7-42.7v-1.1c0-0.6-0.1-1.3-0.2-1.9l-15.2-95.7c-3.2-25.8-21.7-41.2-49.6-41.2H322.6
		c-23.5,0-42.7,19.1-42.7,42.7l-0.2,106.7l-31.3-0.2l0.2-113.1c6.8,0,12.3-5.5,12.3-12.3c0-6.8-5.5-12.3-12.3-12.3
		c-13.6,0-24.7,11.1-24.7,24.7v112.9c0,13.6,11.1,24.7,24.7,24.7h31.1c7.9,0,14.8-3.8,19.3-9.5c8.4,3,37.9,15.3,37.9,43.4v46.4
		c0,5.3,3.5,10.1,8.6,11.7c1.4,0.4,8.3,2.5,17.2,2.5c8.2,0,18-1.7,26.6-8c11.6-8.5,17.5-22.6,17.5-42v-48c0-6.8-5.5-12.3-12.3-12.3
		s-12.3,5.5-12.3,12.3v48c0,11.1-2.5,18.5-7.4,22.2c-3.7,2.8-8.9,3.5-13.5,3.3v-36c0-47.7-48.9-64.9-57-67.4V98.8
		c0-10,8.2-18.2,18.2-18.2h113.6c22.9,0,24.6,14.3,25.4,20.1l15.1,95.1v0.2c0,10-8.2,18.2-18.2,18.2h-25.9
		c-6.8,0-12.3,5.5-12.3,12.3s5.5,12.3,12.3,12.3H458.5z"/>
</g>
</svg>
