<?xml version="1.0" encoding="utf-8"?>
<!-- Generator: Adobe Illustrator 18.0.0, SVG Export Plug-In . SVG Version: 6.00 Build 0)  -->
<!DOCTYPE svg PUBLIC "-//W3C//DTD SVG 1.1//EN" "http://www.w3.org/Graphics/SVG/1.1/DTD/svg11.dtd">
<svg version="1.1" id="Artwork" xmlns="http://www.w3.org/2000/svg" xmlns:xlink="http://www.w3.org/1999/xlink" x="0px" y="0px"
	 viewBox="0 0 512 512" enable-background="new 0 0 512 512" xml:space="preserve">
<g>
	<path d="M413.2,342.1H299.5c-6.8,0-12.3,5.5-12.3,12.3l-0.1,2.3l-62.5-0.1v-2.2c0-6.8-5.5-12.3-12.3-12.3H98.8
		c-6.8,0-12.3,5.5-12.3,12.3c0,6.8,5.5,12.3,12.3,12.3h103.5c3.9,8.5,12.5,14.5,22.4,14.5h62.4c10,0,18.6-6,22.4-14.5h103.6
		c6.8,0,12.3-5.5,12.3-12.3C425.5,347.6,420,342.1,413.2,342.1z"/>
	<path d="M488.2,342.1h-23.2V119.4c0-0.4,0-0.8-0.1-1.2c-1.7-17.6-16-30.9-33.1-30.9H79c-17.7,0-32.1,14.4-32.1,32.1v222.7H23.8
		c-6.8,0-12.3,5.5-12.3,12.3v23.2c0,26,21.1,47.1,47.1,47.1h394.6c26,0,47.1-21.1,47.1-47.1v-23.2
		C500.5,347.6,495,342.1,488.2,342.1z M476,377.6c0,12.5-10.2,22.6-22.6,22.6H58.7C46.2,400.2,36,390,36,377.6v-10.9h23.1
		c6.8,0,12.3-5.5,12.3-12.3v-235c0-4.2,3.4-7.6,7.6-7.6h352.8c4.3,0,8,3.6,8.7,8.3v234.2c0,6.8,5.6,12.3,12.3,12.3H476V377.6z"/>
	<path d="M205.8,311.1c6.8,0,12.3-5.5,12.3-12.3v-11.6c0-20.9,17-37.9,37.9-37.9s37.9,17,37.9,37.9v11.6c0,6.8,5.5,12.3,12.3,12.3
		c6.8,0,12.3-5.5,12.3-12.3v-11.6c0-30.6-22.2-56.2-51.4-61.4c16.6-4.8,28.9-20.2,28.9-38.3c0-22-17.9-39.9-39.9-39.9
		s-39.9,17.9-39.9,39.9c0,18.2,12.2,33.5,28.9,38.3c-29.2,5.2-51.4,30.7-51.4,61.4v11.6C193.6,305.6,199.1,311.1,205.8,311.1z
		 M240.6,187.6c0-8.5,6.9-15.4,15.4-15.4s15.4,6.9,15.4,15.4S264.5,203,256,203S240.6,196.1,240.6,187.6z"/>
</g>
</svg>
