<?xml version="1.0" encoding="utf-8"?>
<!-- Generator: Adobe Illustrator 18.0.0, SVG Export Plug-In . SVG Version: 6.00 Build 0)  -->
<!DOCTYPE svg PUBLIC "-//W3C//DTD SVG 1.1//EN" "http://www.w3.org/Graphics/SVG/1.1/DTD/svg11.dtd">
<svg version="1.1" id="Artwork" xmlns="http://www.w3.org/2000/svg" xmlns:xlink="http://www.w3.org/1999/xlink" x="0px" y="0px"
	 viewBox="0 0 512 512" enable-background="new 0 0 512 512" xml:space="preserve">
<g>
	<path d="M87.6,410.4c0,6.8,5.5,12.3,12.3,12.3h102.8c3.9,8.5,12.4,14.4,22.3,14.4h62c9.9,0,18.5-5.9,22.3-14.4h102.9
		c6.8,0,12.3-5.5,12.3-12.3s-5.5-12.3-12.3-12.3h-113c-6.8,0-12.3,5.5-12.3,12.3l0,2.2l-62,0v-2.2c0-6.8-5.5-12.3-12.3-12.3H99.8
		C93.1,398.2,87.6,403.6,87.6,410.4z"/>
	<path d="M486.6,398.2h-22.9V177c0-6.8-5.5-12.3-12.3-12.3s-12.3,5.5-12.3,12.3v233.4c0,6.8,5.6,12.3,12.3,12.3h22.8v10.8
		c0,12.4-10,22.4-22.4,22.4H60c-12.4,0-22.4-10-22.4-22.4v-10.8h22.8c6.8,0,12.3-5.5,12.3-12.3V177c0-6.8-5.5-12.3-12.3-12.3
		s-12.3,5.5-12.3,12.3v221.1H25.4c-6.8,0-12.3,5.5-12.3,12.3v23c0,25.9,21,46.9,46.9,46.9h392c25.9,0,46.9-21,46.9-46.9v-23
		C498.9,403.6,493.4,398.2,486.6,398.2z"/>
	<path d="M160.8,351.2L160.8,351.2c4.9,0,9.5-2.1,12.7-5.8l44.2-51.1H376c21,0,38.2-17.1,38.2-38.2V69.9c0-21-17.1-38.2-38.2-38.2
		H136.3c-21,0-38.2,17.1-38.2,38.2v186.2c0,21,17.1,38.2,38.2,38.2h7.5v40.1C143.9,343.6,151.4,351.2,160.8,351.2z M136.3,269.7
		c-7.5,0-13.7-6.1-13.7-13.7V69.9c0-7.5,6.1-13.7,13.7-13.7H376c7.5,0,13.7,6.1,13.7,13.7v186.2c0,7.5-6.1,13.7-13.7,13.7H212.1
		c-3.6,0-6.9,1.5-9.3,4.2l-34.4,39.8V282c0-6.8-5.5-12.3-12.3-12.3H136.3z"/>
	<path d="M180.4,160.2l24.9,21l-7.8,31.6c-1.5,6.2-0.2,12.6,3.8,17.6c6.3,8,18.5,10.3,27.2,4.9l27.6-17.2l27.6,17.2
		c3.3,2.1,7.1,3.1,10.9,3.1c6.3,0,12.4-3,16.3-8c3.9-5,5.3-11.4,3.8-17.6l-7.8-31.6l24.9-21c6.5-5.4,8.9-14.2,6.3-22.2
		c-2.6-8-9.7-13.6-18.2-14.2l-32.4-2.4l-12.3-30.1c-3.2-7.8-10.7-12.9-19.1-12.9s-16,5.1-19.1,12.9l-12.3,30.1l-32.4,2.4
		c-8.4,0.6-15.6,6.2-18.2,14.2C171.5,146.1,174,154.8,180.4,160.2z M234.1,145.4c4.6-0.3,8.7-3.3,10.5-7.6l11.6-28.5l11.6,28.5
		c1.8,4.3,5.8,7.3,10.5,7.6l30.7,2.2l-23.5,19.8c-3.6,3-5.1,7.8-4,12.3l7.4,29.8l-26.1-16.2c-4-2.5-9-2.5-12.9,0l-26.1,16.2
		l7.4-29.8c1.1-4.5-0.4-9.3-4-12.3l-23.5-19.8L234.1,145.4z"/>
</g>
</svg>
