<?xml version="1.0" encoding="utf-8"?>
<!-- Generator: Adobe Illustrator 18.0.0, SVG Export Plug-In . SVG Version: 6.00 Build 0)  -->
<!DOCTYPE svg PUBLIC "-//W3C//DTD SVG 1.1//EN" "http://www.w3.org/Graphics/SVG/1.1/DTD/svg11.dtd">
<svg version="1.1" id="Artwork" xmlns="http://www.w3.org/2000/svg" xmlns:xlink="http://www.w3.org/1999/xlink" x="0px" y="0px"
	 viewBox="0 0 512 512" enable-background="new 0 0 512 512" xml:space="preserve">
<g>
	<path d="M413,342H299.4c-6.8,0-12.3,5.5-12.3,12.3l-0.1,2.2l-62.4-0.1v-2.2c0-6.8-5.5-12.3-12.3-12.3H99c-6.8,0-12.3,5.5-12.3,12.3
		c0,6.8,5.5,12.3,12.3,12.3h103.4c3.9,8.5,12.5,14.5,22.4,14.5h62.3c10,0,18.5-6,22.4-14.5H413c6.8,0,12.3-5.5,12.3-12.3
		C425.2,347.5,419.7,342,413,342z"/>
	<path d="M487.9,342h-23.1V119.6c0-0.4,0-0.8-0.1-1.2c-1.7-17.6-16-30.9-33.1-30.9H79.3c-17.7,0-32.1,14.4-32.1,32.1V342h-23
		c-6.8,0-12.3,5.5-12.3,12.3v23.1c0,26,21.1,47.1,47.1,47.1H453c26,0,47.1-21.1,47.1-47.1v-23.1C500.1,347.5,494.6,342,487.9,342z
		 M475.6,377.4c0,12.5-10.1,22.6-22.6,22.6H59c-12.5,0-22.6-10.1-22.6-22.6v-10.9h23c6.8,0,12.3-5.5,12.3-12.3V119.6
		c0-4.2,3.4-7.6,7.6-7.6h352.3c4.3,0,8,3.6,8.7,8.3v233.9c0,6.8,5.6,12.3,12.3,12.3h23V377.4z"/>
	<path d="M163.1,305.3h93.2l-4,4c-4.8,4.8-4.8,12.5,0,17.3c2.4,2.4,5.5,3.6,8.7,3.6s6.3-1.2,8.7-3.6l24.9-24.9
		c2.3-2.3,3.6-5.4,3.6-8.7c0-3.2-1.3-6.4-3.6-8.7l-24.9-24.9c-4.8-4.8-12.5-4.8-17.3,0c-4.8,4.8-4.8,12.5,0,17.3l4,4h-93.2
		c-3.3,0-5.9-2.7-5.9-5.9v-87c0-3.3,2.7-5.9,5.9-5.9H179c6.8,0,12.3-5.5,12.3-12.3c0-6.8-5.5-12.3-12.3-12.3h-15.9
		c-16.8,0-30.4,13.6-30.4,30.4v87C132.7,291.6,146.3,305.3,163.1,305.3z"/>
	<path d="M242.3,203.2c2.4,2.4,5.5,3.6,8.7,3.6s6.3-1.2,8.7-3.6c4.8-4.8,4.8-12.5,0-17.3l-4-4h93.2c3.3,0,5.9,2.7,5.9,5.9v87
		c0,3.3-2.6,5.9-5.9,5.9H333c-6.8,0-12.3,5.5-12.3,12.3c0,6.8,5.5,12.3,12.3,12.3h15.9c16.8,0,30.4-13.6,30.4-30.4v-87
		c0-16.8-13.6-30.4-30.4-30.4h-93.2l4-4c4.8-4.8,4.8-12.5,0-17.3c-4.8-4.8-12.5-4.8-17.3,0L217.4,161c-2.3,2.3-3.6,5.4-3.6,8.7
		c0,3.2,1.3,6.4,3.6,8.7L242.3,203.2z"/>
</g>
</svg>
