<?xml version="1.0" encoding="utf-8"?>
<!-- Generator: Adobe Illustrator 18.0.0, SVG Export Plug-In . SVG Version: 6.00 Build 0)  -->
<!DOCTYPE svg PUBLIC "-//W3C//DTD SVG 1.1//EN" "http://www.w3.org/Graphics/SVG/1.1/DTD/svg11.dtd">
<svg version="1.1" id="Artwork" xmlns="http://www.w3.org/2000/svg" xmlns:xlink="http://www.w3.org/1999/xlink" x="0px" y="0px"
	 viewBox="0 0 512 512" enable-background="new 0 0 512 512" xml:space="preserve">
<g>
	<path d="M256,124.2c-30.4,0-55.1,24.7-55.1,55.1c0,6.8,5.5,12.3,12.3,12.3c6.8,0,12.3-5.5,12.3-12.3c0-16.9,13.7-30.6,30.6-30.6
		s30.6,13.7,30.6,30.6c0,6.8,5.5,12.3,12.3,12.3s12.3-5.5,12.3-12.3C311.1,148.9,286.4,124.2,256,124.2z"/>
	<path d="M104.6,262.5c-6.8,0-12.3,5.5-12.3,12.3c0,6.8,5.5,12.3,12.3,12.3h67.1v10.8h-12.2c-17.9,0-32.4,14.5-32.4,32.4v29
		c0,6.8,5.5,12.3,12.2,12.3c6.8,0,12.3-5.5,12.3-12.3v-29c0-4.3,3.5-7.9,7.9-7.9h14.2c7.4,30.2,34.7,52.7,67.1,52.7h30.2
		c32.5,0,59.7-22.5,67.1-52.7h14.2c4.3,0,7.9,3.5,7.9,7.9v29c0,6.8,5.5,12.3,12.3,12.3s12.3-5.5,12.3-12.3v-29
		c0-17.9-14.5-32.4-32.4-32.4h-12.2V287h67.1c6.8,0,12.3-5.5,12.3-12.3c0-6.8-5.5-12.3-12.3-12.3h-67.1v-10.9h12.2
		c17.9,0,32.4-14.5,32.4-32.4v-29c0-6.8-5.5-12.3-12.3-12.3s-12.3,5.5-12.3,12.3v29c0,4.3-3.5,7.9-7.9,7.9h-12.3
		c-1.3-16.2-15-29-31.5-29H203.4c-16.6,0-30.2,12.8-31.5,29h-12.3c-4.3,0-7.9-3.5-7.9-7.9v-29c0-6.8-5.5-12.3-12.3-12.3
		c-6.8,0-12.2,5.5-12.2,12.3v29c0,17.8,14.5,32.4,32.4,32.4h12.2v10.9H104.6z M315.8,229.7v76.1c0,24.6-20,44.7-44.7,44.7h-2.9v-128
		h40.4C312.6,222.5,315.8,225.7,315.8,229.7z M196.2,229.7c0-3.9,3.2-7.2,7.2-7.2h40.4v128h-2.9c-24.6,0-44.7-20-44.7-44.7V229.7z"
		/>
	<path d="M86.4,424.8c0,6.8,5.5,12.3,12.3,12.3h103.6c3.9,8.6,12.5,14.5,22.4,14.5h62.5c10,0,18.6-6,22.4-14.5h103.7
		c6.8,0,12.3-5.5,12.3-12.3s-5.5-12.3-12.3-12.3H299.5c-6.8,0-12.3,5.5-12.3,12.3l-0.1,2.3l-62.6-0.1v-2.2c0-6.8-5.5-12.3-12.3-12.3
		H98.7C91.9,412.5,86.4,418,86.4,424.8z"/>
	<path d="M465.2,189.6c0-0.4,0-0.8-0.1-1.2c-1.7-17.6-16-31-33.2-31c-6.8,0-12.3,5.5-12.3,12.3c0,6.8,5.5,12.3,12.3,12.3
		c4.3,0,8,3.6,8.7,8.4v234.4c0,6.8,5.6,12.3,12.3,12.3h23.1V448c0,12.5-10.2,22.7-22.7,22.7h-395c-12.5,0-22.7-10.2-22.7-22.7V437
		H59c6.8,0,12.2-5.5,12.2-12.3V189.6c0-4.2,3.4-7.6,7.6-7.6c6.8,0,12.3-5.5,12.3-12.3c0-6.8-5.5-12.3-12.3-12.3
		c-17.7,0-32.1,14.4-32.1,32.1v222.9H23.6c-6.8,0-12.3,5.5-12.3,12.3V448c0,26,21.2,47.2,47.2,47.2h395c26,0,47.2-21.2,47.2-47.2
		v-23.2c0-6.8-5.5-12.3-12.3-12.3h-23.2V189.6z"/>
	<path d="M316.3,102.6c3.9-5.5,2.6-13.2-2.9-17.1c-16.8-11.9-36.7-18.2-57.4-18.2s-40.6,6.3-57.4,18.2c-5.5,3.9-6.8,11.6-2.9,17.1
		c3.9,5.5,11.6,6.8,17.1,2.9c12.6-9,27.6-13.7,43.3-13.7c15.7,0,30.6,4.7,43.3,13.7c2.2,1.5,4.6,2.3,7.1,2.3
		C310.2,107.7,313.9,105.9,316.3,102.6z"/>
	<path d="M341.9,68.6c3.8,0,7.6-1.8,10-5.2c3.9-5.5,2.6-13.2-2.9-17.1c-27.2-19.3-59.4-29.5-93-29.5c-33.7,0-65.8,10.2-93,29.5
		c-5.5,3.9-6.8,11.6-2.9,17.1c3.9,5.5,11.6,6.8,17.1,2.9c23.1-16.4,50.3-25,78.9-25c28.5,0,55.8,8.6,78.9,25
		C337,67.9,339.5,68.6,341.9,68.6z"/>
</g>
</svg>
