<?xml version="1.0" encoding="utf-8"?>
<!-- Generator: Adobe Illustrator 18.0.0, SVG Export Plug-In . SVG Version: 6.00 Build 0)  -->
<!DOCTYPE svg PUBLIC "-//W3C//DTD SVG 1.1//EN" "http://www.w3.org/Graphics/SVG/1.1/DTD/svg11.dtd">
<svg version="1.1" id="Artwork" xmlns="http://www.w3.org/2000/svg" xmlns:xlink="http://www.w3.org/1999/xlink" x="0px" y="0px"
	 viewBox="0 0 512 512" enable-background="new 0 0 512 512" xml:space="preserve">
<g>
	<path d="M171.2,225.9l29,24.4l-9.1,36.8c-1.6,6.6-0.2,13.3,4,18.6c4.1,5.3,10.6,8.4,17.2,8.4c4,0,8-1.1,11.5-3.3l32.2-20l32.2,20
		c3.5,2.2,7.5,3.3,11.5,3.3c6.6,0,13.1-3.2,17.2-8.4c4.1-5.3,5.6-12.1,4-18.6l-9.1-36.8l29-24.4c6.8-5.7,9.4-14.9,6.7-23.4
		c-2.8-8.5-10.3-14.4-19.2-15l-37.8-2.8l-14.3-35.1c-3.4-8.2-11.3-13.6-20.2-13.6c-8.9,0-16.8,5.3-20.2,13.6l-14.3,35.1l-37.8,2.8
		c-8.9,0.6-16.4,6.5-19.2,15C161.8,211,164.4,220.1,171.2,225.9z M230.9,208.6c4.6-0.3,8.7-3.3,10.5-7.6l14.7-36l14.7,36
		c1.8,4.3,5.8,7.3,10.5,7.6l38.8,2.8l-29.7,25.1c-3.6,3-5.1,7.8-4,12.3l9.3,37.8l-33-20.5c-2-1.2-4.2-1.8-6.5-1.8s-4.5,0.6-6.5,1.8
		l-33,20.5l9.3-37.8c1.1-4.5-0.4-9.3-4-12.3l-29.7-25.1L230.9,208.6z"/>
	<path d="M413.2,342.1H299.5c-6.8,0-12.3,5.5-12.3,12.3l-0.1,2.3l-62.5-0.1v-2.2c0-6.8-5.5-12.3-12.3-12.3H98.8
		c-6.8,0-12.3,5.5-12.3,12.3c0,6.8,5.5,12.3,12.3,12.3h103.5c3.9,8.5,12.5,14.5,22.4,14.5h62.4c10,0,18.6-6,22.4-14.5h103.6
		c6.8,0,12.3-5.5,12.3-12.3C425.5,347.6,420,342.1,413.2,342.1z"/>
	<path d="M488.2,342.1h-23.2V119.4c0-0.4,0-0.8-0.1-1.2c-1.7-17.6-16-30.9-33.1-30.9H79c-17.7,0-32.1,14.4-32.1,32.1v222.7H23.8
		c-6.8,0-12.3,5.5-12.3,12.3v23.2c0,26,21.1,47.1,47.1,47.1h394.6c26,0,47.1-21.1,47.1-47.1v-23.2
		C500.5,347.6,495,342.1,488.2,342.1z M476,377.6c0,12.5-10.2,22.6-22.6,22.6H58.7C46.2,400.2,36,390,36,377.6v-10.9h23.1
		c6.8,0,12.3-5.5,12.3-12.3v-235c0-4.2,3.4-7.6,7.6-7.6h352.8c4.3,0,8,3.6,8.7,8.3v234.2c0,6.8,5.6,12.3,12.3,12.3H476V377.6z"/>
</g>
</svg>
