<?xml version="1.0" encoding="utf-8"?>
<!-- Generator: Adobe Illustrator 18.0.0, SVG Export Plug-In . SVG Version: 6.00 Build 0)  -->
<!DOCTYPE svg PUBLIC "-//W3C//DTD SVG 1.1//EN" "http://www.w3.org/Graphics/SVG/1.1/DTD/svg11.dtd">
<svg version="1.1" id="Artwork" xmlns="http://www.w3.org/2000/svg" xmlns:xlink="http://www.w3.org/1999/xlink" x="0px" y="0px"
	 viewBox="0 0 512 512" enable-background="new 0 0 512 512" xml:space="preserve">
<g>
	<path d="M87.6,410.4c0,6.8,5.5,12.3,12.3,12.3h102.8c3.9,8.5,12.4,14.4,22.3,14.4h62c9.9,0,18.5-5.9,22.3-14.4h102.9
		c6.8,0,12.3-5.5,12.3-12.3s-5.5-12.3-12.3-12.3h-113c-6.8,0-12.3,5.5-12.3,12.3l0,2.2h-62v-2.2c0-6.8-5.5-12.3-12.3-12.3H99.8
		C93.1,398.2,87.6,403.6,87.6,410.4z"/>
	<path d="M486.6,398.2h-22.9V177.1c0-6.8-5.5-12.3-12.3-12.3c-6.8,0-12.3,5.5-12.3,12.3v233.4c0,6.8,5.6,12.3,12.3,12.3h22.8v10.8
		c0,12.4-10,22.4-22.4,22.4H60c-12.4,0-22.4-10-22.4-22.4v-10.8h22.8c6.8,0,12.3-5.5,12.3-12.3V177.1c0-6.8-5.5-12.3-12.3-12.3
		s-12.3,5.5-12.3,12.3v221.1H25.4c-6.8,0-12.3,5.5-12.3,12.3v23c0,25.9,21,46.9,46.9,46.9h392c25.9,0,46.9-21,46.9-46.9v-23
		C498.9,403.6,493.4,398.2,486.6,398.2z"/>
	<path d="M160.8,351.2C160.8,351.2,160.8,351.2,160.8,351.2c4.9,0,9.5-2.1,12.7-5.8l44.2-51.1H376c21,0,38.2-17.1,38.2-38.2V69.9
		c0-21-17.1-38.2-38.2-38.2H136.3c-21,0-38.2,17.1-38.2,38.2v186.2c0,21,17.1,38.2,38.2,38.2h7.5v40.1
		C143.9,343.6,151.4,351.2,160.8,351.2z M136.3,269.7c-7.5,0-13.7-6.1-13.7-13.7V69.9c0-7.5,6.1-13.7,13.7-13.7H376
		c7.5,0,13.7,6.1,13.7,13.7v186.2c0,7.5-6.1,13.7-13.7,13.7H212.1c-3.6,0-6.9,1.5-9.3,4.2l-34.4,39.8V282c0-6.8-5.5-12.3-12.3-12.3
		H136.3z"/>
	<path d="M227.1,233.9c2.3,2.3,5.4,3.6,8.7,3.6c0,0,0,0,0,0c3.2,0,6.3-1.3,8.6-3.6l99.3-98.7c2.3-2.3,3.6-5.4,3.6-8.7
		c0-3.2-1.3-6.4-3.6-8.7l-30-30.2c-4.8-4.8-12.5-4.8-17.3,0L236,147.7l-20.3-20.4c-2.3-2.3-5.4-3.6-8.7-3.6c0,0,0,0,0,0
		c-3.2,0-6.3,1.3-8.6,3.6l-30.2,30c-2.3,2.3-3.6,5.4-3.6,8.7s1.3,6.4,3.6,8.7L227.1,233.9z M207,153.3l20.3,20.4
		c2.3,2.3,5.4,3.6,8.7,3.6c0,0,0,0,0,0c3.2,0,6.3-1.3,8.6-3.6l60.4-60.1l12.7,12.8l-81.9,81.5L194.2,166L207,153.3z"/>
</g>
</svg>
