<?xml version="1.0" encoding="utf-8"?>
<!-- Generator: Adobe Illustrator 18.0.0, SVG Export Plug-In . SVG Version: 6.00 Build 0)  -->
<!DOCTYPE svg PUBLIC "-//W3C//DTD SVG 1.1//EN" "http://www.w3.org/Graphics/SVG/1.1/DTD/svg11.dtd">
<svg version="1.1" id="Artwork" xmlns="http://www.w3.org/2000/svg" xmlns:xlink="http://www.w3.org/1999/xlink" x="0px" y="0px"
	 viewBox="0 0 512 512" enable-background="new 0 0 512 512" xml:space="preserve">
<g>
	<path d="M212.4,343.4H98.8c-6.8,0-12.3,5.5-12.3,12.3c0,6.8,5.5,12.3,12.3,12.3h103.5c3.9,8.5,12.5,14.5,22.4,14.5h62.4
		c10,0,18.6-6,22.4-14.5h103.6c6.8,0,12.3-5.5,12.3-12.3c0-6.8-5.5-12.3-12.3-12.3H299.5c-6.8,0-12.3,5.5-12.3,12.3l-0.1,2.3
		l-62.5-0.1v-2.2C224.7,348.9,219.2,343.4,212.4,343.4z"/>
	<path d="M488.2,343.4h-23.2V120.7c0-0.4,0-0.8-0.1-1.2c-1.7-17.6-16-30.9-33.1-30.9h-1.1c-6.8,0-12.3,5.5-12.3,12.3
		c0,6.8,5.5,12.3,12.3,12.3h1.1c4.3,0,8,3.6,8.7,8.3v234.2c0,6.8,5.6,12.3,12.3,12.3H476v10.9c0,12.5-10.2,22.6-22.6,22.6H58.7
		c-12.5,0-22.6-10.2-22.6-22.6v-10.9h23.1c6.8,0,12.3-5.5,12.3-12.3V120.7c0-4.2,3.4-7.6,7.6-7.6h157.2c6.8,0,12.3-5.5,12.3-12.3
		c0-6.8-5.5-12.3-12.3-12.3H79c-17.7,0-32.1,14.4-32.1,32.1v222.7H23.8c-6.8,0-12.3,5.5-12.3,12.3v23.2c0,26,21.1,47.1,47.1,47.1
		h394.6c26,0,47.1-21.1,47.1-47.1v-23.2C500.5,348.9,495,343.4,488.2,343.4z"/>
	<path d="M298,316.7l33-29.7l33,29.7c3.5,3.1,7.9,4.8,12.5,4.8c10.3,0,18.8-8.4,18.8-18.7V98.3c0-6.8-5.5-12.3-12.3-12.3H279
		c-6.8,0-12.3,5.5-12.3,12.3v204.5c0,10.3,8.4,18.7,18.8,18.7C290.1,321.5,294.6,319.8,298,316.7z M291.3,110.5h79.4v179.3
		l-27.2-24.5c-6.9-6.2-18.2-6.2-25.1,0l-27.2,24.5V110.5z"/>
</g>
</svg>
