<?xml version="1.0" encoding="utf-8"?>
<!-- Generator: Adobe Illustrator 18.0.0, SVG Export Plug-In . SVG Version: 6.00 Build 0)  -->
<!DOCTYPE svg PUBLIC "-//W3C//DTD SVG 1.1//EN" "http://www.w3.org/Graphics/SVG/1.1/DTD/svg11.dtd">
<svg version="1.1" id="Artwork" xmlns="http://www.w3.org/2000/svg" xmlns:xlink="http://www.w3.org/1999/xlink" x="0px" y="0px"
	 viewBox="0 0 512 512" enable-background="new 0 0 512 512" xml:space="preserve">
<g>
	<path d="M413.2,342.1H299.5c-6.8,0-12.3,5.5-12.3,12.3l-0.1,2.3l-62.5-0.1v-2.2c0-6.8-5.5-12.3-12.3-12.3H98.8
		c-6.8,0-12.3,5.5-12.3,12.3c0,6.8,5.5,12.3,12.3,12.3h103.5c3.9,8.5,12.5,14.5,22.4,14.5h62.4c10,0,18.6-6,22.4-14.5h103.6
		c6.8,0,12.3-5.5,12.3-12.3C425.5,347.6,420,342.1,413.2,342.1z"/>
	<path d="M488.2,342.1h-23.2V119.4c0-0.4,0-0.8-0.1-1.2c-1.7-17.6-16-30.9-33.1-30.9H79c-17.7,0-32.1,14.4-32.1,32.1v222.7H23.8
		c-6.8,0-12.3,5.5-12.3,12.3v23.2c0,26,21.1,47.1,47.1,47.1h394.6c26,0,47.1-21.1,47.1-47.1v-23.2
		C500.5,347.6,495,342.1,488.2,342.1z M476,377.6c0,12.5-10.2,22.6-22.6,22.6H58.7C46.2,400.2,36,390,36,377.6v-10.9h23.1
		c6.8,0,12.3-5.5,12.3-12.3v-235c0-4.2,3.4-7.6,7.6-7.6h352.8c4.3,0,8,3.6,8.7,8.3v234.2c0,6.8,5.6,12.3,12.3,12.3H476V377.6z"/>
	<path d="M256,314.4c78.1,0,132.2-75.9,134.5-79.1c3-4.2,3-9.9,0-14.1c-2.3-3.2-56.4-79.1-134.5-79.1c-78.1,0-132.2,75.9-134.5,79.1
		c-3,4.2-3,9.9,0,14.1C123.8,238.6,177.9,314.4,256,314.4z M256,166.6c52.6,0,94.4,44.2,108.9,61.7c-14.5,17.5-56.2,61.6-108.9,61.6
		c-52.6,0-94.4-44.2-108.9-61.7C161.6,210.8,203.3,166.6,256,166.6z"/>
	<path d="M256,270.8c24.6,0,44.6-20,44.6-44.6c0-24.6-20-44.6-44.6-44.6c-24.6,0-44.6,20-44.6,44.6
		C211.4,250.8,231.4,270.8,256,270.8z M256,206.2c11.1,0,20.1,9,20.1,20.1s-9,20.1-20.1,20.1c-11.1,0-20.1-9-20.1-20.1
		S244.9,206.2,256,206.2z"/>
</g>
</svg>
