<?xml version="1.0" encoding="utf-8"?>
<!-- Generator: Adobe Illustrator 18.0.0, SVG Export Plug-In . SVG Version: 6.00 Build 0)  -->
<!DOCTYPE svg PUBLIC "-//W3C//DTD SVG 1.1//EN" "http://www.w3.org/Graphics/SVG/1.1/DTD/svg11.dtd">
<svg version="1.1" id="Artwork" xmlns="http://www.w3.org/2000/svg" xmlns:xlink="http://www.w3.org/1999/xlink" x="0px" y="0px"
	 viewBox="0 0 512 512" enable-background="new 0 0 512 512" xml:space="preserve">
<g>
	<path d="M212.3,378.4h-114c-6.8,0-12.3,5.5-12.3,12.3c0,6.8,5.5,12.3,12.3,12.3h103.9c3.9,8.6,12.5,14.6,22.5,14.6h62.6
		c10,0,18.6-6,22.5-14.6h104c6.8,0,12.3-5.5,12.3-12.3c0-6.8-5.5-12.3-12.3-12.3H299.6c-6.8,0-12.3,5.5-12.3,12.3l-0.1,2.3
		l-62.7-0.1v-2.2C224.5,383.8,219,378.4,212.3,378.4z"/>
	<path d="M501.2,413.9v-23.2c0-6.8-5.5-12.3-12.3-12.3h-23.3v-74.5c0-6.8-5.5-12.3-12.3-12.3s-12.3,5.5-12.3,12.3v86.8
		c0,6.8,5.6,12.3,12.3,12.3h23.2v11c0,12.5-10.2,22.8-22.8,22.8H58c-12.5,0-22.8-10.2-22.8-22.8v-11h23.2c6.8,0,12.3-5.5,12.3-12.3
		V154.9c0-4.2,3.5-7.7,7.7-7.7h101.4c6.8,0,12.3-5.5,12.3-12.3c0-6.8-5.5-12.2-12.3-12.2H78.4c-17.8,0-32.2,14.4-32.2,32.2v223.5H23
		c-6.8,0-12.3,5.5-12.3,12.3v23.2c0,26.1,21.2,47.3,47.3,47.3h396C480,461.1,501.2,439.9,501.2,413.9z"/>
	<path d="M497.7,54.5c-4.8-4.8-12.5-4.8-17.3,0l-50,49.7l-15.9-16c-4.8-4.8-12.5-4.8-17.3,0c-4.8,4.8-4.8,12.5-0.1,17.3l24.5,24.7
		c2.3,2.3,5.4,3.6,8.7,3.6c0,0,0,0,0,0c3.2,0,6.3-1.3,8.6-3.6l58.6-58.3C502.4,67.1,502.4,59.3,497.7,54.5z"/>
	<path d="M476,233.6V160c0-6.8-5.5-12.3-12.3-12.3s-12.3,5.5-12.3,12.3v73.6c0,7-5.7,12.7-12.7,12.7H302.4c-3.2,0-6.4,1.3-8.7,3.6
		l-28,28v-19.4c0-6.8-5.5-12.3-12.3-12.3H248c-7,0-12.7-5.7-12.7-12.7V97.2c0-7,5.7-12.7,12.7-12.7h129.6c6.8,0,12.3-5.5,12.3-12.3
		S384.3,60,377.6,60H248c-20.5,0-37.2,16.7-37.2,37.2v136.4c0,18.2,13.2,33.4,30.5,36.6v28.5c0,6.5,3.9,12.2,9.8,14.7
		c2,0.8,4,1.2,6.1,1.2c4.1,0,8.2-1.6,11.2-4.7l39.1-39.1h131.3C459.3,270.8,476,254.1,476,233.6z"/>
</g>
</svg>
