<?xml version="1.0" encoding="utf-8"?>
<!-- Generator: Adobe Illustrator 18.0.0, SVG Export Plug-In . SVG Version: 6.00 Build 0)  -->
<!DOCTYPE svg PUBLIC "-//W3C//DTD SVG 1.1//EN" "http://www.w3.org/Graphics/SVG/1.1/DTD/svg11.dtd">
<svg version="1.1" id="Artwork" xmlns="http://www.w3.org/2000/svg" xmlns:xlink="http://www.w3.org/1999/xlink" x="0px" y="0px"
	 viewBox="0 0 512 512" enable-background="new 0 0 512 512" xml:space="preserve">
<g>
	<path d="M135.4,267.2h77c3.5,8,11,13.6,19.6,13.6h47.9c8.6,0,16.1-5.6,19.6-13.6h77.1c6.8,0,12.3-5.5,12.3-12.2
		s-5.5-12.3-12.3-12.3h-87.2c-6.8,0-12.3,5.5-12.3,12.3v1.3h-42.3v-1.3c0-6.8-5.5-12.3-12.3-12.3h-87.2c-6.8,0-12.3,5.5-12.3,12.3
		S128.6,267.2,135.4,267.2z"/>
	<path d="M59.5,41.9v207.6H38.7c-6.8,0-12.3,5.5-12.3,12.3v21.7c0,24.8,20.1,44.9,44.9,44.9h369.3c24.8,0,44.9-20.1,44.9-44.9v-21.7
		c0-6.8-5.5-12.3-12.3-12.3h-20.9V41.9c0-0.4,0-0.8-0.1-1.2C450.7,23.8,437,11,420.6,11H90.4C73.4,11,59.5,24.8,59.5,41.9z
		 M427.9,42.6v219.1c0,6.8,5.5,12.3,12.3,12.3h20.8v9.4c0,11.2-9.2,20.4-20.4,20.4H71.3c-11.2,0-20.4-9.1-20.4-20.4V274h20.8
		c6.8,0,12.3-5.5,12.3-12.3V41.9c0-3.5,2.9-6.4,6.4-6.4h330.2C424.2,35.5,427.3,38.6,427.9,42.6z"/>
	<path d="M256,501c22.8,0,41.9-15.6,47.4-36.7h173.8c6.8,0,12.3-5.5,12.3-12.3c0-6.8-5.5-12.3-12.3-12.3H303.4
		c-4.4-17.2-17.9-30.7-35.1-35.1v-39c0-6.8-5.5-12.3-12.3-12.3s-12.3,5.5-12.3,12.3v39c-17.2,4.4-30.7,17.9-35.1,35.1H34.8
		c-6.8,0-12.3,5.5-12.3,12.3c0,6.8,5.5,12.3,12.3,12.3h173.8C214.1,485.4,233.2,501,256,501z M256,427.6c13.5,0,24.5,11,24.5,24.5
		c0,13.5-11,24.5-24.5,24.5c-13.5,0-24.5-11-24.5-24.5C231.5,438.5,242.5,427.6,256,427.6z"/>
</g>
</svg>
