<?xml version="1.0" encoding="iso-8859-1"?>
<!-- Generator: Adobe Illustrator 19.0.0, SVG Export Plug-In . SVG Version: 6.00 Build 0)  -->
<svg version="1.1" id="Capa_1" xmlns="http://www.w3.org/2000/svg" xmlns:xlink="http://www.w3.org/1999/xlink" x="0px" y="0px"
	 viewBox="0 0 485.8 485.8" style="enable-background:new 0 0 485.8 485.8;" xml:space="preserve">
<g>
	<g>
		<path d="M74.5,397.3c0,6.8,5.5,12.3,12.3,12.3h102.8c3.9,8.5,12.4,14.4,22.3,14.4h62c9.9,0,18.5-5.9,22.3-14.4h102.9
			c6.8,0,12.3-5.5,12.3-12.3s-5.5-12.3-12.3-12.3h-113c-6.8,0-12.3,5.5-12.3,12.3v2.2h-62v-2.2c0-6.8-5.5-12.3-12.3-12.3H86.7
			C80,385.1,74.5,390.5,74.5,397.3z"/>
		<path d="M473.5,385.1h-22.9V163.9c0-6.8-5.5-12.3-12.3-12.3s-12.3,5.5-12.3,12.3v233.4c0,6.8,5.6,12.3,12.3,12.3h22.8v10.8
			c0,12.4-10,22.4-22.4,22.4H46.9c-12.4,0-22.4-10-22.4-22.4v-10.8h22.8c6.8,0,12.3-5.5,12.3-12.3V163.9c0-6.8-5.5-12.3-12.3-12.3
			S35,157.1,35,163.9V385H12.3C5.5,385,0,390.5,0,397.3v23c0,25.9,21,46.9,46.9,46.9h392c25.9,0,46.9-21,46.9-46.9v-23
			C485.8,390.5,480.3,385.1,473.5,385.1z"/>
		<path d="M149.6,338.1L149.6,338.1c4.9,0,9.5-2.1,12.7-5.8l44.2-51.1h158.3c21,0,38.2-17.1,38.2-38.2V56.8
			c0-21-17.1-38.2-38.2-38.2H125.2c-21,0-38.2,17.1-38.2,38.2v157.9c0,4.55,0,8.925,0,13.3v15c0,21,17.1,38.2,38.2,38.2h7.5v40.1
			C132.7,330.5,140.3,338.1,149.6,338.1z M125.2,43.1h239.6c7.5,0,13.7,6.1,13.7,13.7v106.6L322,106.9c-4.6-4.6-12.7-4.6-17.3,0
			l-86.5,86.5l-46.4-46.5c-4.8-4.8-12.5-4.8-17.3,0l-42.9,42.9v-133C111.5,49.2,117.7,43.1,125.2,43.1z M125.2,256.6
			c-7.5,0-13.7-6.1-13.7-13.7v-18.5l51.6-51.6l46.4,46.4c4.6,4.6,12.7,4.6,17.3,0l86.5-86.5l65.2,65.2v45c0,7.5-6.1,13.7-13.7,13.7
			H200.9c-3.6,0-6.9,1.5-9.3,4.2l-34.4,39.8v-31.7c0-6.8-5.5-12.3-12.3-12.3H125.2z"/>
		<path d="M218.2,133.6c20.3,0,36.9-16.5,36.9-36.9s-16.5-36.9-36.9-36.9s-36.9,16.5-36.9,36.9S197.9,133.6,218.2,133.6z
			 M218.2,84.3c6.8,0,12.4,5.6,12.4,12.4s-5.6,12.4-12.4,12.4s-12.4-5.6-12.4-12.4S211.4,84.3,218.2,84.3z"/>
	</g>
</g>
<g>
</g>
<g>
</g>
<g>
</g>
<g>
</g>
<g>
</g>
<g>
</g>
<g>
</g>
<g>
</g>
<g>
</g>
<g>
</g>
<g>
</g>
<g>
</g>
<g>
</g>
<g>
</g>
<g>
</g>
</svg>
