<?xml version="1.0" encoding="utf-8"?>
<!-- Generator: Adobe Illustrator 18.0.0, SVG Export Plug-In . SVG Version: 6.00 Build 0)  -->
<!DOCTYPE svg PUBLIC "-//W3C//DTD SVG 1.1//EN" "http://www.w3.org/Graphics/SVG/1.1/DTD/svg11.dtd">
<svg version="1.1" id="Artwork" xmlns="http://www.w3.org/2000/svg" xmlns:xlink="http://www.w3.org/1999/xlink" x="0px" y="0px"
	 viewBox="0 0 512 512" enable-background="new 0 0 512 512" xml:space="preserve">
<g>
	<path d="M98.7,415c-6.8,0-12.3,5.5-12.3,12.3c0,6.8,5.5,12.3,12.3,12.3h103.6c3.9,8.6,12.5,14.5,22.4,14.5h62.4
		c10,0,18.6-6,22.4-14.5h103.7c6.8,0,12.3-5.5,12.3-12.3c0-6.8-5.5-12.3-12.3-12.3H299.5c-6.8,0-12.3,5.5-12.3,12.3l-0.1,2.3
		l-62.5-0.1v-2.2c0-6.8-5.5-12.3-12.3-12.3H98.7z"/>
	<path d="M343.6,172.4c0,6.8,5.5,12.3,12.3,12.3h76.1c4.3,0,8,3.6,8.7,8.3v234.3c0,6.8,5.6,12.3,12.3,12.3H476v10.9
		c0,12.5-10.2,22.6-22.6,22.6H58.6c-12.5,0-22.6-10.2-22.6-22.6v-10.9h23.1c6.8,0,12.3-5.5,12.3-12.3v-235c0-4.2,3.4-7.6,7.6-7.6
		h82.2c6.8,0,12.3-5.5,12.3-12.3c0-6.8-5.5-12.3-12.3-12.3H79c-17.7,0-32.1,14.4-32.1,32.1V415H23.7c-6.8,0-12.3,5.5-12.3,12.3v23.2
		c0,26,21.2,47.1,47.1,47.1h394.8c26,0,47.1-21.2,47.1-47.1v-23.2c0-6.8-5.5-12.3-12.3-12.3h-23.2V192.2c0-0.4,0-0.8-0.1-1.2
		c-1.7-17.6-16-30.9-33.2-30.9h-76.1C349,160.1,343.6,165.6,343.6,172.4z"/>
	<path d="M338.3,115.8c-24.1-17.1-52.5-26.1-82.3-26.1c-29.8,0-58.2,9-82.3,26.1c-5.5,3.9-6.8,11.6-2.9,17.1c2.4,3.4,6.2,5.2,10,5.2
		c2.5,0,4.9-0.7,7.1-2.3c19.9-14.1,43.4-21.6,68.1-21.6c24.7,0,48.2,7.5,68.1,21.6c5.5,3.9,13.2,2.6,17.1-2.9
		C345.1,127.4,343.8,119.7,338.3,115.8z"/>
	<path d="M233.6,196c13.1-9.3,31.7-9.3,44.8,0c2.2,1.5,4.6,2.3,7.1,2.3c3.8,0,7.6-1.8,10-5.2c3.9-5.5,2.6-13.2-2.9-17.1
		c-10.7-7.6-23.3-11.6-36.6-11.6c-13.2,0-25.9,4-36.6,11.6c-5.5,3.9-6.8,11.6-2.9,17.1C220.5,198.6,228.1,199.9,233.6,196z"/>
	<path d="M127.6,79.7c2.5,0,4.9-0.7,7.1-2.3c35.4-25.2,77.4-38.5,121.3-38.5c43.9,0,85.9,13.3,121.3,38.5c5.5,3.9,13.2,2.6,17.1-2.9
		c3.9-5.5,2.6-13.2-2.9-17.1c-39.6-28.1-86.5-43-135.5-43c-49,0-95.9,14.9-135.5,43c-5.5,3.9-6.8,11.6-2.9,17.1
		C120,77.9,123.8,79.7,127.6,79.7z"/>
</g>
</svg>
