<?xml version="1.0" encoding="utf-8"?>
<!-- Generator: Adobe Illustrator 18.0.0, SVG Export Plug-In . SVG Version: 6.00 Build 0)  -->
<!DOCTYPE svg PUBLIC "-//W3C//DTD SVG 1.1//EN" "http://www.w3.org/Graphics/SVG/1.1/DTD/svg11.dtd">
<svg version="1.1" id="Artwork" xmlns="http://www.w3.org/2000/svg" xmlns:xlink="http://www.w3.org/1999/xlink" x="0px" y="0px"
	 viewBox="0 0 512 512" enable-background="new 0 0 512 512" xml:space="preserve">
<g>
	<path d="M374.3,95.4H192.2V41.7c0-6.8-5.5-12.3-12.3-12.3c-6.8,0-12.3,5.5-12.3,12.3v53.7h-30c-6.8,0-12.3,5.5-12.3,12.3v362.7
		c0,6.8,5.5,12.3,12.3,12.3h236.6c6.8,0,12.3-5.5,12.3-12.3V107.6C386.5,100.8,381,95.4,374.3,95.4z M362,458H150V119.9H362V458z"/>
	<path d="M167.7,151.5v112.8c0,6.8,5.5,12.3,12.3,12.3H332c6.8,0,12.3-5.5,12.3-12.3V151.5c0-6.8-5.5-12.3-12.3-12.3H180
		C173.2,139.3,167.7,144.8,167.7,151.5z M192.2,163.8h127.6v88.3H192.2V163.8z"/>
	<circle cx="256" cy="312.5" r="14.6"/>
	<circle cx="304" cy="312.5" r="14.6"/>
	<circle cx="208" cy="312.5" r="14.6"/>
	<circle cx="256" cy="357.5" r="14.6"/>
	<circle cx="304" cy="357.5" r="14.6"/>
	<circle cx="208" cy="357.5" r="14.6"/>
	<circle cx="256" cy="402.5" r="14.6"/>
	<circle cx="304" cy="402.5" r="14.6"/>
	<circle cx="208" cy="402.5" r="14.6"/>
	<path d="M80.1,289c0-13.5,4.1-26.3,11.8-37.2c3.9-5.5,2.6-13.2-2.9-17.1c-5.5-3.9-13.2-2.6-17.1,2.9c-10.7,15-16.3,32.8-16.3,51.3
		c0,18.6,5.6,36.3,16.3,51.3c2.4,3.4,6.2,5.2,10,5.2c2.5,0,4.9-0.7,7.1-2.3c5.5-3.9,6.8-11.6,2.9-17.1
		C84.2,315.2,80.1,302.4,80.1,289z"/>
	<path d="M35.8,289c0-24.8,7.5-48.5,21.7-68.5c3.9-5.5,2.6-13.2-2.9-17.1c-5.5-3.9-13.2-2.6-17.1,2.9
		c-17.2,24.2-26.2,52.7-26.2,82.6c0,29.9,9.1,58.5,26.2,82.6c2.4,3.4,6.2,5.2,10,5.2c2.5,0,4.9-0.7,7.1-2.3
		c5.5-3.9,6.8-11.6,2.9-17.1C43.3,337.4,35.8,313.7,35.8,289z"/>
	<path d="M440.1,237.6c-3.9-5.5-11.6-6.8-17.1-2.9c-5.5,3.9-6.8,11.6-2.9,17.1c7.7,10.8,11.8,23.7,11.8,37.2
		c0,13.5-4.1,26.3-11.8,37.1c-3.9,5.5-2.6,13.2,2.9,17.1c2.2,1.5,4.6,2.3,7.1,2.3c3.8,0,7.6-1.8,10-5.2c10.7-15,16.3-32.8,16.3-51.3
		S450.7,252.6,440.1,237.6z"/>
	<path d="M457.4,203.4c-5.5,3.9-6.8,11.6-2.9,17.1c14.2,20,21.7,43.7,21.7,68.5c0,24.8-7.5,48.4-21.7,68.5
		c-3.9,5.5-2.6,13.2,2.9,17.1c2.2,1.5,4.6,2.3,7.1,2.3c3.8,0,7.6-1.8,10-5.2c17.2-24.2,26.2-52.7,26.2-82.6
		c0-29.9-9.1-58.5-26.2-82.6C470.5,200.8,462.9,199.5,457.4,203.4z"/>
</g>
</svg>
