<?xml version="1.0" encoding="utf-8"?>
<!-- Generator: Adobe Illustrator 18.0.0, SVG Export Plug-In . SVG Version: 6.00 Build 0)  -->
<!DOCTYPE svg PUBLIC "-//W3C//DTD SVG 1.1//EN" "http://www.w3.org/Graphics/SVG/1.1/DTD/svg11.dtd">
<svg version="1.1" id="Artwork" xmlns="http://www.w3.org/2000/svg" xmlns:xlink="http://www.w3.org/1999/xlink" x="0px" y="0px"
	 viewBox="0 0 512 512" enable-background="new 0 0 512 512" xml:space="preserve">
<g>
	<path d="M384.1,83.1H185.9V24c0-6.8-5.5-12.3-12.3-12.3c-6.8,0-12.3,5.5-12.3,12.3v59.1h-33.5c-6.8,0-12.3,5.5-12.3,12.3V488
		c0,6.8,5.5,12.3,12.3,12.3h256.2c6.8,0,12.3-5.5,12.3-12.3V95.3C396.3,88.6,390.8,83.1,384.1,83.1z M371.8,475.8H140.2V107.6h231.7
		V475.8z"/>
	<path d="M161.4,142.9V265c0,6.8,5.5,12.3,12.3,12.3h164.7c6.8,0,12.3-5.5,12.3-12.3V142.9c0-6.8-5.5-12.3-12.3-12.3H173.7
		C166.9,130.6,161.4,136.1,161.4,142.9z M185.9,155.1h140.2v97.6H185.9V155.1z"/>
	<circle cx="256" cy="322.6" r="15.8"/>
	<circle cx="308" cy="322.6" r="15.8"/>
	<circle cx="204" cy="322.6" r="15.8"/>
	<circle cx="256" cy="371.4" r="15.8"/>
	<circle cx="308" cy="371.4" r="15.8"/>
	<circle cx="204" cy="371.4" r="15.8"/>
	<circle cx="256" cy="420.1" r="15.8"/>
	<circle cx="308" cy="420.1" r="15.8"/>
	<circle cx="204" cy="420.1" r="15.8"/>
</g>
</svg>
