<?xml version="1.0" encoding="utf-8"?>
<!-- Generator: Adobe Illustrator 18.0.0, SVG Export Plug-In . SVG Version: 6.00 Build 0)  -->
<!DOCTYPE svg PUBLIC "-//W3C//DTD SVG 1.1//EN" "http://www.w3.org/Graphics/SVG/1.1/DTD/svg11.dtd">
<svg version="1.1" id="Artwork" xmlns="http://www.w3.org/2000/svg" xmlns:xlink="http://www.w3.org/1999/xlink" x="0px" y="0px"
	 viewBox="0 0 512 512" enable-background="new 0 0 512 512" xml:space="preserve">
<g>
	<path d="M321.3,121.3c3.8,0,7.6-1.8,10-5.2c3.9-5.5,2.6-13.2-2.9-17.1c-21.2-15-46.2-23-72.4-23c-26.2,0-51.2,7.9-72.4,23
		c-5.5,3.9-6.8,11.6-2.9,17.1c3.9,5.5,11.6,6.8,17.1,2.9c17-12.1,37.1-18.5,58.2-18.5c21.1,0,41.2,6.4,58.2,18.5
		C316.4,120.6,318.8,121.3,321.3,121.3z"/>
	<path d="M256,141c-11.8,0-23.1,3.6-32.7,10.4c-5.5,3.9-6.8,11.6-2.9,17.1c3.9,5.5,11.6,6.8,17.1,2.9c10.8-7.7,26.2-7.7,37,0
		c2.2,1.5,4.6,2.3,7.1,2.3c3.8,0,7.6-1.8,10-5.2c3.9-5.5,2.6-13.2-2.9-17.1C279.1,144.6,267.8,141,256,141z"/>
	<path d="M374.6,48.4C339.9,23.8,298.9,10.7,256,10.7c-42.9,0-83.9,13-118.6,37.6c-5.5,3.9-6.8,11.6-2.9,17.1
		c3.9,5.5,11.6,6.8,17.1,2.9c30.5-21.7,66.6-33.1,104.4-33.1c37.8,0,73.9,11.5,104.4,33.1c2.2,1.5,4.6,2.3,7.1,2.3
		c3.8,0,7.6-1.8,10-5.2C381.4,59.9,380.1,52.3,374.6,48.4z"/>
	<path d="M259.6,205.9h-7.3c-54.5,0-98.9,44.4-98.9,98.9v97.6c0,54.5,44.4,98.9,98.9,98.9h7.3c54.5,0,98.9-44.4,98.9-98.9v-97.6
		C358.5,250.3,314.2,205.9,259.6,205.9z M333.5,296.3h-65.3v-65.3C302.4,234.9,329.6,262.1,333.5,296.3z M243.7,230.9v65.3h-65.3
		C182.4,262.1,209.6,234.9,243.7,230.9z M259.6,476.8h-7.3c-41,0-74.4-33.4-74.4-74.4v-81.6H334v81.6
		C334,443.4,300.7,476.8,259.6,476.8z"/>
</g>
</svg>
