<?xml version="1.0" encoding="utf-8"?>
<!-- Generator: Adobe Illustrator 18.0.0, SVG Export Plug-In . SVG Version: 6.00 Build 0)  -->
<!DOCTYPE svg PUBLIC "-//W3C//DTD SVG 1.1//EN" "http://www.w3.org/Graphics/SVG/1.1/DTD/svg11.dtd">
<svg version="1.1" id="Artwork" xmlns="http://www.w3.org/2000/svg" xmlns:xlink="http://www.w3.org/1999/xlink" x="0px" y="0px"
	 viewBox="0 0 512 512" enable-background="new 0 0 512 512" xml:space="preserve">
<g>
	<path d="M243,280.8v44.5c0,6.8,5.5,12.3,12.3,12.3s12.2-5.5,12.2-12.3v-44.5c0-6.8-5.5-12.3-12.2-12.3S243,274,243,280.8z"/>
	<path d="M291.5,176.9h85.8c26.7,0,48.5-21.7,48.5-48.5c0-26.7-21.7-48.5-48.5-48.5H134.7c-13.2,0-24-10.7-24-24V23.9
		c0-6.8-5.5-12.3-12.3-12.3s-12.3,5.5-12.3,12.3v32.2c0,26.7,21.7,48.5,48.5,48.5h242.6c13.2,0,24,10.7,24,24c0,13.2-10.7,24-24,24
		h-85.8c-26.7,0-48.5,21.7-48.5,48.5v14.8c-48.9,5.9-87,47.6-87,98.1v87.6c0,54.5,44.4,98.9,98.9,98.9h0.7
		c54.5,0,98.9-44.4,98.9-98.9v-87.6c0-50.5-38.1-92.2-87-98.1v-14.8C267.5,187.7,278.3,176.9,291.5,176.9z M330,313.8v87.6
		c0,41-33.4,74.4-74.4,74.4h-0.7c-41,0-74.4-33.4-74.4-74.4v-87.6c0-41,33.4-74.4,74.4-74.4h0.7C296.6,239.4,330,272.8,330,313.8z"
		/>
</g>
</svg>
