<?xml version="1.0" encoding="utf-8"?>
<!-- Generator: Adobe Illustrator 18.0.0, SVG Export Plug-In . SVG Version: 6.00 Build 0)  -->
<!DOCTYPE svg PUBLIC "-//W3C//DTD SVG 1.1//EN" "http://www.w3.org/Graphics/SVG/1.1/DTD/svg11.dtd">
<svg version="1.1" id="Artwork" xmlns="http://www.w3.org/2000/svg" xmlns:xlink="http://www.w3.org/1999/xlink" x="0px" y="0px"
	 viewBox="0 0 512 512" enable-background="new 0 0 512 512" xml:space="preserve">
<g>
	<path d="M381.5,11.3h-251c-30.4,0-55.1,24.7-55.1,55.1v379.2c0,30.4,24.7,55.1,55.1,55.1h251c30.4,0,55.1-24.7,55.1-55.1V66.4
		C436.6,36,411.9,11.3,381.5,11.3z M412.1,445.6c0,16.9-13.7,30.6-30.6,30.6h-251c-16.9,0-30.6-13.7-30.6-30.6V66.4
		c0-16.9,13.7-30.6,30.6-30.6h251c16.9,0,30.6,13.7,30.6,30.6V445.6z"/>
	<path d="M372.2,67.2H139.8c-6.8,0-12.3,5.5-12.3,12.3V240c0,6.8,5.5,12.3,12.3,12.3h232.5c6.8,0,12.3-5.5,12.3-12.3V79.5
		C384.5,72.7,379,67.2,372.2,67.2z M360,227.7H152v-136h208V227.7z"/>
	<path d="M256,278.1c-48.6,0-88.2,39.6-88.2,88.2c0,48.6,39.6,88.2,88.2,88.2s88.2-39.6,88.2-88.2
		C344.2,317.7,304.6,278.1,256,278.1z M256,430c-35.1,0-63.7-28.6-63.7-63.7c0-35.1,28.6-63.7,63.7-63.7s63.7,28.6,63.7,63.7
		C319.7,401.4,291.1,430,256,430z"/>
</g>
</svg>
