<?xml version="1.0" encoding="utf-8"?>
<!-- Generator: Adobe Illustrator 18.0.0, SVG Export Plug-In . SVG Version: 6.00 Build 0)  -->
<!DOCTYPE svg PUBLIC "-//W3C//DTD SVG 1.1//EN" "http://www.w3.org/Graphics/SVG/1.1/DTD/svg11.dtd">
<svg version="1.1" id="Artwork" xmlns="http://www.w3.org/2000/svg" xmlns:xlink="http://www.w3.org/1999/xlink" x="0px" y="0px"
	 viewBox="0 0 512 512" enable-background="new 0 0 512 512" xml:space="preserve">
<g>
	<path d="M80.4,163.5v112.5c0,6.8,5.5,12.3,12.3,12.3h162.9c6.8,0,12.2-5.5,12.2-12.3V163.5c0-6.8-5.5-12.3-12.2-12.3H92.7
		C85.9,151.2,80.4,156.7,80.4,163.5z M104.9,175.7h138.4v88H104.9V175.7z"/>
	<path d="M174.1,314.4c-38.6,0-70.1,31.4-70.1,70.1c0,38.6,31.4,70.1,70.1,70.1c38.6,0,70.1-31.4,70.1-70.1
		C244.2,345.9,212.8,314.4,174.1,314.4z M174.1,430.1c-25.1,0-45.6-20.4-45.6-45.6s20.4-45.6,45.6-45.6s45.6,20.4,45.6,45.6
		S199.3,430.1,174.1,430.1z"/>
	<path d="M475.7,498.8c6.8,0,12.3-5.5,12.3-12.3V335.5c0-6.8-5.5-12.3-12.3-12.3s-12.3,5.5-12.3,12.3v151.1
		C463.5,493.3,469,498.8,475.7,498.8z"/>
	<path d="M488,256.6V74c0-34.9-28.4-63.2-63.2-63.2H225.1c-34.9,0-63.2,28.4-63.2,63.2v21.9H79.1c-30.4,0-55.1,24.7-55.1,55.1v295
		c0,30.4,24.7,55.1,55.1,55.1h190c30.4,0,55.1-24.7,55.1-55.1v-295c0-30.4-24.7-55.1-55.1-55.1h-82.7V74c0-21.3,17.4-38.7,38.7-38.7
		h199.7c21.3,0,38.7,17.4,38.7,38.7v182.6c0,16.3-13.3,29.6-29.6,29.6c-29.9,0-54.2,24.3-54.2,54.1v146.1c0,6.8,5.5,12.3,12.3,12.3
		s12.3-5.5,12.3-12.3V340.4c0-16.3,13.3-29.6,29.7-29.6C463.7,310.8,488,286.5,488,256.6z M299.8,151.1v295
		c0,16.9-13.7,30.6-30.6,30.6h-190c-16.9,0-30.6-13.7-30.6-30.6v-295c0-16.9,13.7-30.6,30.6-30.6h190
		C286,120.4,299.8,134.2,299.8,151.1z"/>
	<path d="M428.8,442.5l-0.1,32.1c0,6.8,5.4,12.3,12.2,12.3c0,0,0,0,0,0c6.7,0,12.2-5.5,12.2-12.2l0.1-32.1c0-6.8-5.4-12.3-12.2-12.3
		C434.6,430.3,428.9,435.8,428.8,442.5z"/>
	<path d="M357.2,486.7c6.7,0,12.2-5.5,12.2-12.2l0.1-32.1c0-6.8-5.4-12.3-12.2-12.3c0,0,0,0,0,0c-6.7,0-12.2,5.5-12.2,12.2
		l-0.1,32.1C344.9,481.2,350.4,486.7,357.2,486.7C357.2,486.7,357.2,486.7,357.2,486.7z"/>
</g>
</svg>
