<?xml version="1.0" encoding="utf-8"?>
<!-- Generator: Adobe Illustrator 18.0.0, SVG Export Plug-In . SVG Version: 6.00 Build 0)  -->
<!DOCTYPE svg PUBLIC "-//W3C//DTD SVG 1.1//EN" "http://www.w3.org/Graphics/SVG/1.1/DTD/svg11.dtd">
<svg version="1.1" id="Artwork" xmlns="http://www.w3.org/2000/svg" xmlns:xlink="http://www.w3.org/1999/xlink" x="0px" y="0px"
	 viewBox="0 0 512 512" enable-background="new 0 0 512 512" xml:space="preserve">
<g>
	<path d="M223.5,218.2c-6.8,0-12.3,5.5-12.3,12.3c0,6.8,5.5,12.3,12.3,12.3h65c6.8,0,12.3-5.5,12.3-12.3c0-6.8-5.5-12.3-12.3-12.3
		h-20.2v-17.3h68.4c16,0,29-13,29-29V56c0-16-13-29-29-29H175.3c-16,0-29,13-29,29V172c0,16,13,29,29,29h68.4v17.3H223.5z
		 M170.8,172V56c0-2.5,2-4.5,4.5-4.5h161.4c2.5,0,4.5,2,4.5,4.5V172c0,2.5-2,4.5-4.5,4.5H175.3C172.8,176.4,170.8,174.4,170.8,172z"
		/>
	<path d="M165,472.7c0-6.8-5.5-12.3-12.3-12.3h-20.2v-17.3H201c16,0,29-13,29-29V298.2c0-16-13-29-29-29H39.6c-16,0-29,13-29,29
		v115.9c0,16,13,29,29,29H108v17.3H87.8c-6.8,0-12.3,5.5-12.3,12.3c0,6.8,5.5,12.3,12.3,12.3h65C159.5,484.9,165,479.5,165,472.7z
		 M35.1,414.2V298.2c0-2.5,2-4.5,4.5-4.5H201c2.5,0,4.5,2,4.5,4.5v115.9c0,2.5-2,4.5-4.5,4.5H39.6C37.1,418.6,35.1,416.6,35.1,414.2
		z"/>
	<path d="M472.4,443.1c16,0,29-13,29-29V298.2c0-16-13-29-29-29H311c-16,0-29,13-29,29v115.9c0,16,13,29,29,29h68.4v17.3h-20.2
		c-6.8,0-12.3,5.5-12.3,12.3c0,6.8,5.5,12.3,12.3,12.3h65c6.8,0,12.3-5.5,12.3-12.3c0-6.8-5.5-12.3-12.3-12.3H404v-17.3H472.4z
		 M306.5,414.2V298.2c0-2.5,2-4.5,4.5-4.5h161.4c2.5,0,4.5,2,4.5,4.5v115.9c0,2.5-2,4.5-4.5,4.5H311
		C308.5,418.6,306.5,416.6,306.5,414.2z"/>
	<path d="M50.3,86.2c-6.8,0-12.3,5.5-12.3,12.3v132c0,6.8,5.5,12.3,12.3,12.3s12.3-5.5,12.3-12.3V110.7H113
		c6.8,0,12.3-5.5,12.3-12.3c0-6.8-5.5-12.3-12.3-12.3H50.3z"/>
	<path d="M386.7,98.5c0,6.8,5.5,12.3,12.3,12.3h50.5v119.8c0,6.8,5.5,12.3,12.3,12.3s12.3-5.5,12.3-12.3v-132
		c0-6.8-5.5-12.3-12.3-12.3H399C392.2,86.2,386.7,91.7,386.7,98.5z"/>
</g>
</svg>
