<?xml version="1.0" encoding="utf-8"?>
<!-- Generator: Adobe Illustrator 18.0.0, SVG Export Plug-In . SVG Version: 6.00 Build 0)  -->
<!DOCTYPE svg PUBLIC "-//W3C//DTD SVG 1.1//EN" "http://www.w3.org/Graphics/SVG/1.1/DTD/svg11.dtd">
<svg version="1.1" id="Artwork" xmlns="http://www.w3.org/2000/svg" xmlns:xlink="http://www.w3.org/1999/xlink" x="0px" y="0px"
	 viewBox="0 0 512 512" enable-background="new 0 0 512 512" xml:space="preserve">
<g>
	<path d="M336.7,443.1c16,0,29-13,29-29V298.2c0-16-13-29-29-29H175.3c-16,0-29,13-29,29v115.9c0,16,13,29,29,29h68.4v17.3h-20.2
		c-6.8,0-12.3,5.5-12.3,12.3c0,6.8,5.5,12.3,12.3,12.3h65c6.8,0,12.3-5.5,12.3-12.3c0-6.8-5.5-12.3-12.3-12.3h-20.2v-17.3H336.7z
		 M170.8,414.2V298.2c0-2.5,2-4.5,4.5-4.5h161.4c2.5,0,4.5,2,4.5,4.5v115.9c0,2.5-2,4.5-4.5,4.5H175.3
		C172.8,418.6,170.8,416.6,170.8,414.2z"/>
	<path d="M472.4,27.1H311c-16,0-29,13-29,29V172c0,16,13,29,29,29h68.4v17.3h-20.2c-6.8,0-12.3,5.5-12.3,12.3
		c0,6.8,5.5,12.3,12.3,12.3h65c6.8,0,12.3-5.5,12.3-12.3c0-6.8-5.5-12.3-12.3-12.3H404v-17.3h68.4c16,0,29-13,29-29V56
		C501.4,40.1,488.4,27.1,472.4,27.1z M476.9,172c0,2.5-2,4.5-4.5,4.5H311c-2.5,0-4.5-2-4.5-4.5V56c0-2.5,2-4.5,4.5-4.5h161.4
		c2.5,0,4.5,2,4.5,4.5V172z"/>
	<path d="M165,230.5c0-6.8-5.5-12.3-12.3-12.3h-20.2v-17.3H201c16,0,29-13,29-29V56c0-16-13-29-29-29H39.6c-16,0-29,13-29,29V172
		c0,16,13,29,29,29H108v17.3H87.8c-6.8,0-12.3,5.5-12.3,12.3c0,6.8,5.5,12.3,12.3,12.3h65C159.5,242.7,165,237.3,165,230.5z
		 M35.1,172V56c0-2.5,2-4.5,4.5-4.5H201c2.5,0,4.5,2,4.5,4.5V172c0,2.5-2,4.5-4.5,4.5H39.6C37.1,176.4,35.1,174.4,35.1,172z"/>
	<path d="M461.7,269.3c-6.8,0-12.3,5.5-12.3,12.3v119.8H399c-6.8,0-12.3,5.5-12.3,12.3c0,6.8,5.5,12.3,12.3,12.3h62.7
		c6.8,0,12.3-5.5,12.3-12.3v-132C473.9,274.7,468.5,269.3,461.7,269.3z"/>
	<path d="M50.3,269.3c-6.8,0-12.3,5.5-12.3,12.3v132c0,6.8,5.5,12.3,12.3,12.3H113c6.8,0,12.3-5.5,12.3-12.3
		c0-6.8-5.5-12.3-12.3-12.3H62.6V281.5C62.6,274.7,57.1,269.3,50.3,269.3z"/>
</g>
</svg>
