<?xml version="1.0" encoding="utf-8"?>
<!-- Generator: Adobe Illustrator 18.0.0, SVG Export Plug-In . SVG Version: 6.00 Build 0)  -->
<!DOCTYPE svg PUBLIC "-//W3C//DTD SVG 1.1//EN" "http://www.w3.org/Graphics/SVG/1.1/DTD/svg11.dtd">
<svg version="1.1" id="Artwork" xmlns="http://www.w3.org/2000/svg" xmlns:xlink="http://www.w3.org/1999/xlink" x="0px" y="0px"
	 viewBox="0 0 512 512" enable-background="new 0 0 512 512" xml:space="preserve">
<g>
	<path d="M282.2,145.5L227,90.4l9.9-9.9c4.8-4.8,4.8-12.5,0-17.3c-4.8-4.8-12.5-4.8-17.3,0l-40.5,40.5l-67-67
		c-4.8-4.8-12.5-4.8-17.3,0c-4.8,4.8-4.8,12.5,0,17.3l67,67l-62.6,62.6l-67-67c-4.8-4.8-12.5-4.8-17.3,0c-4.8,4.8-4.8,12.5,0,17.3
		l67,67l-40.5,40.5c-4.8,4.8-4.8,12.5,0,17.3c2.4,2.4,5.5,3.6,8.7,3.6s6.3-1.2,8.7-3.6l9.9-9.9l55.1,55.1
		c21.8,21.8,50.5,32.7,79.2,32.7c11.8,0,23.7-2,35-5.7l31.5,31.5c5.8,5.7,13.3,8.6,20.9,8.6c7.6,0,15.1-2.9,20.9-8.6l6.1-6.1
		l3.7,3.7c20.7,20.7,54.3,20.7,75,0l31.4-31.4c11.1-11.1,29.2-11.1,40.4,0c11.1,11.1,11.1,29.2,0,40.4l-31.4,31.5
		c-10,10-15.5,23.3-15.5,37.5s5.5,27.5,15.5,37.5c2.4,2.4,5.5,3.6,8.7,3.6s6.3-1.2,8.7-3.6c4.8-4.8,4.8-12.5,0-17.3
		c-5.4-5.4-8.4-12.6-8.4-20.2s3-14.8,8.4-20.2l31.4-31.5c20.7-20.7,20.7-54.3,0-75c-20.7-20.7-54.3-20.7-75,0l-31.4,31.4
		c-11.1,11.1-29.2,11.1-40.4,0l-3.7-3.7l6.1-6.1c5.6-5.6,8.6-13,8.6-20.9c0-7.9-3.1-15.3-8.6-20.9l-31.5-31.5
		C322,220.8,313,176.4,282.2,145.5z M141.2,286.6L86,231.4l123.7-123.7l55.1,55.1c34.1,34.1,34.1,89.6,0,123.7
		C230.8,320.7,175.3,320.7,141.2,286.6z M323.4,308.5c1.3,1.3,1.5,2.8,1.5,3.5c0,0.8-0.2,2.3-1.5,3.5l-29.5,29.5c-2,2-5.1,2-7.1,0
		L261.7,320c7.3-4.5,14.2-9.8,20.5-16.1s11.6-13.2,16.1-20.5L323.4,308.5z"/>
</g>
</svg>
