<?xml version="1.0" encoding="utf-8"?>
<!-- Generator: Adobe Illustrator 18.0.0, SVG Export Plug-In . SVG Version: 6.00 Build 0)  -->
<!DOCTYPE svg PUBLIC "-//W3C//DTD SVG 1.1//EN" "http://www.w3.org/Graphics/SVG/1.1/DTD/svg11.dtd">
<svg version="1.1" id="Artwork" xmlns="http://www.w3.org/2000/svg" xmlns:xlink="http://www.w3.org/1999/xlink" x="0px" y="0px"
	 viewBox="0 0 512 512" enable-background="new 0 0 512 512" xml:space="preserve">
<g>
	<path d="M176.2,501h159.5c12.9,0,23.3-10.5,23.3-23.3v-47.3h27.5c18.3,0,33.1-14.8,33.1-33.1V276.8c0-18.3-14.8-33.1-33.1-33.1H359
		v-57.4c0-12.9-10.5-23.3-23.3-23.3H176.2c-12.9,0-23.3,10.5-23.3,23.3v57.4h-27.4c-18.3,0-33.1,14.8-33.1,33.1v120.5
		c0,18.3,14.8,33.1,33.1,33.1h27.5v47.3C152.9,490.6,163.4,501,176.2,501z M334.6,476.5H177.4V349.3h157.2V476.5z M177.4,187.4
		h157.2v56.2H177.4V187.4z M125.5,405.9c-4.7,0-8.6-3.9-8.6-8.6V276.8c0-4.7,3.9-8.6,8.6-8.6h261.1c4.7,0,8.6,3.9,8.6,8.6v120.5
		c0,4.7-3.9,8.6-8.6,8.6h-27.5V337c0-6.8-5.5-12.3-12.3-12.3H165.2c-6.8,0-12.3,5.5-12.3,12.3v68.9H125.5z"/>
	<path d="M302.8,400.7h-93.6c-6.8,0-12.3,5.5-12.3,12.3s5.5,12.3,12.3,12.3h93.6c6.8,0,12.3-5.5,12.3-12.3S309.6,400.7,302.8,400.7z
		"/>
	<path d="M302.8,438.1h-93.6c-6.8,0-12.3,5.5-12.3,12.3c0,6.8,5.5,12.3,12.3,12.3h93.6c6.8,0,12.3-5.5,12.3-12.3
		C315,443.6,309.6,438.1,302.8,438.1z"/>
	<path d="M302.8,363.2h-93.6c-6.8,0-12.3,5.5-12.3,12.3c0,6.8,5.5,12.3,12.3,12.3h93.6c6.8,0,12.3-5.5,12.3-12.3
		C315,368.7,309.6,363.2,302.8,363.2z"/>
	<circle cx="144.9" cy="293.6" r="12.1"/>
	<path d="M307,102.7c3.8,0,7.6-1.8,10-5.2c3.9-5.5,2.6-13.2-2.9-17.1C297.1,68.4,277,62,256,62c-21,0-41.1,6.4-58.1,18.4
		c-5.5,3.9-6.8,11.6-2.9,17.1c3.9,5.5,11.6,6.8,17.1,2.9c12.8-9.1,28-13.9,43.9-13.9c15.9,0,31.1,4.8,43.9,13.9
		C302.1,102,304.6,102.7,307,102.7z"/>
	<path d="M256,112.7c-9.8,0-19.2,3-27.1,8.6c-5.5,3.9-6.8,11.6-2.9,17.1c3.9,5.5,11.6,6.8,17.1,2.9c7.5-5.3,18.3-5.3,25.8,0
		c2.2,1.5,4.6,2.3,7.1,2.3c3.8,0,7.6-1.8,10-5.2c3.9-5.5,2.6-13.2-2.9-17.1C275.2,115.7,265.8,112.7,256,112.7z"/>
	<path d="M343.1,63.1c3.8,0,7.6-1.8,10-5.2c3.9-5.5,2.6-13.2-2.9-17.1C322.7,21.3,290.1,11,256,11c-34.1,0-66.7,10.3-94.2,29.9
		c-5.5,3.9-6.8,11.6-2.9,17.1c3.9,5.5,11.6,6.8,17.1,2.9c23.4-16.6,51.1-25.4,80-25.4c29,0,56.6,8.8,80,25.4
		C338.2,62.4,340.7,63.1,343.1,63.1z"/>
</g>
</svg>
