<?xml version="1.0" encoding="utf-8"?>
<!-- Generator: Adobe Illustrator 18.0.0, SVG Export Plug-In . SVG Version: 6.00 Build 0)  -->
<!DOCTYPE svg PUBLIC "-//W3C//DTD SVG 1.1//EN" "http://www.w3.org/Graphics/SVG/1.1/DTD/svg11.dtd">
<svg version="1.1" id="Artwork" xmlns="http://www.w3.org/2000/svg" xmlns:xlink="http://www.w3.org/1999/xlink" x="0px" y="0px"
	 viewBox="0 0 512 512" enable-background="new 0 0 512 512" xml:space="preserve">
<g>
	<path d="M137.8,500.6h236.4c15.8,0,28.6-12.8,28.6-28.6v-76h46.6c23.8,0,43.1-19.4,43.1-43.1V174.2c0-23.8-19.4-43.1-43.1-43.1
		h-46.6v-91c0-15.8-12.9-28.6-28.6-28.6H137.7c-15.8,0-28.6,12.8-28.6,28.6v91H62.6c-23.8,0-43.1,19.4-43.1,43.1v178.6
		c0,23.8,19.4,43.1,43.1,43.1h46.6v76C109.2,487.7,122,500.6,137.8,500.6z M378.3,471.9c0,2.3-1.9,4.1-4.1,4.1H137.8
		c-2.3,0-4.1-1.9-4.1-4.1V275.7h244.7V471.9z M133.6,40.1c0-2.3,1.9-4.1,4.1-4.1h236.4c2.3,0,4.1,1.9,4.1,4.1v91H133.6V40.1z
		 M62.6,371.4c-10.3,0-18.6-8.4-18.6-18.6V174.2c0-10.3,8.4-18.6,18.6-18.6h386.8c10.3,0,18.6,8.4,18.6,18.6v178.6
		c0,10.3-8.4,18.6-18.6,18.6h-46.6V263.5c0-6.8-5.5-12.2-12.3-12.2H121.4c-6.8,0-12.3,5.5-12.3,12.2v107.9H62.6z"/>
	<path d="M82.8,194.4c-2.3,2.3-3.6,5.4-3.6,8.7c0,3.2,1.3,6.4,3.6,8.7c2.3,2.3,5.4,3.6,8.7,3.6c3.2,0,6.4-1.3,8.6-3.6
		c2.3-2.3,3.6-5.4,3.6-8.7c0-3.2-1.3-6.4-3.6-8.7C95.5,189.9,87.3,189.9,82.8,194.4z"/>
	<path d="M332.7,363.7H227.5c-6.8,0-12.3,5.5-12.3,12.3c0,6.8,5.5,12.3,12.3,12.3h105.3c6.8,0,12.3-5.5,12.3-12.3
		C345,369.1,339.5,363.7,332.7,363.7z"/>
	<path d="M332.7,419.1H227.5c-6.8,0-12.3,5.5-12.3,12.3c0,6.8,5.5,12.3,12.3,12.3h105.3c6.8,0,12.3-5.5,12.3-12.3
		C345,424.6,339.5,419.1,332.7,419.1z"/>
	<path d="M332.7,308.2H227.5c-6.8,0-12.3,5.5-12.3,12.3s5.5,12.3,12.3,12.3h105.3c6.8,0,12.3-5.5,12.3-12.3S339.5,308.2,332.7,308.2
		z"/>
	<circle cx="179" cy="320.4" r="14.2"/>
	<circle cx="179" cy="375.9" r="14.2"/>
	<path d="M179,417.2c-7.8,0-14.2,6.3-14.2,14.2c0,7.8,6.3,14.2,14.2,14.2s14.2-6.3,14.2-14.2C193.1,423.5,186.8,417.2,179,417.2z"/>
</g>
</svg>
