<?xml version="1.0" encoding="utf-8"?>
<!-- Generator: Adobe Illustrator 18.0.0, SVG Export Plug-In . SVG Version: 6.00 Build 0)  -->
<!DOCTYPE svg PUBLIC "-//W3C//DTD SVG 1.1//EN" "http://www.w3.org/Graphics/SVG/1.1/DTD/svg11.dtd">
<svg version="1.1" id="Artwork" xmlns="http://www.w3.org/2000/svg" xmlns:xlink="http://www.w3.org/1999/xlink" x="0px" y="0px"
	 viewBox="0 0 512 512" enable-background="new 0 0 512 512" xml:space="preserve">
<g>
	<path d="M397.7,399.9h44.4c23.1,0,42-18.8,42-42V186.1c0-23.1-18.8-42-42-42c-6.8,0-12.3,5.5-12.3,12.3c0,6.8,5.5,12.3,12.3,12.3
		c9.6,0,17.5,7.8,17.5,17.5v171.8c0,9.6-7.8,17.5-17.5,17.5h-44.4v-50c0-6.8-5.5-12.3-12.3-12.3h-259c-6.8,0-12.3,5.5-12.3,12.3v50
		H69.9c-9.6,0-17.5-7.8-17.5-17.5V186.1c0-9.6,7.8-17.5,17.5-17.5c6.8,0,12.3-5.5,12.3-12.3c0-6.8-5.5-12.3-12.3-12.3
		c-23.1,0-42,18.8-42,42v171.8c0,23.1,18.8,42,42,42h44.3v72.7c0,15.5,12.6,28,28,28h227.4c15.5,0,28-12.6,28-28V399.9z
		 M373.2,472.6c0,1.9-1.6,3.5-3.5,3.5H142.3c-1.9,0-3.5-1.6-3.5-3.5v-135h234.5V472.6z"/>
	<path d="M322.7,367.9H189.3c-6.8,0-12.3,5.5-12.3,12.3c0,6.8,5.5,12.3,12.3,12.3h133.4c6.8,0,12.3-5.5,12.3-12.3
		C335,373.4,329.5,367.9,322.7,367.9z"/>
	<path d="M322.7,421.3H189.3c-6.8,0-12.3,5.5-12.3,12.3s5.5,12.3,12.3,12.3h133.4c6.8,0,12.3-5.5,12.3-12.3S329.5,421.3,322.7,421.3
		z"/>
	<path d="M160.4,286.9c4.9,0,9.5-2.1,12.7-5.9l44.3-51.3h158.7c21.1,0,38.2-17.2,38.2-38.2V49.7c0-21.1-17.2-38.2-38.2-38.2H135.9
		c-21.1,0-38.2,17.2-38.2,38.2v141.9c0,21.1,17.2,38.2,38.2,38.2h7.6V270C143.5,279.3,151,286.9,160.4,286.9z M135.9,205.3
		c-7.6,0-13.7-6.2-13.7-13.7V49.7c0-7.6,6.2-13.7,13.7-13.7h240.3c7.6,0,13.7,6.2,13.7,13.7v141.9c0,7.6-6.2,13.7-13.7,13.7H211.8
		c-3.6,0-6.9,1.5-9.3,4.2l-34.6,40v-32c0-6.8-5.5-12.3-12.3-12.3H135.9z"/>
	<circle cx="256" cy="124.1" r="13.3"/>
	<circle cx="300.5" cy="124.1" r="13.3"/>
	<circle cx="211.5" cy="124.1" r="13.3"/>
</g>
</svg>
