<?xml version="1.0" encoding="utf-8"?>
<!-- Generator: Adobe Illustrator 18.0.0, SVG Export Plug-In . SVG Version: 6.00 Build 0)  -->
<!DOCTYPE svg PUBLIC "-//W3C//DTD SVG 1.1//EN" "http://www.w3.org/Graphics/SVG/1.1/DTD/svg11.dtd">
<svg version="1.1" id="Artwork" xmlns="http://www.w3.org/2000/svg" xmlns:xlink="http://www.w3.org/1999/xlink" x="0px" y="0px"
	 viewBox="0 0 512 512" enable-background="new 0 0 512 512" xml:space="preserve">
<g>
	<path d="M492.5,174.2c0-23.8-19.4-43.1-43.1-43.1h-46.6v-91c0-15.8-12.9-28.6-28.6-28.6H137.7c-15.8,0-28.6,12.9-28.6,28.6v91H62.6
		c-23.8,0-43.1,19.4-43.1,43.1v178.6c0,23.8,19.4,43.1,43.1,43.1h46.6v76c0,15.8,12.9,28.6,28.6,28.6h236.4
		c15.8,0,28.6-12.8,28.6-28.6v-52.2c0.6-2.1,0.6-4.3,0-6.4v-17.4h46.6c23.8,0,43.1-19.4,43.1-43.1V174.2z M133.6,40.1
		c0-2.3,1.9-4.1,4.1-4.1h236.4c2.3,0,4.1,1.9,4.1,4.1v91H133.6V40.1z M378.3,386.4l-48-48c-4.8-4.8-12.5-4.8-17.3,0l-79.3,79.3
		l-42.3-42.3c-4.8-4.8-12.5-4.8-17.3,0l-40.4,40.4V275.7h244.7V386.4z M374.2,476.1H137.8c-2.3,0-4.1-1.9-4.1-4.1v-21.4l49.1-49.1
		l42.3,42.3c4.8,4.8,12.5,4.8,17.3,0l79.3-79.3l56.7,56.7v50.9C378.3,474.2,376.5,476.1,374.2,476.1z M468,352.8
		c0,10.3-8.4,18.6-18.6,18.6h-46.6V263.5c0-6.8-5.5-12.2-12.3-12.2H121.4c-6.8,0-12.3,5.5-12.3,12.2v107.9H62.6
		c-10.3,0-18.6-8.4-18.6-18.6V174.2c0-10.3,8.4-18.6,18.6-18.6h386.8c10.3,0,18.6,8.4,18.6,18.6V352.8z"/>
	<path d="M82.8,194.4c-2.3,2.3-3.6,5.4-3.6,8.7c0,3.2,1.3,6.4,3.6,8.7c2.3,2.3,5.4,3.6,8.7,3.6c3.2,0,6.4-1.3,8.7-3.6
		c2.3-2.3,3.6-5.4,3.6-8.7c0-3.2-1.3-6.4-3.6-8.7C95.5,189.9,87.3,189.9,82.8,194.4z"/>
	<path d="M233.7,364.7c19.3,0,35-15.7,35-35c0-19.3-15.7-35-35-35s-35,15.7-35,35C198.7,349,214.4,364.7,233.7,364.7z M233.7,319.1
		c5.8,0,10.5,4.7,10.5,10.5c0,5.8-4.7,10.5-10.5,10.5s-10.5-4.7-10.5-10.5C223.2,323.9,227.9,319.1,233.7,319.1z"/>
</g>
</svg>
