<?xml version="1.0" encoding="utf-8"?>
<!-- Generator: Adobe Illustrator 18.0.0, SVG Export Plug-In . SVG Version: 6.00 Build 0)  -->
<!DOCTYPE svg PUBLIC "-//W3C//DTD SVG 1.1//EN" "http://www.w3.org/Graphics/SVG/1.1/DTD/svg11.dtd">
<svg version="1.1" id="Artwork" xmlns="http://www.w3.org/2000/svg" xmlns:xlink="http://www.w3.org/1999/xlink" x="0px" y="0px"
	 viewBox="0 0 512 512" enable-background="new 0 0 512 512" xml:space="preserve">
<g>
	<path d="M454.5,81.8v-6.2c0-35.5-28.9-64.3-64.3-64.3H122c-35.5,0-64.3,28.9-64.3,64.3v6.2c0,21.4,10.6,40.4,26.7,52.1
		c-16.2,11.7-26.7,30.7-26.7,52.1v6.2c0,21.4,10.6,40.4,26.7,52.1c-16.2,11.7-26.7,30.7-26.7,52.1v6.2c0,35.5,28.9,64.3,64.3,64.3
		h268.2c35.5,0,64.3-28.9,64.3-64.3v-6.2c0-21.4-10.6-40.4-26.7-52.1c16.2-11.7,26.7-30.7,26.7-52.1V186c0-21.4-10.6-40.4-26.7-52.1
		C444,122.2,454.5,103.2,454.5,81.8z M430,296.3v6.2c0,22-17.9,39.8-39.8,39.8H122c-22,0-39.8-17.9-39.8-39.8v-6.2
		c0-22,17.9-39.8,39.8-39.8h268.2C412.2,256.5,430,274.3,430,296.3z M430,186v6.2c0,22-17.9,39.8-39.8,39.8H122
		c-22,0-39.8-17.9-39.8-39.8V186c0-22,17.9-39.8,39.8-39.8h268.2C412.2,146.1,430,164,430,186z M430,81.8c0,22-17.9,39.8-39.8,39.8
		H122c-22,0-39.8-17.9-39.8-39.8v-6.2c0-22,17.9-39.8,39.8-39.8h268.2c22,0,39.8,17.9,39.8,39.8V81.8z"/>
	<path d="M363.6,66.4H252.2c-6.8,0-12.3,5.5-12.3,12.3s5.5,12.3,12.3,12.3h111.4c6.8,0,12.3-5.5,12.3-12.3S370.4,66.4,363.6,66.4z"
		/>
	<circle cx="161.2" cy="78.7" r="12.6"/>
	<path d="M252.2,201.3h111.4c6.8,0,12.3-5.5,12.3-12.3s-5.5-12.3-12.3-12.3H252.2c-6.8,0-12.3,5.5-12.3,12.3
		S245.4,201.3,252.2,201.3z"/>
	<circle cx="161.2" cy="189" r="12.6"/>
	<path d="M252.2,311.6h111.4c6.8,0,12.3-5.5,12.3-12.3s-5.5-12.3-12.3-12.3H252.2c-6.8,0-12.3,5.5-12.3,12.3
		S245.4,311.6,252.2,311.6z"/>
	<circle cx="161.2" cy="299.4" r="12.6"/>
	<path d="M292.8,474.3h102c5.1,15.3,19.6,26.4,36.7,26.4c21.3,0,38.7-17.4,38.7-38.7s-17.4-38.7-38.7-38.7
		c-17.1,0-31.5,11.1-36.7,26.4h-102c-3.8-11.5-12.9-20.6-24.4-24.4v-25.5c0-6.8-5.5-12.3-12.3-12.3c-6.8,0-12.3,5.5-12.3,12.3v25.5
		c-11.5,3.8-20.6,12.9-24.4,24.4H117.2c-5.1-15.3-19.6-26.4-36.7-26.4c-21.3,0-38.7,17.4-38.7,38.7s17.4,38.7,38.7,38.7
		c17.1,0,31.5-11.1,36.7-26.4h102.2c5.1,15.3,19.6,26.4,36.7,26.4C273.1,500.7,287.6,489.6,292.8,474.3z M431.5,447.9
		c7.8,0,14.2,6.4,14.2,14.2c0,7.8-6.4,14.2-14.2,14.2c-7.8,0-14.2-6.4-14.2-14.2C417.3,454.2,423.6,447.9,431.5,447.9z M80.5,476.2
		c-7.8,0-14.2-6.4-14.2-14.2c0-7.8,6.4-14.2,14.2-14.2s14.2,6.4,14.2,14.2C94.7,469.9,88.4,476.2,80.5,476.2z M256.1,476.2
		c-7.8,0-14.2-6.4-14.2-14.2c0-7.8,6.4-14.2,14.2-14.2c7.8,0,14.2,6.4,14.2,14.2C270.3,469.9,263.9,476.2,256.1,476.2z"/>
</g>
</svg>
