<?xml version="1.0" encoding="utf-8"?>
<!-- Generator: Adobe Illustrator 18.0.0, SVG Export Plug-In . SVG Version: 6.00 Build 0)  -->
<!DOCTYPE svg PUBLIC "-//W3C//DTD SVG 1.1//EN" "http://www.w3.org/Graphics/SVG/1.1/DTD/svg11.dtd">
<svg version="1.1" id="Artwork" xmlns="http://www.w3.org/2000/svg" xmlns:xlink="http://www.w3.org/1999/xlink" x="0px" y="0px"
	 viewBox="0 0 512 512" enable-background="new 0 0 512 512" xml:space="preserve">
<g>
	<path d="M500.4,347.1c0-7.5-1.2-14.7-3.3-21.5L445.3,123c-6.9-29-32.4-49.2-62.2-49.2H129.9c-29.4,0-54.8,19.9-62,48.3L13.6,330.4
		c-0.1,0.2-0.1,0.4-0.1,0.6c-1.2,5.2-1.9,10.6-1.9,16.1v20c0,39.2,31.9,71,71.1,71h346.7c39.2,0,71-31.9,71-71V347.1z M91.7,128.2
		c4.4-17.6,20.1-29.8,38.2-29.8h253.3c18.3,0,34.1,12.5,38.4,30.5L461,283.6c-9.6-4.8-20.3-7.6-31.7-7.6H82.7
		c-11.3,0-22,2.7-31.5,7.5L91.7,128.2z M475.9,367.1c0,25.7-20.9,46.5-46.5,46.5H82.7c-25.7,0-46.6-20.9-46.6-46.5v-20
		c0-25.7,20.9-46.6,46.6-46.6h346.7c20.6,0,38.1,13.5,44.2,32.1l1.5,5.9c0.5,2.8,0.8,5.6,0.8,8.5V367.1z"/>
	<path d="M390,344.9H251.1c-6.8,0-12.3,5.5-12.3,12.3c0,6.8,5.5,12.3,12.3,12.3H390c6.8,0,12.3-5.5,12.3-12.3
		C402.3,350.4,396.8,344.9,390,344.9z"/>
	<circle cx="137.7" cy="357.1" r="15.7"/>
</g>
</svg>
