<?xml version="1.0" encoding="utf-8"?>
<!-- Generator: Adobe Illustrator 18.0.0, SVG Export Plug-In . SVG Version: 6.00 Build 0)  -->
<!DOCTYPE svg PUBLIC "-//W3C//DTD SVG 1.1//EN" "http://www.w3.org/Graphics/SVG/1.1/DTD/svg11.dtd">
<svg version="1.1" id="Artwork" xmlns="http://www.w3.org/2000/svg" xmlns:xlink="http://www.w3.org/1999/xlink" x="0px" y="0px"
	 viewBox="0 0 512 512" enable-background="new 0 0 512 512" xml:space="preserve">
<g>
	<path d="M250.9,130.8h139c6.8,0,12.3-5.5,12.3-12.3s-5.5-12.3-12.3-12.3h-139c-6.8,0-12.3,5.5-12.3,12.3S244.2,130.8,250.9,130.8z"
		/>
	<circle cx="137.4" cy="118.6" r="15.8"/>
	<path d="M389.9,244h-139c-6.8,0-12.3,5.5-12.3,12.3s5.5,12.3,12.3,12.3h139c6.8,0,12.3-5.5,12.3-12.3S396.7,244,389.9,244z"/>
	<circle cx="137.4" cy="256.2" r="15.8"/>
	<path d="M389.9,381.7h-139c-6.8,0-12.3,5.5-12.3,12.3s5.5,12.3,12.3,12.3h139c6.8,0,12.3-5.5,12.3-12.3S396.7,381.7,389.9,381.7z"
		/>
	<circle cx="137.4" cy="393.9" r="15.8"/>
	<path d="M500.3,462.3V49.7c0-6.8-5.5-12.3-12.3-12.3H23.9c-6.8,0-12.2,5.5-12.2,12.3v412.5c0,6.8,5.5,12.3,12.2,12.3h464.2
		C494.9,474.5,500.3,469,500.3,462.3z M36.2,199.7h439.7v113.2H36.2V199.7z M475.8,62v113.2H36.2V62H475.8z M36.2,450V337.3h439.7
		V450H36.2z"/>
</g>
</svg>
