<?xml version="1.0" encoding="utf-8"?>
<!-- Generator: Adobe Illustrator 18.0.0, SVG Export Plug-In . SVG Version: 6.00 Build 0)  -->
<!DOCTYPE svg PUBLIC "-//W3C//DTD SVG 1.1//EN" "http://www.w3.org/Graphics/SVG/1.1/DTD/svg11.dtd">
<svg version="1.1" id="Artwork" xmlns="http://www.w3.org/2000/svg" xmlns:xlink="http://www.w3.org/1999/xlink" x="0px" y="0px"
	 viewBox="0 0 512 512" enable-background="new 0 0 512 512" xml:space="preserve">
<g>
	<path d="M390.3,105.9H251.1c-6.8,0-12.3,5.5-12.3,12.3s5.5,12.3,12.3,12.3h139.2c6.8,0,12.3-5.5,12.3-12.3S397.1,105.9,390.3,105.9
		z"/>
	<circle cx="137.5" cy="118.1" r="15.8"/>
	<path d="M390.3,243.8H251.1c-6.8,0-12.3,5.5-12.3,12.3s5.5,12.3,12.3,12.3h139.2c6.8,0,12.3-5.5,12.3-12.3S397.1,243.8,390.3,243.8
		z"/>
	<circle cx="137.5" cy="256" r="15.8"/>
	<path d="M500.9,404v-20.3c0-24.4-12.4-46-31.2-58.8c18.8-12.8,31.2-34.4,31.2-58.8v-20.3c0-24.4-12.4-46-31.2-58.8
		c18.8-12.8,31.2-34.4,31.2-58.8V108c0-39.2-31.9-71-71.1-71H82.2C43,37,11.1,68.8,11.1,108v20.3c0,24.4,12.4,46,31.2,58.8
		c-18.8,12.8-31.2,34.4-31.2,58.8v20.3c0,24.4,12.4,46,31.2,58.8c-18.8,12.8-31.2,34.4-31.2,58.8V404c0,39.2,31.9,71.1,71.1,71.1
		h347.7C469,475,500.9,443.2,500.9,404z M35.6,128.3V108c0-25.7,20.9-46.5,46.6-46.5h347.7c25.7,0,46.6,20.9,46.6,46.5v20.3
		c0,25.7-20.9,46.6-46.6,46.6H82.2C56.5,174.8,35.6,153.9,35.6,128.3z M35.6,266.1v-20.3c0-25.7,20.9-46.6,46.6-46.6h347.7
		c25.7,0,46.6,20.9,46.6,46.6v20.3c0,25.7-20.9,46.6-46.6,46.6H82.2C56.5,312.7,35.6,291.8,35.6,266.1z M35.6,404v-20.3
		c0-25.7,20.9-46.5,46.6-46.5h347.7c25.7,0,46.6,20.9,46.6,46.5V404c0,25.7-20.9,46.6-46.6,46.6H82.2
		C56.5,450.5,35.6,429.7,35.6,404z"/>
	<path d="M390.3,381.6H251.1c-6.8,0-12.3,5.5-12.3,12.3s5.5,12.3,12.3,12.3h139.2c6.8,0,12.3-5.5,12.3-12.3S397.1,381.6,390.3,381.6
		z"/>
	<circle cx="137.5" cy="393.9" r="15.8"/>
</g>
</svg>
