<?xml version="1.0" encoding="utf-8"?>
<!-- Generator: Adobe Illustrator 18.0.0, SVG Export Plug-In . SVG Version: 6.00 Build 0)  -->
<!DOCTYPE svg PUBLIC "-//W3C//DTD SVG 1.1//EN" "http://www.w3.org/Graphics/SVG/1.1/DTD/svg11.dtd">
<svg version="1.1" id="Artwork" xmlns="http://www.w3.org/2000/svg" xmlns:xlink="http://www.w3.org/1999/xlink" x="0px" y="0px"
	 viewBox="0 0 512 512" enable-background="new 0 0 512 512" xml:space="preserve">
<g>
	<path d="M206.9,202.4h126.5c6.8,0,12.3-5.5,12.3-12.3c0-6.8-5.5-12.3-12.3-12.3H206.9c-6.8,0-12.3,5.5-12.3,12.3
		C194.6,196.9,200.1,202.4,206.9,202.4z"/>
	<circle cx="103.6" cy="190.2" r="14.3"/>
	<path d="M333.4,288.9H206.9c-6.8,0-12.3,5.5-12.3,12.3s5.5,12.3,12.3,12.3h126.5c6.8,0,12.3-5.5,12.3-12.3S340.2,288.9,333.4,288.9
		z"/>
	<circle cx="103.6" cy="301.1" r="14.3"/>
	<path d="M333.4,401.2H206.9c-6.8,0-12.3,5.5-12.3,12.3s5.5,12.3,12.3,12.3h126.5c6.8,0,12.3-5.5,12.3-12.3S340.2,401.2,333.4,401.2
		z"/>
	<circle cx="103.6" cy="413.5" r="14.3"/>
	<path d="M488.1,32.1h-374c-3.2,0-6.4,1.3-8.7,3.6L15.2,126c-2.3,2.3-3.6,5.4-3.6,8.7v332.9c0,6.8,5.5,12.3,12.3,12.3h374.9
		c3.2,0,6.4-1.3,8.7-3.6l89.3-89.3c2.3-2.3,3.6-5.4,3.6-8.7V44.4C500.4,37.6,494.9,32.1,488.1,32.1z M119.2,56.6h339.3l-64.5,64.5
		c-0.4,0.4-0.7,0.9-1.1,1.3H53.4L119.2,56.6z M36.1,146.9h350.4v86.5H36.1L36.1,146.9C36.1,146.9,36.1,146.9,36.1,146.9z
		 M36.1,257.9h350.4v86.5H36.1V257.9z M36.1,368.9h350.4v86.5H36.1V368.9z M411,438V138.7c0.1-0.1,0.2-0.2,0.4-0.3L475.9,74v299.2
		L411,438z"/>
</g>
</svg>
