<?xml version="1.0" encoding="utf-8"?>
<!-- Generator: Adobe Illustrator 18.0.0, SVG Export Plug-In . SVG Version: 6.00 Build 0)  -->
<!DOCTYPE svg PUBLIC "-//W3C//DTD SVG 1.1//EN" "http://www.w3.org/Graphics/SVG/1.1/DTD/svg11.dtd">
<svg version="1.1" id="Artwork" xmlns="http://www.w3.org/2000/svg" xmlns:xlink="http://www.w3.org/1999/xlink" x="0px" y="0px"
	 viewBox="0 0 512 512" enable-background="new 0 0 512 512" xml:space="preserve">
<g>
	<path d="M431.9,161.8v-5.6c0-32-26-57.9-57.9-57.9H138c-32,0-57.9,26-57.9,57.9v5.6c0,18.6,8.8,35.1,22.4,45.7
		c-13.6,10.6-22.4,27.1-22.4,45.7v5.6c0,18.6,8.8,35.1,22.4,45.7c-13.6,10.6-22.4,27.1-22.4,45.7v5.6c0,32,26,57.9,57.9,57.9h236
		c32,0,57.9-26,57.9-57.9v-5.6c0-18.6-8.8-35.1-22.4-45.7c13.6-10.6,22.4-27.1,22.4-45.7v-5.6c0-18.6-8.8-35.1-22.4-45.7
		C423.1,196.9,431.9,180.4,431.9,161.8z M407.4,350.2v5.6c0,18.4-15,33.4-33.4,33.4H138c-18.4,0-33.4-15-33.4-33.4v-5.6
		c0-18.4,15-33.4,33.4-33.4h236C392.4,316.8,407.4,331.8,407.4,350.2z M407.4,253.2v5.6c0,18.4-15,33.4-33.4,33.4H138
		c-18.4,0-33.4-15-33.4-33.4v-5.6c0-18.4,15-33.4,33.4-33.4h236C392.4,219.8,407.4,234.8,407.4,253.2z M138,195.3
		c-18.4,0-33.4-15-33.4-33.4v-5.6c0-18.4,15-33.4,33.4-33.4h236c18.4,0,33.4,15,33.4,33.4v5.6c0,18.4-15,33.4-33.4,33.4H138z"/>
	<path d="M350.5,146.7h-97.9c-6.8,0-12.3,5.5-12.3,12.3c0,6.8,5.5,12.3,12.3,12.3h97.9c6.8,0,12.3-5.5,12.3-12.3
		C362.8,152.2,357.3,146.7,350.5,146.7z"/>
	<circle cx="172.6" cy="159" r="13.7"/>
	<path d="M252.6,268.3h97.9c6.8,0,12.3-5.5,12.3-12.3c0-6.8-5.5-12.2-12.3-12.2h-97.9c-6.8,0-12.3,5.5-12.3,12.2
		C240.3,262.8,245.8,268.3,252.6,268.3z"/>
	<circle cx="172.6" cy="256" r="13.7"/>
	<path d="M252.6,365.3h97.9c6.8,0,12.3-5.5,12.3-12.3s-5.5-12.3-12.3-12.3h-97.9c-6.8,0-12.3,5.5-12.3,12.3S245.8,365.3,252.6,365.3
		z"/>
	<circle cx="172.6" cy="353" r="13.7"/>
	<path d="M21.2,145.2v242.2c0,6.8,5.5,12.3,12.2,12.3s12.3-5.5,12.3-12.3V145.2c0-47.7,38.8-86.4,86.4-86.4h81.6l-2.6,2.6
		c-4.8,4.8-4.8,12.5,0,17.3c2.4,2.4,5.5,3.6,8.7,3.6s6.3-1.2,8.7-3.6l23.5-23.5c2.3-2.3,3.6-5.4,3.6-8.7c0-3.2-1.3-6.4-3.6-8.7
		l-23.5-23.5c-4.8-4.8-12.5-4.8-17.3,0c-4.8,4.8-4.8,12.5,0,17.3l2.6,2.6h-81.6C71,34.3,21.2,84.1,21.2,145.2z"/>
	<path d="M297.8,477.7h82.1c61.2,0,110.9-49.8,110.9-110.9V124.6c0-6.8-5.5-12.3-12.3-12.3s-12.3,5.5-12.3,12.3v242.2
		c0,47.7-38.8,86.4-86.4,86.4h-82.1l2.6-2.6c4.8-4.8,4.8-12.5,0-17.3c-4.8-4.8-12.5-4.8-17.3,0l-23.5,23.5c-2.3,2.3-3.6,5.4-3.6,8.7
		s1.3,6.4,3.6,8.7l23.5,23.5c2.4,2.4,5.5,3.6,8.7,3.6s6.3-1.2,8.7-3.6c4.8-4.8,4.8-12.5,0-17.3L297.8,477.7z"/>
</g>
</svg>
