<?xml version="1.0" encoding="utf-8"?>
<!-- Generator: Adobe Illustrator 18.0.0, SVG Export Plug-In . SVG Version: 6.00 Build 0)  -->
<!DOCTYPE svg PUBLIC "-//W3C//DTD SVG 1.1//EN" "http://www.w3.org/Graphics/SVG/1.1/DTD/svg11.dtd">
<svg version="1.1" id="Artwork" xmlns="http://www.w3.org/2000/svg" xmlns:xlink="http://www.w3.org/1999/xlink" x="0px" y="0px"
	 viewBox="0 0 512 512" enable-background="new 0 0 512 512" xml:space="preserve">
<g>
	<path d="M256,110c-37.5,0-68,30.5-68,68s30.5,68,68,68s68-30.5,68-68S293.5,110,256,110z M256,221.4c-24,0-43.5-19.5-43.5-43.5
		s19.5-43.5,43.5-43.5s43.5,19.5,43.5,43.5S280,221.4,256,221.4z"/>
	<path d="M391.9,212.9c12,0,21.9-9.8,21.9-21.8v-26.2c0-12-9.8-21.8-21.9-21.8h-12.1c-2.7-9.8-6.6-19.1-11.6-27.9l8.6-8.6
		c8.5-8.5,8.5-22.4,0-30.9l-18.5-18.5c-4.1-4.1-9.6-6.4-15.4-6.4s-11.3,2.3-15.5,6.4l-8.5,8.6c-8.8-5-18.2-8.8-27.9-11.6V42.1
		c0-12-9.8-21.8-21.8-21.8h-26.1c-12,0-21.8,9.8-21.8,21.8v12.1c-9.8,2.7-19.1,6.6-27.9,11.6l-8.6-8.6c-4.1-4.1-9.6-6.4-15.4-6.4
		c-5.8,0-11.3,2.3-15.5,6.4l-18.5,18.5c-4.1,4.1-6.4,9.6-6.4,15.5c0,5.8,2.3,11.3,6.4,15.4l8.6,8.6c-5,8.8-8.8,18.2-11.6,27.9h-12.1
		c-12,0-21.8,9.8-21.8,21.8V191c0,12,9.8,21.8,21.8,21.8h12.1c2.7,9.7,6.6,19.1,11.6,27.9l-8.6,8.6c-8.5,8.5-8.5,22.4,0,30.9
		l18.5,18.5c4.1,4.1,9.6,6.4,15.4,6.4c5.8,0,11.3-2.3,15.4-6.4l8.6-8.6c8.8,5,18.2,8.8,27.9,11.6v12.1c0,12,9.8,21.8,21.8,21.8h26.1
		c12,0,21.8-9.8,21.8-21.8v-12.1c9.7-2.7,19.1-6.6,27.9-11.6l8.6,8.6c4.1,4.1,9.6,6.4,15.4,6.4c5.8,0,11.3-2.3,15.4-6.4l18.5-18.5
		c8.5-8.5,8.5-22.4,0-30.9l-8.6-8.6c5-8.8,8.8-18.2,11.6-27.9H391.9z M358.1,198.3c-2.7,13.5-7.9,26.1-15.6,37.6
		c-3.3,4.9-2.6,11.3,1.5,15.5l13.5,13.5l-14.7,14.7l-13.5-13.5c-4.1-4.1-10.6-4.8-15.5-1.5c-11.5,7.7-24.1,12.9-37.6,15.6
		c-5.7,1.1-9.9,6.2-9.9,12v19.1h-20.8v-19.1c0-5.9-4.1-10.9-9.9-12c-13.5-2.7-26.1-7.9-37.6-15.6c-4.9-3.3-11.3-2.6-15.5,1.5
		l-13.5,13.5l-14.7-14.7l13.5-13.5c4.1-4.1,4.8-10.6,1.5-15.5c-7.7-11.5-12.9-24.1-15.6-37.6c-1.1-5.7-6.2-9.9-12-9.9h-19.1v-20.8
		h19.1c5.8,0,10.9-4.1,12-9.9c2.7-13.5,7.9-26.1,15.6-37.6c3.3-4.9,2.6-11.3-1.5-15.5l-13.5-13.5l14.7-14.7l13.5,13.5
		c4.1,4.1,10.6,4.8,15.5,1.5c11.4-7.7,24.1-12.9,37.6-15.6c5.7-1.1,9.9-6.2,9.9-12V44.7h20.8v19.1c0,5.8,4.1,10.9,9.9,12
		c13.5,2.7,26.1,7.9,37.6,15.6c4.9,3.3,11.3,2.6,15.5-1.5l13.5-13.5l14.7,14.7l-13.5,13.5c-4.1,4.1-4.8,10.6-1.5,15.5
		c7.7,11.4,12.9,24.1,15.6,37.6c1.1,5.7,6.2,9.9,12,9.9h19.1v20.8h-19.1C364.3,188.4,359.3,192.5,358.1,198.3z"/>
	<path d="M47.7,491c2.9,0.6,5.9,0.8,8.8,0.8c13.6,0,26.3-6,35-16.5c4.1-4.9,7-10.6,8.7-16.7h112.3c5.4,19.1,22.9,33.1,43.7,33.1
		c20.8,0,38.3-14.1,43.7-33.1h112.3c5.4,19.1,22.9,33.1,43.7,33.1c25,0,45.4-20.4,45.4-45.4c0-25-20.4-45.4-45.4-45.4
		c-20.8,0-38.3,14.1-43.7,33.1H299.7c-4.3-15.2-16.2-27.1-31.4-31.4v-34.3c0-6.8-5.5-12.3-12.3-12.3c-6.8,0-12.3,5.5-12.3,12.3v34.3
		c-15.2,4.3-27.1,16.2-31.4,31.4H100c-4.5-16.3-18-29.1-34.8-32.3c-16.4-3.1-33.2,2.9-43.7,15.6c-8.7,10.5-12.2,24.2-9.6,37.7
		C15.3,473.2,29.7,487.6,47.7,491z M455.6,425.5c11.5,0,20.9,9.4,20.9,20.9c0,11.5-9.4,20.9-20.9,20.9c-11,0-20-8.6-20.7-19.5
		c0.1-0.5,0.1-0.9,0.1-1.4s-0.1-0.9-0.1-1.4C435.6,434.2,444.5,425.5,455.6,425.5z M256,425.5c11.5,0,20.9,9.4,20.9,20.9
		c0,11.5-9.4,20.9-20.9,20.9c-11.5,0-20.9-9.4-20.9-20.9C235.1,434.9,244.5,425.5,256,425.5z M40.3,433.1c4-4.8,9.9-7.6,16.1-7.6
		c1.4,0,2.8,0.1,4.2,0.4c8.1,1.5,14.8,8.2,16.3,16.3c1.2,6.4-0.3,12.6-4.4,17.5c-4.9,5.9-12.5,8.6-20.3,7.2
		c-8.1-1.5-14.7-8.2-16.3-16.3C34.7,444.2,36.3,438,40.3,433.1z"/>
</g>
</svg>
