<?xml version="1.0" encoding="utf-8"?>
<!-- Generator: Adobe Illustrator 18.0.0, SVG Export Plug-In . SVG Version: 6.00 Build 0)  -->
<!DOCTYPE svg PUBLIC "-//W3C//DTD SVG 1.1//EN" "http://www.w3.org/Graphics/SVG/1.1/DTD/svg11.dtd">
<svg version="1.1" id="Artwork" xmlns="http://www.w3.org/2000/svg" xmlns:xlink="http://www.w3.org/1999/xlink" x="0px" y="0px"
	 viewBox="0 0 512 512" enable-background="new 0 0 512 512" xml:space="preserve">
<g>
	<path d="M269.5,12.2h-27.1c-12.2,0-22.2,10-22.2,22.2v12.9c-10.3,2.9-20.1,6.9-29.4,12.2l-9.1-9.1c-4.2-4.2-9.8-6.5-15.7-6.5
		c-5.9,0-11.5,2.3-15.7,6.5l-19.2,19.2c-8.6,8.7-8.6,22.7,0,31.4l9.1,9.1c-5.3,9.3-9.3,19.2-12.2,29.4h-12.9
		c-12.2,0-22.2,10-22.2,22.2v27.1c0,12.2,10,22.2,22.2,22.2h12.9c2.9,10.3,6.9,20.1,12.2,29.4l-9.1,9.1c-4.2,4.2-6.5,9.8-6.5,15.7
		c0,5.9,2.3,11.5,6.5,15.7l19.2,19.2c4.2,4.2,9.8,6.5,15.7,6.5c5.9,0,11.5-2.3,15.7-6.5l9.1-9.1c9.3,5.3,19.2,9.3,29.4,12.2v12.9
		c0,12.2,10,22.2,22.2,22.2h27.1c12.2,0,22.2-10,22.2-22.2v-12.9c10.3-2.9,20.1-6.9,29.4-12.2l9.1,9.1c4.2,4.2,9.8,6.5,15.7,6.5
		c5.9,0,11.5-2.3,15.7-6.5l19.1-19.1c4.2-4.2,6.5-9.8,6.5-15.7c0-5.9-2.3-11.5-6.5-15.7l-9.1-9.1c5.3-9.3,9.3-19.2,12.2-29.4h12.9
		c12.2,0,22.2-10,22.2-22.2v-27.1c0-12.2-10-22.2-22.2-22.2h-12.9c-2.9-10.3-6.9-20.1-12.2-29.4l9.1-9.1c8.6-8.7,8.6-22.7,0-31.4
		l-19.1-19.2c-4.2-4.2-9.8-6.5-15.7-6.5c-5.9,0-11.5,2.3-15.7,6.5l-9.1,9.1c-9.3-5.3-19.2-9.3-29.4-12.2V34.4
		C291.7,22.2,281.8,12.2,269.5,12.2z M316.2,85.2c4.9,3.3,11.3,2.6,15.5-1.5L346,69.3l15.9,15.9l-14.3,14.3
		c-4.1,4.1-4.8,10.6-1.5,15.5c8,11.9,13.4,25,16.2,39.1c1.1,5.7,6.2,9.9,12,9.9h20.2v22.5h-20.2c-5.8,0-10.9,4.1-12,9.9
		c-2.8,14-8.2,27.2-16.2,39.1c-3.3,4.9-2.6,11.3,1.5,15.5l14.3,14.3L346,281l-14.3-14.3c-4.1-4.1-10.6-4.8-15.5-1.5
		c-11.9,8-25.1,13.4-39.1,16.2c-5.7,1.1-9.9,6.2-9.9,12v20.2h-22.5v-20.2c0-5.9-4.1-10.9-9.9-12c-14-2.8-27.2-8.2-39.1-16.2
		c-4.9-3.3-11.3-2.6-15.5,1.5L166,281l-15.9-15.9l14.3-14.3c4.1-4.1,4.8-10.6,1.5-15.5c-8-11.9-13.4-25.1-16.2-39.1
		c-1.1-5.7-6.2-9.9-12-9.9h-20.2v-22.5h20.2c5.8,0,10.9-4.1,12-9.9c2.8-14,8.2-27.2,16.2-39.1c3.3-4.9,2.6-11.3-1.5-15.5l-14.3-14.3
		L166,69.3l14.3,14.3c4.1,4.1,10.6,4.8,15.5,1.5c11.9-8,25-13.4,39.1-16.2c5.7-1.1,9.9-6.2,9.9-12V36.7h22.5v20.2
		c0,5.9,4.1,10.9,9.9,12C291.1,71.7,304.3,77.2,316.2,85.2z"/>
	<path d="M186,175.2c0,38.6,31.4,70,70,70s70-31.4,70-70s-31.4-70-70-70S186,136.6,186,175.2z M301.5,175.2
		c0,25.1-20.4,45.5-45.5,45.5s-45.5-20.4-45.5-45.5s20.4-45.5,45.5-45.5S301.5,150.1,301.5,175.2z"/>
	<path d="M462.7,441H300.9c-4.3-15.8-16.8-28.3-32.6-32.6v-35.9c0-6.8-5.5-12.3-12.3-12.3s-12.3,5.5-12.3,12.3v35.9
		c-15.8,4.3-28.3,16.8-32.6,32.6H49.3c-6.8,0-12.3,5.5-12.3,12.3c0,6.8,5.5,12.3,12.3,12.3h161.8c5.4,19.7,23.4,34.3,44.9,34.3
		s39.5-14.6,44.9-34.3h161.8c6.8,0,12.3-5.5,12.3-12.3C474.9,446.4,469.5,441,462.7,441z M256,475.3c-12.2,0-22.1-9.9-22.1-22.1
		c0-12.2,9.9-22.1,22.1-22.1c12.2,0,22.1,9.9,22.1,22.1C278.1,465.4,268.2,475.3,256,475.3z"/>
</g>
</svg>
