<?xml version="1.0" encoding="utf-8"?>
<!-- Generator: Adobe Illustrator 18.0.0, SVG Export Plug-In . SVG Version: 6.00 Build 0)  -->
<!DOCTYPE svg PUBLIC "-//W3C//DTD SVG 1.1//EN" "http://www.w3.org/Graphics/SVG/1.1/DTD/svg11.dtd">
<svg version="1.1" id="Artwork" xmlns="http://www.w3.org/2000/svg" xmlns:xlink="http://www.w3.org/1999/xlink" x="0px" y="0px"
	 viewBox="0 0 512 512" enable-background="new 0 0 512 512" xml:space="preserve">
<g>
	<path d="M256,500.7c116.2,0,210.7-94.5,210.7-210.7V106.4c0-4.9-3-9.4-7.5-11.3L260.7,12.3c-3-1.3-6.4-1.3-9.4,0L52.8,95.1
		c-4.6,1.9-7.5,6.4-7.5,11.3V290C45.3,406.1,139.8,500.7,256,500.7z M69.8,114.6L256,36.9l186.2,77.7V290
		c0,102.7-83.5,186.2-186.2,186.2S69.8,392.6,69.8,290V114.6z"/>
	<path d="M197.9,358.4h116.2c14.8,0,26.8-12,26.8-26.8v-65.1c0-13.8-10.4-25.1-23.8-26.7V214c0-33.7-27.4-61.2-61.2-61.2
		c-33.7,0-61.2,27.4-61.2,61.2v25.8c-13.4,1.5-23.8,12.9-23.8,26.7v65.1C171.1,346.3,183.1,358.4,197.9,358.4z M316.4,331.5
		c0,1.3-1.1,2.3-2.3,2.3H197.9c-1.3,0-2.3-1.1-2.3-2.3v-65.1c0-1.3,1.1-2.3,2.3-2.3h116.2c1.3,0,2.3,1.1,2.3,2.3V331.5z M256,177.4
		c20.2,0,36.7,16.4,36.7,36.7v25.6h-73.3V214C219.3,193.8,235.8,177.4,256,177.4z"/>
</g>
</svg>
