<?xml version="1.0" encoding="utf-8"?>
<!-- Generator: Adobe Illustrator 18.0.0, SVG Export Plug-In . SVG Version: 6.00 Build 0)  -->
<!DOCTYPE svg PUBLIC "-//W3C//DTD SVG 1.1//EN" "http://www.w3.org/Graphics/SVG/1.1/DTD/svg11.dtd">
<svg version="1.1" id="Artwork" xmlns="http://www.w3.org/2000/svg" xmlns:xlink="http://www.w3.org/1999/xlink" x="0px" y="0px"
	 viewBox="0 0 512 512" enable-background="new 0 0 512 512" xml:space="preserve">
<g>
	<path d="M459.2,95.1L260.8,12.3c0,0,0,0,0,0l0,0c-0.2-0.1-0.4-0.1-0.6-0.2c-0.6-0.2-1.1-0.4-1.7-0.5c-0.5-0.1-1-0.1-1.5-0.2
		c-0.3,0-0.6-0.1-0.9-0.1s-0.6,0.1-0.9,0.1c-0.5,0-1,0.1-1.5,0.2c-0.6,0.1-1.2,0.3-1.7,0.5c-0.2,0.1-0.4,0.1-0.6,0.2l0,0
		c0,0,0,0,0,0L52.8,95.1c-4.6,1.9-7.5,6.4-7.5,11.3V290c0,116.2,94.5,210.7,210.7,210.7S466.7,406.1,466.7,290V106.4
		C466.7,101.4,463.7,97,459.2,95.1z M69.8,290V114.6L243.7,42v433.7C146.8,469.4,69.8,388.5,69.8,290z M442.2,290
		c0,98.6-77,179.4-173.9,185.7V42l173.9,72.6V290z"/>
</g>
</svg>
