<?xml version="1.0" encoding="utf-8"?>
<!-- Generator: Adobe Illustrator 18.0.0, SVG Export Plug-In . SVG Version: 6.00 Build 0)  -->
<!DOCTYPE svg PUBLIC "-//W3C//DTD SVG 1.1//EN" "http://www.w3.org/Graphics/SVG/1.1/DTD/svg11.dtd">
<svg version="1.1" id="Artwork" xmlns="http://www.w3.org/2000/svg" xmlns:xlink="http://www.w3.org/1999/xlink" x="0px" y="0px"
	 viewBox="0 0 512 512" enable-background="new 0 0 512 512" xml:space="preserve">
<g>
	<path d="M209.3,219.3c-2.3-2.3-5.4-3.6-8.7-3.6c0,0,0,0,0,0c-3.2,0-6.3,1.3-8.6,3.6l-34.2,34c-2.3,2.3-3.6,5.4-3.6,8.7
		c0,3.2,1.3,6.4,3.6,8.7l66.7,67.1c2.3,2.3,5.4,3.6,8.7,3.6c0,0,0,0,0,0c3.2,0,6.3-1.3,8.6-3.6l112.4-111.8c2.3-2.3,3.6-5.4,3.6-8.7
		c0-3.2-1.3-6.4-3.6-8.7l-34-34.2c-4.8-4.8-12.5-4.8-17.3,0l-69.6,69.2L209.3,219.3z M311.5,200.4l16.7,16.8l-95,94.5l-49.4-49.7
		l16.8-16.7l24.1,24.2c4.8,4.8,12.5,4.8,17.3,0L311.5,200.4z"/>
	<path d="M459.2,95.1L260.7,12.3c-3-1.3-6.4-1.3-9.4,0L52.8,95.1c-4.6,1.9-7.5,6.4-7.5,11.3V290c0,116.2,94.5,210.7,210.7,210.7
		S466.7,406.1,466.7,290V106.4C466.7,101.4,463.7,97,459.2,95.1z M442.2,290c0,102.7-83.5,186.2-186.2,186.2S69.8,392.6,69.8,290
		V114.6L256,36.9l186.2,77.7V290z"/>
</g>
</svg>
