<?xml version="1.0" encoding="utf-8"?>
<!-- Generator: Adobe Illustrator 18.0.0, SVG Export Plug-In . SVG Version: 6.00 Build 0)  -->
<!DOCTYPE svg PUBLIC "-//W3C//DTD SVG 1.1//EN" "http://www.w3.org/Graphics/SVG/1.1/DTD/svg11.dtd">
<svg version="1.1" id="Artwork" xmlns="http://www.w3.org/2000/svg" xmlns:xlink="http://www.w3.org/1999/xlink" x="0px" y="0px"
	 viewBox="0 0 512 512" enable-background="new 0 0 512 512" xml:space="preserve">
<g>
	<path d="M218.4,495.2c6.8,0,12.3-5.5,12.3-12.3c0-6.8-5.5-12.3-12.3-12.3c-100.4,0-182-81.6-182-182V117.1l182-75.9l182,75.9v71.5
		c0,6.8,5.5,12.3,12.3,12.3s12.3-5.5,12.3-12.3v-79.6c0-4.9-3-9.4-7.5-11.3L223.1,16.6c-3-1.3-6.4-1.3-9.4,0L19.4,97.6
		c-4.6,1.9-7.5,6.4-7.5,11.3v179.7C11.9,402.5,104.5,495.2,218.4,495.2z"/>
	<path d="M353.1,285.5c-35.2,0-63.9,28.6-63.9,63.9s28.6,63.9,63.9,63.9c35.2,0,63.9-28.6,63.9-63.9S388.3,285.5,353.1,285.5z
		 M353.1,388.7c-21.7,0-39.4-17.7-39.4-39.4s17.7-39.4,39.4-39.4c21.7,0,39.4,17.7,39.4,39.4S374.8,388.7,353.1,388.7z"/>
	<path d="M411.2,244.3c-7.9-4.4-16.2-7.8-24.8-10.3v-10.5c0-11.7-9.5-21.1-21.1-21.1H341c-11.7,0-21.1,9.5-21.1,21.1V234
		c-8.6,2.5-16.9,5.9-24.8,10.3l-7.4-7.4c-4-4-9.3-6.2-14.9-6.2c-5.6,0-11,2.2-14.9,6.2L240.6,254c-4,4-6.2,9.3-6.2,14.9
		c0,5.7,2.2,11,6.2,14.9l7.4,7.4c-4.4,7.9-7.8,16.2-10.3,24.8h-10.5c-11.7,0-21.1,9.5-21.1,21.1v24.2c0,11.7,9.5,21.1,21.1,21.1
		h10.5c2.5,8.6,5.9,16.9,10.3,24.8l-7.4,7.4c-8.2,8.2-8.2,21.7,0,29.9l17.1,17.1c4,4,9.3,6.2,14.9,6.2c5.6,0,11-2.2,14.9-6.2
		l7.4-7.4c7.9,4.4,16.2,7.8,24.8,10.3v10.5c0,11.7,9.5,21.1,21.1,21.1h24.2c11.7,0,21.1-9.5,21.1-21.1v-10.5
		c8.6-2.5,16.9-5.9,24.8-10.3l7.4,7.4c4,4,9.3,6.2,14.9,6.2c5.6,0,11-2.2,14.9-6.2l17.1-17.1c4-4,6.2-9.3,6.2-15
		c0-5.6-2.2-11-6.2-14.9l-7.4-7.4c4.4-7.9,7.8-16.2,10.3-24.8H479c11.7,0,21.1-9.5,21.1-21.1v-24.2c0-11.7-9.5-21.1-21.1-21.1h-10.5
		c-2.5-8.6-5.9-16.9-10.3-24.8l7.4-7.4c4-4,6.2-9.3,6.2-15c0-5.6-2.2-11-6.2-14.9l-17.1-17.1c-4-4-9.3-6.2-14.9-6.2
		c-5.6,0-11,2.2-15,6.2L411.2,244.3z M433.6,256.6l12.4,12.4l-11.9,11.9c-4.1,4.1-4.8,10.6-1.5,15.5c7,10.5,11.8,22.1,14.3,34.5
		c1.1,5.7,6.2,9.9,12,9.9h16.8v17.5h-16.8c-5.8,0-10.9,4.1-12,9.9c-2.4,12.4-7.2,24-14.3,34.5c-3.3,4.9-2.6,11.3,1.5,15.5l11.9,11.9
		l-12.4,12.4l-11.9-11.9c-4.1-4.1-10.6-4.8-15.5-1.5c-10.5,7-22.1,11.8-34.5,14.3c-5.7,1.1-9.9,6.2-9.9,12v16.8h-17.5v-16.8
		c0-5.9-4.1-10.9-9.9-12c-12.4-2.4-24-7.2-34.5-14.3c-4.9-3.3-11.3-2.6-15.5,1.5l-11.9,11.9l-12.4-12.4l11.9-11.9
		c4.1-4.1,4.8-10.6,1.5-15.5c-7-10.5-11.8-22.1-14.3-34.5c-1.1-5.7-6.2-9.9-12-9.9h-16.8v-17.5h16.8c5.8,0,10.9-4.1,12-9.9
		c2.4-12.4,7.2-24,14.3-34.5c3.3-4.9,2.6-11.3-1.5-15.5L260.3,269l12.4-12.4l11.9,11.9c4.1,4.1,10.6,4.8,15.5,1.5
		c10.5-7,22.1-11.8,34.5-14.3c5.7-1.1,9.9-6.2,9.9-12v-16.8h17.5v16.8c0,5.8,4.1,10.9,9.9,12c12.4,2.5,24,7.3,34.5,14.3
		c4.9,3.3,11.3,2.6,15.5-1.5L433.6,256.6z"/>
</g>
</svg>
