<?xml version="1.0" encoding="utf-8"?>
<!-- Generator: Adobe Illustrator 18.0.0, SVG Export Plug-In . SVG Version: 6.00 Build 0)  -->
<!DOCTYPE svg PUBLIC "-//W3C//DTD SVG 1.1//EN" "http://www.w3.org/Graphics/SVG/1.1/DTD/svg11.dtd">
<svg version="1.1" id="Artwork" xmlns="http://www.w3.org/2000/svg" xmlns:xlink="http://www.w3.org/1999/xlink" x="0px" y="0px"
	 viewBox="0 0 512 512" enable-background="new 0 0 512 512" xml:space="preserve">
<g>
	<path d="M305.4,206.6l-73.2,72.8l-25.6-25.8c-4.8-4.8-12.5-4.8-17.3,0c-4.8,4.8-4.8,12.5,0,17.3l34.2,34.4c2.4,2.4,5.5,3.6,8.7,3.6
		c3.1,0,6.2-1.2,8.6-3.6l81.9-81.4c4.8-4.8,4.8-12.5,0-17.3C318,201.9,310.2,201.8,305.4,206.6z"/>
	<path d="M466.7,290V106.4c0-4.9-3-9.4-7.5-11.3L260.7,12.3c-3-1.3-6.4-1.3-9.4,0L52.8,95.1c-4.6,1.9-7.5,6.4-7.5,11.3V290
		c0,116.2,94.5,210.7,210.7,210.7S466.7,406.1,466.7,290z M256,476.2c-102.7,0-186.2-83.5-186.2-186.2V114.6L256,36.9l186.2,77.7
		V290C442.2,392.6,358.7,476.2,256,476.2z"/>
</g>
</svg>
