<?xml version="1.0" encoding="utf-8"?>
<!-- Generator: Adobe Illustrator 18.0.0, SVG Export Plug-In . SVG Version: 6.00 Build 0)  -->
<!DOCTYPE svg PUBLIC "-//W3C//DTD SVG 1.1//EN" "http://www.w3.org/Graphics/SVG/1.1/DTD/svg11.dtd">
<svg version="1.1" id="Artwork" xmlns="http://www.w3.org/2000/svg" xmlns:xlink="http://www.w3.org/1999/xlink" x="0px" y="0px"
	 viewBox="0 0 512 512" enable-background="new 0 0 512 512" xml:space="preserve">
<g>
	<path d="M389,445.6V198c0-30.4-24.7-55.1-55.1-55.1H178.1c-30.4,0-55.1,24.7-55.1,55.1v247.6c0,30.4,24.7,55.1,55.1,55.1h155.7
		C364.3,500.7,389,476,389,445.6z M364.5,445.6c0,16.9-13.7,30.6-30.6,30.6H178.1c-16.9,0-30.6-13.7-30.6-30.6V198
		c0-16.9,13.7-30.6,30.6-30.6h155.7c16.9,0,30.6,13.7,30.6,30.6V445.6z"/>
	<path d="M324.1,211.5H187.9c-6.8,0-12.3,5.5-12.3,12.3v165c0,6.8,5.5,12.3,12.3,12.3h136.1c6.8,0,12.3-5.5,12.3-12.3v-165
		C336.3,217,330.8,211.5,324.1,211.5z M311.8,376.5H200.2V236h111.6V376.5z"/>
	<path d="M256,65.6c-22.2,0-43.4,6.7-61.4,19.5c-5.5,3.9-6.8,11.6-2.9,17.1c3.9,5.5,11.6,6.8,17.1,2.9c13.8-9.8,30.1-15,47.2-15
		c17.1,0,33.4,5.2,47.2,15c2.2,1.5,4.6,2.3,7.1,2.3c3.8,0,7.6-1.8,10-5.2c3.9-5.5,2.6-13.2-2.9-17.1C299.4,72.4,278.2,65.6,256,65.6
		z"/>
	<path d="M348.7,65.2c3.8,0,7.6-1.8,10-5.2c3.9-5.5,2.6-13.2-2.9-17.1c-29.2-20.7-63.7-31.7-99.8-31.7s-70.6,11-99.8,31.7
		c-5.5,3.9-6.8,11.6-2.9,17.1s11.6,6.8,17.1,2.9c25-17.8,54.7-27.2,85.7-27.2s60.6,9.4,85.7,27.2C343.8,64.4,346.3,65.2,348.7,65.2z
		"/>
	<path d="M283.6,425.4h-55.1c-6.8,0-12.3,5.5-12.3,12.3c0,6.8,5.5,12.3,12.3,12.3h55.1c6.8,0,12.3-5.5,12.3-12.3
		C295.8,430.9,290.3,425.4,283.6,425.4z"/>
</g>
</svg>
