<?xml version="1.0" encoding="utf-8"?>
<!-- Generator: Adobe Illustrator 18.0.0, SVG Export Plug-In . SVG Version: 6.00 Build 0)  -->
<!DOCTYPE svg PUBLIC "-//W3C//DTD SVG 1.1//EN" "http://www.w3.org/Graphics/SVG/1.1/DTD/svg11.dtd">
<svg version="1.1" id="Artwork" xmlns="http://www.w3.org/2000/svg" xmlns:xlink="http://www.w3.org/1999/xlink" x="0px" y="0px"
	 viewBox="0 0 512 512" enable-background="new 0 0 512 512" xml:space="preserve">
<g>
	<path d="M130.3,501h251.4c30.4,0,55.1-24.7,55.1-55.1V66.1c0-30.4-24.7-55.1-55.1-55.1H130.3c-30.4,0-55.1,24.7-55.1,55.1v379.7
		C75.2,476.3,99.9,501,130.3,501z M99.7,66.1c0-16.9,13.7-30.6,30.6-30.6h251.4c16.9,0,30.6,13.7,30.6,30.6v379.7
		c0,16.9-13.7,30.6-30.6,30.6H130.3c-16.9,0-30.6-13.7-30.6-30.6V66.1z"/>
	<path d="M139.6,428.3h232.7c6.8,0,12.3-5.5,12.3-12.3V96c0-6.8-5.5-12.3-12.3-12.3H139.6c-6.8,0-12.3,5.5-12.3,12.3v320
		C127.4,422.8,132.9,428.3,139.6,428.3z M151.9,108.2h208.2v295.5H151.9V108.2z"/>
	<path d="M234.3,125.7h-47.2c-6.8,0-12.3,5.5-12.3,12.3v47.2c0,6.8,5.5,12.3,12.3,12.3h47.2c6.8,0,12.3-5.5,12.3-12.3v-47.2
		C246.5,131.2,241,125.7,234.3,125.7z M222,172.8h-22.7v-22.7H222V172.8z"/>
	<path d="M324.9,125.7h-47.2c-6.8,0-12.3,5.5-12.3,12.3v47.2c0,6.8,5.5,12.3,12.3,12.3h47.2c6.8,0,12.3-5.5,12.3-12.3v-47.2
		C337.2,131.2,331.7,125.7,324.9,125.7z M312.7,172.8H290v-22.7h22.7V172.8z"/>
	<path d="M234.3,220.2h-47.2c-6.8,0-12.3,5.5-12.3,12.3v47.2c0,6.8,5.5,12.3,12.3,12.3h47.2c6.8,0,12.3-5.5,12.3-12.3v-47.2
		C246.5,225.6,241,220.2,234.3,220.2z M222,267.3h-22.7v-22.7H222V267.3z"/>
	<path d="M324.9,220.2h-47.2c-6.8,0-12.3,5.5-12.3,12.3v47.2c0,6.8,5.5,12.3,12.3,12.3h47.2c6.8,0,12.3-5.5,12.3-12.3v-47.2
		C337.2,225.6,331.7,220.2,324.9,220.2z M312.7,267.3H290v-22.7h22.7V267.3z"/>
	<path d="M234.3,314.7h-47.2c-6.8,0-12.3,5.5-12.3,12.3v47.2c0,6.8,5.5,12.3,12.3,12.3h47.2c6.8,0,12.3-5.5,12.3-12.3v-47.2
		C246.5,320.1,241,314.7,234.3,314.7z M222,361.8h-22.7v-22.7H222V361.8z"/>
</g>
</svg>
