<?xml version="1.0" encoding="utf-8"?>
<!-- Generator: Adobe Illustrator 18.0.0, SVG Export Plug-In . SVG Version: 6.00 Build 0)  -->
<!DOCTYPE svg PUBLIC "-//W3C//DTD SVG 1.1//EN" "http://www.w3.org/Graphics/SVG/1.1/DTD/svg11.dtd">
<svg version="1.1" id="Artwork" xmlns="http://www.w3.org/2000/svg" xmlns:xlink="http://www.w3.org/1999/xlink" x="0px" y="0px"
	 viewBox="0 0 512 512" enable-background="new 0 0 512 512" xml:space="preserve">
<g>
	<path d="M139.1,445.6c0,30.4,24.7,55.1,55.1,55.1h123.5c30.4,0,55.1-24.7,55.1-55.1V242.5c0-30.4-24.7-55.1-55.1-55.1H194.3
		c-30.4,0-55.1,24.7-55.1,55.1V445.6z M163.6,242.5c0-16.9,13.7-30.6,30.6-30.6h123.5c16.9,0,30.6,13.7,30.6,30.6v203.2
		c0,16.9-13.7,30.6-30.6,30.6H194.3c-16.9,0-30.6-13.7-30.6-30.6V242.5z"/>
	<path d="M197,414.3h118c6.8,0,12.3-5.5,12.3-12.3v-143c0-6.8-5.5-12.3-12.3-12.3H197c-6.8,0-12.3,5.5-12.3,12.3v143
		C184.8,408.8,190.2,414.3,197,414.3z M209.3,271.3h93.5v118.5h-93.5V271.3z"/>
	<path d="M316.9,116.1c3.8,0,7.6-1.8,10-5.2c3.9-5.5,2.6-13.2-2.9-17.1c-19.9-14.1-43.4-21.6-68-21.6c-24.6,0-48.1,7.5-68,21.6
		c-5.5,3.9-6.8,11.6-2.9,17.1c3.9,5.5,11.6,6.8,17.1,2.9c15.7-11.2,34.4-17.1,53.9-17.1s38.1,5.9,53.9,17.1
		C312,115.3,314.5,116.1,316.9,116.1z"/>
	<path d="M256,132.8c-11.2,0-21.9,3.4-31,9.8c-5.5,3.9-6.8,11.6-2.9,17.1c2.4,3.4,6.2,5.2,10,5.2c2.5,0,4.9-0.7,7.1-2.3
		c9.8-7,23.8-7,33.6,0c5.5,3.9,13.2,2.6,17.1-2.9c3.9-5.5,2.6-13.2-2.9-17.1C277.9,136.2,267.2,132.8,256,132.8z"/>
	<path d="M142,63.6c3.9,5.5,11.6,6.8,17.1,2.9c28.3-20.1,61.9-30.7,97-30.7c35.1,0,68.6,10.6,97,30.7c2.2,1.5,4.6,2.3,7.1,2.3
		c3.8,0,7.6-1.8,10-5.2c3.9-5.5,2.6-13.2-2.9-17.1C334.6,23.5,296.2,11.3,256,11.3c-40.2,0-78.6,12.2-111.1,35.3
		C139.3,50.4,138,58.1,142,63.6z"/>
	<path d="M279.9,432.2h-47.8c-6.8,0-12.3,5.5-12.3,12.3s5.5,12.3,12.3,12.3h47.8c6.8,0,12.3-5.5,12.3-12.3S286.7,432.2,279.9,432.2z
		"/>
</g>
</svg>
