<?xml version="1.0" encoding="utf-8"?>
<!-- Generator: Adobe Illustrator 18.0.0, SVG Export Plug-In . SVG Version: 6.00 Build 0)  -->
<!DOCTYPE svg PUBLIC "-//W3C//DTD SVG 1.1//EN" "http://www.w3.org/Graphics/SVG/1.1/DTD/svg11.dtd">
<svg version="1.1" id="Artwork" xmlns="http://www.w3.org/2000/svg" xmlns:xlink="http://www.w3.org/1999/xlink" x="0px" y="0px"
	 viewBox="0 0 512 512" enable-background="new 0 0 512 512" xml:space="preserve">
<path d="M371.5,501.3c25.1,0,45.4-20.4,45.4-45.4c0-20.8-14.1-38.3-33.2-43.7V297c18.7-4,32.8-20.6,32.8-40.4
	c0-20-13.9-36.5-32.8-40.4V99.8c16.3-4.5,29.2-18.1,32.4-34.9c3.1-16.4-2.9-33.2-15.6-43.8C390,12.5,376.3,9,362.8,11.5
	c-18,3.4-32.4,17.8-35.8,35.8c-0.6,2.9-0.8,5.9-0.8,8.8c0,13.6,6,26.3,16.5,35c5,4.1,10.7,7,16.7,8.7v115.3h-42l-142.4-1l11.2-14.5
	c16.2-18.6,36.1-62.4-2.4-97.5c-4.3-3.9-10.6-4.3-15.3-0.9c-1.4,1-34.3,24.5-69.9,62c-4.7,4.9-4.4,12.7,0.5,17.3
	c4.9,4.7,12.7,4.4,17.3-0.5c23.3-24.6,45.8-43.2,57.7-52.4c18.7,25.5-3.7,52.8-6.5,56c-0.2,0.2-0.3,0.4-0.5,0.6l-26.5,34.4
	c-2.8,3.7-3.4,8.7-1.3,12.8c2,4.2,6.3,6.8,10.9,6.9l167.2,1.1h58.2c0.1,0,0.2,0,0.4,0c9.2,0.3,16.3,7.7,16.3,16.8
	c0,9.3-7.6,16.8-16.8,16.8c-0.5,0-1,0-1.5,0.1l-108.6,13.1c-5.4,0.6-9.7,4.8-10.6,10.1c-0.1,0.8-13.8,80.9-51.1,138.2
	c-13.9,2.1-55.1,6.9-93.1-2.6c-6.6-1.7-13.2,2.3-14.9,8.9c-0.3,1-0.4,2-0.4,3c0,5.5,3.7,10.5,9.3,11.9c51.8,13,106.4,2.6,108.7,2.1
	c3.1-0.6,5.9-2.4,7.7-5.1c35.1-51.1,51.3-118.9,56.2-143.2l82.3-9.9v112.3c-19.1,5.4-33.2,22.9-33.2,43.7
	C326.1,480.9,346.5,501.3,371.5,501.3z M358.2,72.3c-5.9-4.9-8.7-12.6-7.2-20.3c1.5-8.1,8.2-14.8,16.3-16.3
	c6.4-1.2,12.7,0.3,17.6,4.4c4.8,4,7.6,9.9,7.6,16.1c0,1.4-0.1,2.8-0.4,4.2c-1.5,8.1-8.2,14.8-16.3,16.3
	C369.3,77.9,363.1,76.3,358.2,72.3z M350.6,455.9c0-11.1,8.7-20.1,19.5-20.8c0.5,0.1,0.9,0.1,1.4,0.1s0.9-0.1,1.4-0.1
	c10.9,0.7,19.5,9.7,19.5,20.8c0,11.5-9.4,20.9-20.9,20.9C360,476.8,350.6,467.4,350.6,455.9z"/>
</svg>
