<?xml version="1.0" encoding="utf-8"?>
<!-- Generator: Adobe Illustrator 18.0.0, SVG Export Plug-In . SVG Version: 6.00 Build 0)  -->
<!DOCTYPE svg PUBLIC "-//W3C//DTD SVG 1.1//EN" "http://www.w3.org/Graphics/SVG/1.1/DTD/svg11.dtd">
<svg version="1.1" id="Artwork" xmlns="http://www.w3.org/2000/svg" xmlns:xlink="http://www.w3.org/1999/xlink" x="0px" y="0px"
	 viewBox="0 0 512 512" enable-background="new 0 0 512 512" xml:space="preserve">
<path d="M140.5,10.7C115.4,10.7,95,31.1,95,56.1c0,20.8,14.1,38.3,33.2,43.7V215c-18.7,4-32.8,20.6-32.8,40.4
	c0,20,13.9,36.5,32.8,40.4v116.3c-16.3,4.5-29.2,18.1-32.4,34.9c-3.1,16.4,2.9,33.2,15.6,43.8c10.5,8.7,24.2,12.2,37.8,9.6
	c18-3.4,32.4-17.8,35.8-35.8c0.6-2.9,0.8-5.9,0.8-8.8c0-13.6-6-26.3-16.5-35c-5-4.1-10.7-7-16.7-8.7V296.8h42l142.4,1L326,312.3
	c-16.2,18.6-36.1,62.4,2.4,97.5c4.3,3.9,10.6,4.3,15.3,0.9c1.4-1,34.3-24.5,69.9-62c4.7-4.9,4.4-12.7-0.5-17.3
	c-4.9-4.7-12.7-4.4-17.3,0.5c-23.3,24.6-45.8,43.2-57.7,52.4c-18.7-25.5,3.7-52.8,6.5-56c0.2-0.2,0.3-0.4,0.5-0.6l26.5-34.4
	c2.8-3.7,3.4-8.7,1.3-12.8c-2-4.2-6.3-6.8-10.9-6.9l-167.2-1.1h-58.2c-0.1,0-0.2,0-0.4,0c-9.2-0.3-16.3-7.7-16.3-16.8
	c0-9.3,7.6-16.8,16.8-16.8c0.5,0,1,0,1.5-0.1l108.6-13.1c5.4-0.6,9.7-4.8,10.6-10.1c0.1-0.8,13.8-80.9,51.1-138.2
	c13.9-2.1,55.1-6.9,93.1,2.6c6.6,1.7,13.2-2.3,14.9-8.9c0.3-1,0.4-2,0.4-3c0-5.5-3.7-10.5-9.3-11.9c-51.8-13-106.4-2.6-108.7-2.1
	c-3.1,0.6-5.9,2.4-7.7,5.1C256.2,110.1,240,177.9,235,202.2l-82.3,9.9V99.8c19.1-5.4,33.2-22.9,33.2-43.7
	C185.9,31.1,165.5,10.7,140.5,10.7z M153.8,439.7c5.9,4.9,8.7,12.6,7.2,20.3c-1.5,8.1-8.2,14.8-16.3,16.3
	c-6.4,1.2-12.7-0.3-17.6-4.4c-4.8-4-7.6-9.9-7.6-16.1c0-1.4,0.1-2.8,0.4-4.2c1.5-8.1,8.2-14.8,16.3-16.3
	C142.7,434.1,148.9,435.7,153.8,439.7z M161.4,56.1c0,11.1-8.7,20.1-19.5,20.8c-0.5-0.1-0.9-0.1-1.4-0.1s-0.9,0.1-1.4,0.1
	c-10.9-0.7-19.5-9.7-19.5-20.8c0-11.5,9.4-20.9,20.9-20.9S161.4,44.6,161.4,56.1z"/>
</svg>
