<?xml version="1.0" encoding="utf-8"?>
<!-- Generator: Adobe Illustrator 18.0.0, SVG Export Plug-In . SVG Version: 6.00 Build 0)  -->
<!DOCTYPE svg PUBLIC "-//W3C//DTD SVG 1.1//EN" "http://www.w3.org/Graphics/SVG/1.1/DTD/svg11.dtd">
<svg version="1.1" id="Artwork" xmlns="http://www.w3.org/2000/svg" xmlns:xlink="http://www.w3.org/1999/xlink" x="0px" y="0px"
	 viewBox="0 0 512 512" enable-background="new 0 0 512 512" xml:space="preserve">
<path d="M10.7,371.5c0,25.1,20.4,45.4,45.4,45.4c20.8,0,38.3-14.1,43.7-33.2H215c4,18.7,20.6,32.8,40.4,32.8
	c20,0,36.5-13.9,40.4-32.8h116.3c4.5,16.3,18.1,29.2,34.9,32.4c16.4,3.1,33.2-2.9,43.8-15.6c8.7-10.5,12.2-24.2,9.6-37.8
	c-3.4-18-17.8-32.4-35.8-35.8c-2.9-0.6-5.9-0.8-8.8-0.8c-13.6,0-26.3,6-35,16.5c-4.1,5-7,10.7-8.7,16.7H296.8v-42l1-142.4l14.5,11.2
	c18.6,16.2,62.4,36.1,97.5-2.4c3.9-4.3,4.3-10.6,0.9-15.3c-1-1.4-24.5-34.3-62-69.9c-4.9-4.7-12.7-4.4-17.3,0.5
	c-4.7,4.9-4.4,12.7,0.5,17.3c24.6,23.3,43.2,45.8,52.4,57.7c-25.5,18.7-52.8-3.7-56-6.5c-0.2-0.2-0.4-0.3-0.6-0.5l-34.4-26.5
	c-3.7-2.8-8.7-3.4-12.8-1.3c-4.2,2-6.8,6.3-6.9,10.9l-1.1,167.2v58.2c0,0.1,0,0.2,0,0.4c-0.3,9.2-7.7,16.3-16.8,16.3
	c-9.3,0-16.8-7.6-16.8-16.8c0-0.5,0-1-0.1-1.5l-13.1-108.6c-0.6-5.4-4.8-9.7-10.1-10.6c-0.8-0.1-80.9-13.8-138.2-51.1
	c-2.1-13.9-6.9-55.1,2.6-93.1c1.7-6.6-2.3-13.2-8.9-14.9c-1-0.3-2-0.4-3-0.4c-5.5,0-10.5,3.7-11.9,9.3c-13,51.8-2.6,106.4-2.1,108.7
	c0.6,3.1,2.4,5.9,5.1,7.7c51.1,35.1,118.9,51.3,143.2,56.2l9.9,82.3H99.8c-5.4-19.1-22.9-33.2-43.7-33.2
	C31.1,326.1,10.7,346.5,10.7,371.5z M439.7,358.2c4.9-5.9,12.6-8.7,20.3-7.2c8.1,1.5,14.8,8.2,16.3,16.3c1.2,6.4-0.3,12.7-4.4,17.6
	c-4,4.8-9.9,7.6-16.1,7.6c-1.4,0-2.8-0.1-4.2-0.4c-8.1-1.5-14.8-8.2-16.3-16.3C434.1,369.3,435.7,363.1,439.7,358.2z M56.1,350.6
	c11.1,0,20.1,8.7,20.8,19.5c-0.1,0.5-0.1,0.9-0.1,1.4s0.1,0.9,0.1,1.4c-0.7,10.9-9.7,19.5-20.8,19.5c-11.5,0-20.9-9.4-20.9-20.9
	C35.2,360,44.6,350.6,56.1,350.6z"/>
</svg>
