<?xml version="1.0" encoding="utf-8"?>
<!-- Generator: Adobe Illustrator 18.0.0, SVG Export Plug-In . SVG Version: 6.00 Build 0)  -->
<!DOCTYPE svg PUBLIC "-//W3C//DTD SVG 1.1//EN" "http://www.w3.org/Graphics/SVG/1.1/DTD/svg11.dtd">
<svg version="1.1" id="Artwork" xmlns="http://www.w3.org/2000/svg" xmlns:xlink="http://www.w3.org/1999/xlink" x="0px" y="0px"
	 viewBox="0 0 512 512" enable-background="new 0 0 512 512" xml:space="preserve">
<g>
	<path d="M447.7,281.5H64.3c-29.3,0-53.2,23.8-53.2,53.2v102.2c0,29.3,23.8,53.2,53.2,53.2h383.5c29.3,0,53.2-23.8,53.2-53.2V334.6
		C500.9,305.3,477,281.5,447.7,281.5z M476.4,436.8c0,15.8-12.9,28.7-28.7,28.7H64.3c-15.8,0-28.7-12.9-28.7-28.7V334.6
		c0-15.8,12.9-28.7,28.7-28.7h383.5c15.8,0,28.7,12.9,28.7,28.7V436.8z"/>
	<path d="M345.3,162.3c3.8,0,7.6-1.8,10-5.2c3.9-5.5,2.6-13.2-2.9-17.1c-27.8-19.7-60.6-30.1-94.9-30.1c-34.3,0-67.2,10.4-94.9,30.1
		c-5.5,3.9-6.8,11.6-2.9,17.1c3.9,5.5,11.6,6.8,17.1,2.9c23.6-16.8,51.5-25.6,80.8-25.6c29.2,0,57.2,8.9,80.8,25.6
		C340.4,161.6,342.9,162.3,345.3,162.3z"/>
	<path d="M257.5,197.3c-15,0-29.4,4.6-41.5,13.2c-5.5,3.9-6.8,11.6-2.9,17.1c3.9,5.5,11.6,6.8,17.1,2.9c8-5.7,17.4-8.7,27.3-8.7
		s19.4,3,27.3,8.7c2.2,1.5,4.6,2.3,7.1,2.3c3.8,0,7.6-1.8,10-5.2c3.9-5.5,2.6-13.2-2.9-17.1C286.9,201.8,272.5,197.3,257.5,197.3z"
		/>
	<path d="M407.5,94.1c3.8,0,7.6-1.8,10-5.2c3.9-5.5,2.6-13.2-2.9-17.1C368.7,39.3,314.3,22,257.5,22c-56.8,0-111.2,17.2-157.1,49.8
		c-5.5,3.9-6.8,11.6-2.9,17.1c3.9,5.5,11.6,6.8,17.1,2.9c41.8-29.6,91.2-45.3,142.9-45.3c51.7,0,101.1,15.7,142.9,45.3
		C402.6,93.4,405,94.1,407.5,94.1z"/>
	<path d="M392.9,373.5H252.6c-6.8,0-12.3,5.5-12.3,12.3c0,6.8,5.5,12.3,12.3,12.3h140.3c6.8,0,12.3-5.5,12.3-12.3
		C405.1,378.9,399.6,373.5,392.9,373.5z"/>
	<circle cx="138" cy="385.7" r="14.7"/>
</g>
</svg>
