<?xml version="1.0" encoding="utf-8"?>
<!-- Generator: Adobe Illustrator 18.0.0, SVG Export Plug-In . SVG Version: 6.00 Build 0)  -->
<!DOCTYPE svg PUBLIC "-//W3C//DTD SVG 1.1//EN" "http://www.w3.org/Graphics/SVG/1.1/DTD/svg11.dtd">
<svg version="1.1" id="Artwork" xmlns="http://www.w3.org/2000/svg" xmlns:xlink="http://www.w3.org/1999/xlink" x="0px" y="0px"
	 viewBox="0 0 512 512" enable-background="new 0 0 512 512" xml:space="preserve">
<g>
	<path d="M497.2,448v-99.3c0-29.3-23.8-53.2-53.2-53.2H268.2V156.3c20.7-5.4,36.1-24.3,36.1-46.7c0-26.7-21.7-48.4-48.4-48.4
		s-48.4,21.7-48.4,48.4c0,22.4,15.4,41.3,36.1,46.7v139.3H67.9c-29.3,0-53.2,23.8-53.2,53.2V448c0,29.3,23.8,53.2,53.2,53.2h376.2
		C473.4,501.2,497.2,477.4,497.2,448z M232.1,109.5c0-13.2,10.7-23.9,23.9-23.9s23.9,10.7,23.9,23.9s-10.7,23.9-23.9,23.9
		S232.1,122.7,232.1,109.5z M472.7,448c0,15.8-12.9,28.7-28.7,28.7H67.9c-15.8,0-28.7-12.9-28.7-28.7v-99.3
		c0-15.8,12.9-28.7,28.7-28.7h376.2c15.8,0,28.7,12.9,28.7,28.7V448z"/>
	<path d="M390.7,386.1H252.6c-6.8,0-12.3,5.5-12.3,12.3c0,6.8,5.5,12.3,12.3,12.3h138.1c6.8,0,12.3-5.5,12.3-12.3
		C403,391.6,397.5,386.1,390.7,386.1z"/>
	<circle cx="139.9" cy="398.4" r="15.7"/>
	<path d="M420.4,206c2.2,1.5,4.6,2.3,7.1,2.3c3.8,0,7.6-1.8,10-5.2c19.4-27.4,29.7-59.7,29.7-93.6S456.9,43.3,437.5,16
		c-3.9-5.5-11.6-6.8-17.1-2.9c-5.5,3.9-6.8,11.6-2.9,17.1c16.5,23.2,25.2,50.6,25.2,79.4s-8.7,56.2-25.2,79.4
		C413.6,194.4,414.9,202.1,420.4,206z"/>
	<path d="M351.2,153.4c2.2,1.5,4.6,2.3,7.1,2.3c3.8,0,7.6-1.8,10-5.2c8.5-12,13-26.2,13-41s-4.5-29-13-41
		c-3.9-5.5-11.6-6.8-17.1-2.9c-5.5,3.9-6.8,11.6-2.9,17.1c5.6,7.8,8.5,17.1,8.5,26.8s-2.9,19-8.5,26.8
		C344.3,141.8,345.6,149.5,351.2,153.4z"/>
	<path d="M91.6,13.1C86,9.1,78.4,10.4,74.5,16c-19.4,27.4-29.7,59.7-29.7,93.6s10.3,66.2,29.7,93.6c2.4,3.4,6.2,5.2,10,5.2
		c2.5,0,4.9-0.7,7.1-2.3c5.5-3.9,6.8-11.6,2.9-17.1c-16.5-23.2-25.2-50.6-25.2-79.4S78,53.3,94.5,30.1C98.4,24.6,97.1,17,91.6,13.1z
		"/>
	<path d="M160.8,65.6c-5.5-3.9-13.2-2.6-17.1,2.9c-8.5,12-13,26.2-13,41s4.5,29,13,41c2.4,3.4,6.2,5.2,10,5.2c2.5,0,4.9-0.7,7.1-2.3
		c5.5-3.9,6.8-11.6,2.9-17.1c-5.6-7.8-8.5-17.1-8.5-26.8s2.9-19,8.5-26.8C167.7,77.2,166.4,69.5,160.8,65.6z"/>
</g>
</svg>
