<?xml version="1.0" encoding="utf-8"?>
<!-- Generator: Adobe Illustrator 18.0.0, SVG Export Plug-In . SVG Version: 6.00 Build 0)  -->
<!DOCTYPE svg PUBLIC "-//W3C//DTD SVG 1.1//EN" "http://www.w3.org/Graphics/SVG/1.1/DTD/svg11.dtd">
<svg version="1.1" id="Artwork" xmlns="http://www.w3.org/2000/svg" xmlns:xlink="http://www.w3.org/1999/xlink" x="0px" y="0px"
	 viewBox="0 0 512 512" enable-background="new 0 0 512 512" xml:space="preserve">
<g>
	<path d="M470.4,367.8v-78.1c0-29.3-23.8-53.2-53.2-53.2H94.8c-29.3,0-53.2,23.8-53.2,53.2v78.1c0,29.3,23.8,53.2,53.2,53.2H193
		l-41,60.7c-3.8,5.6-2.3,13.2,3.3,17c2.1,1.4,4.5,2.1,6.8,2.1c3.9,0,7.8-1.9,10.2-5.4l50.2-74.4H292l50.2,74.4
		c2.4,3.5,6.2,5.4,10.2,5.4c2.4,0,4.7-0.7,6.8-2.1c5.6-3.8,7.1-11.4,3.3-17l-41-60.7h95.6C446.6,421,470.4,397.2,470.4,367.8z
		 M66.1,367.8v-78.1c0-15.8,12.9-28.7,28.7-28.7h322.5c15.8,0,28.7,12.9,28.7,28.7v78.1c0,15.8-12.9,28.7-28.7,28.7H94.8
		C79,396.5,66.1,383.6,66.1,367.8z"/>
	<path d="M333.6,136.3c3.8,0,7.6-1.8,10-5.2c3.9-5.5,2.6-13.2-2.9-17.1c-24.4-17.3-53.2-26.5-83.4-26.5c-30.2,0-59,9.2-83.4,26.5
		c-5.5,3.9-6.8,11.6-2.9,17.1c3.9,5.5,11.6,6.8,17.1,2.9c20.2-14.4,44.2-22,69.2-22c25.1,0,49,7.6,69.2,22
		C328.7,135.6,331.2,136.3,333.6,136.3z"/>
	<path d="M257.3,163.5c-13.4,0-26.2,4.1-37,11.7c-5.5,3.9-6.8,11.6-2.9,17.1s11.6,6.8,17.1,2.9c13.3-9.5,32.3-9.5,45.7,0
		c2.2,1.5,4.6,2.3,7.1,2.3c3.8,0,7.6-1.8,10-5.2c3.9-5.5,2.6-13.2-2.9-17.1C283.5,167.5,270.7,163.5,257.3,163.5z"/>
	<path d="M387.6,77c3.8,0,7.6-1.8,10-5.2c3.9-5.5,2.6-13.2-2.9-17.1C354.6,26.3,307,11.2,257.3,11.2c-49.7,0-97.2,15.1-137.4,43.6
		c-5.5,3.9-6.8,11.6-2.9,17.1c3.9,5.5,11.6,6.8,17.1,2.9c36-25.6,78.6-39.1,123.3-39.1c44.6,0,87.2,13.5,123.3,39.1
		C382.7,76.3,385.2,77,387.6,77z"/>
	<path d="M374.9,316.5H253c-6.8,0-12.3,5.5-12.3,12.3S246.3,341,253,341h121.9c6.8,0,12.3-5.5,12.3-12.3S381.7,316.5,374.9,316.5z"
		/>
	<circle cx="153.5" cy="328.8" r="16.7"/>
</g>
</svg>
