<?xml version="1.0" encoding="iso-8859-1"?>
<!-- Generator: Adobe Illustrator 19.0.0, SVG Export Plug-In . SVG Version: 6.00 Build 0)  -->
<svg version="1.1" id="Capa_1" xmlns="http://www.w3.org/2000/svg" xmlns:xlink="http://www.w3.org/1999/xlink" x="0px" y="0px"
	 viewBox="0 0 488.2 488.2" style="enable-background:new 0 0 488.2 488.2;" xml:space="preserve">
<g>
	<g>
		<path d="M12.3,220.9c-6.8,0-12.3,5.5-12.3,12.3v229.7c0,6.8,5.5,12.3,12.3,12.3h112.3c6.8,0,12.3-5.5,12.3-12.3V233.2
			c0-6.8-5.5-12.3-12.3-12.3H12.3z M112.3,450.6H24.5V245.4h87.8C112.3,245.4,112.3,450.6,112.3,450.6z"/>
		<path d="M175.7,25.3v437.6c0,6.8,5.5,12.3,12.3,12.3h112.3c6.8,0,12.3-5.5,12.3-12.3V25.3c0-6.8-5.5-12.3-12.3-12.3H187.9
			C181.2,13.1,175.7,18.5,175.7,25.3z M200.2,37.6H288v413.1h-87.8L200.2,37.6L200.2,37.6z"/>
		<path d="M475.9,475.1c6.8,0,12.3-5.5,12.3-12.3V168.1c0-6.8-5.5-12.3-12.3-12.3H363.6c-6.8,0-12.3,5.5-12.3,12.3v294.8
			c0,6.8,5.5,12.3,12.3,12.3h112.3V475.1z M375.9,180.4h87.8v270.3h-87.8V180.4z"/>
	</g>
</g>
<g>
</g>
<g>
</g>
<g>
</g>
<g>
</g>
<g>
</g>
<g>
</g>
<g>
</g>
<g>
</g>
<g>
</g>
<g>
</g>
<g>
</g>
<g>
</g>
<g>
</g>
<g>
</g>
<g>
</g>
</svg>
