<?xml version="1.0" encoding="iso-8859-1"?>
<!-- Generator: Adobe Illustrator 19.0.0, SVG Export Plug-In . SVG Version: 6.00 Build 0)  -->
<svg version="1.1" id="Capa_1" xmlns="http://www.w3.org/2000/svg" xmlns:xlink="http://www.w3.org/1999/xlink" x="0px" y="0px"
	 viewBox="0 0 489.8 489.8" style="enable-background:new 0 0 489.8 489.8;" xml:space="preserve">
<g>
	<g>
		<path d="M272.5,392.25c-18.9,5.4-38.7,8.1-58.8,8.1c-36.8,0-72.6-9.3-103.4-26.8c-3.8-2.2-8.6-2.1-12.4,0.1
			c-17.9,10.7-37,13.5-52,13.5c-0.1,0-0.2,0-0.2,0c9.9-9.7,17.6-21.8,22.8-36c1.6-4.3,0.6-9.2-2.5-12.6
			c-27.2-29.5-41.5-65-41.5-102.7c0-90.7,84.9-164.4,189.3-164.4c96.8,0,177.7,63,188.1,146.5c0.8,6.7,6.9,11.5,13.7,10.6
			c6.7-0.8,11.5-7,10.6-13.7c-11.9-95.7-103.3-167.9-212.5-167.9C95.9,46.95,0,131.75,0,235.85c0,40.9,15.1,80.8,42.8,113.4
			c-5.7,12.1-13.9,21.7-24.3,28.5c-6.3,4.1-9.3,11.6-7.7,18.9c1.6,7.2,7.5,12.6,14.8,13.6c16.7,2.3,48.3,3.6,78.7-12.1
			c33.1,17.4,70.7,26.6,109.4,26.6c22.4,0,44.4-3,65.5-9c6.5-1.8,10.3-8.6,8.4-15.1C285.8,394.15,279.1,390.35,272.5,392.25z"/>
		<circle cx="213.7" cy="235.85" r="13.6"/>
		<circle cx="155.1" cy="235.85" r="13.6"/>
		<circle cx="272.2" cy="235.85" r="13.6"/>
		<path d="M388.3,239.85c-27.1,0-52.6,10.6-71.8,29.7c-39.6,39.6-39.6,104,0,143.6c19.2,19.2,44.7,29.7,71.8,29.7
			c27.1,0,52.6-10.6,71.8-29.7c39.6-39.6,39.6-104,0-143.6C440.9,250.45,415.4,239.85,388.3,239.85z M442.8,395.85
			c-14.6,14.5-33.9,22.6-54.5,22.6s-39.9-8-54.5-22.6c-30-30-30-78.9,0-108.9c14.6-14.5,33.9-22.6,54.5-22.6s39.9,8,54.5,22.6
			C472.8,316.95,472.8,365.85,442.8,395.85z"/>
		<path d="M412,329.15h-47.3c-6.8,0-12.3,5.5-12.3,12.3s5.5,12.3,12.3,12.3H412c6.8,0,12.3-5.5,12.3-12.3S418.7,329.15,412,329.15z"
			/>
	</g>
</g>
<g>
</g>
<g>
</g>
<g>
</g>
<g>
</g>
<g>
</g>
<g>
</g>
<g>
</g>
<g>
</g>
<g>
</g>
<g>
</g>
<g>
</g>
<g>
</g>
<g>
</g>
<g>
</g>
<g>
</g>
</svg>
