<?xml version="1.0" encoding="iso-8859-1"?>
<!-- Generator: Adobe Illustrator 19.0.0, SVG Export Plug-In . SVG Version: 6.00 Build 0)  -->
<svg version="1.1" id="Capa_1" xmlns="http://www.w3.org/2000/svg" xmlns:xlink="http://www.w3.org/1999/xlink" x="0px" y="0px"
	 viewBox="0 0 489.8 489.8" style="enable-background:new 0 0 489.8 489.8;" xml:space="preserve">
<g>
	<g>
		<path d="M489.8,244.9c0-119.2-109.9-216.2-244.9-216.2S0,125.7,0,244.9s109.8,216.2,244.9,216.2c44.7,0,88.2-10.7,126.3-31
			c19.9,10.5,42.5,15.8,67.3,15.8c7.8,0,15.6-0.5,23.4-1.6c7.7-1.1,13.8-6.7,15.5-14.2c1.7-7.7-1.4-15.4-8.1-19.8
			c-12.7-8.4-22.5-20-29.3-34.8C472.2,338.1,489.8,292,489.8,244.9z M465.3,244.9c0,44.1-16.8,85.5-48.5,119.9
			c-3.1,3.4-4.1,8.2-2.5,12.6c6.6,17.7,16.4,32.5,29.3,44c-24.8,0.9-47.2-4.5-66-15.8c-1.9-1.2-4.1-1.7-6.3-1.7
			c-2.1,0-4.2,0.5-6.1,1.6c-35.9,20.4-77.5,31.2-120.3,31.2c-121.5,0-220.4-86-220.4-191.7S123.4,53.3,244.9,53.3
			S465.3,139.2,465.3,244.9z"/>
		<path d="M229.5,257h30.7c11.8,0,21.4,10.7,21.4,23.9s-9.6,23.9-21.4,23.9H205c-6.8,0-12.3,5.5-12.3,12.3s5.5,12.3,12.3,12.3h27.6
			v22.7c0,6.8,5.5,12.3,12.3,12.3c6.8,0,12.3-5.5,12.3-12.3v-22.7h3.4c0.1,0,0.2,0,0.3,0c25-0.4,45.3-21.9,45.3-48.4
			c0-26.7-20.6-48.4-45.9-48.4h-30.7c-11.8,0-21.5-10.7-21.5-23.9s9.6-23.9,21.5-23.9h54.2c6.8,0,12.3-5.5,12.3-12.3
			s-5.5-12.3-12.3-12.3h-26.6v-22.3c0-6.8-5.5-12.3-12.3-12.3s-12.3,5.5-12.3,12.3v22.3h-3.1c-25.3,0-46,21.7-46,48.4
			S204.2,257,229.5,257z"/>
	</g>
</g>
<g>
</g>
<g>
</g>
<g>
</g>
<g>
</g>
<g>
</g>
<g>
</g>
<g>
</g>
<g>
</g>
<g>
</g>
<g>
</g>
<g>
</g>
<g>
</g>
<g>
</g>
<g>
</g>
<g>
</g>
</svg>
