<?xml version="1.0" encoding="iso-8859-1"?>
<!-- Generator: Adobe Illustrator 19.0.0, SVG Export Plug-In . SVG Version: 6.00 Build 0)  -->
<svg version="1.1" id="Capa_1" xmlns="http://www.w3.org/2000/svg" xmlns:xlink="http://www.w3.org/1999/xlink" x="0px" y="0px"
	 viewBox="0 0 489.7 489.7" style="enable-background:new 0 0 489.7 489.7;" xml:space="preserve">
<g>
	<g>
		<path d="M0,244.85c0,119.2,109.9,216.2,244.9,216.2c44.7,0,88.2-10.7,126.3-31c19.9,10.5,42.5,15.8,67.3,15.8
			c7.8,0,15.6-0.5,23.4-1.6c7.7-1.1,13.8-6.7,15.5-14.2c1.7-7.7-1.4-15.4-8.1-19.8c-12.7-8.4-22.6-20-29.3-34.8
			c32.1-37.4,49.7-83.5,49.7-130.6c0-119.2-109.9-216.2-244.9-216.2S0,125.65,0,244.85z M24.5,244.85
			c0-105.7,98.9-191.7,220.4-191.7s220.4,86,220.4,191.7c0,44.1-16.8,85.5-48.5,119.9c-3.1,3.4-4.1,8.2-2.5,12.6
			c6.6,17.7,16.4,32.5,29.3,44c-24.7,0.9-47.2-4.5-66-15.8c-1.9-1.2-4.1-1.7-6.3-1.7c-2.1,0-4.2,0.5-6.1,1.6
			c-35.9,20.4-77.5,31.2-120.3,31.2C123.4,436.55,24.5,350.55,24.5,244.85z"/>
		<path d="M309.1,185.15l-94,93.5l-34.3-34.5c-4.8-4.8-12.5-4.8-17.3,0c-4.8,4.8-4.8,12.5,0,17.3l43,43.2c2.4,2.4,5.5,3.6,8.7,3.6
			c3.1,0,6.2-1.2,8.6-3.6l102.7-102.1c4.8-4.8,4.8-12.5,0-17.3C321.6,180.35,313.9,180.35,309.1,185.15z"/>
	</g>
</g>
<g>
</g>
<g>
</g>
<g>
</g>
<g>
</g>
<g>
</g>
<g>
</g>
<g>
</g>
<g>
</g>
<g>
</g>
<g>
</g>
<g>
</g>
<g>
</g>
<g>
</g>
<g>
</g>
<g>
</g>
</svg>
