<?xml version="1.0" encoding="iso-8859-1"?>
<!-- Generator: Adobe Illustrator 19.0.0, SVG Export Plug-In . SVG Version: 6.00 Build 0)  -->
<svg version="1.1" id="Capa_1" xmlns="http://www.w3.org/2000/svg" xmlns:xlink="http://www.w3.org/1999/xlink" x="0px" y="0px"
	 viewBox="0 0 489.8 489.8" style="enable-background:new 0 0 489.8 489.8;" xml:space="preserve">
<g>
	<g>
		<path d="M15.9,67.8c-0.2,0.2-0.4,0.4-0.7,0.6C5.9,76.8,0,88.9,0,102.4v225.5c0,27.5,22.3,49.8,49.8,49.8h235.3
			c6.8,0,12.3-5.5,12.3-12.3s-5.5-12.3-12.3-12.3H49.8c-13.9,0-25.3-11.3-25.3-25.3V102.4c0-2.3,0.5-4.5,1.1-6.6L199.7,247
			c2.3,2,5.2,3,8,3s5.7-1,8-3L391.4,94.5c1,2.5,1.6,5.1,1.6,7.9v87.7c0,6.8,5.5,12.3,12.3,12.3s12.3-5.5,12.3-12.3v-87.7
			c0-25.3-20.6-45.9-45.9-45.9H45.9C34.4,56.5,23.9,60.8,15.9,67.8z M207.8,221.5L45.9,81h323.7L207.8,221.5z"/>
		<path d="M489.8,409.2V339c0-13.1-10.6-23.8-23.7-24v-25.4c0-33.6-27.3-60.9-60.9-60.9s-60.9,27.3-60.9,60.9V315
			c-13.1,0.2-23.7,10.9-23.7,24v70.2c0,13.3,10.8,24.1,24.1,24.1h121C479,433.3,489.8,422.5,489.8,409.2z M405.3,253.2
			c20.1,0,36.4,16.3,36.4,36.4V315h-72.8v-25.4C368.8,269.5,385.2,253.2,405.3,253.2z M465.3,408.8H345.2v-69.3h120.1V408.8z"/>
	</g>
</g>
<g>
</g>
<g>
</g>
<g>
</g>
<g>
</g>
<g>
</g>
<g>
</g>
<g>
</g>
<g>
</g>
<g>
</g>
<g>
</g>
<g>
</g>
<g>
</g>
<g>
</g>
<g>
</g>
<g>
</g>
</svg>
