<?xml version="1.0" encoding="iso-8859-1"?>
<!-- Generator: Adobe Illustrator 19.0.0, SVG Export Plug-In . SVG Version: 6.00 Build 0)  -->
<svg version="1.1" id="Capa_1" xmlns="http://www.w3.org/2000/svg" xmlns:xlink="http://www.w3.org/1999/xlink" x="0px" y="0px"
	 viewBox="0 0 489.8 489.8" style="enable-background:new 0 0 489.8 489.8;" xml:space="preserve">
<g>
	<g>
		<path d="M285,377.65c6.8,0,12.3-5.5,12.3-12.3s-5.5-12.3-12.3-12.3H49.8c-13.9,0-25.3-11.3-25.3-25.3v-225.4
			c0-2.3,0.5-4.5,1.1-6.6l174.1,151.2c2.3,2,5.2,3,8,3c2.9,0,5.7-1,8-3l175.7-152.5c1,2.5,1.6,5.1,1.6,7.9v87.7
			c0,6.8,5.5,12.3,12.3,12.3s12.3-5.5,12.3-12.3v-87.7c0-25.3-20.6-45.9-45.9-45.9H45.9c-11.5,0-22,4.3-30,11.3
			c-0.2,0.2-0.4,0.4-0.7,0.6c-9.3,8.4-15.2,20.5-15.2,34v225.5c0,27.4,22.3,49.8,49.8,49.8H285z M207.8,221.45L45.9,80.95h323.7
			L207.8,221.45z"/>
		<path d="M344.7,314.95c-13.3,0-24.1,10.8-24.1,24.1v70.2c0,13.3,10.8,24.1,24.1,24.1h121c13.3,0,24.1-10.8,24.1-24.1v-70.2
			c0-13.1-10.6-23.8-23.7-24v-25.5c0-33.6-27.3-60.9-60.9-60.9c-25.3,0-47.5,15.2-56.7,38.7c-2.5,6.3,0.6,13.4,6.9,15.9
			s13.4-0.6,15.9-6.9c5.5-14.1,18.8-23.2,33.9-23.2c20.1,0,36.4,16.3,36.4,36.4v25.4H344.7z M465.3,408.75H345.2v-69.3h120.1V408.75
			z"/>
	</g>
</g>
<g>
</g>
<g>
</g>
<g>
</g>
<g>
</g>
<g>
</g>
<g>
</g>
<g>
</g>
<g>
</g>
<g>
</g>
<g>
</g>
<g>
</g>
<g>
</g>
<g>
</g>
<g>
</g>
<g>
</g>
</svg>
