<?xml version="1.0" encoding="iso-8859-1"?>
<!-- Generator: Adobe Illustrator 19.0.0, SVG Export Plug-In . SVG Version: 6.00 Build 0)  -->
<svg version="1.1" id="Capa_1" xmlns="http://www.w3.org/2000/svg" xmlns:xlink="http://www.w3.org/1999/xlink" x="0px" y="0px"
	 viewBox="0 0 489.3 489.3" style="enable-background:new 0 0 489.3 489.3;" xml:space="preserve">
<g>
	<g>
		<path d="M0,12.3V477c0,6.8,5.5,12.3,12.3,12.3h224c6.8,0,12.3-5.5,12.3-12.3s-5.5-12.3-12.3-12.3H24.5V24.5h440.2V235
			c0,6.8,5.5,12.3,12.3,12.3s12.3-5.5,12.3-12.3V12.3C489.3,5.5,483.8,0,477,0H12.3C5.5,0,0,5.5,0,12.3z"/>
		<path d="M489.2,476.9V306.6c0-6.8-5.5-12.3-12.3-12.3H306.6c-6.8,0-12.3,5.5-12.3,12.3V477c0,6.8,5.5,12.3,12.3,12.3H477
			C483.7,489.2,489.2,483.7,489.2,476.9z M464.7,464.7H318.8V318.8h145.9V464.7z"/>
		<path d="M219.8,98.1c0-6.8-5.5-12.3-12.3-12.3H98.1c-6.8,0-12.3,5.5-12.3,12.3v109.5c0,6.8,5.5,12.3,12.3,12.3s12.3-5.5,12.3-12.3
			v-80l138.7,138.7c2.4,2.4,5.5,3.6,8.7,3.6c3.2,0,6.3-1.2,8.7-3.6c4.8-4.8,4.8-12.5,0-17.3L127.6,110.3h79.9
			C214.3,110.3,219.8,104.8,219.8,98.1z"/>
	</g>
</g>
<g>
</g>
<g>
</g>
<g>
</g>
<g>
</g>
<g>
</g>
<g>
</g>
<g>
</g>
<g>
</g>
<g>
</g>
<g>
</g>
<g>
</g>
<g>
</g>
<g>
</g>
<g>
</g>
<g>
</g>
</svg>
