<?xml version="1.0" encoding="iso-8859-1"?>
<!-- Generator: Adobe Illustrator 19.0.0, SVG Export Plug-In . SVG Version: 6.00 Build 0)  -->
<svg version="1.1" id="Capa_1" xmlns="http://www.w3.org/2000/svg" xmlns:xlink="http://www.w3.org/1999/xlink" x="0px" y="0px"
	 viewBox="0 0 489.8 489.8" style="enable-background:new 0 0 489.8 489.8;" xml:space="preserve">
<g>
	<g>
		<path d="M438.2,0H51.6C23.1,0,0,23.2,0,51.6v386.6c0,28.5,23.2,51.6,51.6,51.6h386.6c28.5,0,51.6-23.2,51.6-51.6V51.6
			C489.8,23.2,466.6,0,438.2,0z M465.3,438.2c0,14.9-12.2,27.1-27.1,27.1H51.6c-14.9,0-27.1-12.2-27.1-27.1V51.6
			c0-14.9,12.2-27.1,27.1-27.1h386.6c14.9,0,27.1,12.2,27.1,27.1V438.2z"/>
		<path d="M296.9,140.5c-19.3,0-37.5,6.7-52,19c-14.5-12.4-32.8-19.1-52.1-19.1c-21.5,0-41.6,8.4-56.8,23.5
			c-15.2,15.2-23.6,35.4-23.5,56.9c0,21.5,8.4,41.7,23.6,56.9l92.9,92.9c4.3,4.3,10,6.6,16,6.6s11.7-2.4,16-6.6l92.7-92.7
			c15.2-15.2,23.6-35.4,23.6-56.9s-8.3-41.7-23.6-56.9C338.6,148.9,318.4,140.5,296.9,140.5z M336.4,260.6L245,352l-91.6-91.6
			c-10.6-10.6-16.4-24.6-16.4-39.6c0-14.9,5.8-29,16.4-39.6c10.5-10.5,24.5-16.3,39.4-16.3c15,0,29,5.8,39.6,16.4l3.8,3.8
			c4.8,4.8,12.5,4.8,17.3,0l3.7-3.7c10.6-10.6,24.6-16.4,39.6-16.4c14.9,0,29,5.8,39.5,16.4c10.6,10.6,16.4,24.6,16.4,39.6
			C352.8,235.9,347,250,336.4,260.6z"/>
	</g>
</g>
<g>
</g>
<g>
</g>
<g>
</g>
<g>
</g>
<g>
</g>
<g>
</g>
<g>
</g>
<g>
</g>
<g>
</g>
<g>
</g>
<g>
</g>
<g>
</g>
<g>
</g>
<g>
</g>
<g>
</g>
</svg>
