<?xml version="1.0" encoding="iso-8859-1"?>
<!-- Generator: Adobe Illustrator 19.0.0, SVG Export Plug-In . SVG Version: 6.00 Build 0)  -->
<svg version="1.1" id="Capa_1" xmlns="http://www.w3.org/2000/svg" xmlns:xlink="http://www.w3.org/1999/xlink" x="0px" y="0px"
	 viewBox="0 0 490.701 490.701" style="enable-background:new 0 0 490.701 490.701;" xml:space="preserve">
<g>
	<g>
		<path d="M143.701,152.374l152.8,109.7c3.7,2.7,8.7,3,12.7,0.9c4.1-2.1,6.7-6.3,6.7-10.9v-49.6c55.9,0.4,104.9,6,151.9,88.8
			c2.2,3.9,6.3,6.2,10.7,6.2c1,0,2.1-0.1,3.1-0.4c5.4-1.4,9.1-6.3,9.1-11.8c0-32.1-2.8-79.4-26.6-120.3
			c-28.1-48.1-77.9-75.5-148.2-81.5v-50.3c0-4.6-2.6-8.8-6.6-10.9c-4.1-2.1-9-1.7-12.7,0.9l-152.9,109.3c-3.2,2.3-5.1,6-5.1,10
			C138.601,146.374,140.501,150.074,143.701,152.374z M291.401,56.974v38c0,6.5,5.1,11.9,11.6,12.2c118,5.9,151.8,70.7,160.5,133.9
			c-50.8-63.1-106.1-63.1-159.9-63.1l0,0c-3.2,0-6.4,1.3-8.7,3.6s-3.6,5.4-3.6,8.7v38l-119.5-85.8L291.401,56.974z"/>
		<path d="M12.201,469.774h370.8c6.8,0,12.3-5.5,12.3-12.3v-188.1c0-6.8-5.5-12.3-12.3-12.3s-12.3,5.5-12.3,12.3v175.9h-346.3
			v-290.4h62.4c6.8,0,12.3-5.5,12.3-12.3s-5.5-12.3-12.3-12.3h-74.6c-6.8,0-12.2,5.5-12.2,12.3v314.9
			C-0.099,464.374,5.401,469.774,12.201,469.774z"/>
	</g>
</g>
<g>
</g>
<g>
</g>
<g>
</g>
<g>
</g>
<g>
</g>
<g>
</g>
<g>
</g>
<g>
</g>
<g>
</g>
<g>
</g>
<g>
</g>
<g>
</g>
<g>
</g>
<g>
</g>
<g>
</g>
</svg>
