<?xml version="1.0" encoding="iso-8859-1"?>
<!-- Generator: Adobe Illustrator 19.0.0, SVG Export Plug-In . SVG Version: 6.00 Build 0)  -->
<svg version="1.1" id="Capa_1" xmlns="http://www.w3.org/2000/svg" xmlns:xlink="http://www.w3.org/1999/xlink" x="0px" y="0px"
	 viewBox="0 0 489.3 489.3" style="enable-background:new 0 0 489.3 489.3;" xml:space="preserve">
<g>
	<g>
		<path d="M476.9,232.45H147.2l55.9-55.9c4.8-4.8,4.8-12.5,0-17.3s-12.5-4.8-17.3,0l-76.8,76.8c-4.8,4.8-4.8,12.5,0,17.3l76.8,76.8
			c2.4,2.4,5.5,3.6,8.7,3.6s6.3-1.2,8.7-3.6c4.8-4.8,4.8-12.5,0-17.3l-55.9-55.9H477c6.8,0,12.3-5.5,12.3-12.3
			C489.2,237.85,483.7,232.45,476.9,232.45z"/>
		<path d="M24.5,476.25V13.05c0-6.8-5.5-12.3-12.3-12.3S0,6.25,0,13.05v463.2c0,6.8,5.5,12.3,12.2,12.3S24.5,483.05,24.5,476.25z"/>
	</g>
</g>
<g>
</g>
<g>
</g>
<g>
</g>
<g>
</g>
<g>
</g>
<g>
</g>
<g>
</g>
<g>
</g>
<g>
</g>
<g>
</g>
<g>
</g>
<g>
</g>
<g>
</g>
<g>
</g>
<g>
</g>
</svg>
