<?xml version="1.0" encoding="iso-8859-1"?>
<!-- Generator: Adobe Illustrator 19.0.0, SVG Export Plug-In . SVG Version: 6.00 Build 0)  -->
<svg version="1.1" id="Capa_1" xmlns="http://www.w3.org/2000/svg" xmlns:xlink="http://www.w3.org/1999/xlink" x="0px" y="0px"
	 viewBox="0 0 489.8 489.8" style="enable-background:new 0 0 489.8 489.8;" xml:space="preserve">
<g>
	<g>
		<path d="M438.2,0H51.6C23.1,0,0,23.2,0,51.6v386.6c0,28.5,23.2,51.6,51.6,51.6h386.6c28.5,0,51.6-23.2,51.6-51.6V51.6
			C489.8,23.2,466.6,0,438.2,0z M465.3,438.2c0,14.9-12.2,27.1-27.1,27.1H51.6c-14.9,0-27.1-12.2-27.1-27.1V51.6
			c0-14.9,12.2-27.1,27.1-27.1h386.6c14.9,0,27.1,12.2,27.1,27.1V438.2z"/>
		<path d="M256.4,113c-0.1-0.2-0.2-0.3-0.2-0.5c-0.2-0.4-0.4-0.8-0.6-1.2c-0.2-0.3-0.4-0.7-0.6-1s-0.5-0.6-0.7-0.9
			c-0.3-0.3-0.5-0.6-0.8-0.9s-0.5-0.5-0.8-0.7c-0.3-0.3-0.7-0.5-1-0.8c-0.3-0.2-0.6-0.4-0.9-0.5c-0.4-0.2-0.8-0.4-1.3-0.6
			c-0.2-0.1-0.3-0.2-0.5-0.2c-0.2-0.1-0.3-0.1-0.5-0.1c-0.5-0.1-0.9-0.3-1.4-0.3c-0.3-0.1-0.7-0.1-1-0.2c-0.4,0-0.8-0.1-1.3-0.1
			c-0.4,0-0.8,0-1.2,0.1c-0.4,0-0.7,0.1-1.1,0.2c-0.5,0.1-0.9,0.2-1.3,0.3c-0.2,0.1-0.3,0.1-0.5,0.1c-0.2,0.1-0.3,0.2-0.5,0.2
			c-0.4,0.2-0.8,0.4-1.2,0.6c-0.3,0.2-0.6,0.4-0.9,0.5c-0.4,0.2-0.7,0.5-1,0.8c-0.3,0.2-0.6,0.5-0.8,0.7c-0.3,0.3-0.6,0.6-0.8,0.9
			c-0.3,0.3-0.5,0.6-0.7,0.9s-0.4,0.6-0.6,1c-0.2,0.4-0.4,0.8-0.6,1.2c-0.1,0.2-0.2,0.3-0.2,0.5l-91.5,255.6
			c-2.3,6.4,1,13.4,7.4,15.7c1.4,0.5,2.8,0.7,4.1,0.7c5,0,9.7-3.1,11.5-8.1l26.2-73.3h106.3c0.3,0,0.6-0.1,1-0.1l26.2,73.4
			c1.8,5,6.5,8.1,11.5,8.1c1.4,0,2.8-0.2,4.1-0.7c6.4-2.3,9.7-9.3,7.4-15.7L256.4,113z M200,279l44.9-125.5L289.8,279H200z"/>
	</g>
</g>
<g>
</g>
<g>
</g>
<g>
</g>
<g>
</g>
<g>
</g>
<g>
</g>
<g>
</g>
<g>
</g>
<g>
</g>
<g>
</g>
<g>
</g>
<g>
</g>
<g>
</g>
<g>
</g>
<g>
</g>
</svg>
