<?xml version="1.0" encoding="iso-8859-1"?>
<!-- Generator: Adobe Illustrator 19.0.0, SVG Export Plug-In . SVG Version: 6.00 Build 0)  -->
<svg version="1.1" id="Capa_1" xmlns="http://www.w3.org/2000/svg" xmlns:xlink="http://www.w3.org/1999/xlink" x="0px" y="0px"
	 viewBox="0 0 490.1 490.1" style="enable-background:new 0 0 490.1 490.1;" xml:space="preserve">
<g>
	<path d="M201.9,21.018c-18.6,13.6-28,36.9-28,69v76.2H68.3c-37.6,0-68.3,30.6-68.3,68.3v2.1c0,0.6,0.1,1.3,0.2,1.9l28.1,176.5
		c5.2,42.4,34.8,66.8,81.1,66.8h209.2c37.6,0,68.3-30.6,68.3-68.3v-196.1c0-5.9,4.8-10.7,10.7-10.7h57.3c5.9,0,10.7,4.8,10.7,10.7
		v207.9c0,5.9-4.8,10.7-10.7,10.7h-33.1c-6.8,0-12.3,5.5-12.3,12.3s5.5,12.3,12.3,12.3h33.1c19.4,0,35.2-15.8,35.2-35.2v-208
		c0-19.4-15.8-35.2-35.2-35.2h-57.3c-13.8,0-25.8,8-31.6,19.6c-0.8-0.5-1.7-0.8-2.7-1.1c-3.3-0.9-81.4-23.8-81.4-91.2v-85.6
		c0-5.4-3.5-10.1-8.6-11.7C271.7,11.718,231.3-0.582,201.9,21.018z M356.8,224.218c1.9,0.5,3.8,0.6,5.6,0.2v189.1
		c0,24.1-19.6,43.8-43.8,43.8h-66.4H109.4c-34,0-53.1-15.2-56.9-45.7l-28-176v-1.1c0-24.1,19.6-43.8,43.8-43.8h117.9
		c6.8,0,12.3-5.5,12.3-12.3v-88.4c0-23.9,6-40.4,17.9-49.2c12.9-9.6,30.7-8.7,41.1-7v75.6
		C257.5,195.418,352.7,223.118,356.8,224.218z"/>
</g>
<g>
</g>
<g>
</g>
<g>
</g>
<g>
</g>
<g>
</g>
<g>
</g>
<g>
</g>
<g>
</g>
<g>
</g>
<g>
</g>
<g>
</g>
<g>
</g>
<g>
</g>
<g>
</g>
<g>
</g>
</svg>
