<?xml version="1.0" encoding="iso-8859-1"?>
<!-- Generator: Adobe Illustrator 19.0.0, SVG Export Plug-In . SVG Version: 6.00 Build 0)  -->
<svg version="1.1" id="Capa_1" xmlns="http://www.w3.org/2000/svg" xmlns:xlink="http://www.w3.org/1999/xlink" x="0px" y="0px"
	 viewBox="0 0 488.8 488.8" style="enable-background:new 0 0 488.8 488.8;" xml:space="preserve">
<g>
	<g>
		<path d="M43,204.8h118.8c23.7,0,43-19.3,43-43V43c0-23.7-19.3-43-43-43H43C19.3,0,0,19.3,0,43v118.7C0,185.5,19.3,204.8,43,204.8z
			 M24.5,43c0-10.2,8.3-18.5,18.5-18.5h118.8c10.2,0,18.5,8.3,18.5,18.5v118.7c0,10.2-8.3,18.5-18.5,18.5H43
			c-10.2,0-18.5-8.3-18.5-18.5V43z"/>
		<path d="M346.8,109c0-16.2-13.2-29.4-29.5-29.4h-66.4c-16.2,0-29.5,13.2-29.5,29.4v66.4c0,16.2,13.2,29.5,29.5,29.5h66.4
			c16.2,0,29.5-13.2,29.5-29.5V109z M322.3,175.3c0,2.7-2.2,5-5,5h-66.4c-2.7,0-5-2.2-5-5v-66.4c0-2.7,2.2-4.9,5-4.9h66.4
			c2.7,0,5,2.2,5,4.9V175.3z"/>
		<path d="M488.8,109c0-16.2-13.2-29.4-29.4-29.4H393c-16.2,0-29.5,13.2-29.5,29.4v66.4c0,16.2,13.2,29.5,29.5,29.5h66.4
			c16.2,0,29.4-13.2,29.4-29.5V109z M464.3,175.3c0,2.7-2.2,5-4.9,5H393c-2.7,0-5-2.2-5-5v-66.4c0-2.7,2.2-4.9,5-4.9h66.4
			c2.7,0,4.9,2.2,4.9,4.9V175.3z"/>
		<path d="M346.8,251c0-16.2-13.2-29.4-29.5-29.4h-66.4c-16.2,0-29.5,13.2-29.5,29.4v66.4c0,16.2,13.2,29.5,29.5,29.5h66.4
			c16.2,0,29.5-13.2,29.5-29.5V251z M322.3,317.3c0,2.7-2.2,5-5,5h-66.4c-2.7,0-5-2.2-5-5v-66.4c0-2.7,2.2-4.9,5-4.9h66.4
			c2.7,0,5,2.2,5,4.9V317.3z"/>
		<path d="M488.8,251c0-16.2-13.2-29.4-29.4-29.4H393c-16.2,0-29.5,13.2-29.5,29.4v66.4c0,16.2,13.2,29.5,29.5,29.5h66.4
			c16.2,0,29.4-13.2,29.4-29.5V251z M464.3,317.3c0,2.7-2.2,5-4.9,5H393c-2.7,0-5-2.2-5-5v-66.4c0-2.7,2.2-4.9,5-4.9h66.4
			c2.7,0,4.9,2.2,4.9,4.9V317.3z"/>
		<path d="M109,221.5c-16.2,0-29.5,13.2-29.5,29.4v66.4c0,16.2,13.2,29.5,29.5,29.5h66.4c16.2,0,29.5-13.2,29.5-29.5v-66.4
			c0-16.2-13.2-29.4-29.5-29.4H109z M180.3,251v66.4c0,2.7-2.2,5-5,5h-66.4c-2.7,0-5-2.2-5-5V251c0-2.7,2.2-4.9,5-4.9h66.4
			C178.1,246,180.3,248.2,180.3,251z"/>
		<path d="M317.3,363.5h-66.4c-16.2,0-29.5,13.2-29.5,29.5v66.4c0,16.2,13.2,29.4,29.5,29.4h66.4c16.2,0,29.5-13.2,29.5-29.4V393
			C346.8,376.7,333.6,363.5,317.3,363.5z M322.3,459.4c0,2.7-2.2,4.9-5,4.9h-66.4c-2.7,0-5-2.2-5-4.9V393c0-2.7,2.2-5,5-5h66.4
			c2.7,0,5,2.2,5,5V459.4z"/>
		<path d="M459.4,363.5H393c-16.2,0-29.5,13.2-29.5,29.5v66.4c0,16.2,13.2,29.4,29.5,29.4h66.4c16.2,0,29.4-13.2,29.4-29.4V393
			C488.8,376.7,475.6,363.5,459.4,363.5z M464.3,459.4c0,2.7-2.2,4.9-4.9,4.9H393c-2.7,0-5-2.2-5-4.9V393c0-2.7,2.2-5,5-5h66.4
			c2.7,0,4.9,2.2,4.9,5V459.4z"/>
		<path d="M109,488.8h66.4c16.2,0,29.5-13.2,29.5-29.4V393c0-16.2-13.2-29.5-29.5-29.5H109c-16.2,0-29.5,13.2-29.5,29.5v66.4
			C79.5,475.6,92.7,488.8,109,488.8z M104,393c0-2.7,2.2-5,5-5h66.4c2.7,0,5,2.2,5,5v66.4c0,2.7-2.2,4.9-5,4.9H109
			c-2.7,0-5-2.2-5-4.9V393z"/>
	</g>
</g>
<g>
</g>
<g>
</g>
<g>
</g>
<g>
</g>
<g>
</g>
<g>
</g>
<g>
</g>
<g>
</g>
<g>
</g>
<g>
</g>
<g>
</g>
<g>
</g>
<g>
</g>
<g>
</g>
<g>
</g>
</svg>
