<?xml version="1.0" encoding="iso-8859-1"?>
<!-- Generator: Adobe Illustrator 19.0.0, SVG Export Plug-In . SVG Version: 6.00 Build 0)  -->
<svg version="1.1" id="Capa_1" xmlns="http://www.w3.org/2000/svg" xmlns:xlink="http://www.w3.org/1999/xlink" x="0px" y="0px"
	 viewBox="0 0 490.1 490.1" style="enable-background:new 0 0 490.1 490.1;" xml:space="preserve">
<g>
	<g>
		<path d="M296,80.85c0-6.8-5.5-12.3-12.3-12.3s-12.3,5.5-12.3,12.3v125.5c0,6.8,5.5,12.3,12.3,12.3h125.5c6.8,0,12.3-5.5,12.3-12.3
			s-5.5-12.3-12.3-12.3h-95.9l173-173c4.8-4.8,4.8-12.5,0-17.3s-12.5-4.8-17.3,0l-173,173L296,80.85L296,80.85z"/>
		<path d="M20.9,486.45l173.1-173v95.9c0,6.8,5.5,12.3,12.3,12.3s12.3-5.5,12.3-12.3v-125.5c0-6.8-5.5-12.3-12.3-12.3H80.8
			c-6.8,0-12.3,5.5-12.3,12.3s5.5,12.2,12.3,12.2h95.9l-173,173c-4.8,4.8-4.8,12.5,0,17.3c2.4,2.4,5.5,3.6,8.7,3.6
			S18.5,488.85,20.9,486.45z"/>
		<path d="M206.2,68.55c-6.8,0-12.3,5.5-12.3,12.3v95.9L20.9,3.65c-4.8-4.8-12.5-4.8-17.3,0s-4.8,12.5,0,17.3l173,173H80.8
			c-6.8,0-12.3,5.5-12.3,12.3s5.5,12.3,12.3,12.3h125.5c6.8,0,12.3-5.5,12.3-12.3V80.85C218.5,74.05,213,68.55,206.2,68.55z"/>
		<path d="M421.5,283.85c0-6.8-5.5-12.3-12.3-12.3H283.8c-6.8,0-12.3,5.5-12.3,12.3v125.5c0,6.8,5.5,12.3,12.3,12.3
			s12.3-5.5,12.3-12.3v-95.9l173,173c2.4,2.4,5.5,3.6,8.7,3.6s6.3-1.2,8.7-3.6c4.8-4.8,4.8-12.5,0-17.3l-173-173h95.9
			C416,296.05,421.5,290.65,421.5,283.85z"/>
	</g>
</g>
<g>
</g>
<g>
</g>
<g>
</g>
<g>
</g>
<g>
</g>
<g>
</g>
<g>
</g>
<g>
</g>
<g>
</g>
<g>
</g>
<g>
</g>
<g>
</g>
<g>
</g>
<g>
</g>
<g>
</g>
</svg>
