<?xml version="1.0" encoding="iso-8859-1"?>
<!-- Generator: Adobe Illustrator 19.0.0, SVG Export Plug-In . SVG Version: 6.00 Build 0)  -->
<svg version="1.1" id="Capa_1" xmlns="http://www.w3.org/2000/svg" xmlns:xlink="http://www.w3.org/1999/xlink" x="0px" y="0px"
	 viewBox="0 0 489.3 489.3" style="enable-background:new 0 0 489.3 489.3;" xml:space="preserve">
<g>
	<g>
		<path d="M354.6,173.35c-4.8-4.8-12.5-4.8-17.3,0l-62.6,62.6c-2.3,2.3-3.6,5.4-3.6,8.7c0,3.2,1.3,6.4,3.6,8.7l62.6,62.6
			c2.4,2.4,5.5,3.6,8.7,3.6s6.3-1.2,8.7-3.6c4.8-4.8,4.8-12.5,0-17.3l-41.7-41.7h164c6.8,0,12.3-5.5,12.3-12.3s-5.5-12.3-12.3-12.3
			H313l41.6-41.7C359.4,185.95,359.4,178.15,354.6,173.35z"/>
		<path d="M0,244.65c0,6.8,5.5,12.3,12.2,12.3h164l-41.6,41.7c-4.8,4.8-4.8,12.5,0,17.3c2.4,2.4,5.5,3.6,8.7,3.6s6.3-1.2,8.7-3.6
			l62.6-62.6c2.3-2.3,3.6-5.4,3.6-8.7c0-3.2-1.3-6.4-3.6-8.7l-62.6-62.6c-4.8-4.8-12.5-4.8-17.3,0s-4.8,12.5,0,17.3l41.7,41.7h-164
			C5.5,232.35,0,237.85,0,244.65z"/>
		<path d="M173.3,151.95l62.6,62.6c2.4,2.4,5.5,3.6,8.7,3.6c3.1,0,6.3-1.2,8.7-3.6l62.6-62.6c4.8-4.8,4.8-12.5,0-17.3
			s-12.5-4.8-17.3,0l-41.7,41.7v-164c0-6.8-5.5-12.3-12.3-12.3s-12.2,5.5-12.2,12.3v164l-41.8-41.7c-4.8-4.8-12.5-4.8-17.3,0
			S168.5,147.15,173.3,151.95z"/>
		<path d="M235.9,274.75l-62.6,62.6c-4.8,4.8-4.8,12.5,0,17.3s12.5,4.8,17.3,0l41.7-41.7v164c0,6.8,5.5,12.3,12.2,12.3
			s12.3-5.5,12.3-12.3v-164l41.8,41.7c2.4,2.4,5.5,3.6,8.7,3.6s6.3-1.2,8.7-3.6c4.8-4.8,4.8-12.5,0-17.3l-62.6-62.6
			C248.5,269.95,240.7,269.95,235.9,274.75z"/>
	</g>
</g>
<g>
</g>
<g>
</g>
<g>
</g>
<g>
</g>
<g>
</g>
<g>
</g>
<g>
</g>
<g>
</g>
<g>
</g>
<g>
</g>
<g>
</g>
<g>
</g>
<g>
</g>
<g>
</g>
<g>
</g>
</svg>
