<?xml version="1.0" encoding="iso-8859-1"?>
<!-- Generator: Adobe Illustrator 19.0.0, SVG Export Plug-In . SVG Version: 6.00 Build 0)  -->
<svg version="1.1" id="Capa_1" xmlns="http://www.w3.org/2000/svg" xmlns:xlink="http://www.w3.org/1999/xlink" x="0px" y="0px"
	 viewBox="0 0 490.4 490.4" style="enable-background:new 0 0 490.4 490.4;" xml:space="preserve">
<g>
	<path d="M382,221.3c-6.8,0-12.3,5.5-12.3,12.3v69.5c0,6.8,5.5,12.3,12.3,12.3h96.1c6.8,0,12.3-5.5,12.3-12.3v-69.6
		c0-6.8-5.5-12.3-12.3-12.3h-35.8v-46.4c0-6.8-5.5-12.3-12.3-12.3H257.4v-35.9H303c6.8,0,12.3-5.5,12.3-12.3V24.9
		c0-6.8-5.5-12.3-12.3-12.3H187.3c-6.8,0-12.3,5.5-12.3,12.3v89.6c0,6.8,5.5,12.3,12.3,12.3h45.6v35.9H60.4
		c-6.8,0-12.3,5.5-12.3,12.3v46.4H12.3c-6.8,0-12.3,5.5-12.3,12.3v69.4c0,6.8,5.5,12.3,12.3,12.3h96.1c6.8,0,12.3-5.5,12.3-12.3
		v-69.6c0-6.8-5.5-12.3-12.3-12.3H72.6v-34.1h160.3v34.1h-35.8c-6.8,0-12.3,5.5-12.3,12.3v69.6c0,6.8,5.5,12.3,12.3,12.3h35.8v28.3
		H108.4c-6.8,0-12.3,5.5-12.3,12.3v40.3H74.4c-6.8,0-12.3,5.5-12.3,12.3v56.9c0,6.8,5.5,12.3,12.3,12.3h68.1
		c6.8,0,12.3-5.5,12.3-12.3v-56.9c0-6.8-5.5-12.3-12.3-12.3h-21.8v-28.2H233v26.7c0,0.5,0.1,0.9,0.1,1.4h-22
		c-6.8,0-12.3,5.5-12.3,12.3v56.9c0,6.8,5.5,12.3,12.3,12.3h68.1c6.8,0,12.3-5.5,12.3-12.3v-56.9c0-6.8-5.5-12.3-12.3-12.3h-22
		c0.1-0.5,0.1-0.9,0.1-1.4v-26.7h112.3v28.1h-21.8c-6.8,0-12.3,5.5-12.3,12.3v56.9c0,6.8,5.5,12.3,12.3,12.3h68.1
		c6.8,0,12.3-5.5,12.3-12.3v-56.9c0-6.8-5.5-12.3-12.3-12.3h-21.7v-40.3c0-6.8-5.5-12.3-12.3-12.3H257.4v-28.3h35.8
		c6.8,0,12.3-5.5,12.3-12.3v-69.6c0-6.8-5.5-12.3-12.3-12.3h-35.8V187h160.3v34.1H382V221.3z M199.6,37.1h91.2v65.1h-91.2
		L199.6,37.1L199.6,37.1z M96.2,290.9H24.5v-45.1h71.7V290.9z M130.3,453.1H86.6v-32.4h43.6v32.4H130.3z M267,453.1h-43.6v-32.4H267
		V453.1z M403.8,453.1h-43.6v-32.4h43.6V453.1z M281,290.9h-71.6v-45.1H281V290.9z M465.9,290.9h-71.7v-45.1h71.6v45.1H465.9z"/>
</g>
<g>
</g>
<g>
</g>
<g>
</g>
<g>
</g>
<g>
</g>
<g>
</g>
<g>
</g>
<g>
</g>
<g>
</g>
<g>
</g>
<g>
</g>
<g>
</g>
<g>
</g>
<g>
</g>
<g>
</g>
</svg>
