<?xml version="1.0" encoding="iso-8859-1"?>
<!-- Generator: Adobe Illustrator 19.0.0, SVG Export Plug-In . SVG Version: 6.00 Build 0)  -->
<svg version="1.1" id="Capa_1" xmlns="http://www.w3.org/2000/svg" xmlns:xlink="http://www.w3.org/1999/xlink" x="0px" y="0px"
	 viewBox="0 0 489 489" style="enable-background:new 0 0 489 489;" xml:space="preserve">
<g>
	<path d="M484.5,250.448l-185.1-153.2c-3.7-3-8.7-3.7-13-1.6c-4.3,2-7,6.3-7,11.1v79.5c-76.8-0.3-194.2-6-256.5-115.9
		c-2.7-4.8-8.4-7.2-13.8-5.8c-5.4,1.4-9.1,6.3-9.1,11.8c0,41.1,15.7,104,59.7,157.6c35.4,43.1,102.1,94.4,219.7,98.8v79.8
		c0,4.7,2.7,9.1,7,11.1c1.7,0.8,3.4,1.2,5.2,1.2c2.8,0,5.6-1,7.8-2.8l185.1-152.7c2.8-2.3,4.5-5.8,4.5-9.4
		C488.9,256.248,487.3,252.748,484.5,250.448z M303.8,386.548v-65.7c0-6.7-5.4-12.2-12.1-12.3c-176-1.7-241.6-109-260.7-184.4
		c75.9,86.5,189.3,86.6,260.6,86.6l0,0c3.2,0,6.4-1.3,8.7-3.6s3.6-5.4,3.6-8.7v-65.7l153.5,127.1L303.8,386.548z"/>
</g>
<g>
</g>
<g>
</g>
<g>
</g>
<g>
</g>
<g>
</g>
<g>
</g>
<g>
</g>
<g>
</g>
<g>
</g>
<g>
</g>
<g>
</g>
<g>
</g>
<g>
</g>
<g>
</g>
<g>
</g>
</svg>
