<?xml version="1.0" encoding="iso-8859-1"?>
<!-- Generator: Adobe Illustrator 19.0.0, SVG Export Plug-In . SVG Version: 6.00 Build 0)  -->
<svg version="1.1" id="Capa_1" xmlns="http://www.w3.org/2000/svg" xmlns:xlink="http://www.w3.org/1999/xlink" x="0px" y="0px"
	 viewBox="0 0 491.4 491.4" style="enable-background:new 0 0 491.4 491.4;" xml:space="preserve">
<g>
	<g>
		<path d="M277.4,2.059c-3.5-0.5-7,0.6-9.7,3c-2.6,2.3-4.2,5.7-4.2,9.2v112.2c0,5.6,3.8,10.5,9.3,11.9
			c49.2,12.4,83.6,56.5,83.6,107.4c0,7.2-0.7,14.5-2.1,21.6c-1.1,5.5,1.7,11,6.8,13.4l101.4,48.2c1.7,0.8,3.5,1.2,5.3,1.2
			c1.6,0,3.3-0.3,4.8-1c3.2-1.4,5.7-4.1,6.8-7.5c8-24.5,12-50.1,12-75.9C491.4,122.559,399.4,17.859,277.4,2.059z M460,300.559
			l-80.1-38c0.7-5.6,1.1-11.2,1.1-16.8c0-58.8-37.7-110.3-92.9-128.4v-88.7c102.9,20,178.8,110.9,178.8,217
			C466.9,264.259,464.5,282.659,460,300.559z"/>
		<path d="M214,2.059c-122,15.7-214,120.4-214,243.6c0,123.1,92,227.8,214,243.6c0.5,0.1,1,0.1,1.6,0.1c3,0,5.8-1.1,8.1-3.1
			c2.6-2.3,4.2-5.7,4.2-9.2v-112.2c0-5.6-3.8-10.5-9.3-11.9c-49.2-12.4-83.6-56.5-83.6-107.4c0-50.8,34.4-95,83.6-107.4
			c5.4-1.4,9.3-6.3,9.3-11.9v-112c0-3.5-1.5-6.9-4.2-9.2C221,2.759,217.5,1.659,214,2.059z M203.3,117.259
			c-55.1,18.1-92.9,69.6-92.9,128.4s37.7,110.3,92.9,128.4v88.6c-102.9-20-178.8-110.9-178.8-217s76-197.1,178.8-217V117.259z"/>
		<path d="M447.1,361.059l-101.4-48.1c-5.1-2.4-11.1-1.1-14.7,3.3c-14.9,18-35.6,31.1-58.2,36.8c-5.4,1.4-9.3,6.3-9.3,11.9v112.2
			c0,3.5,1.5,6.9,4.2,9.2c2.2,2,5.1,3.1,8.1,3.1c0.5,0,1,0,1.6-0.1c71.6-9.2,135.3-49.5,174.7-110.4c1.9-3,2.5-6.6,1.5-10
			C452.6,365.459,450.2,362.659,447.1,361.059z M288.1,462.659v-88.6c20.9-6.9,40.1-19.1,55.4-35.1l80,38
			C390.6,421.659,342.3,452.159,288.1,462.659z"/>
	</g>
</g>
<g>
</g>
<g>
</g>
<g>
</g>
<g>
</g>
<g>
</g>
<g>
</g>
<g>
</g>
<g>
</g>
<g>
</g>
<g>
</g>
<g>
</g>
<g>
</g>
<g>
</g>
<g>
</g>
<g>
</g>
</svg>
