<?xml version="1.0" encoding="iso-8859-1"?>
<!-- Generator: Adobe Illustrator 19.0.0, SVG Export Plug-In . SVG Version: 6.00 Build 0)  -->
<svg version="1.1" id="Capa_1" xmlns="http://www.w3.org/2000/svg" xmlns:xlink="http://www.w3.org/1999/xlink" x="0px" y="0px"
	 viewBox="0 0 488.902 488.902" style="enable-background:new 0 0 488.902 488.902;" xml:space="preserve">
<g>
	<path d="M479.9,64.549c-5.4-1.4-11,1-13.8,5.8c-62.3,109.8-179.8,115.6-256.5,115.9v-79.5c0-4.7-2.7-9.1-7-11.1s-9.4-1.4-13,1.6
		L4.4,250.449c-2.8,2.3-4.4,5.8-4.4,9.4c0,3.7,1.6,7.1,4.5,9.4l185,152.7c2.2,1.8,5,2.8,7.8,2.8c1.8,0,3.6-0.4,5.2-1.2
		c4.3-2,7-6.3,7-11.1v-79.8c117.7-4.4,184.3-55.7,219.7-98.8c44-53.5,59.7-116.5,59.7-157.6C489,70.849,485.3,65.949,479.9,64.549z
		 M197.2,308.549c-6.7,0.1-12.1,5.5-12.1,12.3v65.7l-153.6-126.7l153.6-127.1v65.7c0,3.2,1.3,6.4,3.6,8.7s5.4,3.6,8.7,3.6
		c71.3,0,184.7,0,260.6-86.6C438.9,199.549,373.2,306.849,197.2,308.549z"/>
</g>
<g>
</g>
<g>
</g>
<g>
</g>
<g>
</g>
<g>
</g>
<g>
</g>
<g>
</g>
<g>
</g>
<g>
</g>
<g>
</g>
<g>
</g>
<g>
</g>
<g>
</g>
<g>
</g>
<g>
</g>
</svg>
