<?xml version="1.0" encoding="iso-8859-1"?>
<!-- Generator: Adobe Illustrator 19.0.0, SVG Export Plug-In . SVG Version: 6.00 Build 0)  -->
<svg version="1.1" id="Capa_1" xmlns="http://www.w3.org/2000/svg" xmlns:xlink="http://www.w3.org/1999/xlink" x="0px" y="0px"
	 viewBox="0 0 488.9 488.9" style="enable-background:new 0 0 488.9 488.9;" xml:space="preserve">
<g>
	<g>
		<path d="M423.75,411.4h-33.9c-6.8,0-12.3,5.5-12.3,12.3s5.5,12.3,12.3,12.3h33.9c28.1,0,51-22.9,51-51V104.1c0-28.1-22.9-51-51-51
			h-232.5l32.2-32.2c4.8-4.8,4.8-12.5,0-17.3s-12.5-4.8-17.3,0l-53.1,53.1c-2.3,2.3-3.6,5.4-3.6,8.7c0,3.2,1.3,6.4,3.6,8.7
			l53.1,53.1c2.4,2.4,5.5,3.6,8.7,3.6s6.3-1.2,8.7-3.6c4.8-4.8,4.8-12.5,0-17.3l-32.2-32.2h232.5c14.6,0,26.5,11.9,26.5,26.5V385
			C450.25,399.5,438.35,411.4,423.75,411.4z"/>
		<path d="M282.75,361.8c-4.8-4.8-12.5-4.8-17.3,0s-4.8,12.5,0,17.3l32.2,32.2H65.15c-14.6,0-26.5-11.9-26.5-26.5V104.1
			c0-14.6,11.9-26.5,26.5-26.5h33.9c6.8,0,12.3-5.5,12.3-12.3S105.85,53,99.05,53h-33.9c-28.1,0-51,22.9-51,51v280.8
			c0,28.1,22.9,51,51,51h232.5l-32.2,32.2c-4.8,4.8-4.8,12.5,0,17.3c2.4,2.4,5.5,3.6,8.7,3.6s6.3-1.2,8.7-3.6l53.1-53.1
			c2.3-2.3,3.6-5.4,3.6-8.7c0-3.2-1.3-6.4-3.6-8.7L282.75,361.8z"/>
		<circle cx="244.45" cy="244.5" r="15.7"/>
		<circle cx="177.15" cy="244.5" r="15.7"/>
		<circle cx="311.75" cy="244.5" r="15.7"/>
	</g>
</g>
<g>
</g>
<g>
</g>
<g>
</g>
<g>
</g>
<g>
</g>
<g>
</g>
<g>
</g>
<g>
</g>
<g>
</g>
<g>
</g>
<g>
</g>
<g>
</g>
<g>
</g>
<g>
</g>
<g>
</g>
</svg>
