<?xml version="1.0" encoding="iso-8859-1"?>
<!-- Generator: Adobe Illustrator 19.0.0, SVG Export Plug-In . SVG Version: 6.00 Build 0)  -->
<svg version="1.1" id="Capa_1" xmlns="http://www.w3.org/2000/svg" xmlns:xlink="http://www.w3.org/1999/xlink" x="0px" y="0px"
	 viewBox="0 0 489.1 489.1" style="enable-background:new 0 0 489.1 489.1;" xml:space="preserve">
<g>
	<g>
		<path d="M474.85,384.9V104.1c0-28.1-22.9-51-51-51h-33.9c-6.8,0-12.3,5.5-12.3,12.3s5.5,12.3,12.3,12.3h33.9
			c14.6,0,26.5,11.9,26.5,26.5V385c0,14.6-11.9,26.5-26.5,26.5h-232.5l32.2-32.2c4.8-4.8,4.8-12.5,0-17.3s-12.5-4.8-17.3,0
			l-53.1,53.1c-4.8,4.8-4.8,12.5,0,17.3l53.1,53.1c2.4,2.4,5.5,3.6,8.7,3.6s6.3-1.2,8.7-3.6c4.8-4.8,4.8-12.5,0-17.3l-32.2-32.2
			h232.4C451.95,435.9,474.85,413,474.85,384.9z"/>
		<path d="M335.95,56.7l-53.1-53.1c-4.8-4.8-12.5-4.8-17.3,0s-4.8,12.5,0,17.3l32.2,32.2H65.25c-28.1,0-51,22.9-51,51v280.8
			c0,28.1,22.9,51,51,51h33.9c6.8,0,12.3-5.5,12.3-12.3s-5.5-12.3-12.3-12.3h-33.9c-14.6,0-26.5-11.9-26.5-26.5V104.1
			c0-14.6,11.9-26.5,26.5-26.5h232.4l-32.2,32.2c-4.8,4.8-4.8,12.5,0,17.3c2.4,2.4,5.5,3.6,8.7,3.6s6.3-1.2,8.7-3.6l53.1-53.1
			C340.75,69.3,340.75,61.5,335.95,56.7z"/>
		<circle cx="244.55" cy="244.5" r="15.7"/>
		<circle cx="311.85" cy="244.5" r="15.7"/>
		<circle cx="177.25" cy="244.5" r="15.7"/>
	</g>
</g>
<g>
</g>
<g>
</g>
<g>
</g>
<g>
</g>
<g>
</g>
<g>
</g>
<g>
</g>
<g>
</g>
<g>
</g>
<g>
</g>
<g>
</g>
<g>
</g>
<g>
</g>
<g>
</g>
<g>
</g>
</svg>
