<?xml version="1.0" encoding="iso-8859-1"?>
<!-- Generator: Adobe Illustrator 19.0.0, SVG Export Plug-In . SVG Version: 6.00 Build 0)  -->
<svg version="1.1" id="Capa_1" xmlns="http://www.w3.org/2000/svg" xmlns:xlink="http://www.w3.org/1999/xlink" x="0px" y="0px"
	 viewBox="0 0 489.9 489.9" style="enable-background:new 0 0 489.9 489.9;" xml:space="preserve">
<g>
	<g>
		<path d="M436.2,45.8H53.8C24.1,45.8,0,70,0,99.6v228.7c0,29.7,24.1,53.8,53.8,53.8h111c6.8,0,12.3-5.5,12.3-12.3
			s-5.5-12.3-12.3-12.3h-111c-16.2,0-29.3-13.1-29.3-29.3V99.6c0-16.2,13.1-29.3,29.3-29.3h382.4c16.2,0,29.3,13.1,29.3,29.3v228.7
			c0,16.2-13.1,29.3-29.3,29.3H274.6l41.1-41.1c4.8-4.8,4.8-12.5,0-17.3c-2.4-2.4-5.5-3.6-8.7-3.6s-6.3,1.2-8.7,3.6l-62,62
			c-4.8,4.8-4.8,12.5,0,17.3l62,62c4.8,4.8,12.5,4.8,17.3,0s4.8-12.5,0-17.3l-41.1-41.1h161.6c29.7,0,53.8-24.1,53.8-53.8V99.6
			C490,70,465.9,45.8,436.2,45.8z"/>
	</g>
</g>
<g>
</g>
<g>
</g>
<g>
</g>
<g>
</g>
<g>
</g>
<g>
</g>
<g>
</g>
<g>
</g>
<g>
</g>
<g>
</g>
<g>
</g>
<g>
</g>
<g>
</g>
<g>
</g>
<g>
</g>
</svg>
