<?xml version="1.0" encoding="iso-8859-1"?>
<!-- Generator: Adobe Illustrator 19.0.0, SVG Export Plug-In . SVG Version: 6.00 Build 0)  -->
<svg version="1.1" id="Capa_1" xmlns="http://www.w3.org/2000/svg" xmlns:xlink="http://www.w3.org/1999/xlink" x="0px" y="0px"
	 viewBox="0 0 490 490" style="enable-background:new 0 0 490 490;" xml:space="preserve">
<g>
	<g>
		<path d="M53.8,45.85h382.4c29.7,0,53.8,24.1,53.8,53.8v228.7c0,29.7-24.1,53.8-53.8,53.8h-111c-6.8,0-12.3-5.5-12.3-12.3
			s5.5-12.3,12.3-12.3h111c16.2,0,29.3-13.1,29.3-29.3V99.65c0-16.2-13.1-29.3-29.3-29.3H53.8c-16.2,0-29.3,13.1-29.3,29.3v228.7
			c0,16.2,13.1,29.3,29.3,29.3h161.6l-41.1-41.1c-4.8-4.8-4.8-12.5,0-17.3c2.4-2.4,5.5-3.6,8.7-3.6s6.3,1.2,8.7,3.6l62,62
			c4.8,4.8,4.8,12.5,0,17.3l-62,62c-4.8,4.8-12.5,4.8-17.3,0s-4.8-12.5,0-17.3l41.1-41.1H53.8c-29.7,0-53.8-24.1-53.8-53.8V99.65
			C0,70.05,24.1,45.85,53.8,45.85z"/>
	</g>
</g>
<g>
</g>
<g>
</g>
<g>
</g>
<g>
</g>
<g>
</g>
<g>
</g>
<g>
</g>
<g>
</g>
<g>
</g>
<g>
</g>
<g>
</g>
<g>
</g>
<g>
</g>
<g>
</g>
<g>
</g>
</svg>
