<?xml version="1.0" encoding="iso-8859-1"?>
<!-- Generator: Adobe Illustrator 19.0.0, SVG Export Plug-In . SVG Version: 6.00 Build 0)  -->
<svg version="1.1" id="Capa_1" xmlns="http://www.w3.org/2000/svg" xmlns:xlink="http://www.w3.org/1999/xlink" x="0px" y="0px"
	 viewBox="0 0 489.1 489.1" style="enable-background:new 0 0 489.1 489.1;" xml:space="preserve">
<g>
	<g>
		<path d="M65.4,377.65c-6.8,0-12.3,5.5-12.3,12.3v33.9c0,28.1,22.9,51,51,51h280.8c28.1,0,51-22.9,51-51v-232.5l32.2,32.2
			c2.4,2.4,5.5,3.6,8.7,3.6s6.3-1.2,8.7-3.6c4.8-4.8,4.8-12.5,0-17.3l-53.1-53.1c-4.6-4.6-12.7-4.6-17.3,0l-53.1,53.1
			c-4.8,4.8-4.8,12.5,0,17.3s12.5,4.8,17.3,0l32.2-32.2v232.5c0,14.6-11.9,26.5-26.5,26.5H104.1c-14.6,0-26.5-11.9-26.5-26.5v-33.9
			C77.6,383.15,72.1,377.65,65.4,377.65z"/>
		<path d="M65.4,339.55c3.1,0,6.3-1.2,8.7-3.6l53.1-53.1c4.8-4.8,4.8-12.5,0-17.3s-12.5-4.8-17.3,0l-32.2,32.2V65.25
			c0-14.6,11.9-26.5,26.5-26.5H385c14.6,0,26.5,11.9,26.5,26.5v33.9c0,6.8,5.5,12.3,12.3,12.3s12.3-5.5,12.3-12.3v-33.9
			c0-28.1-22.9-51-51-51h-281c-28.1,0-51,22.9-51,51v232.5l-32.2-32.2c-4.8-4.8-12.5-4.8-17.3,0s-4.8,12.5,0,17.3l53.1,53.1
			C59.1,338.35,62.2,339.55,65.4,339.55z"/>
	</g>
</g>
<g>
</g>
<g>
</g>
<g>
</g>
<g>
</g>
<g>
</g>
<g>
</g>
<g>
</g>
<g>
</g>
<g>
</g>
<g>
</g>
<g>
</g>
<g>
</g>
<g>
</g>
<g>
</g>
<g>
</g>
</svg>
