<?xml version="1.0" encoding="iso-8859-1"?>
<!-- Generator: Adobe Illustrator 19.0.0, SVG Export Plug-In . SVG Version: 6.00 Build 0)  -->
<svg version="1.1" id="Capa_1" xmlns="http://www.w3.org/2000/svg" xmlns:xlink="http://www.w3.org/1999/xlink" x="0px" y="0px"
	 viewBox="0 0 488.4 488.4" style="enable-background:new 0 0 488.4 488.4;" xml:space="preserve">
<g>
	<g>
		<path d="M145.8,465.6h196.9c19.5,0,35.4-15.9,35.4-35.4v-372c0-19.5-15.9-35.4-35.4-35.4H145.8c-19.5,0-35.4,15.9-35.4,35.4v372
			C110.4,449.7,126.3,465.6,145.8,465.6z M353.5,362.3H134.9V104.5h218.6V362.3z M342.6,441.1H145.8c-6,0-10.9-4.9-10.9-10.9v-43.4
			h218.6v43.4C353.5,436.2,348.6,441.1,342.6,441.1z M145.8,47.3h196.9c6,0,10.9,4.9,10.9,10.9V80H134.9V58.2
			C134.9,52.2,139.8,47.3,145.8,47.3z"/>
		<path d="M268.6,401.1h-48.8c-6.8,0-12.3,5.5-12.3,12.3s5.5,12.3,12.3,12.3h48.8c6.8,0,12.3-5.5,12.3-12.3S275.3,401.1,268.6,401.1
			z"/>
		<path d="M446.5,401.1h-35.2c-6.8,0-12.3,5.5-12.3,12.3s5.5,12.3,12.3,12.3h35.2c23.1,0,41.9-18.8,41.9-41.9V104.7
			c0-23.1-18.8-41.9-41.9-41.9h-35.2c-6.8,0-12.3,5.5-12.3,12.3s5.5,12.3,12.3,12.3h35.2c9.6,0,17.4,7.8,17.4,17.4v279.1
			C463.9,393.3,456.1,401.1,446.5,401.1z"/>
		<path d="M41.9,425.6h35.2c6.8,0,12.3-5.5,12.3-12.3S83.9,401,77.1,401H41.9c-9.6,0-17.4-7.8-17.4-17.4V104.7
			c0-9.6,7.8-17.4,17.4-17.4h35.2c6.8,0,12.3-5.5,12.3-12.3s-5.5-12.3-12.3-12.3H41.9C18.8,62.7,0,81.5,0,104.6v279.1
			C0,406.8,18.8,425.6,41.9,425.6z"/>
	</g>
</g>
<g>
</g>
<g>
</g>
<g>
</g>
<g>
</g>
<g>
</g>
<g>
</g>
<g>
</g>
<g>
</g>
<g>
</g>
<g>
</g>
<g>
</g>
<g>
</g>
<g>
</g>
<g>
</g>
<g>
</g>
</svg>
