<?xml version="1.0" encoding="iso-8859-1"?>
<!-- Generator: Adobe Illustrator 19.0.0, SVG Export Plug-In . SVG Version: 6.00 Build 0)  -->
<svg version="1.1" id="Capa_1" xmlns="http://www.w3.org/2000/svg" xmlns:xlink="http://www.w3.org/1999/xlink" x="0px" y="0px"
	 viewBox="0 0 489.901 489.901" style="enable-background:new 0 0 489.901 489.901;" xml:space="preserve">
<g>
	<g>
		<path d="M244.6,28.7c-65.1,0.1-126.4,22.5-172.5,63.1C25.5,132.8-0.1,187.3,0,245.4c0.1,47.1,17.7,93.2,49.9,130.5
			c-6.6,14.7-16.4,26.4-29.1,34.8c-6.6,4.4-9.8,12.1-8,19.8c1.7,7.6,7.8,13.2,15.6,14.2c7.6,1.1,15.4,1.6,23.1,1.6
			c24.9,0,47.5-5.4,67.5-15.9c38,20.2,81.4,30.8,125.9,30.8h0.4c135-0.2,244.8-97.4,244.6-216.6C489.7,125.6,379.9,28.7,244.6,28.7z
			 M245.4,436.6H245c-42.7,0-84.2-10.7-120-31c-1.9-1.1-4-1.6-6-1.6c-2.2,0-4.4,0.6-6.3,1.8c-18.8,11.3-41.3,16.7-66,15.9
			c12.9-11.6,22.7-26.4,29.2-44.1c1.6-4.3,0.6-9.2-2.5-12.6c-31.9-34.3-48.8-75.7-48.8-119.8c-0.1-50.9,22.6-98.9,63.8-135.1
			c41.7-36.6,97.2-56.9,156.8-57c121.3,0,220.1,85.9,220.3,191.4C465.7,350.2,366.9,436.4,245.4,436.6z"/>
		<path d="M262.3,244.9l41.5-41.6c4.8-4.8,4.8-12.5,0-17.3s-12.5-4.8-17.3,0L245,227.6l-41.6-41.5c-4.8-4.8-12.5-4.8-17.3,0
			s-4.8,12.5,0,17.3l41.6,41.5l-41.5,41.6c-4.8,4.8-4.8,12.5,0,17.3c2.4,2.4,5.5,3.6,8.6,3.6s6.3-1.2,8.7-3.6l41.5-41.6l41.6,41.5
			c2.4,2.4,5.5,3.6,8.6,3.6s6.3-1.2,8.7-3.6c4.8-4.8,4.8-12.5,0-17.3L262.3,244.9z"/>
	</g>
	<g>
	</g>
	<g>
	</g>
	<g>
	</g>
	<g>
	</g>
	<g>
	</g>
	<g>
	</g>
	<g>
	</g>
	<g>
	</g>
	<g>
	</g>
	<g>
	</g>
	<g>
	</g>
	<g>
	</g>
	<g>
	</g>
	<g>
	</g>
	<g>
	</g>
</g>
<g>
</g>
<g>
</g>
<g>
</g>
<g>
</g>
<g>
</g>
<g>
</g>
<g>
</g>
<g>
</g>
<g>
</g>
<g>
</g>
<g>
</g>
<g>
</g>
<g>
</g>
<g>
</g>
<g>
</g>
</svg>
