<?xml version="1.0" encoding="iso-8859-1"?>
<!-- Generator: Adobe Illustrator 19.0.0, SVG Export Plug-In . SVG Version: 6.00 Build 0)  -->
<svg version="1.1" id="Capa_1" xmlns="http://www.w3.org/2000/svg" xmlns:xlink="http://www.w3.org/1999/xlink" x="0px" y="0px"
	 viewBox="0 0 489.7 489.7" style="enable-background:new 0 0 489.7 489.7;" xml:space="preserve">
<g>
	<g>
		<path d="M49.7,375.45c-6.7,14.8-16.5,26.5-29.3,34.8c-6.6,4.3-9.8,12.1-8.1,19.8c1.7,7.6,7.8,13.2,15.5,14.2
			c7.7,1.1,15.6,1.6,23.4,1.6c24.8,0,47.4-5.3,67.3-15.8c38.1,20.3,81.6,31,126.3,31c135.1,0,244.9-97,244.9-216.2
			S380,28.65,244.9,28.65S0,125.65,0,244.85C0,291.95,17.6,338.05,49.7,375.45z M244.9,53.15c121.5,0,220.4,86,220.4,191.7
			s-98.9,191.7-220.4,191.7c-42.9,0-84.5-10.8-120.3-31.2c-1.9-1.1-4-1.6-6.1-1.6c-2.2,0-4.4,0.6-6.3,1.7
			c-18.8,11.3-41.3,16.7-66,15.8c12.9-11.6,22.7-26.3,29.3-44c1.6-4.3,0.6-9.2-2.5-12.6c-31.8-34.3-48.5-75.7-48.5-119.8
			C24.5,139.15,123.4,53.15,244.9,53.15z"/>
		<path d="M229.5,256.95h30.7c11.8,0,21.4,10.7,21.4,23.9s-9.6,23.9-21.4,23.9H205c-6.8,0-12.3,5.5-12.3,12.3s5.5,12.3,12.3,12.3
			h27.6v22.7c0,6.8,5.5,12.3,12.3,12.3c6.8,0,12.3-5.5,12.3-12.3v-22.7h3.4c0.1,0,0.2,0,0.3,0c25-0.4,45.3-21.9,45.3-48.4
			c0-26.7-20.6-48.4-45.9-48.4h-30.7c-11.8,0-21.5-10.7-21.5-23.9s9.6-23.9,21.5-23.9h54.2c6.8,0,12.3-5.5,12.3-12.3
			s-5.5-12.3-12.3-12.3h-26.6v-22.3c0-6.8-5.5-12.3-12.3-12.3s-12.3,5.5-12.3,12.3v22.3h-3.1c-25.3,0-46,21.7-46,48.4
			S204.2,256.95,229.5,256.95z"/>
	</g>
</g>
<g>
</g>
<g>
</g>
<g>
</g>
<g>
</g>
<g>
</g>
<g>
</g>
<g>
</g>
<g>
</g>
<g>
</g>
<g>
</g>
<g>
</g>
<g>
</g>
<g>
</g>
<g>
</g>
<g>
</g>
</svg>
