<?xml version="1.0" encoding="iso-8859-1"?>
<!-- Generator: Adobe Illustrator 19.0.0, SVG Export Plug-In . SVG Version: 6.00 Build 0)  -->
<svg version="1.1" id="Capa_1" xmlns="http://www.w3.org/2000/svg" xmlns:xlink="http://www.w3.org/1999/xlink" x="0px" y="0px"
	 viewBox="0 0 490.3 490.3" style="enable-background:new 0 0 490.3 490.3;" xml:space="preserve">
<g>
	<g>
		<path d="M53.5,404v58.3c0,7.6,4.5,14.3,11.5,17.2c2.3,1,4.7,1.4,7.2,1.4c4.8,0,9.6-1.9,13.2-5.5l71.4-71.4H391
			c30.9,0,56-25.1,56-56V218.9c0-6.8-5.5-12.3-12.3-12.3s-12.3,5.5-12.3,12.3v129.2c0,17.4-14.1,31.5-31.5,31.5H151.6
			c-3.2,0-6.4,1.3-8.7,3.6l-65,65v-56.3c0-6.8-5.5-12.3-12.3-12.3h-9.7c-17.4,0-31.5-14.1-31.5-31.5V108.8
			c0-17.4,14.1-31.5,31.5-31.5h227.4c6.8,0,12.3-5.5,12.3-12.3s-5.5-12.2-12.3-12.2H56c-30.9,0-56,25.1-56,56v239.3
			C0,378.1,23.8,402.7,53.5,404z"/>
		<path d="M403.4,183.1c6.8,0,12.3-5.5,12.3-12.3v-62.3H478c6.8,0,12.3-5.5,12.3-12.3s-5.5-12.3-12.3-12.3h-62.3V21.7
			c0-6.8-5.5-12.3-12.3-12.3s-12.3,5.5-12.3,12.3V84h-62.3c-6.8,0-12.3,5.5-12.3,12.3s5.5,12.3,12.3,12.3h62.3v62.3
			C391.1,177.6,396.6,183.1,403.4,183.1z"/>
	</g>
</g>
<g>
</g>
<g>
</g>
<g>
</g>
<g>
</g>
<g>
</g>
<g>
</g>
<g>
</g>
<g>
</g>
<g>
</g>
<g>
</g>
<g>
</g>
<g>
</g>
<g>
</g>
<g>
</g>
<g>
</g>
</svg>
