<?xml version="1.0" encoding="iso-8859-1"?>
<!-- Generator: Adobe Illustrator 19.0.0, SVG Export Plug-In . SVG Version: 6.00 Build 0)  -->
<svg version="1.1" id="Capa_1" xmlns="http://www.w3.org/2000/svg" xmlns:xlink="http://www.w3.org/1999/xlink" x="0px" y="0px"
	 viewBox="0 0 489.8 489.8" style="enable-background:new 0 0 489.8 489.8;" xml:space="preserve">
<g>
	<g>
		<path d="M0,244.9c0,47.1,17.6,93.2,49.7,130.6C43,390.3,33.2,402,20.4,410.3c-6.6,4.3-9.8,12.1-8.1,19.8
			c1.7,7.6,7.8,13.2,15.5,14.2c20.4,2.8,60.1,4.3,96.9-17.7c5.8-3.5,7.7-11,4.2-16.8c-3.5-5.8-11-7.7-16.8-4.2
			c-23,13.8-47.9,16.4-66,15.8c12.9-11.6,22.7-26.3,29.3-44c1.6-4.3,0.6-9.2-2.5-12.6C41.2,330.4,24.5,289,24.5,244.9
			c0-105.7,98.9-191.7,220.4-191.7s220.4,86,220.4,191.7s-98.9,191.7-220.4,191.7c-20.3,0-40.5-2.4-59.9-7.2
			c-6.6-1.6-13.2,2.4-14.8,9s2.4,13.2,9,14.8c21.3,5.2,43.4,7.9,65.7,7.9c135.1,0,244.9-97,244.9-216.2S380,28.7,244.9,28.7
			S0,125.7,0,244.9z"/>
		<path d="M244.9,128.7c-6.8,0-12.3,5.5-12.3,12.3v21.3h-2.7c-24.8,0-44.9,21.2-44.9,47.4s20.2,47.4,44.9,47.4h29.8
			c11.3,0,20.4,10.3,20.4,22.9s-9.2,22.9-20.4,22.9h-53.6c-6.8,0-12.3,5.5-12.3,12.3s5.5,12.3,12.3,12.3h26.4v21.6
			c0,6.8,5.5,12.3,12.3,12.3s12.3-5.5,12.3-12.3v-21.6h3c0.1,0,0.2,0,0.3,0c24.5-0.4,44.3-21.5,44.3-47.3
			c0-26.1-20.2-47.4-44.9-47.4H230c-11.3,0-20.4-10.3-20.4-22.9c0-12.6,9.2-22.9,20.4-22.9h52.6c6.8,0,12.3-5.5,12.3-12.3
			s-5.5-12.3-12.3-12.3h-25.5v-21.3C257.2,134.2,251.7,128.7,244.9,128.7z"/>
	</g>
</g>
<g>
</g>
<g>
</g>
<g>
</g>
<g>
</g>
<g>
</g>
<g>
</g>
<g>
</g>
<g>
</g>
<g>
</g>
<g>
</g>
<g>
</g>
<g>
</g>
<g>
</g>
<g>
</g>
<g>
</g>
</svg>
