<?xml version="1.0" encoding="iso-8859-1"?>
<!-- Generator: Adobe Illustrator 19.0.0, SVG Export Plug-In . SVG Version: 6.00 Build 0)  -->
<svg version="1.1" id="Capa_1" xmlns="http://www.w3.org/2000/svg" xmlns:xlink="http://www.w3.org/1999/xlink" x="0px" y="0px"
	 viewBox="0 0 489.8 489.8" style="enable-background:new 0 0 489.8 489.8;" xml:space="preserve">
<g>
	<g>
		<path d="M210.8,425.2c22,0,43.8-3,64.6-8.9c2.3-0.6,4.2-1.9,5.6-3.5c22.2,15.9,48.8,24.5,76.7,24.5c35.3,0,68.5-13.7,93.4-38.7
			c24.9-25,38.7-58.1,38.7-93.4s-13.7-68.5-38.7-93.4c-11.4-11.4-24.5-20.4-38.7-26.9c-0.1-0.7-0.3-1.4-0.5-2.1
			C384.2,104.9,303.4,52.5,210.8,52.5C94.6,52.5,0,136.1,0,238.8c0,40.3,14.9,79.7,42.1,111.8c-5.6,11.8-13.6,21.2-23.8,27.9
			C12,382.6,9,390,10.7,397.3c1.6,7.2,7.4,12.5,14.8,13.5c16.5,2.3,47.6,3.5,77.6-11.9C135.6,416.1,172.7,425.2,210.8,425.2z
			 M465.3,305.2c0,28.7-11.2,55.8-31.5,76.1c-20.3,20.3-47.4,31.5-76.1,31.5s-55.8-11.2-76.1-31.5c-42-42-42-110.2,0-152.2
			c20.3-20.3,47.4-31.5,76.1-31.5s55.8,11.2,76.1,31.5C454.1,249.4,465.3,276.4,465.3,305.2z M96.6,374.5
			c-17.5,10.5-36.3,13.2-51,13.3c9.6-9.6,17.1-21.4,22.2-35.2c1.6-4.3,0.6-9.2-2.5-12.6c-26.8-29-40.9-63.9-40.9-101.1
			c0-89.2,83.6-161.8,186.3-161.8c75.7,0,142.3,38.9,171.3,98.3c-8-1.5-16.1-2.3-24.4-2.3c-35.3,0-68.5,13.7-93.4,38.7
			c-50.2,50.2-51.5,131.2-3.7,183c-16.1,3.9-32.8,6-49.8,6c-36.3,0-71.5-9.1-101.8-26.4C105.1,372.1,100.4,372.2,96.6,374.5z"/>
		<path d="M328,300.7c-4.8-4.8-12.5-4.8-17.3,0s-4.8,12.5,0,17.3l22.6,22.8c2.4,2.4,5.5,3.6,8.7,3.6c3.1,0,6.2-1.2,8.6-3.6
			l54.1-53.8c4.8-4.8,4.8-12.5,0.1-17.3c-4.8-4.8-12.5-4.8-17.3-0.1L342,314.8L328,300.7z"/>
	</g>
</g>
<g>
</g>
<g>
</g>
<g>
</g>
<g>
</g>
<g>
</g>
<g>
</g>
<g>
</g>
<g>
</g>
<g>
</g>
<g>
</g>
<g>
</g>
<g>
</g>
<g>
</g>
<g>
</g>
<g>
</g>
</svg>
