<?xml version="1.0" encoding="iso-8859-1"?>
<!-- Generator: Adobe Illustrator 19.0.0, SVG Export Plug-In . SVG Version: 6.00 Build 0)  -->
<svg version="1.1" id="Capa_1" xmlns="http://www.w3.org/2000/svg" xmlns:xlink="http://www.w3.org/1999/xlink" x="0px" y="0px"
	 viewBox="0 0 489.9 489.9" style="enable-background:new 0 0 489.9 489.9;" xml:space="preserve">
<g>
	<path d="M469.2,410.7c-12.7-8.3-22.5-20-29.2-34.8c32.2-37.4,49.9-83.4,49.9-130.5c0.1-58.1-25.5-112.6-72.1-153.6
		c-46.1-40.6-107.4-63-172.5-63.1C110.1,28.7,0.2,125.5,0,244.6C-0.1,363.9,109.6,461,244.7,461.2h0.4c44.5,0,87.9-10.6,125.9-30.8
		c20,10.6,42.6,15.9,67.5,15.9c7.7,0,15.5-0.5,23.1-1.6c7.7-1.1,13.8-6.6,15.6-14.2C478.9,422.8,475.8,415.1,469.2,410.7z
		 M377.5,405.9c-1.9-1.2-4.1-1.8-6.3-1.8c-2.1,0-4.2,0.5-6,1.6c-35.8,20.3-77.3,31-120,31l-0.4,0c-121.5-0.2-220.3-86.4-220.1-192.1
		c0.2-105.5,99-191.4,220.3-191.4c59.6,0.1,115.1,20.3,156.8,57c41.2,36.2,63.8,84.2,63.8,135.1c-0.2,44.1-17.1,85.5-48.8,119.8
		c-3.1,3.4-4.1,8.2-2.5,12.6c6.5,17.7,16.3,32.5,29.2,44.1C418.8,422.6,396.3,417.3,377.5,405.9z"/>
	<path d="M303.9,186.2c-4.8-4.8-12.5-4.8-17.3,0L245,227.7l-41.5-41.6c-4.8-4.8-12.5-4.8-17.3,0c-4.8,4.8-4.8,12.5,0,17.3l41.5,41.6
		l-41.6,41.5c-4.8,4.8-4.8,12.5,0,17.3c2.4,2.4,5.6,3.6,8.7,3.6c3.1,0,6.2-1.2,8.6-3.6l41.6-41.5l41.5,41.6c2.4,2.4,5.6,3.6,8.7,3.6
		c3.1,0,6.2-1.2,8.6-3.6c4.8-4.8,4.8-12.5,0-17.3L262.3,245l41.6-41.5C308.7,198.7,308.7,191,303.9,186.2z"/>
</g>
<g>
</g>
<g>
</g>
<g>
</g>
<g>
</g>
<g>
</g>
<g>
</g>
<g>
</g>
<g>
</g>
<g>
</g>
<g>
</g>
<g>
</g>
<g>
</g>
<g>
</g>
<g>
</g>
<g>
</g>
</svg>
