<?xml version="1.0" encoding="iso-8859-1"?>
<!-- Generator: Adobe Illustrator 19.0.0, SVG Export Plug-In . SVG Version: 6.00 Build 0)  -->
<svg version="1.1" id="Capa_1" xmlns="http://www.w3.org/2000/svg" xmlns:xlink="http://www.w3.org/1999/xlink" x="0px" y="0px"
	 viewBox="0 0 489.5 489.5" style="enable-background:new 0 0 489.5 489.5;" xml:space="preserve">
<g>
	<g>
		<path d="M12.3,392.95h158.1l62.7,83c2.3,3,5.8,4.8,9.6,4.9c0.1,0,0.1,0,0.2,0c3.7,0,7.2-1.7,9.5-4.6l67.2-83.3h157.6
			c6.8,0,12.3-5.5,12.3-12.3V20.95c0-6.8-5.5-12.3-12.3-12.3H12.3C5.5,8.65,0,14.15,0,20.95v359.7C0,387.45,5.5,392.95,12.3,392.95z
			 M24.5,33.25h440.4v335.2H313.7c-3.7,0-7.2,1.7-9.5,4.6l-61,75.7l-56.9-75.4c-2.3-3.1-5.9-4.9-9.8-4.9h-152
			C24.5,368.45,24.5,33.25,24.5,33.25z"/>
		<path d="M78.3,112.65h332.8c6.8,0,12.3-5.5,12.3-12.3s-5.5-12.3-12.3-12.3H78.3c-6.8,0-12.3,5.5-12.3,12.3
			C66,107.15,71.5,112.65,78.3,112.65z"/>
		<path d="M78.3,179.55h332.8c6.8,0,12.3-5.5,12.3-12.3s-5.5-12.3-12.3-12.3H78.3c-6.8,0-12.3,5.5-12.3,12.3
			C66,174.05,71.5,179.55,78.3,179.55z"/>
		<path d="M78.3,246.55h332.8c6.8,0,12.3-5.5,12.3-12.3s-5.5-12.3-12.3-12.3H78.3c-6.8,0-12.3,5.5-12.3,12.3
			C66,241.05,71.5,246.55,78.3,246.55z"/>
		<path d="M257,301.25c0-6.8-5.5-12.3-12.3-12.3H78.3c-6.8,0-12.3,5.5-12.3,12.3s5.5,12.3,12.3,12.3h166.4
			C251.5,313.45,257,307.95,257,301.25z"/>
	</g>
</g>
<g>
</g>
<g>
</g>
<g>
</g>
<g>
</g>
<g>
</g>
<g>
</g>
<g>
</g>
<g>
</g>
<g>
</g>
<g>
</g>
<g>
</g>
<g>
</g>
<g>
</g>
<g>
</g>
<g>
</g>
</svg>
