<?xml version="1.0" encoding="iso-8859-1"?>
<!-- Generator: Adobe Illustrator 19.0.0, SVG Export Plug-In . SVG Version: 6.00 Build 0)  -->
<svg version="1.1" id="Capa_1" xmlns="http://www.w3.org/2000/svg" xmlns:xlink="http://www.w3.org/1999/xlink" x="0px" y="0px"
	 viewBox="0 0 489.8 489.8" style="enable-background:new 0 0 489.8 489.8;" xml:space="preserve">
<g>
	<g>
		<path d="M281,412.8c22.2,15.9,48.8,24.5,76.7,24.5c35.3,0,68.5-13.7,93.4-38.7c24.9-25,38.7-58.1,38.7-93.4s-13.7-68.5-38.7-93.4
			c-11.4-11.4-24.5-20.4-38.7-26.9c-0.1-0.7-0.3-1.4-0.5-2.1C384.2,104.9,303.4,52.5,210.8,52.5C94.5,52.5,0,136.1,0,238.8
			c0,40.3,14.9,79.7,42.1,111.8c-5.6,11.8-13.6,21.2-23.9,27.9c-6.3,4.1-9.3,11.5-7.6,18.8c1.6,7.2,7.4,12.5,14.8,13.5
			c16.5,2.3,47.6,3.5,77.6-11.9c32.6,17.2,69.7,26.2,107.8,26.2c22,0,43.8-3,64.6-8.9C277.6,415.6,279.5,414.4,281,412.8z
			 M465.3,305.2c0,28.7-11.2,55.8-31.5,76.1c-20.3,20.3-47.4,31.5-76.1,31.5s-55.8-11.2-76.1-31.5c-42-42-42-110.2,0-152.2
			c20.3-20.3,47.4-31.5,76.1-31.5s55.8,11.2,76.1,31.5C454.1,249.4,465.3,276.4,465.3,305.2z M109,374.3c-3.8-2.2-8.6-2.1-12.4,0.1
			c-17.5,10.5-36.3,13.2-51,13.3c9.6-9.6,17.1-21.4,22.2-35.2c1.6-4.3,0.6-9.2-2.5-12.6c-26.8-29-40.9-63.9-40.9-101.1
			C24.4,149.6,108,77,210.7,77c75.7,0,142.3,38.9,171.3,98.3c-8-1.5-16.2-2.3-24.4-2.3c-35.3,0-68.5,13.7-93.4,38.7
			c-50.2,50.2-51.5,131.2-3.7,183c-16.1,3.9-32.8,6-49.8,6C174.5,400.7,139.3,391.6,109,374.3z"/>
		<path d="M314.6,305.2c0,6.8,5.5,12.3,12.3,12.3h61.8c6.8,0,12.3-5.5,12.3-12.3s-5.5-12.3-12.3-12.3h-61.8
			C320,292.9,314.6,298.4,314.6,305.2z"/>
	</g>
</g>
<g>
</g>
<g>
</g>
<g>
</g>
<g>
</g>
<g>
</g>
<g>
</g>
<g>
</g>
<g>
</g>
<g>
</g>
<g>
</g>
<g>
</g>
<g>
</g>
<g>
</g>
<g>
</g>
<g>
</g>
</svg>
