<?xml version="1.0" encoding="iso-8859-1"?>
<!-- Generator: Adobe Illustrator 19.0.0, SVG Export Plug-In . SVG Version: 6.00 Build 0)  -->
<svg version="1.1" id="Capa_1" xmlns="http://www.w3.org/2000/svg" xmlns:xlink="http://www.w3.org/1999/xlink" x="0px" y="0px"
	 viewBox="0 0 489.725 489.725" style="enable-background:new 0 0 489.725 489.725;" xml:space="preserve">
<g>
	<g>
		<path d="M275.4,416.262c2.3-0.6,4.2-1.9,5.6-3.5c22.2,15.9,48.8,24.5,76.7,24.5c35.3,0,68.5-13.7,93.4-38.7
			c51.5-51.5,51.5-135.3,0-186.9c-11.4-11.4-24.5-20.4-38.7-26.9c-0.1-0.7-0.3-1.4-0.5-2.1c-27.7-77.8-108.5-130.2-201.1-130.2
			c-116.3,0-210.8,83.6-210.8,186.3c0,40.3,14.9,79.7,42.1,111.8c-5.6,11.8-13.6,21.2-23.9,27.9c-6.3,4.1-9.3,11.5-7.6,18.8
			c1.6,7.2,7.4,12.5,14.8,13.5c16.5,2.3,47.6,3.6,77.6-11.9c32.6,17.2,69.7,26.2,107.8,26.2
			C232.9,425.162,254.6,422.162,275.4,416.262z M433.8,381.262c-20.3,20.3-47.4,31.5-76.1,31.5s-55.8-11.2-76.1-31.5
			c-20.3-20.3-31.5-47.4-31.5-76.1s11.2-55.8,31.5-76.1s47.4-31.5,76.1-31.5s55.8,11.2,76.1,31.5
			C475.8,270.962,475.8,339.262,433.8,381.262z M96.7,374.462c-17.5,10.5-36.3,13.2-51,13.3c9.6-9.6,17.1-21.4,22.2-35.2
			c1.6-4.3,0.6-9.2-2.5-12.6c-26.8-29-40.9-63.9-40.9-101.1c0-89.2,83.6-161.8,186.3-161.8c75.7,0,142.3,38.9,171.3,98.3
			c-8-1.5-16.1-2.3-24.4-2.3c-35.3,0-68.5,13.7-93.4,38.7c-24.9,25-38.7,58.1-38.7,93.4c0,33.5,12.4,65.1,35,89.5
			c-16.1,3.9-32.8,6-49.8,6c-36.3,0-71.5-9.1-101.8-26.4C105.2,372.063,100.4,372.162,96.7,374.462z"/>
		<path d="M336.6,266.662c-4.8-4.8-12.5-4.8-17.3,0s-4.8,12.5,0,17.3l21.2,21.2l-21.2,21.2c-4.8,4.8-4.8,12.5,0,17.3
			c2.4,2.4,5.5,3.6,8.7,3.6s6.3-1.2,8.7-3.6l21.2-21.2l21.2,21.2c2.4,2.4,5.5,3.6,8.7,3.6s6.3-1.2,8.7-3.6c4.8-4.8,4.8-12.5,0-17.3
			l-21.2-21.2l21.2-21.2c4.8-4.8,4.8-12.5,0-17.3s-12.5-4.8-17.3,0l-21.5,21.2L336.6,266.662z"/>
	</g>
</g>
<g>
</g>
<g>
</g>
<g>
</g>
<g>
</g>
<g>
</g>
<g>
</g>
<g>
</g>
<g>
</g>
<g>
</g>
<g>
</g>
<g>
</g>
<g>
</g>
<g>
</g>
<g>
</g>
<g>
</g>
</svg>
