<?xml version="1.0" encoding="iso-8859-1"?>
<!-- Generator: Adobe Illustrator 19.0.0, SVG Export Plug-In . SVG Version: 6.00 Build 0)  -->
<svg version="1.1" id="Capa_1" xmlns="http://www.w3.org/2000/svg" xmlns:xlink="http://www.w3.org/1999/xlink" x="0px" y="0px"
	 viewBox="0 0 489.8 489.8" style="enable-background:new 0 0 489.8 489.8;" xml:space="preserve">
<g>
	<g>
		<path d="M118.6,430.1c38.1,20.3,81.6,31,126.3,31c135.1,0,244.9-97,244.9-216.2S380,28.7,244.9,28.7S0,125.7,0,244.9
			c0,47.1,17.6,93.2,49.7,130.6C43,390.3,33.2,402,20.4,410.3c-6.6,4.3-9.8,12.1-8.1,19.8c1.7,7.6,7.8,13.2,15.5,14.3
			c7.7,1.1,15.6,1.6,23.3,1.6C76.1,446,98.6,440.7,118.6,430.1z M75.4,377.3c1.6-4.3,0.6-9.2-2.5-12.6
			C41.2,330.4,24.5,289,24.5,244.9c0-105.7,98.9-191.7,220.4-191.7s220.4,86,220.4,191.7s-98.9,191.7-220.4,191.7
			c-42.9,0-84.5-10.8-120.3-31.2c-1.9-1.1-4-1.6-6.1-1.6c-2.2,0-4.4,0.6-6.3,1.7c-17.5,10.5-38,15.9-60.9,15.9c-1.7,0-3.4,0-5.1-0.1
			C59,409.8,68.9,395.1,75.4,377.3z"/>
		<path d="M173.9,257.2h58.8v58.7c0,6.8,5.5,12.3,12.3,12.3c6.8,0,12.3-5.5,12.3-12.3v-58.8h58.6c6.8,0,12.3-5.5,12.3-12.3
			s-5.5-12.3-12.3-12.3h-58.8v-58.6c0-6.8-5.5-12.3-12.3-12.3s-12.3,5.5-12.3,12.3v58.8h-58.6c-6.8,0-12.3,5.5-12.3,12.3
			C161.6,251.8,167.1,257.2,173.9,257.2z"/>
	</g>
</g>
<g>
</g>
<g>
</g>
<g>
</g>
<g>
</g>
<g>
</g>
<g>
</g>
<g>
</g>
<g>
</g>
<g>
</g>
<g>
</g>
<g>
</g>
<g>
</g>
<g>
</g>
<g>
</g>
<g>
</g>
</svg>
