<?xml version="1.0" encoding="iso-8859-1"?>
<!-- Generator: Adobe Illustrator 19.0.0, SVG Export Plug-In . SVG Version: 6.00 Build 0)  -->
<svg version="1.1" id="Capa_1" xmlns="http://www.w3.org/2000/svg" xmlns:xlink="http://www.w3.org/1999/xlink" x="0px" y="0px"
	 viewBox="0 0 490.4 490.4" style="enable-background:new 0 0 490.4 490.4;" xml:space="preserve">
<g>
	<g>
		<path d="M341.1,86.006c-4.8-4.8-12.5-4.8-17.3-0.1c-4.8,4.8-4.8,12.5,0,17.3l43,43.2c2.4,2.4,5.5,3.6,8.7,3.6
			c3.1,0,6.2-1.2,8.6-3.6l102.7-102c4.8-4.8,4.8-12.5,0-17.3s-12.5-4.8-17.3-0.1l-94,93.5L341.1,86.006z"/>
		<path d="M64.9,465.506c2.3,1,4.7,1.4,7.2,1.4c4.8,0,9.6-1.9,13.2-5.5l71.3-71.3h233.6c30.8,0,55.9-25.1,55.9-55.9v-129
			c0-6.8-5.5-12.3-12.3-12.3s-12.3,5.5-12.3,12.3v129c0,17.3-14.1,31.4-31.4,31.4H151.4c-3.2,0-6.4,1.3-8.7,3.6l-64.8,64.8v-56.2
			c0-6.8-5.5-12.3-12.3-12.3h-9.7c-17.3,0-31.4-14.1-31.4-31.4v-238.7c0-17.3,14.1-31.4,31.4-31.4h227c6.8,0,12.3-5.5,12.3-12.3
			s-5.5-12.3-12.3-12.3h-227c-30.8,0-55.9,25.1-55.9,55.9v238.8c0,30,23.7,54.5,53.4,55.9v58.1
			C53.4,455.806,57.9,462.606,64.9,465.506z"/>
	</g>
</g>
<g>
</g>
<g>
</g>
<g>
</g>
<g>
</g>
<g>
</g>
<g>
</g>
<g>
</g>
<g>
</g>
<g>
</g>
<g>
</g>
<g>
</g>
<g>
</g>
<g>
</g>
<g>
</g>
<g>
</g>
</svg>
