<?xml version="1.0" encoding="iso-8859-1"?>
<!-- Generator: Adobe Illustrator 19.0.0, SVG Export Plug-In . SVG Version: 6.00 Build 0)  -->
<svg version="1.1" id="Capa_1" xmlns="http://www.w3.org/2000/svg" xmlns:xlink="http://www.w3.org/1999/xlink" x="0px" y="0px"
	 viewBox="0 0 489.8 489.8" style="enable-background:new 0 0 489.8 489.8;" xml:space="preserve">
<g>
	<g>
		<path d="M49.7,375.5C43,390.3,33.2,402,20.4,410.3c-6.6,4.3-9.8,12.1-8.1,19.8c1.7,7.6,7.8,13.2,15.5,14.3
			c20.4,2.8,60.2,4.3,96.9-17.7c5.8-3.5,7.7-11,4.2-16.8c-3.5-5.8-11-7.7-16.8-4.2c-23,13.8-47.9,16.4-66,15.8
			c12.9-11.6,22.7-26.3,29.3-44c1.6-4.3,0.6-9.2-2.5-12.6c-31.7-34.5-48.4-75.9-48.4-120c0-105.7,98.9-191.7,220.4-191.7
			s220.4,86,220.4,191.7s-98.9,191.7-220.4,191.7c-20.3,0-40.5-2.4-59.9-7.2c-6.6-1.6-13.2,2.4-14.8,9s2.4,13.2,9,14.8
			c21.3,5.2,43.4,7.9,65.7,7.9c135.1,0,244.9-97,244.9-216.2S380,28.7,244.9,28.7S0,125.7,0,244.9C0,292,17.6,338.1,49.7,375.5z"/>
		<path d="M244.9,336.8c34.1,0,64.8-16.9,80.1-44c3.3-5.9,1.3-13.4-4.6-16.7c-5.9-3.3-13.4-1.3-16.7,4.6
			c-10.9,19.2-34,31.6-58.8,31.6c-25,0-47.5-11.9-58.6-31.1c-3.4-5.9-10.9-7.9-16.7-4.5c-5.9,3.4-7.9,10.9-4.5,16.7
			C180.6,320.2,211.2,336.8,244.9,336.8z"/>
		<path d="M146,241.1c2.3,3.8,6.3,5.9,10.5,5.9c2.2,0,4.3-0.6,6.3-1.8l56.2-34c3.9-2.4,6.2-6.7,5.9-11.2c-0.3-4.6-3.1-8.6-7.2-10.4
			L160.3,164c-6.2-2.8-13.4,0-16.2,6.2s0,13.4,6.2,16.2l36,16.1l-36.2,21.8C144.3,227.8,142.5,235.3,146,241.1z"/>
		<path d="M345.7,170.2c-2.8-6.2-10-8.9-16.2-6.2l-57.4,25.6c-4.2,1.9-7,5.9-7.2,10.4c-0.3,4.6,2,8.9,5.9,11.2l56.2,34
			c2,1.2,4.2,1.8,6.3,1.8c4.1,0,8.2-2.1,10.5-5.9c3.5-5.8,1.6-13.3-4.2-16.8l-36.2-21.8l36-16.1
			C345.7,183.6,348.5,176.4,345.7,170.2z"/>
	</g>
</g>
<g>
</g>
<g>
</g>
<g>
</g>
<g>
</g>
<g>
</g>
<g>
</g>
<g>
</g>
<g>
</g>
<g>
</g>
<g>
</g>
<g>
</g>
<g>
</g>
<g>
</g>
<g>
</g>
<g>
</g>
</svg>
