<?xml version="1.0" encoding="iso-8859-1"?>
<!-- Generator: Adobe Illustrator 19.0.0, SVG Export Plug-In . SVG Version: 6.00 Build 0)  -->
<svg version="1.1" id="Capa_1" xmlns="http://www.w3.org/2000/svg" xmlns:xlink="http://www.w3.org/1999/xlink" x="0px" y="0px"
	 viewBox="0 0 489.8 489.8" style="enable-background:new 0 0 489.8 489.8;" xml:space="preserve">
<g>
	<g>
		<path d="M489.8,244.85c0-119.2-109.9-216.2-244.9-216.2c-135.1,0-244.9,97-244.9,216.2c0,47.1,17.6,93.2,49.7,130.6
			c-6.7,14.8-16.5,26.5-29.3,34.8c-6.6,4.3-9.8,12.1-8.1,19.8c1.7,7.6,7.8,13.2,15.5,14.3c7.7,1.1,15.6,1.6,23.4,1.6
			c24.8,0,47.4-5.3,67.3-15.8c38.1,20.3,81.6,31,126.3,31C380,461.05,489.8,364.05,489.8,244.85z M244.9,436.55
			c-42.9,0-84.5-10.8-120.4-31.2c-1.9-1.1-4-1.6-6.1-1.6c-2.2,0-4.4,0.6-6.3,1.7c-18.7,11.4-41.2,16.8-66,15.9
			c12.9-11.6,22.7-26.3,29.3-44.1c1.6-4.3,0.6-9.2-2.5-12.6c-31.7-34.3-48.4-75.7-48.4-119.8c0-105.7,98.9-191.7,220.4-191.7
			s220.4,86,220.4,191.7S366.5,436.55,244.9,436.55z"/>
		<path d="M289.6,153.75c-16.5,0-32.1,5.6-44.7,15.9c-12.6-10.3-28.3-15.9-44.8-15.9c-18.9,0-36.7,7.4-50.1,20.8
			s-20.8,31.2-20.8,50.2c0,18.9,7.4,36.7,20.8,50.1l79.9,79.9c4,4,9.3,6.2,15,6.2c5.6,0,11-2.3,15-6.2l79.7-79.8
			c13.4-13.4,20.8-31.2,20.8-50.1c0-19-7.3-36.8-20.8-50.2C326.4,161.15,308.6,153.75,289.6,153.75z M322.4,257.45l-77.4,77.4
			l-77.5-77.5c-8.8-8.8-13.6-20.4-13.6-32.8c0-12.4,4.8-24,13.6-32.8c8.8-8.8,20.4-13.6,32.8-13.6c12.4,0,24.1,4.8,32.9,13.6
			l3.3,3.3c2.3,2.3,5.4,3.6,8.7,3.6c3.3,0,6.4-1.3,8.7-3.6l3.2-3.2c8.8-8.8,20.4-13.6,32.8-13.6s24,4.8,32.8,13.6
			c8.8,8.8,13.6,20.4,13.6,32.8C336,237.05,331.2,248.75,322.4,257.45z"/>
	</g>
</g>
<g>
</g>
<g>
</g>
<g>
</g>
<g>
</g>
<g>
</g>
<g>
</g>
<g>
</g>
<g>
</g>
<g>
</g>
<g>
</g>
<g>
</g>
<g>
</g>
<g>
</g>
<g>
</g>
<g>
</g>
</svg>
