<?xml version="1.0" encoding="iso-8859-1"?>
<!-- Generator: Adobe Illustrator 19.0.0, SVG Export Plug-In . SVG Version: 6.00 Build 0)  -->
<svg version="1.1" id="Capa_1" xmlns="http://www.w3.org/2000/svg" xmlns:xlink="http://www.w3.org/1999/xlink" x="0px" y="0px"
	 viewBox="0 0 489 489" style="enable-background:new 0 0 489 489;" xml:space="preserve">
<g>
	<g>
		<path d="M55.2,396.65v60.5c0,7.6,4.6,14.5,11.6,17.4c2.3,1,4.8,1.4,7.2,1.4c4.9,0,9.7-1.9,13.3-5.5l73.8-73.8h241.8
			c31.7,0,57.4-25.8,57.4-57.4v-133.2c0-6.8-5.5-12.3-12.3-12.3s-12.3,5.5-12.3,12.3v133.3c0,18.1-14.8,32.9-32.9,32.9H156
			c-3.2,0-6.4,1.3-8.7,3.6l-67.7,67.7v-59c0-6.8-5.5-12.3-12.3-12.3h-9.9c-18.1,0-32.9-14.8-32.9-32.9V92.45
			c0-18.1,14.7-32.9,32.9-32.9H292c6.8,0,12.3-5.5,12.3-12.2s-5.5-12.3-12.3-12.3H57.4C25.7,35.05,0,60.85,0,92.45v246.8
			C0,370.25,24.5,395.45,55.2,396.65z"/>
		<path d="M351.6,150.35c2.4,2.4,5.5,3.6,8.7,3.6s6.3-1.2,8.7-3.6l49.5-49.5l49.5,49.5c2.4,2.4,5.5,3.6,8.7,3.6s6.3-1.2,8.7-3.6
			c4.8-4.8,4.8-12.5,0-17.3l-49.7-49.5l49.5-49.5c4.8-4.8,4.8-12.5,0-17.3s-12.5-4.8-17.3,0l-49.5,49.4l-49.5-49.5
			c-4.8-4.8-12.5-4.8-17.3,0s-4.8,12.5,0,17.3l49.5,49.6l-49.5,49.5C346.8,137.85,346.8,145.55,351.6,150.35z"/>
	</g>
</g>
<g>
</g>
<g>
</g>
<g>
</g>
<g>
</g>
<g>
</g>
<g>
</g>
<g>
</g>
<g>
</g>
<g>
</g>
<g>
</g>
<g>
</g>
<g>
</g>
<g>
</g>
<g>
</g>
<g>
</g>
</svg>
