<?xml version="1.0" encoding="iso-8859-1"?>
<!-- Generator: Adobe Illustrator 19.0.0, SVG Export Plug-In . SVG Version: 6.00 Build 0)  -->
<svg version="1.1" id="Capa_1" xmlns="http://www.w3.org/2000/svg" xmlns:xlink="http://www.w3.org/1999/xlink" x="0px" y="0px"
	 viewBox="0 0 489.7 489.7" style="enable-background:new 0 0 489.7 489.7;" xml:space="preserve">
<g>
	<g>
		<path d="M310.6,453.15c6.6-1.6,10.6-8.3,9-14.8c-1.6-6.6-8.3-10.6-14.8-9c-19.4,4.8-39.6,7.2-59.9,7.2
			c-121.5,0-220.4-86-220.4-191.7s98.9-191.7,220.4-191.7s220.4,86,220.4,191.7c0,44.1-16.8,85.5-48.5,119.9
			c-3.1,3.4-4.1,8.2-2.5,12.6c6.6,17.7,16.4,32.5,29.3,44c-18.2,0.7-43-1.9-66-15.8c-5.8-3.5-13.3-1.6-16.8,4.2s-1.6,13.3,4.2,16.8
			c36.7,22,76.5,20.6,96.9,17.7c7.7-1.1,13.8-6.7,15.5-14.2c1.7-7.7-1.4-15.4-8.1-19.8c-12.7-8.4-22.5-20-29.3-34.8
			c32.1-37.4,49.7-83.5,49.7-130.6c0-119.2-109.9-216.2-244.9-216.2S0,125.65,0,244.85s109.8,216.2,244.9,216.2
			C267.2,461.05,289.3,458.45,310.6,453.15z"/>
		<circle cx="245" cy="244.85" r="15.7"/>
		<circle cx="312.6" cy="244.85" r="15.7"/>
		<circle cx="177.4" cy="244.85" r="15.7"/>
	</g>
</g>
<g>
</g>
<g>
</g>
<g>
</g>
<g>
</g>
<g>
</g>
<g>
</g>
<g>
</g>
<g>
</g>
<g>
</g>
<g>
</g>
<g>
</g>
<g>
</g>
<g>
</g>
<g>
</g>
<g>
</g>
</svg>
