<?xml version="1.0" encoding="iso-8859-1"?>
<!-- Generator: Adobe Illustrator 19.0.0, SVG Export Plug-In . SVG Version: 6.00 Build 0)  -->
<svg version="1.1" id="Capa_1" xmlns="http://www.w3.org/2000/svg" xmlns:xlink="http://www.w3.org/1999/xlink" x="0px" y="0px"
	 viewBox="0 0 490.6 490.6" style="enable-background:new 0 0 490.6 490.6;" xml:space="preserve">
<g>
	<g>
		<path d="M292.2,414.05c-20.4,5.8-41.7,8.7-63.4,8.7c-39.7,0-78.3-10-111.6-28.9c-3.8-2.2-8.6-2.1-12.4,0.1
			c-20.4,12.2-42.4,14.9-58.9,14.6c11.3-10.6,20-24,25.9-39.9c1.6-4.3,0.6-9.2-2.5-12.6c-29.4-31.8-44.9-70.2-44.9-111
			c0-97.9,91.6-177.6,204.3-177.6c104.5,0,191.8,68,203.1,158.2c0.8,6.7,6.9,11.5,13.7,10.6c6.7-0.8,11.5-7,10.6-13.7
			c-12.7-102.1-110.5-179.4-227.3-179.4C102.6,43.15,0,133.85,0,245.25c0,43.9,16.3,86.8,46.1,121.7c-6.2,13.4-15.1,24-26.7,31.5
			c-6.5,4.2-9.6,11.8-7.9,19.3c1.7,7.4,7.6,12.9,15.2,13.9c18,2.5,51.9,3.9,84.4-13.1c35.5,18.8,76,28.7,117.6,28.7
			c23.9,0,47.5-3.2,70.1-9.7c6.5-1.9,10.3-8.6,8.4-15.1C305.5,416.05,298.7,412.25,292.2,414.05z"/>
		<circle cx="228.7" cy="245.25" r="14.6"/>
		<circle cx="165.8" cy="245.25" r="14.6"/>
		<circle cx="291.6" cy="245.25" r="14.6"/>
		<path d="M468.5,335.45v-23.1c0-31.8-25.9-57.7-57.7-57.7c-25.3,0-48.1,16.9-55.3,41.2c-1.9,6.5,1.8,13.3,8.2,15.2
			c6.5,1.9,13.3-1.7,15.2-8.2c4.2-13.9,17.2-23.7,31.8-23.7c18.3,0,33.2,14.9,33.2,33.2v22.9H355c-13.3,0-24.1,10.8-24.1,24.1v64
			c0,13.3,10.8,24.1,24.1,24.1h111.5c13.3,0,24.1-10.8,24.1-24.1v-64C490.6,346.75,480.8,336.45,468.5,335.45z M466.1,422.85H355.5
			v-63.1h110.6L466.1,422.85L466.1,422.85z"/>
	</g>
</g>
<g>
</g>
<g>
</g>
<g>
</g>
<g>
</g>
<g>
</g>
<g>
</g>
<g>
</g>
<g>
</g>
<g>
</g>
<g>
</g>
<g>
</g>
<g>
</g>
<g>
</g>
<g>
</g>
<g>
</g>
</svg>
