<?xml version="1.0" encoding="iso-8859-1"?>
<!-- Generator: Adobe Illustrator 19.0.0, SVG Export Plug-In . SVG Version: 6.00 Build 0)  -->
<svg version="1.1" id="Capa_1" xmlns="http://www.w3.org/2000/svg" xmlns:xlink="http://www.w3.org/1999/xlink" x="0px" y="0px"
	 viewBox="0 0 489.8 489.8" style="enable-background:new 0 0 489.8 489.8;" xml:space="preserve">
<g>
	<g>
		<path d="M245,461.15c44.7,0,88.2-10.7,126.3-31c19.9,10.5,42.5,15.8,67.3,15.8c7.8,0,15.6-0.5,23.4-1.6
			c7.7-1.1,13.8-6.7,15.5-14.3c1.7-7.7-1.4-15.4-8.1-19.8c-12.7-8.4-22.6-20-29.3-34.8c32.1-37.4,49.7-83.5,49.7-130.6
			c0-119.2-109.9-216.2-244.9-216.2c-135.1,0-244.9,97-244.9,216.2S109.9,461.15,245,461.15z M24.6,244.95
			c0-105.7,98.9-191.7,220.4-191.7s220.4,86,220.4,191.7c0,44.1-16.8,85.5-48.5,119.9c-3.1,3.4-4.1,8.2-2.5,12.6
			c6.6,17.7,16.4,32.5,29.3,44.1c-24.7,0.9-47.2-4.5-66.1-15.8c-1.9-1.2-4.1-1.7-6.3-1.7c-2.1,0-4.2,0.5-6.1,1.6
			c-35.9,20.4-77.5,31.2-120.4,31.2C123.4,436.65,24.6,350.65,24.6,244.95z"/>
		<path d="M150.1,174.55c-13.4,13.4-20.8,31.2-20.8,50.2c0,18.9,7.4,36.7,20.8,50.1l79.7,79.8c3.9,3.9,9.4,6.2,15,6.2
			c5.7,0,11-2.2,15-6.2l79.9-79.9c13.4-13.4,20.8-31.2,20.8-50.1s-7.3-36.8-20.8-50.2c-13.4-13.4-31.2-20.8-50.1-20.8
			c-16.5,0-32.2,5.6-44.8,15.9c-12.6-10.3-28.2-15.9-44.7-15.9C181.3,153.85,163.5,161.25,150.1,174.55z M153.9,224.75
			c0-12.4,4.8-24.1,13.6-32.8c8.8-8.8,20.4-13.6,32.8-13.6c12.4,0,24.1,4.8,32.8,13.6l3.2,3.2c2.3,2.3,5.4,3.6,8.7,3.6
			c3.2,0,6.4-1.3,8.7-3.6l3.3-3.3c8.8-8.8,20.5-13.6,32.9-13.6s24,4.8,32.8,13.6c8.8,8.8,13.6,20.4,13.6,32.8s-4.9,24-13.6,32.8
			l-77.8,77.5l-77.4-77.4C158.7,248.85,153.9,237.15,153.9,224.75z"/>
	</g>
</g>
<g>
</g>
<g>
</g>
<g>
</g>
<g>
</g>
<g>
</g>
<g>
</g>
<g>
</g>
<g>
</g>
<g>
</g>
<g>
</g>
<g>
</g>
<g>
</g>
<g>
</g>
<g>
</g>
<g>
</g>
</svg>
