<?xml version="1.0" encoding="iso-8859-1"?>
<!-- Generator: Adobe Illustrator 19.0.0, SVG Export Plug-In . SVG Version: 6.00 Build 0)  -->
<svg version="1.1" id="Capa_1" xmlns="http://www.w3.org/2000/svg" xmlns:xlink="http://www.w3.org/1999/xlink" x="0px" y="0px"
	 viewBox="0 0 490.027 490.027" style="enable-background:new 0 0 490.027 490.027;" xml:space="preserve">
<g>
	<g>
		<path d="M17.9,372.914c-6.2,4.1-9.2,11.4-7.6,18.6c1.6,7.1,7.4,12.4,14.6,13.4c16,2.2,46.1,3.4,75.1-11.5
			c31.6,16.6,67.5,25.3,104.4,25.3c21.4,0,42.4-2.9,62.6-8.6c6.5-1.8,10.3-8.6,8.4-15.1c-1.8-6.5-8.6-10.3-15.1-8.4
			c-18,5.1-36.8,7.7-55.9,7.7c-35,0-69-8.8-98.3-25.5c-3.8-2.2-8.6-2.1-12.4,0.1c-16.5,9.9-34.2,12.6-48.2,12.8
			c9-9.2,16-20.4,20.9-33.6c1.6-4.3,0.6-9.2-2.5-12.6c-25.8-28-39.5-61.7-39.5-97.6c0-86.1,80.7-156.2,179.9-156.2
			c92.1,0,169,59.9,178.9,139.2c0.8,6.7,6.9,11.5,13.7,10.6c6.7-0.8,11.5-7,10.6-13.7c-11.4-91.6-98.8-160.7-203.2-160.7
			c-112.6,0.2-204.3,81.3-204.3,181c0,39,14.4,77.1,40.7,108.2C35.3,357.614,27.7,366.514,17.9,372.914z"/>
		<circle cx="204.3" cy="238.114" r="13"/>
		<circle cx="148.5" cy="238.114" r="13"/>
		<circle cx="260.2" cy="238.114" r="13"/>
		<path d="M370.6,432.914c46.2,0,84.6-33.4,92.6-77.3l4.4,6.5c2.4,3.5,6.2,5.5,10.2,5.5c2.3,0,4.7-0.7,6.8-2.1
			c5.6-3.8,7.1-11.4,3.4-17l-23.8-35.6c-2-3-5.1-4.9-8.7-5.4c-3.5-0.5-7.1,0.7-9.7,3.1l-31.5,28.5c-5,4.5-5.4,12.3-0.9,17.3
			s12.3,5.4,17.3,0.9l8.7-7.9c-5.2,33.4-34,59-68.7,59c-18.6,0-36.1-7.2-49.2-20.4c-4.8-4.8-12.5-4.8-17.3,0s-4.8,12.5,0,17.3
			C321.9,423.114,345.5,432.914,370.6,432.914z"/>
		<path d="M286.4,365.114c0.5,0.1,1,0.1,1.5,0.1c3,0,6-1.1,8.2-3.2l31.5-28.5c5-4.5,5.4-12.3,0.9-17.3s-12.3-5.4-17.3-0.9l-8.3,7.5
			c7.2-30.8,34.8-53.8,67.8-53.8c18.6,0,36.1,7.2,49.2,20.4c4.8,4.8,12.5,4.8,17.3,0s4.8-12.5,0-17.3
			c-17.8-17.8-41.4-27.6-66.6-27.6c-44.6,0-82,31.3-91.7,73l-4.7-7c-3.8-5.6-11.3-7.2-17-3.4c-5.6,3.8-7.1,11.4-3.4,17l23.8,35.6
			C279.7,362.714,282.8,364.714,286.4,365.114z"/>
	</g>
</g>
<g>
</g>
<g>
</g>
<g>
</g>
<g>
</g>
<g>
</g>
<g>
</g>
<g>
</g>
<g>
</g>
<g>
</g>
<g>
</g>
<g>
</g>
<g>
</g>
<g>
</g>
<g>
</g>
<g>
</g>
</svg>
