<?xml version="1.0" encoding="iso-8859-1"?>
<!-- Generator: Adobe Illustrator 19.0.0, SVG Export Plug-In . SVG Version: 6.00 Build 0)  -->
<svg version="1.1" id="Capa_1" xmlns="http://www.w3.org/2000/svg" xmlns:xlink="http://www.w3.org/1999/xlink" x="0px" y="0px"
	 viewBox="0 0 489.4 489.4" style="enable-background:new 0 0 489.4 489.4;" xml:space="preserve">
<g>
	<g>
		<path d="M320.15,125.4c34.6,0,62.7-28.1,62.7-62.7S354.75,0,320.15,0s-62.7,28.1-62.7,62.7C257.45,97.3,285.55,125.4,320.15,125.4
			z M320.15,24.5c21.1,0,38.2,17.1,38.2,38.2s-17.1,38.2-38.2,38.2s-38.2-17.1-38.2-38.2S299.05,24.5,320.15,24.5z"/>
		<path d="M175.55,125.4c34.6,0,62.7-28.1,62.7-62.7S210.15,0,175.55,0s-62.7,28.1-62.7,62.7C112.85,97.3,140.95,125.4,175.55,125.4
			z M175.55,24.5c21.1,0,38.2,17.1,38.2,38.2s-17.1,38.2-38.2,38.2s-38.2-17.1-38.2-38.2S154.45,24.5,175.55,24.5z"/>
		<path d="M391.75,439.7V335c19.9-10.7,32.8-31.7,32.8-54.7v-79.7c0-34.3-27.9-62.2-62.2-62.2h-53.5c-6.8,0-12.3,5.5-12.3,12.3
			s5.5,12.3,12.3,12.3h53.5c20.8,0,37.7,16.9,37.7,37.7v79.7c0,15.7-9.9,29.9-24.7,35.3c-4.8,1.8-8,6.4-8,11.5v112.6
			c0,13.8-11.2,25-25,25h-56.6c-6.8,0-12.3,5.5-12.3,12.3s5.5,12.3,12.3,12.3h56.6C369.55,489.2,391.75,467,391.75,439.7z"/>
		<path d="M286.05,200.6c0-34.3-27.9-62.2-62.2-62.2h-96.8c-34.3,0-62.2,27.9-62.2,62.2v79.7c0,23,12.9,44,32.8,54.7v104.7
			c0,27.3,22.2,49.5,49.5,49.5h56.6c27.3,0,49.5-22.2,49.5-49.5V335c19.9-10.7,32.8-31.7,32.8-54.7V200.6z M261.55,280.3
			c0,15.7-9.9,29.9-24.7,35.3c-4.8,1.8-8,6.4-8,11.5v112.6c0,13.8-11.2,25-25,25h-56.6c-13.8,0-25-11.2-25-25V327.2
			c0-5.1-3.2-9.7-8-11.5c-14.8-5.4-24.7-19.6-24.7-35.3v-79.8c0-20.8,16.9-37.7,37.7-37.7h96.8c20.8,0,37.7,16.9,37.7,37.7v79.7
			H261.55z"/>
	</g>
</g>
<g>
</g>
<g>
</g>
<g>
</g>
<g>
</g>
<g>
</g>
<g>
</g>
<g>
</g>
<g>
</g>
<g>
</g>
<g>
</g>
<g>
</g>
<g>
</g>
<g>
</g>
<g>
</g>
<g>
</g>
</svg>
