<?xml version="1.0" encoding="iso-8859-1"?>
<!-- Generator: Adobe Illustrator 19.0.0, SVG Export Plug-In . SVG Version: 6.00 Build 0)  -->
<svg version="1.1" id="Capa_1" xmlns="http://www.w3.org/2000/svg" xmlns:xlink="http://www.w3.org/1999/xlink" x="0px" y="0px"
	 viewBox="0 0 489.3 489.3" style="enable-background:new 0 0 489.3 489.3;" xml:space="preserve">
<g>
	<g>
		<path d="M257.35,62.7c0,34.6,28.1,62.7,62.7,62.7s62.7-28.1,62.7-62.7S354.65,0,320.05,0S257.35,28.1,257.35,62.7z M281.85,62.7
			c0-21.1,17.1-38.2,38.2-38.2s38.2,17.1,38.2,38.2s-17.1,38.2-38.2,38.2S281.85,83.8,281.85,62.7z"/>
		<path d="M238.15,62.7c0-34.6-28.1-62.7-62.7-62.7s-62.7,28.1-62.7,62.7s28.1,62.7,62.7,62.7S238.15,97.3,238.15,62.7z
			 M213.65,62.7c0,21.1-17.1,38.2-38.2,38.2s-38.2-17.1-38.2-38.2s17.1-38.2,38.2-38.2S213.65,41.6,213.65,62.7z"/>
		<path d="M424.45,200.6v79.7c0,23-12.9,44-32.8,54.7v104.7c0,27.3-22.2,49.5-49.5,49.5h-56.6c-6.8,0-12.3-5.5-12.3-12.3
			s5.5-12.3,12.3-12.3h56.6c13.8,0,25-11.2,25-25V327.2c0-5.1,3.2-9.7,8-11.5c14.8-5.4,24.7-19.6,24.7-35.3v-79.8
			c0-20.8-16.9-37.7-37.7-37.7h-53.5c-6.8,0-12.3-5.5-12.3-12.3s5.5-12.3,12.3-12.3h53.5C396.55,138.5,424.45,166.4,424.45,200.6z"
			/>
		<path d="M223.85,138.5h-96.8c-34.3,0-62.2,27.9-62.2,62.2v79.7c0,23,12.9,44,32.8,54.7v104.7c0,27.3,22.2,49.5,49.5,49.5h56.6
			c27.3,0,49.5-22.2,49.5-49.5V335c19.9-10.7,32.8-31.7,32.8-54.7v-79.7C285.95,166.4,258.15,138.5,223.85,138.5z M261.45,280.3
			c0,15.7-9.9,29.9-24.7,35.3c-4.8,1.8-8,6.4-8,11.5v112.6c0,13.8-11.2,25-25,25h-56.6c-13.8,0-25-11.2-25-25V327.2
			c0-5.1-3.2-9.7-8-11.5c-14.8-5.4-24.7-19.6-24.7-35.3v-79.8c0-20.8,16.9-37.7,37.7-37.7h96.8c20.8,0,37.7,16.9,37.7,37.7v79.7
			H261.45z"/>
	</g>
</g>
<g>
</g>
<g>
</g>
<g>
</g>
<g>
</g>
<g>
</g>
<g>
</g>
<g>
</g>
<g>
</g>
<g>
</g>
<g>
</g>
<g>
</g>
<g>
</g>
<g>
</g>
<g>
</g>
<g>
</g>
</svg>
