<?xml version="1.0" encoding="iso-8859-1"?>
<!-- Generator: Adobe Illustrator 19.0.0, SVG Export Plug-In . SVG Version: 6.00 Build 0)  -->
<svg version="1.1" id="Capa_1" xmlns="http://www.w3.org/2000/svg" xmlns:xlink="http://www.w3.org/1999/xlink" x="0px" y="0px"
	 viewBox="0 0 488.7 488.7" style="enable-background:new 0 0 488.7 488.7;" xml:space="preserve">
<g>
	<g>
		<path d="M244.3,100C164.7,100,100,164.7,100,244.3c0,79.5,64.7,144.3,144.3,144.3s144.3-64.8,144.3-144.3
			C388.6,164.7,323.9,100,244.3,100z M244.3,364.1c-66,0-119.8-53.7-119.8-119.8c0-66,53.7-119.8,119.8-119.8
			s119.8,53.8,119.8,119.8S310.3,364.1,244.3,364.1z"/>
		<path d="M467.2,252.1c-4.1-5.6-4.2-13.3-0.1-19l8.5-12.1c6.7-9.5,9.1-21.5,6.4-32.9s-10.1-21.1-20.4-26.6l-13-7
			c-6.2-3.3-9.5-10.1-8.4-17l2.5-14.6c1.9-11.5-1.2-23.3-8.5-32.4c-7.4-9.1-18.3-14.6-29.9-15.1l-14.8-0.6c-7-0.3-13-5-14.9-11.7
			L370.3,49c-5-17.3-21.1-29.4-39.2-29.4c-5.5,0-11,1.1-16.1,3.3l-13.6,5.8c-6.3,2.7-14,1-18.5-4.1l-9.9-11C265.3,5,254.2,0,242.7,0
			c-11.8,0-23,5.1-30.8,14l-9.6,11.2c-4.5,5.2-12.1,7-18.5,4.4L170.1,24c-5-2-10.2-3.1-15.5-3.1c-18.3,0-34.5,12.3-39.3,30
			l-3.9,14.3c-1.8,6.7-7.8,11.5-14.8,11.9L81.9,78c-11.6,0.6-22.5,6.3-29.7,15.5s-10.1,21.1-8,32.5l2.7,14.5
			c1.3,6.9-2,13.8-8.1,17.2l-12.9,7.2c-10.2,5.7-17.5,15.5-20,26.9s0,23.4,6.9,32.8l8.7,11.9c4.1,5.6,4.2,13.3,0.1,19l-8.5,12.1
			c-6.7,9.5-9.1,21.5-6.4,32.9s10.1,21.1,20.4,26.6l13,7c6.2,3.3,9.5,10.1,8.4,17L46,365.7c-1.9,11.5,1.2,23.3,8.5,32.4
			c7.4,9.1,18.3,14.6,29.9,15.1l14.8,0.6c7,0.3,13,5,14.9,11.7l4.1,14.2c5,17.3,21.1,29.4,39.2,29.4c5.5,0,11-1.1,16.1-3.3l13.6-5.8
			c6.3-2.7,14-1,18.5,4.1l9.9,11c7.7,8.6,18.8,13.6,30.3,13.6c11.8,0,23-5.1,30.8-14l9.7-11.2c4.5-5.2,12.1-7,18.5-4.4l13.7,5.6
			c5,2,10.2,3.1,15.5,3.1c18.3,0,34.5-12.3,39.3-30l3.9-14.3c1.8-6.7,7.8-11.5,14.8-11.9l14.8-0.9c11.7-0.7,22.5-6.3,29.7-15.5
			s10.1-21,8-32.5l-2.7-14.5c-1.3-6.9,2-13.8,8.1-17.2l12.9-7.2c10.2-5.7,17.5-15.5,20-26.9s0-23.4-6.9-32.8L467.2,252.1z
			 M458.9,291.6c-1,4.6-3.9,8.4-8,10.7l-12.9,7.2c-15.3,8.5-23.5,25.8-20.3,43l2.7,14.5c0.9,4.7-0.3,9.3-3.2,13
			c-2.9,3.7-7.1,5.9-11.9,6.2l-14.7,0.9c-17.5,1-32.4,13-37,29.9l-3.9,14.2c-1.9,7.1-8.4,12-15.7,12c-2.1,0-4.2-0.4-6.2-1.2
			l-13.7-5.6c-5-2-10.2-3.1-15.5-3.1c-11.8,0-23,5.1-30.8,14l-9.7,11.1c-3.1,3.6-7.5,5.6-12.3,5.6c-4.7,0-9-1.9-12.1-5.4l-9.9-11
			C216.1,439,205,434,193.4,434c-5.6,0-11,1.1-16.1,3.3l-13.6,5.8c-2.1,0.9-4.2,1.3-6.4,1.3c-7.2,0-13.6-4.8-15.6-11.7l-4.1-14.2
			c-4.9-16.8-19.9-28.6-37.4-29.4l-14.8-0.6c-4.7-0.2-9-2.3-11.9-6c-3-3.7-4.2-8.3-3.4-12.9l2.5-14.6c2.9-17.3-5.5-34.4-21-42.7
			l-13-7c-4.2-2.2-7.1-6-8.2-10.6c-1.1-4.6-0.2-9.3,2.6-13.1l8.5-12.1c10.1-14.3,10-33.4-0.4-47.6L32.4,210
			c-2.8-3.8-3.8-8.5-2.7-13.1c1-4.6,3.9-8.4,8-10.7l12.9-7.2c15.3-8.5,23.5-25.8,20.3-43l-2.6-14.4c-0.9-4.7,0.3-9.3,3.2-13
			c2.9-3.7,7.1-5.9,11.9-6.2l14.7-0.9c17.5-1,32.3-13,37-29.9l3.9-14.3c1.9-7.1,8.4-12,15.7-12c2.1,0,4.2,0.4,6.2,1.2l13.7,5.6
			c5,2,10.2,3.1,15.5,3.1c11.8,0,23-5.1,30.8-14l9.7-11.1c3.1-3.6,7.5-5.6,12.3-5.6c4.7,0,9,1.9,12.1,5.4l9.9,11
			c7.7,8.6,18.8,13.6,30.4,13.6c5.6,0,11-1.1,16.1-3.3l13.6-5.8c2.1-0.9,4.2-1.3,6.4-1.3c7.2,0,13.6,4.8,15.6,11.7l4.1,14.2
			c4.9,16.8,19.9,28.6,37.4,29.4l14.8,0.6c4.7,0.2,9,2.3,12,6s4.2,8.3,3.4,12.9l-2.5,14.6c-2.9,17.3,5.5,34.4,21,42.7l13,7
			c4.2,2.2,7.1,6,8.2,10.6s0.2,9.3-2.5,13.1l-8.5,12.1c-10.1,14.3-10,33.4,0.4,47.6l8.7,11.9C458.9,282.3,459.9,287,458.9,291.6z"/>
		<path d="M279.8,204.6l-53.6,53.3l-17.4-17.5c-4.8-4.8-12.5-4.8-17.3,0c-4.8,4.8-4.8,12.5-0.1,17.3l26.1,26.2
			c2.3,2.3,5.4,3.6,8.7,3.6l0,0c3.2,0,6.3-1.3,8.6-3.6l62.3-61.9c4.8-4.8,4.8-12.5,0.1-17.3C292.4,199.9,284.6,199.9,279.8,204.6z"
			/>
	</g>
</g>
<g>
</g>
<g>
</g>
<g>
</g>
<g>
</g>
<g>
</g>
<g>
</g>
<g>
</g>
<g>
</g>
<g>
</g>
<g>
</g>
<g>
</g>
<g>
</g>
<g>
</g>
<g>
</g>
<g>
</g>
</svg>
