<?xml version="1.0" encoding="iso-8859-1"?>
<!-- Generator: Adobe Illustrator 19.0.0, SVG Export Plug-In . SVG Version: 6.00 Build 0)  -->
<svg version="1.1" id="Capa_1" xmlns="http://www.w3.org/2000/svg" xmlns:xlink="http://www.w3.org/1999/xlink" x="0px" y="0px"
	 viewBox="0 0 488.6 488.6" style="enable-background:new 0 0 488.6 488.6;" xml:space="preserve">
<g>
	<g>
		<path d="M467.1,252.1c-4.1-5.6-4.2-13.3-0.1-19l8.5-12.1c6.7-9.5,9.1-21.5,6.4-32.9s-10.1-21.1-20.4-26.6l-13-7
			c-6.2-3.3-9.5-10.1-8.4-17l2.5-14.6c1.9-11.5-1.2-23.3-8.5-32.4c-7.4-9.1-18.3-14.6-29.9-15.1l-14.9-0.5c-7-0.3-13-5-14.9-11.7
			L370.3,49c-5-17.3-21.1-29.4-39.2-29.4c-5.5,0-11,1.1-16.1,3.3l-13.6,5.8c-6.3,2.7-14,1-18.5-4.1l-9.9-11C265.3,5,254.2,0,242.7,0
			c-11.8,0-23,5.1-30.8,14l-9.6,11.3c-4.5,5.2-12.1,7-18.5,4.4l-13.7-5.6c-5-2-10.2-3.1-15.5-3.1c-18.3,0-34.5,12.3-39.3,30
			l-3.9,14.2c-1.8,6.7-7.8,11.5-14.7,11.9L82,78c-11.7,0.7-22.5,6.3-29.7,15.5s-10.1,21-8,32.5l2.7,14.5c1.3,6.9-2,13.8-8.1,17.2
			L26,164.9c-10.2,5.7-17.5,15.5-20,26.9s0,23.4,6.9,32.8l8.7,11.9c4.1,5.6,4.2,13.3,0.1,19l-8.5,12.1c-6.7,9.5-9.1,21.5-6.4,32.9
			s10.1,21,20.4,26.6l13,7c6.2,3.3,9.5,10.1,8.4,17l-2.5,14.6c-1.9,11.5,1.2,23.3,8.5,32.4c7.4,9.1,18.3,14.6,29.9,15.1l14.8,0.6
			c7,0.3,13,5,14.9,11.7l4.1,14.2c5,17.3,21.1,29.4,39.2,29.4c5.5,0,11-1.1,16.1-3.3l13.6-5.8c6.3-2.7,14-1,18.5,4.1l9.9,11
			c7.7,8.6,18.8,13.5,30.3,13.5c11.8,0,23-5.1,30.8-14l9.6-11.3c4.5-5.2,12.1-7,18.5-4.4l13.7,5.6c5,2,10.2,3.1,15.5,3.1l0,0
			c18.3,0,34.5-12.3,39.3-30l3.9-14.2c1.8-6.7,7.8-11.5,14.7-11.9l14.7-0.8c11.7-0.7,22.5-6.3,29.7-15.5s10.1-21,8-32.5l-2.7-14.5
			c-1.3-6.9,2-13.8,8.1-17.1l12.9-7.2c10.2-5.7,17.5-15.5,20-26.9s0-23.4-6.9-32.8L467.1,252.1z M458.8,291.6c-1,4.6-3.9,8.4-8,10.7
			l-12.9,7.2c-15.3,8.5-23.5,25.8-20.3,43l2.7,14.5c0.9,4.6-0.3,9.3-3.2,13c-2.9,3.7-7.1,5.9-11.8,6.2l-14.7,0.8
			c-17.5,1-32.3,13-37,29.9l-3.9,14.2c-1.9,7.1-8.4,12-15.7,12c-2.1,0-4.2-0.4-6.2-1.2l-13.7-5.6c-5-2-10.2-3.1-15.5-3.1
			c-11.8,0-23,5.1-30.8,14l-9.7,11.1c-3.1,3.6-7.5,5.6-12.3,5.6c-4.7,0-9-1.9-12.1-5.4l-9.9-11c-7.7-8.6-18.8-13.6-30.4-13.6
			c-5.6,0-11,1.1-16.1,3.3l-13.6,5.8c-2.1,0.9-4.2,1.3-6.4,1.3c-7.2,0-13.6-4.8-15.6-11.7l-4.1-14.2c-4.9-16.8-19.9-28.6-37.4-29.4
			l-14.8-0.6c-4.7-0.2-9-2.3-11.9-6c-3-3.7-4.2-8.3-3.4-12.9l2.5-14.6c2.9-17.3-5.5-34.4-21-42.7l-13-7c-4.2-2.2-7.1-6-8.1-10.6
			c-1.1-4.6-0.2-9.3,2.5-13.1l8.5-12.1c10.1-14.3,10-33.4-0.4-47.6l-8.7-11.9c-2.8-3.8-3.8-8.5-2.7-13.1c1-4.6,3.9-8.4,8-10.7
			l12.9-7.2c15.3-8.5,23.5-25.8,20.3-43l-2.6-14.3c-0.9-4.7,0.3-9.3,3.2-13c2.9-3.7,7.1-5.9,11.8-6.2l14.7-0.9
			c17.5-1,32.3-13,37-29.9l3.9-14.3c1.9-7,8.4-12,15.7-12c2.1,0,4.2,0.4,6.2,1.2l13.7,5.6c5,2,10.2,3.1,15.5,3.1
			c11.8,0,23-5.1,30.8-14l9.7-11.1c3.1-3.6,7.5-5.6,12.3-5.6c4.7,0,9,1.9,12.1,5.4l9.9,11c7.7,8.6,18.8,13.6,30.4,13.6
			c5.6,0,11-1.1,16.1-3.3l13.6-5.8c2.1-0.9,4.2-1.3,6.4-1.3c7.2,0,13.6,4.8,15.6,11.7L351,70c4.9,16.8,19.9,28.6,37.4,29.4l14.8,0.6
			c4.7,0.2,9,2.3,11.9,6c3,3.7,4.2,8.3,3.4,12.9l-2.4,14.6c-2.9,17.3,5.5,34.4,21,42.7l13,7c4.2,2.2,7.1,6,8.2,10.6
			s0.2,9.3-2.5,13.1l-8.5,12.1c-10.1,14.3-10,33.4,0.4,47.6l8.7,11.9C458.8,282.3,459.8,286.9,458.8,291.6z"/>
		<path d="M244.3,93.6c-83.1,0-150.7,67.6-150.7,150.7S161.2,395,244.3,395S395,327.4,395,244.3S327.4,93.6,244.3,93.6z
			 M244.3,370.5c-69.6,0-126.2-56.6-126.2-126.2s56.6-126.2,126.2-126.2s126.2,56.6,126.2,126.2S313.9,370.5,244.3,370.5z"/>
		<path d="M255.9,231.9h-23.2c-7.3,0-13.2-6.7-13.2-15s5.9-15,13.2-15h40.9c6.8,0,12.3-5.5,12.3-12.3s-5.5-12.3-12.3-12.3h-17.1
			v-13.8c0-6.8-5.5-12.3-12.3-12.3s-12.3,5.5-12.3,12.3v13.8c-20.5,0.4-37,17.9-37,39.5c0,21.8,16.9,39.5,37.7,39.5h23.2
			c7.3,0,13.2,6.7,13.2,15s-5.9,15-13.2,15h-41.7c-6.8,0-12.3,5.5-12.3,12.3s5.5,12.3,12.3,12.3h17.8V325c0,6.8,5.5,12.3,12.3,12.3
			s12.3-5.5,12.3-12.3v-14.1c20.5-0.4,37-18,37-39.5C293.6,249.6,276.7,231.9,255.9,231.9z"/>
	</g>
</g>
<g>
</g>
<g>
</g>
<g>
</g>
<g>
</g>
<g>
</g>
<g>
</g>
<g>
</g>
<g>
</g>
<g>
</g>
<g>
</g>
<g>
</g>
<g>
</g>
<g>
</g>
<g>
</g>
<g>
</g>
</svg>
