<?xml version="1.0" encoding="iso-8859-1"?>
<!-- Generator: Adobe Illustrator 19.0.0, SVG Export Plug-In . SVG Version: 6.00 Build 0)  -->
<svg version="1.1" id="Capa_1" xmlns="http://www.w3.org/2000/svg" xmlns:xlink="http://www.w3.org/1999/xlink" x="0px" y="0px"
	 viewBox="0 0 489.2 489.2" style="enable-background:new 0 0 489.2 489.2;" xml:space="preserve">
<g>
	<g>
		<path d="M169.15,0c-34.6,0-62.7,28.1-62.7,62.7s28.1,62.7,62.7,62.7s62.7-28.1,62.7-62.7S203.75,0,169.15,0z M169.15,100.9
			c-21.1,0-38.2-17.1-38.2-38.2s17.1-38.2,38.2-38.2s38.2,17.1,38.2,38.2S190.25,100.9,169.15,100.9z"/>
		<path d="M313.75,125.4c34.6,0,62.7-28.1,62.7-62.7S348.35,0,313.75,0s-62.7,28.1-62.7,62.7S279.15,125.4,313.75,125.4z
			 M313.75,24.5c21.1,0,38.2,17.1,38.2,38.2s-17.1,38.2-38.2,38.2s-38.2-17.1-38.2-38.2S292.75,24.5,313.75,24.5z"/>
		<path d="M64.75,200.6v79.7c0,23,12.9,44,32.8,54.7v104.7c0,27.3,22.2,49.5,49.5,49.5h56.6c6.8,0,12.3-5.5,12.3-12.3
			s-5.5-12.3-12.3-12.3h-56.6c-13.8,0-25-11.2-25-25V327.2c0-5.1-3.2-9.7-8-11.5c-14.8-5.4-24.7-19.6-24.7-35.3v-79.8
			c0-20.8,16.9-37.7,37.7-37.7h53.5c6.8,0,12.3-5.5,12.3-12.3s-5.5-12.3-12.3-12.3h-53.5C92.65,138.5,64.75,166.4,64.75,200.6z"/>
		<path d="M203.25,200.6v79.7c0,23,12.9,44,32.8,54.7v104.7c0,27.3,22.2,49.5,49.5,49.5h56.6c27.3,0,49.5-22.2,49.5-49.5V335
			c19.9-10.7,32.8-31.7,32.8-54.7v-79.7c0-34.3-27.9-62.2-62.2-62.2h-96.8C231.05,138.5,203.25,166.4,203.25,200.6z M227.75,200.6
			c0-20.8,16.9-37.7,37.7-37.7h96.8c20.8,0,37.7,16.9,37.7,37.7v79.7c0,15.7-9.9,29.9-24.7,35.3c-4.8,1.8-8,6.4-8,11.5v112.6
			c0,13.8-11.2,25-25,25h-56.6c-13.8,0-25-11.2-25-25V327.2c0-5.1-3.2-9.7-8-11.5c-14.8-5.4-24.7-19.6-24.7-35.3v-79.8H227.75z"/>
	</g>
</g>
<g>
</g>
<g>
</g>
<g>
</g>
<g>
</g>
<g>
</g>
<g>
</g>
<g>
</g>
<g>
</g>
<g>
</g>
<g>
</g>
<g>
</g>
<g>
</g>
<g>
</g>
<g>
</g>
<g>
</g>
</svg>
