<?xml version="1.0" encoding="iso-8859-1"?>
<!-- Generator: Adobe Illustrator 19.0.0, SVG Export Plug-In . SVG Version: 6.00 Build 0)  -->
<svg version="1.1" id="Capa_1" xmlns="http://www.w3.org/2000/svg" xmlns:xlink="http://www.w3.org/1999/xlink" x="0px" y="0px"
	 viewBox="0 0 476.9 476.9" style="enable-background:new 0 0 476.9 476.9;" xml:space="preserve">
<g>
	<g>
		<path d="M181.117,155.5c3-3,6-6.1,9.1-9.2c10.7-10.7,16.4-23.1,16.4-35.7s-5.7-24.9-16.4-35.7l-29.4-29.4
			c-3.4-3.4-6.7-6.8-10-10.2c-6.6-6.7-13.3-13.6-20-19.9c-10.1-10.1-22.1-15.4-34.7-15.4s-24.7,5.3-35.2,15.4l-37.1,37
			c-13.4,13.4-21,29.8-22.7,48.7c-1.9,23.6,2.4,48.8,13.7,79.1c17.3,46.9,43.4,90.4,82.1,137c47,56.2,103.6,100.5,168.2,131.7
			c24.6,11.7,57.5,25.4,94.1,27.8c2.3,0.1,4.5,0.2,6.7,0.2c24.6,0,44.4-8.5,60.5-26c0.1-0.1,0.3-0.3,0.4-0.5
			c5.7-6.9,12.2-13.1,19-19.7c4.6-4.5,9.4-9.1,13.9-13.9c21.1-22,21.1-49.9-0.2-71.2l-59.3-59.3c-10.1-10.5-22.2-16.1-34.9-16.1
			c-12.7,0-24.8,5.5-35.2,15.9l-35.2,35.4c-3.2-1.9-6.5-3.5-9.7-5.1c-3.9-2-7.6-3.8-10.9-5.9c-32.2-20.4-61.4-47.1-89.3-81.4
			c-14.1-17.8-23.5-32.8-30.1-48.1C164.117,172.7,172.817,163.9,181.117,155.5z M136.417,164.7c-0.2,0.2-0.3,0.3-0.5,0.5
			c-8.2,8.2-7,16.1-5,22.1c0.1,0.3,0.2,0.5,0.3,0.8c7.6,18.3,18.2,35.6,34.6,56.4c29.7,36.5,60.8,64.9,95.2,86.7
			c4.3,2.7,8.8,5,13.1,7.1c3.9,2,7.6,3.8,10.9,5.9c0.4,0.2,0.7,0.4,1.1,0.6c3.3,1.7,6.4,2.5,9.6,2.5c8,0,13.1-5.1,14.8-6.8
			l36.9-36.9c5.7-5.7,11.9-8.7,17.9-8.7c7.5,0,13.5,4.6,17.4,8.7l59.5,59.5c11.8,11.8,11.7,24.5-0.3,37c-4.2,4.4-8.5,8.6-13.2,13.1
			c-6.9,6.7-14.1,13.6-20.6,21.4c-11.3,12.2-24.8,17.9-42.3,17.9c-1.7,0-3.5-0.1-5.2-0.2c-32.4-2.1-62.5-14.7-85-25.5
			c-61.4-29.7-115.2-71.9-160-125.3c-36.8-44.3-61.6-85.6-77.9-129.8c-10-26.9-13.9-48.7-12.3-68.5c1.1-13.1,6.2-24.1,15.6-33.4
			l36.7-36.7c5.7-5.5,12-8.4,18.1-8.4c6,0,12,2.8,17.7,8.5c6.6,6.2,12.9,12.6,19.5,19.4c3.4,3.4,6.8,6.9,10.2,10.4l29.4,29.4
			c6.1,6.1,9.2,12.3,9.2,18.3c0,6-3.1,12.2-9.2,18.3c-3.1,3.1-6.1,6.2-9.2,9.3C154.517,147.5,145.917,156.3,136.417,164.7z"/>
		<path d="M273.017,203.8c2.4,2.4,5.5,3.6,8.7,3.6s6.3-1.2,8.7-3.6l161.2-161.3v95.4c0,6.8,5.5,12.3,12.3,12.3s12.3-5.5,12.3-12.3
			v-125c0-6.8-5.5-12.3-12.3-12.3h-125c-6.8,0-12.3,5.5-12.3,12.3s5.5,12.3,12.3,12.3h95.4l-161.3,161.3
			C268.217,191.3,268.217,199.1,273.017,203.8z"/>
	</g>
</g>
<g>
</g>
<g>
</g>
<g>
</g>
<g>
</g>
<g>
</g>
<g>
</g>
<g>
</g>
<g>
</g>
<g>
</g>
<g>
</g>
<g>
</g>
<g>
</g>
<g>
</g>
<g>
</g>
<g>
</g>
</svg>
