<?xml version="1.0" encoding="iso-8859-1"?>
<!-- Generator: Adobe Illustrator 19.0.0, SVG Export Plug-In . SVG Version: 6.00 Build 0)  -->
<svg version="1.1" id="Capa_1" xmlns="http://www.w3.org/2000/svg" xmlns:xlink="http://www.w3.org/1999/xlink" x="0px" y="0px"
	 viewBox="0 0 489.102 489.102" style="enable-background:new 0 0 489.102 489.102;" xml:space="preserve">
<g>
	<g>
		<path d="M404.478,191.702c3.7,0,7.4,0.1,11.1,0.1c3.8,0,7.6,0,10.9-0.2c24.1,0,40.7-16.5,41.2-41.2v-40.6c0-15.4-5-29.2-15-41
			c-16-18.9-37.4-30-52-36.7c-35.5-16.4-74.1-26.1-121.3-30.5c-57.1-5-113.1,1.7-166.2,20.2c-20.2,7.2-46.2,17.8-68,37
			c-16.6,14.7-24.5,32.7-23.7,53.4c0,0.2,0,0.4,0,0.6c0.6,6.8,0.5,13.7,0.4,21c-0.1,5-0.2,10.2,0,15.4c0.5,25,17.4,41.7,42,41.7
			h65.2h1.1c24.1,0,40.4-16.6,40.4-41.2v-36.8c2.2-0.6,4.3-1.3,6.3-2c3.2-1.1,6.2-2.1,8.9-2.7c18.6-4.1,37.5-6.2,58.1-6.2
			c11.2,0,23,0.6,34.9,1.9c16.5,1.9,29.2,4.7,40.5,9c-0.4,9.1-0.3,18-0.2,26.7c0,3.3,0,6.7,0,10c0,25.5,16.5,42,42,42h32.4
			C397.178,191.602,400.878,191.702,404.478,191.702z M343.578,149.602c0-3.4,0-6.8,0-10.2c-0.1-10.1-0.1-19.6,0.4-29.4
			c0-0.2,0-0.5,0-0.7c0-10.7-6.2-15-10.9-17.4c-0.3-0.1-0.5-0.3-0.8-0.4c-14.5-6-30.1-9.7-50.8-12.1c-12.9-1.3-25.5-2-37.6-2
			c-22.3,0-43.1,2.2-63.4,6.8c-4,0.9-7.7,2.1-11.4,3.3c-3.2,1.1-6.2,2.1-9,2.7c-0.4,0.1-0.8,0.2-1.2,0.3
			c-4.8,1.6-12.9,6.1-12.9,18.4v40.7c0,7.6-2.8,16.7-15.9,16.7h-66.3c-11.4,0-17.2-6-17.5-17.8c-0.1-4.7-0.1-9.3,0-14.3
			c0.1-7.6,0.3-15.4-0.4-23.4c-0.5-13.4,4.3-23.8,15.4-33.6c18.6-16.4,41.8-25.8,59.9-32.3c49.8-17.3,102.4-23.7,155.9-18.9
			c44.3,4.1,80.4,13.1,113.4,28.3c20.2,9.2,33.6,18.6,43.5,30.2c6.2,7.3,9.2,15.6,9.2,25.2v40.4c-0.2,10.9-6.2,17-17.1,17
			c-7.1,0.2-14.1,0.2-21.3,0.1c-3.8,0-7.6-0.1-11.4-0.1h-32.4C348.978,167.102,343.578,161.702,343.578,149.602z"/>
		<path d="M246.378,217.502c-21.1,0-38.2,17.2-38.2,38.2s17.2,38.2,38.2,38.2c21.1,0,38.2-17.2,38.2-38.2
			S267.478,217.502,246.378,217.502z M246.378,269.502c-7.6,0-13.7-6.2-13.7-13.7c0-7.6,6.2-13.7,13.7-13.7
			c7.6,0,13.7,6.2,13.7,13.7C260.078,263.302,253.978,269.502,246.378,269.502z"/>
		<path d="M348.378,217.502c-21.1,0-38.2,17.2-38.2,38.2s17.2,38.2,38.2,38.2c21.1,0,38.2-17.2,38.2-38.2
			S369.478,217.502,348.378,217.502z M348.378,269.502c-7.6,0-13.7-6.2-13.7-13.7c0-7.6,6.2-13.7,13.7-13.7
			c7.6,0,13.7,6.2,13.7,13.7C362.078,263.302,355.878,269.502,348.378,269.502z"/>
		<path d="M144.378,217.502c-21.1,0-38.2,17.2-38.2,38.2s17.2,38.2,38.2,38.2s38.2-17.2,38.2-38.2S165.478,217.502,144.378,217.502z
			 M144.378,269.502c-7.6,0-13.7-6.2-13.7-13.7c0-7.6,6.2-13.7,13.7-13.7s13.7,6.2,13.7,13.7
			C158.078,263.302,151.978,269.502,144.378,269.502z"/>
		<path d="M246.378,315.102c-21.1,0-38.2,17.2-38.2,38.2s17.2,38.2,38.2,38.2c21.1,0,38.2-17.2,38.2-38.2
			S267.478,315.102,246.378,315.102z M246.378,367.102c-7.6,0-13.7-6.2-13.7-13.7s6.2-13.7,13.7-13.7c7.6,0,13.7,6.2,13.7,13.7
			S253.978,367.102,246.378,367.102z"/>
		<path d="M348.378,315.102c-21.1,0-38.2,17.2-38.2,38.2s17.2,38.2,38.2,38.2c21.1,0,38.2-17.2,38.2-38.2
			S369.478,315.102,348.378,315.102z M348.378,367.102c-7.6,0-13.7-6.2-13.7-13.7s6.2-13.7,13.7-13.7c7.6,0,13.7,6.2,13.7,13.7
			S355.878,367.102,348.378,367.102z"/>
		<path d="M144.378,315.102c-21.1,0-38.2,17.2-38.2,38.2s17.2,38.2,38.2,38.2s38.2-17.2,38.2-38.2S165.478,315.102,144.378,315.102z
			 M144.378,367.102c-7.6,0-13.7-6.2-13.7-13.7s6.2-13.7,13.7-13.7s13.7,6.2,13.7,13.7S151.978,367.102,144.378,367.102z"/>
		<path d="M246.378,412.702c-21.1,0-38.2,17.2-38.2,38.2c0,21.1,17.2,38.2,38.2,38.2c21.1,0,38.2-17.2,38.2-38.2
			C284.578,429.902,267.478,412.702,246.378,412.702z M246.378,464.702c-7.6,0-13.7-6.2-13.7-13.7c0-7.6,6.2-13.7,13.7-13.7
			c7.6,0,13.7,6.2,13.7,13.7S253.978,464.702,246.378,464.702z"/>
		<path d="M348.378,412.702c-21.1,0-38.2,17.2-38.2,38.2c0,21.1,17.2,38.2,38.2,38.2c21.1,0,38.2-17.2,38.2-38.2
			C386.578,429.902,369.478,412.702,348.378,412.702z M348.378,464.702c-7.6,0-13.7-6.2-13.7-13.7c0-7.6,6.2-13.7,13.7-13.7
			c7.6,0,13.7,6.2,13.7,13.7S355.878,464.702,348.378,464.702z"/>
		<path d="M144.378,412.702c-21.1,0-38.2,17.2-38.2,38.2c0,21.1,17.2,38.2,38.2,38.2s38.2-17.2,38.2-38.2
			C182.578,429.902,165.478,412.702,144.378,412.702z M144.378,464.702c-7.6,0-13.7-6.2-13.7-13.7c0-7.6,6.2-13.7,13.7-13.7
			s13.7,6.2,13.7,13.7S151.978,464.702,144.378,464.702z"/>
	</g>
</g>
<g>
</g>
<g>
</g>
<g>
</g>
<g>
</g>
<g>
</g>
<g>
</g>
<g>
</g>
<g>
</g>
<g>
</g>
<g>
</g>
<g>
</g>
<g>
</g>
<g>
</g>
<g>
</g>
<g>
</g>
</svg>
