<?xml version="1.0" encoding="iso-8859-1"?>
<!-- Generator: Adobe Illustrator 19.0.0, SVG Export Plug-In . SVG Version: 6.00 Build 0)  -->
<svg version="1.1" id="Capa_1" xmlns="http://www.w3.org/2000/svg" xmlns:xlink="http://www.w3.org/1999/xlink" x="0px" y="0px"
	 viewBox="0 0 490 490" style="enable-background:new 0 0 490 490;" xml:space="preserve">
<g>
	<g>
		<path d="M0.5,133.2V177c0,6.8,5.5,12.3,12.3,12.3S25,183.8,25,177v-43.8c0-39.4,32.1-71.5,71.5-71.5h61.9l-16.2,16.2
			c-4.8,4.8-4.8,12.5,0,17.3c2.4,2.4,5.5,3.6,8.7,3.6s6.3-1.2,8.7-3.6l37.1-37.1c2.3-2.3,3.6-5.4,3.6-8.7c0-3.2-1.3-6.4-3.6-8.7
			L159.6,3.6c-4.8-4.8-12.5-4.8-17.3,0s-4.8,12.5,0,17.3l16.2,16.2H96.6C43.6,37.2,0.5,80.3,0.5,133.2z"/>
		<path d="M228,251.1H13.7c-6.8,0-12.3,5.5-12.3,12.3v214.3c0,6.8,5.5,12.3,12.3,12.3H228c6.8,0,12.3-5.5,12.3-12.3V263.3
			C240.2,256.6,234.7,251.1,228,251.1z M215.7,465.4H26V275.6h189.8v189.8H215.7z"/>
		<path d="M477.2,300.7c-6.8,0-12.3,5.5-12.3,12.3v43.8c0,39.4-32.1,71.5-71.5,71.5h-61.9l16.2-16.2c4.8-4.8,4.8-12.5,0-17.3
			s-12.5-4.8-17.3,0l-37.1,37.1c-2.3,2.3-3.6,5.4-3.6,8.7s1.3,6.4,3.6,8.7l37.1,37.1c2.4,2.4,5.5,3.6,8.7,3.6s6.3-1.2,8.7-3.6
			c4.8-4.8,4.8-12.5,0-17.3l-16.2-16.2h61.9c52.9,0,96-43.1,96-96V313C489.5,306.2,484,300.7,477.2,300.7z"/>
		<path d="M476.3,0.1H262c-6.8,0-12.3,5.5-12.3,12.3v214.3c0,6.8,5.5,12.3,12.3,12.3h214.3c6.8,0,12.3-5.5,12.3-12.3V12.4
			C488.5,5.6,483.1,0.1,476.3,0.1z M464,214.4H274.3V24.6H464V214.4z"/>
	</g>
</g>
<g>
</g>
<g>
</g>
<g>
</g>
<g>
</g>
<g>
</g>
<g>
</g>
<g>
</g>
<g>
</g>
<g>
</g>
<g>
</g>
<g>
</g>
<g>
</g>
<g>
</g>
<g>
</g>
<g>
</g>
</svg>
