<?xml version="1.0" encoding="iso-8859-1"?>
<!-- Generator: Adobe Illustrator 19.0.0, SVG Export Plug-In . SVG Version: 6.00 Build 0)  -->
<svg version="1.1" id="Capa_1" xmlns="http://www.w3.org/2000/svg" xmlns:xlink="http://www.w3.org/1999/xlink" x="0px" y="0px"
	 viewBox="0 0 487.2 487.2" style="enable-background:new 0 0 487.2 487.2;" xml:space="preserve">
<g>
	<g>
		<path d="M298.35,222.8h142.1c22.2,0,40.3-18.1,40.3-40.3V40.3c0-22.2-18.1-40.3-40.3-40.3h-142.1c-22.2,0-40.3,18.1-40.3,40.3
			v142.1C258.05,204.7,276.15,222.8,298.35,222.8z M282.55,40.3c0-8.7,7.1-15.8,15.8-15.8h142.1c8.7,0,15.8,7.1,15.8,15.8v142.1
			c0,8.7-7.1,15.8-15.8,15.8h-142.1c-8.7,0-15.8-7.1-15.8-15.8V40.3z"/>
		<path d="M106.25,23.6c-4.8-4.8-12.5-4.8-17.3,0l-79.1,79.1c-4.8,4.8-4.8,12.5,0,17.3l79.1,79.1c2.4,2.4,5.5,3.6,8.7,3.6
			s6.3-1.2,8.7-3.6c4.8-4.8,4.8-12.5,0-17.3l-58.3-58.2h170.8c6.8,0,12.3-5.5,12.3-12.2s-5.5-12.3-12.3-12.3H48.05l58.2-58.2
			C111.05,36.2,111.05,28.4,106.25,23.6z"/>
		<path d="M6.25,446.9c0,22.2,18.1,40.3,40.3,40.3h142.1c22.2,0,40.3-18.1,40.3-40.3V304.8c0-22.2-18.1-40.3-40.3-40.3h-142
			c-22.2,0-40.3,18.1-40.3,40.3v142.1H6.25z M30.75,304.8c0-8.7,7.1-15.8,15.8-15.8h142.1c8.7,0,15.8,7.1,15.8,15.8v142.1
			c0,8.7-7.1,15.8-15.8,15.8h-142c-8.7,0-15.8-7.1-15.8-15.8V304.8H30.75z"/>
		<path d="M268.25,388.1h170.8l-58.2,58.2c-4.8,4.8-4.8,12.5,0,17.3c2.4,2.4,5.5,3.6,8.7,3.6s6.3-1.2,8.7-3.6l79.1-79.1
			c2.3-2.3,3.6-5.4,3.6-8.7c0-3.2-1.3-6.4-3.6-8.7l-79.1-79.1c-4.8-4.8-12.5-4.8-17.3,0s-4.8,12.5,0,17.3l58.2,58.2h-170.9
			c-6.8,0-12.3,5.5-12.3,12.3C255.95,382.6,261.45,388.1,268.25,388.1z"/>
	</g>
</g>
<g>
</g>
<g>
</g>
<g>
</g>
<g>
</g>
<g>
</g>
<g>
</g>
<g>
</g>
<g>
</g>
<g>
</g>
<g>
</g>
<g>
</g>
<g>
</g>
<g>
</g>
<g>
</g>
<g>
</g>
</svg>
