<?xml version="1.0" encoding="iso-8859-1"?>
<!-- Generator: Adobe Illustrator 19.0.0, SVG Export Plug-In . SVG Version: 6.00 Build 0)  -->
<svg version="1.1" id="Capa_1" xmlns="http://www.w3.org/2000/svg" xmlns:xlink="http://www.w3.org/1999/xlink" x="0px" y="0px"
	 viewBox="0 0 487.2 487.2" style="enable-background:new 0 0 487.2 487.2;" xml:space="preserve">
<g>
	<g>
		<path d="M487.2,440.5V298.4c0-22.2-18.1-40.3-40.3-40.3H304.8c-22.2,0-40.3,18.1-40.3,40.3v142.1c0,22.2,18.1,40.3,40.3,40.3
			h142.1C469.1,480.9,487.2,462.8,487.2,440.5z M462.7,440.5c0,8.7-7.1,15.8-15.8,15.8H304.8c-8.7,0-15.8-7.1-15.8-15.8V298.4
			c0-8.7,7.1-15.8,15.8-15.8h142.1c8.7,0,15.8,7.1,15.8,15.8V440.5z"/>
		<path d="M288.1,106.3c4.8,4.8,12.5,4.8,17.3,0l58.2-58.2v170.8c0,6.8,5.5,12.3,12.3,12.3s12.3-5.5,12.3-12.3V48.1l58.2,58.2
			c2.4,2.4,5.5,3.6,8.7,3.6s6.3-1.2,8.7-3.6c4.8-4.8,4.8-12.5,0-17.3L384.7,9.9c-4.8-4.8-12.5-4.8-17.3,0L288.3,89
			C283.3,93.7,283.3,101.5,288.1,106.3z"/>
		<path d="M222.8,46.7c0-22.2-18.1-40.3-40.3-40.3H40.3C18.1,6.4,0,24.5,0,46.7v142.1c0,22.2,18.1,40.3,40.3,40.3h142.1
			c22.2,0,40.3-18.1,40.3-40.3V46.7H222.8z M198.3,188.8c0,8.7-7.1,15.8-15.8,15.8H40.3c-8.7,0-15.8-7.1-15.8-15.8V46.7
			c0-8.7,7.1-15.8,15.8-15.8h142.1c8.7,0,15.8,7.1,15.8,15.8v142.1H198.3z"/>
		<path d="M111.4,256c-6.8,0-12.3,5.5-12.3,12.3v170.8l-58.2-58.2c-4.8-4.8-12.5-4.8-17.3,0s-4.8,12.5,0,17.3l79.1,79.1
			c2.3,2.3,5.4,3.6,8.7,3.6c3.2,0,6.4-1.3,8.7-3.6l79.1-79.1c4.8-4.8,4.8-12.5,0-17.3c-4.8-4.8-12.5-4.8-17.3,0l-58.3,58.2V268.3
			C123.6,261.5,118.1,256,111.4,256z"/>
	</g>
</g>
<g>
</g>
<g>
</g>
<g>
</g>
<g>
</g>
<g>
</g>
<g>
</g>
<g>
</g>
<g>
</g>
<g>
</g>
<g>
</g>
<g>
</g>
<g>
</g>
<g>
</g>
<g>
</g>
<g>
</g>
</svg>
