<?xml version="1.0" encoding="iso-8859-1"?>
<!-- Generator: Adobe Illustrator 19.0.0, SVG Export Plug-In . SVG Version: 6.00 Build 0)  -->
<svg version="1.1" id="Capa_1" xmlns="http://www.w3.org/2000/svg" xmlns:xlink="http://www.w3.org/1999/xlink" x="0px" y="0px"
	 viewBox="0 0 487.2 487.2" style="enable-background:new 0 0 487.2 487.2;" xml:space="preserve">
<g>
	<g>
		<path d="M0,298.35v142.1c0,22.2,18.1,40.3,40.3,40.3h142.1c22.2,0,40.3-18.1,40.3-40.3v-142.1c0-22.2-18.1-40.3-40.3-40.3H40.3
			C18.1,258.05,0,276.15,0,298.35z M24.5,298.35c0-8.7,7.1-15.8,15.8-15.8h142.1c8.7,0,15.8,7.1,15.8,15.8v142.1
			c0,8.7-7.1,15.8-15.8,15.8H40.3c-8.7,0-15.8-7.1-15.8-15.8V298.35z"/>
		<path d="M111.4,231.15c6.8,0,12.3-5.5,12.3-12.3V48.05l58.2,58.2c2.4,2.4,5.5,3.6,8.7,3.6s6.3-1.2,8.7-3.6
			c4.8-4.8,4.8-12.5,0-17.3l-79.1-79.1c-4.6-4.6-12.7-4.6-17.3,0l-79.3,79.1c-4.8,4.8-4.8,12.5,0,17.3c4.8,4.8,12.5,4.8,17.3,0
			l58.2-58.2v170.8C99.1,225.65,104.6,231.15,111.4,231.15z"/>
		<path d="M487.2,188.75V46.65c0-22.2-18.1-40.3-40.3-40.3H304.8c-22.2,0-40.3,18.1-40.3,40.3v142.1c0,22.2,18.1,40.3,40.3,40.3
			h142.1C469.1,229.05,487.2,210.95,487.2,188.75z M462.7,188.75c0,8.7-7.1,15.8-15.8,15.8H304.8c-8.7,0-15.8-7.1-15.8-15.8V46.65
			c0-8.7,7.1-15.8,15.8-15.8h142.1c8.7,0,15.8,7.1,15.8,15.8V188.75z"/>
		<path d="M375.8,255.95c-6.8,0-12.3,5.5-12.3,12.3v170.8l-58.2-58.2c-4.8-4.8-12.5-4.8-17.3,0s-4.8,12.5,0,17.3l79.1,79.1
			c2.4,2.4,5.5,3.6,8.7,3.6s6.3-1.2,8.7-3.6l79.1-79.1c4.8-4.8,4.8-12.5,0-17.3s-12.5-4.8-17.3,0l-58.2,58.2v-170.8
			C388.1,261.45,382.6,255.95,375.8,255.95z"/>
	</g>
</g>
<g>
</g>
<g>
</g>
<g>
</g>
<g>
</g>
<g>
</g>
<g>
</g>
<g>
</g>
<g>
</g>
<g>
</g>
<g>
</g>
<g>
</g>
<g>
</g>
<g>
</g>
<g>
</g>
<g>
</g>
</svg>
