<?xml version="1.0" encoding="iso-8859-1"?>
<!-- Generator: Adobe Illustrator 19.0.0, SVG Export Plug-In . SVG Version: 6.00 Build 0)  -->
<svg version="1.1" id="Capa_1" xmlns="http://www.w3.org/2000/svg" xmlns:xlink="http://www.w3.org/1999/xlink" x="0px" y="0px"
	 viewBox="0 0 489.9 489.9" style="enable-background:new 0 0 489.9 489.9;" xml:space="preserve">
<g>
	<g>
		<path d="M356.7,0.45h-43.8c-6.8,0-12.3,5.5-12.3,12.3s5.5,12.2,12.3,12.2h43.8c39.4,0,71.5,32.1,71.5,71.5v61.9l-16.2-16.2
			c-4.8-4.8-12.5-4.8-17.3,0s-4.8,12.5,0,17.3l37.1,37.1c2.3,2.3,5.4,3.6,8.7,3.6c3.2,0,6.4-1.3,8.7-3.6l37.1-37.1
			c4.8-4.8,4.8-12.5,0-17.3s-12.5-4.8-17.3,0l-16.2,16.2v-61.9C452.7,43.55,409.6,0.45,356.7,0.45z"/>
		<path d="M238.8,227.95V13.65c0-6.8-5.5-12.3-12.3-12.3H12.3C5.5,1.35,0,6.85,0,13.65v214.3c0,6.8,5.5,12.3,12.3,12.3h214.3
			C233.3,240.15,238.8,234.65,238.8,227.95z M214.3,215.65H24.5V25.95h189.8V215.65z"/>
		<path d="M133.1,489.45h43.8c6.8,0,12.3-5.5,12.3-12.3s-5.5-12.2-12.3-12.2h-43.8c-39.4,0-71.5-32.1-71.5-71.5v-61.9l16.2,16.2
			c2.4,2.4,5.5,3.6,8.7,3.6s6.3-1.2,8.7-3.6c4.8-4.8,4.8-12.5,0-17.3l-37.1-37.1c-2.3-2.3-5.4-3.6-8.7-3.6c-3.2,0-6.4,1.3-8.7,3.6
			l-37.1,37.1c-4.8,4.8-4.8,12.5,0,17.3s12.5,4.8,17.3,0l16.2-16.2v61.9C37.1,446.35,80.2,489.45,133.1,489.45z"/>
		<path d="M263.2,488.45h214.3c6.8,0,12.3-5.5,12.3-12.3v-214.2c0-6.8-5.5-12.3-12.3-12.3H263.2c-6.8,0-12.3,5.5-12.3,12.3v214.3
			C251,483.05,256.5,488.45,263.2,488.45z M275.5,274.25h189.8v189.7H275.5V274.25z"/>
	</g>
</g>
<g>
</g>
<g>
</g>
<g>
</g>
<g>
</g>
<g>
</g>
<g>
</g>
<g>
</g>
<g>
</g>
<g>
</g>
<g>
</g>
<g>
</g>
<g>
</g>
<g>
</g>
<g>
</g>
<g>
</g>
</svg>
