<?xml version="1.0" encoding="iso-8859-1"?>
<!-- Generator: Adobe Illustrator 19.0.0, SVG Export Plug-In . SVG Version: 6.00 Build 0)  -->
<svg version="1.1" id="Capa_1" xmlns="http://www.w3.org/2000/svg" xmlns:xlink="http://www.w3.org/1999/xlink" x="0px" y="0px"
	 viewBox="0 0 487.2 487.2" style="enable-background:new 0 0 487.2 487.2;" xml:space="preserve">
<g>
	<g>
		<path d="M46.694,222.8h142.1c22.2,0,40.3-18.1,40.3-40.3V40.3c0-22.2-18.1-40.3-40.3-40.3h-142.1c-22.2,0-40.3,18.1-40.3,40.3
			v142.1C6.294,204.7,24.394,222.8,46.694,222.8z M30.794,40.3c0-8.7,7.1-15.8,15.8-15.8h142.1c8.7,0,15.8,7.1,15.8,15.8v142.1
			c0,8.7-7.1,15.8-15.8,15.8h-142c-8.7,0-15.8-7.1-15.8-15.8V40.3H30.794z"/>
		<path d="M477.294,102.7l-79.1-79.1c-4.8-4.8-12.5-4.8-17.3,0s-4.8,12.5,0,17.3l58.2,58.2h-170.8c-6.8,0-12.3,5.5-12.3,12.3
			s5.5,12.3,12.3,12.3h170.8l-58.2,58.2c-4.8,4.8-4.8,12.5,0,17.3c2.4,2.4,5.5,3.6,8.7,3.6s6.3-1.2,8.7-3.6l79.1-79.1
			C482.094,115.2,482.094,107.5,477.294,102.7z"/>
		<path d="M480.894,446.9V304.8c0-22.2-18.1-40.3-40.3-40.3h-142.2c-22.2,0-40.3,18.1-40.3,40.3v142.1c0,22.2,18.1,40.3,40.3,40.3
			h142.1C462.794,487.2,480.894,469.1,480.894,446.9z M456.394,446.9c0,8.7-7.1,15.8-15.8,15.8h-142.2c-8.7,0-15.8-7.1-15.8-15.8
			V304.8c0-8.7,7.1-15.8,15.8-15.8h142.1c8.7,0,15.8,7.1,15.8,15.8v142.1H456.394z"/>
		<path d="M97.594,467.2c3.1,0,6.3-1.2,8.7-3.6c4.8-4.8,4.8-12.5,0-17.3l-58.2-58.2h170.8c6.8,0,12.3-5.5,12.3-12.3
			s-5.5-12.3-12.3-12.3h-170.8l58.2-58.2c4.8-4.8,4.8-12.5,0-17.3s-12.5-4.8-17.3,0l-79.1,79.1c-4.8,4.8-4.8,12.5,0,17.3l79.1,79.1
			C91.394,466,94.494,467.2,97.594,467.2z"/>
	</g>
</g>
<g>
</g>
<g>
</g>
<g>
</g>
<g>
</g>
<g>
</g>
<g>
</g>
<g>
</g>
<g>
</g>
<g>
</g>
<g>
</g>
<g>
</g>
<g>
</g>
<g>
</g>
<g>
</g>
<g>
</g>
</svg>
