<?xml version="1.0" encoding="iso-8859-1"?>
<!-- Generator: Adobe Illustrator 19.0.0, SVG Export Plug-In . SVG Version: 6.00 Build 0)  -->
<svg version="1.1" id="Capa_1" xmlns="http://www.w3.org/2000/svg" xmlns:xlink="http://www.w3.org/1999/xlink" x="0px" y="0px"
	 viewBox="0 0 490.1 490.1" style="enable-background:new 0 0 490.1 490.1;" xml:space="preserve">
<g>
	<g>
		<path d="M385.9,14.2H104.3c-28.2,0-51.1,22.9-51.1,51.1v233.1l-32.3-32.3c-4.8-4.8-12.5-4.8-17.3,0s-4.8,12.5,0,17.3l53.3,53.3
			c2.4,2.4,5.5,3.6,8.7,3.6s6.3-1.2,8.7-3.6l53.3-53.3c4.8-4.8,4.8-12.5,0-17.3c-4.8-4.8-12.5-4.8-17.3,0l-32.4,32.4V65.3
			c0-14.7,11.9-26.6,26.6-26.6H386c14.7,0,26.6,11.9,26.6,26.6v34c0,6.8,5.5,12.3,12.3,12.3s12.3-5.5,12.3-12.3v-34
			C436.9,37.2,414,14.2,385.9,14.2z"/>
		<path d="M416,153.5l-53.3,53.3c-4.8,4.8-4.8,12.5,0,17.3c2.4,2.4,5.5,3.6,8.7,3.6s6.3-1.2,8.7-3.6l32.4-32.4v233.1
			c0,14.7-11.9,26.6-26.6,26.6H104.3c-14.7,0-26.6-11.9-26.6-26.6v-34c0-6.8-5.5-12.3-12.3-12.3s-12.3,5.5-12.3,12.3v34
			c0,28.2,22.9,51.1,51.1,51.1h281.5c28.2,0,51.1-22.9,51.1-51.1V191.7l32.4,32.4c4.8,4.8,12.5,4.8,17.3,0s4.8-12.5,0-17.3
			l-53.3-53.3C428.8,148.9,420.6,148.9,416,153.5z"/>
		<path d="M245.1,136.7c-6.8,0-12.3,5.5-12.3,12.3v18.8h-1.6c-23.4,0-42.5,20.1-42.5,44.7s19.1,44.7,42.5,44.7h27.6
			c9.9,0,18,9.1,18,20.2c0,11.2-8.1,20.2-18,20.2h-49.6c-6.8,0-12.3,5.5-12.3,12.3s5.5,12.3,12.3,12.3h23.6v19.1
			c0,6.8,5.5,12.3,12.3,12.3s12.3-5.5,12.3-12.3v-19.2h1.8c0.1,0,0.2,0,0.3,0c23.2-0.3,41.9-20.3,41.9-44.7
			c0-24.7-19.1-44.7-42.5-44.7h-27.6c-9.9,0-18-9.1-18-20.2s8.1-20.2,18-20.2H280c6.8,0,12.3-5.5,12.3-12.3s-5.5-12.3-12.3-12.3
			h-22.6v-18.8C257.3,142.2,251.9,136.7,245.1,136.7z"/>
	</g>
</g>
<g>
</g>
<g>
</g>
<g>
</g>
<g>
</g>
<g>
</g>
<g>
</g>
<g>
</g>
<g>
</g>
<g>
</g>
<g>
</g>
<g>
</g>
<g>
</g>
<g>
</g>
<g>
</g>
<g>
</g>
</svg>
