<?xml version="1.0" encoding="iso-8859-1"?>
<!-- Generator: Adobe Illustrator 19.0.0, SVG Export Plug-In . SVG Version: 6.00 Build 0)  -->
<svg version="1.1" id="Capa_1" xmlns="http://www.w3.org/2000/svg" xmlns:xlink="http://www.w3.org/1999/xlink" x="0px" y="0px"
	 viewBox="0 0 489.1 489.1" style="enable-background:new 0 0 489.1 489.1;" xml:space="preserve">
<g>
	<g>
		<path d="M244.55,489.1c6.8,0,12.3-5.5,12.3-12.3V147.1l55.9,55.9c2.4,2.4,5.5,3.6,8.7,3.6s6.3-1.2,8.7-3.6
			c4.8-4.8,4.8-12.5,0-17.3l-76.8-76.8c-4.8-4.8-12.5-4.8-17.3,0l-76.8,76.8c-4.8,4.8-4.8,12.5,0,17.3s12.5,4.8,17.3,0l55.9-55.9
			v329.7C232.35,483.6,237.75,489.1,244.55,489.1z"/>
		<path d="M488.45,12.2c0-6.8-5.5-12.2-12.3-12.2H12.95c-6.8,0-12.3,5.5-12.3,12.2s5.5,12.3,12.3,12.3h463.2
			C482.95,24.4,488.45,18.9,488.45,12.2z"/>
	</g>
</g>
<g>
</g>
<g>
</g>
<g>
</g>
<g>
</g>
<g>
</g>
<g>
</g>
<g>
</g>
<g>
</g>
<g>
</g>
<g>
</g>
<g>
</g>
<g>
</g>
<g>
</g>
<g>
</g>
<g>
</g>
</svg>
